<svg width="290" height="329" fill="none" xmlns="http://www.w3.org/2000/svg"><path fill-rule="evenodd" clip-rule="evenodd" d="M150.398 92.527V328.53h138.967V71.243H178.061l-27.663 21.284z" fill="#fff"/><path fill-rule="evenodd" clip-rule="evenodd" d="M289.68 70.716l.321.462v257.286c-.153.738-.52.499-.52.499H150.515c-.769-.147-.519-.499-.519-.499V92.462c.015-.096.007-.196.194-.39l27.664-21.284a.7.7 0 0 1 .324-.11h111.303l.199.038zm-111.32.961l-27.326 21.025v235.262h137.928V71.677H178.36z" fill="#FFDF80"/><path fill-rule="evenodd" clip-rule="evenodd" d="M221.514 268.375c.873 0 1.582.682 1.582 1.521v4.974h5.171c.873 0 1.582.682 1.582 1.522v3.043c0 .839-.709 1.521-1.582 1.521h-5.171v4.974c0 .84-.709 1.522-1.582 1.522h-3.165c-.873 0-1.582-.682-1.582-1.522v-4.974h-5.171c-.873 0-1.582-.682-1.582-1.521v-3.043c0-.84.709-1.522 1.582-1.522h5.171v-4.974c0-.839.709-1.521 1.582-1.521h3.165z" fill="#F20D59"/><path d="M219.912 143.558c14.306 0 25.904-11.155 25.904-24.914 0-13.759-11.598-24.913-25.904-24.913-14.307 0-25.904 11.154-25.904 24.913s11.597 24.914 25.904 24.914z" fill="#FFD24B"/><path fill-rule="evenodd" clip-rule="evenodd" d="M245.702 117.651l.062 1.188c0 9.405-5.429 17.599-13.434 21.831l-13.064-10.364 9.606-24.147 16.83 11.492z" fill="#FFBF00"/><path fill-rule="evenodd" clip-rule="evenodd" d="M220.072 86.67c12.079.11 23.745 6.988 29.295 17.248 4.715 8.717 4.912 19.539.538 28.402-6.193 12.548-21.386 20.383-36.133 17.754-10.221-1.823-19.352-8.556-23.875-17.579-4.466-8.907-4.289-19.812.451-28.577 5.546-10.256 17.138-17.137 29.294-17.247h.43zm-.423 1c-11.704.106-23.012 6.784-28.38 16.709-4.567 8.444-4.757 18.929-.521 27.513 6 12.157 20.716 19.747 35.005 17.2 9.963-1.777 18.859-8.377 23.214-17.2 4.242-8.597 4.044-19.072-.522-27.513-5.374-9.936-16.598-16.602-28.379-16.709h-.417z" fill="#FFECB4"/><path fill-rule="evenodd" clip-rule="evenodd" d="M219.874 128.836l-13.091-15.987 4.173-6.407h17.658l4.489 6.407-13.229 15.987z" fill="#FFF3CE"/><path fill-rule="evenodd" clip-rule="evenodd" d="M214.655 121.76l-1.145 1.027c-3.023-3.848-6.205-7.94-7.364-9.537-.37-.511-.316-.949.145-1.528.865-1.087 4.019-5.319 4.019-5.319.238-.281.647-.508 1.002-.526h17.233c.209 0 .466.129.663.359l1.131 1.467-1.135 1.018-3.419 3.063-2.755 2.47-5.19 4.652-1.26 1.129-1.925 1.725z" fill="#FFF8E4"/><path fill-rule="evenodd" clip-rule="evenodd" d="M206.146 113.25c-.37-.511-.316-.949.145-1.528.865-1.087 4.019-5.319 4.019-5.319.238-.281.647-.508 1.002-.526h17.233c.209 0 .466.129.663.359 0 0 3.653 4.654 4.45 5.767.294.411.24.851 0 1.247 0 0-10.725 13.82-13.042 16.808-.261.336-1.117.333-1.382 0-2.4-3.028-11.008-13.94-13.088-16.808zm17.112.102h-6.91l3.56 13.253 3.35-13.253zm1.6 0l-3.437 13.253 10.178-13.253h-6.741zm-10.12 0h-6.565l10.217 13.253-3.652-13.253zm13.845-5.439l-2.847 3.94h5.871l-3.024-3.94zm-20.433 3.94h5.727l-2.747-3.923-2.98 3.923zm8.733 0h5.873l-2.844-3.94-3.029 3.94zm1.507-4.478h-5.77l2.751 3.928 3.019-3.928zm8.687 0h-5.656l2.825 3.914 2.831-3.914z" fill="url(#paint0_linear)"/><path fill-rule="evenodd" clip-rule="evenodd" d="M228.545 105.877c.209 0 .467.129.663.359l1.132 1.467-1.136 1.018-.62-.808-2.798 3.871-2.756 2.47.228-.902h-6.91l1.492 5.554-1.26 1.129-1.842-6.683h-6.565l6.483 8.408-1.146 1.027c-2.45-3.12-5.006-6.399-6.503-8.381l-.031-.041-.125-.166-.049-.064-.101-.136-.054-.071-.088-.119-.054-.071-.081-.11-.049-.066-.081-.111-.039-.052-.109-.149a1.266 1.266 0 0 1-.223-.465l-.005-.022a.906.906 0 0 1 .035-.462l.007-.023c.062-.174.173-.357.331-.556.483-.606 1.679-2.193 2.642-3.477l.022-.029.214-.286 1.004-1.343.137-.184c.102-.12.236-.231.383-.32l.009-.005.008-.005.057-.032c.027-.014.054-.028.081-.04.034-.016.068-.03.102-.043.121-.047.245-.075.362-.081h17.233zm-20.395 5.976h5.728l-2.748-3.923-2.98 3.923zm8.733 0h5.874l-2.845-3.94-3.029 3.94zm1.508-4.478h-5.77l2.75 3.928 3.02-3.928zm8.686 0h-5.656l2.825 3.914 2.831-3.914z" fill="url(#paint1_linear)"/><path fill-rule="evenodd" clip-rule="evenodd" d="M201.287 151.785s-4.688 1.589-13.085 4.432c.788-4.318 2.164-7.849 2.164-7.849l-7.665-3.17 10.876-4.298 7.71 10.885z" fill="#F20D59"/><path fill-rule="evenodd" clip-rule="evenodd" d="M200.514 149.656l.883 2.075-4.01-1.181 3.127-.894z" fill="#DA0C51"/><path fill-rule="evenodd" clip-rule="evenodd" d="M238.5 151.785l13.086 4.432c-1.092-5.018-2.165-7.849-2.165-7.849l7.665-3.17-10.876-4.298-7.71 10.885z" fill="#F20D59"/><path fill-rule="evenodd" clip-rule="evenodd" d="M239.413 149.656l-.913 2.075 4.01-1.181-3.097-.894z" fill="#DA0C51"/><path fill-rule="evenodd" clip-rule="evenodd" d="M219.991 147.418c-4.862 0-10.738.366-22.627 3.122 0 0-2.663-6.805-4.53-11.885 8.611-2.233 18.105-3.404 27.157-3.404 9.053 0 15.047.622 27.158 3.404-.899 2.263-4.53 11.885-4.53 11.885-11.73-2.83-17.766-3.122-22.628-3.122z" fill="#F37"/><path d="M198.524 145.402l-.698-3.942c.455-.098.87-.177 1.243-.238.455-.074.815-.043 1.079.094a.88.88 0 0 1 .479.665c.068.388-.037.709-.315.96l.002.012c.188.035.35.121.485.258s.224.321.264.552c.07.396-.021.723-.274.983-.25.254-.608.42-1.076.496-.545.089-.942.142-1.189.16zm1.026-1.806l-.366.06.132.742c.09.008.198.002.323-.018.365-.06.523-.229.474-.509-.042-.238-.23-.329-.563-.275zm-.343-1.523c-.07.012-.168.036-.291.071l.128.719.312-.05c.291-.048.413-.2.368-.457a.319.319 0 0 0-.176-.239.542.542 0 0 0-.341-.044zm5.465 1.409l.46.633c-.106.154-.277.291-.513.412a2.437 2.437 0 0 1-.768.231c-.643.087-1.193-.03-1.65-.351-.458-.33-.732-.801-.822-1.416-.087-.598.031-1.117.353-1.555.322-.438.826-.703 1.512-.796.261-.035.509-.03.744.016.236.046.43.122.583.229l-.321.739a1.678 1.678 0 0 0-.881-.131c-.335.046-.598.19-.788.432-.186.237-.252.548-.196.931.051.349.21.624.476.823.265.193.584.264.954.214.331-.045.617-.182.857-.411zm3.368.897l-2.523.27-.462-3.997 2.464-.263.099.857-1.514.161.081.702 1.336-.142.099.856-1.336.143.084.725 1.573-.168.099.856zm-3.015-4.516a.378.378 0 0 1 .126-.339.67.67 0 0 1 .404-.168.597.597 0 0 1 .397.085c.115.072.18.173.195.303a.435.435 0 0 1-.117.365.577.577 0 0 1-.368.172.668.668 0 0 1-.434-.084.43.43 0 0 1-.203-.334zm1.371-.146a.382.382 0 0 1 .129-.34.677.677 0 0 1 .402-.167.6.6 0 0 1 .397.085.398.398 0 0 1 .194.303.434.434 0 0 1-.114.364.576.576 0 0 1-.371.173.664.664 0 0 1-.433-.084.43.43 0 0 1-.204-.334zm3.051 4.457l-.314-3.986c.463-.057.883-.099 1.26-.127.461-.033.816.03 1.066.19.25.161.388.396.412.705.031.393-.104.703-.406.928l.001.011a.895.895 0 0 1 .457.301c.122.149.192.34.21.572.032.402-.091.72-.367.955-.274.231-.647.364-1.119.398-.552.041-.952.058-1.2.053zm1.195-1.706l-.369.027.059.75c.089.017.197.02.324.011.369-.027.543-.181.521-.464-.019-.24-.197-.348-.535-.324zm-.194-1.547c-.071.005-.169.02-.296.045l.058.727.315-.023c.294-.021.431-.162.411-.422a.315.315 0 0 0-.152-.253.542.542 0 0 0-.336-.074zm3.348 2.972l-.954.04-.184-4.017.955-.04.08 1.75 1.286-1.808 1.146-.048-1.485 1.92 1.794 2.092-1.212.051-1.513-1.851.087 1.911z" fill="#fff"/><path d="M220.049 143.791l-.956.013-.048-3.159-.92.013-.078.76c-.073.698-.183 1.233-.331 1.604-.148.372-.329.615-.544.729-.215.114-.497.145-.844.093l.004-.92c.088.014.16.012.218-.006a.444.444 0 0 0 .186-.143c.066-.082.126-.203.18-.364.117-.347.202-.945.253-1.797l.047-.804 2.771-.04.062 4.021zm1.639.027l-.956-.029.13-4.019.955.029-.049 1.539.525.015c.119-.479.364-.858.736-1.139.372-.287.829-.423 1.37-.407.644.019 1.16.224 1.546.615.385.383.568.892.548 1.528-.02.604-.237 1.098-.651 1.48-.415.375-.94.553-1.577.534a2.154 2.154 0 0 1-1.353-.494c-.376-.315-.598-.733-.665-1.256l-.507-.015-.052 1.619zm1.557-1.965a1.22 1.22 0 0 0 .3.877c.212.24.471.364.777.373.37.011.653-.09.847-.302.194-.213.297-.506.309-.881.012-.368-.08-.666-.276-.894-.196-.228-.463-.347-.801-.357a1.047 1.047 0 0 0-.811.315c-.219.219-.333.509-.345.869zm6.088-1.935l.953.065-.294 4.011-.953-.065.112-1.536c-.222.142-.526.2-.911.174a1.389 1.389 0 0 1-.88-.367c-.237-.222-.34-.554-.307-.997l.105-1.433.953.065-.084 1.158c-.019.251.018.434.109.545.092.112.233.174.423.187a1.08 1.08 0 0 0 .653-.169l.121-1.638zm3.912 4.379l-2.526-.244.417-4.001 2.466.238-.089.858-1.516-.146-.073.702 1.337.13-.089.857-1.337-.129-.076.726 1.575.152-.089.857zm3.962.733l-.948-.118.217-1.607-1.511-.188-.216 1.606-.948-.118.538-3.988.948.119-.206 1.526 1.51.189.206-1.527.948.119-.538 3.987zm.892-2.109c.1-.585.387-1.04.859-1.365.476-.327 1.038-.44 1.687-.336.644.103 1.136.373 1.476.812.348.44.468.969.361 1.589-.103.597-.395 1.055-.878 1.374-.479.319-1.035.428-1.668.328-.64-.103-1.134-.374-1.482-.814-.344-.439-.462-.968-.355-1.588zm1.001.16c-.058.336.009.64.2.911.188.267.449.427.783.48.377.061.689-.004.936-.194.248-.197.402-.469.462-.817.062-.359-.002-.666-.192-.921a1.176 1.176 0 0 0-.791-.47 1.189 1.189 0 0 0-.912.198c-.263.187-.425.458-.486.813z" fill="#fff"/><path fill-rule="evenodd" clip-rule="evenodd" d="M204.58 129.937c1.236-.341 1.815-.682 1.835-2.594 0 1.775.829 2.594 2.131 2.594-1.322 0-2.131.888-2.131 2.391 0-1.503-.537-2.254-1.835-2.391z" fill="#FFF8E4"/><path fill-rule="evenodd" clip-rule="evenodd" d="M206.372 127.06c.506.037.367.836.465 1.258.164.711.752 1.297 1.683 1.338 0 0 .211.037.301.179.157.25-.052.559-.438.571-.397.022-.794.147-1.076.412-.439.412-.556 1.039-.561 1.604 0 0-.02.176-.12.268-.296.272-.565-.022-.703-.925a1.643 1.643 0 0 0-1.447-1.364s-.203-.036-.293-.187c-.15-.255.119-.507.497-.622.845-.266 1.271-1.061 1.287-2.163 0 0 .018-.37.405-.369zm-.007 2.258a1.96 1.96 0 0 1-.689.674c.306.176.548.437.72.738.339-.549.459-.543.659-.678 0 0 .186.12-.17-.17-.243-.204-.482-.632-.52-.564z" fill="#FF9D00"/><path fill-rule="evenodd" clip-rule="evenodd" d="M230.863 123.724c1.236-.342 1.816-.683 1.835-2.595 0 1.775.829 2.595 2.131 2.595-1.322 0-2.131.887-2.131 2.39 0-1.503-.538-2.255-1.835-2.39z" fill="#FFF8E4"/><path fill-rule="evenodd" clip-rule="evenodd" d="M232.675 120.846c.437.032.358.66.428 1.077.13.77.756 1.508 1.692 1.518 0 0 .353.075.383.334.06.531-1.014.308-1.569.829-.438.413-.555 1.039-.56 1.604 0 0-.008.165-.12.268-.301.276-.566-.022-.704-.925-.103-.674-.607-1.24-1.474-1.368 0 0-.143-.039-.216-.117-.2-.213-.174-.498.448-.688.826-.259 1.269-1.003 1.287-2.163 0 0 .015-.37.405-.369zm-.008 2.258c-.23.379-.806.601-.628.71 0 0 .429.299.659.703.595-.965.938-.483.489-.849-.242-.204-.481-.632-.52-.564z" fill="#FF9D00"/><path fill-rule="evenodd" clip-rule="evenodd" d="M239.088 127.69c2.184-.677 3.208-1.355 3.243-5.149 0 3.523 1.465 5.149 3.766 5.149-2.336 0-3.766 1.762-3.766 4.743 0-2.981-.951-4.473-3.243-4.743z" fill="#FFF8E4"/><path fill-rule="evenodd" clip-rule="evenodd" d="M242.294 121.976c.553.056.27 1.262.62 2.572.279 1.042.94 2.092 2.084 2.435.429.128 1.082.144 1.082.144.438.067.572.718-.238.752-.768.042-1.518.326-2.055.877-.902.925-1.12 2.277-1.125 3.488 0 0-.018.196-.152.295-.23.171-.607.054-.627-.295l-.003-.27c-.01-.364-.031-.728-.08-1.09-.147-1.077-.61-2.264-1.736-2.742-.435-.185-1.122-.278-1.122-.278-.394-.107-.474-.576.261-.814.645-.216 1.317-.476 1.776-.978.922-1.008.887-2.475.904-3.727 0 0 .075-.371.411-.369zm.006 3.275a3.684 3.684 0 0 1-1.955 2.166s1.203.636 1.697 1.577c.14.268.279.668.279.668.025-.063.051-.125.079-.187.376-.835 1.012-1.565 1.849-1.969 0 0-.466-.242-.785-.521-.538-.469-.906-1.092-1.15-1.757 0 0 .008-.045-.014.023z" fill="#FF9D00"/><path fill-rule="evenodd" clip-rule="evenodd" d="M205.021 115.172c2.058-.444 3.156-1.108 3.19-4.211 0 2.881 1.441 4.211 3.705 4.211-2.298 0-3.705 1.441-3.705 3.879 0-2.438-1.132-3.879-3.19-3.879z" fill="#FFF8E4"/><path fill-rule="evenodd" clip-rule="evenodd" d="M208.216 110.679c.496.069.335.844.431 1.44.181 1.13.873 2.288 2.115 2.63.46.127 1.158.141 1.158.141.25.035.284.135.326.238.2.497-.89.448-1.653.705a2.815 2.815 0 0 0-1.491 1.165c-.4.643-.531 1.405-.534 2.146 0 0-.008.117-.059.196-.207.319-.703.216-.725-.466a6.953 6.953 0 0 0-.028-.407c-.112-1.098-.617-2.343-1.863-2.708-.375-.11-.943-.123-.943-.123-.129-.018-.165-.044-.223-.094-.261-.227-.228-.542.539-.728.666-.168 1.357-.405 1.799-.925.669-.786.71-1.879.723-2.842 0 0 .012-.388.428-.368zm-.013 2.765a3.205 3.205 0 0 1-1.651 1.733s.459.248.766.521c.408.363.699.826.896 1.323a3.618 3.618 0 0 1 1.744-1.746s-1.237-.698-1.736-1.825c0 0-.001-.054-.019-.006z" fill="#FFBF00"/><path fill-rule="evenodd" clip-rule="evenodd" d="M198.119 101.73c1.72-.425 2.638-1.064 2.666-4.044 0 2.767 1.204 4.044 3.096 4.044-1.92 0-3.096 1.384-3.096 3.725 0-2.341-.946-3.725-2.666-3.725z" fill="#FFF8E4"/><path fill-rule="evenodd" clip-rule="evenodd" d="M200.839 97.403c.607.056.354 1.161.527 1.896.205.866.74 1.747 1.677 2.029.361.109.909.121.909.121.245.033.278.128.321.226.112.253-.041.5-.556.527-.565.036-1.124.229-1.537.6-.772.694-.968 1.787-.971 2.746 0 0-.072.335-.338.37-.706.093-.463-1.447-.683-2.121-.275-.844-1.044-1.595-2.038-1.601 0 0-.851-.521.206-.816.484-.141.978-.333 1.322-.695.743-.78.737-1.935.751-2.913 0 0 .007-.37.41-.369zm.004 2.835a2.913 2.913 0 0 1-1.336 1.505s.354.212.598.446c.34.327.58.735.749 1.165a3.244 3.244 0 0 1 1.406-1.525s-.445-.263-.73-.559a3.403 3.403 0 0 1-.68-1.051l-.007.019z" fill="#FFBF00"/><path fill-rule="evenodd" clip-rule="evenodd" d="M218.529 98.84c1.452-.36 2.227-.899 2.251-3.414 0 2.335 1.016 3.414 2.613 3.414-1.621 0-2.613 1.167-2.613 3.144 0-1.977-.798-3.144-2.251-3.144z" fill="#FFF8E4"/><path fill-rule="evenodd" clip-rule="evenodd" d="M220.778 95.144c.561.069.332.983.488 1.644.217.92 1.017 1.762 2.094 1.768 0 0 .271.039.355.225.116.254-.095.507-.52.529-.454.029-.904.18-1.24.474-.654.57-.814 1.485-.821 2.294 0 0-.018.195-.151.293-.284.211-.609.175-.633-.555a5.51 5.51 0 0 0-.039-.48 4.042 4.042 0 0 0-.061-.363c-.172-.807-.763-1.662-1.758-1.668 0 0-.129-.009-.212-.061-.283-.18-.317-.55.368-.742.393-.115.792-.267 1.073-.554.631-.642.622-1.615.634-2.436 0 0 .024-.385.423-.368zm-.016 2.612a2.472 2.472 0 0 1-1.008 1.112s.728.543 1.021 1.199c0 0 .376-.709 1.024-1.106 0 0 .157.042-.054-.09a2.795 2.795 0 0 1-.965-1.124s.006-.044-.018.01z" fill="#FFBF00"/><path fill-rule="evenodd" clip-rule="evenodd" d="M192.982 120.535c2.387-.777 3.506-1.554 3.544-5.903 0 4.038 1.6 5.903 4.115 5.903-2.552 0-4.115 2.019-4.115 5.436 0-3.417-1.039-5.127-3.544-5.436z" fill="#FFF8E4"/><path fill-rule="evenodd" clip-rule="evenodd" d="M196.474 114.068c.546.059.354.874.423 1.587a9.544 9.544 0 0 0 .19 1.189c.293 1.247.994 2.562 2.383 2.975.454.135 1.142.153 1.142.153.434.071.582.714-.261.752-.712.04-1.413.277-1.954.724-1.273 1.05-1.55 2.811-1.555 4.333 0 0-.044.27-.246.348a.405.405 0 0 1-.533-.347 14.5 14.5 0 0 0-.042-1.103 9.709 9.709 0 0 0-.14-1.014c-.215-1.059-.754-2.156-1.833-2.637-.476-.212-1.232-.32-1.232-.32-.333-.097-.392-.58-.033-.718.83-.273 1.727-.588 2.304-1.27 1.001-1.184.96-2.845.976-4.282 0 0 .061-.371.411-.37zm.013 3.554a4.218 4.218 0 0 1-2.294 2.643s.639.275 1.054.626c.627.53 1.026 1.273 1.256 2.051.379-1.077 1.126-2.053 2.171-2.564 0 0 .23.056-.087-.104-1.044-.544-1.733-1.563-2.095-2.671l-.005.019z" fill="#FF9D00"/><path fill-rule="evenodd" clip-rule="evenodd" d="M231.16 102.619c2.993-.727 4.591-1.819 4.64-6.91 0 4.728 2.096 6.91 5.39 6.91-3.344 0-5.39 2.365-5.39 6.366 0-4.001-1.646-6.366-4.64-6.366z" fill="#FFF8E4"/><path fill-rule="evenodd" clip-rule="evenodd" d="M235.909 95.143c1.004.102.44 1.942.83 3.364.517 1.89 2.156 3.534 4.534 3.547 0 0 1.263.961-.218 1.003-1.226.047-2.436.499-3.253 1.405-1.095 1.215-1.395 2.908-1.402 4.459 0 0-1.006 1.281-1.044-.36a10.973 10.973 0 0 0-.159-1.63 8.13 8.13 0 0 0-.107-.506c-.418-1.697-1.81-3.36-3.853-3.372 0 0-.389-.058-.489-.339-.329-.929 2.179-.889 3.267-2.011 1.308-1.347 1.326-3.367 1.346-5.067 0 0 .1-.494.548-.493zm-.005 4.293c-.434 1.301-1.391 2.417-2.672 2.998.439.188.6.295.873.495.889.652 1.47 1.622 1.82 2.657 0 0 .931-2.172 2.812-3.027 0 0-2.092-1.22-2.811-3.192a1.812 1.812 0 0 0-.022.069z" fill="#FF9D00"/><path fill-rule="evenodd" clip-rule="evenodd" d="M150.752 92.876c7.744-4.673 20.995-4.179 27.663 0V71.243s-22.736 16.816-27.663 21.633z" fill="#FFDF80"/><path fill-rule="evenodd" clip-rule="evenodd" d="M.44 92.527V328.53h138.922V71.243H28.094L.44 92.527z" fill="#fff"/><path fill-rule="evenodd" clip-rule="evenodd" d="M139.68 70.716l.32.462v257.286c-.153.738-.519.499-.519.499H.558c-.769-.147-.52-.499-.52-.499V92.462c.042-.263.127-.32.195-.39l27.655-21.284a.705.705 0 0 1 .324-.11h111.269l.199.038zm-111.285.961L1.077 92.702v235.262h137.885V71.677H28.395z" fill="#FFDF80"/><path d="M69.933 143.558c14.302 0 25.896-11.155 25.896-24.914 0-13.759-11.594-24.913-25.896-24.913-14.302 0-25.896 11.154-25.896 24.913s11.594 24.914 25.896 24.914z" fill="#FFD24B"/><path fill-rule="evenodd" clip-rule="evenodd" d="M77.969 142.519l-16.903-13.165 23.417-21.5s6.453 4.994 11.198 8.619l.126 2.381c0 11.048-7.491 20.426-17.838 23.665z" fill="#FFBF00"/><path fill-rule="evenodd" clip-rule="evenodd" d="M61.437 129.3H77.37l6.523-21.047-8.769 5.545-5.56-7.921-5.774 7.921-8.448-5.545 6.095 21.047z" fill="#FFF3CE"/><path fill-rule="evenodd" clip-rule="evenodd" d="M67.347 119.867l-6.162 5.551-4.523-15.617 6.823 4.478a.78.78 0 0 0 .993-.174l5.175-7.099 4.637 6.607-2.6 2.343a2.98 2.98 0 0 0-1.972-.727c-1.656 0-3.001 1.294-3.001 2.887 0 .66.23 1.269.63 1.751z" fill="#FFF8E4"/><path fill-rule="evenodd" clip-rule="evenodd" d="M60.04 124.518h18.847l-1.465 4.408H61.315l-1.276-4.408z" fill="#FFECB4"/><path fill-rule="evenodd" clip-rule="evenodd" d="M84.204 107.698c.37.123.587.483.495.863l-6.272 20.143c-.201.654-1.073 1.398-2.331 1.398H62.927c-.913 0-2.027-.422-2.423-1.745-1.058-3.539-5.736-19.808-5.736-19.808-.126-.568.527-1.084 1.097-.756l7.861 5.16 5.422-7.428a.766.766 0 0 1 1.13.075l5.162 7.356 8.252-5.212c.124-.05.164-.118.512-.046zm-6.18 17.562H61.099l.684 2.363c.188.648.801 1.096 1.5 1.096h12.508c.69 0 1.296-.435 1.493-1.07l.74-2.389.403-1.3 4.332-13.978-7.122 4.504a.78.78 0 0 1-.99-.191l-4.976-7.089-5.175 7.099a.78.78 0 0 1-.993.174l-6.823-4.478 4.042 13.959h17.705" fill="url(#paint2_linear)"/><path fill-rule="evenodd" clip-rule="evenodd" d="M61.002 125.254h.498l1.436-1.301h-2.311l.377 1.301z" fill="url(#paint3_linear)"/><path fill-rule="evenodd" clip-rule="evenodd" d="M61.565 125.083h-.499l.104.357.395-.357z" fill="#FFF8E4"/><path d="M69.646 120.973c1.658 0 3.002-1.293 3.002-2.888s-1.344-2.888-3.002-2.888c-1.658 0-3.002 1.293-3.002 2.888s1.344 2.888 3.002 2.888z" fill="#FFD24B"/><path fill-rule="evenodd" clip-rule="evenodd" d="M69.755 114.915c2.599.014 4.109 2.605 3.029 4.887-.572 1.208-2.094 2.014-3.65 1.785-1.643-.242-3.18-1.509-2.897-3.842.192-1.578 1.793-2.84 3.519-2.83zm-.077.999c-2.771.292-3.536 3.564-.905 4.599 1.817.715 4.272-1.423 3.09-3.399-.441-.74-1.237-1.206-2.185-1.2z" fill="url(#paint4_linear)"/><path d="M76.21 120.043c.66 0 1.196-.516 1.196-1.152 0-.636-.536-1.152-1.197-1.152s-1.197.516-1.197 1.152c0 .636.536 1.152 1.197 1.152zm-13.065 0c.66 0 1.197-.516 1.197-1.152 0-.636-.536-1.152-1.197-1.152-.662 0-1.198.516-1.198 1.152 0 .636.536 1.152 1.198 1.152z" fill="#FF8C1A"/><path fill-rule="evenodd" clip-rule="evenodd" d="M67.266 119.833c-.396-.419-.622-1.091-.622-1.749 0-1.593 1.345-2.887 3.002-2.887.757 0 1.51.216 1.98.709" fill="#FFDF80"/><path fill-rule="evenodd" clip-rule="evenodd" d="M69.508 114.916c.972-.026 1.869.267 2.45.867l-.758.681c-1.302-1.341-4.499.136-4.03 2.351.07.326.156.689.39.94l-.75.638c-1.72-2-.348-5.395 2.698-5.477z" fill="url(#paint5_linear)"/><path fill-rule="evenodd" clip-rule="evenodd" d="M63.145 117.739c.661 0 1.197.517 1.197 1.153s-.536 1.152-1.197 1.152c-.66 0-1.198-.516-1.198-1.152 0-.636.537-1.153 1.198-1.153z" fill="#FFC099"/><path fill-rule="evenodd" clip-rule="evenodd" d="M74.308 113.813l-4.637-6.607-5.175 7.099a.78.78 0 0 1-.993.174l-6.823-4.478 4.523 15.617-.592.533-.591.533-5.252-18.135c-.126-.568.527-1.084 1.097-.756l7.861 5.16 5.422-7.428a.766.766 0 0 1 1.13.075l5.093 7.256-.531.478-.532.479z" fill="url(#paint6_linear)"/><path fill-rule="evenodd" clip-rule="evenodd" d="M70.095 86.67c12.056.11 23.729 6.972 29.285 17.248 4.713 8.718 4.911 19.539.538 28.402-6.19 12.548-21.379 20.383-36.121 17.754-10.284-1.834-19.462-8.646-23.956-17.754-4.377-8.874-4.17-19.693.539-28.402 5.544-10.255 17.132-17.137 29.285-17.247h.43zm-.424 1c-11.702.106-22.995 6.768-28.37 16.709-4.565 8.444-4.756 18.929-.522 27.513 5.998 12.157 20.711 19.747 34.994 17.2 9.961-1.777 18.854-8.377 23.207-17.2 4.241-8.597 4.043-19.072-.52-27.513-5.373-9.937-16.594-16.602-28.372-16.709h-.416z" fill="#FFECB4"/><path fill-rule="evenodd" clip-rule="evenodd" d="M51.314 151.785l-13.081 4.432c.788-4.318 2.164-7.849 2.164-7.849l-7.663-3.17 10.873-4.298 7.707 10.885z" fill="#F20D59"/><path fill-rule="evenodd" clip-rule="evenodd" d="M50.541 149.656l.882 2.075-4.009-1.181 3.127-.894z" fill="#DA0C51"/><path fill-rule="evenodd" clip-rule="evenodd" d="M88.516 151.785l13.081 4.432c-1.091-5.018-2.163-7.849-2.163-7.849l7.662-3.17-10.873-4.298-7.707 10.885z" fill="#F20D59"/><path fill-rule="evenodd" clip-rule="evenodd" d="M89.428 149.656l-.912 2.075 4.01-1.181-3.098-.894z" fill="#DA0C51"/><path fill-rule="evenodd" clip-rule="evenodd" d="M70.012 147.418c-4.86 0-10.734.366-22.62 3.122 0 0-2.663-6.805-4.529-11.885 8.61-2.233 18.1-3.404 27.15-3.404 9.049 0 15.04.622 27.148 3.404-.898 2.263-4.528 11.885-4.528 11.885-11.726-2.83-17.76-3.122-22.62-3.122z" fill="#F37"/><path d="M55.662 144.595l-1.115.116-.527-4.692 1.122-.117 1.727 1.821 1.2-2.126 1.052-.109.527 4.693-1.115.116-.336-2.99-1.153 1.971-.16.017-1.556-1.67.334 2.97zm8.245-.683l-2.974.18-.308-4.711 2.903-.176.066 1.01-1.784.108.054.828 1.574-.096.067 1.01-1.575.095.056.855 1.854-.112.066 1.009zm1.486.902l-1.051.025-.047-1.82.525-.012c.136-.183.27-.517.402-1.001.137-.494.216-1.087.235-1.78l.018-.945 3.202-.076.096 3.708.665-.016.047 1.82-1.05.025-.022-.809-3.041.073.02.808zm1.194-4.547l-.056.797a5.916 5.916 0 0 1-.195 1.165c-.102.384-.196.634-.282.749l1.597-.038-.069-2.697-.995.024zm6.943.788l-2.236 2.889-.981-.019.103-4.72 1.12.023-.063 2.932 2.237-2.888.98.02-.102 4.719-1.122-.023.064-2.933zm5.707-1.624l1.126.07-1.884 3.491c-.198.371-.419.64-.662.807a1.303 1.303 0 0 1-.847.221 1.487 1.487 0 0 1-.415-.089 1.015 1.015 0 0 1-.313-.165l.454-.891a.637.637 0 0 0 .335.135c.181.012.307-.043.376-.165l.072-.138-1.88-3.502 1.266.079 1.224 2.386 1.148-2.239zm2.613 5.15l-1.114-.119.541-4.692 1.122.12 1.277 2.138 1.65-1.825 1.051.112-.541 4.692-1.115-.119.345-2.99-1.57 1.685-.16-.017-1.143-1.954-.342 2.969z" fill="#fff"/><path fill-rule="evenodd" clip-rule="evenodd" d="M76.773 98.747c2.661-.647 4.081-1.618 4.126-6.146 0 4.205 1.863 6.146 4.79 6.146-2.972 0-4.79 2.102-4.79 5.661 0-3.559-1.464-5.661-4.126-5.661z" fill="#FFF8E4"/><path fill-rule="evenodd" clip-rule="evenodd" d="M80.916 92.036c.932.09.466 1.842.792 3.033.46 1.682 2.04 3.102 3.975 3.112 0 0 1.375.94-.254 1.005-1.07.054-2.117.462-2.823 1.268-.936 1.068-1.192 2.538-1.197 3.89 0 0-.421.819-.895.343-.538-.542-.08-1.607-.483-2.908-.423-1.368-1.658-2.589-3.27-2.599 0 0-1.037-.75.114-1.043.84-.222 1.714-.52 2.314-1.139 1.153-1.188 1.163-2.969 1.182-4.469 0 0 .102-.494.545-.493zm.004 4.023a4.459 4.459 0 0 1-2.25 2.515c1.093.508 1.856 1.515 2.268 2.652.456-1.083 1.275-2.01 2.344-2.534 0 0-1.697-1.064-2.33-2.623 0 0 0-.101-.032-.01z" fill="#FFBF00"/><path fill-rule="evenodd" clip-rule="evenodd" d="M44.33 128.491c1.803-.388 2.765-.971 2.795-3.69 0 2.525 1.262 3.69 3.245 3.69-2.013 0-3.245 1.263-3.245 3.399 0-2.136-.992-3.399-2.795-3.399z" fill="#FFF8E4"/><path fill-rule="evenodd" clip-rule="evenodd" d="M47.142 124.236c.464.061.341.794.422 1.301.157.979.762 1.977 1.82 2.268.398.109 1.002.122 1.002.122.33.042.332.178.352.325.1.756-1.861.112-2.781 1.591-.346.557-.459 1.217-.461 1.857 0 0-.043.276-.257.351-.264.093-.513.009-.525-.539-.043-1.153-.38-2.37-1.623-2.734-.325-.095-.815-.105-.815-.105-.437-.057-.675-.583.266-.812.519-.131 1.05-.308 1.421-.657.709-.668.74-1.72.754-2.601 0 0-.002-.387.425-.367zm-.019 2.607a2.814 2.814 0 0 1-1.35 1.39s.99.624 1.364 1.48c0 0 .533-.961 1.428-1.406 0 0-1.001-.596-1.425-1.491 0 0-.012.016-.017.027z" fill="#FFBF00"/><path fill-rule="evenodd" clip-rule="evenodd" d="M55.342 99.755c1.72-.426 2.639-1.064 2.668-4.047 0 2.77 1.204 4.047 3.097 4.047-1.921 0-3.097 1.386-3.097 3.729 0-2.343-.947-3.728-2.668-3.728z" fill="#FFF8E4"/><path fill-rule="evenodd" clip-rule="evenodd" d="M58.006 95.426c.619.056.352 1.15.528 1.897.204.867.74 1.748 1.678 2.031.361.11.91.121.91.121.433.059.549.713-.236.753-.566.036-1.124.23-1.538.601-.772.694-.968 1.788-.972 2.749 0 0-.3.597-.657.27-.383-.35-.051-1.067-.363-2.023-.276-.845-1.045-1.596-2.04-1.602 0 0-.204-.021-.304-.144-.195-.24-.196-.477.51-.673.475-.138.96-.324 1.304-.675.76-.775.757-1.944.771-2.936 0 0 .01-.371.41-.37zm.004 2.837c-.25.634-.72 1.18-1.337 1.506 0 0 .355.212.599.447.34.327.58.736.75 1.167a3.252 3.252 0 0 1 1.407-1.527s-.423-.25-.7-.528a3.432 3.432 0 0 1-.712-1.085.309.309 0 0 1-.007.02z" fill="#FFBF00"/><path fill-rule="evenodd" clip-rule="evenodd" d="M41.69 112.233c2.891-.798 4.247-1.598 4.293-6.074 0 4.156 1.94 6.074 4.986 6.074-3.093 0-4.986 2.078-4.986 5.594 0-3.516-1.259-5.276-4.293-5.594z" fill="#FFF8E4"/><path fill-rule="evenodd" clip-rule="evenodd" d="M46.09 105.877c.723.078.33 1.317.559 2.403.313 1.492 1.254 2.989 2.867 3.464.499.147 1.02.203 1.54.206 0 0 .22.02.321.165.183.262.126.563-.592.59-1.223.059-2.43.537-3.197 1.469-.865 1.05-1.125 2.451-1.13 3.747 0 0-.045.269-.246.346-.61.233-.506-1.201-.676-2.146-.232-1.294-1-2.593-2.325-3.094a6.028 6.028 0 0 0-1.48-.33s-.147-.028-.229-.104c-.193-.182-.11-.536.164-.628 1.054-.294 2.166-.612 2.896-1.393 1.083-1.159 1.098-2.86 1.116-4.326 0 0 .063-.371.413-.369zm.017 3.394c-.265.914-.784 1.773-1.57 2.324a5.832 5.832 0 0 1-1.263.647s1.695.639 2.427 1.965c.216.392.42 1.013.42 1.013.021-.058.044-.115.067-.173.498-1.199 1.433-2.208 2.692-2.713 0 0-.681-.301-1.132-.651-.784-.61-1.314-1.476-1.632-2.403 0 0-.002-.031-.009-.009z" fill="#FF9D00"/><path fill-rule="evenodd" clip-rule="evenodd" d="M93.066 116.421c1.927-.532 2.831-1.065 2.862-4.048 0 2.77 1.292 4.048 3.323 4.048-2.061 0-3.323 1.385-3.323 3.729 0-2.344-.839-3.516-2.862-3.729z" fill="#FFF8E4"/><path fill-rule="evenodd" clip-rule="evenodd" d="M95.899 112.09c.509.047.352.886.457 1.504.174 1.029.77 2.107 1.894 2.423.394.11.989.123.989.123.23.031.264.119.306.196.14.252.003.53-.559.557-.75.045-1.488.334-1.97.903-.575.678-.744 1.593-.748 2.447 0 0-.07.334-.337.369-.504.066-.412-.9-.542-1.589-.152-.807-.636-1.613-1.462-1.926-.386-.146-.988-.217-.988-.217-.425-.103-.506-.583.312-.825.561-.172 1.147-.386 1.528-.794.706-.756.697-1.868.71-2.801 0 0 .007-.372.41-.37zm.012 2.777c-.278.694-.835 1.248-1.538 1.578 0 0 1.11.606 1.526 1.572 0 0-.062.229.1-.081a3.36 3.36 0 0 1 1.45-1.42s-1.106-.691-1.532-1.654c0 0 .003-.019-.006.005z" fill="#FF9D00"/><path fill-rule="evenodd" clip-rule="evenodd" d="M90.863 130.22c1.236-.342 1.815-.683 1.835-2.595 0 1.775.828 2.595 2.13 2.595-1.322 0-2.13.888-2.13 2.39 0-1.502-.538-2.254-1.835-2.39z" fill="#FFF8E4"/><path fill-rule="evenodd" clip-rule="evenodd" d="M92.804 127.06c.508.038.365.833.463 1.258.165.711.752 1.296 1.684 1.338 0 0 .211.038.3.179.157.25-.052.559-.438.571-.398.022-.793.147-1.076.413-.438.412-.555 1.038-.56 1.603 0 0-.029.241-.212.331-.334.164-.482-.147-.611-.988a1.644 1.644 0 0 0-1.447-1.364s-.203-.036-.292-.187c-.15-.255.118-.507.497-.622.844-.266 1.27-1.061 1.287-2.163 0 0 .015-.37.405-.369zm-.008 2.258a1.94 1.94 0 0 1-.69.674c.308.176.549.437.721.739.338-.55.459-.544.658-.679 0 0 .187.12-.169-.17-.243-.203-.482-.631-.52-.564z" fill="#FF9D00"/><path fill-rule="evenodd" clip-rule="evenodd" d="M.715 92.897c7.742-4.678 20.989-4.183 27.654 0V71.243S5.641 88.076.715 92.897z" fill="#FFDF80"/><path fill-rule="evenodd" clip-rule="evenodd" d="M125.754 128.714v-5.201h32.388l-4.123-4.124 3.677-3.678 10.402 10.403-10.402 10.403-3.677-3.678 4.123-4.125h-32.388z" fill="#F20D59"/><path fill-rule="evenodd" clip-rule="evenodd" d="M222.703 35.837c8.793-7.429 15.321-13.229 23.641-21.161 2.039-1.944 8.854-7.96 11.85-7.554 5.766.781.41 12.274-.949 14.644-8.36 14.577-12.342 22.69-27.38 32.01" fill="#D5F6E3"/><path fill-rule="evenodd" clip-rule="evenodd" d="M243.559 30.604c5.165-3.58 20.231-2.907 25.359-.307-2.456 7.218-18.123 19.978-25.954 19.837" fill="#A6E468"/><path fill-rule="evenodd" clip-rule="evenodd" d="M268.986 30.301l-.199.514-8.071 3.16c.44.314.608.537.904.768.982.764 2.013 1.485 3.118 2.002l-.517.558-1.003-.555a22.222 22.222 0 0 1-1.953-1.367c-.542-.419-1.316-1.06-1.316-1.06a.656.656 0 0 1-.03-.032 621.69 621.69 0 0 0-7.257 2.91 23.552 23.552 0 0 0 5.521 5.65l-.159.13-.451.339-.171-.122c-2.119-1.584-3.939-3.544-5.423-5.716-2.919 1.2-5.82 2.43-8.675 3.711l.025-.806a308.18 308.18 0 0 1 8.392-3.58 1.86 1.86 0 0 1 .032-.285c.575-2.957 1.47-5.911 3.139-8.368l.852-.009-.46.708c-1.448 2.291-2.26 4.948-2.789 7.636a640.806 640.806 0 0 1 7.368-2.953c.574-1.83 1.662-3.47 2.993-4.892l.731.107.114.022-.176.188c-1.177 1.229-2.173 2.65-2.775 4.226 2.442-.962 4.888-1.914 7.331-2.87l.494-.192.411.178z" fill="#8BDC3A"/><path fill-rule="evenodd" clip-rule="evenodd" d="M243.804 11.754c.252-2.124.568-3.715 1.301-5.831 1.024-2.951 2.993-4.73 4.302-4 1.387.774.25 4.61-.773 6.009-.475.65-1.631 1.954-4.077 3.899a47.966 47.966 0 0 1-1.723 3.51c1.409-.196 2.805-.477 4.22-.637 1.456-.164 3.145-.35 4.491.36 1.296.685 1.267 2.096-.102 2.8-.834.43-2.767.785-3.693.851-2.222.158-4.043.003-6.506-.613a91.059 91.059 0 0 1-3.373 5.096c2.425-.51 8.434-.985 9.272.381 1.321 2.151-1.944 2.948-3.08 3.2-.916.203-3.869.657-8.519.405l-.207.46a36.64 36.64 0 0 1-.197-.483 45.328 45.328 0 0 1-.336-.022l.216-.28c-1.362-3.452-1.753-5.608-2.41-8.196-.119-.467-.698-3.807-.385-5.253.373-1.73 1.916-1.915 2.81-.447.976 1.601 2.069 5.34 2.617 9.28a89.975 89.975 0 0 0 3.029-4.61 56.018 56.018 0 0 1-1.574-6.743c-.166-.963-.677-5.262.66-5.812 1.036-.426 1.999 3.55 2.161 4.183.317 1.245.489 3.713.543 5.23a45.07 45.07 0 0 0 1.333-2.737z" fill="#00988B"/><path d="M178.611 38.387c0-9.342 7.577-16.914 16.923-16.914h35.73c9.346 0 16.922 7.572 16.922 16.914 0 9.341-7.576 16.914-16.922 16.914h-35.73c-9.346 0-16.923-7.573-16.923-16.914z" fill="#FFF8E4"/><path fill-rule="evenodd" clip-rule="evenodd" d="M178.111 38.387c0-9.618 7.801-17.414 17.423-17.414h35.73c9.622 0 17.422 7.796 17.422 17.414 0 9.617-7.8 17.414-17.422 17.414h-35.73c-9.622 0-17.423-7.797-17.423-17.414zm17.423-16.415c-9.07 0-16.423 7.35-16.423 16.415S186.464 54.8 195.534 54.8h35.73c9.07 0 16.422-7.349 16.422-16.414 0-9.066-7.352-16.415-16.422-16.415h-35.73z" fill="#FFDF80"/><path fill-rule="evenodd" clip-rule="evenodd" d="M129.837 170.743c0-1.28-.898-2.32-2.005-2.32H12.794c-1.106 0-2.005 1.04-2.005 2.32v41.774c0 1.281.899 2.32 2.005 2.32h115.038c1.107 0 2.005-1.039 2.005-2.32v-41.774zm0 53.871c0-.979-.898-1.773-2.005-1.773H12.794c-1.106 0-2.005.794-2.005 1.773v31.926c0 .979.899 1.774 2.005 1.774h115.038c1.107 0 2.005-.795 2.005-1.774v-31.926zm149.114-53.871c0-1.28-.899-2.32-2.006-2.32H161.907c-1.106 0-2.005 1.04-2.005 2.32v41.774c0 1.281.899 2.32 2.005 2.32h115.038c1.107 0 2.006-1.039 2.006-2.32v-41.774zm0 53.871c0-.979-.899-1.773-2.006-1.773H161.907c-1.106 0-2.005.794-2.005 1.773v31.926c0 .979.899 1.774 2.005 1.774h115.038c1.107 0 2.006-.795 2.006-1.774v-31.926z" fill="#FFF8E4"/><defs><linearGradient id="paint0_linear" x1="215.342" y1="121.145" x2="219.931" y2="121.145" gradientUnits="userSpaceOnUse"><stop stop-color="#FF6599"/><stop offset=".52" stop-color="#FF6E7B"/><stop offset="1" stop-color="#FF8C1A"/></linearGradient><linearGradient id="paint1_linear" x1="206.977" y1="109.339" x2="231.599" y2="109.298" gradientUnits="userSpaceOnUse"><stop stop-color="#FF98BA"/><stop offset=".52" stop-color="#FF9594"/><stop offset="1" stop-color="#FF8C1A"/></linearGradient><linearGradient id="paint2_linear" x1="54.752" y1="117.707" x2="84.721" y2="117.707" gradientUnits="userSpaceOnUse"><stop stop-color="#FF6599"/><stop offset=".52" stop-color="#FF6E7B"/><stop offset="1" stop-color="#FF8C1A"/></linearGradient><linearGradient id="paint3_linear" x1="60.73" y1="124.579" x2="78.487" y2="124.272" gradientUnits="userSpaceOnUse"><stop stop-color="#FF98BA"/><stop offset=".52" stop-color="#FF9594"/><stop offset="1" stop-color="#FF8C1A"/></linearGradient><linearGradient id="paint4_linear" x1="66.709" y1="118.302" x2="72.712" y2="118.302" gradientUnits="userSpaceOnUse"><stop stop-color="#FF6599"/><stop offset=".52" stop-color="#FF6E7B"/><stop offset="1" stop-color="#FF8C1A"/></linearGradient><linearGradient id="paint5_linear" x1="72.6" y1="118.302" x2="66.597" y2="118.302" gradientUnits="userSpaceOnUse"><stop stop-color="#FF8C1A"/><stop offset=".48" stop-color="#FF9594"/><stop offset="1" stop-color="#FF98BA"/></linearGradient><linearGradient id="paint6_linear" x1="54.752" y1="115.998" x2="83.347" y2="119.197" gradientUnits="userSpaceOnUse"><stop stop-color="#FF98BA"/><stop offset=".52" stop-color="#FF9594"/><stop offset="1" stop-color="#FF8C1A"/></linearGradient></defs></svg>