<svg xmlns="http://www.w3.org/2000/svg" width="303.895" height="195.562" fill="none"><path d="M91.504 183.97c-3.524-.091-7.135-.319-10.589.315-7.47 1.37-17.665 7.044-25.373 2.716-9.112-5.117-2.937-10.09 3.462-11.93 3.996-1.149 8.382-.844 12.28-2.285 4.536-1.676 8.047-5.299 12.448-7.268 6.241-2.792 13.983-2.635 20.78-2.089" clip-rule="evenodd" fill="#d5f6e3" fill-rule="evenodd"/><path d="M54.414 177.005l.465-.255c2.311.86 4.252 2.574 5.69 4.582 3.287-.821 6.413-2.176 9.548-3.526a2.19 2.19 0 0 1-.231-.318c-.827-1.34-1.795-2.595-2.949-3.678l.921-.149c1.11 1.119 2.048 2.408 2.862 3.776 0 0 .025.034.05.088 3.533-1.516 7.092-2.98 10.922-3.622a26.21 26.21 0 0 1 2.85-.31c-.3-.296-.641-.914-.996-1.445-1.095-1.635-2.412-3.157-4.055-4.211l.667-.446c2.04 1.395 3.615 3.476 4.866 5.636 0 0 .145.241.081.439 1.793-.071 3.598-.003 5.397.084 0 0 .746.696-.036.74l-.68-.032c-4.34-.192-8.564.103-12.957 1.642-.764.268-1.523.554-2.28.85-.006.089-.02.191-.044.307-.727 3.431-1.858 6.783-3.476 9.889l-1.022.275c.318-.598.736-1.297 1.049-1.959 1.227-2.602 2.079-5.373 2.687-8.191-2.975 1.196-5.907 2.529-8.894 3.604-.01.601-.21 1.521-.412 2.283-.523 1.968-1.345 3.863-2.495 5.545l-.302.006-.55-.042.047-.058c1.592-2.191 2.477-4.825 3-7.482-2.24.771-4.516 1.382-6.865 1.668a1.204 1.204 0 0 1-.146.275c-.873 1.185-1.894 2.275-3.057 3.168l-.128-.08-.498-.395c1.1-.796 2.062-1.791 2.889-2.872-1.749.146-3.498.133-5.246.025a3.2 3.2 0 0 1-.182-.772c2.957.188 5.917.115 8.881-.529-1.431-1.913-3.362-3.535-5.666-4.255l-.029-.04z" clip-rule="evenodd" fill="#a6e468" fill-rule="evenodd"/><path d="M82.198 131.227c-5.44-2.792-12.642-6.582-15.293-12.52-3.393-7.596 1.332-13.764 9.918-12.815 13.303 1.469 19.896 10.225 30.17 17.285" clip-rule="evenodd" fill="#a2f5d9" fill-rule="evenodd"/><path d="M71.998 160.842c-12.163-9.665-27.746-15.609-37.225-28.306-2.173-2.91-7.259-10.14-9.613-12.96 5.804 2.321 15.36 3.693 18.077 3.844 8.702.482 17.429-1.411 26.074-.108 12.451 1.875 23.156 8.785 33.447 15.65" clip-rule="evenodd" fill="#a6e468" fill-rule="evenodd"/><path d="M25.739 120.318l-.579-.742c1.148.459 2.442.881 3.804 1.247 8.102 3.043 16.88 4.623 24.377 8.163.937.442 1.868.898 2.794 1.365l.169.085c-1.389-2.538-2.879-5.078-4.915-7.104l.96-.053c2.066 2.208 3.598 4.938 5.064 7.645 0 0 .013.037.023.092 4.305 2.234 8.49 4.704 12.615 7.284-.075-.436-.107-1-.19-1.52-.798-4.941-2.304-9.783-5.26-13.87l.943.033c3.1 4.543 4.553 10.04 5.341 15.685 0 0-.006.08-.04.17a529.349 529.349 0 0 1 8.71 5.635c-.013-.284-.007-.596-.008-.89-.009-5.789 2.396-11.64.512-17.322l.454.169.417.173c1.61 5.936-.991 12.455-.595 18.297 0 0 .004.035.003.088 2.082 1.369 4.16 2.74 6.245 4.093 0 0 .324.986-.404.622a750.943 750.943 0 0 1-3.212-2.1 1.05 1.05 0 0 1-.32.186c-5.578 2.224-10.005 6.823-15.186 9.741l-.166-.118-.518-.349c2.916-1.587 5.574-3.718 8.175-5.603 2.299-1.659 4.683-3.251 7.316-4.317-2.418-1.59-4.828-3.185-7.25-4.76-6.362 1.937-12.426 4.961-18.088 8.362l-.686-.434a104.569 104.569 0 0 1 16.437-7.912c.49-.182.982-.358 1.48-.522l.05-.017c-3.986-2.58-8.008-5.1-12.147-7.449-.508.245-1.458.435-2.244.685a55.034 55.034 0 0 0-12.416 5.726 34.43 34.43 0 0 0-2.564 1.745l-.61-.488c3.84-2.956 8.302-5.08 12.876-6.82l.31-.116c1.244-.46 2.5-.889 3.783-1.219a132.424 132.424 0 0 0-8.454-4.36 48.439 48.439 0 0 0-2.832-1.215 1.169 1.169 0 0 1-.127.044c-4.623 1.381-8.317 5.211-13.078 6.583l-.088-.096-.427-.532c4.48-1.178 8.1-4.737 12.497-6.371l.128-.046c-5.549-2.055-11.348-3.294-16.692-5.136-2.158-.747-4.3-1.524-6.387-2.437z" clip-rule="evenodd" fill="#8bdc3a" fill-rule="evenodd"/><path d="M86.094 168.204c-17.469 2.246-32.33.427-49.123-4.877-2.251-.71-14.622-4.518-15.666-6.345-.426-.745 1.705-.101 2.56-.123a214.89 214.89 0 0 0 4.881-.187c5.098-.256 10.135-.658 15.196-1.312 19.862-2.567 26.102-4.602 46.326 1.456" clip-rule="evenodd" fill="#a9f0e9" fill-rule="evenodd"/><path d="M62.07 148.516l-.013.003c-4.785-1.359-7.892-2.848-11.013-5.224-1.067-.812-3.242-3.17-3.31-4.892-.032-.807.746-2.113 2.075-2.016 1.272.091 2.368.571 3.372 1.31 2.028 1.494 5.253 4.995 9.506 10.324l.068.031c1.515.725 3.07 1.38 4.654 1.964-2.245-1.97-4.191-4.443-4.89-7.362-.275-1.149.085-4.102 2.01-3.854 1.313.169 2.479 1.827 3.04 2.861 1.658 3.055 2.614 6.535 4.036 9.707l-.086-.013a59.848 59.848 0 0 0 6.815 1.514c-1.783-1.717-3.313-3.672-4.13-6.012-.506-1.452-.965-3.549.36-4.77 1.183-1.091 2.869.129 3.693.99 2.145 2.24 3.245 5.669 3.788 8.644l-.011 1.606.081-.006-.096 2.117-.004.528-.02-.015-.02.451c-3.875 4.938-6.668 7.891-8.776 8.281-2.61.483-3.226-1.249-2.839-2.653.853-3.092 2.3-4.531 5.012-6.351a14.171 14.171 0 0 1 3.978-1.877l-.043-.038a62.313 62.313 0 0 1-8.002-1.685c-1.74 1.186-3.368 2.351-5.324 3.212-1.485.652-3.025 1.223-4.636 1.466-1.643.248-4.39.279-3.889-1.995.061-.278.11-.7.316-.925 1.238-1.352 3.518-1.927 5.252-2.17 1.896-.267 3.9-.388 5.85-.331a51.128 51.128 0 0 1-6.73-2.753s-.033-.025-.075-.067z" clip-rule="evenodd" fill="#00988b" fill-rule="evenodd"/><ellipse cx="59.127" cy="47.82" rx="44.957" ry="44.905" fill="#fff8e4"/><mask id="a" maskUnits="userSpaceOnUse" x="0" y="14" width="90" height="91"><ellipse cx="44.957" cy="59.713" rx="44.957" ry="44.905" fill="#fff"/></mask><g mask="url(#a)" transform="translate(14.17 -11.893)" clip-rule="evenodd" fill-rule="evenodd"><path d="M32.727 90.992c-6.582 6.337-9.654 11.278-16.157 30.149-4.527 13.137-9.888 25.748-16.935 33.939 6 1.553 22.222.555 30.111-4.769 2.111-6.322 3.222-13.864 3.778-17.413.694 3.773 1.977 8.133 2.697 10.447a5.431 5.431 0 0 1-.013 3.297c-2.325 7.211-11.383 35.727-11.383 35.727H94.2s-14.047-26.281-19.69-39.025a5.494 5.494 0 0 1-.439-2.597c.296-4.071.564-9.069.564-9.069s3.667-5.546 4.222-10.537c5 5.657 14.334 14.53 19.334 20.963 2.444-2.44 8.777-24.844 9.555-33.606-3.444-.444-8.777-.999-8.777-.999s-9-1.798-17.778-8.22c-8.778-6.42-12.556-9.525-22-10.856-9.445-1.331-17.375-.47-26.464 2.569z" fill="#ffbf00"/><path d="M78.856 121.243c2.9 3.367 12.337 13.061 14.328 15.134 0 0-12.845-20.979-25.172-32.18 7 8.23 11.054 12.687 10.845 17.046z" fill="#ff8c1a"/><path d="M67.272 49.445c2.205 3.005 6.724 4.398 9.314 8.993 2.379 4.22 2.043 8.354 6.139 11.08 4.095 2.725 6.877.028 12.313 5.536-5.888 0-13.407 3.22-18.025 7.472-6.974 6.423-11.264 7.843-16.896 7.332-5.632-.511-28.574-13.373-28.574-13.373l33.097-28.45 2.66 1.424" fill="#f20d59"/><path d="M81.962 78.93c-2.997-2.318-6.936-3.324-10.143-5.73-3.231-2.425-6.153-5.732-6.389-9.525-.021-.34.11-.678.493-.672.545.076.442.904.542 1.444.874 4.689 5.407 8.209 9.822 10.37 2.25 1.1 4.584 2.073 6.535 3.625zm6.578-2.831c-3.946-2.61-9.106-3.282-12.302-7.048-2.332-2.747-1.923-6.913-4.133-10.216-1.952-2.917-4.926-4.991-7.936-6.69 0 0-.47-.881.27-.87.453.072 2.422 1.324 4.059 2.56 2.92 2.208 5.314 5.225 6.317 8.759.771 2.72 1.19 5.497 3.846 7.417 3.339 2.412 7.595 3.283 11.03 5.768zm-15.685 9.916c-2.475-.853-4.722-2.35-6.307-4.222-2.84-3.354-4.008-7.742-5.242-11.775 0 0-.227-.89.419-.858.27.046.304.085.395.327 1.76 5.73 3.33 11.942 9.116 14.79.823.405 1.68.761 2.57 1.014zm-3.952 2.395c-2.908-.885-5.376-3.164-6.872-6.085-1.366-2.67-2.045-5.623-2.754-8.553 0 0-.391-1.152.367-1.12.592.093.642 1.328.875 2.277 1.302 5.265 3.168 10.882 8.607 12.605l1.034.24-.158.1z" fill="#da0c51"/><path d="M48.733 78.118c.318 2.59 4.98 9.654 9.351 11.296-3.003 1.954-12.537 6.8-25.371 1.59l5.503-7.535c1.438-1.97 1.66-10.993 1.66-10.993s8.538 3.052 8.857 5.642z" fill="#ffe6e6"/><path d="M41.383 73.256c2.455 1.002 7.146 3.16 7.381 5.066.118.956.827 2.522 1.898 4.197-3.271-.613-7.033-1.611-11.174-3.939.198-1.666.307-3.364.364-4.516a9.144 9.144 0 0 1 1.53-.808z" fill="#fecdcd"/><path d="M12.082 74.259c-.368 3.708-.32 8.67-1.75 11.651-2.107 4.388-3.938 5.942-3.938 5.942s-8.935-4.411-20.564-5.143c4.489-4.107 5.77-9.533 6.868-13.555 1.1-4.022 4.008-8.687 9.96-12.709 5.952-4.022 4.48-10.942 10.42-18.382 4.259-5.333 13.118-10.95 22.069-12.823 2.197-2.833 31.591 8.318 32.14 20.292-6.135 1.37-14.101-4.712-18.496-9.988-.604 5.474-2.012 13.982-17.26 19.891-1.805 1.443-4.822 2.486-7.982 3.745 2.168 1.16 5.388 2.946 9.623 5.468 9.99-1.142 7.329 18.766 7.009 20.877-5.79-1.594-9.42-.799-13.814.898s-8.016 3.301-13.617 3.001c3-5.69-.035-14.024-.668-19.165z" fill="#f20d59"/><path d="M21.625 92.204c2.125-6.035-1.467-13.425-2.12-20.044-.313-3.177.204-6.389 1.222-9.42.032-.097.1-.52.577-.477.853.216.165 1.153-.096 2.084-.98 3.495-1.026 7.14-.237 10.812 1.084 5.045 2.782 10.122 2.02 15.367l-.264 1.294zm11.837-3.525c.034-.8.113-1.793.027-2.762-.474-5.377-3.95-10.203-4.846-15.077 0 0-.001-.65.511-.612.514.105.407.457.457.705.829 4.02 3.294 7.563 4.27 11.636.475 1.986.693 4.038.565 6.073l-.096-.005zm-38.775-.794c1.74-4.7 2.153-9.846 5.028-13.879 3.324-4.662 7.582-8.594 10.3-13.764 3.447-6.553 4.5-14.005 8.727-19.801 1.51-2.071 3.243-3.958 5.071-5.789.189-.189.236-.46.715-.383.767.295.13.856-.31 1.3-4.459 4.514-7.66 9.936-9.654 16.089-1.302 3.985-2.874 7.882-5.121 11.489-2.944 4.722-7.545 8.247-10.15 13.299-1.866 3.62-2.295 7.778-3.694 11.657z" fill="#da0c51"/><path d="M5.625 91.454c.04-.144.153-.318.345-.531 2.956-3.313 4.61-7.576 4.883-12.064.362-6.284 1.106-12.805 5.28-17.771 4.515-5.37 10.255-9.888 12.94-16.567 1.822-4.533 2.646-9.415 3.19-14.283 0 0 .153-.494.618-.388.413.198.284.731.231 1.189-.85 7.129-2.395 14.288-6.68 20.073-3.784 5.107-9.416 8.97-12.029 14.273-1.444 2.93-1.903 6.183-2.196 9.431l-.097-.6c-.229 2.306-.297 5.099-.662 7.606-.244 1.457-.591 2.849-1.14 4.148-.87 1.797-1.689 3.11-2.369 4.018a21.715 21.715 0 0 1-1.455 1.756l-.1.048z" fill="#da0c51"/><path d="M67.745 64.662a3.507 3.507 0 0 0 3.51-3.503 3.507 3.507 0 0 0-3.51-3.504 3.506 3.506 0 0 0-3.51 3.504 3.507 3.507 0 0 0 3.51 3.503z" fill="#fff"/><path d="M31.503 59.475c-1.778-2.07-3.077-2.969-6.462-2.56-3.384.41-5.333 4.198-4.717 6.962.615 2.764 3.487 6.04 6.461 6.347 2.974.307 5.23-.307 6.359-1.536 1.538 1.74 8.922 8.907 16.511 10.237 7.59 1.332 12.717-3.787 14.564-8.701 1.846-4.914 2.57-14.004 1.237-20.453-6.153-6.859-17.134-11.617-17.134-11.617s-10.666 10.981-16.82 21.321z" fill="#ffe6e6"/><path d="M28.613 63.885c.137-1.11-.197-2.316-.691-2.861-.237-.292-.072-.79.39-.768 1.004.106 1.688 2.287 1.277 3.852a5.68 5.68 0 0 1 1.693.836s.2.182.19.396c-.032.76-1.515-.256-2.782-.499a6.67 6.67 0 0 0-2.6.022s-.269.026-.422-.124c-.481-.473.649-.956 1.881-.945.355.006.712.036 1.064.09z" fill="#fecdcd"/><path d="M48.77 39.687c-.605 5.475-2.013 13.983-17.26 19.892-3.665-5.084 3.864-24.35 3.615-30.196 2.98-4.008 12.854-4.642 19.169-2.504 7.954 2.693 12.423 10.822 12.972 22.796-6.135 1.372-14.102-4.712-18.497-9.988z" fill="#f20d59"/><path d="M45.897 25.675c3.603.766 7.05 2.285 10.199 4.224 3.455 2.128 6.542 4.903 8.963 8.133l.553 1.583.395 1.406c-4.403-7.178-11.902-12.488-20.146-14.386a22.84 22.84 0 0 0-4.025-.58 24.404 24.404 0 0 1 4.061-.38z" fill="#da0c51"/><path d="M42.869 28.951c3.252 2.997 5.939 7.074 5.67 11.666l-.045.465c-.348 2.461-1.042 5.364-3.044 8.3-.31.03-.574-.256-.19-1.027 2.042-4.16 3.37-8.927 1.295-13.279-1.527-3.204-4.304-5.452-6.915-7.656-.056-.048-.167-.149-.609-.623 0 0 .411-.137.61-.196.192-.058.58-.16.58-.16 7.897 3.078 15.347 7.394 20.994 13.476 2.215 2.385 4.173 4.967 5.935 7.694l.127 1.848-.045.007c-3.74-6.013-8.45-11.458-14.273-15.477-3.408-2.352-7.126-4.233-10.967-5.82zm-4.409-1.954c.121.28.186.584.257.85 1.995 7.486-.272 15.8-2.681 23.012-.96 2.872-1.793 6.035-3.62 8.292l-.824.348-.307-.51c1.764-2.006 2.62-4.841 3.578-7.584 2.304-6.593 3.984-13.606 3.44-20.328-.101-1.254-.3-2.486-.706-3.678z" fill="#da0c51"/><path d="M37.352 27.567c2.776-3.18 4.259-9.238.535-12.25-4.289-3.471-10.831-4.271-16.657-2.545-4.636 1.374-10.65 7.314-11.15 15.9-.5 8.587 6.599 8.723 9.83 8.178 3.232-.545 14.9-6.371 17.442-9.283z" fill="#f20d59"/><path d="M15.728 16.314c5.989.608 11.65 4.939 12.263 11.16.205 2.074.226 4.21-.103 6.24l-1.026.51c.967-5.17.143-10.96-4.208-14.305-2.213-1.7-4.971-2.617-7.779-2.722l.016-.018z" fill="#da0c51"/><path d="M14.22 17.875l.13.046c4.724 2.003 6.738 7.935 6.862 12.645.054 2.038-.129 4.072-.62 6.06l-.65.18-.328.038.039-.264c1.619-6.59.907-14.685-5.284-17.63a4.261 4.261 0 0 1-.67-.378l.437-.598zm-1.168 1.647c2.884 4.378 3.69 10.348 2.246 15.318-.178.61-.404 1.254-.775 1.763a6.786 6.786 0 0 1-.934-.386c1.009-1.168 1.157-2.974 1.226-4.706.154-3.85-.47-7.99-2.311-11.1l.13-.238zm4.797-4.976l1.702-.052c1.117.006 2.233.057 3.342.182.36.04.721.09 1.08.147 4.365.697 8.794 3.281 10.098 8.011.635 2.303.55 4.8.27 7.184l-.377.263-.576.347-.017-.273c.505-4.335.375-9.28-3.426-12.218-3.79-2.928-8.938-2.9-13.359-2.616l-.02.001c.425-.361.856-.69 1.282-.976z" fill="#da0c51"/><path d="M26.102 11.893c4.964.46 9.882 2.57 11.979 7.302.937 2.115 1.02 4.537.4 6.795a9.424 9.424 0 0 1-1.084 1.525l-.552.552c-.039-.139-.015-.325.102-.57 1.743-3.748 1.168-8.346-2.295-11.34-3.829-3.31-9.349-3.813-14.049-3.2l.673-.237a20.497 20.497 0 0 1 4.826-.827z" fill="#da0c51"/><path d="M28.284 73.503a3.506 3.506 0 0 0 3.51-3.504 3.507 3.507 0 0 0-3.51-3.503 3.507 3.507 0 0 0-3.51 3.503 3.507 3.507 0 0 0 3.51 3.504z" fill="#fff"/><path d="M39.597 48.955c3.43-1.797 8.034.201 10.273 4.46 2.24 4.259 1.273 9.176-2.157 10.973-3.43 1.798-8.034-.2-10.273-4.46-2.24-4.258-1.274-9.175 2.157-10.973z" fill="#f5fbfc"/><path d="M41.763 54.177c.878-.501 2.224.197 3.005 1.56.78 1.361.702 2.874-.176 3.376-.878.5-2.225-.197-3.005-1.56-.781-1.361-.703-2.874.176-3.376z" fill="#26acd8"/><path d="M56.99 45.07c3.155-1.426 7.315.938 9.283 5.276 1.967 4.338 1.002 9.018-2.153 10.445-3.156 1.426-7.316-.938-9.283-5.276-1.968-4.339-1.003-9.019 2.153-10.445z" fill="#f5fbfc"/><path d="M57.93 50.475c.743-.382 1.89.362 2.56 1.661.67 1.299.61 2.663-.133 3.046-.743.382-1.891-.362-2.56-1.661-.671-1.3-.611-2.664.132-3.046z" fill="#26acd8"/><path d="M59.017 44.655c4.933.094 8.949 6.015 8.2 11.464-.346 2.511-2.224 5.074-5.031 5.087-4.99.022-9.074-6.135-8.268-11.556.365-2.45 2.084-4.914 4.938-4.994l.16-.001zm-.142.932c-2.51.07-4.143 2.936-4.118 5.47.052 5.596 6.118 12.057 10.084 8.124 3.981-3.95.007-13.667-5.966-13.594z" fill="#66c5e4"/><path d="M53.295 51.675c.964 2.806 4.578 5.798 7.02 6.958 2.037.967.585 4.094-3.026 4.837" fill="#ffe6e6"/><path d="M53.367 51.155c.606.064.783 1.26 1.33 2.047 1.484 2.135 3.596 3.845 5.922 4.984 0 0 .936.498 1.103 1.41.36 1.964-1.923 3.76-4.204 4.257-.566.123-1.06-.717-.121-.928 2.27-.538 4.551-2.996 2.8-3.908-3.165-1.55-6.114-4.056-7.247-7.103-.129-.347.015-.762.417-.76z" fill="#fdb3b3"/><path d="M36.29 56.832c-.464-2.576.12-5.223 2.17-7.065 1.078-.968 2.537-1.484 3.995-1.472 3.96.088 7.053 3.415 8.185 6.95 1.415-.77 3.075-1.107 4.682-1.116.117.14.491.559.697.769-1.885 0-3.847.534-5.128 1.277.104.473.172.946.2 1.41.219 3.584-2.15 7.877-6.709 7.432-3.843-.376-6.871-3.64-7.88-7.262a3.05 3.05 0 0 1-.133.005c-1.98.023-3.883.229-5.82.652-.014-.003-.412-.393-.828-.683 1.278-.459 4.39-.847 6.569-.897zm6-7.606a4.981 4.981 0 0 0-3.991 2.13c-2.425 3.517-.739 9.161 3.17 11.65 2.336 1.488 5.796 1.604 7.606-1.02 3.17-4.598-.73-12.628-6.634-12.76h-.151z" fill="#66c5e4"/><path d="M45.48 67.536c4.796.6 8.243.647 12.407.26-.67 2.973-2.84 5.464-6.527 5.353-3.536-.107-5.69-2.948-5.88-5.613z" fill="#fecdcd"/><path d="M46.32 70.14a5.805 5.805 0 0 1-.84-2.604c2.67.333 4.923.496 7.105.492l.72.32c-3.223.387-5.3 1.052-6.986 1.791z" fill="#fdb3b3"/><path d="M45.6 67.017l.663.08c3.847.446 7.76.534 11.644.179 0 0 .614.103.446.785-.968 3.788-5.048 6.585-9.072 5.09-2.254-.84-3.931-3.028-4.185-5.435-.04-.372.113-.728.505-.699zm.483 1.005c.804 4.231 7.535 6.644 10.477 1.936.4-.64.767-1.696.767-1.696a80.7 80.7 0 0 1-.687.054c-3.486.245-7.001.11-10.485-.293 0 0-.077-.025-.072-.001z" fill="#fdb3b3"/></g><path d="M274.646 109.768c19.383-10.941 24.392-37.34 24.538-49.24.148-12.089 3.164-21.33 4.595-24.443-2.408.822-7.588 6.43-9.658 7.987-5.117 3.847-8.442 6.066-12.372 11.212-3.393 4.442-5.625 9.526-8.792 14.094-5.681 8.196-13.88 14.168-18.944 22.908-2.498 4.311-3.54 9.456-4.89 14.204" clip-rule="evenodd" fill="#a6e468" fill-rule="evenodd"/><path d="M299.223 58.885l.056-1.345a41.615 41.615 0 0 1-11.653 7.171 167.604 167.604 0 0 1 3.436-6.617c.099-.045.194-.175.273-.437l.036-.126a248.844 248.844 0 0 1 4.553-7.883c.457-.034.973-.412 1.487-.665 1.118-.553 2.154-1.258 3.139-2.022l.289-1.44-.284.189c-1.165.909-2.377 1.748-3.71 2.411l5.877-9.468c.379-1.137.74-2.034 1.033-2.673l-.832.42-.85 1.372c-3.425 5.497-6.86 10.954-10.06 16.57.44-3.155.47-6.443 1.183-9.666l.006-.038-1.2.898-.002.019c-.64 3.863-.516 7.886-1.583 11.64a156.453 156.453 0 0 0-4.214 8.207.45.45 0 0 0-.05.102c-.258.545-.512 1.093-.764 1.644-1.087 2.384-2.16 4.786-3.257 7.176.072-6.1-2.146-12.212-1.125-18.15l-.504.7-.676 1.034c-.371 6.21 1.97 12.83 1.112 18.927 0 0-.004.024-.005.061-4.847 10.256-10.464 20.062-20.164 26.896 0 0-.311.102-.198.538.212.827 1.694-.337 2.922-1.315 2.085-1.659 3.985-3.511 5.734-5.506l.03-.001c5.659-.698 11.315-1.64 16.343-4.417.032-.017.28-.05.38-.403.086-.483-.301-.786-1.13-.338-4.48 2.387-9.586 3.36-14.654 4.021a61.306 61.306 0 0 0 3.615-4.859c.133-.023.292-.062.48-.122 6.457-2.053 12.415-5.667 17.564-10.015 0 0 .089.003.167-.276.086-.513-.323-.905-1.247-.136-4.818 3.985-10.253 7.28-16.104 9.242 2.61-4.062 4.855-8.397 6.929-12.707.149-.053.273-.186.323-.417.017-.12.034-.24.049-.359 1.754-3.677 3.394-7.322 5.042-10.75.689-.15 1.677-.594 2.563-.995a41.417 41.417 0 0 0 9.645-6.092z" clip-rule="evenodd" fill="#8bdc3a" fill-rule="evenodd"/><path d="M240.303 62.3c-4.411-12.739-26.011-35.804-33.521-39.044-5.596 9.125-10.816 22.37-9.102 34.554 3.316.136 7.46.196 12.27.567-3.396 1.65-7.386 3.51-11.867 4.753-.442 3.875 2.095 10.697 6.282 20.696" clip-rule="evenodd" fill="#d5f6e3" fill-rule="evenodd"/><path d="M206.718 23.483c.034.384.273.867.425 1.333 1.617 4.968 4.462 9.468 5.964 14.528l.043.147c-4.343-.538-8.604-1.61-12.355-3.76l-.296.817c.624.427 1.585.886 2.428 1.258 3.257 1.438 6.783 2.156 10.338 2.582 0 0 .05-.036.118-.093.969 3.387 1.765 6.822 2.587 10.24-.075.014-.15.032-.218.047-6.003 1.224-12.407.85-18.137-1.267l-.073.905c5.918 2.113 12.604 2.473 18.617 1.17l.015-.01c.133.549.267 1.097.402 1.643 1.28 5.187 2.427 10.406 3.187 15.686-.402-.372-2.13.564-3.615 1.137a56.268 56.268 0 0 1-15.783 3.598l.144.422.164.435a57.413 57.413 0 0 0 18.92-4.956s.157-.091.225-.25c.203 1.45.378 2.905.517 4.365 0 0 .09.33.34.385.466.104.519-.626.457-1.233-.286-2.765-.7-5.502-1.2-8.227.373-.127.834-.388 1.262-.641 5.267-3.117 9.81-7.53 12.967-12.763l-.56-.78c-3.308 5.61-8.245 10.328-13.827 13.338-1.142-6.014-2.681-11.974-4.161-18.038a.505.505 0 0 0 .065-.06 35.784 35.784 0 0 0 5.872-9.788l-.662-.69c-1.314 3.426-3.183 6.607-5.53 9.49l-.013-.058c-.683-2.804-1.381-5.622-2.396-8.328-.118-.315-.24-.628-.367-.94.494-.383 1.09-1.664 1.517-2.817.373-1.01.688-2.043.902-3.097l-.346-.32-.355-.306c-.371 2.052-1.071 4.036-2.066 5.707-1.523-3.54-3.453-6.918-4.512-10.624l-.852-.453z" clip-rule="evenodd" fill="#a6e468" fill-rule="evenodd"/><path d="M266.397 69.25l.746 2.13c3.502-1.257 8.383-3.267 10.71-5.082 1.38-1.079 2.699-2.913 1.926-4.323-.756-1.377-2.101-1.208-4.037-.672-2.155.598-4.734 2.192-7.051 4.17.814-1.8 1.569-3.622 2.279-5.459 3.737-1.768 8.298-3.56 11.6-5.874 1.475-1.033 3.498-3.04 3.68-4.943.225-2.32-2.518-2.944-4.34-2.184-2.022.845-3.993 2.017-5.556 3.613-1.025 1.048-2.208 2.349-3.274 3.53a212.673 212.673 0 0 0 1.955-6.134s.036-.096.05-.225c1.8-3.418 3.747-7.135 4.469-10.587.354-1.692.74-5.57-.78-6.842-1.774-1.486-4.445 1.576-5.065 3.247-1.738 4.688-1.186 9.729.052 14.44a201.592 201.592 0 0 1-1.824 5.717c-.51-2.364-1.134-4.546-2.177-6.025-.604-.859-1.667-1.591-2.81-.99-1.111.585-1.342 2.71-1.208 3.769.558 4.441 2.456 6.855 4.024 9.255a104.9 104.9 0 0 1-2.173 5.183c-1.052-3.023-2.962-7.169-4.881-5.5-2.127 1.849 2.026 8.17 2.46 10.807z" clip-rule="evenodd" fill="#00988b" fill-rule="evenodd"/><path d="M234.734 34.633l38.687.893-33.726-19.639-40.33-.51z" clip-rule="evenodd" fill="#bdf3ef" fill-rule="evenodd"/><path d="M234.747 34.635l-35.37-19.255-11.646 49.913 34.06 21.115z" clip-rule="evenodd" fill="#7ee8df" fill-rule="evenodd"/><path d="M260.5 82.375l-38.731 4.018 12.954-51.772 38.687.893z" clip-rule="evenodd" fill="#d2f7f4" fill-rule="evenodd"/><path d="M260.37 35.176l-34.51-19.453-10.091-.132 33.445 19.323z" clip-rule="evenodd" fill="#3bddce" fill-rule="evenodd"/><path d="M249.215 34.914l-12.897 49.943 11.363-1.178 12.692-48.507" clip-rule="evenodd" fill="#7ee8df" fill-rule="evenodd"/><path d="M259.648 27.49l-37.567.241-9.1-4.954 38.578.003z" clip-rule="evenodd" fill="#3bddce" fill-rule="evenodd"/><path d="M222.08 27.695l-13.118 50.71-8.692-5.39 12.712-50.274z" clip-rule="evenodd" fill="#26d8c8" fill-rule="evenodd"/><path d="M236.348 26.663c7.053 1.23 31.662-15.202 23.499-23.7-7.746-8.064-21.566 14.228-23.5 23.7zm19.407-18.6c-1.547-2.168-10.183.617-17.884 17.397 6.244-1.404 20.149-14.219 17.884-17.396z" clip-rule="evenodd" fill="#00b2a3" fill-rule="evenodd"/><path d="M236.54 26.504c-9.236-1.423-18.543-23.643-7.576-23.848 7.515-.14 9.6 17.217 7.576 23.848zm-7.585-18.892c1.382.145 7.569 5.678 7.02 17.587-6.262-3.267-11.7-18.076-7.02-17.587z" clip-rule="evenodd" fill="#00b2a3" fill-rule="evenodd"/><path d="M175.038 90.696l-.811-46.075-32.118-8.506 3.939 40.998z" clip-rule="evenodd" fill="#ff9abb" fill-rule="evenodd"/><path d="M204.786 73.937L175 90.699l-.811-46.075 31.04-12.563z" clip-rule="evenodd" fill="#ffcadc" fill-rule="evenodd"/><path d="M205.218 31.912L174.06 23.9l-32 12.07 32.117 8.506z" clip-rule="evenodd" fill="#ff98ba" fill-rule="evenodd"/><path d="M174.164 44.465l.224 12.739-31.283-10.184-1.06-11.061z" clip-rule="evenodd" fill="#ff82ab" fill-rule="evenodd"/><path d="M174.18 44.464L205.216 31.8l-.112 11.335-30.69 14.187z" clip-rule="evenodd" fill="#ffb2cb" fill-rule="evenodd"/><path d="M192.57 28.716L163.264 41.64l-9.32-2.468 29.602-12.777z" clip-rule="evenodd" fill="#f69" fill-rule="evenodd"/><path d="M163.298 41.641l.354 17.798-4.818-5.217-3.761 1.972-1.095-17.022z" clip-rule="evenodd" fill="#f37" fill-rule="evenodd"/><path d="M155.228 31.012l29.004 9.404.637 17.998 4.969-5.891 4.268 1.379-.484-17.286-28.807-9.22z" clip-rule="evenodd" fill="#f69" fill-rule="evenodd"/><path d="M172.695 34.022c-4.438.804-20.307-12.304-15.303-18.67 4.75-6.04 13.904 11.356 15.303 18.67zm-12.62-14.67c.938-1.636 6.452.675 11.634 13.715-3.975-1.201-13.008-11.32-11.634-13.716zm12.641 14.288c9.515-.134 20.937-25.774 9.805-27.939-7.628-1.482-11.28 19.45-9.805 27.94zm9.377-21.856c-1.418-.064-8.195 5.646-8.69 20.354 6.657-2.917 13.492-20.138 8.69-20.354z" clip-rule="evenodd" fill="#f53d7b" fill-rule="evenodd"/><path d="M80.068 150.573c0 29.151 10.493 36.684 20.854 41.179 10.361 4.496 30.902 3.766 38.397 3.766 0 0 94.719-1.429 123.359-1.429 28.639 0 41.217-17.043 41.217-40.676v-44.864c0-30.502-11.537-44.158-60.966-42.62" clip-rule="evenodd" fill="#d6edf5" fill-rule="evenodd"/><path d="M260.415 186.69h-.01l.01.5-.008-.446-.002-.054h-.017l-.055.001-.218.004-.854.015-3.268.054a15947.771 15947.771 0 0 1-49.826.75c-28.887.387-61.29.727-75.39.534-14.095-.193-26.742-1.962-35.86-7.967-9.072-5.973-14.741-16.203-14.741-33.561v-40.998c0-16.335 3.512-26.519 11.816-32.402 8.353-5.917 21.685-7.59 41.63-6.493 14.326.79 54.233.43 82.486.177 10.577-.095 19.52-.176 24.877-.176 19.348 0 33.933 1.513 43.68 7.115 4.857 2.79 8.514 6.597 10.963 11.758 2.453 5.17 3.707 11.724 3.707 20.021 0 5.159.025 10.247.049 15.291.048 9.956.096 19.739-.05 29.565-.2 13.734-4.341 22.776-11.161 28.399-6.837 5.638-16.455 7.913-27.758 7.913z" fill="#fff" stroke="#d6edf5"/></svg>