<svg width="305" height="265" fill="none" xmlns="http://www.w3.org/2000/svg"><path fill-rule="evenodd" clip-rule="evenodd" d="M77.334 195.863c-3.524-.091-7.135-.319-10.589.315-7.47 1.37-17.665 7.044-25.372 2.716-9.113-5.117-2.938-10.09 3.461-11.93 3.996-1.149 8.382-.844 12.28-2.285 4.536-1.676 8.047-5.299 12.449-7.268 6.24-2.792 13.982-2.635 20.78-2.089" fill="#D5F6E3"/><path fill-rule="evenodd" clip-rule="evenodd" d="M40.244 188.898l.465-.255c2.311.86 4.252 2.574 5.69 4.582 3.287-.821 6.413-2.176 9.548-3.526a2.19 2.19 0 0 1-.231-.318c-.827-1.34-1.795-2.595-2.949-3.678l.921-.149c1.11 1.119 2.048 2.408 2.862 3.776 0 0 .025.034.05.088 3.533-1.516 7.093-2.98 10.922-3.622a26.21 26.21 0 0 1 2.85-.31c-.3-.296-.641-.914-.996-1.445-1.095-1.635-2.412-3.157-4.055-4.211l.667-.446c2.04 1.395 3.616 3.476 4.867 5.636 0 0 .144.241.08.439 1.793-.071 3.598-.003 5.397.084 0 0 .746.696-.036.74l-.68-.032c-4.34-.192-8.564.103-12.956 1.642-.765.268-1.524.554-2.28.85a2.477 2.477 0 0 1-.045.307c-.727 3.431-1.858 6.783-3.476 9.889l-1.022.275c.318-.598.736-1.297 1.049-1.959 1.227-2.602 2.079-5.373 2.687-8.191-2.974 1.196-5.907 2.529-8.894 3.604-.01.601-.21 1.521-.412 2.283-.523 1.968-1.345 3.863-2.495 5.545l-.302.006-.55-.042.047-.058c1.592-2.191 2.477-4.825 3-7.482-2.24.771-4.516 1.382-6.865 1.668a1.204 1.204 0 0 1-.146.275c-.873 1.185-1.894 2.275-3.057 3.168l-.128-.08-.498-.395c1.1-.796 2.062-1.791 2.889-2.872-1.748.146-3.498.133-5.246.025a3.2 3.2 0 0 1-.182-.772c2.958.188 5.917.115 8.882-.529-1.432-1.913-3.363-3.535-5.666-4.255l-.03-.04.324-.215z" fill="#A6E468"/><path fill-rule="evenodd" clip-rule="evenodd" d="M68.028 143.12c-5.44-2.792-12.642-6.582-15.293-12.52-3.393-7.596 1.332-13.764 9.919-12.815 13.302 1.469 19.896 10.225 30.17 17.285" fill="#A2F5D9"/><path fill-rule="evenodd" clip-rule="evenodd" d="M57.828 172.735c-12.163-9.665-27.746-15.609-37.224-28.306-2.173-2.91-7.26-10.14-9.614-12.96 5.805 2.321 15.36 3.693 18.077 3.844 8.702.482 17.429-1.411 26.074-.108 12.451 1.875 23.156 8.785 33.447 15.65" fill="#A6E468"/><path fill-rule="evenodd" clip-rule="evenodd" d="M11.569 132.211l-.579-.742c1.148.459 2.442.881 3.805 1.247 8.1 3.043 16.88 4.623 24.376 8.163.937.442 1.868.898 2.794 1.365l.169.085c-1.389-2.538-2.879-5.078-4.915-7.104l.961-.053c2.066 2.208 3.597 4.938 5.063 7.645 0 0 .013.037.023.092 4.305 2.234 8.49 4.704 12.615 7.284-.075-.436-.107-1-.19-1.52-.798-4.941-2.304-9.783-5.26-13.87l.943.033c3.1 4.543 4.553 10.04 5.341 15.685 0 0-.006.08-.04.17a529.349 529.349 0 0 1 8.71 5.635c-.013-.284-.007-.596-.008-.89-.009-5.789 2.396-11.64.512-17.322l.454.169.417.173c1.61 5.936-.991 12.455-.595 18.297 0 0 .004.035.003.088 2.082 1.369 4.16 2.74 6.245 4.093 0 0 .324.986-.404.622a750.943 750.943 0 0 1-3.212-2.1 1.05 1.05 0 0 1-.32.186c-5.578 2.224-10.004 6.823-15.186 9.741l-.166-.118-.517-.349c2.915-1.587 5.573-3.718 8.174-5.603 2.299-1.659 4.683-3.251 7.316-4.317-2.418-1.59-4.828-3.185-7.25-4.76-6.362 1.937-12.426 4.961-18.088 8.362l-.686-.434a104.569 104.569 0 0 1 16.437-7.912c.49-.182.983-.358 1.48-.522l.05-.017c-3.986-2.58-8.008-5.1-12.147-7.449-.508.245-1.458.435-2.244.685a55.034 55.034 0 0 0-12.416 5.726 34.43 34.43 0 0 0-2.564 1.745l-.61-.488c3.84-2.956 8.302-5.08 12.876-6.82l.31-.116c1.244-.46 2.5-.889 3.783-1.219a132.424 132.424 0 0 0-8.454-4.36 48.439 48.439 0 0 0-2.832-1.215 1.169 1.169 0 0 1-.127.044c-4.623 1.381-8.317 5.211-13.078 6.583l-.088-.096-.427-.532c4.48-1.178 8.1-4.737 12.497-6.371l.128-.046c-5.549-2.055-11.348-3.294-16.692-5.136-2.158-.747-4.3-1.524-6.387-2.437z" fill="#8BDC3A"/><path fill-rule="evenodd" clip-rule="evenodd" d="M71.925 180.097c-17.47 2.246-32.33.427-49.124-4.877-2.25-.71-14.622-4.518-15.666-6.345-.426-.745 1.705-.101 2.56-.123 1.628-.044 3.255-.106 4.882-.187 5.097-.256 10.135-.658 15.195-1.312 19.862-2.567 26.102-4.602 46.326 1.456" fill="#A9F0E9"/><path fill-rule="evenodd" clip-rule="evenodd" d="M47.9 160.409l-.013.003c-4.785-1.359-7.892-2.848-11.013-5.224-1.067-.812-3.242-3.17-3.31-4.892-.032-.807.746-2.113 2.075-2.016 1.272.091 2.368.571 3.372 1.31 2.028 1.494 5.253 4.995 9.506 10.324l.068.031c1.515.725 3.07 1.38 4.654 1.964-2.245-1.97-4.191-4.443-4.89-7.362-.275-1.149.085-4.102 2.01-3.854 1.313.169 2.479 1.827 3.04 2.861 1.658 3.055 2.614 6.535 4.036 9.707l-.086-.013a59.848 59.848 0 0 0 6.815 1.514c-1.783-1.717-3.313-3.672-4.13-6.012-.506-1.452-.965-3.549.36-4.77 1.183-1.091 2.869.129 3.693.99 2.145 2.24 3.245 5.669 3.788 8.644l-.011 1.606.081-.006-.096 2.117-.004.528-.02-.015-.02.451c-3.875 4.938-6.668 7.891-8.776 8.281-2.61.483-3.226-1.249-2.839-2.653.853-3.092 2.3-4.531 5.012-6.351a14.171 14.171 0 0 1 3.978-1.877l-.043-.038a62.313 62.313 0 0 1-8.002-1.685c-1.74 1.186-3.368 2.351-5.324 3.212-1.485.652-3.025 1.223-4.636 1.466-1.643.248-4.39.279-3.889-1.995.062-.278.11-.7.316-.925 1.238-1.352 3.519-1.927 5.252-2.17 1.896-.267 3.9-.388 5.85-.331a51.128 51.128 0 0 1-6.73-2.753s-.033-.025-.074-.067z" fill="#00988B"/><ellipse cx="44.957" cy="59.713" rx="44.957" ry="44.905" fill="#FFF8E4"/><mask id="a" maskUnits="userSpaceOnUse" x="0" y="14" width="90" height="91"><ellipse cx="44.957" cy="59.713" rx="44.957" ry="44.905" fill="#fff"/></mask><g mask="url(#a)" fill-rule="evenodd" clip-rule="evenodd"><path d="M32.727 90.992c-6.582 6.337-9.654 11.278-16.157 30.149-4.527 13.137-9.888 25.748-16.935 33.939 6 1.553 22.222.555 30.111-4.769 2.111-6.322 3.222-13.864 3.778-17.413.694 3.773 1.977 8.133 2.697 10.447a5.431 5.431 0 0 1-.013 3.297c-2.325 7.211-11.383 35.727-11.383 35.727H94.2s-14.047-26.281-19.69-39.025a5.494 5.494 0 0 1-.439-2.597c.296-4.071.564-9.069.564-9.069s3.667-5.546 4.222-10.537c5 5.657 14.334 14.53 19.334 20.963 2.444-2.44 8.777-24.844 9.555-33.606-3.444-.444-8.777-.999-8.777-.999s-9-1.798-17.778-8.22c-8.778-6.42-12.556-9.525-22-10.856-9.445-1.331-17.375-.47-26.464 2.569z" fill="#FFBF00"/><path d="M78.856 121.243c2.9 3.367 12.337 13.061 14.328 15.134 0 0-12.845-20.979-25.172-32.18 7 8.23 11.054 12.687 10.844 17.046z" fill="#FF8C1A"/><path d="M67.272 49.445c2.205 3.005 6.724 4.398 9.314 8.993 2.379 4.22 2.043 8.354 6.139 11.08 4.095 2.725 6.877.028 12.313 5.537-5.888 0-13.407 3.218-18.025 7.471-6.974 6.423-11.264 7.843-16.896 7.332-5.632-.511-28.574-13.373-28.574-13.373l33.097-28.45 2.66 1.424" fill="#F20D59"/><path d="M81.962 78.93c-2.997-2.318-6.936-3.324-10.143-5.73-3.231-2.425-6.153-5.732-6.389-9.525-.022-.34.11-.678.493-.672.545.076.442.904.542 1.444.874 4.689 5.407 8.209 9.822 10.37 2.25 1.1 4.584 2.073 6.535 3.625l-.86.488zm6.578-2.831c-3.946-2.61-9.106-3.282-12.302-7.048-2.332-2.747-1.923-6.913-4.133-10.216-1.952-2.917-4.926-4.992-7.936-6.69 0 0-.47-.881.27-.87.453.072 2.422 1.324 4.059 2.56 2.92 2.207 5.314 5.225 6.317 8.759.772 2.72 1.19 5.497 3.846 7.417 3.339 2.412 7.595 3.283 11.03 5.768l-1.15.32zm-15.685 9.916c-2.476-.853-4.722-2.35-6.307-4.222-2.84-3.354-4.008-7.742-5.242-11.775 0 0-.227-.89.419-.858.27.046.304.085.395.327 1.76 5.73 3.33 11.942 9.116 14.79.823.405 1.68.761 2.57 1.014l-.951.724zm-3.952 2.395c-2.908-.885-5.376-3.164-6.872-6.085-1.366-2.67-2.045-5.623-2.754-8.553 0 0-.392-1.152.367-1.12.592.093.642 1.328.875 2.277 1.302 5.265 3.168 10.882 8.607 12.605l1.034.24-.159.1-1.098.536z" fill="#DA0C51"/><path d="M48.733 78.118c.319 2.59 4.98 9.654 9.352 11.296-3.004 1.954-12.538 6.8-25.372 1.59l5.503-7.535c1.438-1.97 1.66-10.993 1.66-10.993s8.538 3.052 8.857 5.642z" fill="#FFE6E6"/><path d="M41.383 73.256c2.455 1.002 7.146 3.16 7.381 5.066.118.956.827 2.522 1.898 4.197-3.271-.613-7.033-1.611-11.174-3.939.198-1.666.307-3.364.364-4.516a9.144 9.144 0 0 1 1.53-.808z" fill="#FECDCD"/><path d="M12.082 74.259c-.368 3.707-.32 8.67-1.75 11.651-2.107 4.388-3.938 5.942-3.938 5.942s-8.935-4.411-20.564-5.143c4.489-4.107 5.77-9.534 6.868-13.556 1.1-4.021 4.008-8.686 9.96-12.708 5.952-4.022 4.48-10.942 10.42-18.382 4.259-5.333 13.118-10.95 22.069-12.823 2.197-2.833 31.591 8.318 32.14 20.292-6.135 1.37-14.101-4.712-18.496-9.988-.604 5.474-2.012 13.982-17.26 19.891-1.805 1.444-4.822 2.486-7.982 3.745 2.168 1.16 5.388 2.946 9.623 5.468 9.99-1.142 7.329 18.766 7.009 20.877-5.79-1.594-9.42-.799-13.814.898s-8.016 3.301-13.617 3.001c3-5.69-.035-14.024-.668-19.165z" fill="#F20D59"/><path d="M21.625 92.204c2.125-6.035-1.467-13.425-2.12-20.044-.313-3.176.204-6.389 1.222-9.42.032-.097.1-.52.577-.477.853.216.165 1.153-.096 2.084-.98 3.496-1.026 7.14-.237 10.812 1.084 5.045 2.782 10.122 2.02 15.367l-.264 1.294-1.102.384zm11.837-3.525c.034-.8.113-1.793.027-2.762-.474-5.377-3.95-10.203-4.846-15.077 0 0-.001-.65.511-.612.514.105.407.457.457.705.829 4.02 3.294 7.563 4.27 11.636.475 1.986.693 4.038.565 6.073l-.096-.005-.888.042zm-38.775-.794c1.74-4.7 2.153-9.846 5.028-13.879 3.324-4.662 7.582-8.594 10.3-13.764 3.447-6.553 4.5-14.005 8.727-19.801 1.51-2.071 3.243-3.958 5.072-5.789.188-.189.235-.46.715-.383.766.295.128.856-.312 1.3-4.458 4.514-7.658 9.936-9.653 16.089-1.302 3.985-2.874 7.881-5.121 11.489-2.944 4.722-7.545 8.247-10.15 13.299-1.866 3.62-2.295 7.778-3.694 11.657l-.912-.218z" fill="#DA0C51"/><path d="M5.625 91.454c.04-.144.153-.318.345-.531 2.956-3.314 4.61-7.576 4.883-12.064.362-6.284 1.106-12.805 5.28-17.771 4.515-5.37 10.255-9.889 12.94-16.567 1.822-4.533 2.646-9.415 3.19-14.283 0 0 .153-.494.618-.388.413.198.284.731.231 1.189-.85 7.128-2.395 14.288-6.68 20.073-3.784 5.107-9.416 8.97-12.029 14.273-1.444 2.93-1.903 6.183-2.196 9.431l-.097-.6c-.229 2.306-.297 5.099-.662 7.606-.244 1.457-.591 2.849-1.14 4.148-.87 1.797-1.689 3.11-2.369 4.018a21.715 21.715 0 0 1-1.455 1.756l-.1.048-.759-.338z" fill="#DA0C51"/><path d="M67.745 64.662a3.507 3.507 0 0 0 3.51-3.503 3.507 3.507 0 0 0-3.51-3.504 3.506 3.506 0 0 0-3.51 3.504 3.507 3.507 0 0 0 3.51 3.503z" fill="#fff"/><path d="M31.503 59.475c-1.778-2.07-3.077-2.969-6.462-2.56-3.384.41-5.332 4.198-4.717 6.962.615 2.764 3.487 6.04 6.461 6.347 2.974.307 5.23-.307 6.359-1.536 1.538 1.74 8.922 8.907 16.511 10.237 7.59 1.332 12.717-3.787 14.564-8.701 1.846-4.914 2.57-14.004 1.237-20.453-6.153-6.859-17.134-11.617-17.134-11.617s-10.666 10.981-16.82 21.321z" fill="#FFE6E6"/><path d="M28.613 63.885c.137-1.11-.197-2.316-.691-2.861-.237-.292-.072-.79.39-.768 1.004.106 1.688 2.287 1.277 3.852a5.68 5.68 0 0 1 1.693.836s.2.182.19.396c-.032.76-1.515-.256-2.782-.499a6.67 6.67 0 0 0-2.6.022s-.269.026-.422-.124c-.481-.473.649-.956 1.881-.945.355.006.712.036 1.064.09z" fill="#FECDCD"/><path d="M48.77 39.687c-.605 5.475-2.013 13.983-17.26 19.892-3.665-5.084 3.864-24.35 3.615-30.196 2.98-4.008 12.854-4.642 19.169-2.504 7.954 2.693 12.422 10.822 12.972 22.796-6.135 1.372-14.102-4.712-18.497-9.988z" fill="#F20D59"/><path d="M45.897 25.675c3.604.765 7.05 2.285 10.199 4.224 3.455 2.128 6.542 4.903 8.963 8.133l.553 1.583.395 1.406c-4.403-7.178-11.902-12.488-20.146-14.386a22.84 22.84 0 0 0-4.025-.58 24.404 24.404 0 0 1 4.061-.38z" fill="#DA0C51"/><path d="M42.869 28.951c3.252 2.997 5.939 7.074 5.67 11.666l-.045.465c-.348 2.461-1.042 5.364-3.044 8.3-.31.03-.574-.256-.19-1.027 2.042-4.16 3.37-8.927 1.295-13.279-1.527-3.204-4.304-5.452-6.915-7.656-.056-.048-.167-.149-.609-.623 0 0 .411-.137.61-.196.192-.058.58-.16.58-.16 7.897 3.078 15.347 7.394 20.994 13.476 2.215 2.385 4.173 4.967 5.935 7.694l.127 1.848-.045.007c-3.74-6.013-8.45-11.458-14.273-15.477-3.408-2.352-7.126-4.233-10.967-5.82l.877.782zm-4.409-1.954c.121.28.186.584.257.85 1.995 7.486-.272 15.8-2.681 23.012-.96 2.872-1.793 6.035-3.62 8.292l-.824.348-.307-.51c1.764-2.006 2.62-4.841 3.578-7.584 2.304-6.593 3.984-13.606 3.44-20.328-.101-1.254-.3-2.486-.706-3.678l.862-.402z" fill="#DA0C51"/><path d="M37.352 27.567c2.776-3.18 4.259-9.238.535-12.25-4.289-3.471-10.831-4.271-16.657-2.545-4.636 1.374-10.65 7.315-11.15 15.9-.5 8.587 6.599 8.723 9.83 8.178 3.232-.545 14.9-6.371 17.442-9.283z" fill="#F20D59"/><path d="M15.728 16.314c5.989.608 11.65 4.939 12.263 11.16.205 2.074.226 4.21-.103 6.24l-1.026.51c.967-5.17.143-10.96-4.208-14.305-2.213-1.7-4.971-2.617-7.779-2.722l.016-.018.837-.865z" fill="#DA0C51"/><path d="M14.22 17.875l.13.046c4.724 2.003 6.738 7.935 6.862 12.645.054 2.038-.129 4.072-.62 6.06l-.65.18-.328.038.039-.264c1.619-6.59.908-14.685-5.284-17.63a4.261 4.261 0 0 1-.67-.378l.437-.598.083-.1zm-1.168 1.647c2.884 4.378 3.69 10.348 2.246 15.318-.178.61-.404 1.254-.775 1.763a6.786 6.786 0 0 1-.934-.386c1.009-1.168 1.157-2.974 1.226-4.706.154-3.85-.47-7.99-2.311-11.1l.13-.238.418-.651zm4.797-4.976l1.702-.052c1.117.006 2.233.057 3.342.182.36.04.721.09 1.08.147 4.365.697 8.794 3.281 10.098 8.011.635 2.303.55 4.8.27 7.184l-.377.263-.576.347-.017-.273c.505-4.335.375-9.28-3.426-12.218-3.79-2.928-8.938-2.9-13.359-2.616l-.02.002c.425-.362.856-.692 1.283-.977z" fill="#DA0C51"/><path d="M26.102 11.893c4.964.46 9.882 2.57 11.979 7.302.937 2.115 1.02 4.537.4 6.796a9.424 9.424 0 0 1-1.084 1.524l-.552.552c-.039-.139-.015-.325.102-.57 1.743-3.748 1.168-8.346-2.295-11.34-3.829-3.31-9.349-3.813-14.049-3.2l.673-.237a20.497 20.497 0 0 1 4.826-.827z" fill="#DA0C51"/><path d="M28.284 73.503a3.506 3.506 0 0 0 3.51-3.504 3.507 3.507 0 0 0-3.51-3.503 3.507 3.507 0 0 0-3.51 3.503 3.507 3.507 0 0 0 3.51 3.504z" fill="#fff"/><path d="M39.597 48.955c3.43-1.797 8.033.201 10.273 4.46s1.273 9.176-2.157 10.973c-3.43 1.798-8.034-.2-10.273-4.46-2.24-4.258-1.274-9.175 2.157-10.973z" fill="#F5FBFC"/><path d="M41.763 54.177c.878-.501 2.224.197 3.005 1.56.78 1.361.702 2.874-.176 3.375-.878.502-2.225-.197-3.005-1.558-.781-1.362-.703-2.875.176-3.377z" fill="#26ACD8"/><path d="M56.99 45.07c3.155-1.426 7.315.938 9.283 5.276 1.967 4.338 1.002 9.018-2.153 10.445-3.156 1.426-7.316-.938-9.283-5.276-1.968-4.339-1.003-9.019 2.153-10.445z" fill="#F5FBFC"/><path d="M57.93 50.475c.743-.382 1.89.362 2.56 1.661.67 1.299.61 2.663-.133 3.046-.743.382-1.891-.362-2.56-1.661-.671-1.3-.611-2.664.132-3.046z" fill="#26ACD8"/><path d="M59.017 44.655c4.933.094 8.949 6.015 8.2 11.464-.346 2.511-2.224 5.074-5.031 5.087-4.99.022-9.074-6.135-8.268-11.556.364-2.45 2.084-4.914 4.938-4.994l.16-.001zm-.142.932c-2.51.07-4.143 2.936-4.118 5.47.052 5.596 6.118 12.057 10.084 8.124 3.981-3.95.007-13.667-5.966-13.594z" fill="#66C5E4"/><path d="M53.295 51.675c.964 2.806 4.578 5.798 7.02 6.958 2.037.967.585 4.094-3.026 4.837" fill="#FFE6E6"/><path d="M53.367 51.155c.606.064.783 1.26 1.33 2.047 1.484 2.135 3.596 3.846 5.922 4.984 0 0 .936.498 1.103 1.41.36 1.964-1.923 3.76-4.204 4.257-.566.123-1.06-.717-.121-.928 2.27-.537 4.551-2.996 2.8-3.908-3.165-1.55-6.114-4.056-7.247-7.103-.129-.347.015-.761.417-.76z" fill="#FDB3B3"/><path d="M36.29 56.832c-.464-2.575.12-5.223 2.17-7.065 1.078-.968 2.537-1.484 3.995-1.472 3.96.087 7.053 3.415 8.185 6.95 1.415-.77 3.075-1.107 4.682-1.116.117.14.491.559.697.769-1.885 0-3.847.534-5.128 1.277.104.473.172.946.2 1.41.219 3.584-2.15 7.877-6.709 7.432-3.843-.376-6.871-3.64-7.88-7.262a3.05 3.05 0 0 1-.133.005c-1.98.023-3.883.229-5.82.652-.014-.004-.412-.393-.828-.683 1.278-.459 4.39-.847 6.569-.897zm6-7.606a4.981 4.981 0 0 0-3.991 2.13c-2.425 3.517-.739 9.161 3.17 11.65 2.337 1.489 5.796 1.604 7.606-1.02 3.17-4.598-.73-12.628-6.634-12.76h-.151z" fill="#66C5E4"/><path d="M45.48 67.536c4.796.6 8.243.647 12.407.26-.67 2.973-2.84 5.464-6.527 5.353-3.536-.107-5.69-2.948-5.88-5.613z" fill="#FECDCD"/><path d="M46.32 70.14a5.805 5.805 0 0 1-.84-2.604c2.67.333 4.923.496 7.105.492l.72.32c-3.223.387-5.3 1.052-6.986 1.791z" fill="#FDB3B3"/><path d="M45.6 67.017l.663.08c3.847.446 7.76.534 11.644.179 0 0 .614.103.446.785-.968 3.788-5.048 6.585-9.072 5.09-2.254-.84-3.931-3.028-4.185-5.435-.04-.372.113-.728.505-.699zm.483 1.005c.804 4.231 7.535 6.644 10.477 1.936.4-.64.767-1.696.767-1.696a80.7 80.7 0 0 1-.687.054c-3.486.245-7.001.11-10.486-.293 0 0-.076-.025-.071-.001z" fill="#FDB3B3"/></g><path fill-rule="evenodd" clip-rule="evenodd" d="M260.476 121.661c19.383-10.941 24.392-37.34 24.538-49.24.148-12.089 3.164-21.33 4.595-24.443-2.408.822-7.588 6.43-9.658 7.987-5.117 3.847-8.442 6.066-12.372 11.212-3.393 4.442-5.625 9.526-8.792 14.094-5.681 8.197-13.879 14.168-18.944 22.908-2.498 4.311-3.539 9.456-4.889 14.204" fill="#A6E468"/><path fill-rule="evenodd" clip-rule="evenodd" d="M285.053 70.778l.056-1.345a41.615 41.615 0 0 1-11.653 7.171 167.604 167.604 0 0 1 3.436-6.618c.099-.044.194-.174.273-.436l.036-.126a248.844 248.844 0 0 1 4.553-7.883c.457-.034.973-.411 1.487-.665 1.118-.553 2.154-1.258 3.139-2.023l.289-1.439-.284.189c-1.165.909-2.377 1.748-3.71 2.411l5.877-9.468c.379-1.137.74-2.034 1.033-2.673l-.832.42-.849 1.372c-3.426 5.497-6.86 10.954-10.061 16.57.441-3.155.47-6.443 1.183-9.666l.006-.038-1.199.898-.003.019c-.64 3.863-.516 7.886-1.583 11.64a156.453 156.453 0 0 0-4.214 8.207.45.45 0 0 0-.049.102c-.259.545-.513 1.093-.765 1.644-1.087 2.384-2.159 4.786-3.257 7.176.072-6.1-2.146-12.212-1.125-18.15l-.504.7-.676 1.034c-.371 6.21 1.97 12.83 1.112 18.927 0 0-.004.024-.005.061-4.847 10.256-10.464 20.062-20.164 26.896 0 0-.311.102-.198.538.212.827 1.694-.337 2.922-1.315 2.085-1.659 3.985-3.511 5.734-5.506l.031-.001c5.658-.698 11.314-1.64 16.342-4.417.032-.017.281-.05.381-.403.085-.483-.302-.786-1.131-.338-4.48 2.387-9.586 3.36-14.654 4.021a61.306 61.306 0 0 0 3.615-4.859c.133-.023.292-.062.481-.122 6.456-2.053 12.414-5.667 17.563-10.015 0 0 .089.003.167-.276.086-.513-.323-.905-1.247-.136-4.818 3.985-10.253 7.28-16.104 9.242 2.611-4.062 4.855-8.397 6.929-12.707.149-.053.273-.186.323-.417.017-.12.034-.24.049-.359 1.754-3.677 3.394-7.322 5.042-10.75.689-.15 1.677-.594 2.563-.995a41.417 41.417 0 0 0 9.645-6.092z" fill="#8BDC3A"/><path fill-rule="evenodd" clip-rule="evenodd" d="M226.133 74.193c-4.411-12.739-26.011-35.804-33.521-39.044-5.596 9.125-10.816 22.37-9.102 34.554 3.316.136 7.46.196 12.27.567-3.396 1.65-7.386 3.51-11.867 4.753-.442 3.875 2.095 10.697 6.282 20.696" fill="#D5F6E3"/><path fill-rule="evenodd" clip-rule="evenodd" d="M192.548 35.376c.034.384.273.867.425 1.333 1.617 4.967 4.462 9.468 5.964 14.528l.043.147c-4.343-.538-8.604-1.61-12.355-3.76l-.296.817c.624.427 1.585.886 2.428 1.258 3.257 1.438 6.783 2.156 10.338 2.582 0 0 .05-.036.118-.093.969 3.387 1.765 6.822 2.587 10.24-.075.014-.149.032-.218.047-6.003 1.224-12.407.85-18.137-1.267l-.073.905c5.918 2.113 12.604 2.473 18.617 1.17l.015-.01c.133.549.267 1.097.402 1.643 1.281 5.187 2.427 10.407 3.187 15.686-.402-.372-2.129.564-3.615 1.137a56.268 56.268 0 0 1-15.783 3.598l.144.422.164.435a57.413 57.413 0 0 0 18.92-4.956s.157-.091.225-.25c.203 1.45.378 2.905.517 4.365 0 0 .091.33.341.385.465.104.518-.626.456-1.233-.286-2.765-.7-5.502-1.2-8.227.373-.127.834-.388 1.262-.641 5.267-3.117 9.811-7.53 12.967-12.764l-.56-.778c-3.308 5.61-8.245 10.327-13.827 13.338-1.142-6.015-2.681-11.975-4.161-18.039a.505.505 0 0 0 .065-.06 35.784 35.784 0 0 0 5.872-9.788l-.662-.69c-1.314 3.426-3.183 6.607-5.529 9.49l-.014-.058c-.683-2.804-1.381-5.622-2.396-8.328-.118-.315-.24-.628-.367-.94.494-.383 1.09-1.664 1.517-2.817.373-1.01.688-2.043.902-3.097l-.346-.32-.355-.306c-.371 2.052-1.071 4.036-2.066 5.707-1.523-3.54-3.453-6.917-4.512-10.624l-.852-.453-.152.266z" fill="#A6E468"/><path fill-rule="evenodd" clip-rule="evenodd" d="M252.227 81.144l.746 2.13c3.502-1.258 8.383-3.268 10.71-5.084 1.381-1.078 2.699-2.912 1.926-4.322-.756-1.377-2.101-1.208-4.037-.672-2.155.598-4.734 2.192-7.051 4.17.814-1.8 1.569-3.623 2.279-5.459 3.737-1.768 8.298-3.56 11.601-5.874 1.474-1.033 3.497-3.04 3.68-4.943.224-2.32-2.519-2.944-4.341-2.184-2.022.845-3.993 2.017-5.556 3.613-1.025 1.048-2.208 2.349-3.274 3.53a212.673 212.673 0 0 0 1.955-6.134s.036-.096.05-.225c1.801-3.418 3.747-7.136 4.469-10.587.354-1.692.74-5.57-.779-6.843-1.775-1.485-4.446 1.577-5.066 3.248-1.738 4.688-1.186 9.729.052 14.44a201.592 201.592 0 0 1-1.824 5.717c-.509-2.364-1.134-4.546-2.177-6.026-.604-.858-1.667-1.59-2.809-.99-1.112.586-1.343 2.71-1.209 3.77.558 4.441 2.456 6.855 4.024 9.255a104.9 104.9 0 0 1-2.173 5.183c-1.052-3.023-2.962-7.169-4.881-5.5-2.127 1.849 2.026 8.17 2.46 10.807l1.225-1.02z" fill="#00988B"/><path fill-rule="evenodd" clip-rule="evenodd" d="M220.564 46.526l38.687.893-33.726-19.638-40.33-.51 35.369 19.255z" fill="#BDF3EF"/><path fill-rule="evenodd" clip-rule="evenodd" d="M220.577 46.528l-35.369-19.255-11.647 49.913 34.061 21.115 12.955-51.773z" fill="#7EE8DF"/><path fill-rule="evenodd" clip-rule="evenodd" d="M246.331 94.268l-38.732 4.018 12.954-51.772 38.687.893-12.909 46.861z" fill="#D2F7F4"/><path fill-rule="evenodd" clip-rule="evenodd" d="M246.201 47.07l-34.512-19.454-10.091-.132 33.445 19.323 11.158.262z" fill="#3BDDCE"/><path fill-rule="evenodd" clip-rule="evenodd" d="M235.045 46.807L222.148 96.75l11.363-1.178 12.692-48.507" fill="#7EE8DF"/><path fill-rule="evenodd" clip-rule="evenodd" d="M245.478 39.384l-37.567.24-9.1-4.954 38.578.003 8.089 4.71z" fill="#3BDDCE"/><path fill-rule="evenodd" clip-rule="evenodd" d="M207.911 39.588l-13.119 50.71-8.692-5.39 12.712-50.274 9.099 4.954z" fill="#26D8C8"/><path fill-rule="evenodd" clip-rule="evenodd" d="M222.178 38.556c7.053 1.23 31.662-15.202 23.499-23.7-7.746-8.064-21.566 14.228-23.499 23.7zm19.407-18.6c-1.547-2.168-10.183.617-17.884 17.397 6.244-1.404 20.149-14.219 17.884-17.396z" fill="#00B2A3"/><path fill-rule="evenodd" clip-rule="evenodd" d="M222.37 38.397c-9.236-1.423-18.543-23.643-7.576-23.848 7.515-.14 9.6 17.217 7.576 23.848zm-7.585-18.892c1.382.145 7.569 5.678 7.021 17.588-6.263-3.268-11.701-18.077-7.021-17.588z" fill="#00B2A3"/><path fill-rule="evenodd" clip-rule="evenodd" d="M160.868 102.589l-.811-46.075-32.118-8.506 3.939 40.998 28.99 13.583z" fill="#FF9ABB"/><path fill-rule="evenodd" clip-rule="evenodd" d="M190.616 85.83l-29.786 16.762-.811-46.075 31.04-12.563-.443 41.876z" fill="#FFCADC"/><path fill-rule="evenodd" clip-rule="evenodd" d="M191.048 43.805l-31.157-8.012-32 12.07 32.117 8.506 31.04-12.564z" fill="#FF98BA"/><path fill-rule="evenodd" clip-rule="evenodd" d="M159.994 56.358l.224 12.739-31.283-10.183-1.059-11.062 32.118 8.507z" fill="#FF82AB"/><path fill-rule="evenodd" clip-rule="evenodd" d="M160.011 56.356l31.034-12.663-.112 11.335-30.69 14.187-.232-12.859z" fill="#FFB2CB"/><path fill-rule="evenodd" clip-rule="evenodd" d="M178.401 40.609l-29.308 12.924-9.32-2.468 29.602-12.777 9.026 2.32z" fill="#F69"/><path fill-rule="evenodd" clip-rule="evenodd" d="M149.128 53.534l.354 17.798-4.818-5.217-3.761 1.972-1.095-17.022 9.32 2.469z" fill="#F37"/><path fill-rule="evenodd" clip-rule="evenodd" d="M141.058 42.905l29.004 9.404.637 17.998 4.969-5.891 4.268 1.379-.484-17.286-28.807-9.22-9.587 3.616z" fill="#F69"/><path fill-rule="evenodd" clip-rule="evenodd" d="M158.525 45.915c-4.438.804-20.307-12.304-15.303-18.67 4.75-6.04 13.904 11.356 15.303 18.67zm-12.62-14.67c.938-1.636 6.452.675 11.634 13.715-3.975-1.201-13.008-11.32-11.634-13.716zm12.641 14.288c9.515-.134 20.937-25.774 9.805-27.939-7.628-1.483-11.279 19.45-9.805 27.94zm9.377-21.856c-1.418-.064-8.195 5.646-8.69 20.354 6.657-2.917 13.492-20.139 8.69-20.354z" fill="#F53D7B"/><path fill-rule="evenodd" clip-rule="evenodd" d="M65.898 162.466c0 29.151 10.493 36.684 20.854 41.179 10.361 4.496 30.902 3.766 38.397 3.766 0 0 94.719-1.429 123.359-1.429 28.639 0 41.217-17.043 41.217-40.676v-44.864c0-30.502-11.537-44.158-60.966-42.62" fill="#D6EDF5"/><path d="M246.245 198.583h-.009l.009.5-.008-.446-.002-.054h-.017l-.055.001-.218.004-.854.015-3.268.054a15947.771 15947.771 0 0 1-49.826.75c-28.887.387-61.29.727-75.39.534-14.095-.193-26.742-1.962-35.86-7.967-9.072-5.973-14.741-16.203-14.741-33.561v-40.998c0-16.335 3.512-26.519 11.816-32.402 8.353-5.917 21.685-7.59 41.63-6.493 14.326.79 54.233.43 82.486.177 10.577-.095 19.52-.176 24.877-.176 19.348 0 33.933 1.513 43.681 7.115 4.856 2.79 8.513 6.597 10.962 11.758 2.453 5.17 3.707 11.724 3.707 20.021 0 5.159.025 10.247.049 15.291.048 9.956.096 19.739-.049 29.565-.201 13.734-4.342 22.776-11.162 28.399-6.837 5.638-16.455 7.913-27.758 7.913z" fill="#fff" stroke="#D6EDF5"/><rect y="221.094" width="289.725" height="43.907" rx="21.953" fill="#F20D59"/><path d="M58.842 238.694l-1.476 3.672-1.644-3.672h-1.92l2.688 5.772c-.324.588-.804.912-1.68.828v1.8c1.572.084 2.784-.66 3.528-2.472l2.424-5.928h-1.92zm4.623 8.568c1.176 0 2.196-.612 2.712-1.548l-1.572-.9c-.192.42-.636.672-1.164.672-.78 0-1.356-.564-1.356-1.392s.576-1.392 1.356-1.392c.528 0 .96.252 1.164.672l1.572-.912c-.516-.924-1.548-1.536-2.712-1.536-1.824 0-3.18 1.38-3.18 3.168 0 1.788 1.356 3.168 3.18 3.168zm8.598-6.168h-4.896v3.396c0 .744-.3 1.092-.864.924v1.68c1.752.204 2.664-.672 2.664-2.484v-1.788h1.296v4.272h1.8v-6zm4.2 6.168c1.763 0 3.18-1.38 3.18-3.168 0-1.788-1.417-3.168-3.18-3.168-1.765 0-3.18 1.38-3.18 3.168 0 1.788 1.415 3.168 3.18 3.168zm0-1.752c-.78 0-1.38-.564-1.38-1.416s.6-1.416 1.38-1.416c.78 0 1.38.564 1.38 1.416s-.6 1.416-1.38 1.416zm8.673-1.488c.372-.276.564-.696.564-1.212 0-.996-.708-1.716-2.04-1.716h-3v6h3.24c1.332 0 2.04-.72 2.04-1.716 0-.612-.288-1.08-.804-1.356zm-1.668-1.488c.324 0 .528.132.528.432 0 .288-.204.408-.528.408H82.14v-.84h1.128zm.192 3.072h-1.32v-.864h1.32c.312 0 .528.132.528.42 0 .3-.216.444-.528.444zm7.496-4.512l-2.568 3v-3h-1.752v6h1.32l2.568-3v3h1.752v-6h-1.32zm7.621 0H95.65c-1.452 0-2.232 1.08-2.232 2.136 0 .744.42 1.512 1.164 1.884l-1.404 1.98h2.04l1.236-1.728h.372v1.728h1.752v-6zm-2.772 1.584h1.02v1.2h-1.02c-.384 0-.636-.216-.636-.588 0-.384.252-.612.636-.612zm12.737-1.584h-5.64v6h1.8v-4.32h2.04v4.32h1.8v-6zm4.909-.168c-.804 0-1.392.276-1.788.732v-.564h-1.8v8.4h1.8v-2.964c.396.456.984.732 1.788.732 1.572 0 2.868-1.38 2.868-3.168 0-1.788-1.296-3.168-2.868-3.168zm-.36 4.632c-.828 0-1.428-.564-1.428-1.464s.6-1.464 1.428-1.464 1.428.564 1.428 1.464-.6 1.464-1.428 1.464zm7.128 1.704c1.764 0 3.18-1.38 3.18-3.168 0-1.788-1.416-3.168-3.18-3.168-1.764 0-3.18 1.38-3.18 3.168 0 1.788 1.416 3.168 3.18 3.168zm0-1.752c-.78 0-1.38-.564-1.38-1.416s.6-1.416 1.38-1.416c.78 0 1.38.564 1.38 1.416s-.6 1.416-1.38 1.416zm8.398-4.416h-4.2v6h1.8v-4.272h2.4v-1.728zm4.369-.168c-.804 0-1.392.276-1.788.732v-.564h-1.8v8.4h1.8v-2.964c.396.456.984.732 1.788.732 1.572 0 2.868-1.38 2.868-3.168 0-1.788-1.296-3.168-2.868-3.168zm-.36 4.632c-.828 0-1.428-.564-1.428-1.464s.6-1.464 1.428-1.464 1.428.564 1.428 1.464-.6 1.464-1.428 1.464zm8.604-4.464v.564c-.396-.456-.984-.732-1.788-.732-1.572 0-2.868 1.38-2.868 3.168 0 1.788 1.296 3.168 2.868 3.168.804 0 1.392-.276 1.788-.732v.564h1.8v-6h-1.8zm-1.428 4.464c-.828 0-1.428-.564-1.428-1.464s.6-1.464 1.428-1.464 1.428.564 1.428 1.464-.6 1.464-1.428 1.464zm10.909-4.464h-1.728l-1.452 2.268-1.452-2.268h-1.728v6h1.728v-3.096l1.344 2.088h.216l1.344-2.088v3.096h1.728v-6zm7.676 0h-1.728l-1.452 2.268-1.452-2.268h-1.728v6h1.728v-3.096l1.344 2.088h.216l1.344-2.088v3.096h1.728v-6zm4.124 1.8h-1.008v-1.8h-1.8v6h2.808c1.452 0 2.352-.84 2.352-2.1 0-1.26-.9-2.1-2.352-2.1zm2.952-1.8v6h1.8v-6h-1.8zm-2.94 4.44h-1.02v-1.08h1.02c.36 0 .588.228.588.54 0 .312-.228.54-.588.54zm14.282-4.44h-4.896v3.396c0 .744-.3 1.092-.864.924v1.68c1.752.204 2.664-.672 2.664-2.484v-1.788h1.296v4.272h1.8v-6zm4.199 6.168c1.764 0 3.18-1.38 3.18-3.168 0-1.788-1.416-3.168-3.18-3.168-1.764 0-3.18 1.38-3.18 3.168 0 1.788 1.416 3.168 3.18 3.168zm0-1.752c-.78 0-1.38-.564-1.38-1.416s.6-1.416 1.38-1.416c.78 0 1.38.564 1.38 1.416s-.6 1.416-1.38 1.416zm8.944-4.416h-2.928c-1.452 0-2.232 1.08-2.232 2.136 0 .744.42 1.512 1.164 1.884l-1.404 1.98h2.04l1.236-1.728h.372v1.728h1.752v-6zm-2.772 1.584h1.02v1.2h-1.02c-.384 0-.636-.216-.636-.588 0-.384.252-.612.636-.612zm9.317-1.584h-4.896v3.396c0 .744-.3 1.092-.864.924v1.68c1.752.204 2.664-.672 2.664-2.484v-1.788h1.296v4.272h1.8v-6zm4.127 1.8h-1.008v-1.8h-1.8v6h2.808c1.452 0 2.352-.84 2.352-2.1 0-1.26-.9-2.1-2.352-2.1zm.012 2.64h-1.02v-1.08h1.02c.36 0 .588.228.588.54 0 .312-.228.54-.588.54zm7.079-4.44v2.16h-2.04v-2.16h-1.8v6h1.8v-2.16h2.04v2.16h1.8v-6h-1.8zm6.001 6.168c1.764 0 3.18-1.38 3.18-3.168 0-1.788-1.416-3.168-3.18-3.168-1.764 0-3.18 1.38-3.18 3.168 0 1.788 1.416 3.168 3.18 3.168zm0-1.752c-.78 0-1.38-.564-1.38-1.416s.6-1.416 1.38-1.416c.78 0 1.38.564 1.38 1.416s-.6 1.416-1.38 1.416zm7.078 1.752c1.176 0 2.196-.612 2.712-1.548l-1.572-.9c-.192.42-.636.672-1.164.672-.78 0-1.356-.564-1.356-1.392s.576-1.392 1.356-1.392c.528 0 .96.252 1.164.672l1.572-.912c-.516-.924-1.548-1.536-2.712-1.536-1.824 0-3.18 1.38-3.18 3.168 0 1.788 1.356 3.168 3.18 3.168zm8.296-6.168h-5.4v1.728h1.812v4.272h1.8v-4.272h1.788v-1.728zm5.097 0l-2.568 3v-3h-1.752v6h1.32l2.568-3v3h1.752v-6h-1.32z" fill="#fff"/></svg>