<svg xmlns="http://www.w3.org/2000/svg" width="290" height="329" fill="none"><path fill-rule="evenodd" clip-rule="evenodd" d="M150.398 92.527V328.53h138.967V71.243H178.061l-27.663 21.284z" fill="#fff"/><path fill-rule="evenodd" clip-rule="evenodd" d="M289.68 70.716l.321.462v257.286c-.153.738-.52.499-.52.499H150.515c-.769-.147-.519-.499-.519-.499V92.462c.015-.096.007-.196.194-.39l27.664-21.284a.7.7 0 0 1 .324-.11h111.303l.199.038zm-111.32.961l-27.326 21.025v235.262h137.928V71.677H178.36z" fill="#FFDF80"/><path fill-rule="evenodd" clip-rule="evenodd" d="M221.514 268.375c.873 0 1.582.682 1.582 1.521v4.974h5.171c.873 0 1.582.682 1.582 1.522v3.043c0 .839-.709 1.521-1.582 1.521h-5.171v4.974c0 .84-.709 1.522-1.582 1.522h-3.165c-.873 0-1.582-.682-1.582-1.522v-4.974h-5.171c-.873 0-1.582-.682-1.582-1.521v-3.043c0-.84.709-1.522 1.582-1.522h5.171v-4.974c0-.839.709-1.521 1.582-1.521h3.165z" fill="#F20D59"/><path fill-rule="evenodd" clip-rule="evenodd" d="M150.752 92.876c7.744-4.673 20.995-4.179 27.663 0V71.243s-22.736 16.816-27.663 21.633z" fill="#FFDF80"/><path d="M.44 92.527V328.53h138.922V71.243H28.094L.44 92.527z" clip-rule="evenodd" fill-rule="evenodd" fill="#fff"/><path fill-rule="evenodd" clip-rule="evenodd" d="M139.68 70.716l.32.462v257.286c-.153.738-.519.499-.519.499H.558c-.769-.147-.52-.499-.52-.499V92.462c.042-.263.127-.32.195-.39l27.655-21.284a.705.705 0 0 1 .324-.11h111.269l.199.038zm-111.285.961L1.077 92.702v235.262h137.885V71.677H28.395z" fill="#FFDF80"/><path fill-rule="evenodd" clip-rule="evenodd" d="M.715 92.897c7.742-4.678 20.989-4.183 27.654 0V71.243S5.641 88.076.715 92.897z" fill="#FFDF80"/><path fill-rule="evenodd" clip-rule="evenodd" d="M125.754 128.714v-5.201h32.388l-4.123-4.124 3.677-3.678 10.402 10.403-10.402 10.403-3.677-3.678 4.123-4.125h-32.388z" fill="#F20D59"/><path fill-rule="evenodd" clip-rule="evenodd" d="M222.703 35.837c8.793-7.429 15.321-13.229 23.641-21.161 2.039-1.944 8.854-7.96 11.85-7.554 5.766.781.41 12.274-.949 14.644-8.36 14.577-12.342 22.69-27.38 32.01" fill="#D5F6E3"/><path fill-rule="evenodd" clip-rule="evenodd" d="M243.559 30.604c5.165-3.58 20.231-2.907 25.359-.307-2.456 7.218-18.123 19.978-25.954 19.837" fill="#A6E468"/><path fill-rule="evenodd" clip-rule="evenodd" d="M268.986 30.301l-.199.514-8.071 3.16c.44.314.608.537.904.768.982.764 2.013 1.485 3.118 2.002l-.517.558-1.003-.555a22.222 22.222 0 0 1-1.953-1.367c-.542-.419-1.316-1.06-1.316-1.06a.656.656 0 0 1-.03-.032 621.69 621.69 0 0 0-7.257 2.91 23.552 23.552 0 0 0 5.521 5.65l-.159.13-.451.339-.171-.122c-2.119-1.584-3.939-3.544-5.423-5.716-2.919 1.2-5.82 2.43-8.675 3.711l.025-.806a308.18 308.18 0 0 1 8.392-3.58 1.86 1.86 0 0 1 .032-.285c.575-2.957 1.47-5.911 3.139-8.368l.852-.009-.46.708c-1.448 2.291-2.26 4.948-2.789 7.636a640.806 640.806 0 0 1 7.368-2.953c.574-1.83 1.662-3.47 2.993-4.892l.731.107.114.022-.176.188c-1.177 1.229-2.173 2.65-2.775 4.226 2.442-.962 4.888-1.914 7.331-2.87l.494-.192.411.178z" fill="#8BDC3A"/><path fill-rule="evenodd" clip-rule="evenodd" d="M243.804 11.754c.252-2.124.568-3.715 1.301-5.831 1.024-2.951 2.993-4.73 4.302-4 1.387.774.25 4.61-.773 6.009-.475.65-1.631 1.954-4.077 3.899a47.966 47.966 0 0 1-1.723 3.51c1.409-.196 2.805-.477 4.22-.637 1.456-.164 3.145-.35 4.491.36 1.296.685 1.267 2.096-.102 2.8-.834.43-2.767.785-3.693.851-2.222.158-4.043.003-6.506-.613a91.059 91.059 0 0 1-3.373 5.096c2.425-.51 8.434-.985 9.272.381 1.321 2.151-1.944 2.948-3.08 3.2-.916.203-3.869.657-8.519.405l-.207.46a36.64 36.64 0 0 1-.197-.483 45.328 45.328 0 0 1-.336-.022l.216-.28c-1.362-3.452-1.753-5.608-2.41-8.196-.119-.467-.698-3.807-.385-5.253.373-1.73 1.916-1.915 2.81-.447.976 1.601 2.069 5.34 2.617 9.28a89.975 89.975 0 0 0 3.029-4.61 56.018 56.018 0 0 1-1.574-6.743c-.166-.963-.677-5.262.66-5.812 1.036-.426 1.999 3.55 2.161 4.183.317 1.245.489 3.713.543 5.23a45.07 45.07 0 0 0 1.333-2.737z" fill="#00988B"/><path d="M178.611 38.387c0-9.342 7.577-16.914 16.923-16.914h35.73c9.346 0 16.922 7.572 16.922 16.914 0 9.341-7.576 16.914-16.922 16.914h-35.73c-9.346 0-16.923-7.573-16.923-16.914z" fill="#FFF8E4"/><path fill-rule="evenodd" clip-rule="evenodd" d="M178.111 38.387c0-9.618 7.801-17.414 17.423-17.414h35.73c9.622 0 17.422 7.796 17.422 17.414 0 9.617-7.8 17.414-17.422 17.414h-35.73c-9.622 0-17.423-7.797-17.423-17.414zm17.423-16.415c-9.07 0-16.423 7.35-16.423 16.415S186.464 54.8 195.534 54.8h35.73c9.07 0 16.422-7.349 16.422-16.414 0-9.066-7.352-16.415-16.422-16.415h-35.73z" fill="#FFDF80"/><path fill-rule="evenodd" clip-rule="evenodd" d="M129.837 170.743c0-1.28-.898-2.32-2.005-2.32H12.794c-1.106 0-2.005 1.04-2.005 2.32v41.774c0 1.281.899 2.32 2.005 2.32h115.038c1.107 0 2.005-1.039 2.005-2.32v-41.774zm0 53.871c0-.979-.898-1.773-2.005-1.773H12.794c-1.106 0-2.005.794-2.005 1.773v31.926c0 .979.899 1.774 2.005 1.774h115.038c1.107 0 2.005-.795 2.005-1.774v-31.926zm149.114-53.871c0-1.28-.899-2.32-2.006-2.32H161.907c-1.106 0-2.005 1.04-2.005 2.32v41.774c0 1.281.899 2.32 2.005 2.32h115.038c1.107 0 2.006-1.039 2.006-2.32v-41.774zm0 53.871c0-.979-.899-1.773-2.006-1.773H161.907c-1.106 0-2.005.794-2.005 1.773v31.926c0 .979.899 1.774 2.005 1.774h115.038c1.107 0 2.006-.795 2.006-1.774v-31.926z" fill="#FFF8E4"/><defs id="defs245"><linearGradient id="paint0_linear" x1="215.342" y1="121.145" x2="219.931" y2="121.145" gradientUnits="userSpaceOnUse"><stop stop-color="#FF6599" id="stop196"/><stop offset=".52" stop-color="#FF6E7B" id="stop198"/><stop offset="1" stop-color="#FF8C1A" id="stop200"/></linearGradient><linearGradient id="paint1_linear" x1="206.977" y1="109.339" x2="231.599" y2="109.298" gradientUnits="userSpaceOnUse"><stop stop-color="#FF98BA" id="stop203"/><stop offset=".52" stop-color="#FF9594" id="stop205"/><stop offset="1" stop-color="#FF8C1A" id="stop207"/></linearGradient><linearGradient id="paint2_linear" x1="54.752" y1="117.707" x2="84.721" y2="117.707" gradientUnits="userSpaceOnUse"><stop stop-color="#FF6599" id="stop210"/><stop offset=".52" stop-color="#FF6E7B" id="stop212"/><stop offset="1" stop-color="#FF8C1A" id="stop214"/></linearGradient><linearGradient id="paint3_linear" x1="60.73" y1="124.579" x2="78.487" y2="124.272" gradientUnits="userSpaceOnUse"><stop stop-color="#FF98BA" id="stop217"/><stop offset=".52" stop-color="#FF9594" id="stop219"/><stop offset="1" stop-color="#FF8C1A" id="stop221"/></linearGradient><linearGradient id="paint4_linear" x1="66.709" y1="118.302" x2="72.712" y2="118.302" gradientUnits="userSpaceOnUse"><stop stop-color="#FF6599" id="stop224"/><stop offset=".52" stop-color="#FF6E7B" id="stop226"/><stop offset="1" stop-color="#FF8C1A" id="stop228"/></linearGradient><linearGradient id="paint5_linear" x1="72.6" y1="118.302" x2="66.597" y2="118.302" gradientUnits="userSpaceOnUse"><stop stop-color="#FF8C1A" id="stop231"/><stop offset=".48" stop-color="#FF9594" id="stop233"/><stop offset="1" stop-color="#FF98BA" id="stop235"/></linearGradient><linearGradient id="paint6_linear" x1="54.752" y1="115.998" x2="83.347" y2="119.197" gradientUnits="userSpaceOnUse"><stop stop-color="#FF98BA" id="stop238"/><stop offset=".52" stop-color="#FF9594" id="stop240"/><stop offset="1" stop-color="#FF8C1A" id="stop242"/></linearGradient></defs></svg>