<svg width="172" height="167" fill="none" xmlns="http://www.w3.org/2000/svg"><path d="M162 77.762c0 42.031-34.028 76.101-76 76.101s-76-34.07-76-76.1C10 35.731 44.028 1.661 86 1.661s76 34.07 76 76.1z" stroke="#F6F6F6" stroke-width="2"/><path d="M85.538 137.96c32.883 0 59.539-26.691 59.539-59.616 0-32.926-26.656-59.617-59.538-59.617C52.655 18.727 26 45.418 26 78.344c0 32.925 26.656 59.616 59.538 59.616z" fill="#FA848B"/><path fill-rule="evenodd" clip-rule="evenodd" d="M43.518 155.855L12.88 166.661c1.845-10.531 5.068-19.139 5.068-19.139L0 139.791l25.466-10.48 18.052 26.544z" fill="#DF0001"/><path fill-rule="evenodd" clip-rule="evenodd" d="M40.986 151.249l2.04 4.979-9.279-2.833 7.239-2.146z" fill="#CC0001"/><path fill-rule="evenodd" clip-rule="evenodd" d="M128.482 155.855l30.639 10.806c-2.555-12.237-5.068-19.139-5.068-19.139L172 139.791l-25.466-10.48-18.052 26.544z" fill="#DF0001"/><path fill-rule="evenodd" clip-rule="evenodd" d="M131.107 151.249l-2.112 4.979 9.28-2.833-7.168-2.146z" fill="#CC0001"/><path fill-rule="evenodd" clip-rule="evenodd" d="M86 146.238c-11.306 0-24.968.864-52.614 7.378 0 0-6.194-16.083-10.533-28.087 20.023-5.278 42.097-8.044 63.146-8.044s34.986 1.469 63.148 8.044c-2.088 5.347-10.533 28.087-10.533 28.087-27.273-6.689-41.308-7.378-52.615-7.378z" fill="#F61D2A"/><path d="M39.872 140.874l-1.517-8.626c.957-.22 1.83-.399 2.614-.537.958-.168 1.718-.104 2.276.193.56.298.898.782 1.016 1.451.15.851-.068 1.553-.651 2.108l.004.025a1.87 1.87 0 0 1 1.025.56c.286.299.474.7.563 1.205.152.867-.036 1.586-.566 2.156-.523.56-1.276.928-2.26 1.101-1.148.201-1.983.322-2.504.364zm2.14-3.968l-.77.136.287 1.623c.19.018.417.003.681-.043.769-.136 1.1-.508.992-1.119-.092-.522-.489-.72-1.19-.597zm-.74-3.332a5.54 5.54 0 0 0-.612.159l.278 1.574.656-.115c.612-.109.868-.443.769-1.005a.694.694 0 0 0-.373-.522 1.106 1.106 0 0 0-.718-.091zm11.526 3.021l.978 1.383c-.222.339-.581.641-1.076.908a4.981 4.981 0 0 1-1.616.516c-1.353.196-2.512-.053-3.48-.751-.968-.716-1.55-1.746-1.747-3.09-.191-1.311.05-2.448.723-3.412.674-.963 1.732-1.55 3.176-1.76a4.616 4.616 0 0 1 1.568.026c.498.097.908.261 1.23.494l-.666 1.623c-.633-.272-1.253-.364-1.859-.276-.705.103-1.257.422-1.653.953-.39.523-.524 1.205-.403 2.043.112.763.45 1.363 1.014 1.798.56.418 1.232.571 2.011.457a3.106 3.106 0 0 0 1.8-.912zm7.108 1.927l-5.312.619-1.02-8.748 5.187-.605.218 1.874-3.187.372.18 1.537 2.812-.327.218 1.874-2.811.328.184 1.587 3.313-.386.218 1.875zm-6.407-9.857a.854.854 0 0 1 .262-.745c.208-.207.492-.33.85-.373a1.23 1.23 0 0 1 .838.182.87.87 0 0 1 .412.662c.037.316-.043.583-.241.8a1.196 1.196 0 0 1-.773.382c-.358.041-.663-.019-.915-.179-.25-.161-.395-.404-.433-.729zm2.887-.336a.857.857 0 0 1 .269-.747c.212-.207.493-.33.843-.371.316-.037.596.024.838.181a.88.88 0 0 1 .413.662c.037.316-.042.583-.236.8-.195.217-.454.344-.78.382-.358.041-.662-.017-.913-.179-.251-.16-.396-.404-.434-.728zm6.482 9.727l-.71-8.729c.974-.13 1.859-.227 2.653-.291.97-.079 1.719.056 2.248.404.529.348.821.861.877 1.538.069.861-.212 1.541-.845 2.038l.003.025c.386.112.71.33.967.653.258.325.408.742.45 1.252.07.878-.184 1.576-.764 2.095-.574.509-1.358.804-2.352.885-1.162.095-2.005.138-2.527.13zm2.497-3.75l-.777.063.133 1.643c.189.035.416.041.683.02.778-.063 1.142-.405 1.092-1.024-.043-.526-.42-.76-1.13-.702zm-.427-3.387a5.44 5.44 0 0 0-.623.101l.13 1.592.664-.054c.62-.05.905-.359.86-.928a.692.692 0 0 0-.323-.554c-.195-.127-.432-.179-.708-.157zm7.087 6.471l-2.011.099-.435-8.797 2.01-.099.19 3.833 2.689-3.976 2.413-.118-3.105 4.222 3.803 4.561-2.55.126-3.212-4.036.208 4.185z" fill="#fff"/><path d="M85.198 137.092l-2.013.041-.14-6.919-1.938.039-.155 1.665c-.146 1.53-.371 2.703-.677 3.519-.308.816-.687 1.35-1.14 1.603-.45.252-1.043.323-1.775.212l-.004-2.014a.994.994 0 0 0 .46-.016c.121-.04.25-.146.39-.316.139-.18.263-.446.374-.8.244-.761.415-2.073.512-3.938l.09-1.763 5.837-.119.179 8.806zm3.454.04l-2.013-.051.225-8.805 2.012.051-.086 3.372 1.107.028c.245-1.051.757-1.885 1.537-2.504.78-.634 1.74-.937 2.88-.908 1.359.035 2.446.477 3.264 1.33.818.834 1.209 1.947 1.174 3.339-.034 1.325-.486 2.409-1.354 3.251-.869.825-1.974 1.221-3.315 1.187-1.108-.028-2.06-.384-2.856-1.067-.797-.683-1.268-1.598-1.415-2.743l-1.07-.026-.09 3.546zm3.257-4.322c-.02.755.195 1.394.643 1.918.448.522.996.793 1.642.809.779.02 1.373-.205 1.778-.672.407-.468.62-1.113.642-1.935.02-.805-.178-1.456-.593-1.954-.415-.497-.98-.755-1.692-.773-.68-.017-1.247.216-1.704.7-.458.483-.696 1.119-.716 1.907zm12.8-4.31l2.008.131-.57 8.789-2.009-.131.218-3.365c-.465.315-1.105.445-1.917.393-.737-.049-1.355-.313-1.858-.795-.503-.483-.722-1.21-.66-2.18l.205-3.14 2.008.13-.164 2.538c-.036.551.044.95.238 1.193.194.244.492.379.894.405.477.032.935-.094 1.373-.377l.234-3.591zm8.291 9.548l-5.323-.505.83-8.769 5.199.492-.178 1.88-3.195-.303-.145 1.541 2.817.267-.177 1.879-2.818-.267-.151 1.591 3.319.314-.178 1.88zm8.361 1.559l-1.998-.248.436-3.521-3.184-.395-.436 3.521-1.999-.248 1.085-8.741 1.999.248-.416 3.346 3.184.396.416-3.347 1.998.248-1.085 8.741zm1.849-4.629c.205-1.285.803-2.285 1.793-3.001.999-.723 2.183-.976 3.55-.757 1.358.218 2.398.805 3.119 1.762.739.96.999 2.118.781 3.477-.209 1.309-.821 2.315-1.835 3.02-1.005.704-2.174.95-3.508.737-1.35-.217-2.394-.804-3.133-1.764-.729-.958-.985-2.116-.767-3.474zm2.111.338c-.117.737.027 1.402.433 1.994.399.582.951.93 1.655 1.042.795.128 1.451-.018 1.969-.437.52-.434.841-1.033.963-1.794.126-.787-.012-1.46-.416-2.017a2.464 2.464 0 0 0-1.672-1.02c-.728-.116-1.368.032-1.919.444-.55.413-.888 1.009-1.013 1.788zM86.134 103.12L55.539 63.001l10.878-13.88h38.243L115.539 63l-29.405 40.12z" fill="#fff"/><path d="M86.134 103.12L55.539 63.001m30.595 40.119l29.405-40.119M86.134 103.12l-10.42-40.119m10.42 40.119l9.757-40.119m-40.352 0l10.878-13.88M55.539 63h20.176m-9.298-13.88h19.122m-19.122 0L75.715 63m28.945-13.88L115.539 63M104.66 49.12L95.891 63m8.769-13.88H85.539m30 13.88H95.891m0 0L85.54 49.121M95.89 63H75.715m9.824-13.88L75.715 63" stroke="#F61D2A" stroke-width="2" stroke-linecap="round" stroke-linejoin="round"/></svg>