<svg width="172" height="167" fill="none" xmlns="http://www.w3.org/2000/svg"><path d="M162 77.6c0 42.031-34.028 76.101-76 76.101s-76-34.07-76-76.1C10 35.57 44.028 1.5 86 1.5s76 34.07 76 76.1z" stroke="#F6F6F6" stroke-width="2"/><path d="M85.538 137.798c32.883 0 59.539-26.691 59.539-59.616s-26.656-59.616-59.538-59.616C52.655 18.566 26 45.256 26 78.182c0 32.925 26.656 59.616 59.538 59.616z" fill="#FA848B"/><path fill-rule="evenodd" clip-rule="evenodd" d="M43.518 155.693L12.88 166.5c1.845-10.532 5.068-19.139 5.068-19.139L0 139.63l25.466-10.48 18.052 26.543z" fill="#DF0001"/><path fill-rule="evenodd" clip-rule="evenodd" d="M40.986 151.087l2.04 4.979-9.279-2.833 7.239-2.146z" fill="#CC0001"/><path fill-rule="evenodd" clip-rule="evenodd" d="M128.482 155.693l30.639 10.807c-2.555-12.238-5.068-19.139-5.068-19.139L172 139.63l-25.466-10.48-18.052 26.543z" fill="#DF0001"/><path fill-rule="evenodd" clip-rule="evenodd" d="M131.107 151.087l-2.112 4.979 9.28-2.833-7.168-2.146z" fill="#CC0001"/><path fill-rule="evenodd" clip-rule="evenodd" d="M86 146.076c-11.306 0-24.968.864-52.614 7.379 0 0-6.194-16.084-10.533-28.087 20.023-5.279 42.097-8.045 63.146-8.045s34.986 1.469 63.148 8.045c-2.088 5.346-10.533 28.087-10.533 28.087-27.273-6.689-41.308-7.379-52.615-7.379z" fill="#F61D2A"/><path d="M57.24 138.554l-2.2.238-1.04-9.625 2.214-.239 3.408 3.735 2.367-4.359 2.075-.224 1.04 9.624-2.2.237-.662-6.132-2.275 4.044-.316.034-3.069-3.424.658 6.091zm16.267-1.402l-5.866.37-.608-9.662 5.727-.36.13 2.07-3.519.222.107 1.698 3.105-.196.13 2.07-3.105.196.11 1.753 3.658-.231.13 2.07zm2.932 1.85l-2.074.052-.092-3.733 1.037-.026c.267-.375.531-1.059.793-2.053.27-1.012.425-2.228.463-3.649l.035-1.938 6.318-.155.188 7.603 1.313-.032.093 3.732-2.074.052-.04-1.66-6.002.149.041 1.658zm2.357-9.325l-.112 1.634a12.577 12.577 0 01-.384 2.389c-.202.789-.387 1.301-.557 1.536l3.151-.078-.136-5.531-1.962.05zm13.699 1.617l-4.412 5.924-1.936-.04.204-9.678 2.211.046-.126 6.014 4.413-5.924 1.935.041-.202 9.678-2.213-.047.126-6.014zm11.253-3.332l2.222.143-3.718 7.161c-.39.76-.825 1.312-1.305 1.655-.479.343-1.036.495-1.671.454a2.852 2.852 0 01-.82-.185c-.28-.106-.484-.218-.616-.338l.895-1.827c.228.172.448.265.66.278.359.024.607-.09.743-.34l.143-.281-3.709-7.182 2.498.161 2.414 4.894 2.264-4.593zm5.159 10.562l-2.199-.244 1.068-9.622 2.213.246 2.518 4.385 3.255-3.743 2.075.23-1.068 9.621-2.198-.244.68-6.131-3.097 3.456-.316-.035-2.255-4.008-.676 6.089zM54 51.306l18.202 12.775L85.706 45.5l12.918 18.58L118 51.308 105.974 90.79l-1.574 5.167a5 5 0 01-4.783 3.543h-28.32a5 5 0 01-4.815-3.65l-1.418-5.06L54 51.306z" fill="#fff"/><path d="M65.064 90.79l1.418 5.06a5 5 0 004.814 3.65h28.321a5 5 0 004.783-3.543l1.574-5.167m-40.91 0L54 51.306l18.202 12.775L85.706 45.5l12.918 18.58L118 51.308 105.974 90.79m-40.91 0h40.91" stroke="#F61D2A" stroke-width="2" stroke-linecap="round" stroke-linejoin="round"/><path d="M91.752 75.694c0 3.285-2.696 5.967-6.046 5.967s-6.046-2.682-6.046-5.967c0-3.286 2.696-5.968 6.046-5.968s6.046 2.682 6.046 5.968z" stroke="#F61D2A" stroke-width="2"/><ellipse cx="100.385" cy="77.435" rx="2.936" ry="2.903" fill="#F61D2A"/><ellipse cx="71.028" cy="77.435" rx="2.936" ry="2.903" fill="#F61D2A"/></svg>