<svg width="172" height="166" fill="none" xmlns="http://www.w3.org/2000/svg"><path d="M162 77.1c0 42.031-34.028 76.101-76 76.101s-76-34.07-76-76.1C10 35.07 44.028 1 86 1s76 34.07 76 76.1z" stroke="#F6F6F6" stroke-width="2"/><path d="M85.538 137.298c32.883 0 59.539-26.691 59.539-59.616s-26.656-59.616-59.538-59.616C52.655 18.066 26 44.756 26 77.682c0 32.925 26.656 59.616 59.538 59.616z" fill="#FA848B"/><path fill-rule="evenodd" clip-rule="evenodd" d="M86.152 42.538c1.768 0 2.554.943 3.066 2.026l7.174 16.905s14.61 1.101 18.663 1.466c1.283.116 2.581.66 3.09 2.52.338 1.236-.252 2.645-1.214 3.388-3.058 2.367-14.158 11.89-14.158 11.89l4.319 17.75s.286 1.673-.586 2.824c-.993 1.309-2.573 1.819-4.358.847l-15.996-9.577s-13.826 8.355-15.996 9.577c-1.101.62-2.455.951-3.94-.248-.985-.797-1.262-2.265-1.003-3.424.39-1.738 4.32-17.75 4.32-17.75s-10.99-9.248-14.16-11.889c-.994-.827-1.756-2.433-1.167-3.877.589-1.446 1.838-1.91 3.044-2.03 3.316-.336 18.663-1.467 18.663-1.467l7.174-16.905s.725-2.026 3.065-2.026z" fill="#fff" stroke="#F61D2A" stroke-width="2" stroke-linecap="round" stroke-linejoin="round"/><path fill-rule="evenodd" clip-rule="evenodd" d="M43.518 155.193L12.88 166c1.845-10.532 5.068-19.139 5.068-19.139L0 139.13l25.466-10.48 18.052 26.543z" fill="#DF0001"/><path fill-rule="evenodd" clip-rule="evenodd" d="M40.986 150.587l2.04 4.979-9.279-2.833 7.239-2.146z" fill="#CC0001"/><path fill-rule="evenodd" clip-rule="evenodd" d="M128.482 155.193L159.121 166c-2.555-12.238-5.068-19.139-5.068-19.139L172 139.13l-25.466-10.48-18.052 26.543z" fill="#DF0001"/><path fill-rule="evenodd" clip-rule="evenodd" d="M131.107 150.587l-2.112 4.979 9.28-2.833-7.168-2.146z" fill="#CC0001"/><path fill-rule="evenodd" clip-rule="evenodd" d="M86 145.576c-11.306 0-24.968.864-52.614 7.379 0 0-6.194-16.084-10.533-28.087 20.023-5.279 42.097-8.045 63.146-8.045s34.986 1.469 63.148 8.045c-2.088 5.346-10.533 28.087-10.533 28.087-27.273-6.689-41.308-7.379-52.615-7.379z" fill="#F61D2A"/><path d="M47.26 139.938l-1.44-11.24 6.792-.867.31 2.409-4.218.538.228 1.783c.303-.104.729-.191 1.276-.26 1.094-.141 2.015.063 2.76.61.757.546 1.203 1.343 1.338 2.392.151 1.189-.114 2.16-.797 2.917-.683.757-1.716 1.222-3.1 1.399-.57.072-1.198.136-1.889.192-.193.024-.39.047-.589.066-.2.021-.35.035-.453.042-.102.007-.174.015-.217.019zm3.047-5.203a6.747 6.747 0 00-1.066.234l.286 2.233c.522-.012.848-.027.976-.043.933-.119 1.351-.564 1.253-1.335-.048-.374-.195-.663-.44-.866-.243-.203-.58-.277-1.009-.223zm7.841 4.105l-2.602.23 3.7-11.704 2.312-.204 5.705 10.872-2.763.245-1.148-2.288-4.476.396-.728 2.453zm4.02-5.183l-1.545-3.081-.993 3.307 2.537-.226zm9.662 3.886c-1.825.093-3.216-.518-4.17-1.831l1.32-1.833c.867.874 1.739 1.29 2.614 1.246.454-.023.826-.142 1.118-.357.294-.214.43-.521.409-.921a.965.965 0 00-.496-.817c-.313-.19-.756-.27-1.328-.241l-1.038.052-.122-2.426.972-.048c.41-.021.74-.129.99-.326a.88.88 0 00.351-.779c-.018-.346-.141-.601-.372-.768-.23-.166-.54-.24-.93-.22-.777.039-1.427.466-1.949 1.282l-1.579-1.672c.36-.579.875-1.057 1.544-1.431a4.967 4.967 0 012.202-.622c1.06-.053 1.922.187 2.588.721.666.533 1.024 1.296 1.074 2.288.05.981-.385 1.808-1.304 2.481l.003.049c1.262.325 1.929 1.193 2 2.606.051 1.002-.319 1.837-1.109 2.504-.79.654-1.718 1.009-2.788 1.063zm5.517-5.811c-.015-1.672.532-3.069 1.636-4.19 1.117-1.13 2.566-1.704 4.351-1.718 1.774-.014 3.222.508 4.345 1.567 1.144 1.06 1.723 2.476 1.738 4.244.014 1.706-.548 3.113-1.687 4.224-1.126 1.109-2.56 1.672-4.301 1.686-1.763.013-3.217-.509-4.362-1.569-1.133-1.059-1.707-2.474-1.72-4.244zm2.758-.021c.007.96.333 1.772.976 2.437.633.652 1.408.976 2.328.969 1.038-.009 1.842-.334 2.41-.975.568-.664.848-1.491.84-2.484-.01-1.025-.329-1.848-.96-2.469-.644-.632-1.426-.944-2.346-.937-.952.008-1.733.333-2.344.974-.611.642-.913 1.47-.904 2.485zm11.663 5.384l.394-11.26a68.338 68.338 0 013.44.023c1.255.043 2.194.327 2.82.851.626.524.923 1.223.893 2.096-.04 1.112-.501 1.938-1.386 2.479v.032c.479.201.86.527 1.142.98.281.452.411 1.008.388 1.666-.04 1.132-.47 1.987-1.29 2.563-.81.566-1.858.826-3.146.781-1.502-.052-2.587-.122-3.255-.211zm3.759-4.42l-1.006-.035-.073 2.119c.235.074.526.116.871.128 1.006.035 1.523-.347 1.55-1.145.024-.679-.424-1.036-1.342-1.067zm-.04-4.391a6.947 6.947 0 00-.815.036l-.072 2.055.86.03c.8.028 1.212-.325 1.239-1.059a.89.89 0 00-.33-.756c-.233-.192-.527-.294-.883-.306zm17.745 10.39l-2.587-.2.877-11.299 2.589.2-.879 11.299zm-7.619-6.029a7.367 7.367 0 00-.783.02l-.223 2.873c.342.07.593.11.756.124 1.078.082 1.657-.397 1.739-1.441.036-.473-.076-.845-.337-1.114-.261-.269-.645-.423-1.152-.462zm-2.906-6.152l2.587.2-.274 3.535a7.433 7.433 0 011.007.013c1.338.103 2.334.516 2.988 1.238.655.722.935 1.685.841 2.89-.095 1.227-.581 2.18-1.459 2.859-.887.668-2.063.944-3.531.831a81.945 81.945 0 01-1.712-.149 57.948 57.948 0 00-1.326-.119l.879-11.298zm21.333 6.497l-5.872 6.361-2.253-.283 1.419-11.244 2.575.323-.882 6.987 5.872-6.36 2.254.284-1.419 11.244-2.576-.324.882-6.988zm-4.57-7.835l2.414.303c-.038.3.011.518.145.655.136.136.386.228.752.274.342.043.591.017.745-.078.154-.094.25-.297.289-.608l2.415.304c-.076.773-.46 1.356-1.153 1.747-.681.393-1.521.526-2.52.402-1.062-.133-1.868-.472-2.414-1.014-.548-.542-.773-1.204-.673-1.985z" fill="#fff"/></svg>