<svg width="32" height="32" viewBox="0 0 32 32" fill="none" xmlns="http://www.w3.org/2000/svg">
<path d="M29.4999 15.4497C29.3673 15.4497 29.2401 15.5023 29.1464 15.5961C29.0526 15.6899 28.9999 15.817 28.9999 15.9497C29.005 19.0303 27.9159 22.0127 25.9268 24.3651C23.9377 26.7176 21.1777 28.2871 18.1391 28.7941C15.1004 29.301 11.9804 28.7123 9.33537 27.133C6.69032 25.5536 4.6921 23.0863 3.69692 20.1708C2.70174 17.2553 2.77428 14.0811 3.90161 11.2141C5.02895 8.34708 7.13781 5.97359 9.85224 4.51674C12.5667 3.05989 15.7103 2.61437 18.7226 3.25958C21.735 3.90479 24.4203 5.59882 26.2999 8.03966H24.0799C23.9473 8.03966 23.8201 8.09233 23.7264 8.1861C23.6326 8.27987 23.5799 8.40705 23.5799 8.53966C23.5799 8.67226 23.6326 8.79944 23.7264 8.89321C23.8201 8.98698 23.9473 9.03966 24.0799 9.03966H27.4099C27.5349 9.04262 27.6564 8.99767 27.7493 8.91401C27.8423 8.83035 27.8997 8.7143 27.9099 8.58966L28.1999 5.29966C28.2054 5.23395 28.1978 5.16782 28.1776 5.10506C28.1574 5.04229 28.125 4.98414 28.0823 4.93396C28.0395 4.88377 27.9872 4.84253 27.9285 4.81261C27.8697 4.7827 27.8056 4.7647 27.7399 4.75966C27.6745 4.75131 27.608 4.75654 27.5447 4.77502C27.4814 4.7935 27.4226 4.82483 27.3719 4.86705C27.3212 4.90928 27.2798 4.96149 27.2502 5.02044C27.2206 5.07938 27.2035 5.1438 27.1999 5.20966L26.9999 7.33966C24.9509 4.73711 22.0455 2.94537 18.8 2.28289C15.5546 1.62041 12.1794 2.1301 9.27432 3.72137C6.36923 5.31265 4.12245 7.88242 2.9333 10.974C1.74415 14.0655 1.68967 17.4785 2.77953 20.6065C3.8694 23.7344 6.03302 26.3746 8.88584 28.0577C11.7387 29.7409 15.0959 30.3581 18.3608 29.7995C21.6257 29.241 24.5868 27.5429 26.7179 25.0071C28.8489 22.4713 30.0118 19.262 29.9999 15.9497C29.9999 15.817 29.9472 15.6899 29.8535 15.5961C29.7597 15.5023 29.6325 15.4497 29.4999 15.4497Z" fill="#101010"/>
<path d="M13.1299 15.5697C12.9975 15.8066 12.8435 16.0309 12.6699 16.2397C12.4899 16.4697 12.2799 16.7097 12.0499 16.9597L9.23991 19.9497C9.13792 20.0376 9.06185 20.1517 9.01991 20.2797C8.98035 20.3887 8.96005 20.5037 8.95991 20.6197V21.1697H15.2999V20.1697C15.3151 20.1005 15.3151 20.0288 15.2999 19.9597C15.2734 19.8887 15.2326 19.8241 15.1799 19.7697C15.1302 19.7183 15.0683 19.6804 14.9999 19.6597C14.9274 19.6446 14.8525 19.6446 14.7799 19.6597H12.3699C12.1792 19.6664 11.9889 19.6831 11.7999 19.7097C11.5999 19.7097 11.4099 19.7997 11.2099 19.8597L13.2899 17.6397C13.5299 17.3697 13.7799 17.1097 13.9999 16.8497C14.2196 16.6007 14.417 16.3331 14.5899 16.0497C14.7533 15.778 14.8874 15.4897 14.9899 15.1897C15.0979 14.8676 15.1487 14.5292 15.1399 14.1897C15.1656 13.7657 15.0937 13.3415 14.9299 12.9497C14.795 12.6222 14.5942 12.3261 14.3399 12.0797C14.077 11.8365 13.7674 11.6494 13.4299 11.5297C13.0571 11.3987 12.665 11.3311 12.2699 11.3297C11.8795 11.3293 11.4915 11.39 11.1199 11.5097C10.7718 11.6276 10.4494 11.8109 10.1699 12.0497C9.88972 12.2896 9.65878 12.5817 9.48991 12.9097C9.29785 13.2922 9.17271 13.7049 9.11991 14.1297L9.93991 14.2797C10.1047 14.3392 10.2851 14.3392 10.4499 14.2797C10.5824 14.1743 10.68 14.0314 10.7299 13.8697C10.7796 13.7084 10.8613 13.5588 10.9699 13.4297C11.051 13.2921 11.156 13.1702 11.2799 13.0697C11.4047 12.968 11.5471 12.8901 11.6999 12.8397C11.8702 12.78 12.0494 12.7495 12.2299 12.7497C12.4179 12.748 12.6045 12.7819 12.7799 12.8497C12.9394 12.8998 13.0839 12.9892 13.1999 13.1097C13.3198 13.2396 13.4117 13.3927 13.4699 13.5597C13.5394 13.7552 13.57 13.9624 13.5599 14.1697C13.5667 14.4168 13.533 14.6634 13.4599 14.8997C13.3868 15.1393 13.2754 15.3656 13.1299 15.5697Z" fill="#101010"/>
<path d="M21.8799 21.1197V18.7397H22.8499C22.9058 18.7208 22.957 18.6901 22.9999 18.6497C23.05 18.5795 23.0779 18.4959 23.0799 18.4097V17.4097H21.8799V11.4097H20.3899L15.9999 17.5297L16.1699 18.3797C16.1894 18.4807 16.2422 18.5722 16.3199 18.6397C16.3979 18.706 16.4975 18.7416 16.5999 18.7397H20.5099V21.1197H21.8799ZM17.6899 17.4497L20.5599 13.2197C20.5599 13.5897 20.5599 13.9197 20.5599 14.2197V17.4497H17.6899Z" fill="#101010"/>
</svg>
