<svg width="379" height="142" viewBox="0 0 379 142" fill="none" xmlns="http://www.w3.org/2000/svg">
<path d="M119.545 89.2089V119.028H103.536V139.322H67.7767V119.028H0V109.71L40.9571 2.65031H77.756L44.2835 89.2089H67.7767V55.6623H103.536V89.2089H119.545Z" fill="#E6E6E6"/>
<path d="M131.749 69.9506C131.749 49.1048 136.67 32.2625 146.51 19.4236C156.49 6.58479 170.558 0.165375 188.715 0.165375C206.872 0.165375 220.871 6.58479 230.712 19.4236C240.691 32.2625 245.681 49.1048 245.681 69.9506C245.681 91.0726 240.691 108.329 230.712 121.72C220.732 135.111 206.733 141.807 188.715 141.807C170.697 141.807 156.698 135.111 146.718 121.72C136.739 108.329 131.749 91.0726 131.749 69.9506ZM209.09 70.1577C209.09 57.3189 207.426 47.9314 204.1 41.9951C200.773 35.9208 195.645 32.8837 188.715 32.8837C181.785 32.8837 176.657 35.9208 173.33 41.9951C170.004 47.9314 168.34 57.3189 168.34 70.1577C168.34 96.1115 175.132 109.088 188.715 109.088C202.298 109.088 209.09 96.1115 209.09 70.1577Z" fill="#E6E6E6"/>
<path d="M378.206 89.2089V119.028H362.198V139.322H326.438V119.028H258.662V109.71L299.619 2.65031H336.418L302.945 89.2089H326.438V55.6623H362.198V89.2089H378.206Z" fill="#E6E6E6"/>
</svg>
