<svg width="32" height="32" viewBox="0 0 32 32" fill="none" xmlns="http://www.w3.org/2000/svg">
<path d="M7 13.9954C6.72386 13.9954 6.5 14.2192 6.5 14.4954C6.5 14.7715 6.72386 14.9954 7 14.9954V13.9954ZM25 14.9954C25.2761 14.9954 25.5 14.7715 25.5 14.4954C25.5 14.2192 25.2761 13.9954 25 13.9954V14.9954ZM7 8.99539C6.72386 8.99539 6.5 9.21925 6.5 9.49539C6.5 9.77153 6.72386 9.99539 7 9.99539V8.99539ZM25 9.99539C25.2761 9.99539 25.5 9.77153 25.5 9.49539C25.5 9.21925 25.2761 8.99539 25 8.99539V9.99539ZM7 18.9954C6.72386 18.9954 6.5 19.2192 6.5 19.4954C6.5 19.7715 6.72386 19.9954 7 19.9954V18.9954ZM25 19.9954C25.2761 19.9954 25.5 19.7715 25.5 19.4954C25.5 19.2192 25.2761 18.9954 25 18.9954V19.9954ZM7 23.9954C6.72386 23.9954 6.5 24.2192 6.5 24.4954C6.5 24.7715 6.72386 24.9954 7 24.9954V23.9954ZM25 24.9954C25.2761 24.9954 25.5 24.7715 25.5 24.4954C25.5 24.2192 25.2761 23.9954 25 23.9954V24.9954ZM7 14.9954H25V13.9954H7V14.9954ZM7 9.99539H25V8.99539H7V9.99539ZM7 19.9954H25V18.9954H7V19.9954ZM7 24.9954H25V23.9954H7V24.9954Z" fill="#101010"/>
</svg>
