<svg width="48" height="48" viewBox="0 0 48 48" fill="none" xmlns="http://www.w3.org/2000/svg">
<path fill-rule="evenodd" clip-rule="evenodd" d="M24 4.5C13.2304 4.5 4.5 13.2304 4.5 24C4.5 34.7696 13.2304 43.5 24 43.5C34.7696 43.5 43.5 34.7696 43.5 24C43.5 13.2304 34.7696 4.5 24 4.5ZM3.5 24C3.5 12.6782 12.6782 3.5 24 3.5C35.3218 3.5 44.5 12.6782 44.5 24C44.5 35.3218 35.3218 44.5 24 44.5C12.6782 44.5 3.5 35.3218 3.5 24Z" fill="#101010"/>
<path fill-rule="evenodd" clip-rule="evenodd" d="M14.6365 21.6567C14.8261 21.4559 15.1426 21.4469 15.3433 21.6365L24 29.8123L32.6567 21.6365C32.8574 21.4469 33.1739 21.4559 33.3635 21.6567C33.5531 21.8574 33.5441 22.1739 33.3433 22.3635L24.3433 30.8635C24.1506 31.0455 23.8494 31.0455 23.6567 30.8635L14.6567 22.3635C14.4559 22.1739 14.4469 21.8574 14.6365 21.6567Z" fill="#101010"/>
</svg>
