<svg width="24" height="24" viewBox="0 0 24 24" fill="none" xmlns="http://www.w3.org/2000/svg">
<path d="M9.47317 3.5C8.18712 3.5 7.09893 4.53448 7 5.77586C7 5.77586 7 5.77586 7 5.87931C7 6.18966 7.19785 6.39655 7.59356 6.39655C7.98927 6.39655 8.18712 6.18966 8.18712 5.87931C8.18712 5.56897 8.28605 5.15517 8.58283 4.94828C8.78068 4.74138 9.17639 4.53448 9.47317 4.53448C10.1657 4.53448 10.7592 5.15517 10.7592 5.87931C10.7592 6.39655 10.4624 6.81034 10.0667 7.01724C9.37424 7.32759 8.97854 8.05172 8.97854 8.77586V8.98276C8.97854 9.2931 9.17639 9.5 9.5721 9.5C9.96781 9.5 10.1657 9.2931 10.1657 8.98276V8.77586C10.1657 8.46552 10.3635 8.15517 10.6603 7.94828C11.8474 7.32759 12.342 5.98276 11.7485 4.74138C11.2539 4.01724 10.3635 3.5 9.47317 3.5Z" fill="white"/>
<path d="M9.6 11.6976C9.93137 11.6976 10.2 11.4289 10.2 11.0976C10.2 10.7662 9.93137 10.4976 9.6 10.4976C9.26863 10.4976 9 10.7662 9 11.0976C9 11.4289 9.26863 11.6976 9.6 11.6976Z" fill="white"/>
<path d="M10.5572 14.1504H13.8408C15.7313 14.1504 17.2239 12.5849 17.2239 10.8106V4.33979C17.2239 2.46116 15.7313 1 13.8408 1H5.38308C3.49254 1 2 2.56553 2 4.33979V10.8106C2 12.6893 3.49254 14.1504 5.38308 14.1504V19.2645L10.5572 14.1504Z" stroke="white" stroke-width="0.8" stroke-miterlimit="10" stroke-linecap="round" stroke-linejoin="round"/>
<path d="M17.3234 7.88843H19.5124C20.9055 7.88843 22 9.14085 22 10.602V15.7161C22 17.1772 20.607 18.4296 19.2139 18.4296V22.5L15.8309 18.4296H13.4428C12.0498 18.4296 10.9552 17.1772 10.9552 15.7161V14.5679" stroke="white" stroke-width="0.8" stroke-miterlimit="10" stroke-linecap="round" stroke-linejoin="round"/>
</svg>
