<?xml version="1.0" encoding="utf-8"?>
<!-- Generator: Adobe Illustrator 24.1.0, SVG Export Plug-In . SVG Version: 6.00 Build 0)  -->
<svg version="1.1" id="Capa_1" xmlns="http://www.w3.org/2000/svg" xmlns:xlink="http://www.w3.org/1999/xlink" x="0px" y="0px"
	 viewBox="0 0 480 480" style="enable-background:new 0 0 480 480;" xml:space="preserve">
<g id="Steering_Wheel-drive-car-car_Parts">
	<path d="M236.4,52.9c-103.3,0-187,83.7-187,187s83.7,187,187,187s187-83.7,187-187C423.3,136.6,339.7,53,236.4,52.9z M236.4,65.3
		c44.1,0,86.6,16.7,118.9,46.9l-26.4,26.4c-52.3-47.9-132.6-47.9-184.9,0l-26.4-26.4C149.8,82.1,192.3,65.3,236.4,65.3z
		 M161.6,252.4V281L133,309.5c-11.5-17-18.7-36.7-20.7-57.2H161.6z M111.7,239.9c0-8.4,0.8-16.7,2.5-24.9h47.4v24.9H111.7z
		 M168.3,291.9l21.4,17.1l-29.4,29.4c-7.2-5.6-13.8-11.9-19.6-18.8L168.3,291.9z M189.7,246.1l15.6,20.8v35.3h-4.1l-27.1-21.7v-34.4
		H189.7z M174.1,233.7V205l8.8-8.8h9.1l-4.7,37.4H174.1z M283.2,246.1h15.6v34.4l-27.1,21.7h-4.1v-35.3L283.2,246.1z M280.9,196.2
		h9.1l8.8,8.8v28.6h-13.2L280.9,196.2z M256.4,261.1c-0.8,1.1-1.3,2.4-1.2,3.7v37.4h-37.4v-37.4c0-1.4-0.4-2.7-1.2-3.7l-17.2-22.9
		l5.2-41.9h63.8l5.2,41.9L256.4,261.1z M201.6,314.7h69.7l30.9,30.9c-40.2,25.3-91.3,25.3-131.5,0L201.6,314.7z M283.2,309
		l21.4-17.1l27.7,27.7c-5.9,7-12.4,13.3-19.6,18.8L283.2,309z M311.2,281v-28.6h49.3c-2,20.5-9.2,40.1-20.7,57.2L311.2,281z
		 M311.2,239.9V215h47.4c1.7,8.2,2.5,16.6,2.5,24.9H311.2z M311.2,202.5c0-1.7-0.7-3.2-1.8-4.4L297,185.6c-1.2-1.1-2.8-1.8-4.4-1.8
		H180.3c-1.7,0-3.2,0.7-4.4,1.8l-12.5,12.5c-1.1,1.2-1.8,2.8-1.8,4.4h-44.1c20.6-65.7,90.6-102.2,156.3-81.6
		c38.9,12.2,69.3,42.7,81.6,81.6H311.2z M236.4,414.5c-96.3,0.1-174.5-78-174.6-174.4c0-44.2,16.7-86.8,46.9-119.1l26.4,26.4
		c-51.1,55.9-47.2,142.7,8.7,193.8s142.7,47.2,193.8-8.7c47.9-52.4,47.9-132.7,0-185.1l26.4-26.4c65.7,70.5,61.9,180.9-8.6,246.6
		C323.2,397.7,280.6,414.5,236.4,414.5z"/>
	<path d="M223.9,246.1h24.9c3.4,0,6.2-2.8,6.2-6.2v-18.7c0-3.4-2.8-6.2-6.2-6.2h-24.9c-3.4,0-6.2,2.8-6.2,6.2v18.7
		C217.7,243.3,220.5,246.1,223.9,246.1z M230.2,227.4h12.5v6.2h-12.5V227.4z"/>
</g>
</svg>
