<svg width="32" height="32" viewBox="0 0 32 32" fill="none" xmlns="http://www.w3.org/2000/svg">
<path d="M9.35355 8.35355C9.54882 8.15829 9.54882 7.84171 9.35355 7.64645C9.15829 7.45118 8.84171 7.45118 8.64645 7.64645L9.35355 8.35355ZM1 16L0.646447 15.6464C0.451184 15.8417 0.451184 16.1583 0.646447 16.3536L1 16ZM8.64645 24.3536C8.84171 24.5488 9.15829 24.5488 9.35355 24.3536C9.54882 24.1583 9.54882 23.8417 9.35355 23.6464L8.64645 24.3536ZM26 16.5C26.2761 16.5 26.5 16.2761 26.5 16C26.5 15.7239 26.2761 15.5 26 15.5V16.5ZM8.64645 7.64645L0.646447 15.6464L1.35355 16.3536L9.35355 8.35355L8.64645 7.64645ZM0.646447 16.3536L8.64645 24.3536L9.35355 23.6464L1.35355 15.6464L0.646447 16.3536ZM1 16.5H26V15.5H1V16.5Z" fill="#C6C6C6"/>
</svg>
