<svg width="32" height="32" viewBox="0 0 32 32" fill="none" xmlns="http://www.w3.org/2000/svg">
<path d="M18.7521 12.0964C19.1486 12.097 19.5386 11.9959 19.885 11.8027C20.2313 11.6095 20.5223 11.3306 20.7303 10.9926C20.9404 10.6515 21.0604 10.2624 21.0788 9.86197C21.0972 9.46158 21.0136 9.06309 20.8357 8.70401L19.1088 5.2305C19.0764 5.16375 19.0256 5.10766 18.9624 5.06884C18.8992 5.03002 18.8262 5.01008 18.7521 5.01137C18.6767 5.00951 18.6025 5.02912 18.5379 5.06792C18.4733 5.10672 18.421 5.1631 18.3872 5.2305L16.6603 8.70401C16.4828 9.06177 16.3992 9.45887 16.4173 9.85792C16.4354 10.257 16.5547 10.6448 16.764 10.985C16.9732 11.3251 17.2655 11.6064 17.6133 11.8022C17.9611 11.9981 18.353 12.1021 18.7521 12.1045V12.0964ZM17.39 9.0611L18.7521 6.318L20.0736 9.0611C20.1907 9.29384 20.2466 9.55261 20.2361 9.81299C20.2256 10.0734 20.1489 10.3268 20.0135 10.5493C19.878 10.7718 19.6881 10.9561 19.4617 11.0848C19.2353 11.2135 18.9799 11.2823 18.7196 11.2848C18.4601 11.2835 18.2052 11.2166 17.9784 11.0904C17.7516 10.9641 17.5604 10.7825 17.4224 10.5625C17.2881 10.3363 17.2146 10.0791 17.2089 9.81607C17.2032 9.55299 17.2656 9.29291 17.39 9.0611Z" fill="#101010"/>
<path d="M28.5784 17.193C28.5516 17.0882 28.4848 16.998 28.3923 16.9419C28.2999 16.8858 28.1891 16.8681 28.0838 16.8927C28.0109 16.8927 20.6411 18.6944 18.3548 18.6944C17.1062 18.6944 13.7659 16.8684 11.5607 15.6591L10.2391 14.945C10.1742 14.9095 10.1194 14.8581 10.0797 14.7957C10.04 14.7332 10.0168 14.6617 10.0121 14.5879C10.0029 14.5116 10.0146 14.4343 10.046 14.3642C10.0775 14.2941 10.1274 14.234 10.1905 14.1902C10.2432 14.1508 10.3041 14.1237 10.3686 14.1111C10.4332 14.0984 10.4998 14.1005 10.5634 14.1172L16.0198 15.5942C16.0152 15.6645 16.0152 15.735 16.0198 15.8052C16.0163 15.9653 16.0446 16.1245 16.103 16.2736C16.1615 16.4227 16.249 16.5586 16.3603 16.6736C16.5772 16.8857 16.8679 17.005 17.1711 17.0063H17.2197L20.7384 16.8197C20.7913 16.8176 20.8433 16.805 20.8912 16.7826C20.9392 16.7601 20.9822 16.7283 21.0177 16.689C21.0532 16.6497 21.0805 16.6036 21.0979 16.5536C21.1154 16.5036 21.1227 16.4506 21.1195 16.3977C21.1199 16.3432 21.1087 16.2893 21.0866 16.2395C21.0645 16.1897 21.032 16.1453 20.9912 16.1092C20.9505 16.073 20.9026 16.046 20.8506 16.03C20.7986 16.014 20.7437 16.0093 20.6898 16.0162L17.1387 16.211C17.092 16.2162 17.0448 16.21 17.0011 16.1931C16.9573 16.1761 16.9183 16.1489 16.8873 16.1136C16.8532 16.0797 16.8262 16.0392 16.8081 15.9946C16.79 15.9499 16.7811 15.9021 16.7819 15.8539C16.7835 15.7833 16.807 15.7149 16.8491 15.6582C16.8912 15.6015 16.9499 15.5593 17.017 15.5374C17.5927 15.3589 18.5332 15.018 19.5709 14.6528C20.6087 14.2876 21.5329 13.9549 22.4086 13.6627C24.6138 12.9242 28.0838 13.5978 28.0838 13.6059C28.1371 13.6165 28.1919 13.6166 28.2451 13.606C28.2984 13.5955 28.3491 13.5746 28.3942 13.5444C28.4394 13.5143 28.4782 13.4755 28.5084 13.4304C28.5386 13.3852 28.5597 13.3345 28.5703 13.2812C28.5809 13.228 28.581 13.1731 28.5705 13.1198C28.5599 13.0665 28.539 13.0158 28.5089 12.9705C28.4788 12.9253 28.4401 12.8865 28.395 12.8563C28.3498 12.826 28.2992 12.805 28.246 12.7943C28.1001 12.7943 24.549 12.0639 22.1329 12.8755C21.2573 13.1676 20.2276 13.5328 19.279 13.8737C18.3305 14.2146 17.3251 14.5716 16.7576 14.7502C16.6604 14.7846 16.5678 14.8309 16.4819 14.8882L14.8604 14.4418V13.9467C14.8626 13.0097 14.4933 12.11 13.8337 11.4452C13.174 10.7803 12.2779 10.4045 11.3418 10.4002V8.70401C11.6847 8.65161 11.9955 8.47245 12.2129 8.20189C12.4303 7.93132 12.5385 7.589 12.5161 7.2425C12.4937 6.896 12.3423 6.5705 12.0919 6.33023C11.8415 6.08996 11.5102 5.95239 11.1634 5.94468H10.985V4.22415C10.985 4.00891 10.8996 3.80248 10.7476 3.65029C10.5955 3.49809 10.3893 3.41258 10.1743 3.41258H7.85551C7.64049 3.41258 7.43427 3.49809 7.28222 3.65029C7.13018 3.80248 7.04476 4.00891 7.04476 4.22415V5.97714H6.86639C6.5171 5.97729 6.18075 6.10942 5.92457 6.3471C5.6684 6.58477 5.51129 6.91048 5.48466 7.2591C5.45803 7.60772 5.56383 7.95356 5.78093 8.22746C5.99802 8.50137 6.31039 8.68315 6.6556 8.73647V10.3596C6.6556 10.3596 6.6556 10.3596 6.6556 10.4164C5.77305 10.4877 4.94959 10.8887 4.34878 11.5397C3.74797 12.1908 3.41378 13.0442 3.41258 13.9305V25.0409C3.41151 25.5055 3.50189 25.9659 3.67855 26.3956C3.85521 26.8253 4.11469 27.216 4.44219 27.5453C4.76968 27.8746 5.15877 28.1362 5.58723 28.315C6.0157 28.4938 6.47515 28.5864 6.93936 28.5874H11.3255C12.2616 28.5831 13.1578 28.2073 13.8175 27.5424C14.4771 26.8776 14.8464 25.9779 14.8442 25.0409V18.313C15.9261 18.9218 17.1106 19.3262 18.3386 19.506C20.6979 19.506 27.9298 17.753 28.2379 17.6799C28.2931 17.6723 28.3461 17.6533 28.3936 17.6242C28.4412 17.595 28.4822 17.5564 28.5141 17.5107C28.5461 17.465 28.5683 17.4132 28.5793 17.3586C28.5904 17.3039 28.5901 17.2475 28.5784 17.193ZM7.49878 8.7527H10.5472V10.3758H7.47446L7.49878 8.7527ZM7.87173 4.24038H10.1905V5.99337H7.91227L7.87173 4.24038ZM6.29076 7.36492C6.29076 7.2121 6.3514 7.06554 6.45936 6.95747C6.56731 6.84941 6.71372 6.78871 6.86639 6.78871H11.1553C11.308 6.78871 11.4544 6.84941 11.5623 6.95747C11.6703 7.06554 11.7309 7.2121 11.7309 7.36492C11.7309 7.51774 11.6703 7.6643 11.5623 7.77236C11.4544 7.88042 11.308 7.94113 11.1553 7.94113H6.88261C6.80566 7.9433 6.72906 7.93 6.65734 7.90202C6.58562 7.87403 6.52023 7.83193 6.46505 7.77821C6.40987 7.72449 6.36601 7.66023 6.33607 7.58924C6.30613 7.51825 6.29073 7.44197 6.29076 7.36492ZM14.074 25.0409C14.0762 25.7627 13.7923 26.4559 13.2847 26.9686C12.7771 27.4813 12.0872 27.7716 11.3661 27.7759H6.9799C6.62216 27.7748 6.26813 27.7032 5.93803 27.5652C5.60793 27.4272 5.30822 27.2254 5.05601 26.9714C4.80381 26.7175 4.60404 26.4163 4.46813 26.085C4.33221 25.7538 4.2628 25.399 4.26387 25.0409V13.9467C4.2628 13.5886 4.33221 13.2338 4.46813 12.9026C4.60404 12.5713 4.80381 12.2701 5.05601 12.0162C5.30822 11.7622 5.60793 11.5604 5.93803 11.4224C6.26813 11.2844 6.62216 11.2128 6.9799 11.2118H11.3661C12.0872 11.216 12.7771 11.5063 13.2847 12.019C13.7923 12.5317 14.0762 13.2249 14.074 13.9467V14.2227L10.831 13.3381C10.6492 13.2856 10.4576 13.2767 10.2717 13.3119C10.0859 13.3472 9.91084 13.4256 9.76079 13.5409C9.59028 13.6671 9.45466 13.8346 9.36672 14.0277C9.27877 14.2208 9.2414 14.4331 9.25812 14.6447C9.27144 14.857 9.33974 15.0622 9.45631 15.24C9.57288 15.4179 9.73369 15.5624 9.92294 15.6591L11.2283 16.3733C12.1444 16.8765 13.1416 17.4202 14.1064 17.9072L14.074 25.0409Z" fill="#101010"/>
<path d="M10.6121 18.5564L10.4256 18.2643C10.2965 18.058 10.1172 17.888 9.90449 17.7701C9.69177 17.6522 9.45262 17.5904 9.20947 17.5904C8.96633 17.5904 8.72718 17.6522 8.51445 17.7701C8.30173 17.888 8.12242 18.058 7.99334 18.2643L7.80687 18.5564H7.45824C7.22133 18.5678 6.99086 18.6374 6.78723 18.7591C6.58359 18.8809 6.41307 19.051 6.29076 19.2544C6.17295 19.4696 6.1112 19.711 6.1112 19.9564C6.1112 20.2018 6.17295 20.4432 6.29076 20.6584L6.46101 20.9668L6.29076 21.2671C6.1748 21.4836 6.11593 21.7262 6.1197 21.9718C6.12348 22.2174 6.18978 22.4581 6.31233 22.6709C6.43488 22.8838 6.60964 23.0618 6.82008 23.1882C7.03053 23.3147 7.2697 23.3853 7.515 23.3934H7.86362L8.05009 23.6855C8.17917 23.8918 8.35848 24.0619 8.57121 24.1797C8.78393 24.2976 9.02308 24.3595 9.26623 24.3595C9.50937 24.3595 9.74852 24.2976 9.96125 24.1797C10.174 24.0619 10.3533 23.8918 10.4824 23.6855L10.6688 23.3934H11.0175C11.2628 23.3853 11.5019 23.3147 11.7124 23.1882C11.9228 23.0618 12.0976 22.8838 12.2201 22.6709C12.3427 22.4581 12.409 22.2174 12.4127 21.9718C12.4165 21.7262 12.3577 21.4836 12.2417 21.2671L12.0795 20.9668L12.2417 20.6584C12.3595 20.4432 12.4212 20.2018 12.4212 19.9564C12.4212 19.711 12.3595 19.4696 12.2417 19.2544C12.1184 19.0435 11.9436 18.8673 11.7337 18.7424C11.5239 18.6175 11.2858 18.5479 11.0418 18.5402L10.6121 18.5564ZM11.4634 20.3094L11.2607 20.699C11.2131 20.7905 11.1882 20.8921 11.1882 20.9952C11.1882 21.0983 11.2131 21.2 11.2607 21.2914L11.4634 21.681C11.5145 21.7758 11.5406 21.8821 11.5392 21.9899C11.5378 22.0976 11.5089 22.2033 11.4553 22.2967C11.4017 22.3902 11.3252 22.4684 11.233 22.524C11.1407 22.5795 11.0359 22.6106 10.9283 22.6143H10.4905C10.3868 22.6173 10.2854 22.6455 10.1951 22.6963C10.1047 22.7472 10.028 22.8193 9.97158 22.9064L9.74457 23.2798C9.68803 23.3721 9.60877 23.4484 9.51438 23.5013C9.41998 23.5542 9.31361 23.582 9.20542 23.582C9.09723 23.582 8.99086 23.5542 8.89646 23.5013C8.80207 23.4484 8.72281 23.3721 8.66627 23.2798L8.43926 22.9064C8.38286 22.8193 8.30617 22.7472 8.21579 22.6963C8.1254 22.6455 8.02403 22.6173 7.92037 22.6143H7.48257C7.37612 22.61 7.27249 22.5788 7.18129 22.5237C7.0901 22.4685 7.01429 22.3912 6.96092 22.2989C6.90754 22.2067 6.87832 22.1024 6.87597 21.9957C6.87362 21.8891 6.89821 21.7837 6.94747 21.6891L7.15016 21.2995C7.19776 21.2081 7.22262 21.1065 7.22262 21.0033C7.22262 20.9002 7.19776 20.7986 7.15016 20.7071L6.94747 20.3175C6.89585 20.2233 6.86939 20.1173 6.87065 20.0099C6.8719 19.9024 6.90082 19.7971 6.95462 19.704C7.00841 19.611 7.08526 19.5335 7.17775 19.4789C7.27023 19.4243 7.37522 19.3945 7.48257 19.3924H7.92037C8.02461 19.3878 8.12621 19.3581 8.21654 19.3058C8.30687 19.2535 8.38327 19.1802 8.43926 19.0921L8.66627 18.7188C8.72281 18.6264 8.80207 18.5502 8.89646 18.4973C8.99086 18.4443 9.09723 18.4166 9.20542 18.4166C9.31361 18.4166 9.41998 18.4443 9.51438 18.4973C9.60877 18.5502 9.68803 18.6264 9.74457 18.7188L9.97158 19.0921C10.0276 19.1802 10.104 19.2535 10.1943 19.3058C10.2846 19.3581 10.3862 19.3878 10.4905 19.3924H10.9283C11.0345 19.3952 11.1382 19.4251 11.2296 19.4793C11.321 19.5334 11.3971 19.61 11.4507 19.7019C11.5043 19.7937 11.5336 19.8977 11.5358 20.004C11.538 20.1103 11.5131 20.2154 11.4634 20.3094Z" fill="#101010"/>
<path d="M9.20947 20.2445C9.0095 20.2445 8.81772 20.324 8.67631 20.4656C8.53491 20.6071 8.45547 20.7991 8.45547 20.9993C8.45547 21.1994 8.53491 21.3914 8.67631 21.533C8.81772 21.6745 9.0095 21.754 9.20947 21.754C9.40945 21.754 9.60123 21.6745 9.74263 21.533C9.88404 21.3914 9.96348 21.1994 9.96348 20.9993C9.96348 20.7991 9.88404 20.6071 9.74263 20.4656C9.60123 20.324 9.40945 20.2445 9.20947 20.2445Z" fill="#101010"/>
</svg>
