<?xml version="1.0" encoding="utf-8"?>
<!-- Generator: Adobe Illustrator 24.1.0, SVG Export Plug-In . SVG Version: 6.00 Build 0)  -->
<svg version="1.1" id="Capa_1" xmlns="http://www.w3.org/2000/svg" xmlns:xlink="http://www.w3.org/1999/xlink" x="0px" y="0px"
	 viewBox="0 0 480 480" style="enable-background:new 0 0 480 480;" xml:space="preserve">
<g>
	<g>
		<g>
			<path d="M436.3,386.7V148.7h-43.2V91.5h-84.8V52.7h-77.8v17.6h-56.8v58.6h-59.3V91.5H44.7v295.2H24.1v40.4h432.8v-40.4H436.3z
				 M393.1,161.6h30.3v225.1h-30.3V161.6z M308.3,334.2v-33.6V151.7v-33.6v-13.7h71.9v44.4v237.9h-71.9V334.2z M243.4,70.3v-4.7
				h52.1v25.9v26.6h-52.1V70.3z M243.4,130.9h52.1v7.9h-52.1V130.9z M243.4,151.7h52.1v148.9h-52.1V151.7z M243.4,313.4h52.1v7.9
				h-52.1V313.4z M243.4,334.2h52.1v52.5h-52.1V334.2z M186.5,128.9V83.1h44v34.9v33.6v148.9v33.6v52.5h-44V128.9z M163.6,141.8
				h10.1v244.9h-10.1V141.8z M137.4,141.8h13.4v244.9h-13.4V141.8z M114.4,141.8h10.1v244.9h-10.1V141.8z M57.6,104.3h44v24.6v36.7
				h-44V104.3z M57.6,178.5h44v134.6h-44V178.5z M57.6,325.9h44v60.8h-44V325.9z M444.1,414.2H36.9v-14.7h7.8h56.8h12.9h59.3h12.9
				h44h12.9h52.1h12.9h71.9h12.9h43.2h7.8L444.1,414.2L444.1,414.2z"/>
		</g>
	</g>
	<g>
		<g>
			<path d="M344.3,160.5c-16.7,0-30.2,13.6-30.2,30.2s13.6,30.2,30.2,30.2c16.7,0,30.2-13.6,30.2-30.2S360.9,160.5,344.3,160.5z
				 M344.3,208c-9.6,0-17.4-7.8-17.4-17.4s7.8-17.4,17.4-17.4c9.6,0,17.4,7.8,17.4,17.4S353.8,208,344.3,208z"/>
		</g>
	</g>
	<g>
		<g>
			<rect x="320.5" y="267.7" width="47.6" height="12.9"/>
		</g>
	</g>
	<g>
		<g>
			<rect x="320.5" y="289.6" width="47.6" height="12.9"/>
		</g>
	</g>
	<g>
		<g>
			<rect x="320.5" y="311.5" width="47.6" height="12.9"/>
		</g>
	</g>
</g>
</svg>
