<svg width="32" height="32" viewBox="0 0 32 32" xmlns="http://www.w3.org/2000/svg">
<path fill-rule="evenodd" clip-rule="evenodd" d="M15.9999 28.9174C23.134 28.9174 28.9173 23.1341 28.9173 16C28.9173 8.86595 23.134 3.08264 15.9999 3.08264C8.86583 3.08264 3.08252 8.86595 3.08252 16C3.08252 23.1341 8.86583 28.9174 15.9999 28.9174ZM15.9999 29.9174C23.6863 29.9174 29.9173 23.6864 29.9173 16C29.9173 8.31366 23.6863 2.08264 15.9999 2.08264C8.31354 2.08264 2.08252 8.31366 2.08252 16C2.08252 23.6864 8.31354 29.9174 15.9999 29.9174Z" />
<path fill-rule="evenodd" clip-rule="evenodd" d="M16 23.0877C19.9144 23.0877 23.0876 19.9144 23.0876 16.0001C23.0876 12.0857 19.9144 8.91241 16 8.91241C12.0856 8.91241 8.91235 12.0857 8.91235 16.0001C8.91235 19.9144 12.0856 23.0877 16 23.0877ZM16 24.0877C20.4667 24.0877 24.0876 20.4667 24.0876 16.0001C24.0876 11.5334 20.4667 7.91241 16 7.91241C11.5333 7.91241 7.91235 11.5334 7.91235 16.0001C7.91235 20.4667 11.5333 24.0877 16 24.0877Z" />
<path fill-rule="evenodd" clip-rule="evenodd" d="M16.0002 17.5921C16.8794 17.5921 17.5921 16.8794 17.5921 16.0002C17.5921 15.1209 16.8794 14.4082 16.0002 14.4082C15.1209 14.4082 14.4082 15.1209 14.4082 16.0002C14.4082 16.8794 15.1209 17.5921 16.0002 17.5921ZM16.0002 18.5921C17.4317 18.5921 18.5921 17.4317 18.5921 16.0002C18.5921 14.5687 17.4317 13.4082 16.0002 13.4082C14.5687 13.4082 13.4082 14.5687 13.4082 16.0002C13.4082 17.4317 14.5687 18.5921 16.0002 18.5921Z" />
<path fill-rule="evenodd" clip-rule="evenodd" d="M13.8086 15.4974H8.17432V14.4974H13.8086V15.4974ZM14.0114 17.5243H8.17432V16.5243H14.0114V17.5243Z" />
<path fill-rule="evenodd" clip-rule="evenodd" d="M23.5781 15.4974H17.9438V14.4974H23.5781V15.4974ZM23.7809 17.5243H17.9438V16.5243H23.7809V17.5243Z" />
<path fill-rule="evenodd" clip-rule="evenodd" d="M16.4905 13.842L16.4905 8.2077L17.4905 8.2077L17.4905 13.842L16.4905 13.842ZM14.4637 14.0448L14.4637 8.2077L15.4637 8.2077L15.4637 14.0448L14.4637 14.0448Z" />
<path fill-rule="evenodd" clip-rule="evenodd" d="M16.491 23.6113L16.491 17.977L17.491 17.977L17.491 23.6113L16.491 23.6113ZM14.4642 23.8141L14.4642 17.977L15.4642 17.977L15.4642 23.8141L14.4642 23.8141Z" />
<path fill-rule="evenodd" clip-rule="evenodd" d="M8.33125 9.1115C8.4821 9.3428 8.41689 9.65259 8.18559 9.80344C7.45784 10.2781 5.74486 11.0008 4.0099 10.1333C3.76291 10.0098 3.6628 9.70948 3.7863 9.46249C3.90979 9.2155 4.21013 9.11539 4.45712 9.23889C5.72845 9.87457 7.04095 9.35609 7.63931 8.96584C7.87061 8.81499 8.1804 8.8802 8.33125 9.1115Z" />
<path fill-rule="evenodd" clip-rule="evenodd" d="M13.1421 6.27918C13.1571 6.55492 12.9457 6.7906 12.6699 6.80559L12.6623 6.80601C12.2672 6.8275 11.4697 6.87089 10.6807 6.62723C9.85928 6.37357 9.03308 5.80258 8.66313 4.62129C8.5806 4.35777 8.72733 4.07724 8.99085 3.99471C9.25437 3.91218 9.5349 4.0589 9.61743 4.32243C9.86905 5.12588 10.3989 5.49361 10.9757 5.67175C11.5798 5.8583 12.2176 5.82871 12.6157 5.80707C12.8914 5.79207 13.1271 6.00345 13.1421 6.27918Z" />
<path fill-rule="evenodd" clip-rule="evenodd" d="M18.4083 5.86954C18.3062 6.12611 18.0154 6.25133 17.7588 6.14922C17.7244 6.13553 17.6871 6.12107 17.6474 6.10565C17.2917 5.96772 16.736 5.75227 16.2393 5.30891C15.6677 4.79862 15.2023 4.02001 15.0552 2.79921C15.0222 2.52505 15.2177 2.27602 15.4918 2.24299C15.766 2.20995 16.015 2.40542 16.0481 2.67958C16.1688 3.68181 16.5317 4.22948 16.9053 4.56289C17.2596 4.87922 17.6499 5.03219 18.0116 5.17398C18.0509 5.18942 18.09 5.20473 18.1286 5.22009C18.3852 5.3222 18.5104 5.61296 18.4083 5.86954Z" />
<path fill-rule="evenodd" clip-rule="evenodd" d="M23.0209 8.28041C22.8177 8.46735 22.5014 8.45414 22.3144 8.25089C22.2967 8.23156 22.278 8.21143 22.2585 8.19045C21.9961 7.90773 21.5918 7.47222 21.3685 6.80103C21.1249 6.06911 21.112 5.12107 21.5494 3.83658C21.6384 3.57518 21.9225 3.43543 22.1839 3.52444C22.4453 3.61345 22.585 3.89752 22.496 4.15892C22.1102 5.292 22.1592 6.00996 22.3173 6.48532C22.4704 6.94535 22.7407 7.23823 23.0052 7.52487C23.0203 7.54123 23.0354 7.55757 23.0504 7.57392C23.2374 7.77716 23.2242 8.09346 23.0209 8.28041Z" />
<path fill-rule="evenodd" clip-rule="evenodd" d="M25.9754 12.7448C25.7023 12.7855 25.4479 12.5971 25.4072 12.324C25.3397 11.8708 25.3401 11.1747 25.5556 10.4802C25.7737 9.77748 26.2238 9.04578 27.0738 8.60704C27.3191 8.48039 27.6207 8.57663 27.7474 8.82201C27.874 9.0674 27.7778 9.36899 27.5324 9.49565C26.9811 9.78024 26.6721 10.2565 26.5107 10.7766C26.3467 11.3051 26.3471 11.8468 26.3963 12.1766C26.437 12.4497 26.2486 12.7041 25.9754 12.7448Z" />
<path fill-rule="evenodd" clip-rule="evenodd" d="M26.1573 18.0734C25.9122 17.9462 25.8166 17.6444 25.9438 17.3993C26.3169 16.6802 27.3517 15.0145 29.4673 15.2526C29.7417 15.2835 29.9391 15.5309 29.9082 15.8054C29.8773 16.0798 29.6299 16.2772 29.3555 16.2463C27.9287 16.0857 27.1875 17.1735 26.8314 17.8598C26.7043 18.1049 26.4025 18.2005 26.1573 18.0734Z" />
<path fill-rule="evenodd" clip-rule="evenodd" d="M23.6187 22.9235C23.4804 22.6845 23.5621 22.3786 23.8011 22.2404C24.5024 21.8348 26.2706 20.9869 27.9262 22.3254C28.1409 22.499 28.1743 22.8138 28.0007 23.0285C27.8271 23.2433 27.5122 23.2766 27.2975 23.103C26.181 22.2004 24.9711 22.7189 24.3018 23.106C24.0628 23.2443 23.7569 23.1626 23.6187 22.9235Z" />
<path fill-rule="evenodd" clip-rule="evenodd" d="M19.0799 26.1285C19.0497 25.854 19.2477 25.607 19.5222 25.5768C20.3274 25.4882 22.2874 25.425 23.2631 27.3172C23.3897 27.5626 23.2933 27.8642 23.0479 27.9907C22.8024 28.1173 22.5009 28.0209 22.3743 27.7755C21.7163 26.4994 20.4001 26.4863 19.6315 26.5708C19.3571 26.601 19.1101 26.403 19.0799 26.1285Z" />
<path fill-rule="evenodd" clip-rule="evenodd" d="M13.534 26.6072C13.6164 26.3436 13.8968 26.1967 14.1604 26.2791C14.9336 26.5208 16.7545 27.2486 16.8898 29.3733C16.9073 29.6489 16.6981 29.8865 16.4225 29.904C16.1469 29.9216 15.9093 29.7124 15.8918 29.4368C15.8006 28.004 14.6 27.4642 13.862 27.2336C13.5985 27.1512 13.4516 26.8708 13.534 26.6072Z" />
<path fill-rule="evenodd" clip-rule="evenodd" d="M8.68346 23.8764C8.89444 23.6983 9.20991 23.7249 9.38807 23.9358C9.91073 24.5548 11.0565 26.1462 10.0302 28.0115C9.89711 28.2534 9.59307 28.3416 9.35113 28.2085C9.10919 28.0754 9.02097 27.7714 9.15409 27.5294C9.84618 26.2715 9.12287 25.1717 8.62405 24.581C8.44588 24.37 8.47249 24.0546 8.68346 23.8764Z" />
<path fill-rule="evenodd" clip-rule="evenodd" d="M6.02018 19.2453C6.29455 19.214 6.54235 19.411 6.57367 19.6853C6.66555 20.4902 6.73685 22.4499 4.84869 23.4334C4.60377 23.5609 4.30182 23.4658 4.17426 23.2209C4.0467 22.976 4.14183 22.674 4.38674 22.5465C5.66009 21.8832 5.66781 20.5669 5.58012 19.7988C5.5488 19.5244 5.74582 19.2766 6.02018 19.2453Z" />
<path fill-rule="evenodd" clip-rule="evenodd" d="M5.91292 13.8304C6.1456 13.9791 6.21367 14.2883 6.06496 14.5209C6.03989 14.5601 6.01258 14.6042 5.98287 14.6522C5.78733 14.9677 5.48808 15.4505 5.04414 15.8173C4.49647 16.2697 3.74361 16.5433 2.71756 16.333C2.44704 16.2776 2.27269 16.0133 2.32814 15.7428C2.38359 15.4723 2.64783 15.298 2.91835 15.3534C3.63833 15.501 4.08516 15.3124 4.40726 15.0463C4.71441 14.7926 4.92024 14.4638 5.12155 14.1423C5.15513 14.0887 5.18858 14.0352 5.22236 13.9824C5.37107 13.7497 5.68025 13.6816 5.91292 13.8304Z" />
</svg>
