<svg width="58" height="40" viewBox="0 0 58 40" fill="none" xmlns="http://www.w3.org/2000/svg">
<path d="M52.2362 0H4.95692C2.22325 0 0 2.22325 0 4.95692V35.044C0 37.7768 2.22325 40 4.95604 40H52.2353C54.9681 40 57.1914 37.7768 57.1914 35.044V4.95692C57.1922 2.22325 54.969 0 52.2362 0ZM55.8749 35.0431C55.8749 37.0506 54.2428 38.6836 52.2362 38.6836H4.95692C2.94942 38.6836 1.31641 37.0506 1.31641 35.0431V19.2532H55.8758L55.8749 35.0431ZM55.8758 10.7452H1.31553V4.95692C1.31553 2.94942 2.94854 1.31641 4.95604 1.31641H52.2353C54.2419 1.31641 55.8749 2.94942 55.8749 4.95692L55.8758 10.7452Z" fill="#101010"/>
<path d="M39.3416 29.2547H47.9373C48.3004 29.2547 48.5959 28.96 48.5959 28.5969C48.5959 28.2339 48.3004 27.9392 47.9373 27.9392H39.3416C38.9785 27.9392 38.6838 28.2339 38.6838 28.5969C38.6838 28.96 38.9785 29.2547 39.3416 29.2547Z" fill="#101010"/>
</svg>
