<svg width="32" height="32" viewBox="0 0 32 32" fill="none" xmlns="http://www.w3.org/2000/svg">
<path fill-rule="evenodd" clip-rule="evenodd" d="M16 27C22.0751 27 27 22.0751 27 16C27 9.92487 22.0751 5 16 5C9.92487 5 5 9.92487 5 16C5 22.0751 9.92487 27 16 27ZM16 28C22.6274 28 28 22.6274 28 16C28 9.37258 22.6274 4 16 4C9.37258 4 4 9.37258 4 16C4 22.6274 9.37258 28 16 28Z" fill="#101010"/>
<path fill-rule="evenodd" clip-rule="evenodd" d="M15.5471 7.94507C15.8233 7.94507 16.0471 8.16893 16.0471 8.44507V16.1037L23.2907 18.9346C23.5479 19.0351 23.6749 19.3251 23.5744 19.5823C23.4739 19.8395 23.1839 19.9665 22.9267 19.866L15.3651 16.9108C15.1733 16.8358 15.0471 16.651 15.0471 16.4451V8.44507C15.0471 8.16893 15.271 7.94507 15.5471 7.94507Z" fill="#101010"/>
</svg>
