<svg width="32" height="32" viewBox="0 0 32 32" fill="none" xmlns="http://www.w3.org/2000/svg">
<circle cx="16" cy="16" r="15.5" fill="#101010" stroke="#101010"/>
<path fill-rule="evenodd" clip-rule="evenodd" d="M8.14645 8.14645C8.34171 7.95118 8.65829 7.95118 8.85355 8.14645L16 15.2929L23.1464 8.14645C23.3417 7.95118 23.6583 7.95118 23.8536 8.14645C24.0488 8.34171 24.0488 8.65829 23.8536 8.85355L16.7071 16L23.8536 23.1464C24.0488 23.3417 24.0488 23.6583 23.8536 23.8536C23.6583 24.0488 23.3417 24.0488 23.1464 23.8536L16 16.7071L8.85355 23.8536C8.65829 24.0488 8.34171 24.0488 8.14645 23.8536C7.95118 23.6583 7.95118 23.3417 8.14645 23.1464L15.2929 16L8.14645 8.85355C7.95118 8.65829 7.95118 8.34171 8.14645 8.14645Z" fill="white"/>
</svg>
