<svg width="25" height="24" viewBox="0 0 25 24" fill="none" xmlns="http://www.w3.org/2000/svg">
<circle cx="12.5" cy="12" r="11.5" fill="white" stroke="#101010"/>
<path d="M7.1478 17.1386C6.95073 17.3356 6.95073 17.6551 7.1478 17.8522C7.34486 18.0493 7.66436 18.0493 7.86142 17.8522L12.5 13.2136L17.1386 17.8522C17.3356 18.0493 17.6552 18.0493 17.8523 17.8522C18.0492 17.6551 18.0492 17.3356 17.8523 17.1386L13.2136 12.5L17.8522 7.86143C18.0493 7.66436 18.0493 7.34486 17.8522 7.1478C17.6552 6.95073 17.3357 6.95073 17.1386 7.1478L12.5 11.7864L7.86143 7.1478C7.66436 6.95073 7.34485 6.95073 7.14779 7.1478C6.95074 7.34487 6.95074 7.66436 7.14779 7.86143L11.7864 12.5L7.1478 17.1386Z" fill="#101010"/>
</svg>
