<svg width="32" height="32" viewBox="0 0 32 32" stroke="none" stroke-width="0"  xmlns="http://www.w3.org/2000/svg">
<path d="M30.1633 26.3162C29.8229 26.0711 28.0984 24.6643 28.0833 24.6485C28.0407 24.6169 27.9925 24.5945 27.9416 24.5826C27.8907 24.5707 27.838 24.5694 27.7866 24.579C27.7352 24.5886 27.6861 24.6087 27.6423 24.6383C27.5984 24.6679 27.5606 24.7063 27.5311 24.7513C27.4396 24.8904 27.3208 25.0074 27.1825 25.0947C27.0442 25.1819 26.8897 25.2373 26.7293 25.2571C25.8671 25.2571 25.1636 24.9014 24.3392 23.1231L24.2711 22.973C25.3027 22.3702 26.1298 21.4479 26.6386 20.3332C26.6537 20.2768 26.6561 20.2174 26.6456 20.1598C26.6351 20.1022 26.612 20.0479 26.5781 20.0013C26.5456 19.9524 26.5027 19.912 26.4529 19.8832C26.4031 19.8544 26.3475 19.838 26.2906 19.8353C25.2846 19.7879 23.3181 19.4875 22.3423 18.6893L21.2229 16.1918C21.194 16.1179 21.143 16.0557 21.0776 16.0144C21.0122 15.9731 20.9359 15.9549 20.8598 15.9626C20.3448 16.0013 19.8452 16.1635 19.4 16.4368C18.2357 15.1099 17.3814 13.5192 16.9039 11.7895L17.5317 10.9992C18.0663 10.2186 18.3974 9.30619 18.4923 8.3515C18.4923 8.01165 18.568 7.56115 18.6209 7.06323C18.7344 6.02788 18.8554 4.85816 18.9008 4.13104C18.9247 3.85364 18.8645 3.5754 18.7288 3.33569C18.5931 3.09599 18.3886 2.90696 18.1444 2.79534C17.9141 2.69763 17.66 2.67943 17.4191 2.74342C17.1782 2.80741 16.9632 2.95023 16.8056 3.151C16.6014 3.41182 16.3896 3.73586 16.1702 4.08361C15.5197 5.11107 14.7104 6.39144 13.5758 6.39144C12.4413 6.39144 11.7454 5.21381 11.1327 4.17055C10.9338 3.81676 10.7141 3.47626 10.4747 3.151C10.318 2.94887 10.1035 2.80451 9.86252 2.73908C9.62158 2.67366 9.36692 2.6906 9.13588 2.78744C8.89023 2.89706 8.68443 3.08568 8.5484 3.32589C8.41237 3.5661 8.35321 3.84538 8.3795 4.12313C8.3795 4.85025 8.5459 6.01997 8.65179 7.05533C8.70474 7.54535 8.75769 8.00375 8.78794 8.3436C8.87581 9.29873 9.20468 10.2124 9.74098 10.9913L10.3158 11.8369V11.8923C9.30228 14.0657 6.74571 19.8906 1.67795 19.8906C1.6172 19.8896 1.55714 19.9042 1.50306 19.9331C1.44898 19.9621 1.40254 20.0045 1.36783 20.0566C1.3333 20.1091 1.31118 20.1695 1.30329 20.2327C1.2954 20.2959 1.30197 20.3601 1.32245 20.4201C1.67007 21.3918 2.22878 22.2658 2.95461 22.9735C3.68043 23.6812 4.55356 24.2032 5.50524 24.4984C4.87337 25.1368 4.20393 25.7334 3.50083 26.2845C3.43074 26.3382 3.38044 26.4153 3.3584 26.5031C3.33637 26.5909 3.34392 26.684 3.37981 26.7667C3.41461 26.8494 3.476 26.9168 3.55336 26.9572C3.63071 26.9976 3.71916 27.0085 3.80338 26.988C7.91054 26.0791 10.1797 25.9763 12.1841 26.6086C14.046 27.2402 15.9732 27.6382 17.925 27.7941C18.056 27.802 18.1874 27.802 18.3184 27.7941C18.3184 27.9838 18.3184 28.1577 18.3789 28.3078C18.3999 28.5516 18.5074 28.7782 18.6802 28.9433C18.8531 29.1084 19.0788 29.2 19.313 29.2C19.5472 29.2 19.7729 29.1084 19.9458 28.9433C20.1186 28.7782 20.2261 28.5516 20.2471 28.3078L20.3455 27.391C21.0178 27.1852 21.665 26.8988 22.2742 26.5375C22.2742 26.6007 22.3423 26.6718 22.3726 26.735C22.7412 27.4638 23.2899 28.0762 23.9616 28.5084C24.6333 28.9407 25.4036 29.1771 26.1923 29.193H29.2935C29.6055 29.2144 29.9154 29.1265 30.1742 28.9433C30.4331 28.7601 30.6262 28.492 30.723 28.1814C30.8249 27.8481 30.8257 27.4901 30.7256 27.1562C30.6254 26.8224 30.429 26.529 30.1633 26.3162ZM25.678 20.5782C25.2289 21.2654 24.64 21.8402 23.9534 22.2617L22.8945 19.8906C23.7892 20.247 24.7252 20.4782 25.678 20.5782ZM9.50651 8.26457C9.50651 7.92472 9.43087 7.47422 9.37792 6.96839C9.26446 5.94094 9.14344 4.77912 9.10562 4.07571C9.09046 3.96152 9.11192 3.8453 9.16666 3.74521C9.2214 3.64511 9.30633 3.56679 9.40818 3.52247C9.49155 3.48832 9.58335 3.48375 9.66945 3.50945C9.75555 3.53516 9.83118 3.58971 9.8847 3.66473C10.104 3.95821 10.3037 4.26718 10.4822 4.58944C11.163 5.74335 11.995 7.18179 13.5683 7.18179C15.1416 7.18179 16.0492 5.66431 16.8056 4.51831C17.0174 4.19426 17.214 3.87812 17.388 3.66473C17.4428 3.58907 17.5198 3.53421 17.6072 3.50852C17.6946 3.48283 17.7876 3.48773 17.8721 3.52247C17.9732 3.56787 18.0573 3.64641 18.1119 3.74622C18.1665 3.84602 18.1885 3.96168 18.1747 4.07571C18.1293 4.77912 18.0082 5.94094 17.9024 6.96839C17.8494 7.46631 17.7965 7.91681 17.7662 8.26457C17.6903 9.07288 17.4139 9.84652 16.9644 10.5092L16.2081 11.4181H10.9134L10.3083 10.5329C9.85975 9.86087 9.58369 9.07988 9.50651 8.26457ZM12.3959 25.8419C10.5276 25.2571 8.47783 25.2571 5.14974 25.8973C7.29787 23.9451 9.65022 21.1552 10.6411 18.5312C10.6782 18.4337 10.6767 18.3249 10.637 18.2285C10.5973 18.1322 10.5226 18.0563 10.4293 18.0175C10.336 17.9787 10.2318 17.9802 10.1396 18.0217C10.0474 18.0632 9.97476 18.1413 9.93764 18.2388C9.00573 20.3406 7.70498 22.2413 6.10279 23.8424C6.06541 23.8338 6.0267 23.8338 5.98933 23.8424C5.17596 23.6367 4.41571 23.2469 3.76224 22.7007C3.10877 22.1544 2.57801 21.465 2.20741 20.681C7.41133 20.2305 9.99816 14.4451 10.9512 12.2242H16.2459C16.7789 13.9607 17.6522 15.5623 18.81 16.9268C18.6285 17.0957 18.4614 17.2808 18.3108 17.48C17.9527 17.9422 17.6921 18.4783 17.5461 19.0531C17.4001 19.6279 17.372 20.2284 17.4637 20.8153C17.6603 21.9297 18.0158 24.933 18.22 27.0038C17.1838 27.0828 15.0508 26.6639 12.3959 25.8419ZM19.1353 28.213C18.9764 26.8062 18.6436 23.8503 18.3789 21.9455C19.0051 22.1859 19.5749 22.5631 20.0505 23.052L19.5059 28.2288C19.4949 28.2733 19.4695 28.3123 19.434 28.3393C19.3985 28.3663 19.3551 28.3796 19.3112 28.3767C19.2674 28.3739 19.2258 28.3553 19.1937 28.324C19.1616 28.2926 19.1409 28.2506 19.1353 28.2051V28.213ZM20.4438 26.5296L20.7237 23.8424C21.187 24.4688 21.5946 25.1381 21.9414 25.8419C21.465 26.1198 20.9633 26.3475 20.4438 26.5216V26.5296ZM30.0045 27.9364C29.9578 28.0872 29.8616 28.216 29.7329 28.2999C29.6042 28.3838 29.4512 28.4174 29.301 28.3948H26.1999C25.5538 28.3787 24.9232 28.1846 24.372 27.8321C23.8208 27.4796 23.3685 26.9812 23.0609 26.3873C22.4886 25.0507 21.7233 23.8139 20.7917 22.7201C20.7736 22.6587 20.7413 22.6028 20.6978 22.5574C20.6543 22.5119 20.6009 22.4782 20.5421 22.4592C19.9193 21.8217 19.1554 21.3548 18.3184 21.0998H18.2427C18.2427 20.9312 18.22 20.789 18.1747 20.6731C18.1033 20.1962 18.1291 19.7089 18.2503 19.2431C18.3715 18.7773 18.5854 18.3435 18.8781 17.9701C19.3068 17.362 19.9385 16.9445 20.648 16.8003L23.6736 23.4788C24.5283 25.3124 25.4132 26.0632 26.7445 26.0632C26.9646 26.0575 27.1815 26.0064 27.3827 25.9128C27.5839 25.8192 27.7654 25.685 27.9169 25.5179C28.4312 25.9368 29.475 26.7825 29.7473 26.9801C29.8722 27.0961 29.9627 27.2471 30.0083 27.4151C30.0538 27.5831 30.0525 27.7612 30.0045 27.9285V27.9364Z"/>
</svg>
