<svg width="24" height="24" viewBox="0 0 24 24" fill="none" xmlns="http://www.w3.org/2000/svg">
<path d="M14.0929 13.5789C16.6397 12.7368 17.4179 10.4912 17.4886 10.2807C18.2668 10.4211 19.1157 10.2105 19.5402 9.57895C20.1061 8.80702 20.2476 7.33333 19.3987 6.21053C18.9742 5.57895 17.9838 5.50877 17.2764 5.50877C16.3567 3.40351 14.3051 2 11.8999 2C9.49459 2 7.37228 3.47368 6.45261 5.57895C5.74518 5.57895 4.82551 5.7193 4.4718 6.35088C3.76436 7.54386 3.90585 8.94737 4.54254 9.7193C5.17923 10.4912 6.31113 10.7719 7.30154 10.1404C7.16005 9.85965 6.24038 8.17544 7.01856 6C7.01856 5.92982 7.08931 5.78947 7.16005 5.7193C8.00897 3.96491 9.77756 2.70175 11.8999 2.70175C14.8004 2.70175 17.1349 5.01754 17.1349 7.89474C17.1349 9.01754 16.8519 9.78947 16.7104 10C16.7104 10 15.9322 12.0351 13.6685 12.7368C13.527 12.6667 13.4562 12.5965 13.3147 12.5965H10.485C10.0605 12.5965 9.70682 12.9474 9.70682 13.3684V13.6491C9.70682 13.7895 9.77756 13.9298 9.8483 14.0702C7.08931 14.7719 5.17923 16.807 4.68403 19.8246C4.54254 20.3158 4.68403 20.8772 5.03774 21.2982C5.39146 21.7193 5.88667 22 6.45261 22H17.5593C18.0546 22 18.479 21.7895 18.8327 21.4386C19.1865 21.0175 19.3987 20.4561 19.3279 19.8947C18.762 16.807 16.7812 14.7018 13.9514 14.0702C14.0222 13.9298 14.0929 13.8596 14.0929 13.7193V13.5789ZM18.6205 19.9649C18.6912 20.3158 18.5498 20.6667 18.2668 20.9474C18.0546 21.1579 17.7716 21.2982 17.4886 21.2982H6.45261C6.0989 21.2982 5.81592 21.1579 5.60369 20.8772C5.39146 20.6667 5.32072 20.3158 5.39146 19.9649C5.95741 16.4561 8.43343 14.4912 12.0414 14.4912C15.5785 14.5614 18.0546 16.5965 18.6205 19.9649Z" fill="white"/>
<circle cx="11.8998" cy="8" r="3.6" stroke="white" stroke-width="0.8"/>
</svg>
