<svg width="67" height="80" viewBox="0 0 67 80" fill="none" xmlns="http://www.w3.org/2000/svg">
<path d="M31.0593 3.64407V3C31.0593 1.89543 31.9548 1 33.0593 1H35.024C36.1286 1 37.024 1.89543 37.024 3V3.64407" stroke="#101010"/>
<path d="M20.9638 24.314C20.9638 30.554 20.9638 33.674 22.5253 36.404C24.0868 39.134 27.9907 42.644 34.2368 42.644M19.7926 20.804V10.8277C19.7926 8.37355 21.2849 6.15199 23.6383 5.45609C26.7226 4.54409 30.7444 3.64404 34.2368 3.64404C37.7009 3.64404 41.575 4.52954 44.5361 5.4339C46.8456 6.13925 48.2906 8.33459 48.2906 10.7494V20.804" stroke="#101010" stroke-linecap="round" stroke-linejoin="round"/>
<path d="M47.6279 24.1356C47.6279 30.4364 47.6279 33.5868 46.0685 36.3433C44.5091 39.0999 40.6106 42.6441 34.373 42.6441" stroke="#101010" stroke-linecap="round" stroke-linejoin="round"/>
<rect x="15.1534" y="20.8305" width="37.1137" height="3.30508" rx="1.65254" stroke="#101010" stroke-linecap="round" stroke-linejoin="round"/>
<path d="M39.175 12.2373C39.175 13.1259 38.6641 13.9803 37.7372 14.6329C36.8116 15.2845 35.5066 15.7034 34.0417 15.7034C32.5767 15.7034 31.2717 15.2845 30.3461 14.6329C29.4192 13.9803 28.9083 13.1259 28.9083 12.2373C28.9083 11.3487 29.4192 10.4943 30.3461 9.84166C31.2717 9.19003 32.5767 8.77118 34.0417 8.77118C35.5066 8.77118 36.8116 9.19003 37.7372 9.84166C38.6641 10.4943 39.175 11.3487 39.175 12.2373Z" stroke="#101010"/>
<path d="M66 78.9999H1V63.4484C1 56.0378 5.54179 49.3845 12.4433 46.6851L16.0537 45.2729C18.8659 44.173 22.0245 44.4027 24.6479 45.8979L33.8824 51.1609L43.0431 45.9399C45.7085 44.4208 48.9237 44.2092 51.7652 45.366L54.7869 46.5961C61.5669 49.3562 66 55.9473 66 63.2676V78.9999Z" stroke="#101010"/>
<path d="M12.4706 79V64.1271" stroke="#101010" stroke-linecap="round" stroke-linejoin="round"/>
<path d="M55.2941 79V64.1271" stroke="#101010" stroke-linecap="round" stroke-linejoin="round"/>
<path d="M20.8823 78.9999V62.2202H46.5V78.9999" stroke="#101010" stroke-linecap="round" stroke-linejoin="round"/>
<path d="M30.4412 62.2202V67.9406H36.9412V62.2202" stroke="#101010" stroke-linecap="round" stroke-linejoin="round"/>
<path d="M16.6765 45.4408L25.0119 54.9861C26.1075 56.2407 28.0154 56.3626 29.2618 55.2576L33.8824 51.1611" stroke="#101010" stroke-linecap="round" stroke-linejoin="round"/>
<path d="M51.0883 45.4408L42.7529 54.9861C41.6573 56.2407 39.7494 56.3626 38.503 55.2576L33.8824 51.1611" stroke="#101010" stroke-linecap="round" stroke-linejoin="round"/>
</svg>
