<svg width="92" height="92" viewBox="0 0 92 92" fill="none" xmlns="http://www.w3.org/2000/svg">
<path fill-rule="evenodd" clip-rule="evenodd" d="M47.0417 22.2034C50.1529 22.2034 52.675 20.4277 52.675 18.2373C52.675 16.0469 50.1529 14.2712 47.0417 14.2712C43.9305 14.2712 41.4083 16.0469 41.4083 18.2373C41.4083 20.4277 43.9305 22.2034 47.0417 22.2034ZM50.4493 20.2241C51.2838 19.6366 51.675 18.9192 51.675 18.2373C51.675 17.5553 51.2838 16.838 50.4493 16.2505C49.6177 15.665 48.416 15.2712 47.0417 15.2712C45.6673 15.2712 44.4656 15.665 43.634 16.2505C42.7995 16.838 42.4083 17.5553 42.4083 18.2373C42.4083 18.9192 42.7995 19.6366 43.634 20.2241C44.4656 20.8096 45.6673 21.2034 47.0417 21.2034C48.416 21.2034 49.6177 20.8096 50.4493 20.2241Z" fill="#101010"/>
<path fill-rule="evenodd" clip-rule="evenodd" d="M43.5593 9.41516V9C43.5593 7.61929 44.6786 6.5 46.0593 6.5H48.024C49.4047 6.5 50.524 7.61929 50.524 9V9.36773C53.0681 9.69142 55.6053 10.3214 57.6822 10.9557C60.2266 11.7328 61.7907 14.1415 61.7907 16.7494V26.3305H63.6146C64.8034 26.3305 65.7671 27.2942 65.7671 28.483C65.7671 29.6719 64.8034 30.6356 63.6146 30.6356H61.1279C61.1275 36.562 61.0984 39.7705 59.5037 42.5895C57.8693 45.4786 53.8171 49.1441 47.373 49.1441C47.3499 49.1441 47.3271 49.1425 47.3048 49.1395C47.2826 49.1425 47.2599 49.144 47.2369 49.144C40.787 49.144 36.7291 45.5156 35.0913 42.6523C33.4775 39.8308 33.4638 36.6153 33.4638 30.6356H29.806C28.6171 30.6356 27.6534 29.6719 27.6534 28.483C27.6534 27.2942 28.6171 26.3305 29.806 26.3305H32.2927V16.8277C32.2927 14.1765 33.9081 11.742 36.4966 10.9766C38.5645 10.3651 41.0656 9.75432 43.5593 9.41516ZM44.5593 9C44.5593 8.17157 45.2309 7.5 46.0593 7.5H48.024C48.8524 7.5 49.524 8.17157 49.524 9V9.25689C48.7525 9.18448 47.9859 9.14404 47.2369 9.14404C46.3676 9.14404 45.4679 9.19852 44.5593 9.29421V9ZM33.2927 26.3305H60.7907V16.7494C60.7907 14.5277 59.4647 12.5457 57.3901 11.9121C54.4485 11.0137 50.629 10.144 47.2369 10.144C43.8155 10.144 39.8475 11.0286 36.7802 11.9356C34.6618 12.562 33.2927 14.5706 33.2927 16.8277V26.3305ZM34.4638 30.6356C34.4648 36.7089 34.5043 39.6119 35.9594 42.1558C37.4446 44.7525 41.1945 48.144 47.2369 48.144C47.26 48.144 47.2828 48.1456 47.3051 48.1487C47.3273 48.1457 47.35 48.1441 47.373 48.1441C53.4041 48.1441 57.1489 44.7212 58.6333 42.0971C60.0738 39.5508 60.1261 36.6482 60.1279 30.6356H34.4638ZM28.6534 28.483C28.6534 27.8465 29.1694 27.3305 29.806 27.3305H63.6146C64.2511 27.3305 64.7671 27.8465 64.7671 28.483C64.7671 29.1196 64.2511 29.6356 63.6146 29.6356H29.806C29.1694 29.6356 28.6534 29.1196 28.6534 28.483Z" fill="#101010"/>
<path fill-rule="evenodd" clip-rule="evenodd" d="M37.8955 51.4635C35.1409 49.8935 31.8243 49.6523 28.8716 50.8073L25.2612 52.2194C18.168 54.9938 13.5 61.8319 13.5 69.4484V85.4999H25.465L25.4706 85.5L25.4762 85.4999H68.2885L68.2941 85.5L68.2997 85.4999H79.5V69.2676C79.5 61.744 74.9437 54.9698 67.9755 52.133L64.9538 50.9029C61.9702 49.6883 58.5942 49.9104 55.7955 51.5055L46.8824 56.5854L37.8955 51.4635ZM68.7941 84.4999H78.5V69.2676C78.5 62.1507 74.19 55.7426 67.5984 53.0592L64.5767 51.8291C64.5363 51.8126 64.4958 51.7965 64.4553 51.7806L56.1295 61.3149C54.8513 62.7787 52.6254 62.9209 51.1713 61.6317L46.8824 57.8293L42.5935 61.6317C41.1394 62.9209 38.9135 62.7787 37.6353 61.3149L29.2999 51.7696C29.2878 51.7558 29.2766 51.7414 29.2663 51.7267L29.2358 51.7386L25.6254 53.1507C18.9156 55.7752 14.5 62.2436 14.5 69.4484V84.4999H24.9706V70.1271C24.9706 69.8509 25.1945 69.6271 25.4706 69.6271C25.7468 69.6271 25.9706 69.8509 25.9706 70.1271V84.4999H33.3824V68.2202C33.3824 67.9441 33.6062 67.7202 33.8824 67.7202H59.5C59.7761 67.7202 60 67.9441 60 68.2202V84.4999H67.7941V70.1271C67.7941 69.8509 68.018 69.6271 68.2941 69.6271C68.5702 69.6271 68.7941 69.8509 68.7941 70.1271V84.4999ZM47.7362 57.2498L51.8347 60.8835C52.8733 61.8043 54.4632 61.7027 55.3762 60.6572L63.4223 51.4432C61.0307 50.811 58.4676 51.1335 56.2907 52.3743L47.7362 57.2498ZM37.4004 52.3323L46.0286 57.2498L41.9301 60.8835C40.8914 61.8043 39.3015 61.7027 38.3885 60.6572L30.2989 51.3933C32.6835 50.7713 35.234 51.0976 37.4004 52.3323ZM49.4412 68.7202H43.9412V73.4406H49.4412V68.7202ZM42.9412 68.7202V73.9406C42.9412 74.2167 43.165 74.4406 43.4412 74.4406H49.9412C50.2173 74.4406 50.4412 74.2167 50.4412 73.9406V68.7202H59V84.4999H34.3824V68.7202H42.9412Z" fill="#101010"/>
</svg>
