<svg width="32" height="32" viewBox="0 0 32 32" stroke="none" stroke-width="0" xmlns="http://www.w3.org/2000/svg">
<path fill-rule="evenodd" clip-rule="evenodd" d="M12.2699 4.12431C12.369 3.8421 12.6271 3.6537 12.9563 3.6537H20.4318C20.739 3.6537 21.0154 3.81913 21.1367 4.09524C21.2609 4.3781 21.1885 4.69748 20.9663 4.92736L19.6096 6.33154L24.1714 26.6011C24.2852 27.0272 24.1628 27.4576 23.9378 27.7727C23.7125 28.0882 23.3407 28.3463 22.8971 28.3463H10.491C9.5913 28.3463 8.91623 27.5246 9.13592 26.6067L13.7019 6.40027L12.4072 4.91145C12.3943 4.89659 12.3825 4.88082 12.3718 4.86426C12.2348 4.65163 12.1815 4.37585 12.2699 4.12431ZM13.12 4.47679L14.4598 6.01753C14.5458 6.11645 14.5796 6.25042 14.5507 6.37828L9.93681 26.7968C9.84073 27.1945 10.1194 27.5232 10.491 27.5232H22.8971C23.0102 27.5232 23.1553 27.4521 23.268 27.2943C23.3792 27.1386 23.4157 26.9563 23.3752 26.8096C23.3734 26.8033 23.3718 26.7969 23.3704 26.7905L18.7579 6.29563C18.7275 6.16042 18.7671 6.01898 18.8634 5.91931L20.2572 4.47679H13.12Z" stroke="none"/>
<path fill-rule="evenodd" clip-rule="evenodd" d="M7.70459 10.2384C7.81861 10.2376 7.92787 10.2841 8.00632 10.3668L12.1417 14.7292C12.298 14.8941 12.2911 15.1546 12.1261 15.311C11.9612 15.4673 11.7007 15.4604 11.5443 15.2954L7.71212 11.2529L6.60268 12.4585L10.8674 22.0888C10.9594 22.2966 10.8655 22.5397 10.6577 22.6318C10.4499 22.7238 10.2068 22.6299 10.1148 22.4221L5.74083 12.5451C5.67448 12.3952 5.70333 12.2203 5.81428 12.0998L7.4048 10.3713C7.48201 10.2874 7.59057 10.2393 7.70459 10.2384Z" stroke="none"/>
<path fill-rule="evenodd" clip-rule="evenodd" d="M7.06605 9.03395L4.52891 11.8099L5.97933 11.885C6.20632 11.8967 6.3808 12.0902 6.36905 12.3172C6.35731 12.5442 6.16378 12.7187 5.93679 12.7069L4.35447 12.6251C3.99464 12.6181 3.79196 12.3263 3.71737 12.141C3.64307 11.9564 3.5875 11.611 3.82812 11.3566L6.58971 8.33508C6.80497 8.03803 7.16162 8.01302 7.41333 8.12157C7.66834 8.23154 7.87607 8.49135 7.88053 8.82794L7.95969 10.5486C7.97014 10.7756 7.79455 10.9681 7.5675 10.9786C7.34045 10.989 7.14792 10.8134 7.13747 10.5864L7.06605 9.03395Z" stroke="none"/>
<path fill-rule="evenodd" clip-rule="evenodd" d="M23.7841 10.2454C22.6979 10.3837 21.5699 11.0062 20.88 12.3968C20.779 12.6004 20.532 12.6835 20.3284 12.5825C20.1248 12.4815 20.0417 12.2345 20.1427 12.0309C20.9638 10.3761 22.3408 9.59938 23.6802 9.42894C24.9916 9.26206 26.3114 9.67442 27.0194 10.456C28.3139 11.8851 28.9203 14.0491 27.6318 16.3628C27.3231 16.9325 26.9193 17.3689 26.4941 17.7553C26.2823 17.9478 26.0614 18.1311 25.8448 18.3104L25.8252 18.3267C25.6132 18.5022 25.4048 18.6748 25.1993 18.8584C24.3704 19.5994 23.5946 20.5149 23.22 22.2596C23.1723 22.4818 22.9534 22.6233 22.7312 22.5756C22.509 22.5279 22.3675 22.309 22.4152 22.0868C22.8359 20.1276 23.7301 19.0677 24.6508 18.2448C24.8681 18.0505 25.0872 17.8691 25.2962 17.6961L25.3199 17.6765C25.5382 17.4957 25.7448 17.324 25.9406 17.1462C26.33 16.7923 26.6613 16.4269 26.9091 15.9688L26.9116 15.9643C28.0072 13.9988 27.5003 12.2129 26.4094 11.0086C25.9244 10.4732 24.8983 10.1037 23.7841 10.2454Z" stroke="none"/>
<path d="M20.6704 14.0247H12.5587C12.3997 14.0247 12.2406 13.8601 12.2406 13.6132C12.2406 13.3662 12.3997 13.2016 12.5587 13.2016H20.6704C20.8295 13.2016 20.9885 13.3662 20.9885 13.6132C20.9885 13.8601 20.8295 14.0247 20.6704 14.0247Z" stroke="none"/>
<path d="M19.2389 6.7815H14.1493C14.0697 6.7815 13.9902 6.61688 13.9902 6.36995C13.9902 6.12303 14.0697 5.95841 14.1493 5.95841H19.2389C19.3184 5.95841 19.398 6.12303 19.398 6.36995C19.398 6.61688 19.3184 6.7815 19.2389 6.7815Z" stroke="none"/>
<path d="M22.8176 24.6424H10.2525C10.0934 24.6424 10.0139 24.3955 10.0139 24.2309C10.0139 24.0663 10.1729 23.8194 10.332 23.8194H22.8971C23.0562 23.8194 23.2152 23.984 23.2152 24.2309C23.2152 24.4778 22.9766 24.6424 22.8176 24.6424Z" stroke="none"/>
<path d="M16.6145 16.8231C16.7736 16.8231 16.9326 16.9054 17.0917 17.07L17.2508 17.3992C17.3303 17.5639 17.4893 17.6462 17.6484 17.6462H18.046C18.4436 17.6462 18.6822 18.14 18.5232 18.4693L18.3641 18.7985C18.2846 18.9631 18.2846 19.1277 18.3641 19.2923L18.5232 19.6216C18.6822 19.9508 18.4436 20.4447 18.046 20.4447H17.6484C17.4893 20.4447 17.3303 20.527 17.2508 20.6916L17.0917 21.0208C17.0122 21.1854 16.8531 21.2677 16.6145 21.2677C16.376 21.2677 16.2964 21.1854 16.1374 21.0208L15.9783 20.6916C15.8988 20.527 15.7398 20.4447 15.5807 20.4447H15.1831C14.7854 20.4447 14.5469 19.9508 14.7059 19.6216L14.865 19.2923C14.9445 19.1277 14.9445 18.9631 14.865 18.7985L14.7059 18.4693C14.5469 18.14 14.7854 17.6462 15.1831 17.6462H15.5807C15.7398 17.6462 15.8988 17.5639 15.9783 17.3992L16.1374 17.07C16.2964 16.9054 16.4555 16.8231 16.6145 16.8231ZM16.6145 16C16.1374 16 15.7398 16.2469 15.5012 16.6585L15.3421 16.8231H15.1035C14.6264 16.8231 14.2288 17.07 13.9902 17.4815C13.7516 17.8931 13.7516 18.3869 13.9902 18.7985L14.0697 19.0454L13.9902 19.3746C13.7516 19.7862 13.7516 20.28 13.9902 20.6916C14.2288 21.1031 14.6264 21.3501 15.1035 21.3501H15.3421L15.5012 21.597C15.7398 22.0085 16.1374 22.2554 16.6145 22.2554C17.0917 22.2554 17.4893 22.0085 17.7279 21.597L17.887 21.3501H18.1255C18.6027 21.3501 19.0003 21.1031 19.2389 20.6916C19.4775 20.28 19.4775 19.7862 19.2389 19.3746L19.1594 19.1277L19.2389 18.8808C19.4775 18.4693 19.4775 17.9754 19.2389 17.5639C19.0003 17.1523 18.6027 16.9054 18.1255 16.9054H17.887L17.7279 16.6585C17.4893 16.2469 17.0917 16 16.6145 16Z" stroke="none"/>
<path d="M16.6149 19.7862C16.9664 19.7862 17.2514 19.4914 17.2514 19.1278C17.2514 18.7641 16.9664 18.4693 16.6149 18.4693C16.2633 18.4693 15.9784 18.7641 15.9784 19.1278C15.9784 19.4914 16.2633 19.7862 16.6149 19.7862Z" stroke="none"/>
</svg>
