<svg width="80" height="76" viewBox="0 0 80 76" fill="none" xmlns="http://www.w3.org/2000/svg">
<rect x="8.57703" y="20.1803" width="48.4404" height="7.52011" rx="1" stroke="#101010"/>
<path d="M12.355 27.9205V52.8948C12.355 54.5516 13.6982 55.8948 15.355 55.8948H24.108M53.2392 27.9205V44.2758M28.9876 20.1703V44.2758M36.5812 20.1703V44.2758" stroke="black"/>
<path d="M29.7874 15.1535L32.7609 19.878L35.7238 15.2774C36.6596 13.8244 37.3345 12.0008 36.401 10.5464C35.7975 9.60605 34.7123 8.76065 32.7609 8.76068C30.7219 8.76072 29.6501 9.68382 29.0869 10.6737C28.2832 12.0864 28.9217 13.778 29.7874 15.1535Z" stroke="#101010" stroke-linecap="round" stroke-linejoin="round"/>
<path d="M36.1792 14.8226L33.4282 19.7807L39.0939 19.9886C40.7864 20.0506 42.635 19.7325 43.4702 18.2949C44.0445 17.3063 44.303 15.9301 43.2926 14.222C42.2393 12.4415 40.8281 12.0261 39.6437 12.0764C38.0536 12.1439 36.9377 13.4555 36.1792 14.8226Z" stroke="#101010" stroke-linecap="round" stroke-linejoin="round"/>
<path d="M29.4154 14.8226L32.1664 19.7807L26.5008 19.9886C24.8083 20.0506 22.9597 19.7325 22.1245 18.2949C21.5502 17.3063 21.2917 15.9301 22.3021 14.222C23.3554 12.4415 24.7666 12.0261 25.9509 12.0764C27.5411 12.1439 28.6569 13.4555 29.4154 14.8226Z" stroke="#101010" stroke-linecap="round" stroke-linejoin="round"/>
<path d="M30.8478 63.2335L44.186 50.2255" stroke="#101010" stroke-linecap="round" stroke-linejoin="round"/>
<path d="M45.0402 60.6233C45.0402 62.1159 43.796 63.347 42.2347 63.347C40.6733 63.347 39.4291 62.1159 39.4291 60.6233C39.4291 59.1308 40.6733 57.8996 42.2347 57.8996C43.796 57.8996 45.0402 59.1308 45.0402 60.6233Z" stroke="#101010"/>
<path d="M35.9613 52.1223C35.9613 53.6149 34.7171 54.8461 33.1558 54.8461C31.5944 54.8461 30.3502 53.6149 30.3502 52.1223C30.3502 50.6298 31.5944 49.3986 33.1558 49.3986C34.7171 49.3986 35.9613 50.6298 35.9613 52.1223Z" stroke="#101010"/>
<path d="M55.3737 49.9282H65.779M52.5286 54.601H65.779M65.779 59.8685H60.2512" stroke="#101010" stroke-linecap="round" stroke-linejoin="round"/>
<rect x="24.4503" y="44.5354" width="46.8074" height="23.1034" rx="5" stroke="#101010" stroke-linecap="round" stroke-linejoin="round"/>
</svg>
