<svg width="77" height="76" viewBox="0 0 77 76" fill="none" xmlns="http://www.w3.org/2000/svg">
<path d="M46.5299 50.7504C46.4349 50.4911 46.1477 50.3577 45.8884 50.4525L36.4092 53.9194C36.1499 54.0143 36.0167 54.3014 36.1117 54.5607C36.2066 54.8201 36.4938 54.9535 36.7531 54.8586L46.2324 51.3917C46.4917 51.2969 46.6249 51.0098 46.5299 50.7504Z" fill="#101010"/>
<path d="M45.84 54.0993C46.0993 54.0044 46.3865 54.1378 46.4814 54.3972C46.5764 54.6565 46.4432 54.9436 46.1839 55.0385L42.931 56.2282C42.6717 56.323 42.3845 56.1896 42.2895 55.9303C42.1946 55.6709 42.3278 55.3838 42.5871 55.289L45.84 54.0993Z" fill="#101010"/>
<path d="M39.0461 56.584C39.3054 56.4892 39.5926 56.6226 39.6876 56.8819C39.7825 57.1413 39.6493 57.4284 39.39 57.5232L36.7047 58.5054C36.4454 58.6002 36.1582 58.4668 36.0632 58.2075C35.9682 57.9481 36.1014 57.661 36.3607 57.5662L39.0461 56.584Z" fill="#101010"/>
<path fill-rule="evenodd" clip-rule="evenodd" d="M65.4346 40.9954C65.4346 43.7357 63.2583 45.9571 60.5737 45.9571C57.8892 45.9571 55.7129 43.7357 55.7129 40.9954C55.7129 38.2551 57.8892 36.0337 60.5737 36.0337C63.2583 36.0337 65.4346 38.2551 65.4346 40.9954ZM64.4346 40.9954C64.4346 43.2029 62.6867 44.9571 60.5737 44.9571C58.4607 44.9571 56.7129 43.2029 56.7129 40.9954C56.7129 38.7879 58.4607 37.0337 60.5737 37.0337C62.6867 37.0337 64.4346 38.7879 64.4346 40.9954Z" fill="#101010"/>
<path fill-rule="evenodd" clip-rule="evenodd" d="M32.3517 11.0296C32.2401 10.9894 32.1178 10.9902 32.0067 11.0318L4.94066 21.1808C4.7455 21.2539 4.61621 21.4405 4.61621 21.6489V54.9149C4.61621 55.1267 4.74965 55.3155 4.9493 55.3862L32.0153 64.9713C32.1217 65.009 32.2378 65.0096 32.3446 64.9729L57.5368 56.3221L60.2678 61.0264C60.3585 61.1827 60.5265 61.2778 60.7071 61.2753C60.8878 61.2728 61.053 61.1731 61.1394 61.0144L69.8522 45.0059C70.9971 42.9023 71.7445 40.4132 71.0041 37.99C70.5147 36.388 69.6245 34.5144 67.9999 33.0387C66.3901 31.5763 64.0945 30.5375 60.853 30.5059V21.6489C60.853 21.4381 60.7207 21.25 60.5224 21.1785L32.3517 11.0296ZM51.2979 45.5755L57.025 55.4405L32.6822 63.7996V31.5921L59.853 22.3472V30.5286C57.1695 30.6794 55.1316 31.5454 53.594 32.7506C51.9059 34.0739 50.8498 35.7832 50.1909 37.3314C49.0122 40.101 49.8692 43.1147 51.2979 45.5755ZM31.6822 31.5874V63.7925L5.61621 54.5615V22.3564L14.0262 25.3348L14.0261 38.4867C14.0261 38.646 14.102 38.7957 14.2304 38.8899C14.3589 38.9841 14.5245 39.0114 14.6764 38.9635L18.5442 37.7442L22.8978 41.8602C23.0429 41.9974 23.2557 42.0351 23.4391 41.9561C23.6225 41.8771 23.7413 41.6965 23.7413 41.4969V28.7752L31.6822 31.5874ZM24.5866 28.0137L32.1855 30.7048L58.8403 21.6355L50.6271 18.6765L24.5866 28.0137ZM49.1493 18.1441L23.0961 27.4859L15.8532 24.9209L42.0965 15.6032L49.1493 18.1441ZM40.613 15.0688L32.1857 12.0327L6.57611 21.6355L14.3569 24.391L14.359 24.3903L40.613 15.0688ZM15.0262 25.6889L22.7413 28.4211V40.3361L19.0177 36.8157C18.8858 36.691 18.6968 36.6476 18.5238 36.7021L15.0261 37.8048L15.0262 25.6889ZM54.2109 33.5376C52.6932 34.7274 51.7255 36.2791 51.1111 37.723C50.1131 40.0679 50.8005 42.7271 52.1627 45.0734L60.6862 59.7553L68.9739 44.5279C70.0644 42.5243 70.6737 40.3311 70.0477 38.2822C69.5906 36.7859 68.7754 35.0941 67.3275 33.7789C65.8901 32.4731 63.7928 31.5051 60.7002 31.5051C57.8053 31.5051 55.7213 32.3537 54.2109 33.5376Z" fill="#101010"/>
<path d="M17.1945 48.134C17.1945 47.4493 17.867 46.9671 18.5154 47.1869L26.9124 50.0323C27.3184 50.1698 27.5915 50.5508 27.5915 50.9794V56.7713C27.5915 57.456 26.919 57.9381 26.2705 57.7184L17.8735 54.873C17.4676 54.7354 17.1945 54.3545 17.1945 53.9259V48.134Z" fill="#F6F6F6"/>
<path d="M17.1914 49.3828L27.5917 52.7305V55.4727L17.1914 52.0107V49.3828Z" fill="#3085F8"/>
<path fill-rule="evenodd" clip-rule="evenodd" d="M18.8363 46.2399L27.2333 49.0854C28.0452 49.3605 28.5915 50.1223 28.5915 50.9796V56.7715C28.5915 58.1408 27.2464 59.1051 25.9496 58.6657L17.5526 55.8203C16.7407 55.5452 16.1944 54.7833 16.1944 53.9261V48.1341C16.1944 46.7648 17.5395 45.8005 18.8363 46.2399ZM18.5154 47.187C17.867 46.9673 17.1944 47.4495 17.1944 48.1341V53.9261C17.1944 54.3547 17.4676 54.7356 17.8735 54.8732L26.2705 57.7186C26.9189 57.9383 27.5915 57.4561 27.5915 56.7715V50.9796C27.5915 50.5509 27.3183 50.17 26.9124 50.0325L18.5154 47.187Z" fill="#101010"/>
<path d="M17.1944 53.9261V52.0039L27.5915 55.4655V56.7715C27.5915 57.4561 26.9189 57.9383 26.2705 57.7186L17.8735 54.8732C17.4676 54.7356 17.1944 54.3547 17.1944 53.9261Z" fill="#F61D2A"/>
<path d="M27.5915 50.9796V52.7249L17.1944 49.375V48.1341C17.1944 47.4495 17.867 46.9673 18.5154 47.187L26.9124 50.0325C27.3183 50.17 27.5915 50.5509 27.5915 50.9796Z" fill="white"/>
</svg>
