<svg width="76" height="76" viewBox="0 0 76 76" fill="none" xmlns="http://www.w3.org/2000/svg">
<path d="M49.3637 65.2707C49.3637 65.2707 37.9397 68.0001 34.3387 68.0001C31.8553 68.0001 25.2741 64.1542 21.673 62.2933C20.8038 61.7971 20.6797 60.6805 21.4247 60.0602C21.7972 59.8121 22.1697 59.688 22.5423 59.8121L31.4827 62.2933" stroke="black" stroke-miterlimit="10" stroke-linecap="round" stroke-linejoin="round"/>
<path d="M49.3637 59.0679C49.3637 59.0679 43.9001 57.9513 40.2991 59.1919C37.5673 60.1844 33.7179 61.5491 32.1036 62.0453C31.607 62.1694 31.2344 62.5416 31.2344 63.0378C31.2344 63.6581 31.7311 64.2784 32.4762 64.2784L37.9398 63.9062" stroke="black" stroke-miterlimit="10" stroke-linecap="round" stroke-linejoin="round"/>
<rect x="49.9846" y="56.9812" width="3.95699" height="10.6692" rx="1" stroke="#101010" stroke-linecap="round" stroke-linejoin="round"/>
<path d="M61 44.9988L37.7527 53.1015V23.5188L61 16.2444V44.9988Z" stroke="#101010" stroke-linecap="round" stroke-linejoin="round"/>
<path d="M15 16.2443L37.7527 23.5188M15 16.2443V44.9987L37.7527 53.1015M15 16.2443L27.3656 11.7637M61 16.2443L37.7527 7.99998L27.3656 11.7637M27.3656 11.7637L49.129 19.7656" stroke="#101010" stroke-linecap="round" stroke-linejoin="round"/>
<path d="M42.1868 41.2023L51.09 38.2932V44.3658L42.1868 47.2749V41.2023Z" stroke="#101010" stroke-linecap="round" stroke-linejoin="round"/>
<path d="M46.6559 42.4324V34.188M46.6559 34.188L45.172 36.1278M46.6559 34.188L48.1397 35.1579" stroke="#101010" stroke-linecap="round" stroke-linejoin="round"/>
</svg>
