<svg width="76" height="76" viewBox="0 0 76 76" fill="none" xmlns="http://www.w3.org/2000/svg">
<path d="M54.7968 29.2291V16.5C54.7968 14.2909 53.0059 12.5 50.7968 12.5H19.8747C17.6656 12.5 15.8747 14.2909 15.8747 16.5V50.4162M54.7968 29.2291V50.4162M54.7968 29.2291H58.6055M68.3348 38.4064L65.3554 30.5221C65.0613 29.744 64.3163 29.2291 63.4845 29.2291H58.6055M68.3348 38.4064L71.3496 40.0109C72.8268 40.7972 73.7499 42.3342 73.7499 44.0076V44.0076M68.3348 38.4064H60.6055C59.5009 38.4064 58.6055 37.511 58.6055 36.4064V29.2291M54.7968 50.4162H30.9851M54.7968 50.4162H58.8624M15.8747 50.4162V53.6084C15.8747 54.1606 16.3225 54.6084 16.8747 54.6084H19.8342M15.8747 50.4162H21.1208M73.7499 50.4162V53.6084C73.7499 54.1606 73.3022 54.6084 72.7499 54.6084H70.4422M73.7499 50.4162V46.5438M73.7499 50.4162H68.7267M73.7499 46.5438H72.0741C71.5218 46.5438 71.0741 46.0961 71.0741 45.5438V45.0076C71.0741 44.4554 71.5218 44.0076 72.0741 44.0076H73.7499M73.7499 46.5438V44.0076M32.7006 54.6084H57.1469" stroke="#101010"/>
<path d="M32.5569 54.6086C32.5569 58.1405 29.7065 61.0001 26.1948 61.0001C22.6831 61.0001 19.8327 58.1405 19.8327 54.6086C19.8327 51.0766 22.6831 48.217 26.1948 48.217C29.7065 48.217 32.5569 51.0766 32.5569 54.6086Z" stroke="#101010"/>
<path d="M28.1336 54.4732C28.1336 55.6264 27.2034 56.5575 26.0604 56.5575C24.9173 56.5575 23.9871 55.6264 23.9871 54.4732C23.9871 53.3201 24.9173 52.3889 26.0604 52.3889C27.2034 52.3889 28.1336 53.3201 28.1336 54.4732Z" stroke="#101010"/>
<path d="M65.8912 54.4732C65.8912 55.6264 64.9609 56.5575 63.8179 56.5575C62.6749 56.5575 61.7446 55.6264 61.7446 54.4732C61.7446 53.3201 62.6749 52.3889 63.8179 52.3889C64.9609 52.3889 65.8912 53.3201 65.8912 54.4732Z" stroke="#101010"/>
<path d="M70.1801 54.6086C70.1801 58.1405 67.3297 61.0001 63.818 61.0001C60.3063 61.0001 57.4559 58.1405 57.4559 54.6086C57.4559 51.0766 60.3063 48.217 63.818 48.217C67.3297 48.217 70.1801 51.0766 70.1801 54.6086Z" stroke="#101010"/>
<rect x="23.694" y="25.9216" width="23.1596" height="4.30719" stroke="#101010" stroke-linecap="round" stroke-linejoin="round"/>
<path d="M45.1381 30.2288V41.1503C45.1381 42.2549 44.2426 43.1503 43.1381 43.1503H27.4095C26.3049 43.1503 25.4095 42.2549 25.4095 41.1503V30.2288" stroke="#101010"/>
<path d="M34.3704 25.9211C34.3704 25.3468 34.3704 23.9398 34.3704 22.9061M34.3704 22.9061C34.3704 21.6139 31.7971 20.7525 30.5105 22.0446C29.2238 23.3368 29.6528 25.0602 30.5105 25.9216M34.3704 22.9061C34.7994 20.3222 37.6939 20.0093 39.0881 21.1831C40.3748 22.2664 40.3748 24.1982 38.6592 25.9211" stroke="#101010"/>
<path d="M32.2717 30.2288V43.1503M37.4183 30.2288V43.1503" stroke="#101010"/>
<path d="M15.7408 21.5043H8.74556M15.7408 25.3807H2.24994M15.7408 29.2572H6.74691" stroke="#101010" stroke-linecap="round" stroke-linejoin="round"/>
</svg>
