<svg width="76" height="76" viewBox="0 0 76 76" fill="none" xmlns="http://www.w3.org/2000/svg">
<path d="M32.066 64.5V31.234M32.066 64.5L5 54.9149V21.6489M32.066 64.5L57.5534 55.7478M32.066 31.234L60.2368 21.6489M32.066 31.234L5 21.6489M60.2368 21.6489L32.066 11.5L5 21.6489M60.2368 21.6489V30.7193" stroke="#101010" stroke-linecap="round" stroke-linejoin="round"/>
<path d="M41.8449 15.1208L14.4101 24.8615L14.4099 38.4868L18.558 37.1791L23.1251 41.497V27.9651L50.3855 18.1905" stroke="#101010" stroke-linecap="round" stroke-linejoin="round"/>
<path d="M45.9442 50.9221L36.4649 54.389" stroke="#101010" stroke-linecap="round" stroke-linejoin="round"/>
<path d="M45.8957 54.5688L42.6428 55.7586M36.4164 58.0357L39.1018 57.0536" stroke="#101010" stroke-linecap="round" stroke-linejoin="round"/>
<path d="M60.584 60.7754L60.1516 61.0264C60.2423 61.1827 60.4102 61.2778 60.5909 61.2753C60.7715 61.2728 60.9368 61.1731 61.0232 61.0144L60.584 60.7754ZM61.0164 60.5243L52.0464 45.0734L51.1816 45.5755L60.1516 61.0264L61.0164 60.5243ZM50.9948 37.723C51.6093 36.2791 52.577 34.7274 54.0947 33.5376C55.6051 32.3537 57.6891 31.5051 60.584 31.5051V30.5051C57.4771 30.5051 55.1732 31.4216 53.4778 32.7506C51.7896 34.0739 50.7336 35.7832 50.0747 37.3314L50.9948 37.723ZM60.584 31.5051C63.6766 31.5051 65.7738 32.4731 67.2113 33.7789C68.6592 35.0941 69.4744 36.7859 69.9315 38.2822L70.8879 37.99C70.3984 36.388 69.5083 34.5144 67.8837 33.0387C66.2487 31.5535 63.9063 30.5051 60.584 30.5051V31.5051ZM68.8576 44.5279L60.1448 60.5363L61.0232 61.0144L69.736 45.0059L68.8576 44.5279ZM69.9315 38.2822C70.5575 40.3311 69.9481 42.5243 68.8576 44.5279L69.736 45.0059C70.8809 42.9023 71.6282 40.4132 70.8879 37.99L69.9315 38.2822ZM52.0464 45.0734C50.6843 42.7271 49.9969 40.0679 50.9948 37.723L50.0747 37.3314C48.896 40.101 49.753 43.1147 51.1816 45.5755L52.0464 45.0734Z" fill="black"/>
<path d="M64.8184 40.9954C64.8184 43.4693 62.8563 45.4571 60.4575 45.4571C58.0587 45.4571 56.0967 43.4693 56.0967 40.9954C56.0967 38.5215 58.0587 36.5337 60.4575 36.5337C62.8563 36.5337 64.8184 38.5215 64.8184 40.9954Z" stroke="#101010"/>
<mask id="path-7-outside-1" maskUnits="userSpaceOnUse" x="16.0783" y="45.1333" width="13" height="14" fill="black">
<rect fill="white" x="16.0783" y="45.1333" width="13" height="14"/>
<path d="M17.0783 48.1341C17.0783 47.4494 17.7508 46.9673 18.3992 47.187L26.7962 50.0324C27.2022 50.17 27.4753 50.5509 27.4753 50.9795V56.7714C27.4753 57.4561 26.8028 57.9383 26.1543 57.7185L17.7573 54.8731C17.3514 54.7356 17.0783 54.3546 17.0783 53.926V48.1341Z"/>
</mask>
<path d="M17.7573 54.8731L17.4364 55.8202L17.7573 54.8731ZM26.1543 57.7185L26.4753 56.7714L26.1543 57.7185ZM26.7962 50.0324L26.4753 50.9795L26.7962 50.0324ZM18.3992 47.187L18.7201 46.2399L18.3992 47.187ZM18.0783 48.1341L26.4753 50.9795L27.1172 49.0853L18.7201 46.2399L18.0783 48.1341ZM26.4753 50.9795V56.7714H28.4753V50.9795H26.4753ZM26.4753 56.7714L18.0783 53.926L17.4364 55.8202L25.8334 58.6656L26.4753 56.7714ZM18.0783 53.926V48.1341H16.0783V53.926H18.0783ZM18.0783 53.926L18.0783 53.926H16.0783C16.0783 54.7832 16.6245 55.5451 17.4364 55.8202L18.0783 53.926ZM26.4753 56.7714V56.7714L25.8334 58.6656C27.1303 59.1051 28.4753 58.1407 28.4753 56.7714H26.4753ZM26.4753 50.9795L26.4753 50.9795H28.4753C28.4753 50.1223 27.929 49.3604 27.1172 49.0853L26.4753 50.9795ZM18.7201 46.2399C17.4233 45.8004 16.0783 46.7648 16.0783 48.1341H18.0783V48.1341L18.7201 46.2399Z" fill="#101010" mask="url(#path-7-outside-1)"/>
<mask id="mask0" mask-type="alpha" maskUnits="userSpaceOnUse" x="17" y="47" width="11" height="11">
<path d="M17.0783 48.134C17.0783 47.4493 17.7508 46.9671 18.3992 47.1869L26.7962 50.0323C27.2022 50.1698 27.4753 50.5508 27.4753 50.9794V56.7713C27.4753 57.456 26.8028 57.9381 26.1543 57.7184L17.7573 54.873C17.3514 54.7355 17.0783 54.3545 17.0783 53.9259V48.134Z" fill="#F6F6F6"/>
</mask>
<g mask="url(#mask0)">
<path d="M16.7924 46.4661L27.5958 49.6238V52.9436L16.7924 49.6238L16.7924 46.4661Z" fill="white"/>
<path d="M16.5512 49.2024L27.4755 52.7195V55.4889L16.5512 51.865V49.2024Z" fill="#3085F8"/>
<path d="M16.6668 51.865L27.6949 55.5387V58.3754L16.7924 54.6431L16.6668 51.865Z" fill="#F61D2A"/>
</g>
</svg>
