<svg width="17" height="28" viewBox="0 0 17 28" fill="none" xmlns="http://www.w3.org/2000/svg">
<path fill-rule="evenodd" clip-rule="evenodd" d="M0.599976 4.00001C0.599976 2.12224 2.12221 0.600006 3.99998 0.600006H12.7C14.5777 0.600006 16.1 2.12224 16.1 4.00001V24.6C16.1 26.4778 14.5777 28 12.7 28H3.99997C2.1222 28 0.599976 26.4778 0.599976 24.6V4.00001ZM1.39998 23.9V24.6C1.39998 26.0359 2.56403 27.2 3.99997 27.2H12.7C14.1359 27.2 15.3 26.0359 15.3 24.6V23.9H1.39998ZM15.3 23.1H1.39998V6.40001H15.3V23.1ZM15.3 5.60001V4.00001C15.3 2.56407 14.1359 1.40001 12.7 1.40001H3.99998C2.56404 1.40001 1.39998 2.56407 1.39998 4.00001V5.60001H15.3ZM6.79996 3.19776C6.79996 2.97685 6.97905 2.79776 7.19996 2.79776H9.49996C9.72088 2.79776 9.89996 2.97685 9.89996 3.19776C9.89996 3.41867 9.72088 3.59776 9.49996 3.59776H7.19996C6.97905 3.59776 6.79996 3.41867 6.79996 3.19776Z" fill="#101010"/>
<circle cx="8.35001" cy="16.713" r="0.65" fill="#101010"/>
<ellipse cx="8.34997" cy="25.4647" rx="0.847895" ry="0.85" fill="#101010"/>
<path fill-rule="evenodd" clip-rule="evenodd" d="M8.30893 12.0743C6.90628 12.0673 5.76505 12.6006 5.14344 13.2719C4.99334 13.434 4.74026 13.4437 4.57817 13.2936C4.41608 13.1435 4.40636 12.8904 4.55647 12.7283C5.35145 11.8698 6.71898 11.2663 8.3129 11.2743C9.89562 11.2821 11.3521 11.8798 12.1425 12.7273C12.2932 12.8888 12.2843 13.142 12.1228 13.2926C11.9612 13.4433 11.7081 13.4345 11.5574 13.2729C10.9493 12.6208 9.72279 12.0813 8.30893 12.0743Z" fill="#101010"/>
<path d="M6.85021 15.1054C6.73713 15.2925 6.49432 15.3543 6.30533 15.2433C5.99333 15.0599 6.16471 14.6547 6.30534 14.5194C6.81608 13.9295 7.58586 13.683 8.35458 13.6918C9.11644 13.7006 9.65368 13.9285 10.0071 14.1713C10.153 14.2715 10.4219 14.4608 10.5333 14.6899C10.63 14.8885 10.589 15.1246 10.4005 15.2397C10.2135 15.354 9.96973 15.2964 9.85342 15.1114C9.49384 14.6632 8.90146 14.4982 8.34537 14.4918C7.82413 14.4858 7.1611 14.637 6.85021 15.1054Z" fill="#101010"/>
</svg>
