<svg width="250" height="131" viewBox="0 0 250 131" fill="none" xmlns="http://www.w3.org/2000/svg">
<mask id="path-1-inside-1" fill="white">
<path fill-rule="evenodd" clip-rule="evenodd" d="M237.923 39.7843C243.484 39.7843 248 35.2638 248 29.6764C248 24.0891 243.484 19.5686 237.923 19.5686C232.363 19.5686 227.847 24.0891 227.847 29.6764C227.847 35.2638 232.363 39.7843 237.923 39.7843ZM237.923 41.7843C244.593 41.7843 250 36.3634 250 29.6764C250 22.9895 244.593 17.5686 237.923 17.5686C231.254 17.5686 225.847 22.9895 225.847 29.6764C225.847 36.3634 231.254 41.7843 237.923 41.7843Z"/>
</mask>
<path fill-rule="evenodd" clip-rule="evenodd" d="M237.923 39.7843C243.484 39.7843 248 35.2638 248 29.6764C248 24.0891 243.484 19.5686 237.923 19.5686C232.363 19.5686 227.847 24.0891 227.847 29.6764C227.847 35.2638 232.363 39.7843 237.923 39.7843ZM237.923 41.7843C244.593 41.7843 250 36.3634 250 29.6764C250 22.9895 244.593 17.5686 237.923 17.5686C231.254 17.5686 225.847 22.9895 225.847 29.6764C225.847 36.3634 231.254 41.7843 237.923 41.7843Z" fill="#F61D2A"/>
<path d="M246 29.6764C246 34.1638 242.375 37.7843 237.923 37.7843V41.7843C244.593 41.7843 250 36.3637 250 29.6764H246ZM237.923 21.5686C242.375 21.5686 246 25.1891 246 29.6764H250C250 22.9892 244.593 17.5686 237.923 17.5686V21.5686ZM229.847 29.6764C229.847 25.1891 233.472 21.5686 237.923 21.5686V17.5686C231.254 17.5686 225.847 22.9892 225.847 29.6764H229.847ZM237.923 37.7843C233.472 37.7843 229.847 34.1638 229.847 29.6764H225.847C225.847 36.3637 231.254 41.7843 237.923 41.7843V37.7843ZM248 29.6764C248 35.2638 243.484 39.7843 237.923 39.7843V43.7843C245.703 43.7843 252 37.4631 252 29.6764H248ZM237.923 19.5686C243.484 19.5686 248 24.0891 248 29.6764H252C252 21.8898 245.703 15.5686 237.923 15.5686V19.5686ZM227.847 29.6764C227.847 24.0891 232.363 19.5686 237.923 19.5686V15.5686C230.144 15.5686 223.847 21.8898 223.847 29.6764H227.847ZM237.923 39.7843C232.363 39.7843 227.847 35.2638 227.847 29.6764H223.847C223.847 37.4631 230.144 43.7843 237.923 43.7843V39.7843Z" fill="#F61D2A" mask="url(#path-1-inside-1)"/>
<mask id="path-3-inside-2" fill="white">
<path fill-rule="evenodd" clip-rule="evenodd" d="M35.8022 92.8709C38.5541 92.8709 40.7938 90.6328 40.7938 87.8611C40.7938 85.0893 38.5541 82.8513 35.8022 82.8513C33.0503 82.8513 30.8105 85.0893 30.8105 87.8611C30.8105 90.6328 33.0503 92.8709 35.8022 92.8709ZM35.8022 94.8709C39.6635 94.8709 42.7938 91.7325 42.7938 87.8611C42.7938 83.9897 39.6635 80.8513 35.8022 80.8513C31.9408 80.8513 28.8105 83.9897 28.8105 87.8611C28.8105 91.7325 31.9408 94.8709 35.8022 94.8709Z"/>
</mask>
<path fill-rule="evenodd" clip-rule="evenodd" d="M35.8022 92.8709C38.5541 92.8709 40.7938 90.6328 40.7938 87.8611C40.7938 85.0893 38.5541 82.8513 35.8022 82.8513C33.0503 82.8513 30.8105 85.0893 30.8105 87.8611C30.8105 90.6328 33.0503 92.8709 35.8022 92.8709ZM35.8022 94.8709C39.6635 94.8709 42.7938 91.7325 42.7938 87.8611C42.7938 83.9897 39.6635 80.8513 35.8022 80.8513C31.9408 80.8513 28.8105 83.9897 28.8105 87.8611C28.8105 91.7325 31.9408 94.8709 35.8022 94.8709Z" fill="#F61D2A"/>
<path d="M38.7938 87.8611C38.7938 89.5325 37.4452 90.8709 35.8022 90.8709V94.8709C39.663 94.8709 42.7938 91.7331 42.7938 87.8611H38.7938ZM35.8022 84.8513C37.4452 84.8513 38.7938 86.1896 38.7938 87.8611H42.7938C42.7938 83.9891 39.663 80.8513 35.8022 80.8513V84.8513ZM32.8105 87.8611C32.8105 86.1896 34.1591 84.8513 35.8022 84.8513V80.8513C31.9414 80.8513 28.8105 83.9891 28.8105 87.8611H32.8105ZM35.8022 90.8709C34.1591 90.8709 32.8105 89.5325 32.8105 87.8611H28.8105C28.8105 91.7331 31.9414 94.8709 35.8022 94.8709V90.8709ZM40.7938 87.8611C40.7938 90.6328 38.5541 92.8709 35.8022 92.8709V96.8709C40.773 96.8709 44.7938 92.8321 44.7938 87.8611H40.7938ZM35.8022 82.8513C38.5541 82.8513 40.7938 85.0893 40.7938 87.8611H44.7938C44.7938 82.89 40.773 78.8513 35.8022 78.8513V82.8513ZM30.8105 87.8611C30.8105 85.0893 33.0503 82.8513 35.8022 82.8513V78.8513C30.8313 78.8513 26.8105 82.89 26.8105 87.8611H30.8105ZM35.8022 92.8709C33.0503 92.8709 30.8105 90.6328 30.8105 87.8611H26.8105C26.8105 92.8321 30.8313 96.8709 35.8022 96.8709V92.8709Z" fill="#F61D2A" mask="url(#path-3-inside-2)"/>
<mask id="path-5-inside-3" fill="white">
<path fill-rule="evenodd" clip-rule="evenodd" d="M203.601 49.9804C205.651 49.9804 207.321 48.313 207.321 46.2451C207.321 44.1773 205.651 42.5098 203.601 42.5098C201.551 42.5098 199.88 44.1773 199.88 46.2451C199.88 48.313 201.551 49.9804 203.601 49.9804ZM203.601 51.9804C206.76 51.9804 209.321 49.4126 209.321 46.2451C209.321 43.0776 206.76 40.5098 203.601 40.5098C200.442 40.5098 197.88 43.0776 197.88 46.2451C197.88 49.4126 200.442 51.9804 203.601 51.9804Z"/>
</mask>
<path fill-rule="evenodd" clip-rule="evenodd" d="M203.601 49.9804C205.651 49.9804 207.321 48.313 207.321 46.2451C207.321 44.1773 205.651 42.5098 203.601 42.5098C201.551 42.5098 199.88 44.1773 199.88 46.2451C199.88 48.313 201.551 49.9804 203.601 49.9804ZM203.601 51.9804C206.76 51.9804 209.321 49.4126 209.321 46.2451C209.321 43.0776 206.76 40.5098 203.601 40.5098C200.442 40.5098 197.88 43.0776 197.88 46.2451C197.88 49.4126 200.442 51.9804 203.601 51.9804Z" fill="#F61D2A"/>
<path d="M205.321 46.2451C205.321 47.2125 204.542 47.9804 203.601 47.9804V51.9804C206.759 51.9804 209.321 49.4134 209.321 46.2451H205.321ZM203.601 44.5098C204.542 44.5098 205.321 45.2777 205.321 46.2451H209.321C209.321 43.0768 206.759 40.5098 203.601 40.5098V44.5098ZM201.88 46.2451C201.88 45.2777 202.66 44.5098 203.601 44.5098V40.5098C200.442 40.5098 197.88 43.0768 197.88 46.2451H201.88ZM203.601 47.9804C202.66 47.9804 201.88 47.2125 201.88 46.2451H197.88C197.88 49.4134 200.442 51.9804 203.601 51.9804V47.9804ZM207.321 46.2451C207.321 48.313 205.651 49.9804 203.601 49.9804V53.9804C207.87 53.9804 211.321 50.5123 211.321 46.2451H207.321ZM203.601 42.5098C205.651 42.5098 207.321 44.1773 207.321 46.2451H211.321C211.321 41.9779 207.87 38.5098 203.601 38.5098V42.5098ZM199.88 46.2451C199.88 44.1773 201.551 42.5098 203.601 42.5098V38.5098C199.332 38.5098 195.88 41.9779 195.88 46.2451H199.88ZM203.601 49.9804C201.551 49.9804 199.88 48.313 199.88 46.2451H195.88C195.88 50.5123 199.332 53.9804 203.601 53.9804V49.9804Z" fill="#F61D2A" mask="url(#path-5-inside-3)"/>
<path d="M237.559 100.412C237.559 111.124 228.898 119.804 218.22 119.804C207.541 119.804 198.88 111.124 198.88 100.412C198.88 89.6994 207.541 81.0197 218.22 81.0197C228.898 81.0197 237.559 89.6994 237.559 100.412Z" fill="white" stroke="#F61D2A" stroke-width="2"/>
<mask id="path-8-inside-4" fill="white">
<path fill-rule="evenodd" clip-rule="evenodd" d="M218.22 118.804C228.343 118.804 236.559 110.574 236.559 100.412C236.559 90.2492 228.343 82.0197 218.22 82.0197C208.096 82.0197 199.88 90.2492 199.88 100.412C199.88 110.574 208.096 118.804 218.22 118.804ZM218.22 120.804C229.453 120.804 238.559 111.674 238.559 100.412C238.559 89.1495 229.453 80.0197 218.22 80.0197C206.987 80.0197 197.88 89.1495 197.88 100.412C197.88 111.674 206.987 120.804 218.22 120.804Z"/>
</mask>
<path fill-rule="evenodd" clip-rule="evenodd" d="M218.22 118.804C228.343 118.804 236.559 110.574 236.559 100.412C236.559 90.2492 228.343 82.0197 218.22 82.0197C208.096 82.0197 199.88 90.2492 199.88 100.412C199.88 110.574 208.096 118.804 218.22 118.804ZM218.22 120.804C229.453 120.804 238.559 111.674 238.559 100.412C238.559 89.1495 229.453 80.0197 218.22 80.0197C206.987 80.0197 197.88 89.1495 197.88 100.412C197.88 111.674 206.987 120.804 218.22 120.804Z" fill="white"/>
<path d="M234.559 100.412C234.559 109.475 227.234 116.804 218.22 116.804V120.804C229.453 120.804 238.559 111.674 238.559 100.412H234.559ZM218.22 84.0197C227.234 84.0197 234.559 91.349 234.559 100.412H238.559C238.559 89.1494 229.453 80.0197 218.22 80.0197V84.0197ZM201.88 100.412C201.88 91.349 209.205 84.0197 218.22 84.0197V80.0197C206.987 80.0197 197.88 89.1494 197.88 100.412H201.88ZM218.22 116.804C209.205 116.804 201.88 109.475 201.88 100.412H197.88C197.88 111.674 206.987 120.804 218.22 120.804V116.804ZM236.559 100.412C236.559 110.574 228.343 118.804 218.22 118.804V122.804C230.562 122.804 240.559 112.774 240.559 100.412H236.559ZM218.22 82.0197C228.343 82.0197 236.559 90.2492 236.559 100.412H240.559C240.559 88.0499 230.562 78.0197 218.22 78.0197V82.0197ZM199.88 100.412C199.88 90.2492 208.096 82.0197 218.22 82.0197V78.0197C205.877 78.0197 195.88 88.0499 195.88 100.412H199.88ZM218.22 118.804C208.096 118.804 199.88 110.574 199.88 100.412H195.88C195.88 112.774 205.877 122.804 218.22 122.804V118.804Z" fill="#F61D2A" mask="url(#path-8-inside-4)"/>
<path d="M58.3192 17.5686C58.3192 26.1694 51.3656 33.1373 42.7935 33.1373C34.2213 33.1373 27.2678 26.1694 27.2678 17.5686C27.2678 8.96786 34.2213 2 42.7935 2C51.3656 2 58.3192 8.96786 58.3192 17.5686Z" fill="white" stroke="#F61D2A" stroke-width="2"/>
<mask id="path-11-inside-5" fill="white">
<path fill-rule="evenodd" clip-rule="evenodd" d="M42.7935 32.1373C50.8109 32.1373 57.3192 25.6196 57.3192 17.5686C57.3192 9.5177 50.8109 3 42.7935 3C34.7761 3 28.2678 9.5177 28.2678 17.5686C28.2678 25.6196 34.7761 32.1373 42.7935 32.1373ZM42.7935 34.1373C51.9204 34.1373 59.3192 26.7192 59.3192 17.5686C59.3192 8.41803 51.9204 1 42.7935 1C33.6666 1 26.2678 8.41803 26.2678 17.5686C26.2678 26.7192 33.6666 34.1373 42.7935 34.1373Z"/>
</mask>
<path fill-rule="evenodd" clip-rule="evenodd" d="M42.7935 32.1373C50.8109 32.1373 57.3192 25.6196 57.3192 17.5686C57.3192 9.5177 50.8109 3 42.7935 3C34.7761 3 28.2678 9.5177 28.2678 17.5686C28.2678 25.6196 34.7761 32.1373 42.7935 32.1373ZM42.7935 34.1373C51.9204 34.1373 59.3192 26.7192 59.3192 17.5686C59.3192 8.41803 51.9204 1 42.7935 1C33.6666 1 26.2678 8.41803 26.2678 17.5686C26.2678 26.7192 33.6666 34.1373 42.7935 34.1373Z" fill="white"/>
<path d="M55.3192 17.5686C55.3192 24.5197 49.7016 30.1373 42.7935 30.1373V34.1373C51.9202 34.1373 59.3192 26.7194 59.3192 17.5686H55.3192ZM42.7935 5C49.7016 5 55.3192 10.6176 55.3192 17.5686H59.3192C59.3192 8.41782 51.9202 1 42.7935 1V5ZM30.2678 17.5686C30.2678 10.6176 35.8853 5 42.7935 5V1C33.6668 1 26.2678 8.41782 26.2678 17.5686H30.2678ZM42.7935 30.1373C35.8853 30.1373 30.2678 24.5197 30.2678 17.5686H26.2678C26.2678 26.7194 33.6668 34.1373 42.7935 34.1373V30.1373ZM57.3192 17.5686C57.3192 25.6196 50.8109 32.1373 42.7935 32.1373V36.1373C53.0298 36.1373 61.3192 27.8189 61.3192 17.5686H57.3192ZM42.7935 3C50.8109 3 57.3192 9.5177 57.3192 17.5686H61.3192C61.3192 7.31836 53.0298 -1 42.7935 -1V3ZM28.2678 17.5686C28.2678 9.5177 34.7761 3 42.7935 3V-1C32.5572 -1 24.2678 7.31836 24.2678 17.5686H28.2678ZM42.7935 32.1373C34.7761 32.1373 28.2678 25.6196 28.2678 17.5686H24.2678C24.2678 27.8189 32.5572 36.1373 42.7935 36.1373V32.1373Z" fill="#F61D2A" mask="url(#path-11-inside-5)"/>
<path fill-rule="evenodd" clip-rule="evenodd" d="M37.1705 12.5167C37.5615 12.1266 38.1947 12.1274 38.5847 12.5184L42.794 16.7382L47.0033 12.5184C47.3933 12.1274 48.0265 12.1266 48.4175 12.5167C48.8085 12.9067 48.8093 13.5399 48.4192 13.9309L44.2064 18.1542L48.4192 22.3776C48.8093 22.7686 48.8085 23.4017 48.4175 23.7918C48.0265 24.1818 47.3933 24.181 47.0033 23.79L42.794 19.5702L38.5847 23.79C38.1947 24.181 37.5615 24.1818 37.1705 23.7918C36.7795 23.4017 36.7787 22.7686 37.1687 22.3776L41.3815 18.1542L37.1687 13.9309C36.7787 13.5399 36.7795 12.9067 37.1705 12.5167Z" fill="#F61D2A"/>
<ellipse cx="126.694" cy="74.9216" rx="55.933" ry="56.0784" fill="#FED2D5"/>
<mask id="path-15-inside-6" fill="white">
<path fill-rule="evenodd" clip-rule="evenodd" d="M121.608 123.902C151.39 123.902 175.541 99.6951 175.541 69.8235C175.541 39.952 151.39 15.7451 121.608 15.7451C91.8267 15.7451 67.6752 39.952 67.6752 69.8235C67.6752 99.6951 91.8267 123.902 121.608 123.902ZM121.608 125.902C152.499 125.902 177.541 100.795 177.541 69.8235C177.541 38.8523 152.499 13.7451 121.608 13.7451C90.7172 13.7451 65.6752 38.8523 65.6752 69.8235C65.6752 100.795 90.7172 125.902 121.608 125.902Z"/>
</mask>
<path fill-rule="evenodd" clip-rule="evenodd" d="M121.608 123.902C151.39 123.902 175.541 99.6951 175.541 69.8235C175.541 39.952 151.39 15.7451 121.608 15.7451C91.8267 15.7451 67.6752 39.952 67.6752 69.8235C67.6752 99.6951 91.8267 123.902 121.608 123.902ZM121.608 125.902C152.499 125.902 177.541 100.795 177.541 69.8235C177.541 38.8523 152.499 13.7451 121.608 13.7451C90.7172 13.7451 65.6752 38.8523 65.6752 69.8235C65.6752 100.795 90.7172 125.902 121.608 125.902Z" fill="#F61D2A"/>
<path d="M173.541 69.8235C173.541 98.5954 150.28 121.902 121.608 121.902V125.902C152.499 125.902 177.541 100.795 177.541 69.8235H173.541ZM121.608 17.7451C150.28 17.7451 173.541 41.0517 173.541 69.8235H177.541C177.541 38.8522 152.499 13.7451 121.608 13.7451V17.7451ZM69.6752 69.8235C69.6752 41.0517 92.9361 17.7451 121.608 17.7451V13.7451C90.7173 13.7451 65.6752 38.8522 65.6752 69.8235H69.6752ZM121.608 121.902C92.9361 121.902 69.6752 98.5954 69.6752 69.8235H65.6752C65.6752 100.795 90.7173 125.902 121.608 125.902V121.902ZM175.541 69.8235C175.541 99.6951 151.39 123.902 121.608 123.902V127.902C153.609 127.902 179.541 101.894 179.541 69.8235H175.541ZM121.608 15.7451C151.39 15.7451 175.541 39.952 175.541 69.8235H179.541C179.541 37.7526 153.609 11.7451 121.608 11.7451V15.7451ZM67.6752 69.8235C67.6752 39.952 91.8267 15.7451 121.608 15.7451V11.7451C89.6078 11.7451 63.6752 37.7526 63.6752 69.8235H67.6752ZM121.608 123.902C91.8267 123.902 67.6752 99.6951 67.6752 69.8235H63.6752C63.6752 101.894 89.6078 127.902 121.608 127.902V123.902Z" fill="#F61D2A" mask="url(#path-15-inside-6)"/>
<path fill-rule="evenodd" clip-rule="evenodd" d="M98.1704 48.2384C99.7317 46.673 102.263 46.673 103.824 48.2384L121.737 66.1975L139.65 48.2384C141.211 46.673 143.742 46.673 145.304 48.2384C146.865 49.8037 146.865 52.3417 145.304 53.9071L127.391 71.8662L145.304 89.8253C146.865 91.3907 146.865 93.9287 145.304 95.494C143.742 97.0594 141.211 97.0594 139.65 95.494L121.737 77.5349L103.824 95.494C102.263 97.0594 99.7317 97.0594 98.1704 95.494C96.6091 93.9287 96.6091 91.3907 98.1704 89.8253L116.083 71.8662L98.1704 53.9071C96.6091 52.3417 96.6091 49.8037 98.1704 48.2384Z" fill="white"/>
<path fill-rule="evenodd" clip-rule="evenodd" d="M97.4637 47.5297C99.4153 45.573 102.58 45.573 104.531 47.5297L121.737 64.7803L138.943 47.5297C140.894 45.573 144.059 45.573 146.01 47.5297C147.962 49.4864 147.962 52.6589 146.01 54.6156L128.805 71.8662L146.01 89.1167C147.962 91.0734 147.962 94.2459 146.01 96.2026C144.059 98.1593 140.894 98.1593 138.943 96.2026L121.737 78.952L104.531 96.2026C102.58 98.1593 99.4153 98.1593 97.4637 96.2026C95.512 94.2459 95.512 91.0734 97.4637 89.1167L114.669 71.8662L97.4637 54.6156C95.512 52.6589 95.512 49.4864 97.4637 47.5297ZM103.118 48.9469C101.947 47.7729 100.048 47.7729 98.8772 48.9469C97.7062 50.1209 97.7062 52.0244 98.8772 53.1984L116.79 71.1576C116.977 71.3455 117.082 71.6004 117.082 71.8662C117.082 72.1319 116.977 72.3868 116.79 72.5747L98.8772 90.5339C97.7062 91.7079 97.7062 93.6114 98.8772 94.7854C100.048 95.9594 101.947 95.9594 103.118 94.7854L121.03 76.8263C121.218 76.6383 121.472 76.5328 121.737 76.5328C122.002 76.5328 122.256 76.6383 122.444 76.8263L140.356 94.7854C141.527 95.9594 143.426 95.9594 144.597 94.7854C145.768 93.6114 145.768 91.7079 144.597 90.5339L126.684 72.5747C126.497 72.3868 126.392 72.1319 126.392 71.8662C126.392 71.6004 126.497 71.3455 126.684 71.1576L144.597 53.1984C145.768 52.0244 145.768 50.1209 144.597 48.9469C143.426 47.7729 141.527 47.7729 140.356 48.9469L122.444 66.906C122.256 67.094 122.002 67.1995 121.737 67.1995C121.472 67.1995 121.218 67.094 121.03 66.906L103.118 48.9469Z" fill="#F61D2A"/>
<path fill-rule="evenodd" clip-rule="evenodd" d="M179.369 0.494937C179.724 0.495832 180.052 0.685386 180.231 0.992816L187.932 14.2569C188.112 14.5662 188.113 14.9479 187.934 15.2579C187.756 15.5679 187.425 15.759 187.068 15.759H171.575C171.217 15.759 170.886 15.567 170.707 15.2557C170.529 14.9445 170.531 14.5617 170.713 14.2525L178.504 0.98847C178.684 0.681943 179.013 0.494043 179.369 0.494937ZM173.322 13.759H185.331L179.361 3.4779L173.322 13.759Z" fill="#F61D2A"/>
<path fill-rule="evenodd" clip-rule="evenodd" d="M210.714 93.9021C211.105 93.5121 211.738 93.5129 212.128 93.904L217.691 99.4813L223.254 93.904C223.644 93.5129 224.277 93.5121 224.668 93.9021C225.059 94.2922 225.06 94.9253 224.67 95.3164L219.103 100.897L224.67 106.478C225.06 106.869 225.059 107.503 224.668 107.893C224.277 108.283 223.644 108.282 223.254 107.891L217.691 102.313L212.128 107.891C211.738 108.282 211.105 108.283 210.714 107.893C210.323 107.503 210.322 106.869 210.712 106.478L216.279 100.897L210.712 95.3164C210.322 94.9253 210.323 94.2922 210.714 93.9021Z" fill="#F61D2A"/>
<path fill-rule="evenodd" clip-rule="evenodd" d="M7.23803 48.0316C7.59352 48.0325 7.92181 48.2221 8.10031 48.5295L14.2642 59.1455C14.4438 59.4549 14.4445 59.8366 14.266 60.1466C14.0875 60.4566 13.7571 60.6477 13.3994 60.6477H1C0.641398 60.6477 0.310249 60.4556 0.132111 60.1444C-0.0460276 59.8332 -0.0438802 59.4504 0.137739 59.1412L6.37325 48.5252C6.5533 48.2186 6.88254 48.0307 7.23803 48.0316ZM2.74711 58.6477H11.6624L7.23052 51.0146L2.74711 58.6477Z" fill="#F61D2A"/>
</svg>
