<svg id="favs" width="32" height="32" viewBox="0 0 32 32" xmlns="http://www.w3.org/2000/svg">
<path d="M16.3942 25.7796L16.1146 25.4935C16.0957 25.512 16.0787 25.5323 16.0638 25.5541L16.3942 25.7796ZM25.3176 16.9617L25.016 16.6988L25.0093 16.7069L25.3176 16.9617ZM15.8929 10.2014L15.5502 10.4077C15.6197 10.5232 15.7427 10.5959 15.8773 10.6011C16.012 10.6064 16.1403 10.5434 16.2185 10.4337L15.8929 10.2014ZM6.96946 8.3399L6.70204 8.04243L6.70155 8.04288L6.96946 8.3399ZM6.56841 16.9617L6.86723 16.6958L6.86641 16.6949L6.56841 16.9617ZM15.2123 26.0656C15.4247 26.2733 15.6967 26.4 15.9806 26.4C16.2723 26.4 16.5479 26.264 16.7246 26.005L16.0638 25.5541C16.0399 25.5891 16.0147 25.6 15.9806 25.6C15.9386 25.6 15.8597 25.5798 15.7714 25.4935L15.2123 26.0656ZM16.6737 26.0656C18.2491 24.5263 23.5027 19.7854 25.6259 17.2166L25.0093 16.7069C22.9214 19.2329 17.7477 23.8976 16.1146 25.4935L16.6737 26.0656ZM25.6191 17.2246C26.8302 15.8353 27.4506 14.196 27.3968 12.5641C27.3428 10.9291 26.6127 9.33512 25.1849 8.04329L24.6482 8.6365C25.9275 9.79406 26.5509 11.1884 26.5972 12.5905C26.6436 13.996 26.111 15.4429 25.0161 16.6989L25.6191 17.2246ZM25.1849 8.04329C23.7269 6.7241 21.9117 6.3559 20.1663 6.74949C18.4292 7.14123 16.7698 8.28304 15.5672 9.96916L16.2185 10.4337C17.322 8.88662 18.8209 7.87298 20.3423 7.5299C21.8554 7.18867 23.399 7.5063 24.6482 8.6365L25.1849 8.04329ZM16.2356 9.99514C14.1216 6.48343 9.42448 5.59493 6.70204 8.04243L7.23689 8.63736C9.5276 6.57799 13.6536 7.25709 15.5502 10.4077L16.2356 9.99514ZM6.70155 8.04288C3.91495 10.5564 4.03284 14.7297 6.27042 17.2286L6.86641 16.6949C4.89294 14.491 4.8103 10.8262 7.23738 8.63691L6.70155 8.04288ZM6.26959 17.2277C8.28716 19.4949 13.6241 24.5137 15.2123 26.0656L15.7714 25.4935C14.1511 23.9102 8.86018 18.9354 6.86723 16.6958L6.26959 17.2277Z" />
</svg>
