<svg width="32" height="32" viewBox="0 0 32 32" fill="none" xmlns="http://www.w3.org/2000/svg">
<path fill-rule="evenodd" clip-rule="evenodd" d="M20.1445 6.65194C21.9189 6.2518 23.768 6.62632 25.2521 7.96913C26.6984 9.27775 27.4419 10.8966 27.4969 12.5608C27.5516 14.219 26.9218 15.8804 25.6989 17.2853C24.0917 19.2283 20.7044 22.4063 18.4648 24.5075C17.7545 25.1739 17.1596 25.732 16.7736 26.1081C16.5773 26.3647 16.2866 26.5 15.9807 26.5C15.6666 26.5 15.3705 26.3599 15.1425 26.1372C14.7813 25.7842 14.2246 25.2505 13.5565 24.6098C11.2949 22.4413 7.75577 19.0479 6.19559 17.2948C3.92545 14.759 3.80336 10.5225 6.63471 7.96862L6.63532 7.96806C9.24973 5.61768 13.6306 6.29159 15.9207 9.3481C17.0864 7.95258 18.5822 7.00424 20.1445 6.65194ZM20.3644 7.62744C18.87 7.96444 17.3911 8.96207 16.3001 10.4918C16.2022 10.6289 16.0419 10.7076 15.8736 10.7011C15.7052 10.6945 15.5515 10.6036 15.4646 10.4593C13.5953 7.35395 9.54104 6.70093 7.30423 8.71141C4.92237 10.8602 5.00066 14.4612 6.94104 16.6282L6.94208 16.6294C8.47165 18.3482 11.9483 21.682 14.2126 23.8533C14.8941 24.5067 15.4657 25.0548 15.8414 25.4219C15.9123 25.4912 15.9661 25.4996 15.9797 25.5C15.9802 25.4993 15.9807 25.4986 15.9813 25.4978C15.9999 25.4705 16.0212 25.4451 16.0449 25.4219C16.4572 25.019 17.0921 24.4233 17.8447 23.7171C20.0864 21.6137 23.3726 18.5302 24.9323 16.6432L24.9407 16.6331L24.9408 16.6332C26.0212 15.3938 26.5429 13.971 26.4974 12.5938C26.4521 11.2208 25.842 9.85143 24.5812 8.71065C23.3582 7.60407 21.8486 7.29277 20.3644 7.62744Z" fill="#101010"/>
</svg>
