<svg width="32" height="32" viewBox="0 0 32 32" fill="none" xmlns="http://www.w3.org/2000/svg">
<path fill-rule="evenodd" clip-rule="evenodd" d="M16 4.5C9.64873 4.5 4.5 9.64873 4.5 16C4.5 22.3513 9.64873 27.5 16 27.5C22.3513 27.5 27.5 22.3513 27.5 16C27.5 9.64873 22.3513 4.5 16 4.5ZM3.5 16C3.5 9.09644 9.09644 3.5 16 3.5C22.9036 3.5 28.5 9.09644 28.5 16C28.5 22.9036 22.9036 28.5 16 28.5C9.09644 28.5 3.5 22.9036 3.5 16Z" fill="#101010"/>
<path fill-rule="evenodd" clip-rule="evenodd" d="M13.3514 10.4601C12.9939 10.8414 12.75 11.4543 12.75 12.3682V19.5708C12.75 21.08 13.9903 22.578 15.8373 22.578C17.7589 22.578 19.25 21.1845 19.25 19.5708V13.3682C19.25 13.092 19.4739 12.8682 19.75 12.8682C20.0261 12.8682 20.25 13.092 20.25 13.3682V19.5708C20.25 21.8406 18.2014 23.578 15.8373 23.578C13.3986 23.578 11.75 21.592 11.75 19.5708V12.3682C11.75 11.2821 12.0418 10.3949 12.6218 9.77619C13.2055 9.15365 14.0197 8.86816 14.9286 8.86816C15.8375 8.86816 16.6517 9.15365 17.2353 9.77619C17.8154 10.3949 18.1071 11.2821 18.1071 12.3682C18.1071 13.3774 18.0718 14.5805 18.0367 15.6507C18.0307 15.8364 18.0246 16.0177 18.0187 16.1931C17.9905 17.037 17.9669 17.7456 17.9669 18.1506C17.9669 18.7392 17.8025 19.3062 17.4316 19.7339C17.0523 20.1713 16.5005 20.412 15.8373 20.412C15.1727 20.412 14.6278 20.1699 14.2587 19.726C13.9007 19.2955 13.7526 18.7295 13.7526 18.1506V16.1506C13.7526 15.8744 13.9764 15.6506 14.2526 15.6506C14.5287 15.6506 14.7526 15.8744 14.7526 16.1506V18.1506C14.7526 18.5716 14.8611 18.8864 15.0276 19.0866C15.183 19.2734 15.4305 19.412 15.8373 19.412C16.2455 19.412 16.5085 19.272 16.6761 19.0787C16.8522 18.8757 16.9669 18.562 16.9669 18.1506C16.9669 17.7271 16.9913 16.9957 17.0195 16.1525C17.0253 15.9785 17.0313 15.7998 17.0373 15.618C17.0724 14.547 17.1071 13.359 17.1071 12.3682C17.1071 11.4543 16.8632 10.8414 16.5058 10.4601C16.1519 10.0827 15.6268 9.86816 14.9286 9.86816C14.2303 9.86816 13.7052 10.0827 13.3514 10.4601Z" fill="#101010"/>
</svg>
