<svg width="171" height="162" viewBox="0 0 171 162" fill="none" xmlns="http://www.w3.org/2000/svg">
<path fill-rule="evenodd" clip-rule="evenodd" d="M62.3848 64.9148C64.6017 64.9148 66.3989 63.1239 66.3989 60.9148C66.3989 58.7057 64.6017 56.9148 62.3848 56.9148C60.1679 56.9148 58.3707 58.7057 58.3707 60.9148C58.3707 63.1239 60.1679 64.9148 62.3848 64.9148ZM62.3848 63.9148C64.0527 63.9148 65.3989 62.5683 65.3989 60.9148C65.3989 59.2612 64.0527 57.9148 62.3848 57.9148C60.7168 57.9148 59.3707 59.2612 59.3707 60.9148C59.3707 62.5683 60.7168 63.9148 62.3848 63.9148Z" fill="#101010"/>
<path fill-rule="evenodd" clip-rule="evenodd" d="M98.5115 60.9148C98.5115 63.1239 96.7143 64.9148 94.4974 64.9148C92.2805 64.9148 90.4833 63.1239 90.4833 60.9148C90.4833 58.7057 92.2805 56.9148 94.4974 56.9148C96.7143 56.9148 98.5115 58.7057 98.5115 60.9148ZM97.5115 60.9148C97.5115 62.5683 96.1654 63.9148 94.4974 63.9148C92.8295 63.9148 91.4833 62.5683 91.4833 60.9148C91.4833 59.2612 92.8295 57.9148 94.4974 57.9148C96.1654 57.9148 97.5115 59.2612 97.5115 60.9148Z" fill="#101010"/>
<path d="M118.082 85.3113C118.082 85.0351 118.306 84.8113 118.582 84.8113C128.613 84.8113 136.748 92.9149 136.748 102.915C136.748 106.962 135.415 110.699 133.163 113.714C132.998 113.935 132.685 113.981 132.464 113.815C132.242 113.65 132.197 113.337 132.362 113.116C134.489 110.268 135.748 106.738 135.748 102.915C135.748 93.4705 128.064 85.8113 118.582 85.8113C118.306 85.8113 118.082 85.5874 118.082 85.3113Z" fill="#101010"/>
<path d="M114.55 85.7647C114.62 86.0317 114.46 86.3051 114.193 86.3753C112.443 86.8351 110.803 87.5633 109.318 88.5134C109.086 88.6622 108.776 88.5944 108.628 88.3618C108.479 88.1292 108.547 87.82 108.779 87.6711C110.35 86.6658 112.087 85.8948 113.939 85.4081C114.206 85.338 114.48 85.4976 114.55 85.7647Z" fill="#101010"/>
<path d="M37.297 120.415C29.8159 120.415 23.7512 114.35 23.7512 106.869V97.9148C23.7512 97.6387 23.9751 97.4148 24.2512 97.4148C24.5274 97.4148 24.7512 97.6387 24.7512 97.9148V106.869C24.7512 113.798 30.3682 119.415 37.297 119.415C44.2258 119.415 49.8428 113.798 49.8428 106.869V97.9148C49.8428 97.6387 50.0666 97.4148 50.3428 97.4148C50.6189 97.4148 50.8428 97.6387 50.8428 97.9148V106.869C50.8428 114.35 44.7781 120.415 37.297 120.415Z" fill="#101010"/>
<path fill-rule="evenodd" clip-rule="evenodd" d="M81.2816 1.5C37.2178 1.5 1.5 37.095 1.5 81C1.5 93.9795 4.62112 106.231 10.1559 117.052L13.66 93.3303C13.9499 91.3682 15.6337 89.9148 17.6171 89.9148H41.3879L46.1508 53.3356C46.443 51.0917 48.3602 49.4148 50.6273 49.4148H61.8848V38.9148C61.8848 30.3544 68.8244 23.4148 77.3848 23.4148H79.4974C88.0579 23.4148 94.9974 30.3544 94.9974 38.9148V49.4148H106.255C108.522 49.4148 110.439 51.0917 110.731 53.3356L114.116 79.3267C115.563 79.0562 117.056 78.9148 118.582 78.9148C131.884 78.9148 142.667 89.66 142.667 102.915C142.667 108.321 140.873 113.309 137.847 117.321L144.478 124.095C145.661 123.864 146.912 124.057 147.983 124.675C156.381 112.09 161.063 97.2583 161.063 81C161.063 73.0251 159.885 65.3252 157.693 58.0635C157.613 57.7991 157.763 57.5201 158.027 57.4403C158.291 57.3605 158.57 57.5101 158.65 57.7745C160.87 65.1289 162.063 72.9261 162.063 81C162.063 97.469 157.315 112.503 148.796 125.259L148.817 125.277L148.844 125.301L148.873 125.327L148.896 125.349C148.941 125.39 148.985 125.432 149.028 125.476L167.426 143.809C169.4 145.776 169.4 148.965 167.426 150.932L166.768 151.588C164.794 153.554 161.594 153.554 159.621 151.588L142.032 134.061C127.227 150.881 105.498 161.5 81.2816 161.5C62.2194 161.5 44.698 154.92 30.8818 143.915H13.1393C9.47648 143.915 6.66844 140.661 7.20369 137.038L9.95759 118.395C9.80517 118.372 9.66541 118.279 9.58855 118.132C3.78199 107.021 0.5 94.392 0.5 81C0.5 36.5394 36.6688 0.5 81.2816 0.5C116.06 0.5 145.706 22.4014 157.087 53.1189C157.182 53.3779 157.05 53.6656 156.791 53.7615C156.532 53.8574 156.245 53.7253 156.149 53.4664C144.909 23.13 115.63 1.5 81.2816 1.5ZM93.9974 49.4148V38.9148C93.9974 30.9067 87.5056 24.4148 79.4974 24.4148H77.3848C69.3767 24.4148 62.8848 30.9067 62.8848 38.9148V49.4148H93.9974ZM56.9769 89.9148H42.3964L47.1424 53.4647C47.3694 51.7216 48.8599 50.4148 50.6273 50.4148H106.255C108.022 50.4148 109.513 51.7216 109.74 53.4647L113.134 79.5314C102.457 81.9919 94.4977 91.5271 94.4977 102.915C94.4977 115.917 104.874 126.505 117.825 126.903C116.321 130.131 113.041 132.415 109.168 132.415H66.7074L60.9339 93.3303C60.6441 91.3682 58.9603 89.9148 56.9769 89.9148ZM109.168 133.415C113.61 133.415 117.346 130.694 118.913 126.913C124.174 126.842 129.028 125.09 132.958 122.172L139.77 129.164C139.616 130.623 140.1 132.136 141.223 133.254L141.323 133.354C126.699 149.993 105.222 160.5 81.2816 160.5C62.9096 160.5 45.9893 154.313 32.503 143.915H61.4547C65.1175 143.915 67.9256 140.661 67.3903 137.038L66.8551 133.415H109.168ZM143.407 124.431L137.223 118.113C136.186 119.374 135.023 120.528 133.753 121.556L140.035 128.002C140.278 127.319 140.674 126.678 141.223 126.132L141.881 125.476C142.335 125.023 142.854 124.675 143.407 124.431ZM141.667 102.915C141.667 115.614 131.335 125.915 118.582 125.915C105.83 125.915 95.4977 115.614 95.4977 102.915C95.4977 90.2156 105.83 79.9148 118.582 79.9148C131.335 79.9148 141.667 90.2156 141.667 102.915ZM141.931 126.838L142.589 126.182C144.172 124.605 146.737 124.605 148.32 126.182L166.718 144.515C168.3 146.092 168.3 148.649 166.718 150.226L166.06 150.882C164.477 152.459 161.912 152.459 160.329 150.882L141.931 132.548C140.348 130.971 140.348 128.415 141.931 126.838ZM56.9769 90.9148H17.6171C16.1296 90.9148 14.8667 92.0048 14.6493 93.4764L8.19296 137.184C7.74691 140.204 10.0869 142.915 13.1393 142.915H61.4547C64.507 142.915 66.8471 140.204 66.401 137.184L59.9447 93.4764C59.7273 92.0048 58.4644 90.9148 56.9769 90.9148Z" fill="#101010"/>
<path fill-rule="evenodd" clip-rule="evenodd" d="M143.778 70.5195L162.773 52.6952C163.495 52.0175 163.463 50.8609 162.705 50.224C162.059 49.6816 161.108 49.7126 160.499 50.2959L143.728 66.352C143.136 66.9189 142.202 66.9158 141.613 66.3448L132.926 57.914C132.313 57.3186 131.347 57.2871 130.696 57.8411C129.942 58.4833 129.915 59.6396 130.639 60.3162L141.561 70.5218C142.186 71.1049 143.155 71.1039 143.778 70.5195ZM130.048 57.0795C131.092 56.1915 132.639 56.2421 133.623 57.1964L142.31 65.6272C142.512 65.8235 142.833 65.8246 143.037 65.6297L159.807 49.5736C160.785 48.6373 162.311 48.5876 163.348 49.4582C164.565 50.4805 164.616 52.3366 163.457 53.4244L144.462 71.2487C143.455 72.1936 141.888 72.1953 140.879 71.2525L129.956 61.0469C128.795 59.9624 128.838 58.1089 130.048 57.0795Z" fill="#F61D2A"/>
</svg>
