<?xml version="1.0" encoding="utf-8"?>
<!-- Generator: Adobe Illustrator 24.1.0, SVG Export Plug-In . SVG Version: 6.00 Build 0)  -->
<svg version="1.1" id="gym-b" xmlns="http://www.w3.org/2000/svg" xmlns:xlink="http://www.w3.org/1999/xlink" x="0px" y="0px"
	 viewBox="0 0 480 480" style="enable-background:new 0 0 480 480;" xml:space="preserve">
<g>
	<g>
		<path d="M420,133.3h-13.3V100c0-11-9-20-20-20H360c-11,0-20,9-20,20v53.3h-15.7l-1.5-3.8c-7.1-18-24.1-29.6-43.4-29.6h-0.7
			c-2.8-7.8-10.1-13.3-18.8-13.3c-5.2,0-9.8,2-13.3,5.2c-3.6-3.2-8.2-5.2-13.3-5.2s-9.8,2-13.3,5.2c-3.6-3.2-8.2-5.2-13.3-5.2
			c-5.2,0-9.8,2-13.3,5.2c-3.6-3.2-8.2-5.2-13.3-5.2c-11,0-20,9-20,20v26.7h-20V100c0-11-9-20-20-20H93.3c-11,0-20,9-20,20v33.3H60
			c-11,0-20,9-20,20V220c0,11,9,20,20,20h13.3v33.3c0,11,9,20,20,20H120c11,0,20-9,20-20V220h15.1l5.2,16.4c0.2,0.8,0.6,1.4,1.1,2.1
			l17.8,23l-11.4,119.8c-0.5,4.8,1.2,9.6,4.3,13.1c3.2,3.6,7.8,5.6,12.7,5.6h90.3c4.8,0,9.4-2.1,12.7-5.6c3.2-3.6,4.8-8.3,4.3-13.2
			l-11.7-116.5c-0.2-1.2,0.3-2.4,1.2-3.2l36.6-31.3c3.2-2.8,5.4-6.3,6.8-10.2h15v53.3c0,11,9,20,20,20h26.7c11,0,20-9,20-20V240H420
			c11,0,20-9,20-20v-66.7C440,142.3,431,133.3,420,133.3z M73.3,226.7H60c-3.7,0-6.7-3-6.7-6.7v-66.7c0-3.7,3-6.7,6.7-6.7h13.3
			V226.7z M126.7,160v53.3v60c0,3.7-3,6.7-6.7,6.7H93.3c-3.7,0-6.7-3-6.7-6.7v-40V140v-40c0-3.7,3-6.7,6.7-6.7H120
			c3.7,0,6.7,3,6.7,6.7V160z M253.3,126.7c0-3.7,3-6.7,6.7-6.7s6.7,3,6.7,6.7V160v5.9c0,2.5-1.2,4.8-3,6.2c-0.2,0.2-0.3,0.2-0.6,0.4
			c-0.3,0.2-0.8,0.3-1.2,0.4c-0.4,0.2-0.8,0.2-1.3,0.2s-1.1,0-1.6-0.1c-0.4-0.1-0.8-0.1-1.2-0.2c-0.5-0.2-1-0.5-1.5-0.8
			c-0.2-0.2-0.6-0.3-0.8-0.6c-0.5-0.4-0.8-1-1.2-1.5c-0.2-0.2-0.3-0.4-0.4-0.7c-0.3-0.8-0.6-1.8-0.6-2.7L253.3,126.7L253.3,126.7z
			 M226.7,126.7c0-3.7,3-6.7,6.7-6.7s6.7,3,6.7,6.7v40c0,3.7-3,6.7-6.7,6.7s-6.7-3-6.7-6.7V126.7z M200,126.7c0-3.7,3-6.7,6.7-6.7
			s6.7,3,6.7,6.7v40c0,3.7-3,6.7-6.7,6.7s-6.7-3-6.7-6.7V126.7z M173.3,160v-33.3c0-3.7,3-6.7,6.7-6.7s6.7,3,6.7,6.7v40
			c0,0.9-0.3,1.8-0.6,2.7c-0.1,0.2-0.3,0.4-0.4,0.7c-0.3,0.5-0.7,1.1-1.2,1.5c-0.2,0.2-0.6,0.4-0.8,0.6c-0.5,0.3-1,0.6-1.5,0.8
			c-0.3,0.1-0.8,0.2-1.1,0.2c-0.5,0.1-1.1,0.2-1.6,0.1c-0.4,0-0.9-0.2-1.3-0.2c-0.4-0.2-0.8-0.2-1.2-0.4c-0.2-0.1-0.4-0.3-0.6-0.4
			c-1.8-1.3-3.1-3.7-3.1-6.2L173.3,160L173.3,160z M140,206.7v-40h20c0,7.3,4,13.7,9.8,17.2c0.3,0.2,0.7,0.4,1.1,0.6
			c0.6,0.3,1.2,0.6,1.8,0.8s1.4,0.5,2.2,0.7c0.4,0.1,0.8,0.2,1.3,0.3c0.2,0,0.2,0.1,0.4,0.1c0.5,0.1,0.9,0,1.4,0.1
			c0.7,0.1,1.2,0.2,1.9,0.2c0.2,0,0.3-0.1,0.6-0.1c0.6,0,1.2-0.1,1.8-0.2c0.8-0.1,1.6-0.2,2.3-0.4c0.6-0.2,1.1-0.3,1.7-0.5
			c0.8-0.3,1.5-0.5,2.2-0.8c0.5-0.2,1.1-0.6,1.6-0.8c0.7-0.4,1.3-0.8,1.9-1.3c0.2-0.2,0.6-0.3,0.8-0.6c0.2-0.1,0.2-0.2,0.4-0.3
			c0.4,0.3,0.8,0.6,1.2,0.9c0.4,0.3,0.8,0.7,1.2,0.9c0.7,0.4,1.3,0.8,2,1.1c0.4,0.2,0.8,0.5,1.3,0.7c0.7,0.3,1.6,0.5,2.4,0.8
			c0.4,0.1,0.8,0.2,1.2,0.3c1.2,0.2,2.6,0.4,3.9,0.4c1.3,0,2.7-0.2,3.9-0.4c0.4-0.1,0.8-0.2,1.2-0.3c0.8-0.2,1.6-0.4,2.4-0.8
			c0.5-0.2,0.9-0.4,1.3-0.7c0.7-0.3,1.3-0.7,1.9-1.1c0.4-0.2,0.8-0.6,1.2-0.9c0.4-0.3,0.8-0.6,1.2-0.9c0.4,0.3,0.8,0.6,1.2,0.9
			c0.4,0.3,0.8,0.7,1.2,0.9c0.6,0.4,1.2,0.8,1.9,1.1c0.4,0.2,0.9,0.5,1.3,0.7c0.8,0.3,1.6,0.5,2.4,0.8c0.4,0.1,0.8,0.2,1.2,0.3
			c1.2,0.2,2.6,0.4,3.9,0.4s2.7-0.2,3.9-0.4c0.4-0.1,0.8-0.2,1.2-0.3c0.8-0.2,1.7-0.4,2.4-0.8c0.5-0.2,0.9-0.4,1.3-0.7
			c0.7-0.3,1.3-0.7,2-1.1c0.4-0.2,0.8-0.6,1.2-0.9c0.4-0.3,0.8-0.6,1.2-0.9c0.2,0.1,0.2,0.2,0.4,0.3c0.2,0.2,0.6,0.3,0.8,0.6
			c0.6,0.5,1.2,0.9,1.9,1.3c0.5,0.3,1,0.6,1.6,0.8c0.8,0.3,1.5,0.7,2.3,0.9c0.5,0.2,1.1,0.3,1.6,0.5c0.8,0.2,1.7,0.3,2.5,0.4
			c0.6,0.1,1.1,0.2,1.7,0.2c0.2,0,0.4,0.1,0.6,0.1c0.7,0,1.3-0.2,1.9-0.2c0.4,0,0.9,0,1.3-0.1c0.2,0,0.3-0.1,0.4-0.1
			c0.3-0.1,0.6-0.2,0.9-0.3c0.8-0.2,1.7-0.4,2.5-0.7c0.4-0.2,0.8-0.3,1.2-0.6c0.5-0.3,0.9-0.5,1.3-0.8c4.8-2.8,8.5-7.4,9.8-13.1
			c0.3,0.7,0.5,1.5,0.5,2.4v23.9l-9.5,9.4H140V206.7z M313.3,212.2c0,3.1-1.3,5.9-3.7,7.9L273,251.4c-4.2,3.7-6.4,9.1-5.9,14.7
			l11.7,116.5c0.2,1.4-0.5,2.4-0.9,2.9c-0.4,0.4-1.3,1.2-2.7,1.2h-90.4c-1.4,0-2.3-0.8-2.8-1.2c-0.4-0.5-1.1-1.4-1-2.9l11.7-122.4
			c0.2-1.7-0.3-3.3-1.3-4.8l-18.7-24.2l-3.6-11.2h101.5c3.5,0,6.9-1.4,9.4-3.9l9.4-9.4c2.5-2.5,3.9-5.8,3.9-9.4v-23.9
			c0-8.7-5.6-16-13.3-18.8v-21.2c13.6,0.2,25.4,8.5,30.4,21.2l2.5,6.3c0.2,0.5,0.4,1.1,0.4,1.7L313.3,212.2L313.3,212.2z M340,206.7
			h-13.3v-40H340V206.7z M393.3,140v93.3v40c0,3.7-3,6.7-6.7,6.7H360c-3.7,0-6.7-3-6.7-6.7v-60V160v-60c0-3.7,3-6.7,6.7-6.7h26.7
			c3.7,0,6.7,3,6.7,6.7v40H393.3z M426.7,220c0,3.7-3,6.7-6.7,6.7h-13.3v-80H420c3.7,0,6.7,3,6.7,6.7V220z"/>
	</g>
</g>
</svg>
