<svg width="65" height="16" viewBox="0 0 65 16" fill="none" xmlns="http://www.w3.org/2000/svg">
<path d="M10.4202 8.26772C10.5761 8.21572 10.706 8.16372 10.81 8.11172C11.8235 7.77371 12.759 7.2537 13.5646 6.55167C14.4741 5.74565 15.1498 4.80962 15.3577 3.56159C15.6176 2.00154 14.734 0.571499 13.2528 0.207488C12.3692 -0.00051834 11.5376 0.103485 10.758 0.545498C10.4461 0.727503 10.2123 1.01351 9.97838 1.27352C9.82246 1.42952 9.82246 1.61153 9.97838 1.81954C10.4721 2.57356 10.68 3.43158 10.5501 4.34161C10.4461 5.06963 10.0823 5.64165 9.43265 6.00566C9.38068 5.87565 9.3287 5.74565 9.27673 5.64165C8.65304 4.0556 8.02935 2.46955 7.40566 0.883508C7.3277 0.675502 7.22375 0.571499 6.98986 0.571499C5.43064 0.571499 3.87141 0.571499 2.31218 0.571499C2.18225 0.6235 2.0783 0.649501 1.89639 0.675502C3.01384 2.91157 4.10529 5.06963 5.19675 7.2797C4.15727 7.59171 3.22173 8.03372 2.39015 8.63174C1.45461 9.30776 0.674997 10.1398 0.233216 11.2578C-0.52041 13.1819 0.571048 15.1319 2.52008 15.4439C3.63753 15.6259 4.93688 15.0279 5.5086 14.0399C5.63853 13.8059 5.69051 13.5979 5.5086 13.3379C5.17077 12.8699 5.04083 12.2978 5.01484 11.7258C5.01484 10.8418 5.37866 10.1658 6.1063 9.64576C6.15828 9.77577 6.21025 9.87977 6.26222 9.98378C6.9119 11.5698 7.56158 13.1559 8.21126 14.7419C8.28922 14.9499 8.41915 15.0279 8.65304 15.0279C10.3162 15.0279 11.9534 15.0279 13.6166 15.0279C13.7205 15.0279 13.8245 15.0019 13.9804 15.0019C12.759 12.7399 11.5896 10.5038 10.4202 8.26772ZM36.3033 6.81168C36.3033 6.88968 36.3033 6.96769 36.3033 7.01969C35.9915 9.56776 35.6796 12.1418 35.3418 14.6899C35.3158 14.9499 35.3678 15.0539 35.6277 15.0279C36.6671 15.0279 37.7066 15.0279 38.7461 15.0279C39.4478 15.0279 39.3438 15.1839 39.4218 14.4039C39.6816 12.4278 39.9155 10.4778 40.1494 8.50173C40.2793 7.4097 40.4093 6.29167 40.5652 5.19963C40.5912 5.01763 40.5652 4.91363 40.3833 4.88763C40.1494 4.86162 39.9155 4.80962 39.6816 4.75762C37.1349 4.31561 34.5882 4.34161 32.0414 4.86162C31.8075 4.91363 31.7296 5.01763 31.7036 5.25164C31.5477 6.21366 31.4177 7.17569 31.2098 8.13772C30.82 10.0618 30.0924 11.8038 28.4812 13.0259C28.3772 13.1039 28.3253 13.3119 28.3253 13.4679C28.4032 14.3519 29.1569 15.2359 30.0404 15.3919C31.1579 15.6259 32.1454 15.3399 32.873 14.4299C33.2628 13.9359 33.6007 13.3379 33.7826 12.7399C34.1204 11.5438 34.3283 10.3478 34.5362 9.12575C34.6661 8.37173 34.6921 7.59171 34.7701 6.78568C35.2638 6.81168 35.7576 6.81168 36.3033 6.81168ZM49.2449 7.12369C48.8291 6.99369 48.3613 6.91569 47.9195 6.94169C47.2699 6.96769 46.5942 7.07169 45.9185 7.12369C45.8926 6.91569 46.0225 6.86368 46.2564 6.81168C47.036 6.65568 47.8416 6.52567 48.5952 6.29167C49.7127 5.95366 50.7002 5.40764 51.4018 4.44561C51.8956 3.76959 52.1295 3.01557 51.9216 2.18355C51.6357 0.935509 50.4663 0.0514832 49.063 -0.000518339C47.3998 -0.0525199 45.9965 0.597499 44.8011 1.74153C43.6057 2.91157 42.8261 4.31561 42.2544 5.87565C41.6567 7.61771 41.2928 9.38576 41.5267 11.2318C41.7866 13.1819 42.7741 14.6119 44.7231 15.2099C45.5547 15.4699 46.4123 15.4439 47.2959 15.2879C49.5567 14.8719 51.5058 13.1559 51.6097 10.5038C51.7137 8.81374 50.8821 7.5657 49.2449 7.12369ZM47.2439 3.30158C47.3738 3.04157 47.6597 2.80756 47.9455 2.70356C48.3353 2.54756 48.6212 2.80756 48.5432 3.22358C48.5173 3.43158 48.4133 3.66559 48.3094 3.84759C47.8676 4.49761 47.2179 4.91363 46.5162 5.27764C46.4903 5.25164 46.4383 5.22564 46.4123 5.19963C46.6722 4.54962 46.932 3.8996 47.2439 3.30158ZM47.3478 12.5579C47.2179 12.7399 47.036 12.8699 46.8541 12.9739C46.4123 13.2339 45.8926 13.1039 45.6847 12.6359C45.5028 12.2458 45.3988 11.8038 45.3728 11.3878C45.3468 10.7118 45.4508 10.0098 45.4768 9.33376C45.5028 9.09975 45.5807 8.96974 45.8406 8.96974C45.9965 8.96974 46.1784 8.91774 46.2564 8.91774C47.2179 8.89174 47.7896 9.33376 47.9195 10.1918C48.0755 11.0758 47.8416 11.8558 47.3478 12.5579ZM27.6756 5.01763C27.7016 4.78362 27.6496 4.73162 27.4417 4.73162C26.2203 4.73162 24.9989 4.73162 23.8035 4.73162C23.5696 4.73162 23.4917 4.80962 23.4657 5.04363C23.4397 5.38164 23.3877 5.74565 23.3098 6.16166C23.2578 6.08366 23.2318 6.05766 23.2058 6.03166C22.4262 4.65362 21.3088 4.1076 19.7755 4.41961C18.3722 4.70562 17.4107 5.58965 16.735 6.81168C15.9034 8.31973 15.6176 9.95777 15.8775 11.6738C16.0074 12.5839 16.2932 13.4159 16.839 14.1439C17.5926 15.1319 18.71 15.5219 19.9055 15.2099C20.9449 14.9239 21.6726 14.2479 22.3223 13.4159C22.4002 13.3119 22.4782 13.2079 22.5821 13.0779C22.764 14.5599 23.7256 15.3919 25.1808 15.3139C26.1424 15.2619 26.948 14.8459 27.5457 14.0659C27.7016 13.8839 27.7276 13.7019 27.4677 13.5719C27.1039 13.3899 26.896 13.0519 26.87 12.6619C26.844 11.9338 26.818 11.2058 26.896 10.5038C27.1039 8.65774 27.4157 6.83768 27.6756 5.01763ZM22.4782 11.5438C22.3223 11.8298 22.0884 12.0898 21.8285 12.2718C21.2308 12.6879 20.5291 12.4798 20.2433 11.8038C20.1133 11.5178 20.0354 11.2058 20.0094 10.8938C19.9314 9.98378 20.0614 9.09975 20.4252 8.26772C20.5811 7.92971 20.789 7.61771 21.0489 7.3577C21.6466 6.78568 22.4782 6.96769 22.79 7.72171C22.9719 8.16372 23.0239 8.63173 23.1279 9.09975C23.0239 9.98378 22.894 10.8158 22.4782 11.5438ZM64.4993 5.06963C64.5513 4.80962 64.4733 4.73162 64.2135 4.73162C63.0181 4.73162 61.8486 4.73162 60.6532 4.73162C60.3934 4.73162 60.2894 4.83562 60.2634 5.09563C60.2374 5.43364 60.1855 5.77165 60.1335 6.10966C60.1075 6.10966 60.0815 6.10966 60.0815 6.08366C60.0555 6.03166 60.0036 5.97966 59.9776 5.92766C59.3539 4.78362 58.3664 4.26361 57.067 4.36761C55.6377 4.47161 54.5723 5.22564 53.8186 6.39567C52.7791 7.95572 52.4673 9.69777 52.6752 11.5438C52.7791 12.4798 53.065 13.3899 53.6627 14.1699C54.4683 15.1579 55.4818 15.4959 56.7032 15.1839C57.7427 14.9239 58.4703 14.2219 59.12 13.4159C59.198 13.3379 59.2499 13.2339 59.3539 13.1039C59.6397 14.6899 60.6013 15.4439 62.1085 15.2879C62.9921 15.2099 63.7457 14.7939 64.3174 14.0659C64.4473 13.8839 64.5513 13.7019 64.2914 13.5459C63.8756 13.3119 63.6677 12.9219 63.6417 12.4798C63.6158 11.8558 63.5898 11.2318 63.6677 10.6078C63.9276 8.78774 64.2135 6.94169 64.4993 5.06963ZM59.3019 11.4918C59.146 11.8038 58.8861 12.0898 58.6262 12.2718C58.0285 12.7139 57.3009 12.5058 57.041 11.8038C56.8851 11.3878 56.8331 10.9198 56.7292 10.4518C56.8071 9.67177 56.9111 8.94374 57.2489 8.26772C57.4308 7.90371 57.6647 7.5657 57.9506 7.3057C58.4963 6.83768 59.2499 6.99369 59.5618 7.66971C59.7177 8.00772 59.8216 8.42373 59.8476 8.81374C59.9256 9.74977 59.7697 10.6598 59.3019 11.4918Z" fill="#842325"/>
</svg>
