<svg width="65" height="16" viewBox="0 0 65 16" fill="none" xmlns="http://www.w3.org/2000/svg">
<g clip-path="url(#clip0)">
<path d="M10.9764 8.40981C11.1322 8.35781 11.262 8.30581 11.3658 8.25381C12.3782 7.9158 13.3128 7.39579 14.1176 6.69376C15.0262 5.88774 15.7011 4.95171 15.9088 3.70368C16.1684 2.14363 15.2858 0.713588 13.806 0.349578C12.9234 0.141572 12.0927 0.245575 11.3139 0.687587C11.0024 0.869593 10.7687 1.1556 10.5351 1.41561C10.3793 1.57161 10.3793 1.75362 10.5351 1.96163C11.0283 2.71565 11.236 3.57367 11.1062 4.4837C11.0024 5.21172 10.6389 5.78374 9.98993 6.14775C9.93801 6.01774 9.88609 5.88774 9.83417 5.78374C9.21113 4.19769 8.58809 2.61164 7.96505 1.0256C7.88717 0.817591 7.78333 0.713588 7.54969 0.713588C5.9921 0.713588 4.4345 0.713588 2.8769 0.713588C2.7471 0.76559 2.64326 0.791591 2.46154 0.817591C3.57782 3.05366 4.66814 5.21172 5.75846 7.42179C4.72006 7.7338 3.7855 8.17581 2.95478 8.77383C2.02022 9.44985 1.24142 10.2819 0.800104 11.3999C0.0472651 13.324 1.13758 15.274 3.08458 15.586C4.20086 15.768 5.49886 15.17 6.06998 14.182C6.19978 13.948 6.2517 13.74 6.06998 13.48C5.7325 13.0119 5.6027 12.4399 5.57674 11.8679C5.57674 10.9839 5.94018 10.3079 6.66705 9.78785C6.71897 9.91786 6.7709 10.0219 6.82281 10.1259C7.47181 11.7119 8.12081 13.298 8.76981 14.884C8.84769 15.092 8.97749 15.17 9.21113 15.17C10.8726 15.17 12.508 15.17 14.1695 15.17C14.2733 15.17 14.3772 15.144 14.5329 15.144C13.3128 12.8819 12.1446 10.6459 10.9764 8.40981ZM36.8325 6.95377C36.8325 7.03177 36.8325 7.10978 36.8325 7.16178C36.521 9.70985 36.2095 12.2839 35.872 14.832C35.846 15.092 35.898 15.196 36.1576 15.17C37.196 15.17 38.2344 15.17 39.2728 15.17C39.9737 15.17 39.8698 15.326 39.9477 14.546C40.2073 12.5699 40.441 10.6199 40.6746 8.64382C40.8044 7.55179 40.9342 6.43376 41.09 5.34172C41.1159 5.15972 41.09 5.05572 40.9082 5.02972C40.6746 5.00371 40.441 4.95171 40.2073 4.89971C37.6632 4.4577 35.1192 4.4837 32.5751 5.00371C32.3415 5.05572 32.2636 5.15972 32.2376 5.39373C32.0819 6.35575 31.9521 7.31778 31.7444 8.27981C31.355 10.2039 30.6281 11.9459 29.0186 13.168C28.9147 13.246 28.8628 13.454 28.8628 13.61C28.9407 14.494 29.6935 15.378 30.5762 15.534C31.6925 15.768 32.6789 15.482 33.4058 14.572C33.7952 14.078 34.1327 13.48 34.3144 12.8819C34.6519 11.6859 34.8596 10.4899 35.0672 9.26784C35.197 8.51382 35.223 7.7338 35.3009 6.92777C35.7941 6.95377 36.2874 6.95377 36.8325 6.95377ZM49.7606 7.26578C49.3452 7.13578 48.8779 7.05778 48.4366 7.08378C47.7876 7.10978 47.1127 7.21378 46.4377 7.26578C46.4118 7.05778 46.5415 7.00577 46.7752 6.95377C47.554 6.79777 48.3587 6.66776 49.1116 6.43376C50.2279 6.09575 51.2143 5.54973 51.9153 4.5877C52.4085 3.91168 52.6421 3.15766 52.4345 2.32564C52.1489 1.0776 50.9807 0.193573 49.5789 0.141572C47.9174 0.08957 46.5156 0.739589 45.3214 1.88362C44.1273 3.05366 43.3485 4.4577 42.7774 6.01774C42.1803 7.7598 41.8168 9.52785 42.0505 11.3739C42.3101 13.324 43.2966 14.754 45.2436 15.352C46.0743 15.612 46.931 15.586 47.8136 15.43C50.0721 15.014 52.0191 13.298 52.1229 10.6459C52.2268 8.95583 51.3961 7.70779 49.7606 7.26578ZM47.7617 3.44367C47.8915 3.18366 48.177 2.94965 48.4626 2.84565C48.852 2.68965 49.1375 2.94965 49.0597 3.36567C49.0337 3.57367 48.9299 3.80768 48.826 3.98968C48.3847 4.6397 47.7357 5.05572 47.0348 5.41973C47.0088 5.39373 46.9569 5.36773 46.931 5.34172C47.1906 4.69171 47.4501 4.04169 47.7617 3.44367ZM47.8655 12.6999C47.7357 12.8819 47.554 13.012 47.3723 13.116C46.931 13.376 46.4118 13.246 46.2041 12.7779C46.0224 12.3879 45.9185 11.9459 45.8926 11.5299C45.8666 10.8539 45.9704 10.1519 45.9964 9.47585C46.0224 9.24184 46.1002 9.11183 46.3598 9.11183C46.5156 9.11183 46.6973 9.05983 46.7752 9.05983C47.7357 9.03383 48.3068 9.47585 48.4366 10.3339C48.5924 11.2179 48.3587 11.9979 47.8655 12.6999ZM28.2138 5.15972C28.2398 4.92571 28.1879 4.87371 27.9802 4.87371C26.7601 4.87371 25.5399 4.87371 24.3458 4.87371C24.1121 4.87371 24.0343 4.95171 24.0083 5.18572C23.9823 5.52373 23.9304 5.88774 23.8525 6.30375C23.8006 6.22575 23.7747 6.19975 23.7487 6.17375C22.9699 4.79571 21.8536 4.24969 20.322 4.5617C18.9202 4.84771 17.9596 5.73174 17.2847 6.95377C16.454 8.46182 16.1684 10.0999 16.428 11.8159C16.5578 12.7259 16.8434 13.558 17.3885 14.286C18.1414 15.274 19.2576 15.664 20.4518 15.352C21.4902 15.066 22.2171 14.39 22.8661 13.558C22.944 13.454 23.0218 13.35 23.1257 13.22C23.3074 14.702 24.2679 15.534 25.7217 15.456C26.6822 15.404 27.4869 14.988 28.084 14.208C28.2398 14.026 28.2657 13.844 28.0061 13.714C27.6427 13.532 27.435 13.194 27.4091 12.8039C27.3831 12.0759 27.3571 11.3479 27.435 10.6459C27.6427 8.79983 27.9542 6.97977 28.2138 5.15972ZM23.0218 11.6859C22.8661 11.9719 22.6324 12.2319 22.3728 12.4139C21.7758 12.8299 21.0748 12.6219 20.7893 11.9459C20.6595 11.6599 20.5816 11.3479 20.5556 11.0359C20.4778 10.1259 20.6076 9.24184 20.971 8.40981C21.1268 8.0718 21.3344 7.7598 21.594 7.49979C22.1911 6.92777 23.0218 7.10978 23.3333 7.8638C23.5151 8.30581 23.567 8.77382 23.6708 9.24184C23.567 10.1259 23.4372 10.9579 23.0218 11.6859ZM64.9991 5.21172C65.051 4.95171 64.9731 4.87371 64.7135 4.87371C63.5194 4.87371 62.3512 4.87371 61.157 4.87371C60.8974 4.87371 60.7936 4.97771 60.7676 5.23772C60.7416 5.57573 60.6897 5.91374 60.6378 6.25175C60.6118 6.25175 60.5859 6.25175 60.5859 6.22575C60.5599 6.17375 60.508 6.12175 60.4821 6.06975C59.859 4.92571 58.8725 4.4057 57.5745 4.5097C56.1467 4.6137 55.0824 5.36773 54.3295 6.53776C53.2911 8.09781 52.9796 9.83986 53.1873 11.6859C53.2911 12.6219 53.5767 13.532 54.1738 14.312C54.9785 15.3 55.991 15.638 57.2111 15.326C58.2495 15.066 58.9764 14.364 59.6254 13.558C59.7033 13.48 59.7552 13.376 59.859 13.246C60.1446 14.832 61.1051 15.586 62.6108 15.43C63.4934 15.352 64.2462 14.936 64.8174 14.208C64.9472 14.026 65.051 13.844 64.7914 13.688C64.376 13.454 64.1684 13.064 64.1424 12.6219C64.1164 11.9979 64.0905 11.3739 64.1684 10.7499C64.428 8.92983 64.7135 7.08378 64.9991 5.21172ZM59.8071 11.6339C59.6513 11.9459 59.3917 12.2319 59.1321 12.4139C58.5351 12.8559 57.8082 12.6479 57.5486 11.9459C57.3928 11.5299 57.3409 11.0619 57.2371 10.5939C57.3149 9.81386 57.4188 9.08583 57.7563 8.40981C57.938 8.0458 58.1716 7.70779 58.4572 7.44779C59.0023 6.97977 59.7552 7.13578 60.0667 7.8118C60.2225 8.14981 60.3263 8.56582 60.3522 8.95583C60.4301 9.89186 60.2744 10.8019 59.8071 11.6339Z" fill="#842325"/>
</g>
<defs>
<clipPath id="clip0">
<rect width="64.4326" height="15.4965" fill="white" transform="translate(0.567383 0.14209)"/>
</clipPath>
</defs>
</svg>
