<svg width="32" height="32" viewBox="0 0 32 32" xmlns="http://www.w3.org/2000/svg">
<path fill-rule="evenodd" clip-rule="evenodd" d="M8.48921 1.60433C8.59634 1.62049 8.69233 1.67941 8.75524 1.76763C9.39932 2.67092 9.45719 3.61947 9.27148 4.41945C9.23943 4.55752 9.2001 4.6915 9.15521 4.82059C9.69966 4.65151 10.2553 4.6322 10.7749 4.70131C11.7476 4.8307 12.6171 5.27007 13.1299 5.63999C13.2309 5.71281 13.2922 5.82847 13.2957 5.95288C13.2993 6.0773 13.2448 6.19629 13.1482 6.2748C12.6118 6.71079 11.7056 7.23852 10.7121 7.39464C10.0077 7.50534 9.2524 7.42759 8.57146 7.00074C8.67 9.26862 7.52596 11.2116 5.58269 12.2025C4.41136 12.7998 2.96804 13.0413 1.36387 12.8175C1.17554 12.7913 1.03174 12.636 1.0199 12.4463C0.92989 11.0034 1.13987 9.62289 1.75917 8.4746C2.68646 6.75526 4.47491 5.65143 7.26377 5.56326C7.06674 5.2011 6.9103 4.76464 6.87319 4.28789C6.80598 3.42451 7.13563 2.48429 8.18685 1.6819C8.27298 1.61616 8.38208 1.58817 8.48921 1.60433ZM7.70168 6.35773C5.21309 6.34109 3.66726 7.13893 2.78718 8.3407C3.27691 8.43929 3.83395 8.64195 4.33717 8.99927C4.98353 9.45823 5.52857 10.165 5.72639 11.1923C7.23846 10.1787 8.03734 8.40524 7.70168 6.35773ZM4.98057 11.6039C4.86969 10.6373 4.40929 10.0316 3.87401 9.65156C3.37321 9.29596 2.79417 9.13051 2.34896 9.08084C1.94599 9.93514 1.77295 10.9532 1.80338 12.0642C3.01595 12.1824 4.09134 12.0011 4.98057 11.6039ZM8.59577 6.00103C9.23899 5.50522 9.96997 5.40129 10.6694 5.49432C11.2289 5.56875 11.7563 5.76917 12.171 5.98769C11.7288 6.26102 11.1675 6.51326 10.5879 6.60434C9.89569 6.71312 9.19027 6.59437 8.59577 6.00103ZM8.03615 5.30191C8.2204 5.01503 8.39732 4.64727 8.4922 4.23855C8.60955 3.73303 8.60095 3.17265 8.33077 2.61337C7.76956 3.1695 7.63264 3.73596 7.67077 4.22581C7.70207 4.62782 7.85402 5.00345 8.03615 5.30191Z" />
<path d="M14.15 19.65C14.5366 19.65 14.85 19.3366 14.85 18.95C14.85 18.5634 14.5366 18.25 14.15 18.25C13.7634 18.25 13.45 18.5634 13.45 18.95C13.45 19.3366 13.7634 19.65 14.15 19.65Z" />
<path fill-rule="evenodd" clip-rule="evenodd" d="M28.8663 3.3465C28.951 3.55053 28.8542 3.78459 28.6502 3.86929C28.0845 4.10412 27.5077 4.3728 26.9235 4.67096C26.8574 5.28572 27.0949 5.91843 27.4336 6.70982L27.5072 6.88093C27.8367 7.64595 28.218 8.5312 28.2919 9.53808C28.3758 10.6815 27.7923 11.4315 27.2819 12.0875C26.7324 12.7938 26.2415 13.4262 26.2415 14.468C26.2415 15.5186 26.5842 16.1298 26.9701 16.7463C26.9967 16.7889 27.0237 16.8317 27.0509 16.8748L27.0524 16.8771C27.4258 17.4686 27.841 18.1261 27.8893 19.1392C27.9451 20.3107 27.6894 21.1498 27.4333 21.8829L27.3905 22.0049L27.3578 22.0973C27.2331 22.4499 27.1198 22.7705 27.0432 23.0999H28C28.2209 23.0999 28.4 23.2789 28.4 23.4999C28.4 23.7208 28.2209 23.8999 28 23.8999H26.9435C26.9358 24.5835 26.9383 25.2674 26.9408 25.9513C26.9421 26.2898 26.9433 26.6289 26.9433 26.9673C26.9433 27.4931 26.7646 27.9783 26.4267 28.335C26.0866 28.6941 25.6067 28.8999 25.0532 28.8999C24.5131 28.8999 24.0372 28.7217 23.6981 28.3632C23.3614 28.0074 23.2 27.5171 23.2 26.9673C23.2 26.7464 23.3791 26.5673 23.6 26.5673C23.8209 26.5673 24 26.7464 24 26.9673C24 27.3635 24.1146 27.6394 24.2792 27.8134C24.4413 27.9847 24.692 28.0999 25.0532 28.0999C25.4012 28.0999 25.6663 27.9745 25.8459 27.7849C26.0277 27.5929 26.1433 27.3118 26.1433 26.9673C26.1433 26.6288 26.1423 26.2904 26.1412 25.9519C26.1391 25.2679 26.137 24.5837 26.1435 23.8999H25.3C25.0791 23.8999 24.9 23.7208 24.9 23.4999C24.9 23.2789 25.0791 23.0999 25.3 23.0999H26.2259C26.3141 22.6441 26.4605 22.2324 26.6018 21.8349C26.6275 21.7626 26.6531 21.6907 26.6781 21.6191C26.9214 20.9225 27.1388 20.1975 27.0902 19.1773C27.0522 18.38 26.7411 17.8854 26.3642 17.2858L26.2919 17.1707C25.8766 16.5072 25.4415 15.7413 25.4415 14.468C25.4415 13.1581 26.0738 12.3386 26.6065 11.6529C27.149 10.9544 27.5549 10.426 27.494 9.59662C27.4304 8.72918 27.1002 7.96075 26.7627 7.17497L26.6981 7.0246C26.4378 6.41625 26.1707 5.76993 26.1211 5.09626C23.2066 6.69689 20.1547 8.96788 17.425 11.3821C15.7476 12.8657 14.2015 14.3949 12.8906 15.8449C13.2794 15.687 13.7045 15.6001 14.15 15.6001C16.0001 15.6001 17.5 17.0999 17.5 18.9501C17.5 20.8003 16.0001 22.3001 14.15 22.3001C12.2998 22.3001 10.8 20.8003 10.8 18.9501C10.8 18.7129 10.8246 18.4814 10.8715 18.2582C10.4044 18.8708 10.0013 19.4507 9.67268 19.9852C10.5076 20.7258 10.7361 21.975 10.1563 22.9793L7.4563 27.6558C6.76319 28.8563 5.25474 29.156 4.09124 28.4843C2.92774 27.8125 2.43306 26.3563 3.12618 25.1558L5.82618 20.4793C6.46966 19.3647 7.87212 18.9615 9.0038 19.5457C10.5113 17.1025 13.4504 13.8295 16.895 10.7829C20.4609 7.62903 24.6112 4.67986 28.3435 3.13044C28.5475 3.04573 28.7816 3.14247 28.8663 3.3465ZM6.519 20.8793L3.819 25.5558C3.34411 26.3783 3.7061 27.3381 4.49124 27.7914C5.27639 28.2447 6.2886 28.0783 6.76348 27.2558L9.46348 22.5793C9.93837 21.7567 9.57638 20.7969 8.79124 20.3436C8.0061 19.8903 6.99388 20.0567 6.519 20.8793ZM14.15 21.5001C15.5583 21.5001 16.7 20.3584 16.7 18.9501C16.7 17.5418 15.5583 16.4001 14.15 16.4001C12.7417 16.4001 11.6 17.5418 11.6 18.9501C11.6 20.3584 12.7417 21.5001 14.15 21.5001Z" />
</svg>
