<svg width="32" height="32" viewBox="0 0 32 32"  xmlns="http://www.w3.org/2000/svg">
<path d="M28.5255 3.45494C21.1655 6.50058 12.052 15.104 9.19684 19.9261" fill="none" stroke-width="0.8" stroke-linecap="round" stroke-linejoin="round"/>
<path d="M6.17261 20.6793C6.72489 19.7227 7.94807 19.395 8.90466 19.9473L9.08599 20.0519C10.0426 20.6042 10.3703 21.8274 9.81804 22.784L7.09684 27.4973C6.54455 28.4538 5.32137 28.7816 4.36479 28.2293L4.18346 28.1246C3.22687 27.5723 2.89912 26.3491 3.4514 25.3926L6.17261 20.6793Z" fill="none" stroke-width="0.8" stroke-linecap="round" stroke-linejoin="round"/>
<path d="M24.0289 26.9403C24.0289 26.7194 23.8498 26.5403 23.6289 26.5403C23.408 26.5403 23.2289 26.7194 23.2289 26.9403H24.0289ZM27.5326 19.1461L27.1331 19.1652L27.5326 19.1461ZM26.1883 4.44976C26.0362 5.36245 26.3941 6.23312 26.7399 7.03648C27.1002 7.87371 27.4705 8.68242 27.5384 9.6028L28.3363 9.54393C28.2565 8.46259 27.8197 7.52179 27.4747 6.72023C27.1152 5.8848 26.8697 5.2274 26.9774 4.58125L26.1883 4.44976ZM27.5384 9.6028C27.5994 10.4294 27.1928 10.9562 26.648 11.6536C26.1136 12.3379 25.4785 13.1563 25.4785 14.4647H26.2785C26.2785 13.4536 26.7466 12.8272 27.2785 12.1461C27.8002 11.4782 28.423 10.7191 28.3363 9.54393L27.5384 9.6028ZM26.1828 23.9187C26.1828 23.9195 26.1828 23.9202 26.1828 23.921C26.1828 23.9217 26.1828 23.9225 26.1828 23.9232C26.1828 23.924 26.1828 23.9247 26.1828 23.9255C26.1828 23.9263 26.1828 23.927 26.1828 23.9278C26.1828 23.9286 26.1828 23.9294 26.1828 23.9302C26.1828 23.931 26.1828 23.9318 26.1828 23.9326C26.1828 23.9334 26.1828 23.9342 26.1828 23.935C26.1828 23.9358 26.1828 23.9366 26.1828 23.9374C26.1828 23.9383 26.1828 23.9391 26.1828 23.9399C26.1828 23.9408 26.1828 23.9416 26.1828 23.9424C26.1828 23.9433 26.1828 23.9441 26.1828 23.945C26.1828 23.9458 26.1828 23.9467 26.1828 23.9476C26.1828 23.9484 26.1828 23.9493 26.1828 23.9502C26.1828 23.951 26.1828 23.9519 26.1828 23.9528C26.1828 23.9537 26.1828 23.9546 26.1828 23.9555C26.1828 23.9564 26.1828 23.9573 26.1828 23.9582C26.1828 23.9591 26.1828 23.96 26.1828 23.9609C26.1828 23.9618 26.1828 23.9627 26.1828 23.9636C26.1828 23.9646 26.1828 23.9655 26.1828 23.9664C26.1828 23.9674 26.1828 23.9683 26.1828 23.9692C26.1828 23.9702 26.1828 23.9711 26.1828 23.9721C26.1828 23.973 26.1828 23.974 26.1828 23.975C26.1828 23.9759 26.1828 23.9769 26.1828 23.9779C26.1828 23.9788 26.1828 23.9798 26.1828 23.9808C26.1828 23.9818 26.1828 23.9828 26.1828 23.9838C26.1828 23.9848 26.1828 23.9858 26.1828 23.9868C26.1828 23.9878 26.1828 23.9888 26.1828 23.9898C26.1828 23.9908 26.1828 23.9918 26.1828 23.9928C26.1828 23.9939 26.1828 23.9949 26.1828 23.9959C26.1828 23.997 26.1828 23.998 26.1828 23.999C26.1828 24.0001 26.1828 24.0011 26.1828 24.0022C26.1828 24.0032 26.1828 24.0043 26.1828 24.0054C26.1828 24.0064 26.1828 24.0075 26.1828 24.0086C26.1828 24.0096 26.1828 24.0107 26.1828 24.0118C26.1828 24.0129 26.1828 24.0139 26.1828 24.015C26.1828 24.0161 26.1828 24.0172 26.1828 24.0183C26.1828 24.0194 26.1828 24.0205 26.1828 24.0216C26.1828 24.0227 26.1828 24.0239 26.1828 24.025C26.1828 24.0261 26.1828 24.0272 26.1828 24.0283C26.1828 24.0295 26.1828 24.0306 26.1828 24.0317C26.1828 24.0329 26.1828 24.034 26.1828 24.0352C26.1828 24.0363 26.1828 24.0375 26.1828 24.0386C26.1828 24.0398 26.1828 24.0409 26.1828 24.0421C26.1828 24.0433 26.1828 24.0444 26.1828 24.0456C26.1828 24.0468 26.1828 24.0479 26.1828 24.0491C26.1828 24.0503 26.1828 24.0515 26.1828 24.0527C26.1828 24.0539 26.1828 24.0551 26.1828 24.0563C26.1828 24.0575 26.1828 24.0587 26.1828 24.0599C26.1828 24.0611 26.1828 24.0623 26.1828 24.0635C26.1828 24.0648 26.1828 24.066 26.1828 24.0672C26.1828 24.0684 26.1828 24.0697 26.1828 24.0709C26.1828 24.0721 26.1828 24.0734 26.1828 24.0746C26.1828 24.0759 26.1828 24.0771 26.1828 24.0784C26.1828 24.0796 26.1828 24.0809 26.1828 24.0822C26.1828 24.0834 26.1828 24.0847 26.1828 24.086C26.1828 24.0872 26.1828 24.0885 26.1828 24.0898C26.1828 24.0911 26.1828 24.0924 26.1828 24.0936C26.1828 24.0949 26.1828 24.0962 26.1828 24.0975C26.1828 24.0988 26.1828 24.1001 26.1828 24.1014C26.1828 24.1027 26.1828 24.1041 26.1828 24.1054C26.1828 24.1067 26.1828 24.108 26.1828 24.1093C26.1828 24.1107 26.1828 24.112 26.1828 24.1133C26.1828 24.1146 26.1828 24.116 26.1828 24.1173C26.1828 24.1187 26.1828 24.12 26.1828 24.1214C26.1828 24.1227 26.1828 24.1241 26.1828 24.1254C26.1828 24.1268 26.1828 24.1281 26.1828 24.1295C26.1828 24.1309 26.1828 24.1323 26.1828 24.1336C26.1828 24.135 26.1828 24.1364 26.1828 24.1378C26.1828 24.1391 26.1828 24.1405 26.1828 24.1419C26.1828 24.1433 26.1828 24.1447 26.1828 24.1461C26.1828 24.1475 26.1828 24.1489 26.1828 24.1503C26.1828 24.1517 26.1828 24.1531 26.1828 24.1546C26.1828 24.156 26.1828 24.1574 26.1828 24.1588C26.1828 24.1602 26.1828 24.1617 26.1828 24.1631C26.1828 24.1645 26.1828 24.166 26.1828 24.1674C26.1828 24.1689 26.1828 24.1703 26.1828 24.1718C26.1828 24.1732 26.1828 24.1747 26.1828 24.1761C26.1828 24.1776 26.1828 24.179 26.1828 24.1805C26.1828 24.182 26.1828 24.1834 26.1828 24.1849C26.1828 24.1864 26.1828 24.1879 26.1828 24.1893C26.1828 24.1908 26.1828 24.1923 26.1828 24.1938C26.1828 24.1953 26.1828 24.1968 26.1828 24.1983C26.1828 24.1998 26.1828 24.2013 26.1828 24.2028C26.1828 24.2043 26.1828 24.2058 26.1828 24.2073C26.1828 24.2088 26.1828 24.2103 26.1828 24.2118C26.1828 24.2134 26.1828 24.2149 26.1828 24.2164C26.1828 24.2179 26.1828 24.2195 26.1828 24.221C26.1828 24.2225 26.1828 24.2241 26.1828 24.2256C26.1828 24.2272 26.1828 24.2287 26.1828 24.2303C26.1828 24.2318 26.1828 24.2334 26.1828 24.2349C26.1828 24.2365 26.1828 24.238 26.1828 24.2396C26.1828 24.2412 26.1828 24.2427 26.1828 24.2443C26.1828 24.2459 26.1828 24.2475 26.1828 24.2491C26.1828 24.2506 26.1828 24.2522 26.1828 24.2538C26.1828 24.2554 26.1828 24.257 26.1828 24.2586C26.1828 24.2602 26.1828 24.2618 26.1828 24.2634C26.1828 24.265 26.1828 24.2666 26.1828 24.2682C26.1828 24.2698 26.1828 24.2714 26.1828 24.273C26.1828 24.2747 26.1828 24.2763 26.1828 24.2779C26.1828 24.2795 26.1828 24.2812 26.1828 24.2828C26.1828 24.2844 26.1828 24.2861 26.1828 24.2877C26.1828 24.2893 26.1828 24.291 26.1828 24.2926C26.1828 24.2943 26.1828 24.2959 26.1828 24.2976C26.1828 24.2992 26.1828 24.3009 26.1828 24.3025C26.1828 24.3042 26.1828 24.3059 26.1828 24.3075C26.1828 24.3092 26.1828 24.3109 26.1828 24.3126C26.1828 24.3142 26.1828 24.3159 26.1828 24.3176C26.1828 24.3193 26.1828 24.321 26.1828 24.3226C26.1828 24.3243 26.1828 24.326 26.1828 24.3277C26.1828 24.3294 26.1828 24.3311 26.1828 24.3328C26.1828 24.3345 26.1828 24.3362 26.1828 24.3379C26.1828 24.3397 26.1828 24.3414 26.1828 24.3431C26.1828 24.3448 26.1828 24.3465 26.1828 24.3482C26.1828 24.35 26.1828 24.3517 26.1828 24.3534C26.1828 24.3552 26.1828 24.3569 26.1828 24.3586C26.1828 24.3604 26.1828 24.3621 26.1828 24.3638C26.1828 24.3656 26.1828 24.3673 26.1828 24.3691C26.1828 24.3708 26.1828 24.3726 26.1828 24.3743C26.1828 24.3761 26.1828 24.3779 26.1828 24.3796C26.1828 24.3814 26.1828 24.3832 26.1828 24.3849C26.1828 24.3867 26.1828 24.3885 26.1828 24.3902C26.1828 24.392 26.1828 24.3938 26.1828 24.3956C26.1828 24.3974 26.1828 24.3992 26.1828 24.4009C26.1828 24.4027 26.1828 24.4045 26.1828 24.4063C26.1828 24.4081 26.1828 24.4099 26.1828 24.4117C26.1828 24.4135 26.1828 24.4153 26.1828 24.4171C26.1828 24.4189 26.1828 24.4208 26.1828 24.4226C26.1828 24.4244 26.1828 24.4262 26.1828 24.428C26.1828 24.4298 26.1828 24.4317 26.1828 24.4335C26.1828 24.4353 26.1828 24.4372 26.1828 24.439C26.1828 24.4408 26.1828 24.4427 26.1828 24.4445C26.1828 24.4463 26.1828 24.4482 26.1828 24.45C26.1828 24.4519 26.1828 24.4537 26.1828 24.4556C26.1828 24.4574 26.1828 24.4593 26.1828 24.4611C26.1828 24.463 26.1828 24.4649 26.1828 24.4667C26.1828 24.4686 26.1828 24.4705 26.1828 24.4723C26.1828 24.4742 26.1828 24.4761 26.1828 24.4779C26.1828 24.4798 26.1828 24.4817 26.1828 24.4836C26.1828 24.4855 26.1828 24.4873 26.1828 24.4892C26.1828 24.4911 26.1828 24.493 26.1828 24.4949C26.1828 24.4968 26.1828 24.4987 26.1828 24.5006C26.1828 24.5025 26.1828 24.5044 26.1828 24.5063C26.1828 24.5082 26.1828 24.5101 26.1828 24.512C26.1828 24.5139 26.1828 24.5159 26.1828 24.5178C26.1828 24.5197 26.1828 24.5216 26.1828 24.5235C26.1828 24.5255 26.1828 24.5274 26.1828 24.5293C26.1828 24.5312 26.1828 24.5332 26.1828 24.5351C26.1828 24.537 26.1828 24.539 26.1828 24.5409C26.1828 24.5429 26.1828 24.5448 26.1828 24.5467C26.1828 24.5487 26.1828 24.5506 26.1828 24.5526C26.1828 24.5545 26.1828 24.5565 26.1828 24.5584C26.1828 24.5604 26.1828 24.5624 26.1828 24.5643C26.1828 24.5663 26.1828 24.5682 26.1828 24.5702C26.1828 24.5722 26.1828 24.5742 26.1828 24.5761C26.1828 24.5781 26.1828 24.5801 26.1828 24.5821C26.1828 24.584 26.1828 24.586 26.1828 24.588C26.1828 24.59 26.1828 24.592 26.1828 24.5939C26.1828 24.5959 26.1828 24.5979 26.1828 24.5999C26.1828 24.6019 26.1828 24.6039 26.1828 24.6059C26.1828 24.6079 26.1828 24.6099 26.1828 24.6119C26.1828 24.6139 26.1828 24.6159 26.1828 24.6179C26.1828 24.6199 26.1828 24.622 26.1828 24.624C26.1828 24.626 26.1828 24.628 26.1828 24.63C26.1828 24.632 26.1828 24.6341 26.1828 24.6361C26.1828 24.6381 26.1828 24.6401 26.1828 24.6422C26.1828 24.6442 26.1828 24.6462 26.1828 24.6483C26.1828 24.6503 26.1828 24.6523 26.1828 24.6544C26.1828 24.6564 26.1828 24.6585 26.1828 24.6605C26.1828 24.6625 26.1828 24.6646 26.1828 24.6666C26.1828 24.6687 26.1828 24.6707 26.1828 24.6728C26.1828 24.6749 26.1828 24.6769 26.1828 24.679C26.1828 24.681 26.1828 24.6831 26.1828 24.6852C26.1828 24.6872 26.1828 24.6893 26.1828 24.6914C26.1828 24.6934 26.1828 24.6955 26.1828 24.6976C26.1828 24.6996 26.1828 24.7017 26.1828 24.7038C26.1828 24.7059 26.1828 24.7079 26.1828 24.71C26.1828 24.7121 26.1828 24.7142 26.1828 24.7163C26.1828 24.7184 26.1828 24.7205 26.1828 24.7226C26.1828 24.7246 26.1828 24.7267 26.1828 24.7288C26.1828 24.7309 26.1828 24.733 26.1828 24.7351C26.1828 24.7372 26.1828 24.7393 26.1828 24.7414C26.1828 24.7435 26.1828 24.7456 26.1828 24.7478C26.1828 24.7499 26.1828 24.752 26.1828 24.7541C26.1828 24.7562 26.1828 24.7583 26.1828 24.7604C26.1828 24.7626 26.1828 24.7647 26.1828 24.7668C26.1828 24.7689 26.1828 24.7711 26.1828 24.7732C26.1828 24.7753 26.1828 24.7774 26.1828 24.7796C26.1828 24.7817 26.1828 24.7838 26.1828 24.786C26.1828 24.7881 26.1828 24.7902 26.1828 24.7924C26.1828 24.7945 26.1828 24.7967 26.1828 24.7988C26.1828 24.8009 26.1828 24.8031 26.1828 24.8052C26.1828 24.8074 26.1828 24.8095 26.1828 24.8117C26.1828 24.8138 26.1828 24.816 26.1828 24.8182C26.1828 24.8203 26.1828 24.8225 26.1828 24.8246C26.1828 24.8268 26.1828 24.8289 26.1828 24.8311C26.1828 24.8333 26.1828 24.8354 26.1828 24.8376C26.1828 24.8398 26.1828 24.8419 26.1828 24.8441C26.1828 24.8463 26.1828 24.8485 26.1828 24.8506C26.1828 24.8528 26.1828 24.855 26.1828 24.8572C26.1828 24.8594 26.1828 24.8615 26.1828 24.8637C26.1828 24.8659 26.1828 24.8681 26.1828 24.8703C26.1828 24.8725 26.1828 24.8747 26.1828 24.8768C26.1828 24.879 26.1828 24.8812 26.1828 24.8834C26.1828 24.8856 26.1828 24.8878 26.1828 24.89C26.1828 24.8922 26.1828 24.8944 26.1828 24.8966C26.1828 24.8988 26.1828 24.901 26.1828 24.9032C26.1828 24.9054 26.1828 24.9076 26.1828 24.9098C26.1828 24.9121 26.1828 24.9143 26.1828 24.9165C26.1828 24.9187 26.1828 24.9209 26.1828 24.9231C26.1828 24.9253 26.1828 24.9276 26.1828 24.9298C26.1828 24.932 26.1828 24.9342 26.1828 24.9364C26.1828 24.9387 26.1828 24.9409 26.1828 24.9431C26.1828 24.9453 26.1828 24.9476 26.1828 24.9498C26.1828 24.952 26.1828 24.9543 26.1828 24.9565C26.1828 24.9587 26.1828 24.961 26.1828 24.9632C26.1828 24.9654 26.1828 24.9677 26.1828 24.9699C26.1828 24.9722 26.1828 24.9744 26.1828 24.9766C26.1828 24.9789 26.1828 24.9811 26.1828 24.9834C26.1828 24.9856 26.1828 24.9879 26.1828 24.9901C26.1828 24.9924 26.1828 24.9946 26.1828 24.9969C26.1828 24.9991 26.1828 25.0014 26.1828 25.0036C26.1828 25.0059 26.1828 25.0081 26.1828 25.0104C26.1828 25.0127 26.1828 25.0149 26.1828 25.0172C26.1828 25.0194 26.1828 25.0217 26.1828 25.024C26.1828 25.0262 26.1828 25.0285 26.1828 25.0308C26.1828 25.033 26.1828 25.0353 26.1828 25.0376C26.1828 25.0398 26.1828 25.0421 26.1828 25.0444C26.1828 25.0467 26.1828 25.0489 26.1828 25.0512C26.1828 25.0535 26.1828 25.0558 26.1828 25.058C26.1828 25.0603 26.1828 25.0626 26.1828 25.0649C26.1828 25.0672 26.1828 25.0695 26.1828 25.0717C26.1828 25.074 26.1828 25.0763 26.1828 25.0786C26.1828 25.0809 26.1828 25.0832 26.1828 25.0855C26.1828 25.0878 26.1828 25.09 26.1828 25.0923C26.1828 25.0946 26.1828 25.0969 26.1828 25.0992C26.1828 25.1015 26.1828 25.1038 26.1828 25.1061C26.1828 25.1084 26.1828 25.1107 26.1828 25.113C26.1828 25.1153 26.1828 25.1176 26.1828 25.1199C26.1828 25.1222 26.1828 25.1245 26.1828 25.1268C26.1828 25.1291 26.1828 25.1314 26.1828 25.1337C26.1828 25.136 26.1828 25.1384 26.1828 25.1407C26.1828 25.143 26.1828 25.1453 26.1828 25.1476C26.1828 25.1499 26.1828 25.1522 26.1828 25.1545C26.1828 25.1569 26.1828 25.1592 26.1828 25.1615C26.1828 25.1638 26.1828 25.1661 26.1828 25.1684C26.1828 25.1708 26.1828 25.1731 26.1828 25.1754C26.1828 25.1777 26.1828 25.1801 26.1828 25.1824C26.1828 25.1847 26.1828 25.187 26.1828 25.1894C26.1828 25.1917 26.1828 25.194 26.1828 25.1963C26.1828 25.1987 26.1828 25.201 26.1828 25.2033C26.1828 25.2057 26.1828 25.208 26.1828 25.2103C26.1828 25.2126 26.1828 25.215 26.1828 25.2173C26.1828 25.2197 26.1828 25.222 26.1828 25.2243C26.1828 25.2267 26.1828 25.229 26.1828 25.2313C26.1828 25.2337 26.1828 25.236 26.1828 25.2384C26.1828 25.2407 26.1828 25.243 26.1828 25.2454C26.1828 25.2477 26.1828 25.2501 26.1828 25.2524C26.1828 25.2547 26.1828 25.2571 26.1828 25.2594C26.1828 25.2618 26.1828 25.2641 26.1828 25.2665C26.1828 25.2688 26.1828 25.2712 26.1828 25.2735C26.1828 25.2759 26.1828 25.2782 26.1828 25.2806C26.1828 25.2829 26.1828 25.2853 26.1828 25.2876C26.1828 25.29 26.1828 25.2923 26.1828 25.2947C26.1828 25.297 26.1828 25.2994 26.1828 25.3018C26.1828 25.3041 26.1828 25.3065 26.1828 25.3088C26.1828 25.3112 26.1828 25.3135 26.1828 25.3159C26.1828 25.3183 26.1828 25.3206 26.1828 25.323C26.1828 25.3253 26.1828 25.3277 26.1828 25.3301C26.1828 25.3324 26.1828 25.3348 26.1828 25.3372C26.1828 25.3395 26.1828 25.3419 26.1828 25.3442C26.1828 25.3466 26.1828 25.349 26.1828 25.3513C26.1828 25.3537 26.1828 25.3561 26.1828 25.3584C26.1828 25.3608 26.1828 25.3632 26.1828 25.3656C26.1828 25.3679 26.1828 25.3703 26.1828 25.3727C26.1828 25.375 26.1828 25.3774 26.1828 25.3798C26.1828 25.3821 26.1828 25.3845 26.1828 25.3869C26.1828 25.3893 26.1828 25.3916 26.1828 25.394C26.1828 25.3964 26.1828 25.3988 26.1828 25.4011C26.1828 25.4035 26.1828 25.4059 26.1828 25.4083C26.1828 25.4106 26.1828 25.413 26.1828 25.4154C26.1828 25.4178 26.1828 25.4201 26.1828 25.4225C26.1828 25.4249 26.1828 25.4273 26.1828 25.4297C26.1828 25.432 26.1828 25.4344 26.1828 25.4368C26.1828 25.4392 26.1828 25.4416 26.1828 25.4439C26.1828 25.4463 26.1828 25.4487 26.1828 25.4511C26.1828 25.4535 26.1828 25.4559 26.1828 25.4582C26.1828 25.4606 26.1828 25.463 26.1828 25.4654C26.1828 25.4678 26.1828 25.4702 26.1828 25.4725C26.1828 25.4749 26.1828 25.4773 26.1828 25.4797C26.1828 25.4821 26.1828 25.4845 26.1828 25.4868C26.1828 25.4892 26.1828 25.4916 26.1828 25.494C26.1828 25.4964 26.1828 25.4988 26.1828 25.5012C26.1828 25.5036 26.1828 25.5059 26.1828 25.5083C26.1828 25.5107 26.1828 25.5131 26.1828 25.5155C26.1828 25.5179 26.1828 25.5203 26.1828 25.5227C26.1828 25.5251 26.1828 25.5274 26.1828 25.5298C26.1828 25.5322 26.1828 25.5346 26.1828 25.537C26.1828 25.5394 26.1828 25.5418 26.1828 25.5442C26.1828 25.5466 26.1828 25.549 26.1828 25.5513C26.1828 25.5537 26.1828 25.5561 26.1828 25.5585C26.1828 25.5609 26.1828 25.5633 26.1828 25.5657C26.1828 25.5681 26.1828 25.5705 26.1828 25.5729C26.1828 25.5753 26.1828 25.5777 26.1828 25.58C26.1828 25.5824 26.1828 25.5848 26.1828 25.5872C26.1828 25.5896 26.1828 25.592 26.1828 25.5944C26.1828 25.5968 26.1828 25.5992 26.1828 25.6016C26.1828 25.604 26.1828 25.6064 26.1828 25.6088C26.1828 25.6111 26.1828 25.6135 26.1828 25.6159C26.1828 25.6183 26.1828 25.6207 26.1828 25.6231C26.1828 25.6255 26.1828 25.6279 26.1828 25.6303C26.1828 25.6327 26.1828 25.6351 26.1828 25.6375C26.1828 25.6399 26.1828 25.6423 26.1828 25.6447C26.1828 25.647 26.1828 25.6494 26.1828 25.6518C26.1828 25.6542 26.1828 25.6566 26.1828 25.659C26.1828 25.6614 26.1828 25.6638 26.1828 25.6662C26.1828 25.6686 26.1828 25.671 26.1828 25.6734C26.1828 25.6758 26.1828 25.6782 26.1828 25.6805C26.1828 25.6829 26.1828 25.6853 26.1828 25.6877C26.1828 25.6901 26.1828 25.6925 26.1828 25.6949C26.1828 25.6973 26.1828 25.6997 26.1828 25.7021C26.1828 25.7045 26.1828 25.7069 26.1828 25.7093C26.1828 25.7116 26.1828 25.714 26.1828 25.7164C26.1828 25.7188 26.1828 25.7212 26.1828 25.7236C26.1828 25.726 26.1828 25.7284 26.1828 25.7308C26.1828 25.7332 26.1828 25.7355 26.1828 25.7379C26.1828 25.7403 26.1828 25.7427 26.1828 25.7451C26.1828 25.7475 26.1828 25.7499 26.1828 25.7523C26.1828 25.7547 26.1828 25.757 26.1828 25.7594C26.1828 25.7618 26.1828 25.7642 26.1828 25.7666C26.1828 25.769 26.1828 25.7714 26.1828 25.7738C26.1828 25.7761 26.1828 25.7785 26.1828 25.7809C26.1828 25.7833 26.1828 25.7857 26.1828 25.7881C26.1828 25.7905 26.1828 25.7928 26.1828 25.7952C26.1828 25.7976 26.1828 25.8 26.1828 25.8024C26.1828 25.8048 26.1828 25.8072 26.1828 25.8095C26.1828 25.8119 26.1828 25.8143 26.1828 25.8167C26.1828 25.8191 26.1828 25.8214 26.1828 25.8238C26.1828 25.8262 26.1828 25.8286 26.1828 25.831C26.1828 25.8334 26.1828 25.8357 26.1828 25.8381C26.1828 25.8405 26.1828 25.8429 26.1828 25.8452C26.1828 25.8476 26.1828 25.85 26.1828 25.8524C26.1828 25.8548 26.1828 25.8571 26.1828 25.8595C26.1828 25.8619 26.1828 25.8643 26.1828 25.8666C26.1828 25.869 26.1828 25.8714 26.1828 25.8738C26.1828 25.8761 26.1828 25.8785 26.1828 25.8809C26.1828 25.8833 26.1828 25.8856 26.1828 25.888C26.1828 25.8904 26.1828 25.8927 26.1828 25.8951C26.1828 25.8975 26.1828 25.8999 26.1828 25.9022C26.1828 25.9046 26.1828 25.907 26.1828 25.9093C26.1828 25.9117 26.1828 25.9141 26.1828 25.9164C26.1828 25.9188 26.1828 25.9212 26.1828 25.9235C26.1828 25.9259 26.1828 25.9283 26.1828 25.9306C26.1828 25.933 26.1828 25.9353 26.1828 25.9377C26.1828 25.9401 26.1828 25.9424 26.1828 25.9448C26.1828 25.9472 26.1828 25.9495 26.1828 25.9519C26.1828 25.9542 26.1828 25.9566 26.1828 25.959C26.1828 25.9613 26.1828 25.9637 26.1828 25.966C26.1828 25.9684 26.1828 25.9707 26.1828 25.9731C26.1828 25.9754 26.1828 25.9778 26.1828 25.9802C26.1828 25.9825 26.1828 25.9849 26.1828 25.9872C26.1828 25.9896 26.1828 25.9919 26.1828 25.9943C26.1828 25.9966 26.1828 25.999 26.1828 26.0013C26.1828 26.0037 26.1828 26.006 26.1828 26.0083C26.1828 26.0107 26.1828 26.013 26.1828 26.0154C26.1828 26.0177 26.1828 26.0201 26.1828 26.0224C26.1828 26.0248 26.1828 26.0271 26.1828 26.0294C26.1828 26.0318 26.1828 26.0341 26.1828 26.0365C26.1828 26.0388 26.1828 26.0411 26.1828 26.0435C26.1828 26.0458 26.1828 26.0481 26.1828 26.0505C26.1828 26.0528 26.1828 26.0551 26.1828 26.0575C26.1828 26.0598 26.1828 26.0621 26.1828 26.0645C26.1828 26.0668 26.1828 26.0691 26.1828 26.0715C26.1828 26.0738 26.1828 26.0761 26.1828 26.0784C26.1828 26.0808 26.1828 26.0831 26.1828 26.0854C26.1828 26.0877 26.1828 26.0901 26.1828 26.0924C26.1828 26.0947 26.1828 26.097 26.1828 26.0993C26.1828 26.1017 26.1828 26.104 26.1828 26.1063C26.1828 26.1086 26.1828 26.1109 26.1828 26.1133C26.1828 26.1156 26.1828 26.1179 26.1828 26.1202C26.1828 26.1225 26.1828 26.1248 26.1828 26.1271C26.1828 26.1294 26.1828 26.1317 26.1828 26.1341C26.1828 26.1364 26.1828 26.1387 26.1828 26.141C26.1828 26.1433 26.1828 26.1456 26.1828 26.1479C26.1828 26.1502 26.1828 26.1525 26.1828 26.1548C26.1828 26.1571 26.1828 26.1594 26.1828 26.1617C26.1828 26.164 26.1828 26.1663 26.1828 26.1686C26.1828 26.1709 26.1828 26.1732 26.1828 26.1755C26.1828 26.1778 26.1828 26.18 26.1828 26.1823C26.1828 26.1846 26.1828 26.1869 26.1828 26.1892C26.1828 26.1915 26.1828 26.1938 26.1828 26.1961C26.1828 26.1984 26.1828 26.2006 26.1828 26.2029C26.1828 26.2052 26.1828 26.2075 26.1828 26.2098C26.1828 26.212 26.1828 26.2143 26.1828 26.2166C26.1828 26.2189 26.1828 26.2211 26.1828 26.2234C26.1828 26.2257 26.1828 26.228 26.1828 26.2302C26.1828 26.2325 26.1828 26.2348 26.1828 26.237C26.1828 26.2393 26.1828 26.2416 26.1828 26.2438C26.1828 26.2461 26.1828 26.2484 26.1828 26.2506C26.1828 26.2529 26.1828 26.2552 26.1828 26.2574C26.1828 26.2597 26.1828 26.2619 26.1828 26.2642C26.1828 26.2664 26.1828 26.2687 26.1828 26.271C26.1828 26.2732 26.1828 26.2755 26.1828 26.2777C26.1828 26.28 26.1828 26.2822 26.1828 26.2844C26.1828 26.2867 26.1828 26.2889 26.1828 26.2912C26.1828 26.2934 26.1828 26.2957 26.1828 26.2979C26.1828 26.3001 26.1828 26.3024 26.1828 26.3046C26.1828 26.3069 26.1828 26.3091 26.1828 26.3113C26.1828 26.3136 26.1828 26.3158 26.1828 26.318C26.1828 26.3203 26.1828 26.3225 26.1828 26.3247C26.1828 26.3269 26.1828 26.3292 26.1828 26.3314C26.1828 26.3336 26.1828 26.3358 26.1828 26.3381C26.1828 26.3403 26.1828 26.3425 26.1828 26.3447C26.1828 26.3469 26.1828 26.3491 26.1828 26.3514C26.1828 26.3536 26.1828 26.3558 26.1828 26.358C26.1828 26.3602 26.1828 26.3624 26.1828 26.3646C26.1828 26.3668 26.1828 26.369 26.1828 26.3712C26.1828 26.3734 26.1828 26.3756 26.1828 26.3778C26.1828 26.38 26.1828 26.3822 26.1828 26.3844C26.1828 26.3866 26.1828 26.3888 26.1828 26.391C26.1828 26.3932 26.1828 26.3954 26.1828 26.3976C26.1828 26.3997 26.1828 26.4019 26.1828 26.4041C26.1828 26.4063 26.1828 26.4085 26.1828 26.4107C26.1828 26.4128 26.1828 26.415 26.1828 26.4172C26.1828 26.4194 26.1828 26.4216 26.1828 26.4237C26.1828 26.4259 26.1828 26.4281 26.1828 26.4302C26.1828 26.4324 26.1828 26.4346 26.1828 26.4367C26.1828 26.4389 26.1828 26.4411 26.1828 26.4432C26.1828 26.4454 26.1828 26.4475 26.1828 26.4497C26.1828 26.4519 26.1828 26.454 26.1828 26.4562C26.1828 26.4583 26.1828 26.4605 26.1828 26.4626C26.1828 26.4648 26.1828 26.4669 26.1828 26.469C26.1828 26.4712 26.1828 26.4733 26.1828 26.4755C26.1828 26.4776 26.1828 26.4798 26.1828 26.4819C26.1828 26.484 26.1828 26.4862 26.1828 26.4883C26.1828 26.4904 26.1828 26.4926 26.1828 26.4947C26.1828 26.4968 26.1828 26.4989 26.1828 26.5011C26.1828 26.5032 26.1828 26.5053 26.1828 26.5074C26.1828 26.5095 26.1828 26.5117 26.1828 26.5138C26.1828 26.5159 26.1828 26.518 26.1828 26.5201C26.1828 26.5222 26.1828 26.5243 26.1828 26.5264C26.1828 26.5285 26.1828 26.5306 26.1828 26.5327C26.1828 26.5348 26.1828 26.5369 26.1828 26.539C26.1828 26.5411 26.1828 26.5432 26.1828 26.5453C26.1828 26.5474 26.1828 26.5495 26.1828 26.5516C26.1828 26.5537 26.1828 26.5558 26.1828 26.5578C26.1828 26.5599 26.1828 26.562 26.1828 26.5641C26.1828 26.5662 26.1828 26.5682 26.1828 26.5703C26.1828 26.5724 26.1828 26.5745 26.1828 26.5765C26.1828 26.5786 26.1828 26.5807 26.1828 26.5827C26.1828 26.5848 26.1828 26.5869 26.1828 26.5889C26.1828 26.591 26.1828 26.593 26.1828 26.5951C26.1828 26.5971 26.1828 26.5992 26.1828 26.6012C26.1828 26.6033 26.1828 26.6053 26.1828 26.6074C26.1828 26.6094 26.1828 26.6115 26.1828 26.6135C26.1828 26.6156 26.1828 26.6176 26.1828 26.6196C26.1828 26.6217 26.1828 26.6237 26.1828 26.6257C26.1828 26.6278 26.1828 26.6298 26.1828 26.6318C26.1828 26.6338 26.1828 26.6359 26.1828 26.6379C26.1828 26.6399 26.1828 26.6419 26.1828 26.6439C26.1828 26.6459 26.1828 26.648 26.1828 26.65C26.1828 26.652 26.1828 26.654 26.1828 26.656C26.1828 26.658 26.1828 26.66 26.1828 26.662C26.1828 26.664 26.1828 26.666 26.1828 26.668C26.1828 26.67 26.1828 26.672 26.1828 26.674C26.1828 26.6759 26.1828 26.6779 26.1828 26.6799C26.1828 26.6819 26.1828 26.6839 26.1828 26.6859C26.1828 26.6878 26.1828 26.6898 26.1828 26.6918C26.1828 26.6938 26.1828 26.6957 26.1828 26.6977C26.1828 26.6997 26.1828 26.7016 26.1828 26.7036C26.1828 26.7056 26.1828 26.7075 26.1828 26.7095C26.1828 26.7114 26.1828 26.7134 26.1828 26.7153C26.1828 26.7173 26.1828 26.7192 26.1828 26.7212C26.1828 26.7231 26.1828 26.7251 26.1828 26.727C26.1828 26.729 26.1828 26.7309 26.1828 26.7328C26.1828 26.7348 26.1828 26.7367 26.1828 26.7386C26.1828 26.7405 26.1828 26.7425 26.1828 26.7444C26.1828 26.7463 26.1828 26.7482 26.1828 26.7502C26.1828 26.7521 26.1828 26.754 26.1828 26.7559C26.1828 26.7578 26.1828 26.7597 26.1828 26.7616C26.1828 26.7635 26.1828 26.7654 26.1828 26.7673C26.1828 26.7692 26.1828 26.7711 26.1828 26.773C26.1828 26.7749 26.1828 26.7768 26.1828 26.7787C26.1828 26.7806 26.1828 26.7825 26.1828 26.7844C26.1828 26.7862 26.1828 26.7881 26.1828 26.79C26.1828 26.7919 26.1828 26.7938 26.1828 26.7956C26.1828 26.7975 26.1828 26.7994 26.1828 26.8012C26.1828 26.8031 26.1828 26.805 26.1828 26.8068C26.1828 26.8087 26.1828 26.8105 26.1828 26.8124C26.1828 26.8142 26.1828 26.8161 26.1828 26.8179C26.1828 26.8198 26.1828 26.8216 26.1828 26.8235C26.1828 26.8253 26.1828 26.8271 26.1828 26.829C26.1828 26.8308 26.1828 26.8326 26.1828 26.8345C26.1828 26.8363 26.1828 26.8381 26.1828 26.8399C26.1828 26.8418 26.1828 26.8436 26.1828 26.8454C26.1828 26.8472 26.1828 26.849 26.1828 26.8508C26.1828 26.8526 26.1828 26.8545 26.1828 26.8563C26.1828 26.8581 26.1828 26.8599 26.1828 26.8617C26.1828 26.8635 26.1828 26.8652 26.1828 26.867C26.1828 26.8688 26.1828 26.8706 26.1828 26.8724C26.1828 26.8742 26.1828 26.876 26.1828 26.8777C26.1828 26.8795 26.1828 26.8813 26.1828 26.8831C26.1828 26.8848 26.1828 26.8866 26.1828 26.8884C26.1828 26.8901 26.1828 26.8919 26.1828 26.8936C26.1828 26.8954 26.1828 26.8972 26.1828 26.8989C26.1828 26.9007 26.1828 26.9024 26.1828 26.9041C26.1828 26.9059 26.1828 26.9076 26.1828 26.9094C26.1828 26.9111 26.1828 26.9128 26.1828 26.9146C26.1828 26.9163 26.1828 26.918 26.1828 26.9198C26.1828 26.9215 26.1828 26.9232 26.1828 26.9249C26.1828 26.9266 26.1828 26.9283 26.1828 26.9301C26.1828 26.9318 26.1828 26.9335 26.1828 26.9352C26.1828 26.9369 26.1828 26.9386 26.1828 26.9403H26.9828C26.9828 26.9386 26.9828 26.9369 26.9828 26.9352C26.9828 26.9335 26.9828 26.9318 26.9828 26.9301C26.9828 26.9283 26.9828 26.9266 26.9828 26.9249C26.9828 26.9232 26.9828 26.9215 26.9828 26.9198C26.9828 26.918 26.9828 26.9163 26.9828 26.9146C26.9828 26.9128 26.9828 26.9111 26.9828 26.9094C26.9828 26.9076 26.9828 26.9059 26.9828 26.9041C26.9828 26.9024 26.9828 26.9007 26.9828 26.8989C26.9828 26.8972 26.9828 26.8954 26.9828 26.8936C26.9828 26.8919 26.9828 26.8901 26.9828 26.8884C26.9828 26.8866 26.9828 26.8848 26.9828 26.8831C26.9828 26.8813 26.9828 26.8795 26.9828 26.8777C26.9828 26.876 26.9828 26.8742 26.9828 26.8724C26.9828 26.8706 26.9828 26.8688 26.9828 26.867C26.9828 26.8652 26.9828 26.8635 26.9828 26.8617C26.9828 26.8599 26.9828 26.8581 26.9828 26.8563C26.9828 26.8545 26.9828 26.8526 26.9828 26.8508C26.9828 26.849 26.9828 26.8472 26.9828 26.8454C26.9828 26.8436 26.9828 26.8418 26.9828 26.8399C26.9828 26.8381 26.9828 26.8363 26.9828 26.8345C26.9828 26.8326 26.9828 26.8308 26.9828 26.829C26.9828 26.8271 26.9828 26.8253 26.9828 26.8235C26.9828 26.8216 26.9828 26.8198 26.9828 26.8179C26.9828 26.8161 26.9828 26.8142 26.9828 26.8124C26.9828 26.8105 26.9828 26.8087 26.9828 26.8068C26.9828 26.805 26.9828 26.8031 26.9828 26.8012C26.9828 26.7994 26.9828 26.7975 26.9828 26.7956C26.9828 26.7938 26.9828 26.7919 26.9828 26.79C26.9828 26.7881 26.9828 26.7862 26.9828 26.7844C26.9828 26.7825 26.9828 26.7806 26.9828 26.7787C26.9828 26.7768 26.9828 26.7749 26.9828 26.773C26.9828 26.7711 26.9828 26.7692 26.9828 26.7673C26.9828 26.7654 26.9828 26.7635 26.9828 26.7616C26.9828 26.7597 26.9828 26.7578 26.9828 26.7559C26.9828 26.754 26.9828 26.7521 26.9828 26.7502C26.9828 26.7482 26.9828 26.7463 26.9828 26.7444C26.9828 26.7425 26.9828 26.7405 26.9828 26.7386C26.9828 26.7367 26.9828 26.7348 26.9828 26.7328C26.9828 26.7309 26.9828 26.729 26.9828 26.727C26.9828 26.7251 26.9828 26.7231 26.9828 26.7212C26.9828 26.7192 26.9828 26.7173 26.9828 26.7153C26.9828 26.7134 26.9828 26.7114 26.9828 26.7095C26.9828 26.7075 26.9828 26.7056 26.9828 26.7036C26.9828 26.7016 26.9828 26.6997 26.9828 26.6977C26.9828 26.6957 26.9828 26.6938 26.9828 26.6918C26.9828 26.6898 26.9828 26.6878 26.9828 26.6859C26.9828 26.6839 26.9828 26.6819 26.9828 26.6799C26.9828 26.6779 26.9828 26.6759 26.9828 26.674C26.9828 26.672 26.9828 26.67 26.9828 26.668C26.9828 26.666 26.9828 26.664 26.9828 26.662C26.9828 26.66 26.9828 26.658 26.9828 26.656C26.9828 26.654 26.9828 26.652 26.9828 26.65C26.9828 26.648 26.9828 26.6459 26.9828 26.6439C26.9828 26.6419 26.9828 26.6399 26.9828 26.6379C26.9828 26.6359 26.9828 26.6338 26.9828 26.6318C26.9828 26.6298 26.9828 26.6278 26.9828 26.6257C26.9828 26.6237 26.9828 26.6217 26.9828 26.6196C26.9828 26.6176 26.9828 26.6156 26.9828 26.6135C26.9828 26.6115 26.9828 26.6094 26.9828 26.6074C26.9828 26.6053 26.9828 26.6033 26.9828 26.6012C26.9828 26.5992 26.9828 26.5971 26.9828 26.5951C26.9828 26.593 26.9828 26.591 26.9828 26.5889C26.9828 26.5869 26.9828 26.5848 26.9828 26.5827C26.9828 26.5807 26.9828 26.5786 26.9828 26.5765C26.9828 26.5745 26.9828 26.5724 26.9828 26.5703C26.9828 26.5682 26.9828 26.5662 26.9828 26.5641C26.9828 26.562 26.9828 26.5599 26.9828 26.5578C26.9828 26.5558 26.9828 26.5537 26.9828 26.5516C26.9828 26.5495 26.9828 26.5474 26.9828 26.5453C26.9828 26.5432 26.9828 26.5411 26.9828 26.539C26.9828 26.5369 26.9828 26.5348 26.9828 26.5327C26.9828 26.5306 26.9828 26.5285 26.9828 26.5264C26.9828 26.5243 26.9828 26.5222 26.9828 26.5201C26.9828 26.518 26.9828 26.5159 26.9828 26.5138C26.9828 26.5117 26.9828 26.5095 26.9828 26.5074C26.9828 26.5053 26.9828 26.5032 26.9828 26.5011C26.9828 26.4989 26.9828 26.4968 26.9828 26.4947C26.9828 26.4926 26.9828 26.4904 26.9828 26.4883C26.9828 26.4862 26.9828 26.484 26.9828 26.4819C26.9828 26.4798 26.9828 26.4776 26.9828 26.4755C26.9828 26.4733 26.9828 26.4712 26.9828 26.469C26.9828 26.4669 26.9828 26.4648 26.9828 26.4626C26.9828 26.4605 26.9828 26.4583 26.9828 26.4562C26.9828 26.454 26.9828 26.4519 26.9828 26.4497C26.9828 26.4475 26.9828 26.4454 26.9828 26.4432C26.9828 26.4411 26.9828 26.4389 26.9828 26.4367C26.9828 26.4346 26.9828 26.4324 26.9828 26.4302C26.9828 26.4281 26.9828 26.4259 26.9828 26.4237C26.9828 26.4216 26.9828 26.4194 26.9828 26.4172C26.9828 26.415 26.9828 26.4128 26.9828 26.4107C26.9828 26.4085 26.9828 26.4063 26.9828 26.4041C26.9828 26.4019 26.9828 26.3997 26.9828 26.3976C26.9828 26.3954 26.9828 26.3932 26.9828 26.391C26.9828 26.3888 26.9828 26.3866 26.9828 26.3844C26.9828 26.3822 26.9828 26.38 26.9828 26.3778C26.9828 26.3756 26.9828 26.3734 26.9828 26.3712C26.9828 26.369 26.9828 26.3668 26.9828 26.3646C26.9828 26.3624 26.9828 26.3602 26.9828 26.358C26.9828 26.3558 26.9828 26.3536 26.9828 26.3514C26.9828 26.3491 26.9828 26.3469 26.9828 26.3447C26.9828 26.3425 26.9828 26.3403 26.9828 26.3381C26.9828 26.3358 26.9828 26.3336 26.9828 26.3314C26.9828 26.3292 26.9828 26.3269 26.9828 26.3247C26.9828 26.3225 26.9828 26.3203 26.9828 26.318C26.9828 26.3158 26.9828 26.3136 26.9828 26.3113C26.9828 26.3091 26.9828 26.3069 26.9828 26.3046C26.9828 26.3024 26.9828 26.3001 26.9828 26.2979C26.9828 26.2957 26.9828 26.2934 26.9828 26.2912C26.9828 26.2889 26.9828 26.2867 26.9828 26.2844C26.9828 26.2822 26.9828 26.28 26.9828 26.2777C26.9828 26.2755 26.9828 26.2732 26.9828 26.271C26.9828 26.2687 26.9828 26.2664 26.9828 26.2642C26.9828 26.2619 26.9828 26.2597 26.9828 26.2574C26.9828 26.2552 26.9828 26.2529 26.9828 26.2506C26.9828 26.2484 26.9828 26.2461 26.9828 26.2438C26.9828 26.2416 26.9828 26.2393 26.9828 26.237C26.9828 26.2348 26.9828 26.2325 26.9828 26.2302C26.9828 26.228 26.9828 26.2257 26.9828 26.2234C26.9828 26.2211 26.9828 26.2189 26.9828 26.2166C26.9828 26.2143 26.9828 26.212 26.9828 26.2098C26.9828 26.2075 26.9828 26.2052 26.9828 26.2029C26.9828 26.2006 26.9828 26.1984 26.9828 26.1961C26.9828 26.1938 26.9828 26.1915 26.9828 26.1892C26.9828 26.1869 26.9828 26.1846 26.9828 26.1823C26.9828 26.18 26.9828 26.1778 26.9828 26.1755C26.9828 26.1732 26.9828 26.1709 26.9828 26.1686C26.9828 26.1663 26.9828 26.164 26.9828 26.1617C26.9828 26.1594 26.9828 26.1571 26.9828 26.1548C26.9828 26.1525 26.9828 26.1502 26.9828 26.1479C26.9828 26.1456 26.9828 26.1433 26.9828 26.141C26.9828 26.1387 26.9828 26.1364 26.9828 26.1341C26.9828 26.1317 26.9828 26.1294 26.9828 26.1271C26.9828 26.1248 26.9828 26.1225 26.9828 26.1202C26.9828 26.1179 26.9828 26.1156 26.9828 26.1133C26.9828 26.1109 26.9828 26.1086 26.9828 26.1063C26.9828 26.104 26.9828 26.1017 26.9828 26.0993C26.9828 26.097 26.9828 26.0947 26.9828 26.0924C26.9828 26.0901 26.9828 26.0877 26.9828 26.0854C26.9828 26.0831 26.9828 26.0808 26.9828 26.0784C26.9828 26.0761 26.9828 26.0738 26.9828 26.0715C26.9828 26.0691 26.9828 26.0668 26.9828 26.0645C26.9828 26.0621 26.9828 26.0598 26.9828 26.0575C26.9828 26.0551 26.9828 26.0528 26.9828 26.0505C26.9828 26.0481 26.9828 26.0458 26.9828 26.0435C26.9828 26.0411 26.9828 26.0388 26.9828 26.0365C26.9828 26.0341 26.9828 26.0318 26.9828 26.0294C26.9828 26.0271 26.9828 26.0248 26.9828 26.0224C26.9828 26.0201 26.9828 26.0177 26.9828 26.0154C26.9828 26.013 26.9828 26.0107 26.9828 26.0083C26.9828 26.006 26.9828 26.0037 26.9828 26.0013C26.9828 25.999 26.9828 25.9966 26.9828 25.9943C26.9828 25.9919 26.9828 25.9896 26.9828 25.9872C26.9828 25.9849 26.9828 25.9825 26.9828 25.9802C26.9828 25.9778 26.9828 25.9754 26.9828 25.9731C26.9828 25.9707 26.9828 25.9684 26.9828 25.966C26.9828 25.9637 26.9828 25.9613 26.9828 25.959C26.9828 25.9566 26.9828 25.9542 26.9828 25.9519C26.9828 25.9495 26.9828 25.9472 26.9828 25.9448C26.9828 25.9424 26.9828 25.9401 26.9828 25.9377C26.9828 25.9353 26.9828 25.933 26.9828 25.9306C26.9828 25.9283 26.9828 25.9259 26.9828 25.9235C26.9828 25.9212 26.9828 25.9188 26.9828 25.9164C26.9828 25.9141 26.9828 25.9117 26.9828 25.9093C26.9828 25.907 26.9828 25.9046 26.9828 25.9022C26.9828 25.8999 26.9828 25.8975 26.9828 25.8951C26.9828 25.8927 26.9828 25.8904 26.9828 25.888C26.9828 25.8856 26.9828 25.8833 26.9828 25.8809C26.9828 25.8785 26.9828 25.8761 26.9828 25.8738C26.9828 25.8714 26.9828 25.869 26.9828 25.8666C26.9828 25.8643 26.9828 25.8619 26.9828 25.8595C26.9828 25.8571 26.9828 25.8548 26.9828 25.8524C26.9828 25.85 26.9828 25.8476 26.9828 25.8452C26.9828 25.8429 26.9828 25.8405 26.9828 25.8381C26.9828 25.8357 26.9828 25.8334 26.9828 25.831C26.9828 25.8286 26.9828 25.8262 26.9828 25.8238C26.9828 25.8214 26.9828 25.8191 26.9828 25.8167C26.9828 25.8143 26.9828 25.8119 26.9828 25.8095C26.9828 25.8072 26.9828 25.8048 26.9828 25.8024C26.9828 25.8 26.9828 25.7976 26.9828 25.7952C26.9828 25.7928 26.9828 25.7905 26.9828 25.7881C26.9828 25.7857 26.9828 25.7833 26.9828 25.7809C26.9828 25.7785 26.9828 25.7761 26.9828 25.7738C26.9828 25.7714 26.9828 25.769 26.9828 25.7666C26.9828 25.7642 26.9828 25.7618 26.9828 25.7594C26.9828 25.757 26.9828 25.7547 26.9828 25.7523C26.9828 25.7499 26.9828 25.7475 26.9828 25.7451C26.9828 25.7427 26.9828 25.7403 26.9828 25.7379C26.9828 25.7355 26.9828 25.7332 26.9828 25.7308C26.9828 25.7284 26.9828 25.726 26.9828 25.7236C26.9828 25.7212 26.9828 25.7188 26.9828 25.7164C26.9828 25.714 26.9828 25.7116 26.9828 25.7093C26.9828 25.7069 26.9828 25.7045 26.9828 25.7021C26.9828 25.6997 26.9828 25.6973 26.9828 25.6949C26.9828 25.6925 26.9828 25.6901 26.9828 25.6877C26.9828 25.6853 26.9828 25.6829 26.9828 25.6805C26.9828 25.6782 26.9828 25.6758 26.9828 25.6734C26.9828 25.671 26.9828 25.6686 26.9828 25.6662C26.9828 25.6638 26.9828 25.6614 26.9828 25.659C26.9828 25.6566 26.9828 25.6542 26.9828 25.6518C26.9828 25.6494 26.9828 25.647 26.9828 25.6447C26.9828 25.6423 26.9828 25.6399 26.9828 25.6375C26.9828 25.6351 26.9828 25.6327 26.9828 25.6303C26.9828 25.6279 26.9828 25.6255 26.9828 25.6231C26.9828 25.6207 26.9828 25.6183 26.9828 25.6159C26.9828 25.6135 26.9828 25.6111 26.9828 25.6088C26.9828 25.6064 26.9828 25.604 26.9828 25.6016C26.9828 25.5992 26.9828 25.5968 26.9828 25.5944C26.9828 25.592 26.9828 25.5896 26.9828 25.5872C26.9828 25.5848 26.9828 25.5824 26.9828 25.58C26.9828 25.5777 26.9828 25.5753 26.9828 25.5729C26.9828 25.5705 26.9828 25.5681 26.9828 25.5657C26.9828 25.5633 26.9828 25.5609 26.9828 25.5585C26.9828 25.5561 26.9828 25.5537 26.9828 25.5513C26.9828 25.549 26.9828 25.5466 26.9828 25.5442C26.9828 25.5418 26.9828 25.5394 26.9828 25.537C26.9828 25.5346 26.9828 25.5322 26.9828 25.5298C26.9828 25.5274 26.9828 25.5251 26.9828 25.5227C26.9828 25.5203 26.9828 25.5179 26.9828 25.5155C26.9828 25.5131 26.9828 25.5107 26.9828 25.5083C26.9828 25.5059 26.9828 25.5036 26.9828 25.5012C26.9828 25.4988 26.9828 25.4964 26.9828 25.494C26.9828 25.4916 26.9828 25.4892 26.9828 25.4868C26.9828 25.4845 26.9828 25.4821 26.9828 25.4797C26.9828 25.4773 26.9828 25.4749 26.9828 25.4725C26.9828 25.4702 26.9828 25.4678 26.9828 25.4654C26.9828 25.463 26.9828 25.4606 26.9828 25.4582C26.9828 25.4559 26.9828 25.4535 26.9828 25.4511C26.9828 25.4487 26.9828 25.4463 26.9828 25.4439C26.9828 25.4416 26.9828 25.4392 26.9828 25.4368C26.9828 25.4344 26.9828 25.432 26.9828 25.4297C26.9828 25.4273 26.9828 25.4249 26.9828 25.4225C26.9828 25.4201 26.9828 25.4178 26.9828 25.4154C26.9828 25.413 26.9828 25.4106 26.9828 25.4083C26.9828 25.4059 26.9828 25.4035 26.9828 25.4011C26.9828 25.3988 26.9828 25.3964 26.9828 25.394C26.9828 25.3916 26.9828 25.3893 26.9828 25.3869C26.9828 25.3845 26.9828 25.3821 26.9828 25.3798C26.9828 25.3774 26.9828 25.375 26.9828 25.3727C26.9828 25.3703 26.9828 25.3679 26.9828 25.3656C26.9828 25.3632 26.9828 25.3608 26.9828 25.3584C26.9828 25.3561 26.9828 25.3537 26.9828 25.3513C26.9828 25.349 26.9828 25.3466 26.9828 25.3442C26.9828 25.3419 26.9828 25.3395 26.9828 25.3372C26.9828 25.3348 26.9828 25.3324 26.9828 25.3301C26.9828 25.3277 26.9828 25.3253 26.9828 25.323C26.9828 25.3206 26.9828 25.3183 26.9828 25.3159C26.9828 25.3135 26.9828 25.3112 26.9828 25.3088C26.9828 25.3065 26.9828 25.3041 26.9828 25.3018C26.9828 25.2994 26.9828 25.297 26.9828 25.2947C26.9828 25.2923 26.9828 25.29 26.9828 25.2876C26.9828 25.2853 26.9828 25.2829 26.9828 25.2806C26.9828 25.2782 26.9828 25.2759 26.9828 25.2735C26.9828 25.2712 26.9828 25.2688 26.9828 25.2665C26.9828 25.2641 26.9828 25.2618 26.9828 25.2594C26.9828 25.2571 26.9828 25.2547 26.9828 25.2524C26.9828 25.2501 26.9828 25.2477 26.9828 25.2454C26.9828 25.243 26.9828 25.2407 26.9828 25.2384C26.9828 25.236 26.9828 25.2337 26.9828 25.2313C26.9828 25.229 26.9828 25.2267 26.9828 25.2243C26.9828 25.222 26.9828 25.2197 26.9828 25.2173C26.9828 25.215 26.9828 25.2126 26.9828 25.2103C26.9828 25.208 26.9828 25.2057 26.9828 25.2033C26.9828 25.201 26.9828 25.1987 26.9828 25.1963C26.9828 25.194 26.9828 25.1917 26.9828 25.1894C26.9828 25.187 26.9828 25.1847 26.9828 25.1824C26.9828 25.1801 26.9828 25.1777 26.9828 25.1754C26.9828 25.1731 26.9828 25.1708 26.9828 25.1684C26.9828 25.1661 26.9828 25.1638 26.9828 25.1615C26.9828 25.1592 26.9828 25.1569 26.9828 25.1545C26.9828 25.1522 26.9828 25.1499 26.9828 25.1476C26.9828 25.1453 26.9828 25.143 26.9828 25.1407C26.9828 25.1384 26.9828 25.136 26.9828 25.1337C26.9828 25.1314 26.9828 25.1291 26.9828 25.1268C26.9828 25.1245 26.9828 25.1222 26.9828 25.1199C26.9828 25.1176 26.9828 25.1153 26.9828 25.113C26.9828 25.1107 26.9828 25.1084 26.9828 25.1061C26.9828 25.1038 26.9828 25.1015 26.9828 25.0992C26.9828 25.0969 26.9828 25.0946 26.9828 25.0923C26.9828 25.09 26.9828 25.0878 26.9828 25.0855C26.9828 25.0832 26.9828 25.0809 26.9828 25.0786C26.9828 25.0763 26.9828 25.074 26.9828 25.0717C26.9828 25.0695 26.9828 25.0672 26.9828 25.0649C26.9828 25.0626 26.9828 25.0603 26.9828 25.058C26.9828 25.0558 26.9828 25.0535 26.9828 25.0512C26.9828 25.0489 26.9828 25.0467 26.9828 25.0444C26.9828 25.0421 26.9828 25.0398 26.9828 25.0376C26.9828 25.0353 26.9828 25.033 26.9828 25.0308C26.9828 25.0285 26.9828 25.0262 26.9828 25.024C26.9828 25.0217 26.9828 25.0194 26.9828 25.0172C26.9828 25.0149 26.9828 25.0127 26.9828 25.0104C26.9828 25.0081 26.9828 25.0059 26.9828 25.0036C26.9828 25.0014 26.9828 24.9991 26.9828 24.9969C26.9828 24.9946 26.9828 24.9924 26.9828 24.9901C26.9828 24.9879 26.9828 24.9856 26.9828 24.9834C26.9828 24.9811 26.9828 24.9789 26.9828 24.9766C26.9828 24.9744 26.9828 24.9722 26.9828 24.9699C26.9828 24.9677 26.9828 24.9654 26.9828 24.9632C26.9828 24.961 26.9828 24.9587 26.9828 24.9565C26.9828 24.9543 26.9828 24.952 26.9828 24.9498C26.9828 24.9476 26.9828 24.9453 26.9828 24.9431C26.9828 24.9409 26.9828 24.9387 26.9828 24.9364C26.9828 24.9342 26.9828 24.932 26.9828 24.9298C26.9828 24.9276 26.9828 24.9253 26.9828 24.9231C26.9828 24.9209 26.9828 24.9187 26.9828 24.9165C26.9828 24.9143 26.9828 24.9121 26.9828 24.9098C26.9828 24.9076 26.9828 24.9054 26.9828 24.9032C26.9828 24.901 26.9828 24.8988 26.9828 24.8966C26.9828 24.8944 26.9828 24.8922 26.9828 24.89C26.9828 24.8878 26.9828 24.8856 26.9828 24.8834C26.9828 24.8812 26.9828 24.879 26.9828 24.8768C26.9828 24.8747 26.9828 24.8725 26.9828 24.8703C26.9828 24.8681 26.9828 24.8659 26.9828 24.8637C26.9828 24.8615 26.9828 24.8594 26.9828 24.8572C26.9828 24.855 26.9828 24.8528 26.9828 24.8506C26.9828 24.8485 26.9828 24.8463 26.9828 24.8441C26.9828 24.8419 26.9828 24.8398 26.9828 24.8376C26.9828 24.8354 26.9828 24.8333 26.9828 24.8311C26.9828 24.8289 26.9828 24.8268 26.9828 24.8246C26.9828 24.8225 26.9828 24.8203 26.9828 24.8182C26.9828 24.816 26.9828 24.8138 26.9828 24.8117C26.9828 24.8095 26.9828 24.8074 26.9828 24.8052C26.9828 24.8031 26.9828 24.8009 26.9828 24.7988C26.9828 24.7967 26.9828 24.7945 26.9828 24.7924C26.9828 24.7902 26.9828 24.7881 26.9828 24.786C26.9828 24.7838 26.9828 24.7817 26.9828 24.7796C26.9828 24.7774 26.9828 24.7753 26.9828 24.7732C26.9828 24.7711 26.9828 24.7689 26.9828 24.7668C26.9828 24.7647 26.9828 24.7626 26.9828 24.7604C26.9828 24.7583 26.9828 24.7562 26.9828 24.7541C26.9828 24.752 26.9828 24.7499 26.9828 24.7478C26.9828 24.7456 26.9828 24.7435 26.9828 24.7414C26.9828 24.7393 26.9828 24.7372 26.9828 24.7351C26.9828 24.733 26.9828 24.7309 26.9828 24.7288C26.9828 24.7267 26.9828 24.7246 26.9828 24.7226C26.9828 24.7205 26.9828 24.7184 26.9828 24.7163C26.9828 24.7142 26.9828 24.7121 26.9828 24.71C26.9828 24.7079 26.9828 24.7059 26.9828 24.7038C26.9828 24.7017 26.9828 24.6996 26.9828 24.6976C26.9828 24.6955 26.9828 24.6934 26.9828 24.6914C26.9828 24.6893 26.9828 24.6872 26.9828 24.6852C26.9828 24.6831 26.9828 24.681 26.9828 24.679C26.9828 24.6769 26.9828 24.6749 26.9828 24.6728C26.9828 24.6707 26.9828 24.6687 26.9828 24.6666C26.9828 24.6646 26.9828 24.6625 26.9828 24.6605C26.9828 24.6585 26.9828 24.6564 26.9828 24.6544C26.9828 24.6523 26.9828 24.6503 26.9828 24.6483C26.9828 24.6462 26.9828 24.6442 26.9828 24.6422C26.9828 24.6401 26.9828 24.6381 26.9828 24.6361C26.9828 24.6341 26.9828 24.632 26.9828 24.63C26.9828 24.628 26.9828 24.626 26.9828 24.624C26.9828 24.622 26.9828 24.6199 26.9828 24.6179C26.9828 24.6159 26.9828 24.6139 26.9828 24.6119C26.9828 24.6099 26.9828 24.6079 26.9828 24.6059C26.9828 24.6039 26.9828 24.6019 26.9828 24.5999C26.9828 24.5979 26.9828 24.5959 26.9828 24.5939C26.9828 24.592 26.9828 24.59 26.9828 24.588C26.9828 24.586 26.9828 24.584 26.9828 24.5821C26.9828 24.5801 26.9828 24.5781 26.9828 24.5761C26.9828 24.5742 26.9828 24.5722 26.9828 24.5702C26.9828 24.5682 26.9828 24.5663 26.9828 24.5643C26.9828 24.5624 26.9828 24.5604 26.9828 24.5584C26.9828 24.5565 26.9828 24.5545 26.9828 24.5526C26.9828 24.5506 26.9828 24.5487 26.9828 24.5467C26.9828 24.5448 26.9828 24.5429 26.9828 24.5409C26.9828 24.539 26.9828 24.537 26.9828 24.5351C26.9828 24.5332 26.9828 24.5312 26.9828 24.5293C26.9828 24.5274 26.9828 24.5255 26.9828 24.5235C26.9828 24.5216 26.9828 24.5197 26.9828 24.5178C26.9828 24.5159 26.9828 24.5139 26.9828 24.512C26.9828 24.5101 26.9828 24.5082 26.9828 24.5063C26.9828 24.5044 26.9828 24.5025 26.9828 24.5006C26.9828 24.4987 26.9828 24.4968 26.9828 24.4949C26.9828 24.493 26.9828 24.4911 26.9828 24.4892C26.9828 24.4873 26.9828 24.4855 26.9828 24.4836C26.9828 24.4817 26.9828 24.4798 26.9828 24.4779C26.9828 24.4761 26.9828 24.4742 26.9828 24.4723C26.9828 24.4705 26.9828 24.4686 26.9828 24.4667C26.9828 24.4649 26.9828 24.463 26.9828 24.4611C26.9828 24.4593 26.9828 24.4574 26.9828 24.4556C26.9828 24.4537 26.9828 24.4519 26.9828 24.45C26.9828 24.4482 26.9828 24.4463 26.9828 24.4445C26.9828 24.4427 26.9828 24.4408 26.9828 24.439C26.9828 24.4372 26.9828 24.4353 26.9828 24.4335C26.9828 24.4317 26.9828 24.4298 26.9828 24.428C26.9828 24.4262 26.9828 24.4244 26.9828 24.4226C26.9828 24.4208 26.9828 24.4189 26.9828 24.4171C26.9828 24.4153 26.9828 24.4135 26.9828 24.4117C26.9828 24.4099 26.9828 24.4081 26.9828 24.4063C26.9828 24.4045 26.9828 24.4027 26.9828 24.4009C26.9828 24.3992 26.9828 24.3974 26.9828 24.3956C26.9828 24.3938 26.9828 24.392 26.9828 24.3902C26.9828 24.3885 26.9828 24.3867 26.9828 24.3849C26.9828 24.3832 26.9828 24.3814 26.9828 24.3796C26.9828 24.3779 26.9828 24.3761 26.9828 24.3743C26.9828 24.3726 26.9828 24.3708 26.9828 24.3691C26.9828 24.3673 26.9828 24.3656 26.9828 24.3638C26.9828 24.3621 26.9828 24.3604 26.9828 24.3586C26.9828 24.3569 26.9828 24.3552 26.9828 24.3534C26.9828 24.3517 26.9828 24.35 26.9828 24.3482C26.9828 24.3465 26.9828 24.3448 26.9828 24.3431C26.9828 24.3414 26.9828 24.3397 26.9828 24.3379C26.9828 24.3362 26.9828 24.3345 26.9828 24.3328C26.9828 24.3311 26.9828 24.3294 26.9828 24.3277C26.9828 24.326 26.9828 24.3243 26.9828 24.3226C26.9828 24.321 26.9828 24.3193 26.9828 24.3176C26.9828 24.3159 26.9828 24.3142 26.9828 24.3126C26.9828 24.3109 26.9828 24.3092 26.9828 24.3075C26.9828 24.3059 26.9828 24.3042 26.9828 24.3025C26.9828 24.3009 26.9828 24.2992 26.9828 24.2976C26.9828 24.2959 26.9828 24.2943 26.9828 24.2926C26.9828 24.291 26.9828 24.2893 26.9828 24.2877C26.9828 24.2861 26.9828 24.2844 26.9828 24.2828C26.9828 24.2812 26.9828 24.2795 26.9828 24.2779C26.9828 24.2763 26.9828 24.2747 26.9828 24.273C26.9828 24.2714 26.9828 24.2698 26.9828 24.2682C26.9828 24.2666 26.9828 24.265 26.9828 24.2634C26.9828 24.2618 26.9828 24.2602 26.9828 24.2586C26.9828 24.257 26.9828 24.2554 26.9828 24.2538C26.9828 24.2522 26.9828 24.2506 26.9828 24.2491C26.9828 24.2475 26.9828 24.2459 26.9828 24.2443C26.9828 24.2427 26.9828 24.2412 26.9828 24.2396C26.9828 24.238 26.9828 24.2365 26.9828 24.2349C26.9828 24.2334 26.9828 24.2318 26.9828 24.2303C26.9828 24.2287 26.9828 24.2272 26.9828 24.2256C26.9828 24.2241 26.9828 24.2225 26.9828 24.221C26.9828 24.2195 26.9828 24.2179 26.9828 24.2164C26.9828 24.2149 26.9828 24.2134 26.9828 24.2118C26.9828 24.2103 26.9828 24.2088 26.9828 24.2073C26.9828 24.2058 26.9828 24.2043 26.9828 24.2028C26.9828 24.2013 26.9828 24.1998 26.9828 24.1983C26.9828 24.1968 26.9828 24.1953 26.9828 24.1938C26.9828 24.1923 26.9828 24.1908 26.9828 24.1893C26.9828 24.1879 26.9828 24.1864 26.9828 24.1849C26.9828 24.1834 26.9828 24.182 26.9828 24.1805C26.9828 24.179 26.9828 24.1776 26.9828 24.1761C26.9828 24.1747 26.9828 24.1732 26.9828 24.1718C26.9828 24.1703 26.9828 24.1689 26.9828 24.1674C26.9828 24.166 26.9828 24.1645 26.9828 24.1631C26.9828 24.1617 26.9828 24.1602 26.9828 24.1588C26.9828 24.1574 26.9828 24.156 26.9828 24.1546C26.9828 24.1531 26.9828 24.1517 26.9828 24.1503C26.9828 24.1489 26.9828 24.1475 26.9828 24.1461C26.9828 24.1447 26.9828 24.1433 26.9828 24.1419C26.9828 24.1405 26.9828 24.1391 26.9828 24.1378C26.9828 24.1364 26.9828 24.135 26.9828 24.1336C26.9828 24.1323 26.9828 24.1309 26.9828 24.1295C26.9828 24.1281 26.9828 24.1268 26.9828 24.1254C26.9828 24.1241 26.9828 24.1227 26.9828 24.1214C26.9828 24.12 26.9828 24.1187 26.9828 24.1173C26.9828 24.116 26.9828 24.1146 26.9828 24.1133C26.9828 24.112 26.9828 24.1107 26.9828 24.1093C26.9828 24.108 26.9828 24.1067 26.9828 24.1054C26.9828 24.1041 26.9828 24.1027 26.9828 24.1014C26.9828 24.1001 26.9828 24.0988 26.9828 24.0975C26.9828 24.0962 26.9828 24.0949 26.9828 24.0936C26.9828 24.0924 26.9828 24.0911 26.9828 24.0898C26.9828 24.0885 26.9828 24.0872 26.9828 24.086C26.9828 24.0847 26.9828 24.0834 26.9828 24.0822C26.9828 24.0809 26.9828 24.0796 26.9828 24.0784C26.9828 24.0771 26.9828 24.0759 26.9828 24.0746C26.9828 24.0734 26.9828 24.0721 26.9828 24.0709C26.9828 24.0697 26.9828 24.0684 26.9828 24.0672C26.9828 24.066 26.9828 24.0648 26.9828 24.0635C26.9828 24.0623 26.9828 24.0611 26.9828 24.0599C26.9828 24.0587 26.9828 24.0575 26.9828 24.0563C26.9828 24.0551 26.9828 24.0539 26.9828 24.0527C26.9828 24.0515 26.9828 24.0503 26.9828 24.0491C26.9828 24.0479 26.9828 24.0468 26.9828 24.0456C26.9828 24.0444 26.9828 24.0433 26.9828 24.0421C26.9828 24.0409 26.9828 24.0398 26.9828 24.0386C26.9828 24.0375 26.9828 24.0363 26.9828 24.0352C26.9828 24.034 26.9828 24.0329 26.9828 24.0317C26.9828 24.0306 26.9828 24.0295 26.9828 24.0283C26.9828 24.0272 26.9828 24.0261 26.9828 24.025C26.9828 24.0239 26.9828 24.0227 26.9828 24.0216C26.9828 24.0205 26.9828 24.0194 26.9828 24.0183C26.9828 24.0172 26.9828 24.0161 26.9828 24.015C26.9828 24.0139 26.9828 24.0129 26.9828 24.0118C26.9828 24.0107 26.9828 24.0096 26.9828 24.0086C26.9828 24.0075 26.9828 24.0064 26.9828 24.0054C26.9828 24.0043 26.9828 24.0032 26.9828 24.0022C26.9828 24.0011 26.9828 24.0001 26.9828 23.999C26.9828 23.998 26.9828 23.997 26.9828 23.9959C26.9828 23.9949 26.9828 23.9939 26.9828 23.9928C26.9828 23.9918 26.9828 23.9908 26.9828 23.9898C26.9828 23.9888 26.9828 23.9878 26.9828 23.9868C26.9828 23.9858 26.9828 23.9848 26.9828 23.9838C26.9828 23.9828 26.9828 23.9818 26.9828 23.9808C26.9828 23.9798 26.9828 23.9788 26.9828 23.9779C26.9828 23.9769 26.9828 23.9759 26.9828 23.975C26.9828 23.974 26.9828 23.973 26.9828 23.9721C26.9828 23.9711 26.9828 23.9702 26.9828 23.9692C26.9828 23.9683 26.9828 23.9674 26.9828 23.9664C26.9828 23.9655 26.9828 23.9646 26.9828 23.9636C26.9828 23.9627 26.9828 23.9618 26.9828 23.9609C26.9828 23.96 26.9828 23.9591 26.9828 23.9582C26.9828 23.9573 26.9828 23.9564 26.9828 23.9555C26.9828 23.9546 26.9828 23.9537 26.9828 23.9528C26.9828 23.9519 26.9828 23.951 26.9828 23.9502C26.9828 23.9493 26.9828 23.9484 26.9828 23.9476C26.9828 23.9467 26.9828 23.9458 26.9828 23.945C26.9828 23.9441 26.9828 23.9433 26.9828 23.9424C26.9828 23.9416 26.9828 23.9408 26.9828 23.9399C26.9828 23.9391 26.9828 23.9383 26.9828 23.9374C26.9828 23.9366 26.9828 23.9358 26.9828 23.935C26.9828 23.9342 26.9828 23.9334 26.9828 23.9326C26.9828 23.9318 26.9828 23.931 26.9828 23.9302C26.9828 23.9294 26.9828 23.9286 26.9828 23.9278C26.9828 23.927 26.9828 23.9263 26.9828 23.9255C26.9828 23.9247 26.9828 23.924 26.9828 23.9232C26.9828 23.9225 26.9828 23.9217 26.9828 23.921C26.9828 23.9202 26.9828 23.9195 26.9828 23.9187H26.1828ZM26.1828 26.9403C26.1828 27.2834 26.0671 27.5635 25.8847 27.755C25.7044 27.9443 25.4377 28.0699 25.0874 28.0699V28.8699C25.6417 28.8699 26.1227 28.6651 26.464 28.3067C26.8031 27.9506 26.9828 27.4659 26.9828 26.9403H26.1828ZM25.0874 28.0699C24.7238 28.0699 24.4715 27.9546 24.3087 27.7835C24.1436 27.6099 24.0289 27.335 24.0289 26.9403H23.2289C23.2289 27.4898 23.3911 27.9797 23.7291 28.3349C24.0693 28.6925 24.5463 28.8699 25.0874 28.8699V28.0699ZM25.4785 14.4647C25.4785 15.7364 25.9155 16.5013 26.3322 17.1636C26.7427 17.8158 27.0926 18.3199 27.1331 19.1652L27.9322 19.1269C27.8801 18.0397 27.4029 17.3629 27.0094 16.7375C26.6221 16.1221 26.2785 15.5125 26.2785 14.4647H25.4785ZM27.1331 19.1652C27.1819 20.1829 26.9638 20.9062 26.7197 21.6013C26.4771 22.292 26.1828 23.0104 26.1828 23.9187H26.9828C26.9828 23.1767 27.2159 22.6026 27.4745 21.8664C27.7315 21.1347 27.9883 20.2968 27.9322 19.1269L27.1331 19.1652Z" stroke="none" stroke-width="0"/>
<circle cx="14.1528" cy="18.9474" r="2.93476" fill="none" stroke-width="0.8"/>
<circle cx="14.1643" cy="18.9588" r="0.5" stroke="none" stroke-width="0" fill="none" stroke-width="0.373135"/>
<path d="M25.2803 23.5285H27.9922" fill="none" stroke-linecap="round" stroke-linejoin="round"/>
<path d="M7.99508 6.03219C7.3355 5.31613 6.49122 3.52218 8.39083 2.07486C9.52154 3.65774 8.59813 5.37262 7.99508 6.03219ZM7.99508 6.03219C9.48762 7.97705 11.8584 6.84255 12.8572 6.03219C11.9149 5.35375 9.62332 4.40394 7.99508 6.03219ZM7.99508 6.03219C4.86125 5.92765 2.99273 7.02421 2.07251 8.72735M7.99508 6.03219C8.55218 8.59499 7.45019 10.8405 5.36225 11.9033M2.07251 8.72735C1.49861 9.78952 1.29355 11.0876 1.3804 12.4774C2.91265 12.6907 4.27189 12.4583 5.36225 11.9033M2.07251 8.72735C3.12068 8.74661 5.24606 9.40875 5.36225 11.9033" fill="none" stroke-width="0.75" stroke-linecap="round" stroke-linejoin="round"/>
</svg>
