<svg width="32" height="32" viewBox="0 0 32 32" fill="none" xmlns="http://www.w3.org/2000/svg">
<path d="M26.0283 10.4996C25.6946 10.5035 25.363 10.5559 25.0432 10.6553V7.39102C25.0349 6.22061 24.5807 5.10133 23.7801 4.27833C22.9795 3.45532 21.8977 2.99566 20.7717 3.00003H11.2751C10.1491 2.99566 9.06736 3.45532 8.26675 4.27833C7.46614 5.10133 7.01193 6.22061 7.00359 7.39102V10.6717C6.68507 10.5656 6.35292 10.5104 6.01847 10.5078C5.62075 10.5078 5.22696 10.5895 4.85971 10.7482C4.49247 10.9069 4.15902 11.1395 3.87853 11.4326C3.59803 11.7257 3.37603 12.0735 3.22527 12.4561C3.07451 12.8386 2.99796 13.2484 3.00004 13.6618C3.00121 14.1686 3.11745 14.6679 3.3393 15.1192C3.56116 15.5704 3.88235 15.9609 4.27676 16.2587V25.0514C4.27676 25.16 4.31828 25.2642 4.39218 25.341C4.46608 25.4178 4.56631 25.461 4.67081 25.461H6.04211V27.1732C6.0216 27.3923 6.0438 27.6136 6.1074 27.8236C6.17099 28.0337 6.27467 28.2282 6.41224 28.3957C6.5498 28.5632 6.71843 28.7001 6.90806 28.7983C7.09768 28.8965 7.3044 28.954 7.51586 28.9672C8.37489 28.9672 8.9502 28.2463 8.9502 27.1732V25.461H23.0493V27.2059C23.0288 27.4251 23.051 27.6463 23.1146 27.8564C23.1782 28.0664 23.2819 28.261 23.4195 28.4285C23.557 28.596 23.7256 28.7329 23.9153 28.8311C24.1049 28.9293 24.3116 28.9867 24.5231 29C25.3821 29 25.9574 28.2791 25.9574 27.2059V25.4938H27.3287C27.4332 25.4938 27.5334 25.4506 27.6073 25.3738C27.6812 25.297 27.7228 25.1928 27.7228 25.0842V16.2915C28.1186 15.995 28.4408 15.6049 28.6628 15.1533C28.8848 14.7017 29.0002 14.2017 28.9995 13.6946C29.0068 13.2819 28.9357 12.8717 28.7902 12.4876C28.6448 12.1035 28.4278 11.753 28.1518 11.4562C27.8758 11.1594 27.5461 10.9221 27.1818 10.758C26.8174 10.5938 26.4254 10.506 26.0283 10.4996ZM7.75229 7.39102C7.75639 6.91556 7.85094 6.44565 8.0305 6.00834C8.21007 5.57103 8.47109 5.17498 8.79853 4.84298C9.12598 4.51098 9.51338 4.24961 9.93842 4.07391C10.3635 3.89821 10.8177 3.81166 11.2751 3.81924H20.8111C21.7281 3.81487 22.6094 4.18822 23.2622 4.85759C23.915 5.52697 24.2862 6.43788 24.2945 7.39102V11.0239C23.8961 11.3225 23.5766 11.7208 23.3658 12.182C23.155 12.6431 23.0597 13.1521 23.0887 13.6618V16.2915H8.95808V13.6618C8.98152 13.1553 8.88362 12.6506 8.67317 12.193C8.46272 11.7355 8.1463 11.3394 7.75229 11.0403V7.39102ZM8.95808 17.1107H23.0493V19.511H8.95808V17.1107ZM5.06487 16.0375C5.06526 15.9668 5.04805 15.8972 5.01491 15.8355C4.98176 15.7738 4.93381 15.722 4.87572 15.6853C4.54278 15.4732 4.26788 15.1757 4.07742 14.8214C3.88697 14.467 3.78735 14.0677 3.78814 13.6618C3.78181 13.0497 4.0086 12.4599 4.41905 12.021C4.8295 11.582 5.39028 11.3296 5.97906 11.3189C6.3808 11.3111 6.77749 11.4127 7.12969 11.6138C7.16395 11.6377 7.20103 11.657 7.24002 11.6711C7.54898 11.8894 7.79745 12.1881 7.96063 12.5374C8.12381 12.8867 8.196 13.2744 8.16998 13.6618V24.6418H5.08063L5.06487 16.0375ZM8.16998 25.4938V27.2059C8.16998 27.4353 8.1227 28.1808 7.52374 28.1808C6.92478 28.1808 6.83809 27.6565 6.83809 27.2059V25.4938H8.18574C8.18574 25.4938 8.16998 25.4856 8.16998 25.4938ZM8.95808 24.6746V20.3302H23.0493V24.6418L8.95808 24.6746ZM25.1693 25.4938V27.2059C25.1693 27.4353 25.122 28.1808 24.5231 28.1808C23.9241 28.1808 23.8374 27.6565 23.8374 27.2059V25.4938H25.1851C25.1851 25.4938 25.1693 25.4856 25.1693 25.4938ZM27.1317 15.6853C27.0736 15.722 27.0256 15.7738 26.9925 15.8355C26.9594 15.8972 26.9422 15.9668 26.9425 16.0375V24.6418H23.8374V13.6618C23.8052 13.3516 23.8392 13.0378 23.937 12.7428C24.0347 12.4478 24.1939 12.1788 24.4031 11.9551C24.6124 11.7313 24.8665 11.5583 25.1474 11.4484C25.4283 11.3384 25.7291 11.2942 26.0283 11.3189C26.6171 11.3296 27.1779 11.582 27.5884 12.021C27.9988 12.4599 28.2256 13.0497 28.2193 13.6618C28.2201 14.0677 28.1204 14.467 27.93 14.8214C27.7395 15.1757 27.4646 15.4732 27.1317 15.6853Z" fill="#101010"/>
</svg>
