<svg width="32" height="32" viewBox="0 0 32 32" xmlns="http://www.w3.org/2000/svg">
<path fill-rule="evenodd" clip-rule="evenodd" d="M7.55207 8.84418C5.85126 8.87321 4.58545 10.4028 4.58545 12.099V21.4802H5.58545V19.7697H16.1905V22.1115C16.1905 25.1491 13.7281 27.6116 10.6905 27.6116H9.10186V28.6116H10.6905C14.2804 28.6116 17.1905 25.7014 17.1905 22.1115V17.8881C17.1905 14.7337 14.6674 10.2193 8.54586 8.97C8.75807 5.64109 11.5253 3.00677 14.9078 3.00677H16.4603C20.8385 3.00677 24.3878 6.55604 24.3878 10.9343V21.7153C23.8496 21.9177 23.4667 22.4371 23.4667 23.0459V24.7595C22.1263 24.8214 21.0318 25.825 20.8293 27.1239C20.1187 27.3266 19.5984 27.9807 19.5984 28.7564V29.9932H30.0851V28.7564C30.0851 27.9807 29.5648 27.3266 28.8542 27.1239C28.661 25.885 27.6564 24.9148 26.4009 24.774V23.138C26.4009 22.4776 25.9778 21.9159 25.3878 21.7095V10.9343C25.3878 6.00375 21.3908 2.00677 16.4603 2.00677H14.9078C11.0155 2.00677 7.82741 5.02206 7.55207 8.84418ZM25.4009 24.7564V23.138C25.4009 22.8546 25.1712 22.6249 24.8878 22.6249C24.6552 22.6249 24.4667 22.8134 24.4667 23.0459V24.7564H25.4009ZM27.8175 27.059C27.6007 26.3067 26.9072 25.7564 26.0851 25.7564H23.5983C22.7763 25.7564 22.0827 26.3067 21.866 27.059H27.8175ZM16.1905 18.769V17.8881C16.1905 15.1647 13.917 10.916 7.94683 9.87432C6.70337 9.65735 5.58545 10.7083 5.58545 12.099V18.7697L16.1905 18.769ZM21.2957 28.059C20.9106 28.059 20.5984 28.3712 20.5984 28.7564V28.9932H29.0851V28.7564C29.0851 28.3712 28.7729 28.059 28.3877 28.059H21.2957Z" />
<path fill-rule="evenodd" clip-rule="evenodd" d="M6.65157 28.4932C8.43919 28.4932 9.88835 27.0441 9.88835 25.2564C9.88835 23.4688 8.43919 22.0197 6.65157 22.0197C4.86395 22.0197 3.41479 23.4688 3.41479 25.2564C3.41479 27.0441 4.86395 28.4932 6.65157 28.4932ZM6.65157 29.4932C8.99148 29.4932 10.8883 27.5963 10.8883 25.2564C10.8883 22.9165 8.99148 21.0197 6.65157 21.0197C4.31166 21.0197 2.41479 22.9165 2.41479 25.2564C2.41479 27.5963 4.31166 29.4932 6.65157 29.4932Z" />
<path fill-rule="evenodd" clip-rule="evenodd" d="M6.65151 25.5458C6.81138 25.5458 6.94097 25.4162 6.94097 25.2564C6.94097 25.0965 6.81138 24.9669 6.65151 24.9669C6.49165 24.9669 6.36206 25.0965 6.36206 25.2564C6.36206 25.4162 6.49165 25.5458 6.65151 25.5458ZM6.65151 26.5458C7.36366 26.5458 7.94097 25.9685 7.94097 25.2564C7.94097 24.5442 7.36366 23.9669 6.65151 23.9669C5.93937 23.9669 5.36206 24.5442 5.36206 25.2564C5.36206 25.9685 5.93937 26.5458 6.65151 26.5458Z" />
</svg>
