<svg width="32" height="32" viewBox="0 0 32 32" fill="none" xmlns="http://www.w3.org/2000/svg">
<path fill-rule="evenodd" clip-rule="evenodd" d="M16 4.5C9.64873 4.5 4.5 9.64873 4.5 16C4.5 22.3513 9.64873 27.5 16 27.5C22.3513 27.5 27.5 22.3513 27.5 16C27.5 9.64873 22.3513 4.5 16 4.5ZM3.5 16C3.5 9.09644 9.09644 3.5 16 3.5C22.9036 3.5 28.5 9.09644 28.5 16C28.5 22.9036 22.9036 28.5 16 28.5C9.09644 28.5 3.5 22.9036 3.5 16Z" fill="#101010"/>
<path d="M16 18.0274C14.8821 18.0274 13.9726 17.118 13.9726 16.0001C13.9726 14.8822 14.8821 13.9727 16 13.9727C17.1179 13.9727 18.0274 14.8822 18.0274 16.0001C18.0274 17.118 17.1179 18.0274 16 18.0274Z" fill="black"/>
<path fill-rule="evenodd" clip-rule="evenodd" d="M18.6884 10H13.3115C11.4855 10 10 11.4856 10 13.3116V18.6884C10 20.5145 11.4855 22 13.3115 22H18.6884C20.5145 22 22 20.5144 22 18.6884V13.3116C22.0001 11.4856 20.5145 10 18.6884 10ZM16 12.9081C14.295 12.9081 12.9079 14.2952 12.9079 16.0002C12.9079 17.7051 14.295 19.0921 16 19.0921C17.705 19.0921 19.0921 17.7051 19.0921 16.0002C19.0921 14.2952 17.705 12.9081 16 12.9081ZM18.6703 12.2338C18.8151 12.0883 19.0166 12.0053 19.2218 12.0053C19.4276 12.0053 19.6292 12.0883 19.774 12.2338C19.9195 12.3786 20.0025 12.5802 20.0025 12.786C20.0025 12.9912 19.9195 13.1928 19.774 13.3383C19.6285 13.4831 19.4276 13.5668 19.2218 13.5668C19.0166 13.5668 18.8151 13.4831 18.6703 13.3383C18.5247 13.1928 18.441 12.9912 18.441 12.786C18.441 12.5802 18.5247 12.3786 18.6703 12.2338Z" fill="black"/>
</svg>
