<svg width="32" height="32" viewBox="0 0 32 32" xmlns="http://www.w3.org/2000/svg">
<path fill-rule="evenodd" clip-rule="evenodd" d="M23.69 2.04262C23.3377 2.04382 22.9849 2.10834 22.6324 2.29231C22.28 2.47624 21.9524 2.76684 21.6319 3.1838C21.0119 3.99044 20.3774 5.3257 19.6266 7.46231C18.4966 6.92372 17.2466 6.65339 16.0261 6.62865C14.7905 6.6036 13.5278 6.86161 12.39 7.40754C11.6476 5.30299 11.0187 3.98374 10.404 3.18404C10.0835 2.76708 9.7559 2.47649 9.40352 2.29255C9.05107 2.10859 8.69822 2.04406 8.34596 2.04287C6.81463 1.97091 5.63251 2.991 4.84096 4.15128C4.04308 5.32083 3.56514 6.7375 3.46872 7.68417C3.41097 8.25111 3.35348 9.10918 3.50855 9.88212C3.66274 10.6506 4.05891 11.4609 5.00296 11.6896C5.83026 11.89 6.64531 11.4946 7.32976 10.8978C7.64026 10.6271 7.93959 10.302 8.2213 9.94048C8.36176 10.1485 8.516 10.3403 8.65932 10.5111C8.73131 10.5968 8.7986 10.6752 8.86076 10.7476C8.90144 10.795 8.94 10.84 8.97618 10.8826C8.54902 11.84 8.30469 12.9549 8.30469 14.2236C8.30469 16.0618 8.85754 17.4791 9.73207 18.5362L8.7558 17.9725C7.86029 17.4555 6.7152 17.7623 6.19818 18.6579C5.68116 19.5534 5.98798 20.6985 6.88349 21.2155L9.91231 22.9642C9.88115 23.1433 9.86115 23.3185 9.85482 23.4863C8.56542 23.981 7.93641 25.6922 8.44593 27.4042C8.97516 29.1825 10.5323 30.2883 11.9239 29.8741C12.3306 29.7531 12.6781 29.5157 12.9531 29.1958C13.279 29.3616 13.6618 29.4826 14.0639 29.568C14.6402 29.6903 15.2895 29.7465 15.9392 29.7427C17.0505 29.7362 18.2264 29.553 19.0648 29.1747C19.3426 29.5052 19.6964 29.7505 20.112 29.8741C21.5036 30.2883 23.0608 29.1825 23.59 27.4042C24.0994 25.6926 23.4709 23.982 22.1822 23.4868C22.1875 23.3161 22.1723 23.1361 22.1427 22.9532L25.1525 21.2155C26.048 20.6985 26.3548 19.5534 25.8378 18.6579C25.3207 17.7623 24.1757 17.4555 23.2801 17.9725L22.304 18.5361C23.1785 17.479 23.7313 16.0617 23.7313 14.2236C23.7313 12.9489 23.4846 11.8385 23.0538 10.8894C23.0914 10.845 23.1315 10.7983 23.174 10.7488L23.1748 10.7479C23.237 10.6754 23.3046 10.5966 23.3766 10.5108C23.5199 10.3401 23.6742 10.1483 23.8146 9.94024C24.0964 10.3018 24.3957 10.6268 24.7062 10.8976C25.3906 11.4944 26.2057 11.8898 27.033 11.6894C27.977 11.4606 28.3732 10.6504 28.5274 9.88188C28.6825 9.10894 28.625 8.25086 28.5672 7.68392C28.4708 6.73725 27.9929 5.32058 27.195 4.15103C26.4034 2.99076 25.2213 1.97067 23.69 2.04262ZM18.6454 28.4848C18.3322 27.7524 18.2755 26.8285 18.5505 25.9044C18.9987 24.3985 20.184 23.3748 21.3817 23.3481C21.374 23.1749 21.3393 22.9654 21.2766 22.7275C21.1881 22.3917 21.0512 22.0265 20.8891 21.6726C20.7273 21.3191 20.5438 20.9844 20.3658 20.7099C20.2431 20.5207 20.1304 20.3716 20.0361 20.2659C18.754 20.8748 17.3161 21.1243 16.018 21.1243C14.7175 21.1243 13.2766 20.8739 11.9926 20.2624C11.9009 20.3642 11.7938 20.5056 11.6783 20.6844C11.5107 20.944 11.339 21.2614 11.1847 21.6039C10.9165 22.1994 10.7179 22.8331 10.666 23.3484C11.8597 23.3815 13.0387 24.4034 13.4854 25.9044C13.7641 26.8406 13.7022 27.7765 13.3782 28.5134C13.6072 28.6215 13.8943 28.7141 14.2301 28.7854C14.7398 28.8936 15.3305 28.9463 15.9345 28.9427C16.9592 28.9367 17.9617 28.7699 18.6454 28.4848ZM24.7525 20.5227L21.9376 22.1478C21.8471 21.8764 21.7369 21.6024 21.6165 21.3396C21.44 20.9541 21.2382 20.5849 21.037 20.2747C21.0239 20.2544 21.0107 20.2342 20.9974 20.2143L23.6801 18.6654C24.193 18.3693 24.8488 18.545 25.145 19.0579C25.4411 19.5707 25.2653 20.2266 24.7525 20.5227ZM10.115 22.1574C10.2119 21.8547 10.3291 21.5555 10.4552 21.2754C10.6238 20.9011 10.8142 20.5478 11.0063 20.2504L11.0322 20.2106L8.3558 18.6654C7.84292 18.3693 7.18711 18.545 6.891 19.0579C6.59489 19.5707 6.77061 20.2266 7.28349 20.5227L10.115 22.1574ZM21.2675 8.52043C20.9749 8.27083 20.664 8.04698 20.3391 7.84825C20.8287 6.44339 21.2557 5.41943 21.6433 4.67716C21.6642 4.94402 21.7043 5.21746 21.7593 5.49141C21.9537 6.45887 22.3496 7.50951 22.8615 8.46268C23.0024 8.72509 23.1531 8.98195 23.312 9.22907C23.1725 9.48956 22.9749 9.74508 22.7639 9.99643C22.727 10.0404 22.6888 10.0851 22.6501 10.1304C22.2682 9.51047 21.7995 8.9742 21.2675 8.52043ZM22.6122 3.28461C22.7493 3.15674 22.879 3.06601 23.0026 3.00151C23.2223 2.88686 23.4462 2.84261 23.7 2.84261H23.71L23.72 2.84211C24.8421 2.78597 25.8019 3.52863 26.5341 4.60188C27.2617 5.66837 27.6893 6.95912 27.7713 7.76499C27.828 8.3209 27.8729 9.07702 27.743 9.72451C27.6122 10.3764 27.336 10.7928 26.8446 10.9119C26.3936 11.0211 25.8423 10.8268 25.232 10.2946C24.6321 9.77156 24.0479 8.98104 23.5662 8.08418C23.0858 7.18952 22.7203 6.21296 22.5437 5.33385C22.3649 4.44408 22.394 3.72603 22.6122 3.28461ZM11.6789 7.79712C11.1968 6.41863 10.7755 5.4106 10.3927 4.6774C10.3718 4.94426 10.3316 5.2177 10.2766 5.49166C10.0823 6.45912 9.68638 7.50976 9.1745 8.46292C9.03357 8.72534 8.88287 8.9822 8.72391 9.22931C8.86344 9.48981 9.06102 9.74532 9.27204 9.99668C9.30551 10.0365 9.34008 10.0771 9.37516 10.1181C9.75837 9.48299 10.2301 8.93259 10.7662 8.46833C11.054 8.21914 11.3595 7.99544 11.6789 7.79712ZM9.03334 3.00175C9.15691 3.06626 9.28665 3.15698 9.42374 3.28485C9.64192 3.72628 9.67101 4.44432 9.49227 5.33409C9.31567 6.21321 8.95016 7.18976 8.4697 8.08442C7.98805 8.98128 7.40381 9.77181 6.80398 10.2949C6.19362 10.8271 5.64237 11.0214 5.19132 10.9121C4.69996 10.7931 4.42371 10.3767 4.29292 9.72475C4.16301 9.07727 4.20798 8.32114 4.2646 7.76523C4.34668 6.95936 4.77425 5.66861 5.50182 4.60212C6.234 3.52887 7.19386 2.78621 8.31594 2.84235L8.32592 2.84285H8.33592C8.58978 2.84285 8.81369 2.88711 9.03334 3.00175ZM9.10469 14.2236C9.10469 11.8979 9.99668 10.1929 11.2899 9.07311C12.5912 7.94631 14.3203 7.39423 16.0099 7.42848C17.7117 7.46298 19.4463 8.0186 20.7484 9.12912C22.0406 10.2312 22.9313 11.8995 22.9313 14.2236C22.9313 16.5319 21.9782 18.036 20.661 18.9768C19.3255 19.9308 17.5861 20.3243 16.018 20.3243C14.4499 20.3243 12.7105 19.9308 11.375 18.9768C10.0578 18.036 9.10469 16.5319 9.10469 14.2236ZM12.7187 26.1326C13.1771 27.6731 12.4995 28.8682 11.6957 29.1074C10.892 29.3466 9.67116 28.7165 9.21269 27.176C8.75423 25.6355 9.43189 24.4404 10.2356 24.2012C11.0394 23.962 12.2602 24.5921 12.7187 26.1326ZM20.3402 29.1074C19.5365 28.8682 18.8588 27.6731 19.3173 26.1326C19.7757 24.5921 20.9966 23.962 21.8003 24.2012C22.6041 24.4404 23.2817 25.6355 22.8233 27.176C22.3648 28.7165 21.1439 29.3466 20.3402 29.1074Z" />
<path fill-rule="evenodd" clip-rule="evenodd" d="M13.0133 12.8207C13.2845 12.8207 13.5043 12.6009 13.5043 12.3297C13.5043 12.0585 13.2845 11.8387 13.0133 11.8387C12.7421 11.8387 12.5223 12.0585 12.5223 12.3297C12.5223 12.6009 12.7421 12.8207 13.0133 12.8207ZM13.0133 13.6207C13.7263 13.6207 14.3043 13.0427 14.3043 12.3297C14.3043 11.6167 13.7263 11.0387 13.0133 11.0387C12.3003 11.0387 11.7223 11.6167 11.7223 12.3297C11.7223 13.0427 12.3003 13.6207 13.0133 13.6207Z" />
<path fill-rule="evenodd" clip-rule="evenodd" d="M19.0227 12.8207C19.2938 12.8207 19.5137 12.6009 19.5137 12.3297C19.5137 12.0585 19.2938 11.8387 19.0227 11.8387C18.7515 11.8387 18.5317 12.0585 18.5317 12.3297C18.5317 12.6009 18.7515 12.8207 19.0227 12.8207ZM19.0227 13.6207C19.7357 13.6207 20.3137 13.0427 20.3137 12.3297C20.3137 11.6167 19.7357 11.0387 19.0227 11.0387C18.3097 11.0387 17.7317 11.6167 17.7317 12.3297C17.7317 13.0427 18.3097 13.6207 19.0227 13.6207Z" />
<path fill-rule="evenodd" clip-rule="evenodd" d="M14.1195 16.2804C14.3281 16.2077 14.5562 16.3179 14.6289 16.5265C14.8266 17.0938 15.3596 17.3922 16.0179 17.3922C16.6412 17.3922 17.2388 16.9602 17.4117 16.5137C17.4914 16.3077 17.7231 16.2054 17.9291 16.2851C18.1351 16.3649 18.2375 16.5966 18.1577 16.8026C17.8566 17.5803 16.946 18.1922 16.0179 18.1922C15.1249 18.1922 14.2144 17.768 13.8735 16.7898C13.8008 16.5812 13.9109 16.3532 14.1195 16.2804Z" />
<path fill-rule="evenodd" clip-rule="evenodd" d="M14.8535 14.3937C14.9228 14.2576 15.0627 14.1718 15.2155 14.1718H16.5828C16.7387 14.1718 16.8809 14.2611 16.9487 14.4015C17.0165 14.5419 16.9979 14.7087 16.9009 14.8308L16.187 15.7294C16.1081 15.8288 15.9872 15.8856 15.8603 15.8829C15.7333 15.8802 15.615 15.8183 15.5403 15.7156L14.8869 14.8171C14.797 14.6935 14.7841 14.5299 14.8535 14.3937Z" />
</svg>
