<svg width="32" height="32" viewBox="0 0 32 32" xmlns="http://www.w3.org/2000/svg">
<path d="M23.3312 13.4235C23.3312 8.54796 19.5734 6.30055 16.0179 6.22848C12.4624 6.1564 8.70459 8.54796 8.70459 13.4235C8.70459 18.299 12.7675 19.9242 16.0179 19.9242C19.2683 19.9242 23.3312 18.299 23.3312 13.4235Z" fill="none" stroke-width="0.75"/>
<path d="M8.33583 1.64281L8.3171 2.01734L8.32646 2.01781H8.33583V1.64281ZM3.86657 6.92466L4.23964 6.96265L3.86657 6.92466ZM5.09705 10.5008L5.00875 10.8653L5.09705 10.5008ZM10.11 2.12461C10.0165 1.93981 9.79091 1.8658 9.60611 1.9593C9.42131 2.0528 9.34729 2.27841 9.4408 2.46321L10.11 2.12461ZM12.4313 6.80131C11.6606 4.58865 11.0141 3.21879 10.3841 2.39924C10.0652 1.98432 9.7402 1.6965 9.39186 1.51468C9.04032 1.33118 8.68824 1.26781 8.33583 1.26781V2.01781C8.59287 2.01781 8.82092 2.06268 9.04482 2.17955C9.27192 2.29809 9.51771 2.50275 9.78948 2.85631C10.3409 3.57372 10.9556 4.84478 11.723 7.04801L12.4313 6.80131ZM9.86674 9.96699C9.71599 9.74087 9.46429 9.46463 9.2528 9.21271C9.02584 8.94236 8.81299 8.6656 8.67124 8.38211L8.00042 8.71752C8.18372 9.08411 8.44488 9.4168 8.67838 9.69494C8.92736 9.99152 9.12258 10.2028 9.2427 10.383L9.86674 9.96699ZM3.4935 6.88666C3.43579 7.45326 3.37868 8.30814 3.53297 9.07716C3.68643 9.84204 4.07886 10.64 5.00875 10.8653L5.18535 10.1364C4.67984 10.0139 4.39984 9.58518 4.26832 8.92963C4.13763 8.27822 4.18298 7.51891 4.23964 6.96265L3.4935 6.88666ZM5.00875 10.8653C5.8243 11.0628 6.63111 10.6737 7.31324 10.0789C8.00525 9.4755 8.64259 8.60032 9.15238 7.65105C9.66328 6.69972 10.0582 5.65139 10.252 4.68669C10.4425 3.73851 10.4526 2.80179 10.11 2.12461L9.4408 2.46321C9.66754 2.91135 9.69717 3.64058 9.51669 4.53898C9.33953 5.42085 8.97308 6.39972 8.49164 7.29621C8.00908 8.19476 7.42312 8.98802 6.82032 9.51365C6.20765 10.0479 5.64815 10.2485 5.18535 10.1364L5.00875 10.8653ZM8.35457 1.26828C6.83135 1.19207 5.65287 2.20534 4.86152 3.36533C4.06584 4.53165 3.58947 5.94439 3.4935 6.88666L4.23964 6.96265C4.32217 6.15239 4.75131 4.8577 5.48108 3.78799C6.21517 2.71194 7.18208 1.96055 8.3171 2.01734L8.35457 1.26828Z" stroke="none" stroke-width="0"/>
<path d="M23.6998 1.64256L23.7185 2.0171L23.7092 2.01756H23.6998V1.64256ZM28.1691 6.92441L27.796 6.96241L28.1691 6.92441ZM26.9386 10.5006L27.0269 10.865L26.9386 10.5006ZM21.9256 2.12437C22.0191 1.93957 22.2447 1.86556 22.4295 1.95906C22.6143 2.05256 22.6883 2.27816 22.5948 2.46296L21.9256 2.12437ZM19.6043 6.80106C20.375 4.5884 21.0216 3.21854 21.6515 2.39899C21.9705 1.98408 22.2954 1.69626 22.6438 1.51443C22.9953 1.33094 23.3474 1.26756 23.6998 1.26756V2.01756C23.4428 2.01756 23.2147 2.06244 22.9908 2.17931C22.7637 2.29785 22.5179 2.50251 22.2462 2.85607C21.6947 3.57347 21.08 4.84454 20.3126 7.04776L19.6043 6.80106ZM22.1689 9.96674C22.3197 9.74062 22.5714 9.46439 22.7828 9.21247C23.0098 8.94211 23.2227 8.66536 23.3644 8.38187L24.0352 8.71728C23.8519 9.08386 23.5908 9.41655 23.3573 9.6947C23.1083 9.99127 22.9131 10.2026 22.7929 10.3828L22.1689 9.96674ZM28.5421 6.88642C28.5999 7.45301 28.657 8.3079 28.5027 9.07692C28.3492 9.84179 27.9568 10.6397 27.0269 10.865L26.8503 10.1361C27.3558 10.0136 27.6358 9.58493 27.7673 8.92939C27.898 8.27798 27.8527 7.51867 27.796 6.96241L28.5421 6.88642ZM27.0269 10.865C26.2113 11.0626 25.4045 10.6735 24.7224 10.0787C24.0304 9.47526 23.3931 8.60007 22.8833 7.65081C22.3724 6.69947 21.9774 5.65115 21.7836 4.68645C21.5932 3.73827 21.583 2.80155 21.9256 2.12437L22.5948 2.46296C22.3681 2.91111 22.3385 3.64033 22.519 4.53873C22.6961 5.4206 23.0626 6.39948 23.544 7.29596C24.0266 8.19452 24.6125 8.98777 25.2153 9.51341C25.828 10.0477 26.3875 10.2482 26.8503 10.1361L27.0269 10.865ZM23.6811 1.26803C25.2043 1.19183 26.3828 2.20509 27.1741 3.36508C27.9698 4.53141 28.4462 5.94415 28.5421 6.88642L27.796 6.96241C27.7135 6.15214 27.2843 4.85746 26.5546 3.78775C25.8205 2.7117 24.8536 1.96031 23.7185 2.0171L23.6811 1.26803Z" stroke="none" stroke-width="0"/>
<path d="M11.8577 19.0355C11.2305 19.5613 10.2527 21.5328 10.2527 22.7991" fill="none" stroke-width="0.75"/>
<path d="M20.1685 19.0355C20.7958 19.5613 21.8976 21.7099 21.7735 22.7991" fill="none" stroke-width="0.75"/>
<path d="M13.1259 25.2113C13.622 26.8782 12.9329 28.3826 11.8169 28.7147C10.7008 29.0468 9.30129 28.164 8.80523 26.4972C8.30917 24.8304 8.99822 23.326 10.1143 22.9939C11.2303 22.6617 12.6298 23.5445 13.1259 25.2113Z" fill="none" stroke-width="0.75"/>
<path d="M18.9097 25.2113C18.4137 26.8782 19.1027 28.3826 20.2188 28.7147C21.3348 29.0468 22.7344 28.164 23.2304 26.4972C23.7265 24.8304 23.0374 23.326 21.9214 22.9939C20.8053 22.6617 19.4058 23.5445 18.9097 25.2113Z" fill="none" stroke-width="0.75"/>
<path d="M11.7002 19.3344L8.55572 17.5189C7.85152 17.1124 6.95107 17.3536 6.5445 18.0578V18.0578C6.13794 18.762 6.37921 19.6625 7.08341 20.069L10.2279 21.8845" fill="none" stroke-width="0.75"/>
<path d="M20.3357 19.3344L23.4802 17.5189C24.1844 17.1124 25.0848 17.3536 25.4914 18.0578V18.0578C25.898 18.762 25.6567 19.6625 24.9525 20.069L21.808 21.8845" fill="none" stroke-width="0.75"/>
<path d="M12.8193 27.8455C14.094 28.8045 17.7254 28.7456 19.2165 27.8455" fill="none" stroke-width="0.75"/>
<circle cx="13.0132" cy="11.5297" r="0.916024" fill="none" stroke-width="0.75"/>
<circle cx="19.0224" cy="11.5297" r="0.915989" fill="none" stroke-width="0.75"/>
<path d="M14.251 15.8582C14.5203 16.6309 15.2421 16.9922 16.0177 16.9922C16.7934 16.9922 17.5475 16.4703 17.7845 15.8582" fill="none" stroke-width="0.75" stroke-linecap="round" stroke-linejoin="round"/>
<path fill-rule="evenodd" clip-rule="evenodd" d="M14.8533 13.5937C14.9227 13.4575 15.0626 13.3718 15.2154 13.3718H16.5827C16.7386 13.3718 16.8808 13.461 16.9486 13.6014C17.0163 13.7419 16.9978 13.9087 16.9008 14.0308L16.1869 14.9294C16.1079 15.0288 15.9871 15.0856 15.8601 15.0829C15.7332 15.0802 15.6148 15.0183 15.5402 14.9156L14.8868 14.017C14.7969 13.8934 14.784 13.7298 14.8533 13.5937Z" stroke="none" stroke-width="0"/>
</svg>
