<svg width="21" height="20" viewBox="0 0 21 20" stroke="none" stroke-width="0" xmlns="http://www.w3.org/2000/svg">
<path d="M2.50022 0C1.1201 0 0 1.12 0 2.5C0 3.88 1.1201 5 2.50022 5C3.88034 5 5.00044 3.88 5.00044 2.5C5.00044 1.12 3.88034 0 2.50022 0ZM10.0009 5H17.5015C18.8817 5 20.0018 3.88 20.0018 2.5C20.0018 1.12 18.8817 0 17.5015 0H10.0009C8.62076 0 7.50066 1.12 7.50066 2.5C7.50066 3.88 8.62076 5 10.0009 5ZM2.50022 7.5C1.1201 7.5 0 8.62 0 10C0 11.38 1.1201 12.5 2.50022 12.5C3.88034 12.5 5.00044 11.38 5.00044 10C5.00044 8.62 3.88034 7.5 2.50022 7.5ZM17.5015 7.5H10.0009C8.62076 7.5 7.50066 8.62 7.50066 10C7.50066 11.38 8.62076 12.5 10.0009 12.5H17.5015C18.8817 12.5 20.0018 11.38 20.0018 10C20.0018 8.62 18.8817 7.5 17.5015 7.5ZM2.50022 15C1.1201 15 0 16.12 0 17.5C0 18.88 1.1201 20 2.50022 20C3.88034 20 5.00044 18.88 5.00044 17.5C5.00044 16.12 3.88034 15 2.50022 15ZM17.5015 15H10.0009C8.62076 15 7.50066 16.12 7.50066 17.5C7.50066 18.88 8.62076 20 10.0009 20H17.5015C18.8817 20 20.0018 18.88 20.0018 17.5C20.0018 16.12 18.8817 15 17.5015 15Z"/>
</svg>
