<svg width="104" height="59" viewBox="0 0 104 59" fill="none" xmlns="http://www.w3.org/2000/svg">
<path fill-rule="evenodd" clip-rule="evenodd" d="M76.8412 24.7055C76.8412 38.3493 65.7803 49.4103 52.1357 49.4109C38.4914 49.4103 27.43 38.3493 27.4303 24.7048C27.4304 11.0608 38.4917 0.000645818 52.1362 0C65.7803 0 76.8407 11.0608 76.8412 24.7055Z" fill="#B9E1FF"/>
<path d="M80.4452 22.3391H76.5493V13.4837H80.6806C82.4531 13.4837 86.8808 13.6017 86.8808 17.7934C86.8808 22.3976 81.8618 22.3391 80.4452 22.3391ZM101.285 33.6143C100.044 28.0658 95.9124 26.4712 93.1383 26.0576V25.9402C98.5084 25.0545 102.82 21.3358 102.82 15.3129C102.82 4.86505 92.016 4.2738 86.1724 4.2738H68.9887L67.0255 4.51405L66.1234 4.66146C62.9324 5.15971 56.089 7.31642 53.1478 10.6413C52.1619 11.7433 51.6098 12.9029 51.6078 14.1802C51.5949 15.6586 52.6436 16.9969 54.2486 18.2257C55.837 19.4454 57.8597 20.4711 59.424 21.3988C62.1788 23.0335 64.7147 24.4458 66.6334 26.2798C68.5536 28.1026 70.8657 30.4466 70.8501 33.6059C70.8224 37.8079 69.5249 42.0568 65.1182 45.5986H77.2593V31.1938H80.7991C82.5115 31.1938 85.4043 31.6667 85.9369 35.2671L87.47 45.5986H104L101.285 33.6143ZM41.9901 27.7109C38.877 26.0226 36.1997 24.4004 34.2461 22.468C32.2922 20.5484 31.0713 18.2382 31.0813 15.4177C31.0994 11.2175 34.2915 7.37858 38.2333 4.2738H26.3898V18.5603H15.8213V4.2738H0V45.5986H15.8213V30.3681H26.3898V45.5986H33.2232L33.5609 45.53C37.0596 44.8176 41.0531 43.556 44.0981 41.7942C47.1717 40.0202 49.1448 37.8249 49.1248 35.3525C49.1111 33.7094 48.6495 32.6144 47.5364 31.4405C46.4206 30.2772 44.5891 29.1146 41.9901 27.7109Z" fill="#221E59"/>
<path d="M4.82673 57.9644H3.48364V55.6021H1.34309V57.9644H0V52.1005H1.34309V54.3456H3.48364V52.1005H4.82673V57.9644Z" fill="#221E59"/>
<path d="M5.92666 55.0325C5.92666 54.1668 6.21486 53.4464 6.79127 52.8712C7.37328 52.2904 8.12597 52 9.04934 52C9.96712 52 10.7142 52.2764 11.2906 52.8293C11.8782 53.3822 12.172 54.1166 12.172 55.0325C12.172 55.9148 11.8754 56.6408 11.2822 57.2105C10.6946 57.7801 9.95033 58.0649 9.04934 58.0649C8.13716 58.0649 7.38727 57.7885 6.79966 57.2356C6.21766 56.6827 5.92666 55.9483 5.92666 55.0325ZM7.35369 55.0325C7.35369 55.5295 7.51878 55.9511 7.84895 56.2974C8.17353 56.638 8.57366 56.8084 9.04934 56.8084C9.58658 56.8084 10.0035 56.6436 10.3001 56.3141C10.5967 55.9735 10.745 55.5462 10.745 55.0325C10.745 54.5019 10.5827 54.0747 10.2581 53.7508C9.92795 53.4213 9.52502 53.2565 9.04934 53.2565C8.55687 53.2565 8.15115 53.4213 7.83217 53.7508C7.51318 54.0803 7.35369 54.5075 7.35369 55.0325Z" fill="#221E59"/>
<path d="M14.6179 57.9644H13.2748V52.1005H14.6263L16.4394 54.5717L18.1519 52.1005H19.4194V57.9644H18.0763V54.2283L16.4394 56.5152H16.2464L14.6179 54.2534V57.9644Z" fill="#221E59"/>
<path d="M24.5085 57.9644H20.941V52.1005H24.4246V53.3571H22.284V54.3874H24.1728V55.644H22.284V56.7079H24.5085V57.9644Z" fill="#221E59"/>
<path d="M29.8098 56.356C29.8098 56.1103 29.5216 55.8506 28.9452 55.577C28.7773 55.5044 28.629 55.4373 28.5003 55.3759C28.3771 55.3089 28.2372 55.2195 28.0805 55.1079C27.9294 54.9906 27.8035 54.8705 27.7028 54.7476C27.6077 54.6248 27.5237 54.4712 27.451 54.2869C27.3838 54.1026 27.353 53.9044 27.3586 53.6921C27.3586 53.223 27.5321 52.8237 27.8791 52.4942C28.226 52.1647 28.6849 52 29.2557 52C30.0056 52 30.582 52.215 30.985 52.645L30.2631 53.6503C30.1008 53.4995 29.9581 53.3962 29.8349 53.3403C29.7174 53.2845 29.5635 53.2565 29.3733 53.2565C29.1886 53.2565 29.0431 53.2956 28.9368 53.3738C28.836 53.452 28.7857 53.5581 28.7857 53.6921C28.7857 53.8429 28.8444 53.977 28.9619 54.0942C29.0851 54.2115 29.2362 54.3092 29.4152 54.3874C29.5999 54.46 29.7986 54.5522 30.0112 54.6639C30.2239 54.7756 30.4198 54.8956 30.5988 55.0241C30.7835 55.1469 30.9346 55.3229 31.0521 55.5518C31.1752 55.7752 31.2368 56.0377 31.2368 56.3393C31.2368 56.8419 31.0437 57.2551 30.6576 57.5791C30.2826 57.903 29.8042 58.0649 29.2222 58.0649C28.7969 58.0649 28.3939 57.9784 28.0134 57.8052C27.6272 57.6321 27.367 57.3976 27.2327 57.1016L27.9966 56.1885C28.1477 56.3839 28.338 56.5375 28.5674 56.6492C28.7969 56.7553 29.0263 56.8084 29.2557 56.8084C29.4292 56.8084 29.5635 56.7693 29.6587 56.6911C29.7594 56.6073 29.8098 56.4956 29.8098 56.356Z" fill="#221E59"/>
<path d="M37.1614 57.9644H35.8183V55.6021H33.6778V57.9644H32.3347V52.1005H33.6778V54.3456H35.8183V52.1005H37.1614V57.9644Z" fill="#221E59"/>
<path d="M38.2613 55.0325C38.2613 54.1668 38.5495 53.4464 39.126 52.8712C39.708 52.2904 40.4607 52 41.384 52C42.3018 52 43.0489 52.2764 43.6253 52.8293C44.2129 53.3822 44.5067 54.1166 44.5067 55.0325C44.5067 55.9148 44.2101 56.6408 43.6169 57.2105C43.0293 57.7801 42.285 58.0649 41.384 58.0649C40.4718 58.0649 39.722 57.7885 39.1343 57.2356C38.5523 56.6827 38.2613 55.9483 38.2613 55.0325ZM39.6884 55.0325C39.6884 55.5295 39.8535 55.9511 40.1836 56.2974C40.5082 56.638 40.9084 56.8084 41.384 56.8084C41.9213 56.8084 42.3382 56.6436 42.6348 56.3141C42.9314 55.9735 43.0797 55.5462 43.0797 55.0325C43.0797 54.5019 42.9174 54.0747 42.5928 53.7508C42.2626 53.4213 41.8597 53.2565 41.384 53.2565C40.8916 53.2565 40.4858 53.4213 40.1669 53.7508C39.8479 54.0803 39.6884 54.5075 39.6884 55.0325Z" fill="#221E59"/>
<path d="M46.9525 55.9707V57.9644H45.6095V52.1005C45.8669 52.1005 46.1495 52.0977 46.4573 52.0921C46.7707 52.0866 47.0869 52.0838 47.4058 52.0838C48.2341 52.0838 48.8385 52.2681 49.219 52.6366C49.594 52.9941 49.7814 53.4576 49.7814 54.0272C49.7814 54.5745 49.5828 55.0408 49.1854 55.4262C48.7881 55.8059 48.2621 55.9958 47.6073 55.9958C47.3163 55.9958 47.0981 55.9874 46.9525 55.9707ZM47.5401 53.3403C47.5346 53.3403 47.5094 53.3431 47.4646 53.3487C47.4198 53.3487 47.3499 53.3515 47.2547 53.3571C47.1596 53.3571 47.0589 53.3571 46.9525 53.3571V54.6974C47.1876 54.7253 47.3919 54.7393 47.5653 54.7393C47.7948 54.7393 47.9823 54.6806 48.1278 54.5634C48.2789 54.4405 48.3544 54.259 48.3544 54.0188C48.3544 53.5665 48.083 53.3403 47.5401 53.3403Z" fill="#221E59"/>
<path d="M52.225 55.9707V57.9644H50.882V52.1005C51.1394 52.1005 51.422 52.0977 51.7298 52.0921C52.0432 52.0866 52.3593 52.0838 52.6783 52.0838C53.5066 52.0838 54.111 52.2681 54.4915 52.6366C54.8665 52.9941 55.0539 53.4576 55.0539 54.0272C55.0539 54.5745 54.8553 55.0408 54.4579 55.4262C54.0606 55.8059 53.5346 55.9958 52.8798 55.9958C52.5888 55.9958 52.3705 55.9874 52.225 55.9707ZM52.8126 53.3403C52.807 53.3403 52.7819 53.3431 52.7371 53.3487C52.6923 53.3487 52.6224 53.3515 52.5272 53.3571C52.4321 53.3571 52.3314 53.3571 52.225 53.3571V54.6974C52.4601 54.7253 52.6643 54.7393 52.8378 54.7393C53.0673 54.7393 53.2547 54.6806 53.4002 54.5634C53.5513 54.4405 53.6269 54.259 53.6269 54.0188C53.6269 53.5665 53.3555 53.3403 52.8126 53.3403Z" fill="#221E59"/>
<path d="M57.5815 57.9644H56.2384V52.1005H57.5815V57.9644Z" fill="#221E59"/>
<path d="M64.3095 52.1005V57.9644H63.2351L60.4481 54.4461V57.9644H59.189V52.1005H60.2635L63.0504 55.6356V52.1005H64.3095Z" fill="#221E59"/>
<path d="M69.4988 55.8785H68.248V54.622H70.7579V57.2356C70.5061 57.4869 70.1703 57.688 69.7506 57.8387C69.3421 57.9895 68.9448 58.0649 68.5586 58.0649C67.5737 58.0649 66.8014 57.7913 66.2418 57.244C65.6878 56.6967 65.4108 55.9595 65.4108 55.0325C65.4108 54.1668 65.6822 53.4464 66.225 52.8712C66.7734 52.2904 67.4953 52 68.3907 52C69.163 52 69.8038 52.2038 70.313 52.6115L69.7506 53.6921C69.6331 53.5693 69.4596 53.466 69.2302 53.3822C69.0063 53.2984 68.7797 53.2565 68.5502 53.2565C68.0298 53.2565 67.6129 53.4101 67.2995 53.7173C66.9917 54.0244 66.8378 54.4628 66.8378 55.0325C66.8378 55.5742 66.9945 56.007 67.3079 56.3309C67.6269 56.6492 68.0494 56.8084 68.5754 56.8084C68.7321 56.8084 68.9084 56.7777 69.1043 56.7162C69.2889 56.6548 69.4204 56.5878 69.4988 56.5152V55.8785Z" fill="#221E59"/>
<path d="M75.1364 55.912V57.9644H73.7933V52.1005C74.1123 52.1005 74.4648 52.0977 74.851 52.0921C75.2371 52.0866 75.5505 52.0838 75.7911 52.0838C77.2405 52.0838 77.9653 52.7092 77.9653 53.9602C77.9653 54.7644 77.6351 55.3284 76.9747 55.6524L78.6872 57.9644H77.0587L75.6316 55.912H75.1364ZM75.724 53.3403C75.7184 53.3403 75.6932 53.3431 75.6484 53.3487C75.6037 53.3487 75.5337 53.3515 75.4386 53.3571C75.3434 53.3571 75.2427 53.3571 75.1364 53.3571V54.6555H75.6232C76.2332 54.6555 76.5382 54.4293 76.5382 53.977C76.5382 53.5525 76.2668 53.3403 75.724 53.3403Z" fill="#221E59"/>
<path d="M82.9851 52.1005H84.3281V55.5435C84.3281 56.3867 84.0987 57.0178 83.6398 57.4366C83.1865 57.8555 82.6157 58.0649 81.9274 58.0649C81.1439 58.0649 80.5227 57.8443 80.0638 57.4031C79.5993 56.9564 79.3671 56.3169 79.3671 55.4848V52.1005H80.7102V55.2C80.7102 56.2723 81.1159 56.8084 81.9274 56.8084C82.3023 56.8084 82.5709 56.6827 82.7332 56.4314C82.9011 56.1801 82.9851 55.7948 82.9851 55.2754V52.1005Z" fill="#221E59"/>
<path d="M87.922 56.356C87.922 56.1103 87.6338 55.8506 87.0574 55.577C86.8895 55.5044 86.7412 55.4373 86.6125 55.3759C86.4893 55.3089 86.3494 55.2195 86.1927 55.1079C86.0416 54.9906 85.9157 54.8705 85.815 54.7476C85.7199 54.6248 85.6359 54.4712 85.5632 54.2869C85.496 54.1026 85.4652 53.9044 85.4708 53.6921C85.4708 53.223 85.6443 52.8237 85.9913 52.4942C86.3382 52.1647 86.7971 52 87.3679 52C88.1178 52 88.6942 52.215 89.0972 52.645L88.3753 53.6503C88.213 53.4995 88.0703 53.3962 87.9472 53.3403C87.8296 53.2845 87.6757 53.2565 87.4855 53.2565C87.3008 53.2565 87.1553 53.2956 87.049 53.3738C86.9482 53.452 86.8979 53.5581 86.8979 53.6921C86.8979 53.8429 86.9566 53.977 87.0741 54.0942C87.1973 54.2115 87.3484 54.3092 87.5274 54.3874C87.7121 54.46 87.9108 54.5522 88.1234 54.6639C88.3361 54.7756 88.532 54.8956 88.711 55.0241C88.8957 55.1469 89.0468 55.3229 89.1643 55.5518C89.2874 55.7752 89.349 56.0377 89.349 56.3393C89.349 56.8419 89.1559 57.2551 88.7698 57.5791C88.3949 57.903 87.9164 58.0649 87.3344 58.0649C86.9091 58.0649 86.5061 57.9784 86.1256 57.8052C85.7394 57.6321 85.4792 57.3976 85.3449 57.1016L86.1088 56.1885C86.2599 56.3839 86.4502 56.5375 86.6796 56.6492C86.9091 56.7553 87.1385 56.8084 87.3679 56.8084C87.5414 56.8084 87.6757 56.7693 87.7709 56.6911C87.8716 56.6073 87.922 56.4956 87.922 56.356Z" fill="#221E59"/>
<path d="M92.6042 56.356C92.6042 56.1103 92.316 55.8506 91.7396 55.577C91.5717 55.5044 91.4234 55.4373 91.2947 55.3759C91.1716 55.3089 91.0317 55.2195 90.875 55.1079C90.7239 54.9906 90.598 54.8705 90.4973 54.7476C90.4021 54.6248 90.3182 54.4712 90.2454 54.2869C90.1783 54.1026 90.1475 53.9044 90.1531 53.6921C90.1531 53.223 90.3266 52.8237 90.6735 52.4942C91.0205 52.1647 91.4794 52 92.0502 52C92.8001 52 93.3765 52.215 93.7794 52.645L93.0575 53.6503C92.8952 53.4995 92.7525 53.3962 92.6294 53.3403C92.5119 53.2845 92.358 53.2565 92.1677 53.2565C91.9831 53.2565 91.8376 53.2956 91.7312 53.3738C91.6305 53.452 91.5801 53.5581 91.5801 53.6921C91.5801 53.8429 91.6389 53.977 91.7564 54.0942C91.8795 54.2115 92.0306 54.3092 92.2097 54.3874C92.3944 54.46 92.593 54.5522 92.8057 54.6639C93.0184 54.7756 93.2142 54.8956 93.3933 55.0241C93.578 55.1469 93.7291 55.3229 93.8466 55.5518C93.9697 55.7752 94.0313 56.0377 94.0313 56.3393C94.0313 56.8419 93.8382 57.2551 93.4521 57.5791C93.0771 57.903 92.5986 58.0649 92.0166 58.0649C91.5913 58.0649 91.1884 57.9784 90.8079 57.8052C90.4217 57.6321 90.1615 57.3976 90.0272 57.1016L90.7911 56.1885C90.9422 56.3839 91.1324 56.5375 91.3619 56.6492C91.5913 56.7553 91.8208 56.8084 92.0502 56.8084C92.2237 56.8084 92.358 56.7693 92.4531 56.6911C92.5539 56.6073 92.6042 56.4956 92.6042 56.356Z" fill="#221E59"/>
<path d="M96.5562 57.9644H95.2131V52.1005H96.5562V57.9644Z" fill="#221E59"/>
<path d="M98.7597 57.9644H97.4082L99.851 52.1005H101.051L103.494 57.9644H102.059L101.572 56.733H99.2466L98.7597 57.9644ZM101.068 55.4764L100.413 53.8178L99.7502 55.4764H101.068Z" fill="#221E59"/>
</svg>
