<svg width="104" height="58" viewBox="0 0 104 58" fill="none" xmlns="http://www.w3.org/2000/svg">
<path d="M32.2686 44.2102C58.9497 34.069 42.3629 29.9374 34.1807 23.9058C30.4454 21.144 28.8445 15.2449 30.3787 12.0854C34.3141 3.99902 41.4058 0.288558 51.8125 0L70.2448 3.84436C70.2448 3.84436 57.0153 7.93176 54.6807 10.583C48.8998 17.4322 64.4416 19.9509 68.2659 23.8395C72.0902 27.728 74.4915 35.1737 71.0229 39.3053C68.8438 41.791 66.4442 43.6861 63.4082 45.0151C60.3722 46.344 56.7744 47.0741 53.4579 46.994L32.2686 44.2102Z" fill="#C0FBF8"/>
<path d="M80.1102 21.3847H76.2425V12.5389H80.3547C82.133 12.5389 86.5341 12.5389 86.5341 16.807C86.5341 21.429 81.5328 21.3847 80.1102 21.3847ZM100.871 32.442C100.507 30.4917 99.5208 28.7099 98.0597 27.3599C96.5987 26.0098 94.7399 25.1632 92.758 24.9452C96.475 24.2614 102.637 22.4906 102.456 14.5292C102.275 6.56784 94.7384 3.47189 85.8228 3.51612H68.7072C67.7255 3.6241 66.7474 3.75285 65.7731 3.91419C62.6611 4.44494 55.8593 6.52371 52.9252 9.81878C51.9926 10.7426 51.4448 11.9826 51.3914 13.2908C51.4871 14.1145 51.7738 14.9049 52.229 15.5996C52.6842 16.2942 53.2954 16.8741 54.0144 17.2935C55.6465 18.4406 57.3463 19.4892 59.1046 20.4338C61.6672 21.7845 64.0746 23.4084 66.2843 25.2769C67.4444 26.1324 68.4158 27.2155 69.1384 28.4593C69.861 29.7032 70.3194 31.0812 70.4854 32.5084C70.5385 34.7921 70.0487 37.056 69.056 39.1158C68.0633 41.1756 66.5958 42.973 64.7728 44.3618L76.8871 44.3452V30.0979H80.4436C81.6609 29.9545 82.8857 30.2979 83.8485 31.0527C84.8114 31.8074 85.4336 32.9117 85.5783 34.1227L87.1121 44.3452H104L100.871 32.5305V32.442ZM41.8111 26.6922C39.0194 25.3201 36.4314 23.5713 34.1202 21.4953C33.1406 20.6128 32.3546 19.5385 31.8115 18.3399C31.2683 17.1412 30.9798 15.8439 30.9638 14.5292C30.9638 10.3717 34.1646 6.56794 38.0768 3.47189H26.2959V17.7137H15.7597V3.51612H0V44.3452H15.7597V29.3239H26.2959V44.3452L33.4311 44.3839C37.0979 43.695 40.6365 42.4494 43.9228 40.6908C46.9903 38.9216 48.9464 36.7544 48.9241 34.3218C48.9542 33.602 48.8289 32.8841 48.5567 32.2165C48.2845 31.5489 47.8716 30.9472 47.3459 30.4517C45.698 28.9509 43.8321 27.7059 41.8111 26.7586V26.6922Z" fill="#101010"/>
<path d="M4.88566 57.8995H3.54257V55.5372H1.40202V57.8995H0.0589256V52.0356H1.40202V54.2806H3.54257V52.0356H4.88566V57.8995Z" fill="#101010"/>
<path d="M5.98558 54.9675C5.98558 54.1019 6.27379 53.3815 6.8502 52.8063C7.4322 52.2255 8.18489 51.9351 9.10827 51.9351C10.026 51.9351 10.7731 52.2115 11.3495 52.7644C11.9372 53.3173 12.231 54.0516 12.231 54.9675C12.231 55.8499 11.9344 56.5759 11.3412 57.1455C10.7536 57.7152 10.0093 58 9.10827 58C8.19608 58 7.44619 57.7235 6.85859 57.1707C6.27658 56.6178 5.98558 55.8834 5.98558 54.9675ZM7.41262 54.9675C7.41262 55.4646 7.5777 55.8862 7.90788 56.2324C8.23246 56.5731 8.63259 56.7434 9.10827 56.7434C9.6455 56.7434 10.0624 56.5787 10.359 56.2492C10.6556 55.9085 10.8039 55.4813 10.8039 54.9675C10.8039 54.437 10.6416 54.0098 10.317 53.6858C9.98687 53.3564 9.58394 53.1916 9.10827 53.1916C8.6158 53.1916 8.21008 53.3564 7.89109 53.6858C7.57211 54.0153 7.41262 54.4426 7.41262 54.9675Z" fill="#101010"/>
<path d="M14.6768 57.8995H13.3337V52.0356H14.6852L16.4984 54.5068L18.2108 52.0356H19.4783V57.8995H18.1352V54.1633L16.4984 56.4502H16.3053L14.6768 54.1885V57.8995Z" fill="#101010"/>
<path d="M24.5675 57.8995H20.9999V52.0356H24.4835V53.2921H22.343V54.3225H24.2317V55.579H22.343V56.6429H24.5675V57.8995Z" fill="#101010"/>
<path d="M29.8687 56.2911C29.8687 56.0454 29.5805 55.7857 29.0041 55.512C28.8362 55.4394 28.6879 55.3724 28.5592 55.311C28.4361 55.244 28.2962 55.1546 28.1395 55.0429C27.9884 54.9256 27.8624 54.8056 27.7617 54.6827C27.6666 54.5598 27.5826 54.4063 27.5099 54.222C27.4427 54.0377 27.412 53.8394 27.4176 53.6272C27.4176 53.1581 27.591 52.7588 27.938 52.4293C28.285 52.0998 28.7439 51.9351 29.3147 51.9351C30.0646 51.9351 30.641 52.1501 31.0439 52.5801L30.322 53.5853C30.1597 53.4345 30.017 53.3312 29.8939 53.2754C29.7764 53.2195 29.6225 53.1916 29.4322 53.1916C29.2475 53.1916 29.102 53.2307 28.9957 53.3089C28.895 53.3871 28.8446 53.4932 28.8446 53.6272C28.8446 53.778 28.9033 53.912 29.0209 54.0293C29.144 54.1466 29.2951 54.2443 29.4742 54.3225C29.6588 54.3951 29.8575 54.4872 30.0702 54.5989C30.2828 54.7106 30.4787 54.8307 30.6578 54.9591C30.8424 55.082 30.9935 55.2579 31.111 55.4869C31.2342 55.7103 31.2957 55.9728 31.2957 56.2743C31.2957 56.7769 31.1027 57.1902 30.7165 57.5141C30.3416 57.838 29.8631 58 29.2811 58C28.8558 58 28.4529 57.9134 28.0723 57.7403C27.6862 57.5672 27.4259 57.3326 27.2916 57.0366L28.0555 56.1235C28.2066 56.319 28.3969 56.4726 28.6263 56.5843C28.8558 56.6904 29.0852 56.7434 29.3147 56.7434C29.4881 56.7434 29.6225 56.7043 29.7176 56.6262C29.8183 56.5424 29.8687 56.4307 29.8687 56.2911Z" fill="#101010"/>
<path d="M37.2203 57.8995H35.8773V55.5372H33.7367V57.8995H32.3936V52.0356H33.7367V54.2806H35.8773V52.0356H37.2203V57.8995Z" fill="#101010"/>
<path d="M38.3203 54.9675C38.3203 54.1019 38.6085 53.3815 39.1849 52.8063C39.7669 52.2255 40.5196 51.9351 41.443 51.9351C42.3607 51.9351 43.1078 52.2115 43.6842 52.7644C44.2718 53.3173 44.5656 54.0516 44.5656 54.9675C44.5656 55.8499 44.269 56.5759 43.6758 57.1455C43.0882 57.7152 42.3439 58 41.443 58C40.5308 58 39.7809 57.7235 39.1933 57.1707C38.6113 56.6178 38.3203 55.8834 38.3203 54.9675ZM39.7473 54.9675C39.7473 55.4646 39.9124 55.8862 40.2426 56.2324C40.5672 56.5731 40.9673 56.7434 41.443 56.7434C41.9802 56.7434 42.3971 56.5787 42.6937 56.2492C42.9903 55.9085 43.1386 55.4813 43.1386 54.9675C43.1386 54.437 42.9763 54.0098 42.6517 53.6858C42.3216 53.3564 41.9186 53.1916 41.443 53.1916C40.9505 53.1916 40.5448 53.3564 40.2258 53.6858C39.9068 54.0153 39.7473 54.4426 39.7473 54.9675Z" fill="#101010"/>
<path d="M47.0115 55.9057V57.8995H45.6684V52.0356C45.9258 52.0356 46.2084 52.0328 46.5162 52.0272C46.8296 52.0216 47.1458 52.0188 47.4648 52.0188C48.293 52.0188 48.8974 52.2031 49.2779 52.5717C49.6529 52.9291 49.8404 53.3927 49.8404 53.9623C49.8404 54.5096 49.6417 54.9759 49.2444 55.3612C48.847 55.741 48.321 55.9309 47.6662 55.9309C47.3752 55.9309 47.157 55.9225 47.0115 55.9057ZM47.5991 53.2754C47.5935 53.2754 47.5683 53.2782 47.5235 53.2837C47.4788 53.2837 47.4088 53.2865 47.3137 53.2921C47.2185 53.2921 47.1178 53.2921 47.0115 53.2921V54.6324C47.2465 54.6604 47.4508 54.6743 47.6243 54.6743C47.8537 54.6743 48.0412 54.6157 48.1867 54.4984C48.3378 54.3755 48.4133 54.194 48.4133 53.9539C48.4133 53.5016 48.1419 53.2754 47.5991 53.2754Z" fill="#101010"/>
<path d="M52.284 55.9057V57.8995H50.9409V52.0356C51.1983 52.0356 51.4809 52.0328 51.7887 52.0272C52.1021 52.0216 52.4183 52.0188 52.7373 52.0188C53.5655 52.0188 54.1699 52.2031 54.5504 52.5717C54.9254 52.9291 55.1129 53.3927 55.1129 53.9623C55.1129 54.5096 54.9142 54.9759 54.5169 55.3612C54.1195 55.741 53.5935 55.9309 52.9387 55.9309C52.6477 55.9309 52.4295 55.9225 52.284 55.9057ZM52.8716 53.2754C52.866 53.2754 52.8408 53.2782 52.796 53.2837C52.7513 53.2837 52.6813 53.2865 52.5862 53.2921C52.491 53.2921 52.3903 53.2921 52.284 53.2921V54.6324C52.519 54.6604 52.7233 54.6743 52.8968 54.6743C53.1262 54.6743 53.3137 54.6157 53.4592 54.4984C53.6103 54.3755 53.6858 54.194 53.6858 53.9539C53.6858 53.5016 53.4144 53.2754 52.8716 53.2754Z" fill="#101010"/>
<path d="M57.6404 57.8995H56.2973V52.0356H57.6404V57.8995Z" fill="#101010"/>
<path d="M64.3685 52.0356V57.8995H63.294L60.5071 54.3811V57.8995H59.2479V52.0356H60.3224L63.1093 55.5707V52.0356H64.3685Z" fill="#101010"/>
<path d="M69.5577 55.8136H68.307V54.557H70.8169V57.1707C70.565 57.422 70.2293 57.623 69.8095 57.7738C69.401 57.9246 69.0037 58 68.6176 58C67.6326 58 66.8603 57.7263 66.3007 57.179C65.7467 56.6317 65.4697 55.8946 65.4697 54.9675C65.4697 54.1019 65.7411 53.3815 66.2839 52.8063C66.8324 52.2255 67.5543 51.9351 68.4497 51.9351C69.2219 51.9351 69.8627 52.1389 70.372 52.5466L69.8095 53.6272C69.692 53.5043 69.5185 53.401 69.2891 53.3173C69.0653 53.2335 68.8386 53.1916 68.6092 53.1916C68.0887 53.1916 67.6718 53.3452 67.3584 53.6523C67.0506 53.9595 66.8967 54.3979 66.8967 54.9675C66.8967 55.5092 67.0534 55.942 67.3668 56.2659C67.6858 56.5843 68.1083 56.7434 68.6343 56.7434C68.791 56.7434 68.9673 56.7127 69.1632 56.6513C69.3479 56.5899 69.4794 56.5228 69.5577 56.4502V55.8136Z" fill="#101010"/>
<path d="M75.1953 55.8471V57.8995H73.8522V52.0356C74.1712 52.0356 74.5237 52.0328 74.9099 52.0272C75.296 52.0216 75.6094 52.0188 75.85 52.0188C77.2995 52.0188 78.0242 52.6443 78.0242 53.8953C78.0242 54.6995 77.694 55.2635 77.0336 55.5874L78.7461 57.8995H77.1176L75.6906 55.8471H75.1953ZM75.7829 53.2754C75.7773 53.2754 75.7521 53.2782 75.7073 53.2837C75.6626 53.2837 75.5926 53.2865 75.4975 53.2921C75.4023 53.2921 75.3016 53.2921 75.1953 53.2921V54.5906H75.6822C76.2921 54.5906 76.5971 54.3644 76.5971 53.912C76.5971 53.4876 76.3257 53.2754 75.7829 53.2754Z" fill="#101010"/>
<path d="M83.044 52.0356H84.3871V55.4785C84.3871 56.3218 84.1576 56.9529 83.6987 57.3717C83.2454 57.7906 82.6746 58 81.9863 58C81.2028 58 80.5817 57.7794 80.1228 57.3382C79.6583 56.8914 79.426 56.252 79.426 55.4199V52.0356H80.7691V55.1351C80.7691 56.2073 81.1748 56.7434 81.9863 56.7434C82.3612 56.7434 82.6299 56.6178 82.7922 56.3665C82.96 56.1152 83.044 55.7298 83.044 55.2105V52.0356Z" fill="#101010"/>
<path d="M87.9809 56.2911C87.9809 56.0454 87.6927 55.7857 87.1163 55.512C86.9484 55.4394 86.8001 55.3724 86.6714 55.311C86.5483 55.244 86.4084 55.1546 86.2517 55.0429C86.1006 54.9256 85.9747 54.8056 85.8739 54.6827C85.7788 54.5598 85.6948 54.4063 85.6221 54.222C85.5549 54.0377 85.5242 53.8394 85.5298 53.6272C85.5298 53.1581 85.7032 52.7588 86.0502 52.4293C86.3972 52.0998 86.8561 51.9351 87.4269 51.9351C88.1768 51.9351 88.7532 52.1501 89.1561 52.5801L88.4342 53.5853C88.2719 53.4345 88.1292 53.3312 88.0061 53.2754C87.8886 53.2195 87.7347 53.1916 87.5444 53.1916C87.3597 53.1916 87.2142 53.2307 87.1079 53.3089C87.0072 53.3871 86.9568 53.4932 86.9568 53.6272C86.9568 53.778 87.0156 53.912 87.1331 54.0293C87.2562 54.1466 87.4073 54.2443 87.5864 54.3225C87.771 54.3951 87.9697 54.4872 88.1824 54.5989C88.395 54.7106 88.5909 54.8307 88.77 54.9591C88.9546 55.082 89.1057 55.2579 89.2233 55.4869C89.3464 55.7103 89.4079 55.9728 89.4079 56.2743C89.4079 56.7769 89.2149 57.1902 88.8287 57.5141C88.4538 57.838 87.9753 58 87.3933 58C86.968 58 86.5651 57.9134 86.1845 57.7403C85.7984 57.5672 85.5382 57.3326 85.4038 57.0366L86.1677 56.1235C86.3188 56.319 86.5091 56.4726 86.7385 56.5843C86.968 56.6904 87.1974 56.7434 87.4269 56.7434C87.6004 56.7434 87.7347 56.7043 87.8298 56.6262C87.9305 56.5424 87.9809 56.4307 87.9809 56.2911Z" fill="#101010"/>
<path d="M92.6632 56.2911C92.6632 56.0454 92.375 55.7857 91.7985 55.512C91.6307 55.4394 91.4824 55.3724 91.3536 55.311C91.2305 55.244 91.0906 55.1546 90.9339 55.0429C90.7828 54.9256 90.6569 54.8056 90.5562 54.6827C90.4611 54.5598 90.3771 54.4063 90.3044 54.222C90.2372 54.0377 90.2064 53.8394 90.212 53.6272C90.212 53.1581 90.3855 52.7588 90.7325 52.4293C91.0794 52.0998 91.5383 51.9351 92.1091 51.9351C92.859 51.9351 93.4354 52.1501 93.8384 52.5801L93.1165 53.5853C92.9542 53.4345 92.8115 53.3312 92.6884 53.2754C92.5708 53.2195 92.4169 53.1916 92.2267 53.1916C92.042 53.1916 91.8965 53.2307 91.7902 53.3089C91.6894 53.3871 91.6391 53.4932 91.6391 53.6272C91.6391 53.778 91.6978 53.912 91.8153 54.0293C91.9385 54.1466 92.0896 54.2443 92.2686 54.3225C92.4533 54.3951 92.652 54.4872 92.8646 54.5989C93.0773 54.7106 93.2732 54.8307 93.4522 54.9591C93.6369 55.082 93.788 55.2579 93.9055 55.4869C94.0286 55.7103 94.0902 55.9728 94.0902 56.2743C94.0902 56.7769 93.8971 57.1902 93.511 57.5141C93.136 57.838 92.6576 58 92.0756 58C91.6502 58 91.2473 57.9134 90.8668 57.7403C90.4806 57.5672 90.2204 57.3326 90.0861 57.0366L90.85 56.1235C91.0011 56.319 91.1914 56.4726 91.4208 56.5843C91.6502 56.6904 91.8797 56.7434 92.1091 56.7434C92.2826 56.7434 92.4169 56.7043 92.5121 56.6262C92.6128 56.5424 92.6632 56.4307 92.6632 56.2911Z" fill="#101010"/>
<path d="M96.6151 57.8995H95.272V52.0356H96.6151V57.8995Z" fill="#101010"/>
<path d="M98.8186 57.8995H97.4672L99.9099 52.0356H101.11L103.553 57.8995H102.118L101.631 56.668H99.3055L98.8186 57.8995ZM101.127 55.4115L100.472 53.7529L99.8092 55.4115H101.127Z" fill="#101010"/>
</svg>
