<?xml version="1.0" encoding="UTF-8"?>
<!DOCTYPE svg PUBLIC "-//W3C//DTD SVG 1.1//EN" "http://www.w3.org/Graphics/SVG/1.1/DTD/svg11.dtd">
<!-- Creator: CorelDRAW 2018 (64-Bit Evaluation Version) -->
<svg xmlns="http://www.w3.org/2000/svg" xml:space="preserve" width="1.91917in" height="1.97545in" version="1.1" style="shape-rendering:geometricPrecision; text-rendering:geometricPrecision; image-rendering:optimizeQuality; fill-rule:evenodd; clip-rule:evenodd"
viewBox="0 0 538.82 554.62"
 xmlns:xlink="http://www.w3.org/1999/xlink">
 <defs>
  <style type="text/css">
   <![CDATA[
    .str0 {stroke:#2B2A29;stroke-width:3.9;stroke-miterlimit:2.61313}
    .fil1 {fill:none}
    .fil2 {fill:#FEFEFE}
    .fil3 {fill:#2B2A29;fill-rule:nonzero}
    .fil0 {fill:#F61D2A;fill-rule:nonzero}
   ]]>
  </style>
 </defs>
 <g id="Layer_x0020_1">
  <metadata id="CorelCorpID_0Corel-Layer"/>
  <g id="_1728001734112">
   <path class="fil0" d="M362.96 92.78c15.96,-4.69 29.9,-10.06 38.99,-17.06 8.7,-6.7 12.89,-14.94 9.96,-25.64 -0.87,-2.19 -2.03,-3.89 -3.43,-5.13 -3.3,-2.92 -8.12,-3.43 -13.79,-2.05 -5.99,1.46 -12.87,5.02 -19.92,10.11 -10.9,7.87 -22.15,19.37 -31.21,32.5 -1.86,3.31 -3.92,6.6 -6.2,9.85l-1.38 -0.88 -1.38 0.88c-2.29,-3.26 -4.35,-6.54 -6.2,-9.85 -9.06,-13.13 -20.31,-24.63 -31.21,-32.5 -7.05,-5.09 -13.93,-8.65 -19.92,-10.11 -5.67,-1.38 -10.49,-0.87 -13.79,2.05 -1.4,1.24 -2.56,2.93 -3.43,5.13 -2.93,10.69 1.26,18.94 9.96,25.64 9.09,7 23.03,12.37 38.99,17.06l-0.95 3.24c-16.32,-4.79 -30.62,-10.33 -40.1,-17.62 -9.84,-7.58 -14.55,-16.99 -11.12,-29.31l0.05 -0.17c1.07,-2.73 2.55,-4.88 4.37,-6.49 4.21,-3.72 10.07,-4.45 16.82,-2.8 6.42,1.57 13.7,5.31 21.09,10.65 7.59,5.49 15.35,12.68 22.45,20.94 -1.16,-2.93 -2.19,-5.88 -3.11,-8.83 -3.49,-11.18 -5.42,-22.53 -6.7,-33.89l-0.01 -0.12c-0.33,-7.85 0.7,-14.75 4.31,-19.83 3.67,-5.16 9.88,-8.33 19.84,-8.55l0.03 1.69 0.03 -1.69c9.96,0.22 16.17,3.39 19.84,8.55 3.61,5.08 4.64,11.98 4.31,19.83l-0.01 0.12c-1.27,11.37 -3.21,22.71 -6.7,33.89 -0.92,2.96 -1.95,5.9 -3.11,8.83 7.1,-8.26 14.86,-15.46 22.45,-20.94 7.39,-5.34 14.67,-9.08 21.09,-10.65 6.75,-1.64 12.61,-0.92 16.82,2.8 1.82,1.61 3.3,3.76 4.37,6.49l0.05 0.17c3.42,12.32 -1.28,21.73 -11.12,29.31 -9.48,7.3 -23.79,12.83 -40.1,17.62l-0.95 -3.24zm-26.98 -1.72c1.48,-2.46 3.04,-4.89 4.67,-7.26 4.12,-7.35 7.21,-14.84 9.58,-22.41 3.41,-10.93 5.31,-22.07 6.56,-33.23 0.29,-7.12 -0.59,-13.29 -3.69,-17.64 -3.05,-4.29 -8.4,-6.93 -17.12,-7.14 -8.72,0.2 -14.07,2.85 -17.12,7.14 -3.1,4.36 -3.98,10.53 -3.69,17.64 1.25,11.17 3.15,22.3 6.56,33.23 2.36,7.57 5.46,15.06 9.58,22.41 1.63,2.37 3.2,4.79 4.67,7.26z"/>
   <g>
    <path class="fil1 str0" d="M484.94 164.05l0 179.46c0,18.18 -14.87,33.05 -33.05,33.05l-231.83 0c-18.18,0 -33.05,-14.87 -33.05,-33.05l0 -179.46 297.92 0z"/>
    <rect class="fil1 str0" x="159.57" y="94.4" width="352.83" height="69.65" rx="17.98" ry="17.98"/>
    <path class="fil0" d="M361.74 376.56l0 -282.16 3.08 -0.97c15.54,22.33 22.59,46.96 24.89,72.87 2.13,23.91 0.21,48.85 -2.77,74.06 4.22,-5.51 8.23,-11.3 11.91,-17.18 4.73,-7.55 8.93,-15.25 12.36,-22.72l0.96 -2.1 33.47 30.38c0.9,-25.16 -0.44,-49.34 -6.86,-71.48 -6.7,-23.1 -18.98,-44.02 -40.08,-61.57l2.16 -2.59c21.68,18.03 34.28,39.51 41.17,63.23 6.86,23.61 8.02,49.4 6.85,76.17l-0.16 3.6 -35.42 -32.15c-3.3,6.96 -7.23,14.07 -11.59,21.02 -4.85,7.73 -10.23,15.27 -15.87,22.24l-2.99 -1.27c3.36,-27.09 5.76,-53.9 3.5,-79.36 -2.09,-23.56 -8.19,-46.03 -21.22,-66.58l0 276.55 -3.39 0z"/>
    <path class="fil0" d="M308.06 376.56l0 -276.55c-13.04,20.56 -19.13,43.02 -21.22,66.58 -2.26,25.45 0.14,52.27 3.5,79.36l-2.99 1.27c-5.64,-6.97 -11.02,-14.52 -15.87,-22.24 -4.36,-6.95 -8.29,-14.06 -11.6,-21.02l-35.41 32.15 -0.16 -3.6c-1.17,-26.78 -0.01,-52.56 6.85,-76.17 6.88,-23.71 19.48,-45.19 41.17,-63.23l2.16 2.59c-21.11,17.55 -33.38,38.48 -40.08,61.57 -6.43,22.14 -7.76,46.32 -6.86,71.48l33.47 -30.38 0.96 2.1c3.42,7.48 7.63,15.18 12.36,22.72 3.69,5.88 7.7,11.67 11.91,17.18 -2.98,-25.21 -4.9,-50.15 -2.77,-74.06 2.3,-25.91 9.35,-50.54 24.89,-72.87l3.08 0.97 0 282.16 -3.39 0z"/>
    <rect class="fil1 str0" transform="matrix(1.47866E-14 0.305348 -0.55831 8.087E-15 536.867 428.72)" width="405.93" height="80.13" rx="20.69" ry="20.69"/>
    <path class="fil1 str0" d="M492.13 447.43c-19.49,-1.86 -29.19,-23.43 -63.04,-23.9 -16.76,0.47 -26.77,6.78 -40.16,10.17l-22.11 0c-24.47,3.91 -51.74,18.63 -41.94,31.01l69.65 0"/>
    <path class="fil1 str0" d="M492.13 518.35c-16.86,-4.66 -24.25,-13.39 -50.58,-13.98 -20.84,-0.13 -34.57,6.74 -58.72,6.86 -50.22,1.98 -106.32,-42.4 -152.52,-80.33 3.29,-7.44 12.21,-9.77 24.66,-8.9 31.16,3.85 45.42,21.35 68.12,32.03"/>
    <path class="fil1 str0" d="M267.23 424.41c43.76,-13.47 56.77,8.97 77.85,15.4"/>
    <path class="fil1 str0" d="M302.59 421.06c37.59,-10.59 48.81,8.43 70.45,12.65"/>
    <circle class="fil2" cx="76.81" cy="450.19" r="74.73"/>
    <path class="fil0" d="M76.81 373.38c21.21,0 40.41,8.6 54.31,22.5 13.9,13.9 22.5,33.1 22.5,54.31 0,21.21 -8.6,40.41 -22.5,54.31 -13.9,13.9 -33.1,22.5 -54.31,22.5 -21.21,0 -40.41,-8.6 -54.31,-22.5 -13.9,-13.9 -22.5,-33.1 -22.5,-54.31 0,-21.21 8.6,-40.41 22.5,-54.31 13.9,-13.9 33.1,-22.5 54.31,-22.5zm51.37 25.43c-13.15,-13.15 -31.31,-21.28 -51.37,-21.28 -20.06,0 -38.23,8.13 -51.37,21.28 -13.15,13.15 -21.28,31.31 -21.28,51.37 0,20.06 8.13,38.22 21.28,51.37 13.15,13.15 31.31,21.28 51.37,21.28 20.06,0 38.22,-8.13 51.37,-21.28 13.15,-13.15 21.28,-31.31 21.28,-51.37 0,-20.06 -8.13,-38.23 -21.28,-51.37z"/>
    <path class="fil0" d="M56.1 483.62l0 -26.13 -7.58 0 0 -4.16 7.58 0 0 -40.52 32.63 0c9.56,0 15.77,5.95 18.48,13.53 1.02,2.85 1.54,5.93 1.55,9 0.01,3.06 -0.49,6.14 -1.51,8.97 -2.67,7.41 -8.8,13.18 -18.52,13.18l-28.47 0 0 26.13 -4.16 0zm4.16 -66.65l0 36.36 28.47 0c7.67,0 12.51,-4.56 14.62,-10.42 0.85,-2.37 1.28,-4.97 1.27,-7.57 -0.01,-2.6 -0.45,-5.21 -1.3,-7.6 -2.16,-6.03 -7.06,-10.77 -14.59,-10.77l-28.47 0z"/>
    <polygon class="fil0" points="84.68,465.9 47.9,465.9 47.9,461.75 84.68,461.75 "/>
    <circle class="fil2" cx="98.37" cy="287.63" r="51.77"/>
    <path class="fil3" d="M98.37 234.41c14.69,0 28,5.96 37.63,15.59 9.63,9.63 15.59,22.93 15.59,37.63 0,14.69 -5.96,28 -15.59,37.63 -9.63,9.63 -22.93,15.59 -37.63,15.59 -14.69,0 -28,-5.96 -37.63,-15.59 -9.63,-9.63 -15.59,-22.93 -15.59,-37.63 0,-14.69 5.96,-28 15.59,-37.63 9.63,-9.63 22.93,-15.59 37.63,-15.59zm35.59 17.62c-9.11,-9.11 -21.69,-14.74 -35.59,-14.74 -13.9,0 -26.48,5.63 -35.59,14.74 -9.11,9.11 -14.74,21.69 -14.74,35.59 0,13.9 5.63,26.48 14.74,35.59 9.11,9.11 21.69,14.74 35.59,14.74 13.9,0 26.48,-5.63 35.59,-14.74 9.11,-9.11 14.74,-21.69 14.74,-35.59 0,-13.9 -5.63,-26.48 -14.74,-35.59z"/>
    <path class="fil3" d="M84.02 310.79l0 -18.1 -5.25 0 0 -2.88 5.25 0 0 -28.07 22.6 0c6.63,0 10.92,4.12 12.81,9.37 0.71,1.97 1.07,4.11 1.07,6.24 0.01,2.12 -0.34,4.25 -1.05,6.21 -1.85,5.14 -6.1,9.13 -12.83,9.13l-19.72 0 0 18.1 -2.88 0zm2.88 -46.18l0 25.19 19.72 0c5.31,0 8.67,-3.16 10.13,-7.22 0.59,-1.64 0.88,-3.44 0.88,-5.25 -0.01,-1.8 -0.31,-3.61 -0.9,-5.27 -1.5,-4.18 -4.89,-7.46 -10.11,-7.46l-19.72 0z"/>
    <polygon class="fil3" points="103.82,298.51 78.34,298.51 78.34,295.63 103.82,295.63 "/>
   </g>
  </g>
 </g>
</svg>
