<?xml version="1.0" encoding="UTF-8"?>
<!DOCTYPE svg PUBLIC "-//W3C//DTD SVG 1.1//EN" "http://www.w3.org/Graphics/SVG/1.1/DTD/svg11.dtd">
<!-- Creator: CorelDRAW 2018 (64-Bit Evaluation Version) -->
<svg xmlns="http://www.w3.org/2000/svg" xml:space="preserve" width="1.94046in" height="1.97545in" version="1.1" style="shape-rendering:geometricPrecision; text-rendering:geometricPrecision; image-rendering:optimizeQuality; fill-rule:evenodd; clip-rule:evenodd"
viewBox="0 0 553.97 563.95"
 xmlns:xlink="http://www.w3.org/1999/xlink">
 <defs>
  <style type="text/css">
   <![CDATA[
    .str0 {stroke:#2B2A29;stroke-width:3.96;stroke-miterlimit:2.61313}
    .fil0 {fill:none}
    .fil1 {fill:#2B2A29;fill-rule:nonzero}
   ]]>
  </style>
 </defs>
 <g id="Layer_x0020_1">
  <metadata id="CorelCorpID_0Corel-Layer"/>
  <g id="_1728000668800">
   <path class="fil0 str0" d="M344.21 136.52l1.45 0 15.05 0 1.45 0 149.05 0c2.59,0 4.45,2.13 4.7,4.7l35.9 371.4c2.53,26.2 -21.54,47.87 -47.87,47.87l-141.79 0 -0.12 0 -17.71 0 -0.12 0 -91.18 0c10.55,-3.52 18.15,-12.9 18.15,-23.85l0 -137.58 8.93 0c7.58,0 13.78,-6.2 13.78,-13.78l0 -25.83c0,-7.58 -6.2,-13.78 -13.78,-13.78l-59.49 0c16.73,-9.76 22.85,-28.71 13.6,-43.18 -9.58,-14.97 -32,-19.47 -50.09,-10.05 -0.5,0.26 -0.99,0.53 -1.47,0.81l0 0.18c0,-6.9 -1.88,-13.31 -5.11,-18.68l12.91 -133.53c0.25,-2.57 2.12,-4.7 4.7,-4.7l149.05 0z"/>
   <circle class="fil0 str0" cx="271.77" cy="189.83" r="20.09"/>
   <circle class="fil0 str0" cx="434.61" cy="189.83" r="20.09"/>
   <path class="fil1" d="M353.51 0c23.09,0 44.08,9.45 59.29,24.66 15.21,15.21 24.66,36.2 24.66,59.29l0 52.57 -5.7 0 0 -52.57c0,-21.51 -8.8,-41.08 -22.99,-55.26 -14.18,-14.18 -33.75,-22.99 -55.26,-22.99 -21.52,0 -41.08,8.8 -55.26,22.99 -14.18,14.18 -22.99,33.75 -22.99,55.26l0 52.57 -5.7 0 0 -52.57c0,-23.09 9.45,-44.08 24.66,-59.29 15.21,-15.21 36.2,-24.66 59.29,-24.66z"/>
   <path class="fil0 str0" d="M271.18 399.06l0 137.58c0,13.93 -12.3,25.33 -27.34,25.33l-191.8 0c-15.04,0 -27.34,-11.4 -27.34,-25.33l0 -137.58 246.48 0z"/>
   <rect class="fil0 str0" x="1.98" y="345.66" width="291.91" height="53.4" rx="14.88" ry="13.78"/>
   <circle class="fil0 str0" cx="119.3" cy="451.71" r="19.23"/>
   <circle class="fil0 str0" cx="176.78" cy="506.2" r="19.23"/>
   <line class="fil0 str0" x1="191.74" y1="435.05" x2="106.15" y2= "520.63" />
   <path class="fil0 str0" d="M182.66 293.42c0,20.81 -18.62,35.14 -31.31,52.24 -12.69,-17.09 -31.31,-31.43 -31.31,-52.24 0,-18.84 14.02,-34.12 31.31,-34.12 17.29,0 31.31,15.28 31.31,34.12z"/>
   <path class="fil0 str0" d="M151.35 345.66c12.69,-17.09 31.31,-31.43 31.31,-52.24l-0 -0.18c0.48,-0.28 0.97,-0.55 1.47,-0.81 18.08,-9.42 40.51,-4.92 50.09,10.05 9.26,14.47 3.13,33.41 -13.6,43.18l-69.27 0z"/>
   <path class="fil0 str0" d="M151.35 345.66c-12.69,-17.09 -31.31,-31.43 -31.31,-52.24l0 -0.18c-0.48,-0.28 -0.97,-0.55 -1.47,-0.81 -18.08,-9.42 -40.51,-4.92 -50.09,10.05 -9.26,14.47 -3.13,33.41 13.6,43.18l69.27 0z"/>
  </g>
 </g>
</svg>
