<?xml version="1.0" encoding="UTF-8"?>
<!DOCTYPE svg PUBLIC "-//W3C//DTD SVG 1.1//EN" "http://www.w3.org/Graphics/SVG/1.1/DTD/svg11.dtd">
<!-- Creator: CorelDRAW 2018 (64-Bit Evaluation Version) -->
<svg xmlns="http://www.w3.org/2000/svg" xml:space="preserve" width="2.00665in" height="1.97544in" version="1.1" style="shape-rendering:geometricPrecision; text-rendering:geometricPrecision; image-rendering:optimizeQuality; fill-rule:evenodd; clip-rule:evenodd"
viewBox="0 0 1468.98 1446.14"
 xmlns:xlink="http://www.w3.org/1999/xlink">
 <defs>
  <style type="text/css">
   <![CDATA[
    .str0 {stroke:#2B2A29;stroke-width:10.17;stroke-miterlimit:2.61313}
    .fil3 {fill:none}
    .fil5 {fill:#FEFEFE}
    .fil1 {fill:#9D9E9E;fill-rule:nonzero}
    .fil0 {fill:#2B2A29;fill-rule:nonzero}
    .fil2 {fill:black;fill-rule:nonzero}
    .fil4 {fill:#F61D2A;fill-rule:nonzero}
   ]]>
  </style>
 </defs>
 <g id="Layer_x0020_1">
  <metadata id="CorelCorpID_0Corel-Layer"/>
  <g id="_1727993669968">
   <path class="fil0" d="M554.17 308.36c1.09,20.54 9.94,39.12 23.65,52.83 14.66,14.66 34.89,23.77 57.13,23.77 22.24,0 42.47,-9.1 57.14,-23.77 13.71,-13.71 22.56,-32.29 23.65,-52.83l0.22 0c0.26,5.12 0.97,10.12 2.1,14.96 -3.67,15.77 -11.75,29.9 -22.85,40.99 -15.46,15.46 -36.79,25.06 -60.25,25.06 -23.47,0 -44.8,-9.6 -60.26,-25.06 -14.51,-14.51 -23.85,-34.19 -24.95,-55.95l4.42 0z"/>
   <path class="fil0" d="M720.38 308.36c1.09,20.54 9.94,39.12 23.65,52.83 14.66,14.66 34.89,23.77 57.13,23.77 22.24,0 42.47,-9.1 57.14,-23.77 13.71,-13.71 22.56,-32.29 23.65,-52.83l4.42 0c-1.09,21.76 -10.44,41.44 -24.95,55.95 -15.46,15.46 -36.79,25.06 -60.25,25.06 -23.47,0 -44.8,-9.6 -60.26,-25.06 -14.51,-14.51 -23.86,-34.19 -24.95,-55.95l4.42 0z"/>
   <path class="fil0" d="M1052.58 308.36c-1.09,21.76 -10.44,41.44 -24.95,55.95 -15.46,15.46 -36.79,25.06 -60.25,25.06 -23.47,0 -44.8,-9.6 -60.26,-25.06 -14.51,-14.51 -23.86,-34.19 -24.95,-55.95l4.42 0c1.09,20.54 9.94,39.12 23.65,52.83 14.66,14.66 34.89,23.77 57.13,23.77 22.24,0 42.47,-9.1 57.13,-23.77 13.71,-13.71 22.56,-32.29 23.65,-52.83l4.42 0z"/>
   <path class="fil0" d="M1052.8 308.36c1.09,20.54 9.94,39.12 23.65,52.83 14.66,14.66 34.89,23.77 57.13,23.77 22.24,0 42.47,-9.1 57.13,-23.77 13.71,-13.71 22.56,-32.29 23.65,-52.83l4.42 0c-1.09,21.76 -10.44,41.44 -24.95,55.95 -15.46,15.46 -36.79,25.06 -60.25,25.06 -23.47,0 -44.8,-9.6 -60.26,-25.06 -14.51,-14.51 -23.86,-34.19 -24.95,-55.95l4.42 0z"/>
   <path class="fil0" d="M1385 308.36c-1.1,21.76 -10.44,41.44 -24.95,55.95 -15.46,15.46 -36.79,25.06 -60.25,25.06 -23.47,0 -44.8,-9.6 -60.26,-25.06 -14.51,-14.51 -23.86,-34.19 -24.95,-55.95l4.42 0c1.09,20.54 9.94,39.12 23.65,52.83 14.66,14.66 34.89,23.77 57.13,23.77 22.24,0 42.47,-9.1 57.13,-23.77 13.71,-13.71 22.56,-32.29 23.65,-52.83l4.42 0z"/>
   <path class="fil0" d="M1385.23 308.36c1.09,20.54 9.94,39.12 23.65,52.83 14.66,14.66 34.89,23.77 57.13,23.77l0.32 -0 0 4.42 -0.32 0c-23.47,0 -44.8,-9.6 -60.26,-25.06 -14.51,-14.51 -23.86,-34.19 -24.95,-55.95l4.42 0z"/>
   <g>
    <polygon class="fil1" points="554.91,300.85 1468.98,300.85 1468.98,318.51 554.91,318.51 "/>
    <path class="fil2" d="M556.37 308.25c0.52,9.82 2.86,19.18 6.7,27.74 3.96,8.84 9.53,16.85 16.32,23.64 7.27,7.27 15.95,13.14 25.57,17.14 9.25,3.85 19.39,5.98 30,5.98 10.61,0 20.76,-2.13 30.01,-5.98 9.62,-4 18.3,-9.87 25.57,-17.14 13.34,-13.34 21.96,-31.42 23.01,-51.38l0.11 -2.1 4.4 0 0.11 2.1c0.12,2.46 0.36,4.91 0.7,7.34 0.34,2.43 0.8,4.84 1.35,7.23l0 1c-1.86,7.99 -4.84,15.6 -8.75,22.6 -3.99,7.16 -8.95,13.71 -14.69,19.45 -8.07,8.08 -17.72,14.6 -28.43,19.05 -10.31,4.28 -21.59,6.65 -33.38,6.65 -11.8,0 -23.08,-2.37 -33.38,-6.65 -10.71,-4.45 -20.36,-10.98 -28.43,-19.05 -7.56,-7.55 -13.76,-16.5 -18.17,-26.4 -4.27,-9.57 -6.87,-20.03 -7.42,-31l-0.12 -2.31 8.82 0 0.11 2.1zm2.68 29.53c-3.77,-8.43 -6.19,-17.6 -6.94,-27.21 0.73,9.57 3.13,18.7 6.87,27.11 4.18,9.39 10.08,17.88 17.27,25.08 7.68,7.68 16.84,13.88 27,18.1 9.52,3.95 19.92,6.19 30.82,6.3 -10.88,-0.11 -21.29,-2.35 -30.82,-6.32 -10.17,-4.23 -19.33,-10.42 -27,-18.09 -7.15,-7.15 -13.02,-15.61 -17.21,-24.97zm107.6 43.06c-9.78,4.07 -20.5,6.32 -31.69,6.32 11.22,0 21.93,-2.25 31.7,-6.31 10.16,-4.23 19.32,-10.42 27,-18.1 5.47,-5.47 10.19,-11.68 13.96,-18.46 3.63,-6.5 6.41,-13.55 8.19,-20.98l-0.01 -0.03c-3.63,15.18 -11.45,28.77 -22.15,39.47 -7.67,7.67 -16.84,13.87 -27,18.09z"/>
    <path class="fil2" d="M722.58 308.25c0.52,9.82 2.86,19.18 6.7,27.74 3.96,8.84 9.53,16.85 16.32,23.64 7.27,7.27 15.95,13.14 25.57,17.14 9.25,3.85 19.39,5.98 30,5.98 10.61,0 20.76,-2.13 30.01,-5.98 9.61,-4 18.3,-9.87 25.57,-17.14 13.34,-13.34 21.96,-31.42 23.01,-51.38l0.11 -2.1 8.82 0 -0.12 2.31c-0.55,10.97 -3.15,21.43 -7.42,31 -4.42,9.91 -10.61,18.85 -18.17,26.4 -8.07,8.08 -17.73,14.6 -28.43,19.05 -10.31,4.28 -21.59,6.65 -33.38,6.65 -11.8,0 -23.08,-2.37 -33.38,-6.65 -10.71,-4.45 -20.36,-10.98 -28.43,-19.05 -7.56,-7.55 -13.76,-16.5 -18.17,-26.4 -4.27,-9.57 -6.87,-20.03 -7.42,-31l-0.12 -2.31 8.82 0 0.11 2.1zm2.68 29.53c-3.77,-8.43 -6.19,-17.6 -6.94,-27.21 0.73,9.57 3.12,18.7 6.87,27.11 4.18,9.39 10.08,17.88 17.28,25.08 7.68,7.68 16.84,13.88 27,18.1 9.51,3.95 19.92,6.19 30.82,6.3 -10.88,-0.12 -21.28,-2.35 -30.81,-6.32 -10.17,-4.23 -19.33,-10.42 -27,-18.09 -7.15,-7.15 -13.02,-15.61 -17.21,-24.97zm107.6 43.06c-9.78,4.07 -20.49,6.32 -31.69,6.32 11.21,0 21.93,-2.25 31.7,-6.31 10.16,-4.23 19.32,-10.42 27,-18.1 7.2,-7.19 13.09,-15.69 17.28,-25.08 3.74,-8.4 6.14,-17.53 6.89,-27.11 -1.61,20.28 -10.56,38.57 -24.17,52.18 -7.67,7.67 -16.84,13.87 -27,18.09z"/>
    <path class="fil2" d="M1054.78 308.47c-0.55,10.97 -3.15,21.43 -7.42,31 -4.42,9.91 -10.61,18.85 -18.17,26.4 -8.07,8.08 -17.73,14.6 -28.43,19.05 -10.31,4.28 -21.58,6.65 -33.38,6.65 -11.8,0 -23.08,-2.37 -33.38,-6.65 -10.71,-4.45 -20.36,-10.98 -28.43,-19.05 -7.56,-7.55 -13.76,-16.5 -18.17,-26.4 -4.26,-9.57 -6.87,-20.03 -7.42,-31l-0.12 -2.31 8.82 0 0.11 2.1c0.52,9.82 2.86,19.18 6.7,27.74 3.96,8.84 9.53,16.85 16.32,23.64 7.27,7.27 15.95,13.14 25.57,17.14 9.25,3.85 19.39,5.98 30,5.98 10.61,0 20.76,-2.13 30.01,-5.98 9.61,-4 18.3,-9.87 25.57,-17.14 13.34,-13.34 21.96,-31.42 23.01,-51.38l0.11 -2.1 8.82 0 -0.12 2.31zm-11.43 29.21c3.74,-8.4 6.14,-17.53 6.89,-27.11 -1.61,20.28 -10.55,38.57 -24.17,52.18 -7.67,7.67 -16.83,13.87 -27,18.09 -9.78,4.07 -20.49,6.32 -31.69,6.32 11.21,0 21.93,-2.25 31.7,-6.31 10.16,-4.23 19.32,-10.42 27,-18.1 7.2,-7.19 13.09,-15.69 17.28,-25.08zm-107.67 43.18c9.38,3.9 19.64,6.13 30.37,6.3 -10.72,-0.17 -20.97,-2.4 -30.37,-6.31 -10.17,-4.23 -19.33,-10.42 -27,-18.09 -7.15,-7.15 -13.02,-15.61 -17.21,-24.97 -3.78,-8.43 -6.19,-17.6 -6.94,-27.21 0.73,9.57 3.12,18.7 6.87,27.11 4.18,9.39 10.08,17.88 17.28,25.08 7.68,7.68 16.84,13.88 27,18.1z"/>
    <path class="fil2" d="M1055 308.25c0.52,9.82 2.86,19.18 6.7,27.74 3.96,8.84 9.53,16.85 16.32,23.64 7.27,7.27 15.96,13.14 25.57,17.14 9.25,3.85 19.39,5.98 30,5.98 10.61,0 20.76,-2.13 30.01,-5.98 9.61,-4 18.3,-9.87 25.57,-17.14 13.34,-13.34 21.96,-31.42 23.01,-51.38l0.11 -2.1 8.82 0 -0.12 2.31c-0.55,10.97 -3.15,21.43 -7.42,31 -4.42,9.91 -10.61,18.85 -18.17,26.4 -8.07,8.08 -17.73,14.6 -28.43,19.05 -10.31,4.28 -21.58,6.65 -33.38,6.65 -11.8,0 -23.08,-2.37 -33.38,-6.65 -10.71,-4.45 -20.36,-10.98 -28.43,-19.05 -7.56,-7.55 -13.76,-16.5 -18.17,-26.4 -4.26,-9.57 -6.87,-20.03 -7.42,-31l-0.12 -2.31 8.82 0 0.11 2.1zm2.68 29.53c-3.78,-8.43 -6.19,-17.6 -6.94,-27.21 0.73,9.57 3.12,18.7 6.87,27.11 4.18,9.39 10.08,17.88 17.28,25.08 7.68,7.68 16.84,13.88 27,18.1 9.51,3.95 19.91,6.19 30.8,6.3 -10.87,-0.12 -21.27,-2.35 -30.79,-6.32 -10.17,-4.23 -19.33,-10.42 -27,-18.09 -7.15,-7.15 -13.02,-15.61 -17.21,-24.97zm107.6 43.06c-9.78,4.07 -20.49,6.32 -31.69,6.32 11.21,0 21.93,-2.25 31.7,-6.31 10.16,-4.23 19.32,-10.42 27,-18.1 7.2,-7.19 13.09,-15.69 17.28,-25.08 3.74,-8.4 6.14,-17.53 6.89,-27.11 -1.61,20.28 -10.55,38.57 -24.17,52.18 -7.67,7.67 -16.83,13.87 -27,18.09z"/>
    <path class="fil2" d="M1387.2 308.47c-0.55,10.97 -3.15,21.43 -7.42,31 -4.42,9.91 -10.61,18.85 -18.17,26.4 -8.07,8.08 -17.73,14.6 -28.43,19.05 -10.31,4.28 -21.59,6.65 -33.38,6.65 -11.8,0 -23.08,-2.37 -33.39,-6.65 -10.7,-4.45 -20.36,-10.98 -28.43,-19.05 -7.56,-7.55 -13.76,-16.5 -18.17,-26.4 -4.27,-9.57 -6.87,-20.03 -7.42,-31l-0.12 -2.31 8.82 0 0.11 2.1c0.52,9.82 2.86,19.18 6.7,27.74 3.96,8.84 9.53,16.85 16.32,23.64 7.27,7.27 15.95,13.14 25.57,17.14 9.25,3.85 19.39,5.98 30,5.98 10.61,0 20.76,-2.13 30.01,-5.98 9.61,-4 18.3,-9.87 25.57,-17.14 13.34,-13.34 21.96,-31.42 23.01,-51.38l0.11 -2.1 8.82 0 -0.12 2.31zm-11.43 29.21c3.75,-8.4 6.14,-17.53 6.89,-27.11 -1.61,20.28 -10.56,38.57 -24.17,52.18 -7.67,7.67 -16.83,13.87 -27,18.09 -9.78,4.07 -20.49,6.32 -31.69,6.32 11.21,0 21.93,-2.25 31.7,-6.31 10.16,-4.23 19.32,-10.42 27,-18.1 7.2,-7.19 13.09,-15.69 17.27,-25.08zm-107.66 43.18c9.46,3.93 19.81,6.16 30.65,6.3 -10.82,-0.14 -21.16,-2.37 -30.64,-6.31 -10.16,-4.23 -19.33,-10.42 -27,-18.09 -7.15,-7.15 -13.02,-15.61 -17.21,-24.97 -3.78,-8.43 -6.19,-17.6 -6.94,-27.21 0.73,9.57 3.12,18.7 6.87,27.11 4.18,9.39 10.08,17.88 17.28,25.08 7.68,7.68 16.84,13.88 27,18.1zm30.65 6.3l0.14 0 -0.14 -0z"/>
    <path class="fil2" d="M1387.43 308.25c0.52,9.82 2.86,19.18 6.69,27.74 3.96,8.84 9.53,16.85 16.32,23.64 7.27,7.27 15.95,13.14 25.57,17.14 9.25,3.85 19.39,5.98 30,5.98l2.53 -0.01 0 8.81 -2.51 0.02c-11.82,0.01 -23.1,-2.36 -33.4,-6.64 -10.71,-4.45 -20.36,-10.98 -28.43,-19.05 -7.56,-7.55 -13.76,-16.5 -18.17,-26.4 -4.27,-9.57 -6.87,-20.03 -7.42,-31l-0.12 -2.31 8.82 0 0.11 2.1zm2.68 29.53c-3.78,-8.43 -6.19,-17.6 -6.94,-27.21 0.74,9.57 3.13,18.7 6.87,27.11 4.18,9.39 10.08,17.88 17.28,25.08 7.68,7.68 16.84,13.88 27,18.1 9.22,3.83 19.28,6.05 29.81,6.29 -10.51,-0.24 -20.57,-2.46 -29.8,-6.3 -10.16,-4.23 -19.33,-10.42 -27,-18.09 -7.15,-7.15 -13.02,-15.61 -17.21,-24.97z"/>
    <polygon class="fil0" points="547.98,306.48 692.22,2.54 700.18,6.29 555.94,310.24 "/>
    <polygon class="fil0" points="716.17,307.07 809.86,3.12 818.28,5.71 724.59,309.66 "/>
    <polygon class="fil0" points="879.83,307.54 938.21,3.59 946.87,5.24 888.48,309.19 "/>
    <polygon class="fil0" points="1045.97,308.03 1069.25,4.09 1078.05,4.74 1054.77,308.69 "/>
    <polygon class="fil0" points="1212.16,308.36 1212.16,4.42 1220.99,4.42 1220.99,308.36 "/>
    <polygon class="fil0" points="1378.41,308.85 1344.74,4.9 1353.5,3.93 1387.17,307.88 "/>
    <polygon class="fil0" points="696.2,0 1349.13,0 1349.13,8.83 696.2,8.83 "/>
   </g>
   <path class="fil3 str0" d="M694.88 367.71l0 334.65 -88.73 0 0 -315.68c9.04,3.18 18.73,4.91 28.81,4.91 11.8,0 23.08,-2.37 33.38,-6.65 9.88,-4.11 18.87,-9.98 26.54,-17.22z"/>
   <path class="fil0" d="M466.41 697.94l463.56 0c12.31,0 23.51,5.04 31.63,13.15 8.13,8.14 13.17,19.33 13.17,31.64l0 290.06c0,12.31 -5.04,23.51 -13.15,31.63 -8.14,8.13 -19.33,13.17 -31.64,13.17l-270.37 0c-0.12,-3.73 -2.17,-7 -5.17,-8.83l275.54 0c9.89,0 18.89,-4.05 25.41,-10.56 6.51,-6.52 10.56,-15.51 10.56,-25.41l0 -290.06c0,-9.89 -4.05,-18.89 -10.56,-25.41 -6.52,-6.51 -15.51,-10.56 -25.41,-10.56l-463.56 0c-9.89,0 -18.89,4.05 -25.41,10.56 -6.51,6.52 -10.56,15.51 -10.56,25.41l0 56.5 -8.83 0 0 -56.5c0,-12.31 5.04,-23.51 13.15,-31.63 8.13,-8.13 19.33,-13.17 31.64,-13.17zm1.82 379.66l-1.82 0c-12.31,0 -23.51,-5.04 -31.63,-13.16 -8.13,-8.13 -13.17,-19.33 -13.17,-31.64l0 -124.01 8.83 -2.05 0 126.07c0,9.89 4.05,18.89 10.56,25.41 6.52,6.51 15.51,10.56 25.41,10.56l13.32 0c-4.65,1.75 -8.65,4.85 -11.5,8.83z"/>
   <path class="fil0" d="M697.46 699.15c49.59,46.46 90.11,103.88 118.28,168.76 27.16,62.52 42.85,131.98 44.16,205.2l0.08 4.49 -200.39 0c-0.12,-3.73 -2.17,-7 -5.17,-8.83l196.58 0c-1.84,-70.4 -17.18,-137.16 -43.33,-197.38 -27.44,-63.17 -66.8,-119.17 -114.97,-164.62l-226.3 0c-9.89,0 -18.89,4.05 -25.41,10.56 -6.51,6.52 -10.56,15.51 -10.56,25.41l0 56.5 -8.83 0 0 -56.5c0,-12.31 5.04,-23.51 13.15,-31.63 8.13,-8.13 19.33,-13.17 31.64,-13.17l228.03 0 3.02 1.21zm-229.23 378.45l-1.82 0c-12.31,0 -23.51,-5.04 -31.63,-13.16 -8.13,-8.13 -13.17,-19.33 -13.17,-31.64l0 -124.01 8.83 -2.05 0 126.07c0,9.89 4.05,18.89 10.56,25.41 6.52,6.51 15.51,10.56 25.41,10.56l13.32 0c-4.65,1.75 -8.65,4.85 -11.5,8.83z"/>
   <line class="fil3 str0" x1="496.05" y1="940.07" x2="690.74" y2= "940.07" />
   <line class="fil3 str0" x1="498.04" y1="997.68" x2="656.97" y2= "997.68" />
   <path class="fil0" d="M1440.34 919.31l-465.58 0 0 113.49c0,12.31 -5.04,23.51 -13.15,31.63 -1.58,1.58 -3.25,3.02 -5.03,4.34l483.76 0 0 8.83 -510.38 0 0 -8.83c9.89,0 18.89,-4.05 25.41,-10.56 6.51,-6.52 10.56,-15.51 10.56,-25.41l0 -122.32 4.42 0 469.99 0 0 8.83z"/>
   <polygon class="fil3 str0" points="1323.14,1073.19 1323.14,1222.82 1122.49,1222.82 1122.49,1073.19 "/>
   <rect class="fil3 str0" x="1001.31" y="1222.82" width="445.66" height="63.57" rx="31.79" ry="31.79"/>
   <path class="fil0" d="M363.99 1044.24c12.45,-7.57 20.62,-21.58 24.09,-42.64 3.6,-21.9 2.1,-51.21 -4.95,-88.54l-0.78 -4.14 31.8 -7.44c71.72,-16.67 137.28,-31.92 160.59,-54.21 11,-10.52 11.56,-23.15 -3.1,-39.21l-184.6 0c-17.94,2.55 -33.81,6.82 -47.68,12.72 -13.75,5.85 -25.53,13.3 -35.41,22.29l-103.63 127.39c-19.68,27.22 -26.25,61.07 -32.59,93.76 -8.4,43.3 -16.43,84.67 -53.34,108.66l-4.8 -7.38c33.77,-21.94 41.45,-61.51 49.48,-102.93 6.52,-33.64 13.28,-68.47 34.11,-97.27l104.12 -127.99 0.45 -0.46c10.7,-9.79 23.4,-17.87 38.16,-24.16 14.67,-6.24 31.41,-10.73 50.29,-13.39l0.6 -0.05 188.61 0 1.32 1.38c20.31,21.25 19.41,38.38 4.08,53.04 -25.04,23.94 -91.72,39.45 -164.65,56.41l-23.6 5.52c6.58,36.41 7.85,65.37 4.22,87.44 -3.9,23.76 -13.48,39.78 -28.22,48.75l-4.55 -7.52z"/>
   <rect class="fil3 str0" transform="matrix(0.561263 0.599393 -0.559527 0.523932 67.9013 1122.1)" width="434.66" height="123.54" rx="19.83" ry="19.83"/>
   <path class="fil3 str0" d="M270.15 1338.09c16.77,-15.47 39.84,-32.43 70.95,-31.84l91.38 0c35.91,-10.53 62.54,-25.89 75.49,-48.34"/>
   <rect class="fil3 str0" x="410.96" y="1196.33" width="196.01" height="62.91" rx="27.46" ry="24.79"/>
   <path class="fil3 str0" d="M463.89 1133.42l161.45 0c5.37,0 9.76,4.39 9.76,9.76l0 21.69c0,17.3 -14.15,31.45 -31.45,31.45l-139.77 0c-13.64,0 -24.79,-11.15 -24.79,-24.79l0 -13.33c0,-13.64 11.16,-24.79 24.79,-24.79z"/>
   <path class="fil3 str0" d="M488.39 1067.2l160.46 0c5.92,0 10.76,4.84 10.76,10.76l0 20.7c0,17.3 -14.15,31.45 -31.45,31.45l-139.77 0c-13.64,0 -24.79,-11.15 -24.79,-24.79l0 -13.33c0,-13.64 11.15,-24.79 24.79,-24.79z"/>
   <polygon class="fil4" points="455.96,611.16 439.41,512.82 448.1,511.38 464.65,609.71 "/>
   <polygon class="fil4" points="278.48,526.68 383.44,641.57 376.93,647.51 271.97,532.62 "/>
   <polygon class="fil4" points="213.84,692.87 337.67,718.04 335.95,726.66 212.12,701.49 "/>
   <circle class="fil5" cx="1212.8" cy="657.94" r="150.61"/>
   <path class="fil4" d="M1212.8 503.15c42.74,0 81.44,17.33 109.46,45.34 28.01,28.01 45.34,66.72 45.34,109.46 0,42.74 -17.33,81.44 -45.34,109.46 -28.01,28.01 -66.71,45.34 -109.46,45.34 -42.74,0 -81.45,-17.33 -109.46,-45.34 -28.01,-28.01 -45.34,-66.71 -45.34,-109.46 0,-42.74 17.32,-81.45 45.34,-109.46 28.01,-28.01 66.72,-45.34 109.46,-45.34zm103.54 51.26c-26.5,-26.5 -63.1,-42.88 -103.54,-42.88 -40.43,0 -77.04,16.39 -103.53,42.88 -26.5,26.49 -42.88,63.1 -42.88,103.53 0,40.43 16.39,77.04 42.88,103.53 26.49,26.5 63.1,42.88 103.53,42.88 40.43,0 77.04,-16.39 103.54,-42.88 26.49,-26.5 42.88,-63.1 42.88,-103.53 0,-40.43 -16.39,-77.04 -42.88,-103.53z"/>
   <path class="fil4" d="M1171.08 725.31l0 -52.66 -15.28 0 0 -8.38 15.28 0 0 -81.66 65.75 0c19.27,0 31.78,12 37.25,27.27 2.05,5.74 3.1,11.95 3.12,18.14 0.02,6.17 -0.99,12.37 -3.05,18.08 -5.38,14.94 -17.74,26.56 -37.32,26.56l-57.38 0 0 52.66 -8.38 0zm8.38 -134.33l0 73.29 57.38 0c15.46,0 25.22,-9.19 29.47,-21 1.72,-4.78 2.57,-10.02 2.56,-15.26 -0.01,-5.25 -0.9,-10.49 -2.63,-15.32 -4.35,-12.16 -14.23,-21.71 -29.4,-21.71l-57.38 0z"/>
   <polygon class="fil4" points="1228.67,689.61 1154.54,689.61 1154.54,681.23 1228.67,681.23 "/>
  </g>
 </g>
</svg>
