<?xml version="1.0" encoding="UTF-8"?>
<!DOCTYPE svg PUBLIC "-//W3C//DTD SVG 1.1//EN" "http://www.w3.org/Graphics/SVG/1.1/DTD/svg11.dtd">
<!-- Creator: CorelDRAW 2018 (64-Bit Evaluation Version) -->
<svg xmlns="http://www.w3.org/2000/svg" xml:space="preserve" width="1.9857in" height="1.98239in" version="1.1" style="shape-rendering:geometricPrecision; text-rendering:geometricPrecision; image-rendering:optimizeQuality; fill-rule:evenodd; clip-rule:evenodd"
viewBox="0 0 1406.02 1403.68"
 xmlns:xlink="http://www.w3.org/1999/xlink">
 <defs>
  <style type="text/css">
   <![CDATA[
    .str0 {stroke:#2B2A29;stroke-width:9.83;stroke-miterlimit:2.61313}
    .fil1 {fill:none}
    .fil3 {fill:none;fill-rule:nonzero}
    .fil0 {fill:#2B2A29;fill-rule:nonzero}
    .fil2 {fill:#F61D2A;fill-rule:nonzero}
   ]]>
  </style>
 </defs>
 <g id="Layer_x0020_1">
  <metadata id="CorelCorpID_0Corel-Layer"/>
  <g id="_1693489150592">
   <path class="fil0" d="M153.57 500.51l35.72 0 0 8.43 -35.72 0c-4.93,0 -9.41,2.02 -12.66,5.25 -3.24,3.25 -5.26,7.73 -5.26,12.66l0 694.45 1134.72 0 0 -694.45c0,-4.93 -2.02,-9.41 -5.26,-12.66 -3.24,-3.24 -7.73,-5.25 -12.66,-5.25l-26.24 0 0 -8.43 26.24 0c7.24,0 13.82,2.97 18.59,7.74 4.79,4.79 7.75,11.37 7.75,18.61l0 702.88 -1151.58 0 0 -702.88c0,-7.24 2.97,-13.82 7.74,-18.59 4.79,-4.79 11.37,-7.75 18.61,-7.75z"/>
   <path class="fil0" d="M133.01 437.29l56.27 0 0 8.43 -56.27 0c-20.14,0 -38.45,8.24 -51.72,21.52 -13.27,13.27 -21.52,31.58 -21.52,51.72l0 702.36 1286.46 0 0 -702.36c0,-20.14 -8.24,-38.45 -21.52,-51.72 -13.27,-13.27 -31.58,-21.52 -51.72,-21.52l-46.79 0 0 -8.43 46.79 0c22.46,0 42.88,9.19 57.68,23.99 14.8,14.8 23.99,35.22 23.99,57.68l0 710.79 -1303.33 0 0 -710.79c0,-22.46 9.19,-42.88 23.99,-57.68 14.8,-14.8 35.22,-23.99 57.68,-23.99z"/>
   <path class="fil1 str0" d="M1400.96 1225.52c-2.7,95.75 -81.85,173.24 -178.23,173.24l-1039.46 0c-96.38,0 -175.52,-77.49 -178.23,-173.24l1395.91 0z"/>
   <circle class="fil1 str0" cx="225.64" cy="1312.78" r="40.15"/>
   <circle class="fil1 str0" cx="366.33" cy="1312.78" r="40.15"/>
   <polygon class="fil1 str0" points="500.05,1225.52 699.54,1225.52 905.97,1225.52 859.82,1279.9 699.54,1279.9 546.2,1279.9 "/>
   <path class="fil0" d="M254.41 156.24l921.02 0 0 706.46 -327.94 0 0 -8.43 319.51 0 0 -689.6 -908.37 0 0 689.6 303.07 0 0 8.43 -311.5 0c-0.13,-235.48 -0.13,-470.98 0,-706.46l4.21 0z"/>
   <rect class="fil1 str0" x="254.41" y="4.92" width="916.8" height="155.54"/>
   <circle class="fil1 str0" cx="342.45" cy="86.64" r="30.19"/>
   <circle class="fil1 str0" cx="450.1" cy="86.64" r="30.19"/>
   <circle class="fil1 str0" cx="546.2" cy="86.64" r="30.19"/>
   <line class="fil1 str0" x1="843.68" y1="266.04" x2="1106.71" y2= "266.04" />
   <line class="fil1 str0" x1="843.68" y1="345.71" x2="1106.71" y2= "345.71" />
   <line class="fil1 str0" x1="843.68" y1="425.37" x2="1106.71" y2= "425.37" />
   <polygon class="fil2" points="609.43,896.31 676.45,896.31 676.45,904.73 609.43,904.73 "/>
   <polygon class="fil2" points="669.98,794.1 704.04,853.1 696.76,857.28 662.7,798.28 "/>
   <polygon class="fil2" points="796.21,798.75 765.87,857.24 758.39,853.39 788.74,794.9 "/>
   <polygon class="fil2" points="707.78,953.08 671.42,1008.41 664.41,1003.8 700.77,948.48 "/>
   <polygon class="fil3 str0" points="886.7,1019.95 845.21,981.51 883.11,941.43 723.62,903.26 773.85,1059.37 813.34,1017.72 854.84,1056.16 "/>
   <path class="fil2" d="M969.83 500.81c34.16,0 65.09,13.85 87.48,36.24 22.39,22.39 36.23,53.32 36.23,87.48 0,34.16 -13.85,65.1 -36.23,87.48 -22.39,22.38 -53.32,36.23 -87.48,36.23 -34.16,0 -65.1,-13.85 -87.48,-36.23 -22.39,-22.39 -36.23,-53.32 -36.23,-87.48 0,-34.16 13.85,-65.09 36.23,-87.48 22.39,-22.39 53.32,-36.24 87.48,-36.24zm81.52 42.19c-20.86,-20.86 -49.68,-33.76 -81.52,-33.76 -31.84,0 -60.66,12.9 -81.52,33.76 -20.86,20.86 -33.76,49.69 -33.76,81.52 0,31.84 12.9,60.66 33.76,81.52 20.86,20.86 49.69,33.76 81.52,33.76 31.84,0 60.66,-12.91 81.52,-33.76 20.86,-20.86 33.76,-49.69 33.76,-81.52 0,-31.84 -12.9,-60.66 -33.76,-81.52z"/>
   <polygon class="fil2" points="898.93,617.23 949.35,671.51 1032.29,567.22 1038.88,572.45 949.85,684.4 892.78,622.96 "/>
   <polyline class="fil1 str0" points="341.04,304.59 405.53,304.59 468.76,572.05 "/>
   <path class="fil1 str0" d="M416.2 344.4l337.08 0 -48.69 227.64 -271.56 0c-41.73,0 -37.62,65.6 0,65.6l267.29 0"/>
   <line class="fil1 str0" x1="434.54" y1="427.32" x2="735.51" y2= "427.32" />
   <line class="fil1 str0" x1="450.92" y1="496.58" x2="721.25" y2= "496.58" />
   <line class="fil1 str0" x1="651.32" y1="572.05" x2="671.87" y2= "344.4" />
   <line class="fil1 str0" x1="588.41" y1="344.4" x2="588.41" y2= "572.05" />
   <line class="fil1 str0" x1="501.79" y1="344.4" x2="531.51" y2= "572.05" />
   <circle class="fil1 str0" cx="481.98" cy="679.99" r="27.94"/>
   <circle class="fil1 str0" cx="630.77" cy="679.99" r="27.94"/>
  </g>
 </g>
</svg>
