<svg width="93" height="76" viewBox="0 0 93 76" fill="none" xmlns="http://www.w3.org/2000/svg">
<path d="M43.3979 0.425537C43.674 0.425537 43.8979 0.649395 43.8979 0.925537V4.11286C43.8979 4.38901 43.674 4.61286 43.3979 4.61286C43.1218 4.61286 42.8979 4.38901 42.8979 4.11286V0.925537C42.8979 0.649395 43.1218 0.425537 43.3979 0.425537Z" fill="#101010"/>
<path d="M39.0702 5.70654C39.0702 5.43039 39.294 5.20654 39.5702 5.20654H41.8668C42.143 5.20654 42.3668 5.43039 42.3668 5.70654C42.3668 5.98268 42.143 6.20654 41.8668 6.20654H39.5702C39.294 6.20654 39.0702 5.98268 39.0702 5.70654Z" fill="#101010"/>
<path d="M44.429 5.70654C44.429 5.43039 44.6529 5.20654 44.929 5.20654H47.2256C47.5018 5.20654 47.7256 5.43039 47.7256 5.70654C47.7256 5.98268 47.5018 6.20654 47.2256 6.20654H44.929C44.6529 6.20654 44.429 5.98268 44.429 5.70654Z" fill="#101010"/>
<path d="M43.3979 6.80029C43.674 6.80029 43.8979 7.02415 43.8979 7.30029V10.4876C43.8979 10.7638 43.674 10.9876 43.3979 10.9876C43.1218 10.9876 42.8979 10.7638 42.8979 10.4876V7.30029C42.8979 7.02415 43.1218 6.80029 43.3979 6.80029Z" fill="#101010"/>
<path fill-rule="evenodd" clip-rule="evenodd" d="M30.1081 1.17871C30.1081 0.902569 29.8843 0.678711 29.6081 0.678711C29.332 0.678711 29.1081 0.90342 29.1081 1.17956V2.86234C27.1572 2.05402 25.1205 2.68672 23.3404 3.23971L23.2527 3.26695C22.1984 3.59425 21.2295 3.8921 20.3146 3.9579C19.4219 4.0221 18.6118 3.86205 17.862 3.28704C17.7109 3.17121 17.5072 3.15119 17.3365 3.23541C17.1658 3.31962 17.0577 3.49346 17.0577 3.68381V11.0379C17.0577 11.2492 17.1906 11.4378 17.3896 11.5088C18.0001 11.7267 19.0411 11.9785 20.2321 12.0521C21.4221 12.1256 22.7993 12.0236 24.0582 11.4995C25.4666 10.9131 26.6688 10.6918 27.571 10.7194C28.3842 10.7443 28.8721 10.9644 29.1081 11.2113V13.5054H27.4939C21.0602 13.5054 12.8051 19.0459 12.8051 28.4235V55.9482C12.8051 57.8816 14.3724 59.4467 16.3051 59.4467H39.508V71.9684C39.508 73.9599 41.1224 75.5743 43.114 75.5743C45.1055 75.5743 46.7199 73.9599 46.7199 71.9684V59.4467H72.1227C74.0557 59.4467 75.6227 57.8797 75.6227 55.9467V53.3993H88.3592C88.369 53.3996 88.3788 53.3996 88.3886 53.3993H88.75C90.1307 53.3993 91.25 52.28 91.25 50.8993V36.6713C91.25 35.2906 90.1307 34.1713 88.75 34.1713H75.6227V27.1964L75.6226 27.1906C75.5961 24.9054 74.8313 21.4956 72.6143 18.6451C70.3798 15.7718 66.698 13.5054 60.9337 13.5054H30.1081V1.17871ZM61.3046 53.3993H74.6227V55.9467C74.6227 57.3274 73.5034 58.4467 72.1227 58.4467H49.0855V27.1964C49.0855 21.2242 53.276 15.2555 60.9578 14.5054C66.4078 14.5116 69.788 16.6398 71.825 19.259C73.8818 21.9036 74.5976 25.0878 74.6227 27.1996V34.1713H61.3046C59.9239 34.1713 58.8046 35.2906 58.8046 36.6713V50.8993C58.8046 52.28 59.9239 53.3993 61.3046 53.3993ZM88.75 52.3993H88.6124L80.8988 42.8409L90.1016 36.02C90.1967 36.217 90.25 36.4379 90.25 36.6713V50.8993C90.25 51.7278 89.5784 52.3993 88.75 52.3993ZM88.75 35.1713C88.9752 35.1713 89.1888 35.2209 89.3804 35.3098L78.9048 43.074C76.6103 44.7747 73.4744 44.7783 71.1759 43.0829L60.6522 35.3202C60.8495 35.2248 61.0708 35.1713 61.3046 35.1713H88.75ZM59.8046 36.6713C59.8046 36.4458 59.8543 36.2319 59.9435 36.04L69.4918 43.0832L61.6067 52.3952L61.6033 52.3993H61.3046C60.4761 52.3993 59.8046 51.7278 59.8046 50.8993V36.6713ZM70.2984 43.6782L62.9136 52.3993H87.3274L80.0948 43.4368L79.5003 43.8774C76.8527 45.8397 73.2344 45.8439 70.5823 43.8876L70.2984 43.6782ZM23.5492 4.22199C25.5859 3.58971 27.4174 3.04675 29.1081 3.96943V10.0259C28.6768 9.8356 28.1593 9.73691 27.6015 9.71985C26.5223 9.68684 25.1769 9.95044 23.6738 10.5763C22.6034 11.0219 21.3926 11.1219 20.2938 11.054C19.3993 10.9988 18.6039 10.8338 18.0577 10.6739V4.57108C18.8115 4.92274 19.598 5.01201 20.3863 4.95532C21.4285 4.88037 22.5021 4.54706 23.5223 4.23033L23.5492 4.22199ZM27.4939 14.5054H29.1081V24.5953C27.8394 24.7831 26.866 25.8761 26.866 27.1963C26.866 28.6485 28.0439 29.8258 29.497 29.8258C30.9502 29.8258 32.1281 28.6485 32.1281 27.1963C32.1281 25.9543 31.2666 24.9134 30.1081 24.638V14.5054H56.659C51.0927 16.7072 48.0855 21.9529 48.0855 27.1964V58.4467H16.3051C14.924 58.4467 13.8051 57.3286 13.8051 55.9482V28.4235C13.8051 19.7019 21.5027 14.5054 27.4939 14.5054ZM40.508 71.9684V59.4467H45.7199V71.9684C45.7199 73.4076 44.5532 74.5743 43.114 74.5743C41.6747 74.5743 40.508 73.4076 40.508 71.9684ZM31.1281 27.1963C31.1281 28.0957 30.3984 28.8258 29.497 28.8258C28.5957 28.8258 27.866 28.0957 27.866 27.1963C27.866 26.2968 28.5957 25.5667 29.497 25.5667C30.3984 25.5667 31.1281 26.2968 31.1281 27.1963Z" fill="#101010"/>
<path fill-rule="evenodd" clip-rule="evenodd" d="M62.5362 5.70712C63.593 5.70712 64.4497 4.85091 64.4497 3.79472C64.4497 2.73853 63.593 1.88232 62.5362 1.88232C61.4794 1.88232 60.6227 2.73853 60.6227 3.79472C60.6227 4.85091 61.4794 5.70712 62.5362 5.70712ZM62.5362 4.70712C63.0413 4.70712 63.4497 4.29807 63.4497 3.79472C63.4497 3.29137 63.0413 2.88232 62.5362 2.88232C62.0311 2.88232 61.6227 3.29137 61.6227 3.79472C61.6227 4.29807 62.0311 4.70712 62.5362 4.70712Z" fill="#101010"/>
<path fill-rule="evenodd" clip-rule="evenodd" d="M81.6744 65.9471C81.6744 67.0033 80.8177 67.8595 79.7609 67.8595C78.7041 67.8595 77.8474 67.0033 77.8474 65.9471C77.8474 64.8909 78.7041 64.0347 79.7609 64.0347C80.8177 64.0347 81.6744 64.8909 81.6744 65.9471ZM80.6744 65.9471C80.6744 66.4504 80.266 66.8595 79.7609 66.8595C79.2559 66.8595 78.8474 66.4504 78.8474 65.9471C78.8474 65.4437 79.2559 65.0347 79.7609 65.0347C80.266 65.0347 80.6744 65.4437 80.6744 65.9471Z" fill="#101010"/>
<path fill-rule="evenodd" clip-rule="evenodd" d="M20.4313 68.8158C21.4881 68.8158 22.3448 67.9595 22.3448 66.9034C22.3448 65.8472 21.4881 64.991 20.4313 64.991C19.3745 64.991 18.5178 65.8472 18.5178 66.9034C18.5178 67.9595 19.3745 68.8158 20.4313 68.8158ZM20.4313 67.8158C20.9364 67.8158 21.3448 67.4067 21.3448 66.9034C21.3448 66.4 20.9364 65.991 20.4313 65.991C19.9263 65.991 19.5178 66.4 19.5178 66.9034C19.5178 67.4067 19.9263 67.8158 20.4313 67.8158Z" fill="#101010"/>
<path fill-rule="evenodd" clip-rule="evenodd" d="M86.459 29.6116C86.459 30.6678 85.6023 31.524 84.5455 31.524C83.4887 31.524 82.632 30.6678 82.632 29.6116C82.632 28.5554 83.4887 27.6992 84.5455 27.6992C85.6023 27.6992 86.459 28.5554 86.459 29.6116ZM85.459 29.6116C85.459 30.1149 85.0505 30.524 84.5455 30.524C84.0404 30.524 83.632 30.1149 83.632 29.6116C83.632 29.1082 84.0404 28.6992 84.5455 28.6992C85.0505 28.6992 85.459 29.1082 85.459 29.6116Z" fill="#101010"/>
<path fill-rule="evenodd" clip-rule="evenodd" d="M84.5455 14.3125C83.5155 14.3125 82.7054 15.1929 82.791 16.2194L83.5093 24.8335C83.5542 25.3724 84.0047 25.7869 84.5455 25.7869C85.0863 25.7869 85.5368 25.3724 85.5818 24.8335L86.3 16.2194C86.3856 15.1929 85.5756 14.3125 84.5455 14.3125ZM84.5852 24.7504L85.3035 16.1363C85.3405 15.6929 84.9905 15.3125 84.5455 15.3125C84.1005 15.3125 83.7506 15.6929 83.7875 16.1363L84.5058 24.7504C84.5075 24.771 84.5248 24.7869 84.5455 24.7869C84.5662 24.7869 84.5835 24.771 84.5852 24.7504Z" fill="#101010"/>
<path d="M62.0795 64.0347C62.0795 63.7585 61.8557 63.5347 61.5795 63.5347C61.3034 63.5347 61.0795 63.7585 61.0795 64.0347V67.222C61.0795 67.4981 61.3034 67.722 61.5795 67.722C61.8557 67.722 62.0795 67.4981 62.0795 67.222V64.0347Z" fill="#101010"/>
<path d="M57.7518 68.3157C57.4757 68.3157 57.2518 68.5395 57.2518 68.8157C57.2518 69.0918 57.4757 69.3157 57.7518 69.3157H60.0485C60.3246 69.3157 60.5485 69.0918 60.5485 68.8157C60.5485 68.5395 60.3246 68.3157 60.0485 68.3157H57.7518Z" fill="#101010"/>
<path d="M63.1106 68.3157C62.8345 68.3157 62.6106 68.5395 62.6106 68.8157C62.6106 69.0918 62.8345 69.3157 63.1106 69.3157H65.4073C65.6834 69.3157 65.9073 69.0918 65.9073 68.8157C65.9073 68.5395 65.6834 68.3157 65.4073 68.3157H63.1106Z" fill="#101010"/>
<path d="M62.0795 70.4092C62.0795 70.1331 61.8557 69.9092 61.5795 69.9092C61.3034 69.9092 61.0795 70.1331 61.0795 70.4092V73.5966C61.0795 73.8727 61.3034 74.0966 61.5795 74.0966C61.8557 74.0966 62.0795 73.8727 62.0795 73.5966V70.4092Z" fill="#101010"/>
<path d="M5.62079 51.604C5.62079 51.3278 5.39693 51.104 5.12079 51.104C4.84465 51.104 4.62079 51.3278 4.62079 51.604V53.5164C4.62079 53.7925 4.84465 54.0164 5.12079 54.0164C5.39693 54.0164 5.62079 53.7925 5.62079 53.5164V51.604Z" fill="#101010"/>
<path d="M2.25 54.9287C1.97386 54.9287 1.75 55.1525 1.75 55.4287C1.75 55.7048 1.97386 55.9287 2.25 55.9287H3.39832C3.67446 55.9287 3.89831 55.7048 3.89831 55.4287C3.89831 55.1525 3.67446 54.9287 3.39832 54.9287H2.25Z" fill="#101010"/>
<path d="M6.84326 54.9287C6.56712 54.9287 6.34326 55.1525 6.34326 55.4287C6.34326 55.7048 6.56712 55.9287 6.84326 55.9287H7.99157C8.26772 55.9287 8.49157 55.7048 8.49157 55.4287C8.49157 55.1525 8.26772 54.9287 7.99157 54.9287H6.84326Z" fill="#101010"/>
<path d="M5.62079 57.3413C5.62079 57.0651 5.39693 56.8413 5.12079 56.8413C4.84465 56.8413 4.62079 57.0651 4.62079 57.3413V59.2537C4.62079 59.5298 4.84465 59.7537 5.12079 59.7537C5.39693 59.7537 5.62079 59.5298 5.62079 59.2537V57.3413Z" fill="#101010"/>
</svg>
