<svg width="100" height="95" viewBox="0 0 100 95" fill="none" xmlns="http://www.w3.org/2000/svg">
<path d="M37.1268 6.9898C37.2056 7.06923 37.3633 7.14866 37.5209 7.14866C37.6786 7.14866 37.8362 7.06923 37.9151 6.9898C38.1516 6.7515 38.1516 6.35435 37.9151 6.11605L36.4962 4.68629C36.2597 4.44799 35.8656 4.44799 35.6291 4.68629C35.3927 4.92458 35.3927 5.32174 35.6291 5.56003L37.1268 6.9898Z" fill="black"/>
<path d="M41.6199 11.5176C41.6987 11.5971 41.8563 11.6765 42.014 11.6765C42.1716 11.6765 42.3293 11.5971 42.4081 11.5176C42.6446 11.2793 42.6446 10.8822 42.4081 10.6439L40.9893 9.21412C40.7528 8.97583 40.3587 8.97583 40.1222 9.21412C39.8857 9.45241 39.8857 9.84957 40.1222 10.0879L41.6199 11.5176Z" fill="black"/>
<path d="M36.1808 11.6765C36.3385 11.6765 36.4961 11.5971 36.575 11.5176L37.9938 10.0879C38.2303 9.84957 38.2303 9.45241 37.9938 9.21412C37.7573 8.97583 37.3632 8.97583 37.1267 9.21412L35.7079 10.6439C35.4714 10.8822 35.4714 11.2793 35.7079 11.5176C35.8655 11.5971 36.0232 11.6765 36.1808 11.6765Z" fill="black"/>
<path d="M40.6739 7.14866C40.8315 7.14866 40.9892 7.06923 41.068 6.9898L42.4869 5.56003C42.7233 5.32174 42.7233 4.92458 42.4869 4.68629C42.2504 4.44799 41.8562 4.44799 41.6198 4.68629L40.2009 6.11605C39.9644 6.35435 39.9644 6.7515 40.2009 6.9898C40.3586 7.06923 40.5162 7.14866 40.6739 7.14866Z" fill="black"/>
<path d="M60.0649 84.5942C59.8285 84.356 59.4343 84.356 59.1979 84.5942C58.9614 84.8325 58.9614 85.2297 59.1979 85.468L60.6167 86.8978C60.6956 86.9772 60.8532 87.0566 61.0109 87.0566C61.1685 87.0566 61.3262 86.9772 61.405 86.8978C61.6415 86.6595 61.6415 86.2623 61.405 86.024L60.0649 84.5942Z" fill="black"/>
<path d="M64.558 89.1223C64.3215 88.884 63.9274 88.884 63.6909 89.1223C63.4544 89.3606 63.4544 89.7578 63.6909 89.9961L65.1098 91.4258C65.1886 91.5053 65.3462 91.5847 65.5039 91.5847C65.6615 91.5847 65.8192 91.5053 65.898 91.4258C66.1345 91.1875 66.1345 90.7904 65.898 90.5521L64.558 89.1223Z" fill="black"/>
<path d="M60.6167 89.1223L59.1979 90.5521C58.9614 90.7904 58.9614 91.1875 59.1979 91.4258C59.2767 91.5053 59.4343 91.5847 59.592 91.5847C59.7496 91.5847 59.9073 91.5053 59.9861 91.4258L61.405 89.9961C61.6415 89.7578 61.6415 89.3606 61.405 89.1223C61.2473 88.884 60.8532 88.884 60.6167 89.1223Z" fill="black"/>
<path d="M65.1098 84.5942L63.6909 86.024C63.4544 86.2623 63.4544 86.6595 63.6909 86.8978C63.7697 86.9772 63.9274 87.0566 64.085 87.0566C64.2427 87.0566 64.4003 86.9772 64.4792 86.8978L65.898 85.468C66.1345 85.2297 66.1345 84.8325 65.898 84.5942C65.7404 84.356 65.3462 84.356 65.1098 84.5942Z" fill="black"/>
<path d="M59.0402 10.4059C60.5379 10.4059 61.7991 9.13499 61.7991 7.6258C61.7991 6.1166 60.5379 4.8457 59.0402 4.8457C57.5425 4.8457 56.2813 6.1166 56.2813 7.6258C56.2025 9.13499 57.4637 10.4059 59.0402 10.4059ZM59.0402 6.03717C59.9073 6.03717 60.6167 6.75205 60.6167 7.6258C60.6167 8.49954 59.9073 9.21443 59.0402 9.21443C58.1731 9.21443 57.4637 8.49954 57.4637 7.6258C57.4637 6.75205 58.1731 6.03717 59.0402 6.03717Z" fill="black"/>
<path d="M84.8161 82.9263C83.3185 82.9263 82.0573 84.1972 82.0573 85.7064C82.0573 87.2156 83.3185 88.4865 84.8161 88.4865C86.3138 88.4865 87.575 87.2156 87.575 85.7064C87.575 84.1972 86.3138 82.9263 84.8161 82.9263ZM84.8161 87.3744C83.9491 87.3744 83.2396 86.6595 83.2396 85.7858C83.2396 84.9121 83.9491 84.1972 84.8161 84.1972C85.6832 84.1972 86.3926 84.9121 86.3926 85.7858C86.3926 86.6595 85.6832 87.3744 84.8161 87.3744Z" fill="black"/>
<path d="M72.0464 6.11758H81.5843C81.8996 6.11758 82.2149 5.8791 82.2149 5.48164C82.2149 5.08418 81.9784 4.8457 81.5843 4.8457H72.0464C71.7311 4.8457 71.4158 5.08418 71.4158 5.48164C71.4158 5.8791 71.7311 6.11758 72.0464 6.11758Z" fill="black"/>
<path d="M84.8161 6.11758H87.8903C88.2056 6.11758 88.5209 5.8791 88.5209 5.48164C88.5209 5.08418 88.2845 4.8457 87.8903 4.8457H84.8161C84.5008 4.8457 84.1855 5.08418 84.1855 5.48164C84.1855 5.8791 84.422 6.11758 84.8161 6.11758Z" fill="black"/>
<path d="M87.8902 8.26074H81.1901C80.8748 8.26074 80.5594 8.49922 80.5594 8.89668C80.5594 9.29414 80.7959 9.53262 81.1901 9.53262H87.8902C88.2055 9.53262 88.5208 9.29414 88.5208 8.89668C88.5208 8.49922 88.2055 8.26074 87.8902 8.26074Z" fill="black"/>
<path d="M76.2242 8.26074C75.9089 8.26074 75.5936 8.49922 75.5936 8.89668C75.5936 9.29414 75.8301 9.53262 76.2242 9.53262H78.3525C78.6678 9.53262 78.9831 9.29414 78.9831 8.89668C78.9831 8.49922 78.7466 8.26074 78.3525 8.26074H76.2242Z" fill="black"/>
<path d="M19.3911 88.4863H9.7744C9.4591 88.4863 9.1438 88.7248 9.1438 89.1223C9.1438 89.4402 9.38027 89.7582 9.7744 89.7582H19.3123C19.6276 89.7582 19.9429 89.5197 19.9429 89.1223C19.9429 88.7248 19.7064 88.4863 19.3911 88.4863Z" fill="black"/>
<path d="M6.6213 88.4863H3.54711C3.23181 88.4863 2.9165 88.7248 2.9165 89.1223C2.9165 89.4402 3.15298 89.7582 3.54711 89.7582H6.6213C6.9366 89.7582 7.2519 89.5197 7.2519 89.1223C7.2519 88.7248 6.9366 88.4863 6.6213 88.4863Z" fill="black"/>
<path d="M3.54711 86.3429H10.2473C10.5626 86.3429 10.8779 86.1044 10.8779 85.707C10.8779 85.389 10.6414 85.071 10.2473 85.071H3.54711C3.23181 85.071 2.9165 85.3095 2.9165 85.707C2.9165 86.1044 3.23181 86.3429 3.54711 86.3429Z" fill="black"/>
<path d="M15.2134 86.3429C15.5287 86.3429 15.844 86.1044 15.844 85.707C15.844 85.389 15.6075 85.071 15.2134 85.071H13.0851C12.7698 85.071 12.4545 85.3095 12.4545 85.707C12.4545 86.0249 12.6909 86.3429 13.0851 86.3429H15.2134Z" fill="black"/>
<path d="M91.2009 33.2025C91.5162 33.2025 91.8315 32.9642 91.8315 32.5671V23.5119C91.8315 23.1942 91.595 22.8765 91.2009 22.8765C90.8856 22.8765 90.5703 23.1148 90.5703 23.5119V32.5671C90.5703 32.9642 90.8068 33.2025 91.2009 33.2025Z" fill="black"/>
<path d="M91.2009 39.1598C91.5162 39.1598 91.8315 38.9215 91.8315 38.5244V35.5854C91.8315 35.2677 91.595 34.95 91.2009 34.95C90.8856 34.95 90.5703 35.1882 90.5703 35.5854V38.5244C90.5703 38.8421 90.8068 39.1598 91.2009 39.1598Z" fill="black"/>
<path d="M99.4777 42.6546H99.1624H59.8285H59.5132C59.1979 42.6546 58.8826 42.8929 58.8826 43.2901V66.1663C58.8826 66.484 59.1191 66.8017 59.5132 66.8017H78.9042V73.3151H46.3493V33.7583C46.3493 24.7031 53.6801 17.3955 62.5874 17.3955C71.5735 17.3955 78.8254 24.7826 78.8254 33.7583C78.8254 34.076 79.0619 34.3938 79.456 34.3938C79.7713 34.3938 80.0866 34.1555 80.0866 33.7583C80.0866 24.0677 72.2829 16.204 62.6662 16.204H21.9923V12.709V3.49498V0.635451C21.9923 0.317725 21.7558 0 21.3617 0C21.0464 0 20.7311 0.238294 20.7311 0.635451V2.5418C18.2875 1.5092 15.8439 2.22408 13.4791 2.93896C10.9567 3.73327 8.59197 4.44815 6.30603 3.01839C6.14838 2.85953 5.91191 2.85953 5.67543 3.01839C5.51778 3.09782 5.36013 3.33612 5.36013 3.49498V12.709C5.36013 12.9473 5.43895 13.1062 5.67543 13.1856C6.85781 13.9005 8.04019 14.1388 9.22257 14.1388C10.7991 14.1388 12.2968 13.6622 13.8733 13.1856C16.3169 12.4707 18.524 11.7558 20.8099 12.9473V16.0451H20.0217C8.9861 16.204 0 25.2592 0 36.3795V73.8711C0 74.1888 0.236476 74.5066 0.630603 74.5066H36.7326L35.5503 94.3644C35.5503 94.5233 35.6291 94.6821 35.7079 94.841C35.7867 94.9998 35.9444 94.9998 36.102 94.9998H43.8269C43.9846 94.9998 44.1422 94.9204 44.2211 94.841C44.2999 94.6821 44.3787 94.5233 44.3787 94.3644L43.1963 74.5066H79.2984C79.6137 74.5066 79.929 74.2683 79.929 73.8711V66.8017H99.32C99.6353 66.8017 99.9506 66.5634 99.9506 66.1663V43.2901C100.108 42.9723 99.8718 42.6546 99.4777 42.6546ZM13.4791 12.153C11.0356 12.8679 8.82845 13.5828 6.54251 12.3913V4.52758C8.9861 5.56019 11.4297 4.84531 13.7944 4.13043C16.1592 3.41555 18.4451 2.70066 20.7311 3.89213V11.7558C18.2875 10.6438 15.8439 11.4381 13.4791 12.153ZM1.18238 36.3795C1.18238 25.8946 9.6167 17.3955 20.0217 17.3955H20.8099V29.6279C20.8099 29.7073 20.8099 29.7867 20.8099 29.7867C19.3122 30.025 18.2087 31.3754 18.2087 32.8846C18.2087 34.632 19.6275 36.0618 21.3617 36.0618C23.0958 36.0618 24.5147 34.632 24.5147 32.8846C24.5147 31.2959 23.4111 30.025 21.9135 29.7867C21.9135 29.7073 21.9135 29.6279 21.9135 29.6279V17.3955H56.2813C49.7388 19.9373 45.167 26.3712 45.167 33.7583V73.2357H42.7234H37.3632H1.18238V36.3795ZM21.3617 30.9782C22.4652 30.9782 23.3323 31.852 23.3323 32.964C23.3323 34.076 22.4652 34.9498 21.3617 34.9498C20.2581 34.9498 19.3911 34.076 19.3911 32.964C19.3911 31.852 20.2581 30.9782 21.3617 30.9782ZM43.2752 93.7289H36.8115L37.915 74.4271H42.1716L43.2752 93.7289ZM63.8486 65.5308L73.7806 53.6161L77.0124 55.8402C77.1701 55.9196 77.4066 56.0785 77.5642 56.1579C77.643 56.1579 77.643 56.1579 77.7218 56.2374C77.8795 56.3168 78.0372 56.3168 78.1948 56.3962C78.2736 56.3962 78.2736 56.3962 78.3525 56.3962C78.5101 56.3962 78.6678 56.4757 78.8254 56.4757C78.9042 56.4757 78.9042 56.4757 78.9831 56.4757C79.1407 56.4757 79.2984 56.4757 79.456 56.4757C79.5348 56.4757 79.6137 56.4757 79.6925 56.4757C79.8501 56.4757 80.0078 56.4757 80.0866 56.4757C80.1654 56.4757 80.1654 56.4757 80.2443 56.4757C80.4019 56.4757 80.5596 56.3962 80.7172 56.3962C80.796 56.3962 80.796 56.3962 80.8749 56.3168C81.269 56.2374 81.5843 56.0785 81.9784 55.8402L85.2103 53.6161L95.1423 65.5308H63.8486ZM97.2706 43.8461L81.3478 54.8076C80.2443 55.5225 78.8254 55.5225 77.7218 54.8076L61.7203 43.8461H97.2706ZM60.065 44.1638L72.8347 52.9807L62.3509 65.5308H60.065V44.1638ZM98.9259 65.5308H96.7188L86.1562 52.9013L98.9259 44.1638V65.5308Z" fill="black"/>
</svg>
