<svg width="32" height="32" viewBox="0 0 32 32" fill="none" xmlns="http://www.w3.org/2000/svg">
<path fill-rule="evenodd" clip-rule="evenodd" d="M9.4494 5.68984C7.69915 7.18223 6.5 9.52296 6.5 12.9476C6.5 14.6158 7.08991 16.4905 8.01232 18.3912C8.93163 20.2854 10.1625 22.1676 11.4018 23.8406C12.6399 25.5121 13.8792 26.9651 14.8094 28.0006C15.2743 28.518 15.6613 28.9305 15.9316 29.2131C15.9553 29.2379 15.9781 29.2616 16 29.2844C16.0218 29.2616 16.0446 29.2379 16.0683 29.2131C16.3386 28.9305 16.7257 28.518 17.1905 28.0006C18.1208 26.9651 19.3601 25.5121 20.5982 23.8406C21.8374 22.1676 23.0683 20.2854 23.9876 18.3912C24.91 16.4905 25.4999 14.6158 25.4999 12.9476C25.4999 9.52296 24.3008 7.18223 22.5505 5.68984C20.7871 4.18624 18.4121 3.5 16 3.5C13.5878 3.5 11.2128 4.18624 9.4494 5.68984ZM16 30C15.6474 30.3545 15.6473 30.3544 15.6471 30.3542L15.645 30.3522L15.6391 30.3463L15.6166 30.3237C15.597 30.304 15.5682 30.2749 15.5309 30.2369C15.4562 30.1608 15.3473 30.0489 15.209 29.9043C14.9324 29.6151 14.5382 29.195 14.0655 28.6689C13.1208 27.6172 11.8601 26.1393 10.5982 24.4358C9.33746 22.7338 8.06836 20.797 7.11267 18.8278C6.16009 16.865 5.5 14.832 5.5 12.9476C5.5 9.26708 6.80084 6.63402 8.80058 4.9289C10.7872 3.23499 13.4121 2.5 16 2.5C18.5878 2.5 21.2128 3.23499 23.1993 4.9289C25.1991 6.63402 26.4999 9.26708 26.4999 12.9476C26.4999 14.832 25.8399 16.865 24.8873 18.8278C23.9316 20.797 22.6625 22.7338 21.4017 24.4358C20.1399 26.1393 18.8792 27.6172 17.9344 28.6689C17.4618 29.195 17.0676 29.6151 16.791 29.9043C16.6527 30.0489 16.5437 30.1608 16.469 30.2369C16.4317 30.2749 16.4029 30.304 16.3833 30.3237L16.3608 30.3463L16.3549 30.3522L16.3533 30.3538C16.3532 30.3539 16.3526 30.3545 16 30ZM16 30L15.6471 30.3542C15.8422 30.5483 16.1582 30.5478 16.3533 30.3538L16 30Z" fill="#101010"/>
<path fill-rule="evenodd" clip-rule="evenodd" d="M15.7143 17.3683C18.3229 17.3683 20.4285 15.2661 20.4285 12.6841C20.4285 10.1021 18.3229 8 15.7143 8C13.1057 8 11 10.1021 11 12.6841C11 15.2661 13.1057 17.3683 15.7143 17.3683ZM15.7143 18.3683C18.8702 18.3683 21.4285 15.8234 21.4285 12.6841C21.4285 9.54488 18.8702 7 15.7143 7C12.5584 7 10 9.54488 10 12.6841C10 15.8234 12.5584 18.3683 15.7143 18.3683Z" fill="#101010"/>
</svg>
