<svg width="33" height="20" viewBox="0 0 33 20" fill="none" xmlns="http://www.w3.org/2000/svg">
<path d="M20.7219 2.07568H11.9004V17.3372H20.7219V2.07568Z" fill="#FF5F00"/>
<path d="M12.4607 9.70879C12.459 8.23879 12.8049 6.7877 13.472 5.46541C14.1392 4.14312 15.1101 2.9843 16.3113 2.0767C14.824 0.951488 13.0379 0.251786 11.157 0.057563C9.27618 -0.13666 7.37651 0.182431 5.67513 0.978367C3.97375 1.7743 2.53931 3.01497 1.53575 4.55858C0.532193 6.10218 0 7.88644 0 9.70744C0 11.5284 0.532193 13.3127 1.53575 14.8563C2.53931 16.3999 3.97375 17.6406 5.67513 18.4365C7.37651 19.2325 9.27618 19.5515 11.157 19.3573C13.0379 19.1631 14.824 18.4634 16.3113 17.3382C15.1105 16.4309 14.1398 15.2725 13.4726 13.9507C12.8055 12.6289 12.4595 11.1783 12.4607 9.70879Z" fill="#EB001B"/>
<path d="M32.6243 9.70772C32.6243 11.5288 32.092 13.3132 31.0882 14.8569C30.0845 16.4005 28.6498 17.6412 26.9482 18.437C25.2467 19.2328 23.3468 19.5517 21.4658 19.3572C19.5849 19.1627 17.7987 18.4627 16.3115 17.3371C17.5119 16.429 18.4823 15.2703 19.1496 13.9484C19.8169 12.6265 20.1637 11.1761 20.1637 9.70637C20.1637 8.23668 19.8169 6.78619 19.1496 5.46432C18.4823 4.14246 17.5119 2.98375 16.3115 2.07562C17.7987 0.950061 19.5849 0.250019 21.4658 0.0555171C23.3468 -0.138985 25.2467 0.1799 26.9482 0.975723C28.6498 1.77155 30.0845 3.01219 31.0882 4.55585C32.092 6.09951 32.6243 7.88389 32.6243 9.70502V9.70772Z" fill="#F79E1B"/>
</svg>
