<svg width="56" height="16" viewBox="0 0 56 16" fill="none" xmlns="http://www.w3.org/2000/svg">
<g clip-path="url(#clip0)">
<path d="M39.3451 7.37769V15.2217H44.2513V10.8094H49.189C51.768 10.8094 53.9695 9.38465 54.8186 7.37769H39.3451Z" fill="#006848"/>
<path d="M39.1444 0.378662C39.1602 0.77754 39.2234 1.17642 39.3183 1.54461C39.3341 1.62132 39.3657 1.71337 39.3815 1.79008C39.3973 1.82076 39.3973 1.85144 39.4131 1.89747C40.2983 4.6129 42.9064 6.57661 45.9886 6.57661H55.0932C55.1564 6.26978 55.188 5.96295 55.188 5.64078C55.188 4.10663 54.5083 2.7259 53.4177 1.75939C52.4535 0.900271 51.1732 0.378662 49.7506 0.378662H39.1444V0.378662Z" fill="url(#paint0_linear)"/>
<path d="M30.5352 1.95097L27.072 9.17137H26.7224V0.378662H21.7976V15.2622H25.9758C27.072 15.2622 28.0728 14.6515 28.5335 13.6898L31.9968 6.46944H32.3463V15.2622H37.2711V0.378662H33.093C31.9968 0.378662 30.9959 0.989267 30.5352 1.95097Z" fill="#006848"/>
<path d="M7.69468 2.34316L9.74215 9.2189H10.0886L12.1204 2.34316C12.4669 1.17674 13.5536 0.378662 14.7978 0.378662H19.6803V15.3426H14.7978V6.50237H14.4513L11.6479 15.3426H8.16717L5.3637 6.50237H5.01721V15.3426H0.134766V0.378662H5.01721C6.26144 0.378662 7.34818 1.17674 7.69468 2.34316Z" fill="#006848"/>
</g>
<defs>
<linearGradient id="paint0_linear" x1="39.1417" y1="3.47952" x2="55.1832" y2="3.47952" gradientUnits="userSpaceOnUse">
<stop stop-color="#02AFFF"/>
<stop offset="1" stop-color="#1F5BDE"/>
</linearGradient>
<clipPath id="clip0">
<rect width="55.0532" height="14.9958" fill="white" transform="translate(0.134766 0.378662)"/>
</clipPath>
</defs>
</svg>
