<?xml version="1.0" encoding="UTF-8" standalone="no"?>
<svg
   xmlns:dc="http://purl.org/dc/elements/1.1/"
   xmlns:cc="http://creativecommons.org/ns#"
   xmlns:rdf="http://www.w3.org/1999/02/22-rdf-syntax-ns#"
   xmlns:svg="http://www.w3.org/2000/svg"
   xmlns="http://www.w3.org/2000/svg"
   xmlns:sodipodi="http://sodipodi.sourceforge.net/DTD/sodipodi-0.dtd"
   xmlns:inkscape="http://www.inkscape.org/namespaces/inkscape"
   width="55"
   height="15"
   viewBox="0 0 55 15"
   fill="none"
   version="1.1"
   id="svg17"
   sodipodi:docname="mir.svg"
   inkscape:version="0.92.4 (5da689c313, 2019-01-14)">
  <metadata
     id="metadata21">
    <rdf:RDF>
      <cc:Work
         rdf:about="">
        <dc:format>image/svg+xml</dc:format>
        <dc:type
           rdf:resource="http://purl.org/dc/dcmitype/StillImage" />
      </cc:Work>
    </rdf:RDF>
  </metadata>
  <sodipodi:namedview
     pagecolor="#ffffff"
     bordercolor="#666666"
     borderopacity="1"
     objecttolerance="10"
     gridtolerance="10"
     guidetolerance="10"
     inkscape:pageopacity="0"
     inkscape:pageshadow="2"
     inkscape:window-width="1149"
     inkscape:window-height="735"
     id="namedview19"
     showgrid="false"
     inkscape:zoom="6.9090909"
     inkscape:cx="9.4802632"
     inkscape:cy="7.5"
     inkscape:window-x="0"
     inkscape:window-y="0"
     inkscape:window-maximized="0"
     inkscape:current-layer="svg17" />
  <path
     d="M39.21 6.99902V14.843H44.1162V10.4308H49.0539C51.6328 10.4308 53.8343 9.00598 54.6835 6.99902H39.21Z"
     fill="#006848"
     id="path2" />
  <path
     d="M39.0098 0C39.0256 0.398878 39.0888 0.797755 39.1836 1.16595C39.1994 1.24266 39.2311 1.33471 39.2469 1.41141C39.2627 1.4421 39.2627 1.47278 39.2785 1.5188C40.1636 4.23424 42.7717 6.19795 45.854 6.19795H54.9585C55.0218 5.89112 55.0534 5.58429 55.0534 5.26212C55.0534 3.72797 54.3737 2.34724 53.2831 1.38073C52.3189 0.521609 51.0385 0 49.6159 0H39.0098V0Z"
     fill="url(#paint0_linear)"
     id="path4"
     style="fill:#02afff;fill-opacity:1" />
  <path
     d="M30.4007 1.57231L26.9374 8.79271H26.5879V0H21.6631V14.8835H25.8413C26.9374 14.8835 27.9383 14.2729 28.399 13.3112L31.8623 6.09078H32.2118V14.8835H37.1366V0H32.9585C31.8623 0 30.8614 0.610605 30.4007 1.57231Z"
     fill="#006848"
     id="path6" />
  <path
     d="M7.55991 1.9645L9.60739 8.84024H9.95388L11.9856 1.9645C12.3321 0.798077 13.4188 0 14.6631 0H19.5455V14.9639H14.6631V6.12371H14.3166L11.5131 14.9639H8.0324L5.22894 6.12371H4.88244V14.9639H0V0H4.88244C6.12668 0 7.21341 0.798077 7.55991 1.9645Z"
     fill="#006848"
     id="path8" />
  <defs
     id="defs15">
    <linearGradient
       id="paint0_linear"
       x1="39.007"
       y1="3.10086"
       x2="55.0485"
       y2="3.10086"
       gradientUnits="userSpaceOnUse">
      <stop
         stop-color="#02AFFF"
         id="stop10" />
      <stop
         offset="1"
         stop-color="#1F5BDE"
         id="stop12" />
    </linearGradient>
  </defs>
</svg>
