<svg width="56" height="15" viewBox="0 0 56 15" fill="none" xmlns="http://www.w3.org/2000/svg">
<g clip-path="url(#clip0)">
<path d="M39.2214 7.00099V14.8472H44.129V10.4337H49.0681C51.6478 10.4337 53.8499 9.00852 54.6993 7.00099H39.2214Z" fill="#006848"/>
<path d="M39.0206 0C39.0364 0.39899 39.0996 0.79798 39.1945 1.16628C39.2103 1.24301 39.2419 1.33508 39.2577 1.41181C39.2735 1.4425 39.2735 1.47319 39.2893 1.51923C40.1748 4.23543 42.7836 6.19969 45.8667 6.19969H54.9738C55.0371 5.89277 55.0687 5.58586 55.0687 5.2636C55.0687 3.72902 54.3888 2.3479 53.2979 1.38112C52.3334 0.521756 51.0527 0 49.6297 0H39.0206V0Z" fill="url(#paint0_linear)"/>
<path d="M30.4091 1.57275L26.9448 8.79518H26.5952V0H21.669V14.8877H25.8483C26.9448 14.8877 27.946 14.2769 28.4068 13.3149L31.8711 6.0925H32.2207V14.8877H37.1469V0H32.9675C31.8711 0 30.8699 0.610776 30.4091 1.57275Z" fill="#006848"/>
<path d="M7.56204 1.96505L9.61009 8.84272H9.95668L11.989 1.96505C12.3356 0.798301 13.4226 0 14.6672 0H19.551V14.9682H14.6672V6.12543H14.3206L11.5164 14.9682H8.03466L5.23041 6.12543H4.88381V14.9682H0V0H4.88381C6.1284 0 7.21544 0.798301 7.56204 1.96505Z" fill="#006848"/>
</g>
<defs>
<linearGradient id="paint0_linear" x1="39.0178" y1="3.10173" x2="55.0638" y2="3.10173" gradientUnits="userSpaceOnUse">
<stop stop-color="#02AFFF"/>
<stop offset="1" stop-color="#1F5BDE"/>
</linearGradient>
<clipPath id="clip0">
<rect width="55.0532" height="14.9958" fill="white" transform="scale(1.00028)"/>
</clipPath>
</defs>
</svg>
