<svg width="92" height="92" viewBox="0 0 92 92" fill="none" xmlns="http://www.w3.org/2000/svg">
<path fill-rule="evenodd" clip-rule="evenodd" d="M41.4046 26.897C41.4046 26.6208 41.6285 26.397 41.9046 26.397H46.547C47.3391 26.397 48.4896 26.6746 49.454 27.3793C50.4403 28.0999 51.2266 29.2666 51.2266 30.9884C51.2266 32.6917 50.5109 33.8767 49.6164 34.6269C48.7427 35.3596 47.6963 35.6799 46.9906 35.6799H42.4046V36.512H46.9906C47.2668 36.512 47.4906 36.7358 47.4906 37.012C47.4906 37.2881 47.2668 37.512 46.9906 37.512H42.4046V40.659C42.4046 40.9352 42.1807 41.159 41.9046 41.159C41.6285 41.159 41.4046 40.9352 41.4046 40.659V37.512H40.7178C40.4417 37.512 40.2178 37.2881 40.2178 37.012C40.2178 36.7358 40.4417 36.512 40.7178 36.512H41.4046V35.6799H40.7181C40.4419 35.6799 40.2178 35.456 40.2178 35.1799C40.2178 34.9038 40.4417 34.6799 40.7179 34.6799H41.4046V26.897ZM42.4046 34.6799H46.9906C47.4489 34.6799 48.2704 34.4506 48.9738 33.8607C49.6563 33.2883 50.2266 32.3775 50.2266 30.9884C50.2266 29.6177 49.6195 28.7387 48.8641 28.1867C48.0868 27.6188 47.1476 27.397 46.547 27.397H42.4046V34.6799Z" fill="#101010"/>
<path fill-rule="evenodd" clip-rule="evenodd" d="M10.7778 15.0001C10.7778 12.5148 12.7925 10.5001 15.2778 10.5001H60.6111C63.0964 10.5001 65.1111 12.5148 65.1111 15.0001V18.2778H68.3889C70.8742 18.2778 72.8889 20.2926 72.8889 22.7778V27.5001L80.0826 37.0917C80.8288 38.0867 81.13 39.3461 80.9146 40.571L76.7324 64.3548C76.657 64.7836 76.6191 65.2183 76.6191 65.6537V71.0001H78.1667C79.2713 71.0001 80.1667 71.8956 80.1667 73.0001V79.0001C80.1667 80.1047 79.2713 81.0001 78.1667 81.0001H46.6111C45.5065 81.0001 44.6111 80.1047 44.6111 79.0001V73.0001C44.6111 71.8956 45.5065 71.0001 46.6111 71.0001L48.5556 71.0001L48.5556 67.3799C48.5556 67.1794 48.5593 66.9792 48.5667 66.7794L41.2285 74.1176C39.4712 75.8749 36.6219 75.8749 34.8646 74.1176L19.3222 58.5752C17.5587 56.8117 17.5657 53.9503 19.3379 52.1956L22.3414 49.2215C20.1955 48.8793 18.5555 47.0201 18.5555 44.7779V41.5001H15.2778C12.7925 41.5001 10.7778 39.4854 10.7778 37.0001V15.0001ZM23.7057 49.2779L20.0415 52.9062C18.6631 54.271 18.6577 56.4965 20.0293 57.8681L35.5717 73.4105C36.9385 74.7773 39.1546 74.7773 40.5214 73.4105L48.6981 65.2338C49.0741 62.4147 50.1865 59.7304 51.9403 57.4595L52.4149 56.845L49.4256 59.8334C46.4706 62.7875 43.4723 65.785 42.8323 66.4249C42.6371 66.6201 42.3205 66.6201 42.1252 66.4249C40.1065 64.4062 37.4974 64.6888 36.097 66.0892C35.9017 66.2845 35.5851 66.2845 35.3899 66.0892L28.3188 59.0181C28.1235 58.8229 28.1235 58.5063 28.3188 58.311C29.425 57.2048 29.8235 55.9981 29.768 54.8847C29.7119 53.7599 29.1899 52.6896 28.3831 51.8828C28.2885 51.7882 28.2358 51.6598 28.2366 51.5261C28.2375 51.3924 28.2918 51.2646 28.3875 51.1713C29.2209 50.3584 29.9171 49.7243 30.4241 49.2779H23.7057ZM31.9674 49.2782L31.965 49.28L31.9561 49.2872L31.9189 49.3173C31.8856 49.3444 31.8354 49.3856 31.7694 49.4406C31.6374 49.5505 31.442 49.7159 31.1912 49.9352C30.7573 50.3145 30.1579 50.8552 29.4341 51.55C30.2031 52.4615 30.7056 53.6085 30.7667 54.835C30.8306 56.1159 30.4108 57.45 29.3672 58.6523L35.7625 65.0476C37.5126 63.639 40.2736 63.4879 42.4658 65.3772L55.0519 52.7947L55.0561 52.7905C55.096 52.5772 55.1164 52.3596 55.1164 52.1403V49.2779L31.9674 49.2782ZM64.1111 19.3335V19.2778H23.0555C21.1225 19.2778 19.5555 20.8448 19.5555 22.7778V40.5001H19.6111V41.5001H19.5555V44.7779C19.5555 46.7109 21.1225 48.2779 23.0555 48.2779H55.1164V44.8335H29.6919C29.4158 44.8335 29.1919 44.6097 29.1919 44.3335C29.1919 41.2791 27.1222 39.5558 25.1666 39.5558C24.8905 39.5558 24.6666 39.3319 24.6666 39.0558V28.5002C24.6666 28.2241 24.8905 28.0002 25.1666 28.0002C26.7215 28.0002 27.8542 27.4014 28.6053 26.5254C29.3653 25.639 29.7576 24.4401 29.7576 23.2224C29.7576 22.9463 29.9814 22.7224 30.2576 22.7224H61.5409C61.8171 22.7224 62.0409 22.9463 62.0409 23.2224C62.0409 24.4583 62.4094 25.6712 63.117 26.5639C63.8143 27.4437 64.8558 28.0345 66.2778 28.0345C66.5539 28.0345 66.7778 28.2584 66.7778 28.5345V39.1587C66.7778 39.4349 66.5539 39.6587 66.2778 39.6587C64.6906 39.6587 63.0534 40.8122 62.6773 43.237V48.2779H68.3889C70.3219 48.2779 71.8889 46.7108 71.8889 44.7779V22.7778C71.8889 20.8448 70.3219 19.2778 68.3889 19.2778H65.1111V19.3335H64.1111ZM61.6773 43.164C61.6725 43.204 61.6727 43.2435 61.6773 43.2819V52.0329C61.6773 53.1103 62.0637 54.152 62.7664 54.9688L66.7189 59.5626C66.899 59.7719 67.2147 59.7956 67.424 59.6155C67.6333 59.4354 67.657 59.1197 67.4769 58.9104L63.5245 54.3166C62.9779 53.6813 62.6773 52.871 62.6773 52.0329V49.2779H68.3889C70.8742 49.2779 72.8889 47.2631 72.8889 44.7779V29.1668L79.2826 37.6917C79.863 38.4656 80.0973 39.4451 79.9297 40.3979L75.7475 64.1816C75.662 64.6676 75.6191 65.1602 75.6191 65.6537V71.0001L49.5556 71.0001V67.3799C49.5556 64.011 50.6726 60.7371 52.7317 58.0707L55.1704 54.9129C55.7837 54.1187 56.1164 53.1437 56.1164 52.1403V42.9084C56.1164 41.3728 57.3613 40.128 58.8968 40.128C60.4324 40.128 61.6773 41.3728 61.6773 42.9084V43.164ZM62.2781 41.2158C61.6571 39.9778 60.3762 39.128 58.8968 39.128C56.809 39.128 55.1164 40.8206 55.1164 42.9084V43.8335H30.1753C29.9714 40.8042 27.9239 38.8387 25.6666 38.5839V28.9819C27.2634 28.8634 28.5061 28.1774 29.3644 27.1763C30.1915 26.2117 30.644 24.9765 30.7387 23.7224H61.0576C61.1452 24.9763 61.5642 26.2147 62.3333 27.1851C63.1283 28.188 64.2853 28.886 65.7778 29.0135V38.6877C64.3568 38.8528 63.0402 39.7225 62.2781 41.2158ZM64.1111 15.0001V18.2778H23.0555C20.5703 18.2778 18.5555 20.2926 18.5555 22.7778V40.5001H15.2778C13.3448 40.5001 11.7778 38.9331 11.7778 37.0001V15.0001C11.7778 13.0671 13.3448 11.5001 15.2778 11.5001H60.6111C62.5441 11.5001 64.1111 13.0671 64.1111 15.0001ZM79.1667 79.0001V73.0001C79.1667 72.4478 78.719 72.0001 78.1667 72.0001H46.6111C46.0588 72.0001 45.6111 72.4478 45.6111 73.0001V79.0001C45.6111 79.5524 46.0588 80.0001 46.6111 80.0001H78.1667C78.719 80.0001 79.1667 79.5524 79.1667 79.0001Z" fill="#101010"/>
</svg>
