<svg width="92" height="92" viewBox="0 0 92 92" fill="none" xmlns="http://www.w3.org/2000/svg">
<path d="M49.0555 71L49.0555 67.3798C49.0555 63.9002 50.2091 60.5189 52.3359 57.765L54.7746 54.6071C55.3203 53.9005 55.6163 53.0329 55.6163 52.1401L55.6163 42.9083C55.6163 41.0965 57.085 39.6279 58.8968 39.6279V39.6279C60.7085 39.6279 62.1772 41.0965 62.1772 42.9083L62.1772 52.0327C62.1772 52.9905 62.5207 53.9165 63.1454 54.6425L67.0978 59.2364M76.119 70.6747L76.119 65.6535C76.119 65.1891 76.1594 64.7255 76.2399 64.268L80.4221 40.4843C80.6135 39.3955 80.3458 38.276 79.6825 37.3916L72.3888 27.6666" stroke="#101010" stroke-linecap="round" stroke-linejoin="round"/>
<rect x="79.6666" y="71.5" width="9.00001" height="34.5556" rx="1.5" transform="rotate(90 79.6666 71.5)" stroke="#101010"/>
<path d="M55.7222 48.7777H23.0555C20.8464 48.7777 19.0555 46.9869 19.0555 44.7777V22.7777C19.0555 20.5686 20.8464 18.7777 23.0555 18.7777H68.3889C70.5981 18.7777 72.3889 20.5686 72.3889 22.7777V44.7777C72.3889 46.9869 70.5981 48.7777 68.3889 48.7777H62.3889" stroke="#101010"/>
<path d="M64.6111 19.3333V15C64.6111 12.7909 62.8202 11 60.6111 11H15.2777C13.0686 11 11.2777 12.7909 11.2777 15V37C11.2777 39.2092 13.0686 41 15.2777 41H19.611" stroke="#101010"/>
<path d="M23.4999 48.7779L19.6896 52.5508C18.1144 54.1106 18.1081 56.654 19.6757 58.2216L35.218 73.7639C36.7801 75.326 39.3128 75.326 40.8749 73.7639L49.0555 65.5833" stroke="#101010"/>
<path d="M41.9045 40.6589V26.8969C42.9878 26.8969 45.4327 26.8969 46.5469 26.8969C47.9396 26.8969 50.7265 27.8958 50.7265 30.9882C50.7265 34.0807 48.1545 35.1798 46.9906 35.1798C45.8267 35.1798 40.7178 35.1798 40.7178 35.1798M46.9906 37.0118H40.7178" stroke="black" stroke-linecap="round" stroke-linejoin="round"/>
<path d="M55.4053 53.1481C54.472 54.0814 43.7586 64.7913 42.4787 66.0712C40.269 63.8615 37.3432 64.1356 35.7433 65.7355C33.9756 63.9677 30.44 60.4322 28.6723 58.6644C31.0721 56.2646 30.5043 53.2969 28.7365 51.5291C30.5119 49.7975 31.6558 48.8869 31.6558 48.8869" stroke="#101010" stroke-linecap="round" stroke-linejoin="round"/>
<path d="M55.2934 44.3334C53.9736 44.3334 31.502 44.3334 29.6919 44.3334C29.6919 41.0348 27.4293 39.0556 25.1666 39.0556C25.1666 36.4167 25.1666 31.139 25.1666 28.5001C28.5606 28.5001 30.2575 25.8612 30.2575 23.2223C38.9309 23.2223 47.6044 23.2223 56.2778 23.2223" stroke="#101010" stroke-linecap="round" stroke-linejoin="round"/>
<path d="M56.2777 23.2223C57.3303 23.2223 59.8567 23.2223 61.5409 23.2223C61.5409 25.8783 63.1198 28.5344 66.2777 28.5344C66.2777 31.1905 66.2777 36.5026 66.2777 39.1586C64.4052 39.1586 62.5649 40.5377 62.1738 43.2223" stroke="#101010" stroke-linecap="round" stroke-linejoin="round"/>
</svg>
