<svg width="92" height="92" viewBox="0 0 92 92" fill="none" xmlns="http://www.w3.org/2000/svg">
<path fill-rule="evenodd" clip-rule="evenodd" d="M46 69.6774C47.8656 69.6774 49.378 68.1651 49.378 66.2995C49.378 64.4339 47.8656 62.9215 46 62.9215C44.1344 62.9215 42.622 64.4339 42.622 66.2995C42.622 68.1651 44.1344 69.6774 46 69.6774ZM46 68.6774C47.3133 68.6774 48.378 67.6128 48.378 66.2995C48.378 64.9862 47.3133 63.9215 46 63.9215C44.6867 63.9215 43.622 64.9862 43.622 66.2995C43.622 67.6128 44.6867 68.6774 46 68.6774Z" fill="#101010"/>
<path fill-rule="evenodd" clip-rule="evenodd" d="M39.025 28.2771C39.025 28.001 39.2489 27.7771 39.525 27.7771H43.7031C44.4256 27.7771 45.4717 28.0298 46.349 28.6708C47.2481 29.3278 47.9648 30.3923 47.9648 31.9593C47.9648 33.508 47.3134 34.5882 46.4977 35.2723C45.7029 35.939 44.7499 36.2317 44.1024 36.2317H40.025V36.8806H44.1024C44.3786 36.8806 44.6024 37.1044 44.6024 37.3806C44.6024 37.6567 44.3786 37.8806 44.1024 37.8806H40.025V40.6629C40.025 40.9391 39.8011 41.1629 39.525 41.1629C39.2489 41.1629 39.025 40.9391 39.025 40.6629V37.8806H38.4569C38.1808 37.8806 37.9569 37.6567 37.9569 37.3806C37.9569 37.1044 38.1808 36.8806 38.4569 36.8806H39.025V36.2317H38.4578C38.1816 36.2317 37.9569 36.0079 37.9569 35.7317C37.9569 35.4556 38.1808 35.2317 38.457 35.2317H39.025V28.2771ZM40.025 35.2317H44.1024C44.5025 35.2317 45.2306 35.0299 45.8551 34.5061C46.4588 33.9998 46.9648 33.1938 46.9648 31.9593C46.9648 30.7433 46.4273 29.9666 45.759 29.4782C45.0689 28.974 44.2341 28.7771 43.7031 28.7771H40.025V35.2317Z" fill="#101010"/>
<path fill-rule="evenodd" clip-rule="evenodd" d="M53.8161 10.159C52.6192 9.71011 51.2878 9.7915 50.1545 10.3828L39.8635 15.752C39.0377 16.1829 38.5199 17.0371 38.5199 17.9685V19.1699C36.0931 19.9135 33.9257 21.2506 32.1871 23.012H15.0945C12.6092 23.012 10.5945 25.0267 10.5945 27.512V67.9293C10.5945 70.4146 12.6092 72.4293 15.0945 72.4293H37.0551V81.0002H30.2362C29.9601 81.0002 29.7362 81.2241 29.7362 81.5002C29.7362 81.7764 29.9601 82.0002 30.2362 82.0002H61.7638C62.0399 82.0002 62.2638 81.7764 62.2638 81.5002C62.2638 81.2241 62.0399 81.0002 61.7638 81.0002H54.3819V72.4293H76.9055C79.3908 72.4293 81.4055 70.4146 81.4055 67.9293V27.512C81.4055 25.0267 79.3908 23.012 76.9055 23.012H76.4016V14.2522C76.4016 13.1476 75.5061 12.2522 74.4016 12.2522H71.6457C70.5411 12.2522 69.6457 13.1476 69.6457 14.2522V14.6201C69.5782 14.5862 69.5021 14.5671 69.4215 14.5671H66.9312C66.0319 14.5671 65.1399 14.4054 64.2978 14.0896L53.8161 10.159ZM76.4016 24.012V35.0239C76.4016 36.1284 75.5061 37.0239 74.4016 37.0239H71.6457C70.5411 37.0239 69.6457 36.1284 69.6457 35.0239L69.6457 34.1459H67.1459C64.6409 34.1459 62.2062 33.3177 60.2208 31.7902L58.0438 30.1153C57.9117 30.0137 57.7698 29.9275 57.6206 29.8576C57.9327 31.0687 58.0987 32.3382 58.0987 33.6459C58.0987 40.2741 53.8386 45.9074 47.9071 47.9571C45.2257 52.1472 40.2459 55.4135 34.8661 55.4135C26.5058 55.4135 19.7283 48.6361 19.7283 40.2757C19.7283 33.559 23.8316 27.7454 29.9306 25.7752C29.9673 25.7633 30.0044 25.756 30.0412 25.7527C30.4148 25.1426 30.8303 24.561 31.2838 24.012H15.0945C13.1615 24.012 11.5945 25.579 11.5945 27.512V60.7261H80.4055V27.512C80.4055 25.579 78.8385 24.012 76.9055 24.012H76.4016ZM80.4055 61.7386H11.5945V67.9293C11.5945 69.8623 13.1615 71.4293 15.0945 71.4293H37.0551V71.3663H38.0551V71.4293H53.3819V71.3663H54.3819V71.4293H76.9055C78.8385 71.4293 80.4055 69.8623 80.4055 67.9293V61.7386ZM53.3819 72.4293H38.0551V81.0002H53.3819V72.4293ZM69.6457 15.5142C69.5782 15.5481 69.5021 15.5671 69.4215 15.5671H66.9312C65.912 15.5671 64.901 15.3838 63.9467 15.0259L53.465 11.0953C52.534 10.7462 51.4985 10.8095 50.617 11.2694L40.3261 16.6386C39.8306 16.8971 39.5199 17.4096 39.5199 17.9685V18.9008C40.6253 18.6439 41.7772 18.5081 42.9609 18.5081C47.7201 18.5081 51.9666 20.7049 54.7409 24.138H56.5783C57.1174 24.138 57.6387 23.9452 58.048 23.5943L61.2142 20.8804C61.4239 20.7007 61.7395 20.725 61.9192 20.9347C62.0989 21.1443 62.0747 21.46 61.865 21.6397L58.6987 24.3536C58.1082 24.8598 57.3561 25.138 56.5783 25.138H50.2798C49.3122 25.138 48.5278 25.9224 48.5278 26.89C48.5278 27.8576 49.3122 28.6419 50.2798 28.6419H56.6523C57.3762 28.6419 58.0798 28.8813 58.6536 29.3227L60.8306 30.9976C62.6411 32.3906 64.8615 33.1459 67.1459 33.1459H69.6457L69.6457 15.5142ZM46.3814 48.3956C45.2822 48.6495 44.1372 48.7836 42.9609 48.7836C34.6005 48.7836 27.8231 42.0062 27.8231 33.6459C27.8231 31.2845 28.3638 29.0493 29.3281 27.0576C24.1677 29.1488 20.7283 34.311 20.7283 40.2757C20.7283 48.0838 27.0581 54.4135 34.8661 54.4135C39.4327 54.4135 43.7461 51.8591 46.3814 48.3956ZM28.8231 33.6459C28.8231 27.213 33.1194 21.7837 38.9992 20.0706C39.006 20.0709 39.013 20.0711 39.0199 20.0711C39.1223 20.0711 39.2175 20.0403 39.2968 19.9875C40.4654 19.6748 41.6936 19.5081 42.9609 19.5081C47.1077 19.5081 50.8374 21.293 53.4242 24.138H50.2798C48.7599 24.138 47.5278 25.3701 47.5278 26.89C47.5278 28.4098 48.7599 29.6419 50.2798 29.6419H56.5238C56.8978 30.9109 57.0987 32.2545 57.0987 33.6459C57.0987 41.4539 50.769 47.7836 42.9609 47.7836C35.1528 47.7836 28.8231 41.4539 28.8231 33.6459ZM71.6457 13.2522H74.4016C74.9538 13.2522 75.4016 13.6999 75.4016 14.2522V35.0239C75.4016 35.5761 74.9538 36.0239 74.4016 36.0239H71.6457C71.0934 36.0239 70.6457 35.5761 70.6457 35.0239V14.2522C70.6457 13.6999 71.0934 13.2522 71.6457 13.2522Z" fill="#101010"/>
</svg>
