<svg width="92" height="92" viewBox="0 0 92 92" fill="none" xmlns="http://www.w3.org/2000/svg">
<path d="M37.5551 71.3661V81.4999" stroke="#101010"/>
<path d="M53.8818 71.3661V81.4999" stroke="#101010"/>
<path d="M30.2362 81.5H61.7638" stroke="#101010" stroke-linecap="round" stroke-linejoin="round"/>
<path d="M11.6575 61.2323H79.7795" stroke="#101010"/>
<path d="M69.6457 33.6457H67.1458C64.7512 33.6457 62.4237 32.8539 60.5257 31.3937L58.3487 29.7188C57.8623 29.3446 57.2659 29.1417 56.6523 29.1417H50.2797C49.036 29.1417 48.0278 28.1335 48.0278 26.8898V26.8898C48.0278 25.646 49.036 24.6378 50.2797 24.6378H56.5783C57.2367 24.6378 57.8734 24.4023 58.3733 23.9738L61.5396 21.2598M69.4215 15.0669H66.9312C65.9719 15.0669 65.0204 14.8944 64.1222 14.5576L53.6405 10.6269C52.5766 10.2279 51.3932 10.3003 50.3857 10.8259L40.0948 16.1951C39.4341 16.5398 39.0199 17.2231 39.0199 17.9683V19.5709" stroke="#101010" stroke-linecap="round" stroke-linejoin="round"/>
<path d="M54.3904 24.5C51.7079 21.1519 47.5847 19.0079 42.9608 19.0079C34.8766 19.0079 28.323 25.5615 28.323 33.6457C28.323 41.73 34.8766 48.2835 42.9608 48.2835C51.045 48.2835 57.5986 41.73 57.5986 33.6457C57.5986 32.0218 57.3342 30.4597 56.846 29" stroke="#101010"/>
<path d="M47.9566 47.8792C48.104 47.6457 48.0342 47.3369 47.8007 47.1895C47.5672 47.042 47.2584 47.1118 47.111 47.3453L47.9566 47.8792ZM30.238 26.7266C30.5008 26.6417 30.645 26.3599 30.5601 26.0971C30.4752 25.8343 30.1934 25.6901 29.9306 25.775L30.238 26.7266ZM34.8662 54.4133C27.0581 54.4133 20.7284 48.0836 20.7284 40.2755H19.7284C19.7284 48.6359 26.5058 55.4133 34.8662 55.4133V54.4133ZM47.111 47.3453C44.5949 51.33 39.8833 54.4133 34.8662 54.4133V55.4133C40.2791 55.4133 45.2872 52.1065 47.9566 47.8792L47.111 47.3453ZM20.7284 40.2755C20.7284 33.9667 24.576 28.5557 30.238 26.7266L29.9306 25.775C23.8316 27.7453 19.7284 33.5588 19.7284 40.2755H20.7284Z" fill="#101010"/>
<path d="M39.525 40.6627V28.2769C40.4999 28.2769 42.7004 28.2769 43.7031 28.2769C44.9566 28.2769 47.4648 29.1759 47.4648 31.9591C47.4648 34.7423 45.1499 35.7315 44.1024 35.7315C43.0549 35.7315 38.4569 35.7315 38.4569 35.7315M44.1024 37.3803H38.4569" stroke="black" stroke-linecap="round" stroke-linejoin="round"/>
<rect x="70.1456" y="12.752" width="5.75591" height="23.7717" rx="1.5" stroke="#101010"/>
<circle cx="46" cy="66.2992" r="2.87795" stroke="#101010"/>
<path d="M32.1926 23.5118H15.0945C12.8853 23.5118 11.0945 25.3027 11.0945 27.5118V67.9292C11.0945 70.1383 12.8853 71.9292 15.0945 71.9292H76.9055C79.1146 71.9292 80.9055 70.1383 80.9055 67.9292V27.5118C80.9055 25.3027 79.1146 23.5118 76.9055 23.5118H75.8386" stroke="#101010"/>
</svg>
