<svg width="37" height="37" viewBox="0 0 37 37" fill="none" xmlns="http://www.w3.org/2000/svg">
<path fill-rule="evenodd" clip-rule="evenodd" d="M21.4511 0C23.0797 0 24.4022 1.32249 24.4022 2.95111V12.5978H34.0489C35.6775 12.5978 37 13.9203 37 15.5489V21.4511C37 23.0797 35.6775 24.4022 34.0489 24.4022H24.4022V34.049C24.4022 35.6776 23.0797 37 21.4511 37H15.5489C13.9203 37 12.5978 35.6776 12.5978 34.049V24.4022H2.95111C1.32249 24.4022 0 23.0797 0 21.4511V15.5489C0 13.9203 1.32249 12.5978 2.95111 12.5978H12.5978V2.95111C12.5978 1.32249 13.9203 0 15.5489 0H21.4511Z" fill="#F61D2A"/>
</svg>
