<svg width="76" height="76" viewBox="0 0 76 76" fill="none" xmlns="http://www.w3.org/2000/svg">
<rect x="0.5" y="0.5" width="75" height="75" rx="7.5" stroke="#101010"/>
<path fill-rule="evenodd" clip-rule="evenodd" d="M40.5451 50.8711C39.8585 50.0314 39.5114 48.9287 39.5114 47.5954C39.5114 46.2274 39.8434 45.1258 40.4979 44.3208C41.2114 43.4392 42.2623 42.9927 43.6227 42.9927H43.7269V40.7097H43.6227C41.5004 40.7097 39.8628 41.3763 38.7549 42.6897C37.747 43.8795 37.2355 45.5346 37.2355 47.6132C37.2355 49.6216 37.79 51.2726 38.8838 52.521C40.0347 53.8333 41.639 54.5 43.6538 54.5H43.7581V52.217H43.6538C42.3257 52.217 41.279 51.7641 40.5451 50.8711ZM32.4622 50.8711C31.7756 50.0314 31.4274 48.9298 31.4274 47.5954C31.4274 46.2274 31.7595 45.1258 32.4139 44.3208C33.1274 43.4392 34.1783 42.9927 35.5387 42.9927H35.6429V40.7097H35.5387C33.4164 40.7097 31.7788 41.3763 30.6709 42.6897C29.663 43.8795 29.1515 45.5346 29.1515 47.6132C29.1515 49.6216 29.707 51.2726 30.801 52.521C31.9518 53.8333 33.5562 54.5 35.5709 54.5H35.6752V52.217H35.5709C34.2428 52.217 33.1962 51.7641 32.4622 50.8711ZM39.8907 28.6373V34.9927H42.3042V21.8355H39.8907V26.4182H38.5776C38.036 26.4182 37.632 26.2946 37.3762 26.0503C37.1914 25.8774 37.1022 25.6468 37.1022 25.3438V21.8355H34.6887V25.5922C34.6887 26.457 35.0293 27.1897 35.7021 27.7704C36.3672 28.3459 37.1817 28.6373 38.1263 28.6373H39.8907ZM62.9789 40.3973L62.809 40.5755L57.9875 45.6268V41.0241H55.8792V54.1069H57.9875V48.7327L61.0446 45.4843L61.3509 54.1069H63.5L62.9789 40.3973ZM47.1913 34.9927H49.6037V24.023H51.6378V21.8365H45.1904V24.023H47.1913V34.9927ZM52.749 40.5755L47.9274 45.6268V41.0241H45.8191V54.1069H47.9274V48.7327L50.9845 45.4843L51.2897 54.1069H53.4388L52.9199 40.3962L52.749 40.5755ZM57.0892 24.023H57.9628C58.585 24.023 59.0126 24.2097 59.2716 24.5954C59.4801 24.9161 59.6283 25.5356 59.7229 26.3847H57.0311L57.0892 24.023ZM56.9881 28.5713L60.0001 28.5723L60.6771 34.9937L63.1078 34.9927L61.9945 25.3742C61.9956 24.1132 61.6077 23.1614 60.8416 22.5629C60.2323 22.0807 59.3973 21.8355 58.3603 21.8355H54.7853L54.3414 34.9927H56.755L56.9881 28.5713ZM14.9275 24.023H17.9158V34.9937H20.3293V21.8355H12.514V34.9927H14.9275V24.023ZM16.0557 48.1667C15.8828 48.5021 15.6807 48.6698 15.4562 48.6698C15.238 48.6698 15.0542 48.5252 14.8963 48.2254C14.7276 47.9078 14.6427 47.4434 14.6427 46.8428V42.9927H14.7308C15.2294 42.9927 15.6098 43.2694 15.8946 43.8365C16.1869 44.4214 16.3351 45.3553 16.3351 46.6164C16.3341 47.2862 16.2406 47.8082 16.0557 48.1667ZM14.7362 41.044H12.5V54.0985H14.6427V50.304C15.0575 50.6698 15.5099 50.8878 16.0052 50.8878C16.7187 50.8878 17.3119 50.5094 17.7707 49.7642C18.2844 48.9266 18.5434 47.6866 18.5434 46.0744C18.5434 44.955 18.3349 43.9497 17.9244 43.0912C17.2775 41.7337 16.2041 41.044 14.7362 41.044ZM29.0924 31.7746C28.7786 32.6268 28.3359 33.0409 27.7417 33.0409C27.1721 33.0409 26.7423 32.6216 26.4275 31.7579C26.0987 30.8553 25.9321 29.7107 25.9321 28.3553C25.9321 26.9644 26.0954 25.8197 26.4189 24.9528C26.7262 24.1237 27.1592 23.7212 27.7417 23.7212C28.395 23.7212 28.8613 24.1289 29.1644 24.9675C29.4459 25.74 29.5877 26.8669 29.5877 28.3176C29.5877 29.7201 29.4212 30.8826 29.0924 31.7746ZM30.9557 33.262C31.6713 32.022 32.0346 30.3585 32.0346 28.3176C32.0346 26.3009 31.6584 24.6488 30.9191 23.4078C30.1626 22.1415 29.0924 21.5 27.7374 21.5C26.4522 21.5 25.4292 22.1457 24.6985 23.4193C23.9828 24.6625 23.6196 26.3166 23.6196 28.3344C23.6196 30.4235 23.9667 32.1101 24.6523 33.348C25.3529 34.6164 26.391 35.26 27.7374 35.26C29.1053 35.261 30.1884 34.5891 30.9557 33.262ZM24.9134 50.9539C24.6308 51.8145 24.2149 52.2505 23.6798 52.2505C23.1651 52.2505 22.761 51.8082 22.4773 50.9361C22.183 50.0273 22.0325 48.8752 22.0325 47.5105C22.0325 46.1111 22.1797 44.9591 22.4688 44.0859C22.746 43.2484 23.1532 42.8239 23.6787 42.8239C24.2751 42.8239 24.7006 43.2432 24.9768 44.1038C25.2293 44.8815 25.3572 46.0147 25.3572 47.4748C25.3582 48.8858 25.2089 50.0556 24.9134 50.9539ZM26.507 42.5954C25.8353 41.3449 24.8854 40.7097 23.6819 40.7097C22.5408 40.7097 21.6328 41.348 20.9837 42.6079C20.3465 43.8449 20.022 45.4884 20.022 47.4927C20.022 49.5692 20.3325 51.2474 20.9418 52.478C21.5629 53.7306 22.4849 54.3658 23.6809 54.3658C24.8952 54.3658 25.8568 53.7013 26.5392 52.3878C27.1764 51.1583 27.4999 49.5053 27.4999 47.4748C27.501 45.4686 27.1668 43.827 26.507 42.5954Z" fill="#C6C6C6"/>
</svg>
