<svg width="92" height="92" viewBox="0 0 92 92" fill="none" xmlns="http://www.w3.org/2000/svg">
<path fill-rule="evenodd" clip-rule="evenodd" d="M76 9H16C12.134 9 9 12.134 9 16V76C9 79.866 12.134 83 16 83H76C79.866 83 83 79.866 83 76V16C83 12.134 79.866 9 76 9ZM16 8C11.5817 8 8 11.5817 8 16V76C8 80.4183 11.5817 84 16 84H76C80.4183 84 84 80.4183 84 76V16C84 11.5817 80.4183 8 76 8H16Z" fill="#101010"/>
<path fill-rule="evenodd" clip-rule="evenodd" d="M48.5451 58.8711C47.8585 58.0314 47.5114 56.9287 47.5114 55.5954C47.5114 54.2274 47.8434 53.1258 48.4979 52.3208C49.2114 51.4392 50.2623 50.9927 51.6227 50.9927H51.7269V48.7097H51.6227C49.5004 48.7097 47.8628 49.3763 46.7549 50.6897C45.747 51.8795 45.2355 53.5346 45.2355 55.6132C45.2355 57.6216 45.79 59.2726 46.8838 60.521C48.0347 61.8333 49.639 62.5 51.6538 62.5H51.7581V60.217H51.6538C50.3257 60.217 49.279 59.7641 48.5451 58.8711ZM40.4622 58.8711C39.7756 58.0314 39.4274 56.9298 39.4274 55.5954C39.4274 54.2274 39.7595 53.1258 40.4139 52.3208C41.1274 51.4392 42.1783 50.9927 43.5387 50.9927H43.6429V48.7097H43.5387C41.4164 48.7097 39.7788 49.3763 38.6709 50.6897C37.663 51.8795 37.1515 53.5346 37.1515 55.6132C37.1515 57.6216 37.707 59.2726 38.801 60.521C39.9518 61.8333 41.5562 62.5 43.5709 62.5H43.6752V60.217H43.5709C42.2428 60.217 41.1962 59.7641 40.4622 58.8711ZM47.8907 36.6373V42.9927H50.3042V29.8355H47.8907V34.4182H46.5776C46.036 34.4182 45.632 34.2946 45.3762 34.0503C45.1914 33.8774 45.1022 33.6468 45.1022 33.3438V29.8355H42.6887V33.5922C42.6887 34.457 43.0293 35.1897 43.7021 35.7704C44.3672 36.3459 45.1817 36.6373 46.1263 36.6373H47.8907ZM70.9789 48.3973L70.809 48.5755L65.9875 53.6268V49.0241H63.8792V62.1069H65.9875V56.7327L69.0446 53.4843L69.3509 62.1069H71.5L70.9789 48.3973ZM55.1913 42.9927H57.6037V32.023H59.6378V29.8365H53.1904V32.023H55.1913V42.9927ZM60.749 48.5755L55.9274 53.6268V49.0241H53.8191V62.1069H55.9274V56.7327L58.9845 53.4843L59.2897 62.1069H61.4388L60.9199 48.3962L60.749 48.5755ZM65.0892 32.023H65.9628C66.585 32.023 67.0126 32.2097 67.2716 32.5954C67.4801 32.9161 67.6283 33.5356 67.7229 34.3847H65.0311L65.0892 32.023ZM64.9881 36.5713L68.0001 36.5723L68.6771 42.9937L71.1078 42.9927L69.9945 33.3742C69.9956 32.1132 69.6077 31.1614 68.8416 30.5629C68.2323 30.0807 67.3973 29.8355 66.3603 29.8355H62.7853L62.3414 42.9927H64.755L64.9881 36.5713ZM22.9275 32.023H25.9158V42.9937H28.3293V29.8355H20.514V42.9927H22.9275V32.023ZM24.0557 56.1667C23.8828 56.5021 23.6807 56.6698 23.4562 56.6698C23.238 56.6698 23.0542 56.5252 22.8963 56.2254C22.7276 55.9078 22.6427 55.4434 22.6427 54.8428V50.9927H22.7308C23.2294 50.9927 23.6098 51.2694 23.8946 51.8365C24.1869 52.4214 24.3351 53.3553 24.3351 54.6164C24.3341 55.2862 24.2406 55.8082 24.0557 56.1667ZM22.7362 49.044H20.5V62.0985H22.6427V58.304C23.0575 58.6698 23.5099 58.8878 24.0052 58.8878C24.7187 58.8878 25.3119 58.5094 25.7707 57.7642C26.2844 56.9266 26.5434 55.6866 26.5434 54.0744C26.5434 52.955 26.3349 51.9497 25.9244 51.0912C25.2775 49.7337 24.2041 49.044 22.7362 49.044ZM37.0924 39.7746C36.7786 40.6268 36.3359 41.0409 35.7417 41.0409C35.1721 41.0409 34.7423 40.6216 34.4275 39.7579C34.0987 38.8553 33.9321 37.7107 33.9321 36.3553C33.9321 34.9644 34.0954 33.8197 34.4189 32.9528C34.7262 32.1237 35.1592 31.7212 35.7417 31.7212C36.395 31.7212 36.8613 32.1289 37.1644 32.9675C37.4459 33.74 37.5877 34.8669 37.5877 36.3176C37.5877 37.7201 37.4212 38.8826 37.0924 39.7746ZM38.9557 41.262C39.6713 40.022 40.0346 38.3585 40.0346 36.3176C40.0346 34.3009 39.6584 32.6488 38.9191 31.4078C38.1626 30.1415 37.0924 29.5 35.7374 29.5C34.4522 29.5 33.4292 30.1457 32.6985 31.4193C31.9828 32.6625 31.6196 34.3166 31.6196 36.3344C31.6196 38.4235 31.9667 40.1101 32.6523 41.348C33.3529 42.6164 34.391 43.26 35.7374 43.26C37.1053 43.261 38.1884 42.5891 38.9557 41.262ZM32.9134 58.9539C32.6308 59.8145 32.2149 60.2505 31.6798 60.2505C31.1651 60.2505 30.761 59.8082 30.4773 58.9361C30.183 58.0273 30.0325 56.8752 30.0325 55.5105C30.0325 54.1111 30.1797 52.9591 30.4688 52.0859C30.746 51.2484 31.1532 50.8239 31.6787 50.8239C32.2751 50.8239 32.7006 51.2432 32.9768 52.1038C33.2293 52.8815 33.3572 54.0147 33.3572 55.4748C33.3582 56.8858 33.2089 58.0556 32.9134 58.9539ZM34.507 50.5954C33.8353 49.3449 32.8854 48.7097 31.6819 48.7097C30.5408 48.7097 29.6328 49.348 28.9837 50.6079C28.3465 51.8449 28.022 53.4884 28.022 55.4927C28.022 57.5692 28.3325 59.2474 28.9418 60.478C29.5629 61.7306 30.4849 62.3658 31.6809 62.3658C32.8952 62.3658 33.8568 61.7013 34.5392 60.3878C35.1764 59.1583 35.4999 57.5053 35.4999 55.4748C35.501 53.4686 35.1668 51.827 34.507 50.5954Z" fill="#C6C6C6"/>
</svg>
