<svg width="67" height="67" viewBox="0 0 67 67" fill="none" xmlns="http://www.w3.org/2000/svg">
<path d="M62.2063 16.3253H51.2395L52.841 14.1989C54.0042 12.6523 54.6204 10.8118 54.6204 8.87573C54.6204 3.98195 50.6393 0 45.7455 0C42.7657 0 40.6667 1.01629 38.9396 3.29498C37.3762 5.35589 36.1536 8.45965 34.7372 12.0539L33.5013 15.1877L32.2655 12.0539C30.7889 8.31004 29.623 5.35235 28.0631 3.29498C26.3351 1.01629 24.2361 0 21.2563 0C16.3625 0 12.3805 3.98195 12.3805 8.87573C12.3805 10.8109 12.9958 12.6514 14.1599 14.1989L15.7605 16.3253H4.79463C2.15121 16.3253 0 18.4756 0 21.1199V25.201C0 27.2256 1.28453 29.0422 3.1976 29.7203L4.0811 30.0337V62.2054C4.0811 64.8488 6.23143 67 8.87485 67H58.1252C60.7686 67 62.9189 64.8497 62.9189 62.2054V30.0337L63.8024 29.7203C65.7155 29.0413 67 27.2256 67 25.201V21.1199C67.0009 18.4756 64.8497 16.3253 62.2063 16.3253ZM36.0111 12.7072C38.9714 5.19566 40.4569 1.42529 45.7446 1.42529C49.8523 1.42529 53.1942 4.76719 53.1942 8.87573C53.1942 12.9834 49.8523 16.3253 45.7446 16.3253H34.5743L36.0111 12.7072ZM13.8067 8.87573C13.8067 4.76719 17.1486 1.42529 21.2563 1.42529C26.544 1.42529 28.0286 5.19566 30.9898 12.7063C31.2138 13.2773 31.451 13.8793 31.7016 14.5043L32.4293 16.3253H21.2563C17.1486 16.3253 13.8067 12.9834 13.8067 8.87573ZM26.6653 65.5747H8.87485C7.01755 65.5747 5.50639 64.0636 5.50639 62.2054V29.9948H26.6644V65.5747H26.6653ZM26.6653 28.5695H4.79463C2.93645 28.5695 1.42529 27.0583 1.42529 25.201V21.1199C1.42529 19.2626 2.93645 17.7515 4.79463 17.7515H26.6653V28.5695ZM38.9095 65.5747H28.0905V17.7515H38.9095V65.5747ZM61.4936 62.2054C61.4936 64.0636 59.9825 65.5747 58.1252 65.5747H40.3356V29.9957H61.4936V62.2054ZM65.5747 25.201C65.5747 27.0583 64.0636 28.5695 62.2054 28.5695H40.3356V17.7515H62.2063C64.0644 17.7515 65.5756 19.2626 65.5756 21.1199V25.201H65.5747Z" fill="#101010"/>
</svg>
