<svg width="32" height="32" viewBox="0 0 32 32" xmlns="http://www.w3.org/2000/svg">
<path d="M11.1033 3.99991H24.9915C26.096 3.99991 26.9915 4.89534 26.9915 5.99991V22.2582C26.9915 23.3627 26.096 24.2582 24.9915 24.2582H11.1033V3.99991Z" fill="none" stroke-width="0.75" stroke-linecap="round" stroke-linejoin="round"/>
<path d="M25.4338 24.4281V28.1294H9.2668C8.19779 28.1294 7.33118 27.2628 7.33118 26.1938V26.1938C7.33118 25.1248 8.19778 24.2582 9.2668 24.2582H11.0089" fill="none" stroke-width="0.75" stroke-linecap="round" stroke-linejoin="round"/>
<path d="M11.2845 4.00183H9.35089C8.24632 4.00183 7.35089 4.89726 7.35089 6.00183V25.8649" fill="none" stroke-width="0.75" stroke-linecap="round" stroke-linejoin="round"/>
<path d="M18.1566 11.8533H16.1933C15.6512 11.8533 15.2117 12.2928 15.2117 12.8349C15.2117 13.3771 15.6512 13.8166 16.1933 13.8166H18.1566V17.7432C18.1566 18.2853 18.5961 18.7248 19.1383 18.7248C19.6804 18.7248 20.1199 18.2853 20.1199 17.7432V13.8166H22.0832C22.6254 13.8166 23.0649 13.3771 23.0649 12.8349C23.0649 12.2928 22.6254 11.8533 22.0832 11.8533H20.1199V9.88996C20.1199 9.34781 19.6804 8.90831 19.1383 8.90831C18.5961 8.90831 18.1566 9.34781 18.1566 9.88996V11.8533Z" fill="none" stroke-width="0.75" stroke-linecap="round" stroke-linejoin="round"/>
</svg>
