<svg width="32" height="32" viewBox="0 0 32 32" fill="none" xmlns="http://www.w3.org/2000/svg">
<path fill-rule="evenodd" clip-rule="evenodd" d="M19.15 8.5214C18.3837 8.5214 17.7625 9.14194 17.7625 9.90742V11.4583H16.18C15.4179 11.4583 14.8 12.0755 14.8 12.8368C14.8 13.5981 15.4179 14.2153 16.18 14.2153H17.7625V17.7241C17.7625 18.4896 18.3837 19.1101 19.15 19.1101C19.9163 19.1101 20.5375 18.4896 20.5375 17.7241V14.2153H22.12C22.8822 14.2153 23.5 13.5981 23.5 12.8368C23.5 12.0755 22.8822 11.4583 22.12 11.4583L20.5375 11.4583V9.90742C20.5375 9.14194 19.9163 8.5214 19.15 8.5214ZM18.5625 9.90742C18.5625 9.5833 18.8256 9.32054 19.15 9.32054C19.4745 9.32054 19.7375 9.5833 19.7375 9.90742V11.8578C19.7375 12.0785 19.9166 12.2574 20.1375 12.2574L22.12 12.2574C22.4403 12.2574 22.7 12.5168 22.7 12.8368C22.7 13.1568 22.4403 13.4162 22.12 13.4162H20.1375C19.9166 13.4162 19.7375 13.5951 19.7375 13.8158V17.7241C19.7375 18.0482 19.4745 18.311 19.15 18.311C18.8256 18.311 18.5625 18.0482 18.5625 17.7241V13.8158C18.5625 13.5951 18.3834 13.4162 18.1625 13.4162H16.18C15.8597 13.4162 15.6 13.1568 15.6 12.8368C15.6 12.5168 15.8597 12.2574 16.18 12.2574H18.1625C18.3834 12.2574 18.5625 12.0785 18.5625 11.8578V9.90742Z" fill="#101010"/>
<path fill-rule="evenodd" clip-rule="evenodd" d="M6.90677 26.0215C6.90642 26.015 6.90625 26.0084 6.90625 26.0017V6.00171C6.90625 4.69003 7.97368 3.62671 9.29043 3.62671H24.9C26.2255 3.62671 27.3 4.70008 27.3 6.02415V22.2069C27.3 23.2508 26.6322 24.1388 25.7 24.4679V28.2005C25.7 28.4212 25.5209 28.6 25.3 28.6H9.30002C7.97454 28.6 6.90002 27.5267 6.90002 26.2026C6.90002 26.1417 6.9023 26.0813 6.90677 26.0215ZM10.6 4.37671H9.29043C8.3895 4.37671 7.65915 5.10425 7.65915 6.00171V24.453C8.08832 24.0512 8.66541 23.8052 9.30002 23.8052H10.6V4.37671ZM10.9569 24.6043C10.9639 24.6043 10.971 24.6041 10.978 24.6038C10.9853 24.6042 10.9926 24.6044 11 24.6044H24.9L24.9 27.8009H9.30002C8.41637 27.8009 7.70002 27.0853 7.70002 26.2026C7.70002 25.3199 8.41637 24.6043 9.30002 24.6043H10.9569ZM24.9 23.8052H11.4V4.42586H24.9C25.7837 4.42586 26.5 5.14144 26.5 6.02415V22.2069C26.5 23.0896 25.7837 23.8052 24.9 23.8052Z" fill="#101010"/>
</svg>
