<svg width="62" height="82" viewBox="0 0 62 82" fill="none" xmlns="http://www.w3.org/2000/svg">
<path d="M45.8222 77.3609C45.8222 77.3609 30.9214 81 26.2244 81C22.9851 81 14.401 75.8722 9.70397 73.391C8.57021 72.7293 8.40825 71.2406 9.38004 70.4135C9.86594 70.0827 10.3518 69.9173 10.8377 70.0827L22.4992 73.391" stroke="black" stroke-miterlimit="10" stroke-linecap="round" stroke-linejoin="round"/>
<path d="M45.8222 69.0904C45.8222 69.0904 38.6957 67.6017 33.9988 69.2558C30.4355 70.5791 25.4146 72.3987 23.309 73.0603C22.6612 73.2257 22.1753 73.722 22.1753 74.3836C22.1753 75.2107 22.8232 76.0378 23.7949 76.0378L30.9214 75.5415" stroke="black" stroke-miterlimit="10" stroke-linecap="round" stroke-linejoin="round"/>
<rect x="46.6321" y="66.3082" width="5.16129" height="14.2255" rx="1" stroke="#101010" stroke-linecap="round" stroke-linejoin="round"/>
<path d="M61.0001 50.3317L30.6775 61.1353V21.6917L61.0001 11.9925V50.3317Z" stroke="#101010" stroke-linecap="round" stroke-linejoin="round"/>
<path d="M1 11.9924L30.6774 21.6917M1 11.9924V50.3316L30.6774 61.1353M1 11.9924L17.129 6.01829M61 11.9924L30.6774 0.999983L17.129 6.01829M17.129 6.01829L45.5161 16.6874" stroke="#101010" stroke-linecap="round" stroke-linejoin="round"/>
<path d="M36.4609 45.2697L48.0738 41.3909V49.4876L36.4609 53.3664V45.2697Z" stroke="#101010" stroke-linecap="round" stroke-linejoin="round"/>
<path d="M42.2902 46.9098V35.9173M42.2902 35.9173L40.3547 38.5038M42.2902 35.9173L44.2257 37.2105" stroke="#101010" stroke-linecap="round" stroke-linejoin="round"/>
</svg>
