<svg width="92" height="92" viewBox="0 0 92 92" fill="none" xmlns="http://www.w3.org/2000/svg">
<path fill-rule="evenodd" clip-rule="evenodd" d="M63.3661 45.9852C63.4965 46.0792 63.5738 46.2301 63.5738 46.3909V54.4877C63.5738 54.7028 63.4363 54.8938 63.2322 54.9619L51.6193 58.8407C51.4668 58.8916 51.2992 58.8661 51.1687 58.7722C51.0382 58.6782 50.9609 58.5272 50.9609 58.3665V50.2697C50.9609 50.0546 51.0985 49.8636 51.3025 49.7954L56.7902 47.9625V42.42L55.7551 43.8033C55.5896 44.0244 55.2763 44.0695 55.0552 43.9041C54.8341 43.7386 54.789 43.4253 54.9544 43.2042L56.8899 40.6177C57.0491 40.4049 57.347 40.3539 57.568 40.5016L59.5035 41.7948C59.7331 41.9482 59.7949 42.2587 59.6414 42.4883C59.488 42.7179 59.1775 42.7797 58.9479 42.6263L57.7902 41.8527V47.6285L62.9154 45.9167C63.0679 45.8657 63.2356 45.8912 63.3661 45.9852ZM57.7902 48.6828L62.5738 47.0851V54.1275L51.9609 57.6723V50.6298L56.7902 49.0168V51.9098C56.7902 52.1859 57.0141 52.4098 57.2902 52.4098C57.5664 52.4098 57.7902 52.1859 57.7902 51.9098V48.6828Z" fill="#101010"/>
<path fill-rule="evenodd" clip-rule="evenodd" d="M45.7027 66.6348C45.6661 66.6366 45.629 66.6345 45.592 66.628C45.5596 66.6224 45.5278 66.6136 45.497 66.6017L15.829 55.8014C15.6315 55.7295 15.5 55.5418 15.5 55.3316V16.9925C15.5 16.7833 15.6302 16.5962 15.8263 16.5236L45.5038 5.53113C45.6147 5.49004 45.7366 5.48961 45.8478 5.52994L76.1704 16.5224C76.284 16.5636 76.3736 16.6416 76.4305 16.7381C76.4607 16.7893 76.4817 16.8456 76.4923 16.9043C76.4979 16.9358 76.5006 16.9681 76.5001 17.0006V55.3318C76.5001 55.5432 76.3671 55.7318 76.1679 55.8027L45.8453 66.6064C45.7988 66.623 45.7508 66.6323 45.7027 66.6348ZM74.4515 16.963L45.6793 6.53251L33.5593 11.0217L60.692 21.2194C60.7515 21.2418 60.8041 21.2742 60.8488 21.314L74.4515 16.963ZM59.3646 21.7888L32.1278 11.552L17.5192 16.963L45.6793 26.1663L59.3646 21.7888ZM45.1775 27.0543L16.5 17.6819V54.9815L45.1775 65.4212V27.0543ZM46.1775 27.0569V65.4265L75.5001 54.9791V17.6775L46.1775 27.0569Z" fill="#101010"/>
<path fill-rule="evenodd" clip-rule="evenodd" d="M62.6321 70.8083C61.8037 70.8083 61.1321 71.4798 61.1321 72.3083V73.698C61.0731 73.6514 61.0028 73.6174 60.9242 73.6009L60.9179 73.5996L60.9011 73.5962L60.8376 73.5835C60.7823 73.5726 60.7013 73.5571 60.5971 73.5379C60.3888 73.4996 60.0872 73.4471 59.7111 73.3894C58.9594 73.2742 57.9078 73.1379 56.7067 73.0541C54.3204 72.8874 51.2805 72.9221 48.8326 73.7842L48.8247 73.7871C45.2654 75.109 40.2695 76.9193 38.1713 77.5795C37.9358 77.6413 37.7103 77.7407 37.509 77.8741L25.9856 74.605C25.2843 74.3723 24.6321 74.6371 24.0986 75.0003C24.0839 75.0104 24.0696 75.0212 24.056 75.0328C22.8044 76.098 23.0406 77.9992 24.452 78.8229C24.458 78.8264 24.4642 78.8298 24.4704 78.8331C25.3451 79.2952 26.368 79.8566 27.4713 80.4622L27.4731 80.4632C29.2938 81.4625 31.3329 82.5817 33.2846 83.5719C34.8596 84.3709 36.3997 85.0978 37.7556 85.626C39.0943 86.1474 40.3137 86.5 41.2244 86.5C43.6363 86.5 48.5927 85.5759 52.8879 84.6697C55.0483 84.214 57.0611 83.7583 58.5336 83.4166C59.2699 83.2458 59.8714 83.1034 60.2889 83.0036C60.4977 82.9538 60.6605 82.9146 60.7712 82.8878L60.9408 82.8467C61.0129 82.8291 61.0775 82.7967 61.1321 82.7535V84.5338C61.1321 85.3622 61.8037 86.0338 62.6321 86.0338H65.7934C66.6218 86.0338 67.2934 85.3622 67.2934 84.5338V72.3083C67.2934 71.4798 66.6218 70.8083 65.7934 70.8083H62.6321ZM60.8231 74.0861C60.9244 73.601 60.9243 73.601 60.9242 73.6009L60.8231 74.0861ZM61.1321 81.9688V74.4829C61.0199 74.5713 60.8708 74.6114 60.7201 74.5799L60.7161 74.5791L60.7021 74.5762L60.6445 74.5647C60.5931 74.5546 60.5163 74.5398 60.4165 74.5215C60.2168 74.4848 59.9249 74.4339 59.5595 74.3779C58.8282 74.2657 57.8047 74.1332 56.637 74.0516C54.2872 73.8875 51.4173 73.9353 49.1688 74.7261C45.6087 76.0482 40.5782 77.8714 38.4589 78.5374C38.4503 78.5401 38.4415 78.5426 38.4327 78.5448C37.9492 78.6683 37.6753 79.0045 37.6753 79.3837C37.6753 79.9731 38.1332 80.5287 38.7791 80.5377L45.8867 80.0428C46.1622 80.0236 46.401 80.2313 46.4202 80.5068C46.4394 80.7823 46.2316 81.0212 45.9561 81.0403L38.8297 81.5366C38.8181 81.5374 38.8065 81.5378 38.7949 81.5378C37.5056 81.5378 36.6753 80.4435 36.6753 79.3837C36.6753 79.1403 36.7217 78.916 36.8044 78.7137L25.7013 75.5638C25.693 75.5614 25.6848 75.5589 25.6766 75.5561C25.4159 75.4673 25.1076 75.5285 24.6846 75.8112C24.0161 76.4017 24.1073 77.4572 24.9475 77.9542C25.85 78.4311 26.8817 78.9975 27.9861 79.6039C29.7913 80.5949 31.7912 81.6929 33.7371 82.6801C35.3002 83.4731 36.807 84.1833 38.1185 84.6942C39.4471 85.2117 40.5155 85.5 41.2244 85.5C43.5095 85.5 48.3521 84.6046 52.6815 83.6913C54.8334 83.2373 56.8394 82.7832 58.3076 82.4425C59.0415 82.2722 59.6409 82.1303 60.0566 82.031L60.2126 81.9937C60.3469 81.9615 60.4556 81.9353 60.5363 81.9158L60.703 81.8754L60.7886 82.2233C60.7036 81.8752 60.7031 81.8754 60.703 81.8754C60.8586 81.8374 61.0152 81.8767 61.1321 81.9688ZM62.1321 72.3083C62.1321 72.0321 62.3559 71.8083 62.6321 71.8083H65.7934C66.0695 71.8083 66.2934 72.0321 66.2934 72.3083V84.5338C66.2934 84.81 66.0695 85.0338 65.7934 85.0338H62.6321C62.3559 85.0338 62.1321 84.81 62.1321 84.5338V72.3083Z" fill="#101010"/>
</svg>
