<svg width="32" height="32" viewBox="0 0 32 32"  xmlns="http://www.w3.org/2000/svg">
<circle cx="16" cy="16" r="12" />
<path d="M15.7947 8.53784C18.4177 8.53784 21 9.81241 21 12.8611C21 15.6725 17.9467 16.7537 17.2909 17.7696C16.7986 18.5252 16.9631 19.587 15.6105 19.587C14.7294 19.587 14.299 18.8308 14.299 18.139C14.299 15.5643 17.8843 14.9816 17.8843 12.8616C17.8843 11.6947 17.1483 11.0028 15.918 11.0028C13.2951 11.0028 14.3193 13.856 12.3328 13.856C11.6156 13.856 11 13.4019 11 12.5376C10.9995 10.417 13.2941 8.53784 15.7947 8.53784ZM15.6927 20.9907C16.6134 20.9907 17.3731 21.7897 17.3731 22.7643C17.3731 23.7388 16.6149 24.5378 15.6927 24.5378C14.7705 24.5378 14.0118 23.7398 14.0118 22.7643C14.0118 21.7902 14.7705 20.9907 15.6927 20.9907Z" fill="white"/>
</svg>
