<svg width="22" height="22" viewBox="0 0 22 22" fill="none" xmlns="http://www.w3.org/2000/svg">
<path fill-rule="evenodd" clip-rule="evenodd" d="M20.6526 9.30424C20.8087 9.15057 20.8651 8.92824 20.7958 8.71187C20.7266 8.4971 20.5556 8.35591 20.3459 8.32498C20.3458 8.32497 20.346 8.325 20.3459 8.32498L15.0918 7.55382C14.5392 7.47254 14.0651 7.123 13.8214 6.62369C13.8213 6.62347 13.8215 6.62391 13.8214 6.62369L11.4724 1.81501C11.3749 1.61519 11.1863 1.50003 10.9753 1.50003C10.7648 1.50003 10.5763 1.61481 10.4787 1.81477L8.12945 6.62347C7.88544 7.12392 7.41054 7.47303 6.85863 7.55422L1.60414 8.32543C1.39561 8.35596 1.2237 8.49708 1.15432 8.71213C1.08491 8.92855 1.14136 9.15096 1.2975 9.30468L5.09915 13.0477C5.49371 13.4367 5.67448 13.9954 5.5816 14.5421C5.58158 14.5422 5.58163 14.5419 5.5816 14.5421L4.68456 19.8286C4.65367 20.0093 4.69818 20.1649 4.80567 20.2936L4.80658 20.2947C4.97288 20.4944 5.26731 20.5506 5.48754 20.4338C5.4876 20.4338 5.48748 20.4339 5.48754 20.4338L10.1864 17.9382L10.1874 17.9377C10.6788 17.6774 11.2756 17.681 11.7608 17.9365L11.7641 17.9382L16.4634 20.4338C16.5511 20.4805 16.6346 20.5 16.7183 20.5C16.8745 20.5 17.0308 20.4304 17.1443 20.2943L17.1453 20.2931C17.2523 20.1652 17.2969 20.0092 17.266 19.8289L16.3685 14.5422C16.2756 13.995 16.4559 13.4371 16.8505 13.0482L20.6526 9.30424ZM4.59569 14.3748C4.63393 14.1501 4.55963 13.9201 4.39755 13.7603L0.595971 10.0173C0.168842 9.59684 0.0180646 8.97974 0.2023 8.40608C0.386969 7.83243 0.868413 7.42249 1.45892 7.33603L6.71309 6.56486C6.93687 6.53195 7.13066 6.39018 7.2306 6.18521L9.58003 1.37609C9.84378 0.835795 10.3791 0.500031 10.9753 0.500031C11.5719 0.500031 12.1072 0.835795 12.3709 1.37609L14.7199 6.18477C14.8199 6.38974 15.0132 6.53151 15.237 6.56442L20.4912 7.33559C21.0821 7.42249 21.5631 7.83199 21.7478 8.40564C21.932 8.9793 21.7812 9.5964 21.3541 10.0169L17.5525 13.7603C17.3905 13.9201 17.3162 14.1496 17.3544 14.3748L18.2517 19.6601C18.3312 20.1245 18.2108 20.5779 17.9123 20.9347C17.6129 21.2937 17.1775 21.5 16.7183 21.5C16.4667 21.5 16.2229 21.4386 15.9944 21.317L11.2951 18.8214C11.0991 18.7182 10.8519 18.7174 10.6555 18.8214L5.9566 21.317C5.31004 21.6602 4.5014 21.4908 4.03821 20.9347C3.74013 20.5779 3.61934 20.1254 3.69885 19.6601L4.59569 14.3748Z" fill="#101010"/>
</svg>
