<svg width="24" height="24" viewBox="0 0 24 24" fill="none" xmlns="http://www.w3.org/2000/svg">
<path d="M22.4029 11.0168C22.831 10.5964 22.9822 9.97927 22.7975 9.40561C22.6124 8.83196 22.1303 8.42246 21.538 8.33556L16.2717 7.56439C16.0474 7.53148 15.8536 7.38971 15.7534 7.18474L13.399 2.37606C13.1347 1.83576 12.5981 1.5 12.0002 1.5C11.4026 1.5 10.8661 1.83576 10.6017 2.37606L8.24687 7.18518C8.1467 7.39015 7.95246 7.53191 7.72817 7.56483L2.46189 8.33599C1.87002 8.42246 1.38747 8.8324 1.20237 9.40605C1.01771 9.9797 1.16884 10.5968 1.59695 11.0173L5.40729 14.7603C5.56974 14.9201 5.64421 15.15 5.60589 15.3748L4.70698 20.6601C4.62728 21.1253 4.74835 21.5779 5.04712 21.9347C5.51138 22.4908 6.32188 22.6602 6.96993 22.317L11.6796 19.8213C11.8765 19.7173 12.1243 19.7182 12.3207 19.8213L17.0308 22.317C17.2599 22.4386 17.5042 22.5 17.7564 22.5C18.2167 22.5 18.6531 22.2937 18.9532 21.9347C19.2524 21.5779 19.373 21.1245 19.2933 20.6601L18.394 15.3748C18.3557 15.1496 18.4301 14.9201 18.5926 14.7603L22.4029 11.0168Z" fill="#F61D2A"/>
</svg>
