<svg width="32" height="32" viewBox="0 0 32 32"  xmlns="http://www.w3.org/2000/svg">
<path fill-rule="evenodd" clip-rule="evenodd" d="M14.2095 3.54431C13.9886 3.54431 13.8095 3.7234 13.8095 3.94431V9.44431C13.8095 9.66523 13.9886 9.84431 14.2095 9.84431H17.2287C17.4496 9.84431 17.6287 9.66523 17.6287 9.44431V8.69516H19.3304V11.5443H19.307C19.0997 11.5443 18.9268 11.7027 18.9086 11.9092L17.6942 25.6717C17.5201 27.6456 19.0755 29.3443 21.057 29.3443C23.0386 29.3443 24.594 27.6456 24.4198 25.6717L23.2055 11.9092C23.1878 11.7089 23.0246 11.5539 22.8257 11.5447V9.94431C22.8257 9.692 22.8264 9.34813 22.8827 9.01007C22.9406 8.66282 23.0472 8.38848 23.2085 8.22715C23.6346 7.80109 24.5175 7.35207 25.5007 7.40824C26.4492 7.46243 27.5554 7.99183 28.4565 9.63651C28.5409 9.79068 28.7162 9.87163 28.8883 9.83602C29.0604 9.80041 29.1892 9.65659 29.2055 9.48156C29.3238 8.21744 29.1995 6.76037 28.6266 5.60094C28.0399 4.41372 26.9794 3.54431 25.3073 3.54431H19.7304C19.5095 3.54431 19.3304 3.7234 19.3304 3.94431V4.74113H17.6287V3.94431C17.6287 3.7234 17.4496 3.54431 17.2287 3.54431H14.2095ZM22.0257 11.5443V9.93674C22.0256 9.68839 22.0256 9.2863 22.0936 8.87855C22.1607 8.47581 22.3041 8.00014 22.6428 7.66147C23.2167 7.08754 24.3173 6.53932 25.5463 6.60954C26.5274 6.66559 27.5513 7.11252 28.4345 8.17534C28.3915 7.38087 28.2281 6.60028 27.9094 5.95535C27.4389 5.00335 26.6352 4.34431 25.3073 4.34431H20.1304V5.14113C20.1304 5.36204 19.9513 5.54113 19.7304 5.54113H17.2287C17.0078 5.54113 16.8287 5.36204 16.8287 5.14113V4.34431H14.6095V9.04431H16.8287V8.29516C16.8287 8.07425 17.0078 7.89516 17.2287 7.89516H19.7304C19.9513 7.89516 20.1304 8.07425 20.1304 8.29516V11.5443H22.0257ZM19.6733 12.3443L18.4911 25.742C18.3582 27.2482 19.5451 28.5443 21.057 28.5443C22.569 28.5443 23.7558 27.2482 23.6229 25.742L22.4408 12.3443H19.6733Z" />
<path fill-rule="evenodd" clip-rule="evenodd" d="M6.08847 3.94431C6.08847 3.80584 6.01686 3.67721 5.89914 3.60428C5.78143 3.53135 5.6341 3.52463 5.5101 3.58628L5.50892 3.58687L5.50654 3.58807L5.49906 3.59187L5.47362 3.60509C5.45217 3.61639 5.42189 3.63267 5.38406 3.65387C5.30845 3.69623 5.20231 3.75841 5.07581 3.83991C4.82356 4.00241 4.48627 4.24433 4.14747 4.56221C3.47719 5.1911 2.75385 6.16341 2.75385 7.44021C2.75385 9.31416 3.91272 10.9174 5.55291 11.5725L4.08031 25.9585L4.07981 25.9641C3.91812 27.7966 5.36213 29.3736 7.20174 29.3736C9.04136 29.3736 10.4854 27.7966 10.3237 25.9641L8.85056 11.5725C10.4907 10.9174 11.6496 9.31416 11.6496 7.44021C11.6496 6.02123 10.9073 5.04526 10.1956 4.4402C9.83984 4.13775 9.48575 3.92206 9.22092 3.78181C9.08807 3.71146 8.97646 3.65945 8.89669 3.62451C8.85677 3.60703 8.82472 3.59378 8.80185 3.5846L8.77455 3.57385L8.76635 3.57073L8.76366 3.56972L8.76193 3.56908C8.76193 3.56908 8.76193 3.56908 8.62338 3.94431L8.76193 3.56908C8.6392 3.52376 8.50206 3.54133 8.39471 3.61612C8.28736 3.69091 8.22338 3.81348 8.22338 3.94431V7.74615L6.08847 7.74615V3.94431ZM8.07002 11.8034C7.7892 11.859 7.49887 11.8881 7.20173 11.8881C6.9046 11.8881 6.61427 11.859 6.33345 11.8034L4.87648 26.0371C4.75771 27.4007 5.83261 28.5736 7.20174 28.5736C8.57088 28.5736 9.64578 27.4007 9.527 26.0371L8.07002 11.8034ZM5.5101 3.58628C5.5101 3.58628 5.51038 3.58615 5.68847 3.94431L5.5101 3.58628ZM4.69485 5.14562C4.90045 4.95272 5.10679 4.79082 5.28847 4.66177V8.14615C5.28847 8.36706 5.46756 8.54615 5.68847 8.54615L8.62338 8.54615C8.72946 8.54615 8.83121 8.50401 8.90622 8.42899C8.98124 8.35398 9.02338 8.25223 9.02338 8.14615V4.58739C9.22007 4.70261 9.44921 4.85569 9.6774 5.04969C10.2789 5.56104 10.8496 6.33302 10.8496 7.44021C10.8496 9.45489 9.2164 11.0881 7.20173 11.0881C5.18706 11.0881 3.55385 9.45489 3.55385 7.44021C3.55385 6.48144 4.09782 5.70579 4.69485 5.14562Z" />
<path d="M7.95166 26.1603C7.95166 26.5746 7.61587 26.9103 7.20166 26.9103C6.78745 26.9103 6.45166 26.5746 6.45166 26.1603C6.45166 25.7461 6.78745 25.4103 7.20166 25.4103C7.61587 25.4103 7.95166 25.7461 7.95166 26.1603Z" />
</svg>
