<svg width="220" height="188" viewBox="0 0 220 188" fill="none" xmlns="http://www.w3.org/2000/svg">
<path fill-rule="evenodd" clip-rule="evenodd" d="M28.2643 26.7695C23.0176 26.7695 18.7643 31.0228 18.7643 36.2695V108.043H17.7643V36.2695C17.7643 30.4705 22.4653 25.7695 28.2643 25.7695H141.962V26.7695H28.2643ZM185.924 26.7695H159.811V25.7695H185.924C191.723 25.7695 196.424 30.4705 196.424 36.2695V68.223H195.424V36.2695C195.424 31.0228 191.171 26.7695 185.924 26.7695ZM195.424 134.156V92.1514H196.424V134.156C196.424 139.955 191.723 144.656 185.924 144.656H158.566V143.656H185.924C191.171 143.656 195.424 139.403 195.424 134.156ZM18.7643 120.496V134.156C18.7643 139.403 23.0176 143.656 28.2643 143.656H115.396V144.656H28.2643C22.4653 144.656 17.7643 139.955 17.7643 134.156V120.496H18.7643Z" fill="#101010"/>
<path fill-rule="evenodd" clip-rule="evenodd" d="M123.283 46.6941H18.679V45.6941H123.283V46.6941ZM195.924 46.6941H140.301V45.6941H195.924V46.6941Z" fill="black"/>
<path d="M34.0372 37.062C34.0372 38.896 32.5505 40.3827 30.7165 40.3827C28.8825 40.3827 27.3958 38.896 27.3958 37.062C27.3958 35.228 28.8825 33.7412 30.7165 33.7412C32.5505 33.7412 34.0372 35.228 34.0372 37.062Z" fill="#101010"/>
<path d="M47.3208 37.062C47.3208 38.896 45.8341 40.3827 44.0001 40.3827C42.1661 40.3827 40.6793 38.896 40.6793 37.062C40.6793 35.228 42.1661 33.7412 44.0001 33.7412C45.8341 33.7412 47.3208 35.228 47.3208 37.062Z" fill="#101010"/>
<path d="M60.6038 37.062C60.6038 38.896 59.117 40.3827 57.283 40.3827C55.449 40.3827 53.9623 38.896 53.9623 37.062C53.9623 35.228 55.449 33.7412 57.283 33.7412C59.117 33.7412 60.6038 35.228 60.6038 37.062Z" fill="#101010"/>
<path fill-rule="evenodd" clip-rule="evenodd" d="M207.547 68.7791H48.9814C42.6562 68.7791 37.5286 73.9067 37.5286 80.2319C37.5286 86.5571 42.6562 91.6847 48.9814 91.6847H207.547C213.872 91.6847 219 86.5571 219 80.2319C219 73.9067 213.872 68.7791 207.547 68.7791ZM48.9814 67.7791C42.1039 67.7791 36.5286 73.3544 36.5286 80.2319C36.5286 87.1093 42.1039 92.6847 48.9814 92.6847H207.547C214.425 92.6847 220 87.1093 220 80.2319C220 73.3544 214.425 67.7791 207.547 67.7791H48.9814Z" fill="#101010"/>
<path fill-rule="evenodd" clip-rule="evenodd" d="M207.547 68.7791H163.547C157.222 68.7791 152.094 73.9066 152.094 80.2319C152.094 86.5571 157.222 91.6847 163.547 91.6847H207.547C213.872 91.6847 219 86.5571 219 80.2319C219 73.9066 213.872 68.7791 207.547 68.7791ZM163.547 67.7791C156.67 67.7791 151.094 73.3544 151.094 80.2319C151.094 87.1093 156.67 92.6847 163.547 92.6847H207.547C214.425 92.6847 220 87.1093 220 80.2319C220 73.3544 214.425 67.7791 207.547 67.7791H163.547Z" fill="#F61D2A"/>
<path fill-rule="evenodd" clip-rule="evenodd" d="M42.3393 119.911L54.7921 119.911C57.9078 119.911 60.4336 117.385 60.4336 114.269C60.4336 111.154 57.9078 108.628 54.7921 108.628L42.3393 108.628C39.2236 108.628 36.6978 111.154 36.6978 114.269C36.6978 117.385 39.2236 119.911 42.3393 119.911ZM61.4336 114.269C61.4336 110.601 58.4601 107.628 54.7921 107.628L42.3393 107.628C38.6713 107.628 35.6978 110.601 35.6978 114.269C35.6978 117.937 38.6713 120.911 42.3393 120.911L54.7921 120.911C58.4601 120.911 61.4336 117.937 61.4336 114.269Z" fill="#101010"/>
<path fill-rule="evenodd" clip-rule="evenodd" d="M6.64142 119.911L19.0942 119.911C22.2099 119.911 24.7357 117.385 24.7357 114.269C24.7357 111.154 22.2099 108.628 19.0942 108.628L6.64142 108.628C3.52571 108.628 0.999922 111.154 0.999922 114.269C0.999921 117.385 3.52571 119.911 6.64142 119.911ZM25.7357 114.269C25.7357 110.601 22.7622 107.628 19.0942 107.628L6.64142 107.628C2.97342 107.628 -7.83313e-05 110.601 -7.84916e-05 114.269C-7.86519e-05 117.937 2.97342 120.911 6.64142 120.911L19.0942 120.911C22.7622 120.911 25.7357 117.937 25.7357 114.269Z" fill="#101010"/>
<path fill-rule="evenodd" clip-rule="evenodd" d="M48.6511 114.269C48.6511 114.545 48.4273 114.769 48.1511 114.769L12.038 114.769C11.7618 114.769 11.538 114.545 11.538 114.269C11.538 113.993 11.7618 113.769 12.038 113.769L48.1511 113.769C48.4273 113.769 48.6511 113.993 48.6511 114.269Z" fill="#101010"/>
<path fill-rule="evenodd" clip-rule="evenodd" d="M164.428 1.85168C164.613 1.6544 164.922 1.64058 165.124 1.82051L174.942 10.5507C175.044 10.6413 175.104 10.7695 175.109 10.9057C175.114 11.042 175.063 11.1743 174.969 11.2722L130.706 56.9685C130.647 57.0292 130.574 57.074 130.493 57.0987L118.448 60.7853C118.275 60.8381 118.088 60.794 117.957 60.6697C117.826 60.5455 117.773 60.3606 117.816 60.1856L120.776 48.3816C120.797 48.2989 120.839 48.2228 120.897 48.1607L164.428 1.85168ZM121.545 49.4272L119.002 59.57L129.352 56.4022L121.545 49.4272ZM130.321 55.9278L121.977 48.472L164.823 2.89098L173.887 10.9513L130.321 55.9278Z" fill="#101010"/>
<g filter="url(#filter0_d)">
<path fill-rule="evenodd" clip-rule="evenodd" d="M160.9 157.832L152.74 149.457L153.459 148.762L161.619 157.136L160.9 157.832ZM158.164 144.072L166.167 152.248L165.45 152.945L157.447 144.769L158.164 144.072Z" fill="#101010"/>
</g>
<path fill-rule="evenodd" clip-rule="evenodd" d="M136.766 154.158C151.229 154.158 162.948 142.476 162.948 128.072C162.948 113.669 151.229 101.986 136.766 101.986C122.303 101.986 110.585 113.669 110.585 128.072C110.585 142.476 122.303 154.158 136.766 154.158ZM136.766 155.158C151.778 155.158 163.948 143.032 163.948 128.072C163.948 113.113 151.778 100.986 136.766 100.986C121.754 100.986 109.585 113.113 109.585 128.072C109.585 143.032 121.754 155.158 136.766 155.158Z" fill="#101010"/>
<path fill-rule="evenodd" clip-rule="evenodd" d="M136.266 108.205C136.266 107.929 136.49 107.705 136.766 107.705C148.052 107.705 157.203 116.822 157.203 128.073C157.203 132.625 155.704 136.83 153.171 140.222C153.005 140.443 152.692 140.488 152.471 140.323C152.25 140.158 152.204 139.845 152.369 139.623C154.778 136.398 156.203 132.402 156.203 128.073C156.203 117.378 147.503 108.705 136.766 108.705C136.49 108.705 136.266 108.481 136.266 108.205ZM132.153 108.733C132.223 109 132.064 109.274 131.796 109.344C129.815 109.865 127.957 110.689 126.276 111.765C126.044 111.914 125.734 111.846 125.586 111.613C125.437 111.381 125.505 111.072 125.737 110.923C127.504 109.792 129.458 108.924 131.542 108.377C131.809 108.307 132.083 108.466 132.153 108.733Z" fill="#101010"/>
<path fill-rule="evenodd" clip-rule="evenodd" d="M190.811 174.561L170.79 154.61C168.749 152.576 165.439 152.576 163.398 154.61C161.356 156.645 161.356 159.943 163.398 161.977L183.419 181.928C185.46 183.962 188.77 183.962 190.811 181.928C192.853 179.894 192.853 176.595 190.811 174.561ZM162.689 153.905C160.257 156.329 160.257 160.259 162.689 162.683L182.71 182.634C185.143 185.058 189.087 185.058 191.52 182.634C193.952 180.21 193.952 176.279 191.52 173.855L171.499 153.905C169.066 151.48 165.122 151.48 162.689 153.905Z" fill="#101010"/>
<path d="M52.6635 84.8949C52.6635 85.2696 52.3598 85.5733 51.9851 85.5733C51.6105 85.5733 51.3068 85.2696 51.3068 84.8949C51.3068 84.5203 51.6105 84.2166 51.9851 84.2166C52.3598 84.2166 52.6635 84.5203 52.6635 84.8949Z" fill="#101010"/>
<path fill-rule="evenodd" clip-rule="evenodd" d="M52.4113 75.3901C51.346 75.4024 50.2112 75.9642 49.6064 77.0226C49.4694 77.2623 49.164 77.3456 48.9243 77.2086C48.6845 77.0716 48.6012 76.7662 48.7382 76.5264C49.5368 75.1289 51.0171 74.4062 52.3997 74.3902C53.79 74.3741 55.1736 75.084 55.6174 76.6371C55.8255 77.3657 55.7515 77.9753 55.4874 78.5174C55.2377 79.0301 54.828 79.4568 54.4377 79.8471C54.3918 79.8929 54.3458 79.9387 54.2998 79.9845C53.5368 80.7436 52.7637 81.513 52.4671 82.8473C52.4072 83.1168 52.1402 83.2868 51.8706 83.2269C51.601 83.167 51.4311 82.8999 51.491 82.6303C51.8528 81.0019 52.819 80.0441 53.5748 79.2948C53.6279 79.2422 53.6799 79.1906 53.7305 79.14C54.1296 78.7409 54.4216 78.422 54.5885 78.0795C54.741 77.7664 54.7985 77.4112 54.6559 76.9119C54.3656 75.8959 53.4687 75.3779 52.4113 75.3901Z" fill="#101010"/>
<path d="M61.8914 84.8949C61.8914 85.2696 61.5877 85.5733 61.213 85.5733C60.8384 85.5733 60.5347 85.2696 60.5347 84.8949C60.5347 84.5203 60.8384 84.2166 61.213 84.2166C61.5877 84.2166 61.8914 84.5203 61.8914 84.8949Z" fill="#101010"/>
<path fill-rule="evenodd" clip-rule="evenodd" d="M61.6405 75.3901C60.5753 75.4024 59.4405 75.9642 58.8357 77.0226C58.6987 77.2623 58.3933 77.3456 58.1535 77.2086C57.9137 77.0716 57.8304 76.7662 57.9675 76.5264C58.766 75.1289 60.2464 74.4062 61.6289 74.3902C63.0193 74.3741 64.4029 75.084 64.8466 76.6371C65.0548 77.3657 64.9808 77.9753 64.7167 78.5174C64.4669 79.0301 64.0572 79.4568 63.6669 79.8471C63.621 79.8929 63.575 79.9387 63.529 79.9845C62.7661 80.7436 61.9929 81.513 61.6964 82.8473C61.6365 83.1168 61.3694 83.2868 61.0998 83.2269C60.8303 83.167 60.6603 82.8999 60.7202 82.6303C61.0821 81.0019 62.0482 80.0441 62.8041 79.2948C62.8571 79.2422 62.9091 79.1906 62.9598 79.14C63.3589 78.7409 63.6508 78.422 63.8177 78.0795C63.9702 77.7664 64.0278 77.4112 63.8851 76.9119C63.5948 75.8959 62.698 75.3779 61.6405 75.3901Z" fill="#101010"/>
<path d="M71.1209 84.8949C71.1209 85.2696 70.8172 85.5733 70.4425 85.5733C70.0679 85.5733 69.7642 85.2696 69.7642 84.8949C69.7642 84.5203 70.0679 84.2166 70.4425 84.2166C70.8172 84.2166 71.1209 84.5203 71.1209 84.8949Z" fill="#101010"/>
<path fill-rule="evenodd" clip-rule="evenodd" d="M70.8698 75.3901C69.8045 75.4024 68.6697 75.9642 68.0649 77.0226C67.9279 77.2623 67.6225 77.3456 67.3828 77.2086C67.143 77.0716 67.0597 76.7662 67.1967 76.5264C67.9953 75.1289 69.4756 74.4062 70.8582 74.3902C72.2485 74.3741 73.6321 75.084 74.0759 76.6371C74.284 77.3657 74.21 77.9753 73.9459 78.5174C73.6962 79.0301 73.2865 79.4568 72.8961 79.8471C72.8503 79.8929 72.8043 79.9387 72.7583 79.9845C71.9953 80.7436 71.2222 81.513 70.9256 82.8473C70.8657 83.1168 70.5987 83.2868 70.3291 83.2269C70.0595 83.167 69.8896 82.8999 69.9495 82.6303C70.3113 81.0019 71.2775 80.0441 72.0333 79.2948C72.0864 79.2422 72.1384 79.1906 72.189 79.14C72.5881 78.7409 72.8801 78.422 73.0469 78.0795C73.1995 77.7664 73.257 77.4112 73.1144 76.9119C72.8241 75.8959 71.9272 75.3779 70.8698 75.3901Z" fill="#101010"/>
<path fill-rule="evenodd" clip-rule="evenodd" d="M128.37 122.285C128.566 122.09 128.882 122.09 129.078 122.285L143.715 136.923C143.911 137.118 143.911 137.435 143.715 137.63C143.52 137.825 143.203 137.825 143.008 137.63L128.37 122.992C128.175 122.797 128.175 122.481 128.37 122.285Z" fill="#F61D2A"/>
<path fill-rule="evenodd" clip-rule="evenodd" d="M143.714 122.285C143.519 122.09 143.202 122.09 143.007 122.285L128.369 136.923C128.174 137.118 128.174 137.435 128.369 137.63C128.565 137.825 128.881 137.825 129.077 137.63L143.714 122.992C143.91 122.797 143.91 122.48 143.714 122.285Z" fill="#F61D2A"/>
<defs>
<filter id="filter0_d" x="147.302" y="144.072" width="24.3027" height="24.6351" filterUnits="userSpaceOnUse" color-interpolation-filters="sRGB">
<feFlood flood-opacity="0" result="BackgroundImageFix"/>
<feColorMatrix in="SourceAlpha" type="matrix" values="0 0 0 0 0 0 0 0 0 0 0 0 0 0 0 0 0 0 127 0"/>
<feOffset dy="5.43774"/>
<feGaussianBlur stdDeviation="2.71887"/>
<feColorMatrix type="matrix" values="0 0 0 0 0 0 0 0 0 0 0 0 0 0 0 0 0 0 0.25 0"/>
<feBlend mode="normal" in2="BackgroundImageFix" result="effect1_dropShadow"/>
<feBlend mode="normal" in="SourceGraphic" in2="effect1_dropShadow" result="shape"/>
</filter>
</defs>
</svg>
