<svg width="24" height="24" viewBox="0 0 24 24" fill="none" xmlns="http://www.w3.org/2000/svg">
<g clip-path="url(#clip0)">
<path fill-rule="evenodd" clip-rule="evenodd" d="M20.6262 3.92252C20.7571 4.0793 20.7795 4.29989 20.6828 4.47975L11.9403 20.7368C11.8285 20.9447 11.5865 21.0461 11.3599 20.98C11.1333 20.9139 10.9838 20.6983 11.0013 20.4629L11.6714 11.4483L2.44866 10.4974C2.2136 10.4731 2.02761 10.2876 2.00272 10.0526C1.97783 9.81766 2.12085 9.59733 2.34562 9.5244L20.0881 3.76735C20.2823 3.70432 20.4954 3.76575 20.6262 3.92252ZM4.90488 9.7453L12.2574 10.5034C12.5265 10.5311 12.7248 10.768 12.7047 11.0378L12.1728 18.1931L19.2122 5.10286L4.90488 9.7453Z" fill="#101010"/>
</g>
<defs>
<clipPath id="clip0">
<rect width="24" height="24" fill="white"/>
</clipPath>
</defs>
</svg>
