<svg width="24" height="24" viewBox="0 0 24 24" fill="none" xmlns="http://www.w3.org/2000/svg">
<path d="M21.849 20.1514L17.4244 15.7168C18.7361 14.2215 19.415 12.2747 19.3175 10.288C19.2201 8.30129 18.354 6.43029 16.9023 5.07046C15.4506 3.71063 13.527 2.96854 11.5382 3.00102C9.54936 3.03351 7.65106 3.83803 6.24455 5.24455C4.83803 6.65106 4.03351 8.54936 4.00102 10.5382C3.96854 12.527 4.71063 14.4506 6.07046 15.9023C7.43029 17.354 9.30129 18.2201 11.288 18.3175C13.2747 18.415 15.2215 17.7361 16.7168 16.4244L21.1514 20.849C21.1962 20.8967 21.2502 20.9347 21.3102 20.9606C21.3702 20.9866 21.4348 21 21.5002 21C21.5656 21 21.6303 20.9866 21.6903 20.9606C21.7502 20.9347 21.8043 20.8967 21.849 20.849C21.8967 20.8043 21.9347 20.7502 21.9606 20.6903C21.9866 20.6303 22 20.5656 22 20.5002C22 20.4348 21.9866 20.3702 21.9606 20.3102C21.9347 20.2502 21.8967 20.1962 21.849 20.1514ZM11.6943 17.3312C10.3816 17.3312 9.09846 16.942 8.00703 16.2127C6.91559 15.4834 6.06492 14.4469 5.56258 13.2341C5.06025 12.0214 4.92882 10.6869 5.1849 9.39951C5.44099 8.11207 6.0731 6.92948 7.00129 6.00129C7.92948 5.0731 9.11207 4.44099 10.3995 4.1849C11.6869 3.92882 13.0214 4.06025 14.2341 4.56258C15.4469 5.06492 16.4834 5.91559 17.2127 7.00703C17.942 8.09846 18.3312 9.38164 18.3312 10.6943C18.3286 12.4537 17.6285 14.1403 16.3844 15.3844C15.1403 16.6285 13.4537 17.3286 11.6943 17.3312Z" fill="#101010"/>
</svg>
