<svg width="32" height="32" viewBox="0 0 32 32" fill="none" xmlns="http://www.w3.org/2000/svg">
<path d="M29.5 15.4992C29.3674 15.4992 29.2402 15.552 29.1464 15.6459C29.0527 15.7399 29 15.8673 29 16.0002C28.9832 18.8183 28.0548 21.5549 26.3542 23.7994C24.6536 26.044 22.2725 27.6754 19.5682 28.4488C16.8638 29.2223 13.9821 29.0961 11.3554 28.0892C8.72873 27.0823 6.49872 25.249 5 22.8644L7.18 23.1049C7.31261 23.1128 7.44295 23.0677 7.54234 22.9794C7.64173 22.891 7.70204 22.7668 7.71 22.6339C7.71796 22.501 7.67291 22.3704 7.58477 22.2708C7.49662 22.1712 7.37261 22.1108 7.24 22.1028L4 21.742H3.9C3.78021 21.73 3.66026 21.7634 3.56394 21.8358C3.46762 21.9082 3.40197 22.0142 3.38 22.1329L2.73 25.3795C2.71685 25.444 2.71651 25.5105 2.729 25.5751C2.74149 25.6397 2.76656 25.7012 2.80277 25.7561C2.83899 25.811 2.88565 25.8582 2.94008 25.8951C2.99451 25.9319 3.05565 25.9576 3.12 25.9708H3.22C3.33477 25.969 3.44558 25.9284 3.5345 25.8557C3.62342 25.7829 3.68526 25.6823 3.71 25.5699L4.14 23.4255C5.75297 26.0024 8.15804 27.9841 10.9928 29.072C13.8275 30.1599 16.9383 30.2952 19.8564 29.4573C22.7745 28.6194 25.3418 26.8538 27.1714 24.4266C29.001 21.9993 29.9937 19.042 30 16.0002C30 15.8673 29.9473 15.7399 29.8536 15.6459C29.7598 15.552 29.6326 15.4992 29.5 15.4992Z" fill="#101010"/>
<path d="M3 16.0002C3.00613 13.2771 3.86369 10.6244 5.45214 8.41499C7.04059 6.20556 9.28006 4.55048 11.8558 3.6824C14.4315 2.81432 17.2139 2.77689 19.8119 3.57537C22.4099 4.37385 24.6929 5.96809 26.34 8.134H24.17C24.0374 8.134 23.9102 8.18679 23.8164 8.28075C23.7227 8.37471 23.67 8.50215 23.67 8.63503C23.67 8.76791 23.7227 8.89535 23.8164 8.98932C23.9102 9.08328 24.0374 9.13606 24.17 9.13606H27.51C27.6327 9.13422 27.7504 9.08726 27.8407 9.00411C27.9311 8.92097 27.9877 8.80744 28 8.68514L28.33 5.38834C28.3359 5.32255 28.3288 5.25623 28.3092 5.19317C28.2895 5.13012 28.2576 5.07156 28.2154 5.02085C28.1731 4.97014 28.1213 4.92826 28.0629 4.89761C28.0045 4.86696 27.9407 4.84814 27.875 4.84222C27.8093 4.83629 27.7432 4.84339 27.6802 4.8631C27.6173 4.88281 27.5589 4.91474 27.5083 4.95708C27.4061 5.04258 27.3419 5.16527 27.33 5.29816L27.11 7.49268C25.3313 5.16812 22.8711 3.45978 20.0744 2.60727C17.2778 1.75477 14.285 1.80086 11.5158 2.73909C8.74659 3.67732 6.33994 5.46062 4.63338 7.83887C2.92683 10.2171 2.00598 13.071 2 16.0002C2 16.1331 2.05268 16.2605 2.14645 16.3545C2.24021 16.4485 2.36739 16.5012 2.5 16.5012C2.63261 16.5012 2.75979 16.4485 2.85355 16.3545C2.94732 16.2605 3 16.1331 3 16.0002Z" fill="#101010"/>
</svg>
