<svg width="76" height="71" viewBox="0 0 76 71" fill="none" xmlns="http://www.w3.org/2000/svg">
<path d="M37.9119 57.5576C52.2184 57.5576 63.816 46.4035 63.816 32.6443C63.816 18.885 52.2184 7.73096 37.9119 7.73096C23.6055 7.73096 12.0078 18.885 12.0078 32.6443C12.0078 46.4035 23.6055 57.5576 37.9119 57.5576Z" fill="#FFD24B"/>
<path fill-rule="evenodd" clip-rule="evenodd" d="M63.7021 31.6511L63.7645 32.839C63.7645 42.2435 58.3347 50.4382 50.3304 54.6697L37.2656 44.3061L46.8718 20.1591L63.7021 31.6511Z" fill="#FFBF00"/>
<path fill-rule="evenodd" clip-rule="evenodd" d="M38.0718 0.670907C50.1513 0.780303 61.8168 7.65775 67.3665 17.918C72.0821 26.6352 72.2789 37.4574 67.9051 46.32C61.7124 58.868 46.5192 66.7031 31.7721 64.0736C21.551 62.2513 12.4196 55.5177 7.89675 46.4953C3.43102 37.5878 3.6076 26.6827 8.34757 17.918C13.8941 7.66225 25.4859 0.781302 37.6423 0.670907C37.7856 0.670407 37.929 0.670407 38.0718 0.670907ZM37.649 1.66996C25.9445 1.77586 14.6369 8.4545 9.26948 18.3791C4.70248 26.8225 4.51186 37.3081 8.74802 45.8919C14.7475 58.0488 29.4645 65.6391 43.7529 63.0915C53.7164 61.3152 62.612 54.7155 66.9666 45.8919C71.209 37.2951 71.0106 26.8195 66.4451 18.3791C61.071 8.44351 49.8469 1.77685 38.0656 1.66996C37.9264 1.66946 37.7877 1.66946 37.649 1.66996Z" fill="#FFECB4"/>
<path fill-rule="evenodd" clip-rule="evenodd" d="M37.8739 42.8358L24.7832 26.8485L28.956 20.4416H46.6137L51.1034 26.8485L37.8739 42.8358Z" fill="#FFF3CE"/>
<path fill-rule="evenodd" clip-rule="evenodd" d="M32.6554 35.7599L31.5097 36.7869C28.4873 32.9386 25.3045 28.847 24.1457 27.2495C23.7759 26.739 23.83 26.3009 24.2912 25.722C25.1565 24.6355 28.3102 20.403 28.3102 20.403C28.5481 20.1218 28.9569 19.8945 29.3121 19.8765H46.545C46.7543 19.8765 47.0114 20.0064 47.2077 20.2362L48.3395 21.7028L47.2036 22.7213L43.7855 25.7844L41.0301 28.2541L35.8398 32.9061L34.5798 34.0351L32.6554 35.7599Z" fill="#FFF8E4"/>
<path fill-rule="evenodd" clip-rule="evenodd" d="M24.1457 27.2495C23.7759 26.739 23.83 26.3009 24.2912 25.722C25.1565 24.6355 28.3102 20.403 28.3102 20.403C28.5481 20.1218 28.9569 19.8945 29.3121 19.8765H46.545C46.7543 19.8765 47.0114 20.0064 47.2078 20.2362C47.2078 20.2362 50.8612 24.8898 51.6579 26.0027C51.9524 26.4138 51.8984 26.8544 51.6579 27.2495C51.6579 27.2495 40.933 41.0704 38.616 44.0575C38.3547 44.3942 37.4988 44.3912 37.2339 44.0575C34.8343 41.0304 26.2264 30.1178 24.1457 27.2495ZM41.2581 27.3519H34.3476L37.9081 40.6048L41.2581 27.3519ZM42.8584 27.3519L39.4205 40.6048L49.599 27.3519H42.8584ZM32.738 27.3519H26.1729L36.3904 40.6048L32.738 27.3519ZM46.5835 21.9126L43.7356 25.8533H49.6068L46.5835 21.9126ZM26.1496 25.8533H31.8774L29.1303 21.9301L26.1496 25.8533ZM34.8826 25.8533H40.7564L37.9117 21.9126L34.8826 25.8533ZM36.3904 21.3751H30.6205L33.3712 25.3029L36.3904 21.3751ZM45.0772 21.3751H39.4205L42.246 25.2889L45.0772 21.3751Z" fill="url(#paint0_linear)"/>
<path fill-rule="evenodd" clip-rule="evenodd" d="M46.5451 19.8765C46.7544 19.8765 47.0115 20.0064 47.2079 20.2362L48.3396 21.7028L47.2037 22.7213L46.5836 21.9126L43.7856 25.7844L41.0302 28.2541L41.2582 27.3519H34.3478L35.84 32.9061L34.5799 34.0351L32.7382 27.3519H26.1731L32.6556 35.7599L31.5098 36.7869C29.0598 33.6674 26.5044 30.388 25.007 28.4064L24.9759 28.365L24.8507 28.1986L24.8024 28.1347L24.7006 27.9993L24.6471 27.9279L24.5588 27.809L24.5053 27.7376L24.4237 27.6277L24.3749 27.5617L24.2939 27.4513L24.2549 27.3989L24.1459 27.2495C24.0306 27.0897 23.9563 26.9373 23.9225 26.7855L23.9179 26.763C23.8888 26.6111 23.9007 26.4593 23.9527 26.3014L23.9604 26.2779C24.0222 26.1036 24.1329 25.9208 24.2913 25.722C24.7743 25.1155 25.9705 23.5286 26.9329 22.2448L26.9547 22.2158L27.1687 21.9301C27.6123 21.3381 27.9831 20.8416 28.1727 20.5874L28.3103 20.403C28.4121 20.2826 28.5461 20.1717 28.6931 20.0833L28.702 20.0778L28.7103 20.0728C28.7295 20.0619 28.7482 20.0514 28.7674 20.0414C28.7939 20.0269 28.8209 20.0134 28.8479 20.0009C28.8817 19.9854 28.916 19.9709 28.9502 19.9579C29.0713 19.9115 29.1949 19.8825 29.3123 19.8765H46.5451ZM26.1497 25.8533H31.8775L29.1305 21.9301L26.1497 25.8533ZM34.8827 25.8533H40.7565L37.9118 21.9126L34.8827 25.8533ZM36.3905 21.3751H30.6206L33.3713 25.3029L36.3905 21.3751ZM45.0773 21.3751H39.4206L42.2461 25.2889L45.0773 21.3751Z" fill="url(#paint1_linear)"/>
<path fill-rule="evenodd" clip-rule="evenodd" d="M19.2871 65.7852C19.2871 65.7852 14.5985 67.3736 6.20153 70.2174C6.98996 65.8985 8.36635 62.3684 8.36635 62.3684L0.701172 59.1979L11.5772 54.9L19.2871 65.7852Z" fill="#F20D59"/>
<path fill-rule="evenodd" clip-rule="evenodd" d="M18.5145 63.6558L19.3969 65.7307L15.3867 64.5498L18.5145 63.6558Z" fill="#DA0C51"/>
<path fill-rule="evenodd" clip-rule="evenodd" d="M56.5 65.7852C56.5 65.7852 61.1885 67.3736 69.5855 70.2174C68.4943 65.1987 67.4207 62.3684 67.4207 62.3684L75.0859 59.1979L64.2098 54.9L56.5 65.7852Z" fill="#F20D59"/>
<path fill-rule="evenodd" clip-rule="evenodd" d="M57.4126 63.6558L56.5 65.7307L60.5102 64.5498L57.4126 63.6558Z" fill="#DA0C51"/>
<path fill-rule="evenodd" clip-rule="evenodd" d="M37.9914 61.418C33.1288 61.418 27.2535 61.7837 15.3641 64.5395C15.3641 64.5395 12.7007 57.7345 10.834 52.6554C19.4455 50.422 28.9389 49.2511 37.9914 49.2511C47.0438 49.2511 53.0376 49.873 65.1488 52.6554C64.2502 54.9177 60.6187 64.5395 60.6187 64.5395C48.8892 61.7097 42.8534 61.418 37.9914 61.418Z" fill="#FF3377"/>
<path d="M16.5237 59.4019L15.8262 55.4604C16.2812 55.3625 16.6956 55.2831 17.0686 55.2221C17.5235 55.1477 17.884 55.1787 18.1484 55.316C18.4133 55.4534 18.5727 55.6752 18.6267 55.9809C18.6953 56.3695 18.5904 56.6896 18.312 56.9414L18.3141 56.9529C18.5021 56.9878 18.6636 57.0743 18.7992 57.2111C18.9342 57.3485 19.0225 57.5318 19.063 57.7626C19.1331 58.1587 19.0417 58.4863 18.7888 58.7456C18.539 58.9998 18.1806 59.1657 17.7131 59.2421C17.1678 59.331 16.771 59.3844 16.5237 59.4019ZM17.5495 57.5962L17.1844 57.6562L17.3158 58.3979C17.4062 58.4064 17.5137 58.4004 17.6394 58.3799C18.0045 58.32 18.1624 58.1507 18.1131 57.8714C18.071 57.6332 17.883 57.5418 17.5495 57.5962ZM17.2072 56.0733C17.1366 56.0848 17.0395 56.1087 16.9164 56.1442L17.0441 56.8635L17.3558 56.8125C17.6466 56.7646 17.7692 56.6127 17.7235 56.356C17.7043 56.2466 17.6456 56.1667 17.548 56.1167C17.4503 56.0668 17.3366 56.0523 17.2072 56.0733Z" fill="white"/>
<path d="M22.6719 57.4815L23.1321 58.1154C23.0261 58.2692 22.8547 58.4061 22.6189 58.527C22.3867 58.6433 22.1307 58.7203 21.8507 58.7582C21.2077 58.8446 20.6582 58.7278 20.2011 58.4066C19.743 58.0774 19.4693 57.6059 19.3795 56.9915C19.2922 56.3926 19.4096 55.8741 19.7316 55.4361C20.0542 54.998 20.558 54.7328 21.2441 54.6404C21.5048 54.6054 21.7526 54.6104 21.9884 54.6563C22.2242 54.7018 22.4184 54.7777 22.5706 54.8851L22.2502 55.6244C21.9505 55.4985 21.6565 55.455 21.3687 55.4935C21.0337 55.539 20.7709 55.6828 20.5813 55.9246C20.3949 56.1623 20.3294 56.473 20.385 56.8561C20.4359 57.2048 20.5948 57.4795 20.8613 57.6793C21.1262 57.8716 21.4446 57.943 21.8149 57.8931C22.1463 57.8481 22.4319 57.7113 22.6719 57.4815Z" fill="white"/>
<path d="M26.0397 58.3794L23.5165 58.6487L23.0553 54.6522L25.5193 54.3895L25.618 55.2456L24.1039 55.4069L24.185 56.1092L25.5208 55.9669L25.6195 56.823L24.2842 56.9659L24.3678 57.6906L25.941 57.5228L26.0397 58.3794ZM23.0246 53.8635C23.0091 53.7301 23.0511 53.6172 23.1509 53.5238C23.2501 53.4299 23.3851 53.3745 23.5549 53.356C23.7056 53.34 23.838 53.3685 23.9523 53.4409C24.0671 53.5133 24.132 53.6142 24.1465 53.7441C24.1632 53.8884 24.1242 54.0103 24.0297 54.1087C23.9346 54.2076 23.8121 54.2651 23.6619 54.2811C23.4916 54.299 23.3472 54.2711 23.2282 54.1971C23.1098 54.1232 23.0418 54.0118 23.0246 53.8635ZM24.3958 53.7171C24.3808 53.5843 24.4239 53.4704 24.5252 53.377C24.6265 53.2831 24.7605 53.2276 24.9267 53.2096C25.0768 53.1937 25.2092 53.2221 25.324 53.2945C25.4383 53.367 25.5032 53.4684 25.5182 53.5977C25.5349 53.7421 25.4964 53.864 25.404 53.9624C25.311 54.0608 25.1874 54.1182 25.0331 54.1347C24.8628 54.1527 24.7184 54.1252 24.6 54.0508C24.481 53.9769 24.413 53.8655 24.3958 53.7171Z" fill="white"/>
<path d="M27.447 58.174L27.1328 54.1875C27.5956 54.1306 28.0158 54.0886 28.3929 54.0612C28.8535 54.0277 29.2088 54.0911 29.4592 54.2515C29.709 54.4118 29.8466 54.6466 29.871 54.9558C29.9017 55.3489 29.7666 55.6586 29.4649 55.8838L29.4659 55.8953C29.6493 55.9473 29.802 56.0477 29.9235 56.196C30.045 56.3449 30.1152 56.5357 30.1333 56.7684C30.165 57.1695 30.0424 57.4877 29.7656 57.723C29.4919 57.9537 29.119 58.0866 28.6468 58.1211C28.0947 58.1615 27.6948 58.179 27.447 58.174ZM28.6422 56.4682L28.2729 56.4952L28.3321 57.2455C28.4214 57.2619 28.5294 57.2654 28.6562 57.2564C29.0255 57.2295 29.1989 57.0746 29.1771 56.7919C29.1579 56.5517 28.9798 56.4438 28.6422 56.4682ZM28.4484 54.9213C28.3773 54.9263 28.2786 54.9413 28.1524 54.9658L28.21 55.693L28.5253 55.67C28.8193 55.6486 28.9559 55.5082 28.9356 55.2485C28.9268 55.1376 28.8764 55.0532 28.7839 54.9947C28.6915 54.9363 28.5793 54.9118 28.4484 54.9213Z" fill="white"/>
<path d="M31.7962 57.8931L30.8415 57.9331L30.6582 53.9161L31.6129 53.8762L31.6928 55.6264L32.9794 53.8182L34.1251 53.7703L32.6402 55.6898L34.4337 57.7817L33.2224 57.8327L31.7089 55.982L31.7962 57.8931Z" fill="white"/>
<path d="M38.049 57.7907L37.0934 57.8042L37.045 54.6454L36.1252 54.6584L36.0473 55.4176C35.9741 56.1159 35.864 56.6509 35.7165 57.0225C35.5684 57.3941 35.3872 57.6369 35.1716 57.7513C34.9566 57.8651 34.6751 57.8961 34.3281 57.8437L34.3318 56.9241C34.4195 56.9381 34.4923 56.9361 34.5499 56.9181C34.6076 56.9001 34.6694 56.8522 34.7358 56.7747C34.8023 56.6933 34.862 56.5719 34.9155 56.4106C35.0334 56.0639 35.1181 55.4656 35.169 54.6144L35.2163 53.8097L37.9872 53.7703L38.049 57.7907Z" fill="white"/>
<path d="M39.6876 57.8177L38.7324 57.7892L38.8623 53.7703L39.8174 53.7987L39.7676 55.3377L40.2932 55.3532C40.4121 54.8742 40.6573 54.4945 41.0292 54.2143C41.4011 53.9266 41.8576 53.7907 42.3988 53.8067C43.0434 53.8262 43.5586 54.031 43.9445 54.4221C44.3304 54.8052 44.5132 55.3142 44.493 55.9496C44.4733 56.5545 44.2562 57.048 43.8417 57.4301C43.4272 57.8047 42.9016 57.9825 42.2648 57.9636C41.7392 57.9481 41.2883 57.7832 40.9123 57.4695C40.5357 57.1554 40.3145 56.7368 40.2475 56.2138L39.74 56.1988L39.6876 57.8177ZM41.2452 55.8527C41.2338 56.1973 41.3341 56.4895 41.5455 56.7298C41.7568 56.9696 42.016 57.0944 42.3225 57.1034C42.6923 57.1144 42.9748 57.0135 43.1686 56.8012C43.3628 56.5884 43.4656 56.2947 43.4781 55.9196C43.49 55.552 43.3976 55.2543 43.2018 55.026C43.006 54.7982 42.739 54.6789 42.4009 54.6689C42.0784 54.6594 41.8083 54.7643 41.5901 54.984C41.3715 55.2033 41.2567 55.493 41.2452 55.8527Z" fill="white"/>
<path d="M47.3328 53.9176L48.2859 53.9825L47.9919 57.9935L47.0388 57.9286L47.151 56.3931C46.9292 56.5355 46.6254 56.5934 46.24 56.5675C45.8904 56.5435 45.5975 56.4211 45.3601 56.1998C45.1228 55.9781 45.0205 55.6459 45.0527 55.2028L45.1581 53.7703L46.1112 53.8347L46.0265 54.9925C46.0078 55.2443 46.0447 55.4266 46.1361 55.538C46.2275 55.6499 46.3688 55.7123 46.5594 55.7253C46.7859 55.7408 47.0035 55.6843 47.2123 55.5565L47.3328 53.9176Z" fill="white"/>
<path d="M51.2446 58.2972L48.7188 58.0535L49.1358 54.0525L51.6024 54.2902L51.5131 55.1479L49.9975 55.0015L49.9243 55.7043L51.2612 55.8337L51.1718 56.6908L49.8349 56.562L49.7591 57.2877L51.3339 57.4396L51.2446 58.2972Z" fill="white"/>
<path d="M55.2069 59.0301L54.2591 58.9117L54.4756 57.3053L52.9653 57.117L52.7487 58.7234L51.8008 58.605L52.3389 54.6175L53.2868 54.7359L53.0806 56.2623L54.5909 56.4512L54.7971 54.9242L55.745 55.0426L55.2069 59.0301Z" fill="white"/>
<path d="M56.0986 56.9215C56.1994 56.3355 56.4861 55.8805 56.9577 55.5563C57.434 55.2287 57.9965 55.1163 58.6447 55.2197C59.2887 55.3226 59.7811 55.5933 60.1208 56.0318C60.4688 56.4719 60.5893 57.0014 60.4823 57.6213C60.3795 58.2182 60.0865 58.6757 59.6035 58.9949C59.1246 59.3141 58.5689 59.4234 57.9362 59.3225C57.2958 59.2201 56.8019 58.9494 56.4539 58.5094C56.1101 58.0703 55.9916 57.5408 56.0986 56.9215ZM57.1 57.0813C57.0424 57.4175 57.1089 57.7212 57.3 57.9924C57.488 58.2591 57.7493 58.4195 58.0832 58.4724C58.4603 58.5328 58.772 58.4679 59.0187 58.2781C59.2669 58.0813 59.4207 57.8086 59.4809 57.4614C59.5427 57.1023 59.4788 56.7951 59.2887 56.5398C59.0955 56.2796 58.8317 56.1233 58.4977 56.0698C58.1523 56.0149 57.848 56.0808 57.5857 56.2676C57.3234 56.4549 57.1613 56.7261 57.1 57.0813Z" fill="white"/>
<path fill-rule="evenodd" clip-rule="evenodd" d="M22.5801 43.9374C23.8162 43.5963 24.3953 43.2546 24.4151 41.3425C24.4151 43.1182 25.244 43.9374 26.5462 43.9374C25.2243 43.9374 24.4151 44.825 24.4151 46.3275C24.4151 44.825 23.8775 44.0738 22.5801 43.9374Z" fill="#FFF8E4"/>
<path fill-rule="evenodd" clip-rule="evenodd" d="M24.3724 41.0601C24.8783 41.0971 24.7391 41.8958 24.8367 42.3179C25.0009 43.0286 25.5893 43.6146 26.5201 43.656C26.5201 43.656 26.7315 43.6935 26.8208 43.8348C26.9782 44.0846 26.7689 44.3938 26.383 44.4063C25.9856 44.4277 25.5893 44.5526 25.3068 44.8184C24.8684 45.2304 24.751 45.8573 24.7464 46.4222C24.7464 46.4222 24.7261 46.5981 24.6259 46.69C24.3303 46.9622 24.0613 46.668 23.9226 45.7654C23.8198 45.0941 23.263 44.4907 22.4761 44.4013C22.4761 44.4013 22.2725 44.3653 22.1832 44.214C22.0325 43.9592 22.3016 43.707 22.6802 43.5921C23.5248 43.3259 23.9507 42.5311 23.9673 41.4287C23.9673 41.4287 23.9855 41.0586 24.3724 41.0601ZM24.3651 43.3179C24.1963 43.5951 23.9595 43.8283 23.6759 43.9917C23.9823 44.1675 24.2239 44.4292 24.3958 44.7304C24.7349 44.1815 24.8554 44.187 25.0549 44.0516C25.0549 44.0516 25.2408 44.1715 24.885 43.8823C24.6425 43.678 24.403 43.2504 24.3651 43.3179Z" fill="#FF9D00"/>
<path fill-rule="evenodd" clip-rule="evenodd" d="M48.8633 37.7236C50.0989 37.3825 50.6786 37.0408 50.6983 35.1287C50.6983 36.9039 51.5267 37.7236 52.8294 37.7236C51.507 37.7236 50.6983 38.6112 50.6983 40.1137C50.6983 38.6112 50.1602 37.8595 48.8633 37.7236Z" fill="#FFF8E4"/>
<path fill-rule="evenodd" clip-rule="evenodd" d="M50.6751 34.8462C51.1124 34.8782 51.033 35.506 51.1031 35.9231C51.2334 36.6928 51.8593 37.4311 52.7947 37.4406C52.7947 37.4406 53.1479 37.5155 53.1775 37.7747C53.2378 38.3057 52.1642 38.0829 51.609 38.6044C51.1706 39.0165 51.0537 39.6434 51.0491 40.2083C51.0491 40.2083 51.0407 40.3726 50.9286 40.476C50.6278 40.7523 50.3635 40.4536 50.2253 39.551C50.1219 38.8771 49.6176 38.3112 48.7513 38.1833C48.7513 38.1833 48.6084 38.1444 48.5347 38.066C48.3352 37.8527 48.3607 37.568 48.9829 37.3777C49.8093 37.1189 50.2523 36.3751 50.27 35.2148C50.27 35.2148 50.285 34.8447 50.6751 34.8462ZM50.6673 37.1039C50.4367 37.483 49.8612 37.7053 50.0388 37.8142C50.0388 37.8142 50.4684 38.1129 50.6985 38.5165C51.2932 37.5525 51.6365 38.0345 51.1872 37.6679C50.9452 37.4641 50.7057 37.0365 50.6673 37.1039Z" fill="#FF9D00"/>
<path fill-rule="evenodd" clip-rule="evenodd" d="M57.0879 41.6901C59.2719 41.0132 60.2962 40.3353 60.331 36.541C60.331 40.0641 61.7957 41.6901 64.0971 41.6901C61.7609 41.6901 60.331 43.4519 60.331 46.4331C60.331 43.4519 59.3805 41.9603 57.0879 41.6901Z" fill="#FFF8E4"/>
<path fill-rule="evenodd" clip-rule="evenodd" d="M60.2935 35.976C60.8467 36.0324 60.5642 37.2382 60.9142 38.5475C61.1931 39.59 61.8538 40.6395 62.998 40.9827C63.427 41.1111 64.0799 41.127 64.0799 41.127C64.5183 41.194 64.6523 41.8449 63.8415 41.8788C63.0738 41.9208 62.3238 42.205 61.7868 42.756C60.8846 43.6811 60.667 45.0333 60.6618 46.2437C60.6618 46.2437 60.6441 46.4395 60.5101 46.5389C60.2795 46.7102 59.903 46.5934 59.8827 46.2442C59.8822 46.1088 59.8822 46.1093 59.8801 45.9744C59.8702 45.6103 59.8495 45.2461 59.7996 44.8845C59.6526 43.8065 59.1898 42.6196 58.0643 42.1421C57.6291 41.9573 56.9419 41.8644 56.9419 41.8644C56.5482 41.757 56.4682 41.2884 57.2026 41.0496C57.8483 40.8338 58.5203 40.5741 58.9795 40.0715C59.9014 39.0635 59.8661 37.5969 59.8827 36.3451C59.8827 36.3451 59.958 35.9745 60.2935 35.976ZM60.3003 39.2508C59.9881 40.1969 59.2735 40.9872 58.3453 41.4173C58.3453 41.4173 59.5482 42.0532 60.0416 42.9938C60.1819 43.2615 60.3211 43.6621 60.3211 43.6621C60.346 43.5992 60.3725 43.5373 60.3995 43.4753C60.7761 42.6396 61.4118 41.9103 62.2485 41.5057C62.2485 41.5057 61.7832 41.2639 61.4637 40.9852C60.9262 40.5161 60.5584 39.8927 60.3143 39.2284C60.3143 39.2284 60.3221 39.1834 60.3003 39.2508Z" fill="#FF9D00"/>
<path fill-rule="evenodd" clip-rule="evenodd" d="M23.0215 29.172C25.0788 28.7284 26.1768 28.0636 26.2111 24.9607C26.2111 27.8418 27.6519 29.172 29.9159 29.172C27.6176 29.172 26.2111 30.6125 26.2111 33.0506C26.2111 30.6125 25.0793 29.172 23.0215 29.172Z" fill="#FFF8E4"/>
<path fill-rule="evenodd" clip-rule="evenodd" d="M26.2159 24.679C26.7124 24.7479 26.5514 25.5226 26.647 26.119C26.8282 27.2489 27.5201 28.4072 28.7625 28.7494C29.2221 28.8758 29.9202 28.8902 29.9202 28.8902C30.17 28.9247 30.2043 29.0251 30.2458 29.128C30.4458 29.625 29.3561 29.5761 28.5931 29.8333C27.9782 30.0411 27.4432 30.4497 27.102 30.9981C26.7015 31.6415 26.5711 32.4032 26.5675 33.144C26.5675 33.144 26.5602 33.2609 26.5088 33.3403C26.3021 33.6595 25.8061 33.5556 25.7837 32.8742C25.778 32.7384 25.7697 32.6025 25.7557 32.4671C25.6435 31.3692 25.1392 30.124 23.8932 29.7589C23.5182 29.649 22.9499 29.636 22.9499 29.636C22.8206 29.618 22.7848 29.5915 22.7271 29.5416C22.4664 29.3153 22.4991 29.0001 23.2657 28.8143C23.9321 28.646 24.6229 28.4092 25.0654 27.8887C25.7344 27.103 25.7754 26.0101 25.7884 25.0471C25.7884 25.0471 25.8004 24.659 26.2159 24.679ZM26.2029 27.4442C25.9074 28.2004 25.3127 28.8288 24.5523 29.1774C24.5523 29.1774 25.0114 29.4247 25.3184 29.6979C25.7261 30.0606 26.0175 30.5236 26.2138 31.0206C26.5566 30.2753 27.1799 29.6385 27.9584 29.2754C27.9584 29.2754 26.7207 28.5771 26.2221 27.4502C26.2221 27.4502 26.2211 27.3957 26.2029 27.4442Z" fill="#FFBF00"/>
<path fill-rule="evenodd" clip-rule="evenodd" d="M16.1191 15.7302C17.8388 15.3047 18.7566 14.6658 18.7852 11.6858C18.7852 14.453 19.9891 15.7302 21.8813 15.7302C19.9606 15.7302 18.7852 17.1138 18.7852 19.455C18.7852 17.1138 17.8394 15.7302 16.1191 15.7302Z" fill="#FFF8E4"/>
<path fill-rule="evenodd" clip-rule="evenodd" d="M18.8387 11.4033C19.4464 11.4592 19.1929 12.5641 19.3664 13.2989C19.5705 14.165 20.1055 15.0461 21.043 15.3278C21.404 15.4367 21.9519 15.4487 21.9519 15.4487C22.1966 15.4817 22.2303 15.5771 22.2734 15.675C22.3851 15.9277 22.2324 16.175 21.7167 16.202C21.1516 16.2379 20.5932 16.4307 20.1803 16.8024C19.4085 17.4957 19.2121 18.5886 19.2085 19.5481C19.2085 19.5481 19.1374 19.8828 18.8714 19.9177C18.1651 20.0106 18.4081 18.4707 18.1884 17.7974C17.9132 16.9532 17.1439 16.2025 16.1503 16.1965C16.1503 16.1965 15.2991 15.675 16.3555 15.3798C16.8401 15.2389 17.3335 15.0471 17.6784 14.6855C18.4211 13.9058 18.4154 12.7499 18.4294 11.7724C18.4294 11.7724 18.4362 11.4013 18.8387 11.4033ZM18.8429 14.2379C18.592 14.8713 18.1235 15.4177 17.507 15.7429C17.507 15.7429 17.8612 15.9547 18.1048 16.189C18.445 16.5161 18.6855 16.9237 18.8543 17.3543C19.1452 16.7174 19.6282 16.1665 20.2598 15.8293C20.2598 15.8293 19.8152 15.5656 19.5295 15.2704C19.2345 14.9657 19.0138 14.6036 18.8496 14.2194C18.8475 14.2259 18.845 14.2319 18.8429 14.2379Z" fill="#FFBF00"/>
<path fill-rule="evenodd" clip-rule="evenodd" d="M36.5293 12.8397C37.981 12.48 38.7559 11.9411 38.7798 9.4256C38.7798 11.7613 39.7963 12.8397 41.3934 12.8397C39.7719 12.8397 38.7798 14.0075 38.7798 15.984C38.7798 14.0075 37.9815 12.8397 36.5293 12.8397Z" fill="#FFF8E4"/>
<path fill-rule="evenodd" clip-rule="evenodd" d="M38.7784 9.14367C39.3388 9.2126 39.1098 10.1267 39.2661 10.788C39.4832 11.7076 40.2831 12.5503 41.3603 12.5563C41.3603 12.5563 41.6309 12.5947 41.715 12.7805C41.8309 13.0353 41.62 13.288 41.1946 13.31C40.7407 13.339 40.2914 13.4903 39.9553 13.7835C39.3014 14.354 39.1409 15.269 39.1342 16.0777C39.1342 16.0777 39.116 16.2725 38.983 16.3714C38.6994 16.5822 38.3738 16.5463 38.3504 15.8165C38.3426 15.6557 38.3317 15.4953 38.311 15.336C38.2959 15.2141 38.2756 15.0932 38.2502 14.9733C38.0777 14.1661 37.4867 13.3115 36.492 13.3055C36.492 13.3055 36.3627 13.296 36.2801 13.2436C35.9971 13.0642 35.9628 12.6931 36.6478 12.5018C37.041 12.3874 37.4404 12.2346 37.7214 11.9484C38.3525 11.306 38.3431 10.333 38.3551 9.5118C38.3551 9.5118 38.379 9.12669 38.7784 9.14367ZM38.7623 11.7561C38.553 12.2151 38.2029 12.6072 37.7542 12.8679C37.7542 12.8679 38.4823 13.4109 38.7748 14.0672C38.7748 14.0672 39.1513 13.358 39.799 12.9608C39.799 12.9608 39.9559 13.0033 39.745 12.8704C39.3222 12.5937 38.9981 12.1936 38.7805 11.7466C38.7805 11.7466 38.7862 11.7026 38.7623 11.7561Z" fill="#FFBF00"/>
<path fill-rule="evenodd" clip-rule="evenodd" d="M10.9824 34.5347C13.369 33.7585 14.4883 32.9812 14.5262 28.6323C14.5262 32.6705 16.1265 34.5347 18.6414 34.5347C16.0886 34.5347 14.5262 36.5538 14.5262 39.9711C14.5262 36.5538 13.4874 34.8444 10.9824 34.5347Z" fill="#FFF8E4"/>
<path fill-rule="evenodd" clip-rule="evenodd" d="M14.4745 28.0676C15.0204 28.1266 14.8282 28.9423 14.8968 29.6546C14.9191 29.8874 14.9487 30.1192 14.9876 30.3495C15.0157 30.5153 15.0484 30.6806 15.0868 30.8445C15.3798 32.0913 16.0815 33.4061 17.4703 33.8192C17.9238 33.954 18.612 33.972 18.612 33.972C19.0462 34.0429 19.1937 34.6863 18.3512 34.7243C17.6391 34.7638 16.9385 35.0005 16.3973 35.4476C15.1242 36.4981 14.8474 38.2594 14.8417 39.7815C14.8417 39.7815 14.7981 40.0512 14.596 40.1286C14.3618 40.2181 14.0782 40.0412 14.0626 39.782C14.061 39.4138 14.0507 39.0457 14.0205 38.6785C14.0039 38.4812 13.9826 38.2844 13.9541 38.0881C13.9333 37.9467 13.9094 37.8054 13.8808 37.6655C13.6663 36.606 13.1267 35.509 12.0479 35.028C11.5721 34.8157 10.8159 34.7078 10.8159 34.7078C10.4835 34.6114 10.4243 34.1284 10.7826 33.9895C11.6126 33.7168 12.5101 33.402 13.0872 32.7197C14.0881 31.5358 14.047 29.8754 14.0626 28.4378C14.0626 28.4378 14.1244 28.0666 14.4745 28.0676ZM14.487 31.6222C14.1525 32.7717 13.3183 33.7512 12.1933 34.2647C12.1933 34.2647 12.8322 34.5405 13.2466 34.8906C13.8736 35.4206 14.273 36.1639 14.5025 36.9422C14.8822 35.8652 15.6286 34.8891 16.6736 34.3776C16.6736 34.3776 16.9037 34.4336 16.5869 34.2742C15.5434 33.7302 14.8542 32.7112 14.4921 31.6033C14.4901 31.6098 14.4885 31.6158 14.487 31.6222Z" fill="#FF9D00"/>
<path fill-rule="evenodd" clip-rule="evenodd" d="M49.1602 16.619C52.1534 15.8917 53.7505 14.8002 53.8004 9.70807C53.8004 14.4366 55.8961 16.619 59.1896 16.619C55.8463 16.619 53.8004 18.9837 53.8004 22.9849C53.8004 18.9837 52.1539 16.619 49.1602 16.619Z" fill="#FFF8E4"/>
<path fill-rule="evenodd" clip-rule="evenodd" d="M53.909 9.14313C54.913 9.24503 54.3494 11.0848 54.739 12.5074C55.2563 14.3971 56.895 16.0411 59.2727 16.0536C59.2727 16.0536 60.5364 17.0151 59.0546 17.0566C57.8294 17.1041 56.6192 17.5561 55.8022 18.4623C54.7073 19.6766 54.4066 21.37 54.3998 22.921C54.3998 22.921 53.3943 24.2018 53.3564 22.5614C53.3403 22.0144 53.294 21.4684 53.1974 20.9309C53.1668 20.7616 53.1309 20.5927 53.0899 20.4254C52.6718 18.728 51.2803 17.0651 49.2371 17.0526C49.2371 17.0526 48.8475 16.9947 48.7483 16.7144C48.419 15.7848 50.9266 15.8253 52.0153 14.7028C53.3226 13.3556 53.3408 11.336 53.361 9.63616C53.361 9.63616 53.4613 9.14163 53.909 9.14313ZM53.9038 13.4356C53.4696 14.7373 52.5134 15.8532 51.2315 16.4337C51.6714 16.6215 51.8325 16.7294 52.1046 16.9287C52.9938 17.5811 53.575 18.5507 53.9251 19.5857C53.9251 19.5857 54.8558 17.4143 56.7371 16.5591C56.7371 16.5591 54.645 15.3387 53.9256 13.3671C53.9183 13.3901 53.9111 13.4126 53.9038 13.4356Z" fill="#FF9D00"/>
<defs>
<linearGradient id="paint0_linear" x1="33.3416" y1="35.1445" x2="37.9313" y2="35.1445" gradientUnits="userSpaceOnUse">
<stop stop-color="#FF6599"/>
<stop offset="0.52" stop-color="#FF6E7B"/>
<stop offset="1" stop-color="#FF8C1A"/>
</linearGradient>
<linearGradient id="paint1_linear" x1="24.9769" y1="23.3392" x2="49.599" y2="23.2978" gradientUnits="userSpaceOnUse">
<stop stop-color="#FF98BA"/>
<stop offset="0.52" stop-color="#FF9594"/>
<stop offset="1" stop-color="#FF8C1A"/>
</linearGradient>
</defs>
</svg>
