<svg width="76" height="71" viewBox="0 0 76 71" fill="none" xmlns="http://www.w3.org/2000/svg">
<path d="M37.9332 57.5576C52.2351 57.5576 63.8292 46.4035 63.8292 32.6443C63.8292 18.885 52.2351 7.73096 37.9332 7.73096C23.6312 7.73096 12.0371 18.885 12.0371 32.6443C12.0371 46.4035 23.6312 57.5576 37.9332 57.5576Z" fill="#FFD24B"/>
<path fill-rule="evenodd" clip-rule="evenodd" d="M45.9689 56.5193L29.0664 43.3539L52.4826 21.8538C52.4826 21.8538 58.9356 26.8476 63.6814 30.4731L63.8065 32.8539C63.8065 43.9018 56.3156 53.2799 45.9689 56.5193Z" fill="#FFBF00"/>
<path fill-rule="evenodd" clip-rule="evenodd" d="M29.437 43.2998H45.3696L51.8927 22.2528L43.1244 27.7975L37.564 19.8765L31.7897 27.7975L23.3418 22.2528L29.437 43.2998Z" fill="#FFF3CE"/>
<path fill-rule="evenodd" clip-rule="evenodd" d="M35.3473 33.8671L29.1846 39.4178L24.6621 23.8011L31.4848 28.2794C31.8218 28.4732 32.2387 28.3948 32.4781 28.105C34.2029 25.7388 35.9278 23.3725 37.6527 21.0063L42.2905 27.613L39.6897 29.9558C39.1673 29.4992 38.4752 29.229 37.7181 29.229C36.0618 29.229 34.717 30.5227 34.717 32.1162C34.717 32.7761 34.9475 33.3845 35.3473 33.8671Z" fill="#FFF8E4"/>
<path fill-rule="evenodd" clip-rule="evenodd" d="M28.0391 38.5182H46.8871L45.4218 42.9258H29.3153L28.0391 38.5182Z" fill="#FFECB4"/>
<path fill-rule="evenodd" clip-rule="evenodd" d="M52.2044 21.6977C52.5741 21.821 52.7912 22.1807 52.6993 22.5608L46.4275 42.7037C46.226 43.358 45.3537 44.1018 44.0956 44.1018H30.9275C30.0136 44.1018 28.8999 43.6797 28.5042 42.357C27.4455 38.8184 22.7678 22.5488 22.7678 22.5488C22.6416 21.9814 23.2948 21.4654 23.8649 21.7926L31.7265 26.9526L37.1478 19.5247C37.4723 19.217 37.9931 19.2435 38.2771 19.6001L43.4404 26.9557L51.692 21.7436C51.8155 21.6937 51.856 21.6257 52.2044 21.6977ZM46.024 39.2604H29.0992C29.0992 39.2604 29.4897 40.6097 29.7831 41.6227C29.971 42.2706 30.5842 42.7192 31.2836 42.7192C34.0714 42.7192 41.0254 42.7192 43.7914 42.7192C44.4804 42.7192 45.0874 42.2841 45.2841 41.6487C45.5988 40.6326 46.024 39.2604 46.024 39.2604L46.4275 37.9602L50.7594 23.982L43.6371 28.4857C43.3033 28.67 42.8858 28.5951 42.647 28.2949L37.6707 21.2061C35.9458 23.5724 34.2209 25.9386 32.496 28.3049C32.2567 28.5946 31.8397 28.673 31.5028 28.4792L24.6801 24.001L28.7223 37.9602H46.4275" fill="url(#paint0_linear)"/>
<path fill-rule="evenodd" clip-rule="evenodd" d="M29.002 39.2539H29.5004L30.9361 37.9531H28.625L29.002 39.2539Z" fill="url(#paint1_linear)"/>
<path fill-rule="evenodd" clip-rule="evenodd" d="M29.5649 39.0829H29.0664L29.1697 39.4402L29.5649 39.0829Z" fill="#FFF8E4"/>
<path d="M37.6462 34.9725C39.304 34.9725 40.6479 33.6797 40.6479 32.0849C40.6479 30.4901 39.304 29.1973 37.6462 29.1973C35.9884 29.1973 34.6445 30.4901 34.6445 32.0849C34.6445 33.6797 35.9884 34.9725 37.6462 34.9725Z" fill="#FFD24B"/>
<path fill-rule="evenodd" clip-rule="evenodd" d="M37.7555 28.9149C40.3537 28.9294 41.8636 31.5198 40.7837 33.802C40.212 35.0098 38.6901 35.816 37.1345 35.5867C35.4906 35.345 33.9532 34.0782 34.2372 31.7446C34.4293 30.1667 36.0301 28.9054 37.7555 28.9149ZM37.6781 29.9139C34.907 30.2056 34.1422 33.4783 36.7726 34.5133C38.5899 35.2276 41.0448 33.0902 39.8636 31.1137C39.4217 30.3739 38.6257 29.9084 37.6781 29.9139Z" fill="url(#paint2_linear)"/>
<path d="M44.2091 34.043C44.8703 34.043 45.4064 33.5273 45.4064 32.8912C45.4064 32.255 44.8703 31.7393 44.2091 31.7393C43.5478 31.7393 43.0117 32.255 43.0117 32.8912C43.0117 33.5273 43.5478 34.043 44.2091 34.043Z" fill="#FF8C1A"/>
<path d="M31.1446 34.043C31.8059 34.043 32.3419 33.5273 32.3419 32.8912C32.3419 32.255 31.8059 31.7393 31.1446 31.7393C30.4833 31.7393 29.9473 32.255 29.9473 32.8912C29.9473 33.5273 30.4833 34.043 31.1446 34.043Z" fill="#FF8C1A"/>
<path fill-rule="evenodd" clip-rule="evenodd" d="M35.2661 33.8332C34.8704 33.4141 34.6445 32.7418 34.6445 32.0844C34.6445 30.491 35.9893 29.1973 37.6457 29.1973C38.4027 29.1973 39.1556 29.4126 39.6265 29.9056" fill="#FFDF80"/>
<path fill-rule="evenodd" clip-rule="evenodd" d="M37.5077 28.9164C38.4797 28.8905 39.3769 29.1832 39.9584 29.7826L39.1998 30.4644C37.8976 29.1232 34.7012 30.5998 35.1706 32.815C35.2397 33.1412 35.3264 33.5038 35.5595 33.7546L34.8108 34.3935C33.0896 32.393 34.4619 28.9979 37.5077 28.9164Z" fill="url(#paint3_linear)"/>
<path fill-rule="evenodd" clip-rule="evenodd" d="M31.1451 31.7393C31.8061 31.7393 32.3425 32.2558 32.3425 32.8917C32.3425 33.5275 31.8061 34.0435 31.1451 34.0435C30.4842 34.0435 29.9473 33.5275 29.9473 32.8917C29.9473 32.2558 30.4842 31.7393 31.1451 31.7393Z" fill="#FFC099"/>
<path fill-rule="evenodd" clip-rule="evenodd" d="M42.3084 27.8128L37.6707 21.2061C35.9458 23.5724 34.2209 25.9386 32.496 28.3049C32.2567 28.5946 31.8397 28.673 31.5028 28.4792L24.6801 24.001L29.2026 39.6176L28.6112 40.1506L28.0198 40.6836L22.7678 22.5488C22.6416 21.9814 23.2948 21.4654 23.8649 21.7926L31.7265 26.9527L37.1478 19.5247C37.4723 19.217 37.9931 19.2435 38.2771 19.6001L43.3708 26.8562L42.8396 27.3343L42.3084 27.8128Z" fill="url(#paint4_linear)"/>
<path fill-rule="evenodd" clip-rule="evenodd" d="M38.0946 0.670907C50.1506 0.780303 61.824 7.64177 67.3802 17.918C72.0933 26.6357 72.2906 37.4574 67.9182 46.32C61.7274 58.868 46.5394 66.7031 31.7969 64.0736C21.5125 62.2398 12.3346 55.4278 7.84122 46.32C3.4636 37.4464 3.67077 26.6267 8.37967 17.918C13.924 7.66275 25.5122 0.781302 37.6652 0.670907C37.808 0.670407 37.9513 0.670407 38.0946 0.670907ZM37.6715 1.66996C25.9691 1.77586 14.6758 8.43801 9.30078 18.3791C4.73571 26.8225 4.54463 37.3081 8.77947 45.8919C14.7771 58.0488 29.49 65.6391 43.7735 63.0915C53.7344 61.3152 62.6267 54.7155 66.9799 45.8919C71.221 37.2951 71.0226 26.82 66.4591 18.3791C61.0867 8.44251 49.8656 1.77685 38.0879 1.66996C37.9493 1.66946 37.8106 1.66946 37.6715 1.66996Z" fill="#FFECB4"/>
<path fill-rule="evenodd" clip-rule="evenodd" d="M19.314 65.7852C19.314 65.7852 14.6269 67.3736 6.23302 70.2174C7.02069 65.8985 8.39665 62.3684 8.39665 62.3684L0.734375 59.1979L11.607 54.9L19.314 65.7852Z" fill="#F20D59"/>
<path fill-rule="evenodd" clip-rule="evenodd" d="M18.5414 63.6558L19.423 65.7307L15.4141 64.5498L18.5414 63.6558Z" fill="#DA0C51"/>
<path fill-rule="evenodd" clip-rule="evenodd" d="M56.5156 65.7852C56.5156 65.7852 61.2032 67.3736 69.5971 70.2174C68.5062 65.1987 67.4335 62.3684 67.4335 62.3684L75.0957 59.1979L64.2231 54.9L56.5156 65.7852Z" fill="#F20D59"/>
<path fill-rule="evenodd" clip-rule="evenodd" d="M57.4284 63.6558L56.5156 65.7307L60.5251 64.5498L57.4284 63.6558Z" fill="#DA0C51"/>
<path fill-rule="evenodd" clip-rule="evenodd" d="M38.0122 61.418C33.1517 61.418 27.2782 61.7837 15.392 64.5395C15.392 64.5395 12.7294 57.7345 10.8633 52.6554C19.4721 50.422 28.9626 49.2511 38.0122 49.2511C47.0619 49.2511 53.0538 49.873 65.1612 52.6554C64.2629 54.9177 60.633 64.5395 60.633 64.5395C48.9072 61.7097 42.8733 61.418 38.0122 61.418Z" fill="#FF3377"/>
<path d="M23.6619 58.5954L22.5471 58.7113L22.0195 54.0185L23.1416 53.9016L24.8691 55.7228L26.069 53.5974L27.121 53.488L27.648 58.1808L26.5332 58.2967L26.1972 55.3067L25.044 57.2782L24.8836 57.2952L23.3285 55.6254L23.6619 58.5954Z" fill="white"/>
<path d="M31.9065 57.9121L28.9334 58.0924L28.625 53.3811L31.528 53.2053L31.594 54.2148L29.8104 54.3232L29.8644 55.1509L31.4382 55.0555L31.5046 56.0649L29.9303 56.1603L29.9864 57.015L31.8401 56.9026L31.9065 57.9121Z" fill="white"/>
<path d="M33.3926 58.8142L32.3417 58.8392L32.2949 57.019L32.8204 57.0065C32.9559 56.8237 33.0899 56.49 33.2223 56.0055C33.3593 55.512 33.4377 54.9191 33.457 54.2258L33.4751 53.2813L36.6772 53.2053L36.7728 56.9126L37.4384 56.8971L37.4851 58.7168L36.4342 58.7423L36.4135 57.9331L33.3718 58.0055L33.3926 58.8142ZM34.5873 54.2668L34.5307 55.064C34.5074 55.4421 34.4425 55.8307 34.336 56.2288C34.2337 56.6134 34.1397 56.8631 34.0535 56.9775L35.6512 56.9396L35.5822 54.2428L34.5873 54.2668Z" fill="white"/>
<path d="M41.5302 55.0555L39.2938 57.9441L38.3125 57.9246L38.4158 53.2053L39.5368 53.2278L39.473 56.1604L41.7098 53.2718L42.6906 53.2917L42.5878 58.011L41.4663 57.988L41.5302 55.0555Z" fill="white"/>
<path d="M47.2368 53.4306L48.363 53.5005L46.4787 56.992C46.2809 57.3626 46.0602 57.6319 45.8172 57.7992C45.5742 57.9665 45.2918 58.0405 44.9699 58.0205C44.8349 58.012 44.6962 57.982 44.5545 57.9306C44.4127 57.8786 44.3089 57.8242 44.2424 57.7657L44.6957 56.8746C44.8115 56.9586 44.9231 57.004 45.0306 57.0105C45.2123 57.022 45.338 56.9665 45.4071 56.8447L45.4792 56.7073L43.5996 53.2053L44.8655 53.2837L46.0893 55.6703L47.2368 53.4306Z" fill="white"/>
<path d="M49.8506 58.581L48.7363 58.4621L49.2774 53.7703L50.3989 53.8902L51.6757 56.028L53.3253 54.2028L54.3772 54.3152L53.8357 59.0065L52.7214 58.8877L53.0662 55.8981L51.4966 57.583L51.3361 57.566L50.1933 55.6119L49.8506 58.581Z" fill="white"/>
<path fill-rule="evenodd" clip-rule="evenodd" d="M44.7734 12.747C47.434 12.1001 48.8541 11.1295 48.8987 6.60132C48.8987 10.8063 50.7617 12.747 53.6891 12.747C50.7171 12.747 48.8987 14.8495 48.8987 18.4076C48.8987 14.8495 47.435 12.747 44.7734 12.747Z" fill="#FFF8E4"/>
<path fill-rule="evenodd" clip-rule="evenodd" d="M48.9163 6.03632C49.8478 6.12523 49.382 7.87757 49.7081 9.06944C50.1687 10.7513 51.7476 12.171 53.6833 12.1815C53.6833 12.1815 55.0577 13.1216 53.4294 13.186C52.3598 13.2405 51.312 13.6481 50.6064 14.4538C49.6702 15.5223 49.4142 16.9919 49.409 18.3436C49.409 18.3436 48.9879 19.1633 48.5144 18.6868C47.976 18.1453 48.4339 17.0798 48.0315 15.779C47.6083 14.4113 46.3726 13.19 44.7614 13.1805C44.7614 13.1805 43.7235 12.4307 44.8751 12.137C45.7152 11.9152 46.5886 11.6175 47.1893 10.9981C48.3415 9.81023 48.3519 8.02943 48.3706 6.52936C48.3706 6.52936 48.4734 6.03482 48.9163 6.03632ZM48.9199 10.059C48.531 11.1385 47.7324 12.0671 46.6701 12.5736C47.7631 13.0821 48.5263 14.0892 48.9376 15.2256C49.3935 14.1431 50.2133 13.2165 51.2824 12.6925C51.2824 12.6925 49.5845 11.6275 48.9521 10.0685C48.9521 10.0685 48.9516 9.96758 48.9199 10.059Z" fill="#FFBF00"/>
<path fill-rule="evenodd" clip-rule="evenodd" d="M12.3301 42.4914C14.1328 42.1028 15.095 41.5199 15.1251 38.8006C15.1251 41.3261 16.3868 42.4914 18.3703 42.4914C16.3567 42.4914 15.1251 43.7536 15.1251 45.8905C15.1251 43.7536 14.1334 42.4914 12.3301 42.4914Z" fill="#FFF8E4"/>
<path fill-rule="evenodd" clip-rule="evenodd" d="M15.1422 38.2364C15.6064 38.2974 15.4833 39.0301 15.5643 39.5371C15.7211 40.5162 16.326 41.5142 17.3832 41.8049C17.7819 41.9143 18.3863 41.9267 18.3863 41.9267C18.7155 41.9687 18.7181 42.1046 18.7378 42.2524C18.838 43.0077 16.8769 42.3643 15.9568 43.8433C15.6105 44.4003 15.4984 45.0601 15.4958 45.7004C15.4958 45.7004 15.4532 45.9762 15.2393 46.0506C14.975 46.1435 14.7263 46.0601 14.7138 45.5116C14.6712 44.3588 14.3337 43.142 13.0907 42.7784C12.7662 42.6835 12.276 42.673 12.276 42.673C11.8393 42.616 11.6015 42.0901 12.5424 41.8613C13.0606 41.7304 13.5928 41.5526 13.963 41.204C14.6717 40.5356 14.7024 39.4842 14.7169 38.6031C14.7169 38.6031 14.7154 38.216 15.1422 38.2364ZM15.1235 40.8433C14.8607 41.4437 14.3768 41.9397 13.7735 42.2329C13.7735 42.2329 14.7637 42.8568 15.1375 43.7134C15.1375 43.7134 15.6702 42.7519 16.5649 42.3068C16.5649 42.3068 15.5638 41.7115 15.1396 40.8159C15.1396 40.8159 15.1281 40.8323 15.1235 40.8433Z" fill="#FFBF00"/>
<path fill-rule="evenodd" clip-rule="evenodd" d="M23.3418 13.7555C25.0625 13.3294 25.981 12.6906 26.0096 9.70807C26.0096 12.4773 27.2142 13.7555 29.1073 13.7555C27.1857 13.7555 26.0096 15.1406 26.0096 17.4843C26.0096 15.1406 25.063 13.7555 23.3418 13.7555Z" fill="#FFF8E4"/>
<path fill-rule="evenodd" clip-rule="evenodd" d="M26.0062 9.42561C26.6246 9.48255 26.3577 10.5759 26.5337 11.3227C26.7383 12.1898 27.2731 13.0714 28.2119 13.3542C28.5732 13.4631 29.1216 13.475 29.1216 13.475C29.5546 13.5335 29.6709 14.1883 28.8858 14.2283C28.3204 14.2643 27.7622 14.4575 27.3484 14.8292C26.5763 15.523 26.3795 16.6169 26.3759 17.5779C26.3759 17.5779 26.0768 18.1753 25.7185 17.8481C25.3358 17.4985 25.6676 16.7807 25.3561 15.8252C25.0804 14.98 24.3109 14.2288 23.3166 14.2228C23.3166 14.2228 23.1125 14.2018 23.0123 14.0789C22.8166 13.8387 22.816 13.6024 23.5217 13.4056C23.9973 13.2678 24.4817 13.0819 24.826 12.7308C25.5861 11.9561 25.583 10.7872 25.597 9.79473C25.597 9.79473 25.6064 9.42361 26.0062 9.42561ZM26.0098 12.2628C25.7595 12.8966 25.2907 13.4436 24.6733 13.7687C24.6733 13.7687 25.0279 13.981 25.272 14.2158C25.6126 14.5435 25.8525 14.9515 26.0218 15.3826C26.0441 15.3342 26.0674 15.2862 26.0913 15.2388C26.3894 14.6623 26.8478 14.1668 27.4283 13.8561C27.4283 13.8561 27.0062 13.6054 26.7295 13.3282C26.4184 13.016 26.1874 12.6419 26.0171 12.2433C26.015 12.2498 26.0124 12.2563 26.0098 12.2628Z" fill="#FFBF00"/>
<path fill-rule="evenodd" clip-rule="evenodd" d="M9.68945 26.2328C12.581 25.4345 13.9367 24.6348 13.983 20.1591C13.983 24.3151 15.9223 26.2328 18.9691 26.2328C15.8761 26.2328 13.983 28.3108 13.983 31.8274C13.983 28.3108 12.7243 26.5515 9.68945 26.2328Z" fill="#FFF8E4"/>
<path fill-rule="evenodd" clip-rule="evenodd" d="M14.0907 19.8765C14.813 19.955 14.4209 21.1943 14.6489 22.2802C14.9615 23.7723 15.9028 25.2694 17.5155 25.7445C18.015 25.8913 18.5353 25.9473 19.0561 25.9498C19.0561 25.9498 19.2752 25.9702 19.377 26.1151C19.5603 26.3769 19.5032 26.6781 18.7851 26.705C17.5623 26.7645 16.3556 27.2415 15.5876 28.1736C14.7226 29.2241 14.463 30.6253 14.4573 31.9206C14.4573 31.9206 14.4131 32.1903 14.2117 32.2673C13.6011 32.5 13.7065 31.0664 13.5362 30.1213C13.3036 28.8265 12.5361 27.5283 11.2105 27.0272C10.7365 26.8479 10.2349 26.752 9.73022 26.6971C9.73022 26.6971 9.5838 26.6691 9.50228 26.5931C9.3086 26.4113 9.39116 26.0572 9.66583 25.9647C10.7204 25.671 11.8321 25.3533 12.5621 24.5716C13.6452 23.4127 13.6597 21.7118 13.6784 20.2462C13.6784 20.2462 13.7407 19.875 14.0907 19.8765ZM14.1073 23.2713C13.842 24.1854 13.3228 25.0441 12.5367 25.5951C12.1493 25.8668 11.7178 26.0706 11.2744 26.242C11.2744 26.242 12.9686 26.8814 13.7008 28.2071C13.9173 28.5987 14.1203 29.2202 14.1203 29.2202C14.1421 29.1622 14.165 29.1048 14.1878 29.0473C14.6857 27.8485 15.6209 26.8394 16.8805 26.3344C16.8805 26.3344 16.1988 26.0332 15.7476 25.6825C14.9635 25.0731 14.4344 24.2074 14.1156 23.2803C14.1156 23.2803 14.1136 23.2488 14.1073 23.2713Z" fill="#FF9D00"/>
<path fill-rule="evenodd" clip-rule="evenodd" d="M61.0664 30.4208C62.9933 29.8889 63.8972 29.3559 63.9279 26.3729C63.9279 29.1426 65.2202 30.4208 67.2509 30.4208C65.1896 30.4208 63.9279 31.806 63.9279 34.1496C63.9279 31.806 63.0893 30.6336 61.0664 30.4208Z" fill="#FFF8E4"/>
<path fill-rule="evenodd" clip-rule="evenodd" d="M63.8987 26.0904C64.408 26.1374 64.2512 26.976 64.3556 27.5944C64.5295 28.6229 65.1256 29.7008 66.2502 30.017C66.6438 30.1274 67.2389 30.1398 67.2389 30.1398C67.4699 30.1708 67.5026 30.2592 67.5452 30.3357C67.6859 30.5884 67.5478 30.8656 66.986 30.8931C66.2362 30.9375 65.4984 31.2267 65.016 31.7957C64.4413 32.4745 64.272 33.3886 64.2683 34.2427C64.2683 34.2427 64.1972 34.5774 63.9314 34.6123C63.4267 34.6783 63.5191 33.7118 63.3893 33.0234C63.2366 32.2158 62.7532 31.4101 61.9266 31.0974C61.5408 30.951 60.939 30.8796 60.939 30.8796C60.5143 30.7772 60.4333 30.2972 61.2506 30.0549C61.8124 29.8831 62.3976 29.6693 62.7787 29.2612C63.4848 28.505 63.4755 27.3926 63.4895 26.4595C63.4895 26.4595 63.4963 26.0884 63.8987 26.0904ZM63.9111 28.8666C63.6328 29.5614 63.0762 30.1149 62.3732 30.445C62.3732 30.445 63.4822 31.0509 63.8987 32.017C63.8987 32.017 63.8374 32.2457 63.9994 31.9355C64.3229 31.3332 64.826 30.8272 65.4491 30.516C65.4491 30.516 64.3431 29.8247 63.9174 28.8616C63.9174 28.8616 63.9199 28.8431 63.9111 28.8666Z" fill="#FF9D00"/>
<path fill-rule="evenodd" clip-rule="evenodd" d="M58.8633 44.22C60.0985 43.8783 60.678 43.5366 60.6977 41.6251C60.6977 43.4003 61.5259 44.22 62.8276 44.22C61.5062 44.22 60.6977 45.1076 60.6977 46.6096C60.6977 45.1076 60.1598 44.3558 58.8633 44.22Z" fill="#FFF8E4"/>
<path fill-rule="evenodd" clip-rule="evenodd" d="M60.8037 41.0601C61.3125 41.0976 61.1692 41.8928 61.2673 42.3179C61.4319 43.0287 62.0187 43.6141 62.9507 43.656C62.9507 43.656 63.162 43.694 63.2513 43.8353C63.4081 44.0851 63.1989 44.3943 62.8131 44.4063C62.4154 44.4278 62.0202 44.5526 61.7372 44.8189C61.299 45.231 61.1822 45.8573 61.1775 46.4223C61.1775 46.4223 61.1484 46.663 60.9646 46.7529C60.6313 46.9168 60.4828 46.6056 60.354 45.7654C60.2512 45.0946 59.6941 44.4912 58.9074 44.4013C58.9074 44.4013 58.7039 44.3653 58.6146 44.214C58.4645 43.9592 58.733 43.7075 59.1115 43.5921C59.9563 43.3264 60.3815 42.5312 60.3987 41.4293C60.3987 41.4293 60.4137 41.0586 60.8037 41.0601ZM60.7959 43.3184C60.6277 43.5956 60.3904 43.8284 60.1069 43.9917C60.4137 44.1675 60.6546 44.4292 60.827 44.7309C61.1651 44.1815 61.286 44.187 61.4854 44.0516C61.4854 44.0516 61.6718 44.1715 61.3161 43.8823C61.0731 43.6785 60.8343 43.2509 60.7959 43.3184Z" fill="#FF9D00"/>
<defs>
<linearGradient id="paint0_linear" x1="22.7522" y1="31.7066" x2="52.7205" y2="31.7066" gradientUnits="userSpaceOnUse">
<stop stop-color="#FF6599"/>
<stop offset="0.52" stop-color="#FF6E7B"/>
<stop offset="1" stop-color="#FF8C1A"/>
</linearGradient>
<linearGradient id="paint1_linear" x1="28.7304" y1="38.5788" x2="46.487" y2="38.2721" gradientUnits="userSpaceOnUse">
<stop stop-color="#FF98BA"/>
<stop offset="0.52" stop-color="#FF9594"/>
<stop offset="1" stop-color="#FF8C1A"/>
</linearGradient>
<linearGradient id="paint2_linear" x1="34.7092" y1="32.3015" x2="40.712" y2="32.3015" gradientUnits="userSpaceOnUse">
<stop stop-color="#FF6599"/>
<stop offset="0.52" stop-color="#FF6E7B"/>
<stop offset="1" stop-color="#FF8C1A"/>
</linearGradient>
<linearGradient id="paint3_linear" x1="40.6002" y1="32.302" x2="34.5974" y2="32.302" gradientUnits="userSpaceOnUse">
<stop stop-color="#FF8C1A"/>
<stop offset="0.48" stop-color="#FF9594"/>
<stop offset="1" stop-color="#FF98BA"/>
</linearGradient>
<linearGradient id="paint4_linear" x1="22.7522" y1="29.9978" x2="51.347" y2="33.1968" gradientUnits="userSpaceOnUse">
<stop stop-color="#FF98BA"/>
<stop offset="0.52" stop-color="#FF9594"/>
<stop offset="1" stop-color="#FF8C1A"/>
</linearGradient>
</defs>
</svg>
