<svg width="92" height="88" viewBox="0 0 92 88" fill="none" xmlns="http://www.w3.org/2000/svg">
<path d="M45.9408 72.4111C63.3655 72.4111 77.491 58.3211 77.491 40.9402C77.491 23.5592 63.3655 9.46918 45.9408 9.46918C28.5162 9.46918 14.3906 23.5592 14.3906 40.9402C14.3906 58.3211 28.5162 72.4111 45.9408 72.4111Z" fill="#FFD24B"/>
<path fill-rule="evenodd" clip-rule="evenodd" d="M77.4803 43.2159C76.5144 57.1622 66.3835 68.6129 53.0333 71.6108L34.6934 55.3323L63.7076 33.7698L77.4803 43.2159Z" fill="#FFBF00"/>
<path fill-rule="evenodd" clip-rule="evenodd" d="M45.941 23.6557L50.4772 34.2679L62.2518 35.186L53.2807 42.6627L56.0216 53.8421L45.941 47.8514L35.861 53.8421L38.6013 42.6627L29.6309 35.186L41.4049 34.2679L45.941 23.6557Z" fill="#FFF3CE"/>
<path fill-rule="evenodd" clip-rule="evenodd" d="M45.9401 21.7948C46.9472 21.7948 47.3944 22.328 47.686 22.9401L51.7713 32.4966C51.7713 32.4966 60.0911 33.1187 62.3994 33.3251C63.13 33.3907 63.8689 33.698 64.1586 34.7499C64.3516 35.4484 64.0156 36.2447 63.4678 36.6649C61.7263 38.0027 55.4049 43.3857 55.4049 43.3857L57.8644 53.4192C57.8644 53.4192 58.0276 54.3651 57.531 55.0157C56.9655 55.7558 56.0659 56.0442 55.0493 55.4946L45.9401 50.0813C45.9401 50.0813 38.0669 54.8036 36.8308 55.4946C36.2039 55.8454 35.4328 56.0322 34.5877 55.3545C34.0266 54.904 33.8684 54.0742 34.0165 53.4192C34.2379 52.4368 36.476 43.3857 36.476 43.3857C36.476 43.3857 30.2178 38.1579 28.4124 36.6649C27.8468 36.1974 27.4129 35.2894 27.7482 34.4729C28.0834 33.6557 28.7951 33.3939 29.4814 33.3251C31.3697 33.1358 40.1095 32.4966 40.1095 32.4966L44.1948 22.9401C44.1948 22.9401 44.6079 21.7948 45.9401 21.7948ZM41.4038 34.2943L29.6295 35.2124L38.6002 42.6891L35.8598 53.8685L45.9401 47.8778L56.021 53.8685L53.28 42.6891L62.2514 35.2124L50.4764 34.2943L45.9401 23.6821C44.4282 27.2195 42.9163 30.7569 41.4038 34.2943Z" fill="url(#paint0_linear)"/>
<path fill-rule="evenodd" clip-rule="evenodd" d="M36.6859 50.5983L38.6228 42.6957L29.6523 35.219L41.4264 34.3009C42.9388 30.7635 44.4507 27.2261 45.9625 23.6887L50.4987 34.3009L53.8532 34.5621L36.6859 50.5983Z" fill="#FFF8E4"/>
<path fill-rule="evenodd" clip-rule="evenodd" d="M34.1289 52.9586L36.4757 43.3857C36.4757 43.3857 30.2177 38.1579 28.4123 36.6649C27.8468 36.1974 27.4129 35.2894 27.7482 34.4729C28.0834 33.6557 28.7951 33.3938 29.4814 33.3251C31.3696 33.1358 40.1092 32.4966 40.1092 32.4966L44.1943 22.9401C44.1943 22.9401 44.6074 21.7948 45.9396 21.7948C46.9466 21.7948 47.3938 22.328 47.6854 22.9401L51.7706 32.4966L55.7064 32.8032L53.8302 34.5555L50.4757 34.2943L45.9396 23.6821C44.4277 27.2195 42.9159 30.7569 41.4034 34.2943L29.6294 35.2124L38.5999 42.6891L36.6629 50.5917L34.1289 52.9586Z" fill="url(#paint1_linear)"/>
<path fill-rule="evenodd" clip-rule="evenodd" d="M46.2944 0.313339C61.0738 0.454055 75.3629 9.23014 82.0868 22.3179C87.7448 33.3309 87.9314 47.0118 82.524 58.1996C74.8923 73.9888 56.2642 83.782 38.373 80.3582C21.9324 77.2126 8.26701 62.9064 5.93968 46.3411C4.15955 33.6729 8.8332 20.2873 18.1052 11.469C25.4661 4.46854 35.482 0.411146 45.7713 0.313339C45.9459 0.312708 46.1198 0.312708 46.2944 0.313339ZM45.7795 1.57536C31.5175 1.71103 17.7617 10.1281 11.2137 22.6826C5.65124 33.348 5.41906 46.5941 10.5785 57.4374C17.9167 72.8586 35.9957 82.4594 53.4542 79.1189C69.3773 76.0724 82.6195 62.2103 84.8728 46.1657C86.5814 34.0036 82.1551 21.1095 73.257 12.5448C66.1004 5.65736 56.2579 1.67001 46.2862 1.57536C46.1173 1.57473 45.9484 1.57473 45.7795 1.57536Z" fill="#FFECB4"/>
<path fill-rule="evenodd" clip-rule="evenodd" d="M23.4321 82.3854C23.4321 82.3854 17.7219 84.3913 7.4958 87.9836C8.45541 82.528 10.1317 78.0687 10.1317 78.0687L0.796875 74.0638L14.0429 68.6346L23.4321 82.3854Z" fill="#F20D59"/>
<path fill-rule="evenodd" clip-rule="evenodd" d="M22.4389 79.5518L23.513 82.1724L18.6289 80.6813L22.4389 79.5518Z" fill="#DA0C51"/>
<path fill-rule="evenodd" clip-rule="evenodd" d="M68.7578 82.3854C68.7578 82.3854 74.468 84.3913 84.6941 87.9836C83.3651 81.6439 82.0582 78.0687 82.0582 78.0687L91.3931 74.0638L78.1471 68.6346L68.7578 82.3854Z" fill="#F20D59"/>
<path fill-rule="evenodd" clip-rule="evenodd" d="M69.8693 79.5518L68.7578 82.1724L73.6419 80.6813L69.8693 79.5518Z" fill="#DA0C51"/>
<path fill-rule="evenodd" clip-rule="evenodd" d="M46.0526 76.9599C40.1308 76.9599 32.9749 77.4218 18.4935 80.9037C18.4935 80.9037 15.2495 72.3068 12.9766 65.8907C23.4644 63.0695 35.027 61.591 46.0526 61.591C57.0781 61.591 64.3783 62.376 79.1292 65.8907C78.0355 68.7485 73.6124 80.9037 73.6124 80.9037C59.3264 77.3284 51.975 76.9599 46.0526 76.9599Z" fill="#FF3377"/>
<path d="M25.7402 73.9488L24.9824 68.0344L28.5571 67.5782L28.7197 68.8459L26.5 69.1286L26.6202 70.0668C26.7796 70.012 27.0035 69.9665 27.2913 69.9299C27.8676 69.8561 28.3521 69.9634 28.7443 70.2511C29.1428 70.5382 29.3775 70.9578 29.4484 71.5099C29.5281 72.1353 29.3883 72.6464 29.029 73.0445C28.6697 73.4427 28.1257 73.6875 27.3976 73.7809C27.0977 73.8188 26.7669 73.8522 26.4032 73.8819C26.3014 73.8945 26.1982 73.9065 26.0932 73.9166C25.9882 73.9273 25.9092 73.9349 25.8548 73.9387C25.801 73.9425 25.763 73.9462 25.7402 73.9488ZM27.3438 71.2109C27.1686 71.2336 26.9813 71.2746 26.7827 71.3339L26.9333 72.5088C27.2078 72.5025 27.3792 72.4949 27.4469 72.4861C27.9378 72.4236 28.158 72.1895 28.1061 71.7838C28.0808 71.5869 28.0036 71.4349 27.8752 71.3282C27.7467 71.2216 27.5697 71.1825 27.3438 71.2109Z" fill="white"/>
<path d="M31.4691 73.3707L30.0996 73.4919L32.0473 67.3333L33.2637 67.226L36.2665 72.9467L34.8122 73.0754L34.2081 71.8714L31.8518 72.0797L31.4691 73.3707ZM33.5844 70.6435L32.7716 69.0225L32.2491 70.7621L33.5844 70.6435Z" fill="white"/>
<path d="M38.6729 72.6883C37.7121 72.7369 36.9802 72.4157 36.4779 71.7248L37.1725 70.76C37.6292 71.22 38.0878 71.439 38.5483 71.4156C38.7875 71.4036 38.9835 71.3412 39.1372 71.2282C39.2916 71.1153 39.3631 70.9537 39.3523 70.7436C39.3429 70.5568 39.2555 70.413 39.0911 70.3133C38.9266 70.2136 38.6932 70.1713 38.3921 70.1864L37.8462 70.2142L37.7816 68.9377L38.2934 68.9124C38.5091 68.9011 38.6831 68.8443 38.8146 68.7408C38.9462 68.6373 39.0076 68.501 38.9994 68.3307C38.9899 68.1489 38.9247 68.0145 38.8033 67.9268C38.6825 67.8391 38.5192 67.8006 38.3143 67.8107C37.905 67.8316 37.5628 68.0562 37.2883 68.4853L36.457 67.6057C36.6468 67.3009 36.9176 67.0497 37.2699 66.8529C37.6216 66.656 38.0081 66.5468 38.4288 66.5254C38.9861 66.4976 39.4403 66.6238 39.7907 66.9046C40.1412 67.1854 40.3297 67.5867 40.3562 68.1086C40.3822 68.6247 40.1532 69.0601 39.6699 69.4141L39.6711 69.44C40.3353 69.611 40.6864 70.0678 40.7237 70.8111C40.7509 71.3386 40.5561 71.7778 40.1405 72.1286C39.7249 72.4732 39.2359 72.6599 38.6729 72.6883Z" fill="white"/>
<path d="M41.5763 69.6307C41.5687 68.7505 41.8565 68.0154 42.4379 67.426C43.0255 66.831 43.7884 66.5294 44.7278 66.5218C45.6615 66.5142 46.4237 66.7893 47.0145 67.3465C47.6167 67.9043 47.9216 68.6489 47.9292 69.5796C47.9368 70.4769 47.6408 71.2177 47.0417 71.802C46.449 72.3856 45.6944 72.6816 44.7778 72.6892C43.8498 72.6961 43.0844 72.4216 42.4822 71.8638C41.8856 71.3066 41.5833 70.5621 41.5763 69.6307ZM43.0281 69.6194C43.0319 70.1248 43.2033 70.552 43.5417 70.9015C43.8751 71.2448 44.2831 71.4152 44.767 71.4114C45.3135 71.407 45.7367 71.236 46.0353 70.8984C46.3345 70.5495 46.4819 70.1141 46.4775 69.5916C46.473 69.0521 46.3048 68.6192 45.9721 68.2924C45.6336 67.9598 45.2218 67.7958 44.7379 67.7996C44.2369 67.8034 43.8257 67.9743 43.5038 68.3119C43.1824 68.6495 43.0236 69.0855 43.0281 69.6194Z" fill="white"/>
<path d="M49.168 72.4526L49.3755 66.5276C50.0422 66.5168 50.6463 66.5206 51.1865 66.5395C51.8469 66.5623 52.3409 66.7118 52.6705 66.9876C53.0001 67.2633 53.1563 67.6312 53.1405 68.0905C53.1196 68.6755 52.8767 69.1102 52.4112 69.3948L52.4105 69.4119C52.6629 69.5172 52.8634 69.6889 53.0121 69.9274C53.1601 70.1653 53.2284 70.4574 53.2164 70.8038C53.1955 71.3995 52.9691 71.8494 52.537 72.1523C52.1107 72.4501 51.5591 72.587 50.8816 72.5637C50.0909 72.5359 49.5197 72.4993 49.168 72.4526ZM51.1466 70.1268L50.6172 70.1085L50.5786 71.2235C50.7026 71.2619 50.8557 71.284 51.0372 71.2903C51.5667 71.3093 51.8387 71.108 51.8532 70.6884C51.8659 70.3306 51.6299 70.1432 51.1466 70.1268ZM51.1251 67.8161C51.0227 67.8123 50.8797 67.8186 50.6969 67.835L50.6589 68.9165L51.1112 68.9323C51.5325 68.9468 51.7495 68.7613 51.7634 68.3751C51.7691 68.2104 51.7109 68.0779 51.5894 67.977C51.4674 67.876 51.3124 67.8224 51.1251 67.8161Z" fill="white"/>
<path d="M60.4634 73.2835L59.1015 73.1781L59.5632 67.2328L60.9258 67.3382L60.4634 73.2835ZM56.4529 70.1108C56.3909 70.1058 56.2536 70.1095 56.0411 70.1215L55.9234 71.6334C56.1037 71.67 56.2359 71.6914 56.3213 71.6984C56.8887 71.7419 57.1936 71.4895 57.2367 70.9406C57.2556 70.6913 57.1968 70.4957 57.0595 70.3544C56.9223 70.2124 56.7198 70.1316 56.4529 70.1108ZM54.9233 66.8738L56.2853 66.9792L56.141 68.8393C56.3074 68.8292 56.4839 68.8318 56.6711 68.8463C57.3752 68.9005 57.8996 69.1176 58.2437 69.4975C58.5884 69.8773 58.7358 70.384 58.6865 71.0182C58.6365 71.6637 58.3803 72.1653 57.9186 72.5225C57.4517 72.8739 56.8324 73.0191 56.06 72.9598C55.7083 72.9326 55.4079 72.9061 55.1586 72.8815C54.9151 72.8569 54.6823 72.8361 54.4609 72.819L54.9233 66.8738Z" fill="white"/>
<path d="M66.1518 70.2924L63.0611 73.6393L61.875 73.4903L62.622 67.5741L63.9776 67.7438L63.5133 71.4207L66.604 68.0739L67.7901 68.2234L67.0431 74.1396L65.6875 73.9693L66.1518 70.2924ZM63.7461 66.1695L65.0169 66.3291C64.9967 66.4869 65.0226 66.6017 65.0935 66.6737C65.1649 66.7456 65.2965 66.7936 65.4888 66.8182C65.6691 66.8409 65.8001 66.827 65.8811 66.7771C65.962 66.7273 66.0126 66.6207 66.0335 66.4572L67.3043 66.6169C67.2645 67.0239 67.062 67.3305 66.6977 67.5362C66.339 67.7432 65.8968 67.8132 65.3712 67.7476C64.812 67.6776 64.3882 67.4996 64.1004 67.2144C63.8119 66.9292 63.6936 66.5809 63.7461 66.1695Z" fill="white"/>
<path fill-rule="evenodd" clip-rule="evenodd" d="M21.9824 18.1997C25.6279 17.2809 27.5737 15.9022 27.6344 9.46918C27.6344 15.4428 30.1868 18.1997 34.198 18.1997C30.1261 18.1997 27.6344 21.1862 27.6344 26.2411C27.6344 21.1862 25.6292 18.1997 21.9824 18.1997Z" fill="#FFF8E4"/>
<path fill-rule="evenodd" clip-rule="evenodd" d="M27.5956 8.76487C28.8177 8.89359 28.132 11.2169 28.6058 13.0146C29.2428 15.4295 31.4334 17.4796 34.1275 17.4941C34.1275 17.4941 34.6841 17.6039 34.7493 18.0298C34.9384 19.2641 31.7882 18.3643 29.9013 20.5362C28.5678 22.0707 28.201 24.2098 28.1934 26.1684C28.1934 26.1684 26.9706 27.9069 26.9225 25.7148C26.9029 25.0238 26.8466 24.3341 26.7283 23.6552C26.691 23.4413 26.648 23.228 26.5974 23.0166C26.0882 20.8731 24.4061 18.7725 21.905 18.7561C21.905 18.7561 21.3837 18.6646 21.2927 18.2665C21.0131 17.0511 24.2025 17.2165 25.534 15.5002C26.8751 13.7718 26.9036 11.4302 26.9282 9.38703C26.9282 9.38703 27.0503 8.76235 27.5956 8.76487ZM27.5886 14.1864C27.0598 15.8308 25.8939 17.2423 24.3347 17.9743C24.8698 18.2116 25.0659 18.3472 25.398 18.5996C26.4804 19.4224 27.1888 20.6485 27.6152 21.9559C27.6152 21.9559 28.7608 19.2066 31.0393 18.1327C31.0393 18.1327 28.5141 16.6517 27.6152 14.1006C27.6063 14.129 27.5974 14.158 27.5886 14.1864Z" fill="#FFBF00"/>
<path fill-rule="evenodd" clip-rule="evenodd" d="M10.332 38.7376C12.8376 38.1773 14.1755 37.3374 14.2173 33.4177C14.2173 37.0573 15.9721 38.7376 18.7288 38.7376C15.9303 38.7376 14.2173 40.5574 14.2173 43.6373C14.2173 40.5574 12.8383 38.7376 10.332 38.7376Z" fill="#FFF8E4"/>
<path fill-rule="evenodd" clip-rule="evenodd" d="M14.2302 33.0665C14.8356 33.1536 14.6388 34.1322 14.7552 34.8856C14.9772 36.318 15.8337 37.7807 17.3317 38.2085C17.8921 38.3681 18.7423 38.3864 18.7423 38.3864C19.2844 38.464 19.4413 39.29 18.3982 39.3386C17.1735 39.4087 15.9679 39.9519 15.3094 41.0486C14.8216 41.862 14.6629 42.8243 14.6591 43.76C14.6591 43.76 14.6312 44.0143 14.4699 44.1361C13.9955 44.492 13.9221 43.8547 13.5521 42.1409C13.3041 40.9918 12.5956 39.8459 11.402 39.4837C10.9453 39.3449 10.2532 39.3285 10.2532 39.3285C10.0951 39.3058 10.0521 39.2724 9.98186 39.2093C9.66431 38.9234 9.70413 38.5253 10.6372 38.2905C11.4665 38.0728 12.3192 37.7624 12.855 37.0897C13.6444 36.0972 13.6938 34.7361 13.7102 33.5315C13.7102 33.5315 13.7203 33.0406 14.2302 33.0665ZM14.215 36.5597C13.8544 37.5138 13.1339 38.3063 12.2047 38.7486C12.2047 38.7486 12.7633 39.0616 13.1371 39.4068C13.6337 39.8649 13.9892 40.4498 14.2277 41.0776C14.6502 40.1248 15.4042 39.3304 16.3525 38.8729C16.3525 38.8729 14.8444 37.9908 14.2378 36.5673C14.2378 36.5673 14.2371 36.4985 14.215 36.5597Z" fill="#FFBF00"/>
<path fill-rule="evenodd" clip-rule="evenodd" d="M68.4082 21.5295C70.1762 21.0752 71.1194 20.3944 71.1491 17.2167C71.1491 20.1672 72.3864 21.5295 74.3316 21.5295C72.3573 21.5295 71.1491 23.0048 71.1491 25.5017C71.1491 23.0048 70.1762 21.5295 68.4082 21.5295Z" fill="#FFF8E4"/>
<path fill-rule="evenodd" clip-rule="evenodd" d="M71.151 16.5131C71.8342 16.6002 71.5546 17.7549 71.745 18.5904C72.0082 19.7445 72.9634 20.8172 74.2956 20.8241C74.2956 20.8241 74.653 20.8847 74.7422 21.144C74.8516 21.4633 74.6985 21.7441 74.0938 21.7763C73.5409 21.8129 72.9937 22.0041 72.5851 22.3745C71.7881 23.0957 71.5926 24.2517 71.585 25.2727C71.585 25.2727 71.535 25.6008 71.2997 25.703C70.9429 25.8582 70.6558 25.7648 70.6298 24.9426C70.614 24.5842 70.5799 24.2271 70.5077 23.8769C70.2984 22.8578 69.5785 21.7788 68.3665 21.7706C68.3665 21.7706 68.209 21.7586 68.1084 21.6924C67.7643 21.4658 67.7219 20.997 68.5569 20.7547C69.0364 20.6108 69.5228 20.4165 69.8638 20.0562C70.6298 19.2472 70.6216 18.0199 70.6362 16.9782C70.6362 16.9782 70.6614 16.491 71.151 16.5131ZM71.1321 19.8132C70.8765 20.3944 70.4502 20.8878 69.9042 21.2178C69.9042 21.2178 70.7873 21.8949 71.1473 22.7323C71.1473 22.7323 71.6622 21.8009 72.3947 21.3352C72.3947 21.3352 72.5851 21.3889 72.3289 21.221C71.814 20.8714 71.4186 20.366 71.1542 19.8019C71.1542 19.8019 71.1606 19.7457 71.1321 19.8132Z" fill="#FFBF00"/>
<path fill-rule="evenodd" clip-rule="evenodd" d="M65.9375 51.1129C67.9484 50.5456 68.891 49.9777 68.9226 46.8C68.9226 49.7505 70.2712 51.1129 72.3897 51.1129C70.239 51.1129 68.9226 52.5881 68.9226 55.085C68.9226 52.5881 68.0478 51.3388 65.9375 51.1129Z" fill="#FFF8E4"/>
<path fill-rule="evenodd" clip-rule="evenodd" d="M68.8683 46.0969C69.4566 46.1732 69.277 47.0661 69.3915 47.7589C69.568 48.8247 70.167 49.9346 71.2816 50.2703C71.7004 50.3965 72.3349 50.4091 72.3349 50.4091C72.8479 50.4754 73.0262 51.3133 72.0717 51.36C71.2981 51.4074 70.5352 51.7121 70.0411 52.3248C69.4731 53.0296 69.3042 53.9724 69.301 54.8545C69.301 54.8545 68.9493 55.606 68.5065 55.2022C68.3307 55.0413 68.4325 54.7718 68.2782 53.7452C68.1409 52.829 67.6393 51.8844 66.7012 51.5487C66.3235 51.413 65.7479 51.3449 65.7479 51.3449C65.2317 51.2187 65.2507 50.5757 66.1502 50.2955C66.705 50.1176 67.2749 49.8967 67.65 49.474C68.3497 48.6846 68.3382 47.5292 68.3528 46.5613C68.3528 46.5613 68.356 46.0729 68.8683 46.0969ZM68.8487 49.3352C68.5615 49.9643 68.0561 50.4728 67.4394 50.8003C67.4394 50.8003 68.4641 51.4597 68.8728 52.3671C68.8728 52.3671 69.4105 51.3903 70.3062 50.8855C70.3062 50.8855 69.3529 50.3056 68.8722 49.3023C68.8722 49.3023 68.8551 49.3206 68.8487 49.3352Z" fill="#FF9D00"/>
<defs>
<linearGradient id="paint0_linear" x1="28.79" y1="40.3689" x2="63.0905" y2="40.3689" gradientUnits="userSpaceOnUse">
<stop stop-color="#FF6599"/>
<stop offset="0.52" stop-color="#FF6E7B"/>
<stop offset="1" stop-color="#FF8C1A"/>
</linearGradient>
<linearGradient id="paint1_linear" x1="32.2052" y1="52.4418" x2="66.2069" y2="32.2302" gradientUnits="userSpaceOnUse">
<stop stop-color="#FF98BA"/>
<stop offset="0.52" stop-color="#FF9594"/>
<stop offset="1" stop-color="#FF8C1A"/>
</linearGradient>
</defs>
</svg>
