<svg width="256" height="132" viewBox="0 0 256 132" fill="none" xmlns="http://www.w3.org/2000/svg">
<mask id="path-1-inside-1" fill="white">
<path fill-rule="evenodd" clip-rule="evenodd" d="M242.966 40.9709C248.534 40.9709 253.048 36.4568 253.048 30.8884C253.048 25.3199 248.534 20.8058 242.966 20.8058C237.398 20.8058 232.883 25.3199 232.883 30.8884C232.883 36.4568 237.398 40.9709 242.966 40.9709ZM242.966 42.9709C249.639 42.9709 255.048 37.5613 255.048 30.8884C255.048 24.2154 249.639 18.8058 242.966 18.8058C236.293 18.8058 230.883 24.2154 230.883 30.8884C230.883 37.5613 236.293 42.9709 242.966 42.9709Z"/>
</mask>
<path fill-rule="evenodd" clip-rule="evenodd" d="M242.966 40.9709C248.534 40.9709 253.048 36.4568 253.048 30.8884C253.048 25.3199 248.534 20.8058 242.966 20.8058C237.398 20.8058 232.883 25.3199 232.883 30.8884C232.883 36.4568 237.398 40.9709 242.966 40.9709ZM242.966 42.9709C249.639 42.9709 255.048 37.5613 255.048 30.8884C255.048 24.2154 249.639 18.8058 242.966 18.8058C236.293 18.8058 230.883 24.2154 230.883 30.8884C230.883 37.5613 236.293 42.9709 242.966 42.9709Z" fill="#4EF25E"/>
<path d="M251.048 30.8884C251.048 35.3522 247.43 38.9709 242.966 38.9709V42.9709C249.639 42.9709 255.048 37.5613 255.048 30.8884H251.048ZM242.966 22.8058C247.43 22.8058 251.048 26.4245 251.048 30.8884H255.048C255.048 24.2154 249.639 18.8058 242.966 18.8058V22.8058ZM234.883 30.8884C234.883 26.4245 238.502 22.8058 242.966 22.8058V18.8058C236.293 18.8058 230.883 24.2154 230.883 30.8884H234.883ZM242.966 38.9709C238.502 38.9709 234.883 35.3522 234.883 30.8884H230.883C230.883 37.5613 236.293 42.9709 242.966 42.9709V38.9709ZM253.048 30.8884C253.048 36.4568 248.534 40.9709 242.966 40.9709V44.9709C250.744 44.9709 257.048 38.6659 257.048 30.8884H253.048ZM242.966 20.8058C248.534 20.8058 253.048 25.3199 253.048 30.8884H257.048C257.048 23.1108 250.744 16.8058 242.966 16.8058V20.8058ZM232.883 30.8884C232.883 25.3199 237.398 20.8058 242.966 20.8058V16.8058C235.188 16.8058 228.883 23.1108 228.883 30.8884H232.883ZM242.966 40.9709C237.398 40.9709 232.883 36.4568 232.883 30.8884H228.883C228.883 38.6659 235.188 44.9709 242.966 44.9709V40.9709Z" fill="#4EF25E" mask="url(#path-1-inside-1)"/>
<mask id="path-3-inside-2" fill="white">
<path fill-rule="evenodd" clip-rule="evenodd" d="M35.6553 93.1165C38.414 93.1165 40.6504 90.8801 40.6504 88.1214C40.6504 85.3626 38.414 83.1262 35.6553 83.1262C32.8966 83.1262 30.6602 85.3626 30.6602 88.1214C30.6602 90.8801 32.8966 93.1165 35.6553 93.1165ZM35.6553 95.1165C39.5186 95.1165 42.6504 91.9847 42.6504 88.1214C42.6504 84.258 39.5186 81.1262 35.6553 81.1262C31.792 81.1262 28.6602 84.258 28.6602 88.1214C28.6602 91.9847 31.792 95.1165 35.6553 95.1165Z"/>
</mask>
<path fill-rule="evenodd" clip-rule="evenodd" d="M35.6553 93.1165C38.414 93.1165 40.6504 90.8801 40.6504 88.1214C40.6504 85.3626 38.414 83.1262 35.6553 83.1262C32.8966 83.1262 30.6602 85.3626 30.6602 88.1214C30.6602 90.8801 32.8966 93.1165 35.6553 93.1165ZM35.6553 95.1165C39.5186 95.1165 42.6504 91.9847 42.6504 88.1214C42.6504 84.258 39.5186 81.1262 35.6553 81.1262C31.792 81.1262 28.6602 84.258 28.6602 88.1214C28.6602 91.9847 31.792 95.1165 35.6553 95.1165Z" fill="#4EF25E"/>
<path d="M38.6504 88.1214C38.6504 89.7755 37.3095 91.1165 35.6553 91.1165V95.1165C39.5186 95.1165 42.6504 91.9847 42.6504 88.1214H38.6504ZM35.6553 85.1262C37.3095 85.1262 38.6504 86.4672 38.6504 88.1214H42.6504C42.6504 84.258 39.5186 81.1262 35.6553 81.1262V85.1262ZM32.6602 88.1214C32.6602 86.4672 34.0011 85.1262 35.6553 85.1262V81.1262C31.792 81.1262 28.6602 84.258 28.6602 88.1214H32.6602ZM35.6553 91.1165C34.0011 91.1165 32.6602 89.7755 32.6602 88.1214H28.6602C28.6602 91.9847 31.792 95.1165 35.6553 95.1165V91.1165ZM40.6504 88.1214C40.6504 90.8801 38.414 93.1165 35.6553 93.1165V97.1165C40.6232 97.1165 44.6504 93.0892 44.6504 88.1214H40.6504ZM35.6553 83.1262C38.414 83.1262 40.6504 85.3626 40.6504 88.1214H44.6504C44.6504 83.1535 40.6232 79.1262 35.6553 79.1262V83.1262ZM30.6602 88.1214C30.6602 85.3626 32.8966 83.1262 35.6553 83.1262V79.1262C30.6874 79.1262 26.6602 83.1535 26.6602 88.1214H30.6602ZM35.6553 93.1165C32.8966 93.1165 30.6602 90.8801 30.6602 88.1214H26.6602C26.6602 93.0892 30.6874 97.1165 35.6553 97.1165V93.1165Z" fill="#4EF25E" mask="url(#path-3-inside-2)"/>
<mask id="path-5-inside-3" fill="white">
<path fill-rule="evenodd" clip-rule="evenodd" d="M208.626 51.1456C210.682 51.1456 212.349 49.4787 212.349 47.4223C212.349 45.366 210.682 43.699 208.626 43.699C206.57 43.699 204.903 45.366 204.903 47.4223C204.903 49.4787 206.57 51.1456 208.626 51.1456ZM208.626 53.1456C211.787 53.1456 214.349 50.5832 214.349 47.4223C214.349 44.2614 211.787 41.699 208.626 41.699C205.465 41.699 202.903 44.2614 202.903 47.4223C202.903 50.5832 205.465 53.1456 208.626 53.1456Z"/>
</mask>
<path fill-rule="evenodd" clip-rule="evenodd" d="M208.626 51.1456C210.682 51.1456 212.349 49.4787 212.349 47.4223C212.349 45.366 210.682 43.699 208.626 43.699C206.57 43.699 204.903 45.366 204.903 47.4223C204.903 49.4787 206.57 51.1456 208.626 51.1456ZM208.626 53.1456C211.787 53.1456 214.349 50.5832 214.349 47.4223C214.349 44.2614 211.787 41.699 208.626 41.699C205.465 41.699 202.903 44.2614 202.903 47.4223C202.903 50.5832 205.465 53.1456 208.626 53.1456Z" fill="#4EF25E"/>
<path d="M210.349 47.4223C210.349 48.3741 209.578 49.1456 208.626 49.1456V53.1456C211.787 53.1456 214.349 50.5832 214.349 47.4223H210.349ZM208.626 45.699C209.578 45.699 210.349 46.4706 210.349 47.4223H214.349C214.349 44.2614 211.787 41.699 208.626 41.699V45.699ZM206.903 47.4223C206.903 46.4706 207.674 45.699 208.626 45.699V41.699C205.465 41.699 202.903 44.2614 202.903 47.4223H206.903ZM208.626 49.1456C207.674 49.1456 206.903 48.3741 206.903 47.4223H202.903C202.903 50.5832 205.465 53.1456 208.626 53.1456V49.1456ZM212.349 47.4223C212.349 49.4787 210.682 51.1456 208.626 51.1456V55.1456C212.892 55.1456 216.349 51.6878 216.349 47.4223H212.349ZM208.626 43.699C210.682 43.699 212.349 45.366 212.349 47.4223H216.349C216.349 43.1569 212.892 39.699 208.626 39.699V43.699ZM204.903 47.4223C204.903 45.366 206.57 43.699 208.626 43.699V39.699C204.361 39.699 200.903 43.1569 200.903 47.4223H204.903ZM208.626 51.1456C206.57 51.1456 204.903 49.4787 204.903 47.4223H200.903C200.903 51.6878 204.361 55.1456 208.626 55.1456V51.1456Z" fill="#4EF25E" mask="url(#path-5-inside-3)"/>
<path d="M242.602 101.476C242.602 112.162 233.939 120.825 223.252 120.825C212.566 120.825 203.903 112.162 203.903 101.476C203.903 90.7893 212.566 82.1262 223.252 82.1262C233.939 82.1262 242.602 90.7893 242.602 101.476Z" fill="white" stroke="#4EF25E" stroke-width="2"/>
<mask id="path-8-inside-4" fill="white">
<path fill-rule="evenodd" clip-rule="evenodd" d="M223.252 119.825C233.387 119.825 241.602 111.61 241.602 101.476C241.602 91.3416 233.387 83.1262 223.252 83.1262C213.118 83.1262 204.903 91.3416 204.903 101.476C204.903 111.61 213.118 119.825 223.252 119.825ZM223.252 121.825C234.491 121.825 243.602 112.714 243.602 101.476C243.602 90.237 234.491 81.1262 223.252 81.1262C212.014 81.1262 202.903 90.237 202.903 101.476C202.903 112.714 212.014 121.825 223.252 121.825Z"/>
</mask>
<path fill-rule="evenodd" clip-rule="evenodd" d="M223.252 119.825C233.387 119.825 241.602 111.61 241.602 101.476C241.602 91.3416 233.387 83.1262 223.252 83.1262C213.118 83.1262 204.903 91.3416 204.903 101.476C204.903 111.61 213.118 119.825 223.252 119.825ZM223.252 121.825C234.491 121.825 243.602 112.714 243.602 101.476C243.602 90.237 234.491 81.1262 223.252 81.1262C212.014 81.1262 202.903 90.237 202.903 101.476C202.903 112.714 212.014 121.825 223.252 121.825Z" fill="white"/>
<path d="M239.602 101.476C239.602 110.505 232.282 117.825 223.252 117.825V121.825C234.491 121.825 243.602 112.714 243.602 101.476H239.602ZM223.252 85.1262C232.282 85.1262 239.602 92.4461 239.602 101.476H243.602C243.602 90.237 234.491 81.1262 223.252 81.1262V85.1262ZM206.903 101.476C206.903 92.4461 214.223 85.1262 223.252 85.1262V81.1262C212.014 81.1262 202.903 90.237 202.903 101.476H206.903ZM223.252 117.825C214.223 117.825 206.903 110.505 206.903 101.476H202.903C202.903 112.714 212.014 121.825 223.252 121.825V117.825ZM241.602 101.476C241.602 111.61 233.387 119.825 223.252 119.825V123.825C235.596 123.825 245.602 113.819 245.602 101.476H241.602ZM223.252 83.1262C233.387 83.1262 241.602 91.3416 241.602 101.476H245.602C245.602 89.1324 235.596 79.1262 223.252 79.1262V83.1262ZM204.903 101.476C204.903 91.3416 213.118 83.1262 223.252 83.1262V79.1262C210.909 79.1262 200.903 89.1324 200.903 101.476H204.903ZM223.252 119.825C213.118 119.825 204.903 111.61 204.903 101.476H200.903C200.903 113.819 210.909 123.825 223.252 123.825V119.825Z" fill="#4EF25E" mask="url(#path-8-inside-4)"/>
<path fill-rule="evenodd" clip-rule="evenodd" d="M231.625 96.3531C231.995 96.7625 231.964 97.3948 231.555 97.7655L221.722 106.668C221.333 107.021 220.736 107.012 220.357 106.648L214.928 101.419C214.53 101.036 214.518 100.403 214.901 100.005C215.284 99.607 215.917 99.5951 216.315 99.9782L221.072 104.559L230.212 96.283C230.622 95.9123 231.254 95.9437 231.625 96.3531Z" fill="#4EF25E"/>
<path d="M63.2718 18.8058C63.2718 27.385 56.317 34.3398 47.7378 34.3398C39.1587 34.3398 32.2039 27.385 32.2039 18.8058C32.2039 10.2266 39.1587 3.27184 47.7378 3.27184C56.317 3.27184 63.2718 10.2266 63.2718 18.8058Z" fill="white" stroke="#4EF25E" stroke-width="2"/>
<mask id="path-12-inside-5" fill="white">
<path fill-rule="evenodd" clip-rule="evenodd" d="M47.7378 33.3398C55.7647 33.3398 62.2718 26.8327 62.2718 18.8058C62.2718 10.7789 55.7647 4.27184 47.7378 4.27184C39.7109 4.27184 33.2039 10.7789 33.2039 18.8058C33.2039 26.8327 39.7109 33.3398 47.7378 33.3398ZM47.7378 35.3398C56.8693 35.3398 64.2718 27.9373 64.2718 18.8058C64.2718 9.67436 56.8693 2.27184 47.7378 2.27184C38.6064 2.27184 31.2039 9.67436 31.2039 18.8058C31.2039 27.9373 38.6064 35.3398 47.7378 35.3398Z"/>
</mask>
<path fill-rule="evenodd" clip-rule="evenodd" d="M47.7378 33.3398C55.7647 33.3398 62.2718 26.8327 62.2718 18.8058C62.2718 10.7789 55.7647 4.27184 47.7378 4.27184C39.7109 4.27184 33.2039 10.7789 33.2039 18.8058C33.2039 26.8327 39.7109 33.3398 47.7378 33.3398ZM47.7378 35.3398C56.8693 35.3398 64.2718 27.9373 64.2718 18.8058C64.2718 9.67436 56.8693 2.27184 47.7378 2.27184C38.6064 2.27184 31.2039 9.67436 31.2039 18.8058C31.2039 27.9373 38.6064 35.3398 47.7378 35.3398Z" fill="white"/>
<path d="M60.2718 18.8058C60.2718 25.7282 54.6602 31.3398 47.7378 31.3398V35.3398C56.8693 35.3398 64.2718 27.9373 64.2718 18.8058H60.2718ZM47.7378 6.27184C54.6602 6.27184 60.2718 11.8835 60.2718 18.8058H64.2718C64.2718 9.67436 56.8693 2.27184 47.7378 2.27184V6.27184ZM35.2039 18.8058C35.2039 11.8835 40.8155 6.27184 47.7378 6.27184V2.27184C38.6064 2.27184 31.2039 9.67436 31.2039 18.8058H35.2039ZM47.7378 31.3398C40.8155 31.3398 35.2039 25.7282 35.2039 18.8058H31.2039C31.2039 27.9373 38.6064 35.3398 47.7378 35.3398V31.3398ZM62.2718 18.8058C62.2718 26.8327 55.7647 33.3398 47.7378 33.3398V37.3398C57.9739 37.3398 66.2718 29.0419 66.2718 18.8058H62.2718ZM47.7378 4.27184C55.7647 4.27184 62.2718 10.7789 62.2718 18.8058H66.2718C66.2718 8.56979 57.9739 0.271845 47.7378 0.271845V4.27184ZM33.2039 18.8058C33.2039 10.7789 39.7109 4.27184 47.7378 4.27184V0.271845C37.5018 0.271845 29.2039 8.56979 29.2039 18.8058H33.2039ZM47.7378 33.3398C39.7109 33.3398 33.2039 26.8327 33.2039 18.8058H29.2039C29.2039 29.0419 37.5018 37.3398 47.7378 37.3398V33.3398Z" fill="#4EF25E" mask="url(#path-12-inside-5)"/>
<path fill-rule="evenodd" clip-rule="evenodd" d="M53.543 15.5658C53.9276 15.9622 53.918 16.5953 53.5216 16.9799L46.9667 23.3391C46.7763 23.5238 46.5203 23.6253 46.255 23.6212C45.9897 23.6172 45.737 23.5078 45.5523 23.3173L41.9324 19.5826C41.5481 19.186 41.558 18.5529 41.9545 18.1685C42.3511 17.7841 42.9842 17.794 43.3686 18.1906L46.2921 21.207L52.129 15.5444C52.5254 15.1598 53.1584 15.1694 53.543 15.5658Z" fill="#4EF25E"/>
<path fill-rule="evenodd" clip-rule="evenodd" d="M182.553 0C183.106 0 183.553 0.447715 183.553 1V7.83189H190.184C190.737 7.83189 191.184 8.2796 191.184 8.83189C191.184 9.38417 190.737 9.83189 190.184 9.83189H183.553V17.534C183.553 18.0863 183.106 18.534 182.553 18.534C182.001 18.534 181.553 18.0863 181.553 17.534V9.83189H174.922C174.37 9.83189 173.922 9.38417 173.922 8.83189C173.922 8.2796 174.37 7.83189 174.922 7.83189H181.553V1C181.553 0.447715 182.001 0 182.553 0Z" fill="#4EF25E"/>
<path fill-rule="evenodd" clip-rule="evenodd" d="M7.03879 52.1456C7.59108 52.1456 8.03879 52.5933 8.03879 53.1456V57.5677H12.1262C12.6785 57.5677 13.1262 58.0154 13.1262 58.5677C13.1262 59.12 12.6785 59.5677 12.1262 59.5677H8.03879V64.5922C8.03879 65.1445 7.59108 65.5922 7.03879 65.5922C6.48651 65.5922 6.03879 65.1445 6.03879 64.5922V59.5677H1.95142C1.39913 59.5677 0.951416 59.12 0.951416 58.5677C0.951416 58.0154 1.39913 57.5677 1.95142 57.5677H6.03879V53.1456C6.03879 52.5933 6.48651 52.1456 7.03879 52.1456Z" fill="#4EF25E"/>
<circle cx="131.68" cy="76.0388" r="55.9612" fill="#C9F6CD"/>
<mask id="path-18-inside-6" fill="white">
<path fill-rule="evenodd" clip-rule="evenodd" d="M126.592 124.913C156.394 124.913 180.553 100.753 180.553 70.9515C180.553 41.1495 156.394 16.9903 126.592 16.9903C96.7902 16.9903 72.631 41.1495 72.631 70.9515C72.631 100.753 96.7902 124.913 126.592 124.913ZM126.592 126.913C157.499 126.913 182.553 101.858 182.553 70.9515C182.553 40.045 157.499 14.9903 126.592 14.9903C95.6856 14.9903 70.631 40.045 70.631 70.9515C70.631 101.858 95.6856 126.913 126.592 126.913Z"/>
</mask>
<path fill-rule="evenodd" clip-rule="evenodd" d="M126.592 124.913C156.394 124.913 180.553 100.753 180.553 70.9515C180.553 41.1495 156.394 16.9903 126.592 16.9903C96.7902 16.9903 72.631 41.1495 72.631 70.9515C72.631 100.753 96.7902 124.913 126.592 124.913ZM126.592 126.913C157.499 126.913 182.553 101.858 182.553 70.9515C182.553 40.045 157.499 14.9903 126.592 14.9903C95.6856 14.9903 70.631 40.045 70.631 70.9515C70.631 101.858 95.6856 126.913 126.592 126.913Z" fill="#4EF25E"/>
<path d="M178.553 70.9515C178.553 99.6488 155.29 122.913 126.592 122.913V126.913C157.499 126.913 182.553 101.858 182.553 70.9515H178.553ZM126.592 18.9903C155.29 18.9903 178.553 42.2541 178.553 70.9515H182.553C182.553 40.045 157.499 14.9903 126.592 14.9903V18.9903ZM74.631 70.9515C74.631 42.2541 97.8948 18.9903 126.592 18.9903V14.9903C95.6856 14.9903 70.631 40.045 70.631 70.9515H74.631ZM126.592 122.913C97.8948 122.913 74.631 99.6488 74.631 70.9515H70.631C70.631 101.858 95.6856 126.913 126.592 126.913V122.913ZM180.553 70.9515C180.553 100.753 156.394 124.913 126.592 124.913V128.913C158.603 128.913 184.553 102.963 184.553 70.9515H180.553ZM126.592 16.9903C156.394 16.9903 180.553 41.1495 180.553 70.9515H184.553C184.553 38.9404 158.603 12.9903 126.592 12.9903V16.9903ZM72.631 70.9515C72.631 41.1495 96.7902 16.9903 126.592 16.9903V12.9903C94.5811 12.9903 68.631 38.9404 68.631 70.9515H72.631ZM126.592 124.913C96.7902 124.913 72.631 100.753 72.631 70.9515H68.631C68.631 102.963 94.5811 128.913 126.592 128.913V124.913Z" fill="#4EF25E" mask="url(#path-18-inside-6)"/>
<path fill-rule="evenodd" clip-rule="evenodd" d="M91.6705 66.3478C93.8586 64.4427 97.1035 64.5512 99.1653 66.5986L117.38 84.6849C117.804 85.1059 118.477 85.1083 118.904 84.6902L154.066 50.2456C156.117 48.2371 159.316 48.1304 161.49 49.998C164.043 52.1911 164.15 56.1731 161.719 58.5067L121.892 96.7445C119.781 98.7715 116.495 98.7751 114.379 96.7527L91.4773 74.8588C89.0438 72.5324 89.1341 68.5562 91.6705 66.3478Z" fill="white"/>
<path fill-rule="evenodd" clip-rule="evenodd" d="M120.457 95.1801L160.285 56.9423C161.799 55.4883 161.732 53.0073 160.142 51.6409C158.787 50.4773 156.794 50.5437 155.516 51.7952L120.354 86.2397C119.112 87.456 117.153 87.4492 115.919 86.2243L97.7051 68.138C96.4188 66.8608 94.3944 66.793 93.0293 67.9816C91.4469 69.3593 91.3906 71.84 92.9088 73.2913L115.811 95.1852C117.119 96.4361 119.152 96.4338 120.457 95.1801ZM91.6705 66.3478C93.8586 64.4427 97.1035 64.5512 99.1653 66.5985L117.38 84.6849C117.804 85.1059 118.477 85.1083 118.904 84.6902L154.066 50.2456C156.117 48.2371 159.316 48.1304 161.49 49.998C164.043 52.1911 164.15 56.173 161.719 58.5067L121.892 96.7445C119.781 98.7715 116.495 98.7751 114.379 96.7527L91.4773 74.8588C89.0438 72.5324 89.1341 68.5562 91.6705 66.3478Z" fill="#4EF25E"/>
</svg>
