<svg width="42" height="12" viewBox="0 0 42 12" fill="none" xmlns="http://www.w3.org/2000/svg">
<rect width="42" height="12" rx="2" fill="#101010"/>
<path d="M7.64938 3.91999H5.79338V9H5.02138V3.91999H3.16138V3.26799H7.64938V3.91999Z" fill="white"/>
<path d="M11.3814 6.87199L10.4814 4.54C10.4548 4.47066 10.4268 4.39066 10.3974 4.29999C10.3681 4.20666 10.3401 4.108 10.3134 4.00399C10.2574 4.21999 10.2001 4.39999 10.1414 4.54399L9.24144 6.87199H11.3814ZM12.9974 9H12.3974C12.3281 9 12.2721 8.98266 12.2294 8.948C12.1868 8.91333 12.1548 8.86933 12.1334 8.816L11.5974 7.432H9.02544L8.48944 8.816C8.47344 8.864 8.44277 8.90666 8.39744 8.944C8.35211 8.98133 8.29611 9 8.22944 9H7.62944L9.92144 3.26799H10.7054L12.9974 9Z" fill="white"/>
<path d="M17.4035 8.34799V9H14.1515V3.26799H14.9235V8.34799H17.4035Z" fill="white"/>
<path d="M19.4369 9H18.6609V3.26799H19.4369V9Z" fill="white"/>
<path d="M24.2351 4.16399C24.2111 4.204 24.1844 4.23466 24.1551 4.25599C24.1284 4.27466 24.0951 4.284 24.0551 4.284C24.0097 4.284 23.9564 4.26133 23.8951 4.21599C23.8337 4.17066 23.7564 4.12133 23.6631 4.068C23.5724 4.012 23.4617 3.96133 23.3311 3.916C23.2031 3.87066 23.0471 3.84799 22.8631 3.84799C22.6897 3.84799 22.5364 3.87199 22.4031 3.91999C22.2724 3.96533 22.1617 4.028 22.0711 4.108C21.9831 4.18799 21.9164 4.28266 21.8711 4.39199C21.8257 4.49866 21.8031 4.61466 21.8031 4.74C21.8031 4.9 21.8417 5.03333 21.9191 5.14C21.9991 5.24399 22.1031 5.33333 22.2311 5.408C22.3617 5.48266 22.5084 5.548 22.6711 5.604C22.8364 5.65733 23.0044 5.71333 23.1751 5.772C23.3484 5.83066 23.5164 5.89733 23.6791 5.972C23.8444 6.044 23.9911 6.136 24.1191 6.248C24.2497 6.36 24.3537 6.49733 24.4311 6.66C24.5111 6.82266 24.5511 7.02266 24.5511 7.25999C24.5511 7.51066 24.5084 7.74666 24.4231 7.968C24.3377 8.18666 24.2124 8.37733 24.0471 8.54C23.8844 8.70266 23.6831 8.83066 23.4431 8.924C23.2057 9.01733 22.9351 9.064 22.6311 9.064C22.2577 9.064 21.9191 8.99733 21.6151 8.864C21.3111 8.728 21.0511 8.54533 20.8351 8.316L21.0591 7.948C21.0804 7.91866 21.1057 7.89466 21.1351 7.876C21.1671 7.85466 21.2017 7.844 21.2391 7.844C21.2737 7.844 21.3124 7.85866 21.3551 7.888C21.4004 7.91466 21.4511 7.94933 21.5071 7.992C21.5631 8.03466 21.6271 8.08133 21.6991 8.132C21.7711 8.18266 21.8524 8.22933 21.9431 8.272C22.0364 8.31466 22.1417 8.35066 22.2591 8.38C22.3764 8.40666 22.5084 8.42 22.6551 8.42C22.8391 8.42 23.0031 8.39466 23.1471 8.344C23.2911 8.29333 23.4124 8.22266 23.5111 8.132C23.6124 8.03866 23.6897 7.928 23.7431 7.8C23.7964 7.672 23.8231 7.52933 23.8231 7.37199C23.8231 7.19866 23.7831 7.05733 23.7031 6.948C23.6257 6.836 23.5231 6.74266 23.3951 6.668C23.2671 6.59333 23.1204 6.53066 22.9551 6.47999C22.7897 6.42666 22.6217 6.37333 22.4511 6.31999C22.2804 6.26399 22.1124 6.2 21.9471 6.128C21.7817 6.05599 21.6351 5.96266 21.5071 5.84799C21.3791 5.73333 21.2751 5.59066 21.1951 5.42C21.1177 5.24666 21.0791 5.03333 21.0791 4.77999C21.0791 4.57733 21.1177 4.38133 21.1951 4.192C21.2751 4.00266 21.3897 3.83466 21.5391 3.68799C21.6911 3.54133 21.8764 3.424 22.0951 3.336C22.3164 3.24799 22.5697 3.20399 22.8551 3.20399C23.1751 3.20399 23.4657 3.25466 23.7271 3.356C23.9911 3.45733 24.2231 3.604 24.4231 3.79599L24.2351 4.16399Z" fill="white"/>
<path d="M32.0108 3.26799V9H31.3308V4.78799C31.3308 4.732 31.3321 4.672 31.3348 4.608C31.3401 4.54399 31.3455 4.47866 31.3508 4.41199L29.3828 7.996C29.3215 8.11599 29.2281 8.17599 29.1028 8.17599H28.9908C28.8655 8.17599 28.7721 8.11599 28.7108 7.996L26.7028 4.396C26.7188 4.53733 26.7268 4.66799 26.7268 4.78799V9H26.0468V3.26799H26.6188C26.6882 3.26799 26.7415 3.27466 26.7788 3.28799C26.8161 3.30133 26.8521 3.33866 26.8868 3.39999L28.8668 6.928C28.8988 6.992 28.9295 7.05866 28.9588 7.128C28.9908 7.19733 29.0201 7.268 29.0468 7.34C29.0735 7.268 29.1015 7.19733 29.1308 7.128C29.1601 7.05599 29.1921 6.988 29.2268 6.924L31.1708 3.39999C31.2028 3.33866 31.2375 3.30133 31.2748 3.28799C31.3148 3.27466 31.3695 3.26799 31.4388 3.26799H32.0108Z" fill="white"/>
<path d="M36.9205 6.87199L36.0205 4.54C35.9938 4.47066 35.9658 4.39066 35.9365 4.29999C35.9072 4.20666 35.8792 4.108 35.8525 4.00399C35.7965 4.21999 35.7392 4.39999 35.6805 4.54399L34.7805 6.87199H36.9205ZM38.5365 9H37.9365C37.8672 9 37.8112 8.98266 37.7685 8.948C37.7258 8.91333 37.6938 8.86933 37.6725 8.816L37.1365 7.432H34.5645L34.0285 8.816C34.0125 8.864 33.9818 8.90666 33.9365 8.944C33.8912 8.98133 33.8352 9 33.7685 9H33.1685L35.4605 3.26799H36.2445L38.5365 9Z" fill="white"/>
</svg>
