<svg width="32" height="32" viewBox="0 0 32 32" fill="none" xmlns="http://www.w3.org/2000/svg">
<path d="M22.0916 7.26377C20.7379 7.26377 20.4552 5.99765 20.4552 4.94007C20.4436 4.51399 20.2658 4.1094 19.96 3.81292C19.6542 3.51643 19.2446 3.3516 18.8189 3.3537H13.1811C12.7554 3.3516 12.3458 3.51643 12.04 3.81292C11.7342 4.1094 11.5564 4.51399 11.5447 4.94007C11.5447 5.99765 11.2547 7.26377 9.90842 7.26377C6.30107 7.26377 4.1441 9.7811 4.1441 14.004C4.1441 19.8504 9.62578 26.1587 14.743 28.3781C15.1541 28.5553 15.597 28.6465 16.0446 28.6462C16.4764 28.6478 16.904 28.5617 17.3016 28.393C23.118 25.9948 27.8559 19.5451 27.8559 14.004C27.8559 9.7811 25.6766 7.26377 22.0916 7.26377ZM8.71093 8.56712C8.82205 8.57005 8.92984 8.60572 9.02082 8.66967C9.1118 8.73362 9.18193 8.82301 9.22245 8.92666C9.26296 9.03031 9.27205 9.14362 9.24859 9.25242C9.22513 9.36122 9.17015 9.46068 9.09054 9.53836C9.01092 9.61604 8.9102 9.66848 8.80097 9.68914C8.69175 9.7098 8.57886 9.69776 8.47643 9.65451C8.37401 9.61127 8.28659 9.53875 8.22511 9.44601C8.16363 9.35328 8.13081 9.24446 8.13078 9.13315C8.13175 9.05784 8.14752 8.98345 8.1772 8.91425C8.20689 8.84504 8.24989 8.78237 8.30376 8.72981C8.35764 8.67724 8.42132 8.63582 8.49119 8.60791C8.56105 8.58 8.63571 8.56614 8.71093 8.56712ZM8.71093 10.8014C8.85803 10.8014 9.00183 10.8451 9.12415 10.927C9.24646 11.0088 9.3418 11.1251 9.39809 11.2612C9.45439 11.3973 9.46912 11.547 9.44042 11.6915C9.41172 11.836 9.34088 11.9687 9.23686 12.0729C9.13284 12.177 9.00031 12.2479 8.85603 12.2767C8.71175 12.3054 8.5622 12.2907 8.42629 12.2343C8.29038 12.1779 8.17422 12.0825 8.09249 11.96C8.01077 11.8375 7.96714 11.6935 7.96714 11.5462C7.96714 11.3487 8.04551 11.1593 8.18499 11.0196C8.32448 10.8799 8.51366 10.8014 8.71093 10.8014ZM9.30595 13.2815C9.46563 13.2845 9.62089 13.3346 9.75224 13.4255C9.88359 13.5165 9.98518 13.6443 10.0443 13.7929C10.1034 13.9414 10.1173 14.1042 10.0844 14.2607C10.0514 14.4171 9.97306 14.5604 9.85911 14.6724C9.74516 14.7845 9.60069 14.8603 9.44385 14.8905C9.287 14.9206 9.12476 14.9037 8.97749 14.8418C8.83021 14.78 8.70446 14.6759 8.61602 14.5428C8.52758 14.4096 8.48038 14.2533 8.48035 14.0933C8.48619 13.8767 8.57677 13.671 8.73257 13.5206C8.88838 13.3701 9.09696 13.287 9.31339 13.289L9.30595 13.2815ZM10.5109 15.5159C10.6982 15.5203 10.88 15.5799 11.0336 15.6873C11.1872 15.7947 11.3057 15.945 11.3744 16.1196C11.443 16.2941 11.4587 16.485 11.4195 16.6685C11.3803 16.8519 11.2879 17.0197 11.1539 17.1508C11.0199 17.2819 10.8503 17.3705 10.6662 17.4055C10.4822 17.4405 10.2919 17.4203 10.1193 17.3476C9.9466 17.2748 9.79921 17.1527 9.69555 16.9964C9.59189 16.8402 9.53658 16.6568 9.53652 16.4692C9.54044 16.2137 9.64506 15.9701 9.82758 15.7915C10.0101 15.613 10.2557 15.5139 10.5109 15.5159ZM12.7422 17.5044C12.9795 17.5088 13.2103 17.5833 13.4055 17.7185C13.6006 17.8537 13.7516 18.0437 13.8394 18.2645C13.9272 18.4853 13.9479 18.7272 13.8989 18.9597C13.8499 19.1923 13.7334 19.4052 13.5641 19.5717C13.3947 19.7382 13.18 19.8509 12.9469 19.8957C12.7138 19.9404 12.4727 19.9153 12.2538 19.8233C12.0349 19.7314 11.848 19.5768 11.7166 19.3789C11.5852 19.181 11.515 18.9486 11.515 18.7109C11.5188 18.3934 11.646 18.0899 11.8695 17.8646C12.093 17.6394 12.3954 17.5102 12.7125 17.5044H12.7422ZM16.0074 18.7184C16.3016 18.7184 16.5892 18.8057 16.8339 18.9694C17.0785 19.1331 17.2692 19.3657 17.3818 19.6379C17.4943 19.9101 17.5238 20.2096 17.4664 20.4985C17.409 20.7875 17.2673 21.0529 17.0593 21.2612C16.8513 21.4695 16.5862 21.6114 16.2976 21.6689C16.0091 21.7263 15.71 21.6968 15.4382 21.5841C15.1663 21.4714 14.934 21.2804 14.7706 21.0355C14.6071 20.7905 14.5199 20.5025 14.5199 20.2079C14.5199 19.8129 14.6766 19.434 14.9556 19.1547C15.2345 18.8753 15.6129 18.7184 16.0074 18.7184ZM17.9933 18.7184C17.9874 18.4727 18.0548 18.2308 18.1868 18.0236C18.3188 17.8164 18.5095 17.6533 18.7345 17.5552C18.9596 17.457 19.2087 17.4282 19.4501 17.4725C19.6916 17.5168 19.9143 17.6321 20.09 17.8038C20.2656 17.9754 20.3862 18.1956 20.4363 18.4362C20.4864 18.6768 20.4638 18.9269 20.3713 19.1546C20.2788 19.3822 20.1206 19.5771 19.9169 19.7143C19.7133 19.8515 19.4735 19.9248 19.228 19.9249C19.0682 19.9259 18.9097 19.8952 18.7618 19.8347C18.6138 19.7741 18.4793 19.6848 18.3659 19.572C18.2526 19.4592 18.1626 19.325 18.1012 19.1772C18.0398 19.0295 18.0082 18.871 18.0082 18.7109L17.9933 18.7184ZM20.4552 16.4841C20.4508 16.2902 20.5042 16.0994 20.6085 15.9361C20.7128 15.7727 20.8634 15.6442 21.041 15.5669C21.2186 15.4896 21.4152 15.4671 21.6056 15.5022C21.7961 15.5373 21.9718 15.6284 22.1103 15.7639C22.2488 15.8994 22.3438 16.0732 22.3833 16.263C22.4227 16.4529 22.4048 16.6502 22.3317 16.8297C22.2587 17.0093 22.1338 17.163 21.9732 17.2713C21.8125 17.3795 21.6232 17.4373 21.4296 17.4374C21.1744 17.4354 20.9304 17.3325 20.7507 17.1512C20.571 16.9698 20.4701 16.7247 20.4701 16.4692L20.4552 16.4841ZM22.6345 14.9275C22.4748 14.9275 22.3187 14.8802 22.1857 14.7916C22.0527 14.7031 21.9488 14.5772 21.887 14.4297C21.8253 14.2822 21.8084 14.1198 21.8385 13.9627C21.8686 13.8057 21.9443 13.661 22.0562 13.5469C22.1681 13.4328 22.3112 13.3543 22.4674 13.3213C22.6237 13.2884 22.7862 13.3023 22.9346 13.3615C23.083 13.4207 23.2106 13.5224 23.3014 13.6539C23.3923 13.7854 23.4423 13.9409 23.4452 14.1008C23.4416 14.3124 23.357 14.5145 23.2089 14.6656C23.0609 14.8166 22.8606 14.905 22.6494 14.9126L22.6345 14.9275ZM22.4783 11.5462C22.4783 11.3989 22.522 11.2549 22.6037 11.1324C22.6854 11.01 22.8016 10.9145 22.9375 10.8581C23.0734 10.8018 23.2229 10.787 23.3672 10.8158C23.5115 10.8445 23.644 10.9154 23.7481 11.0196C23.8521 11.1237 23.9229 11.2564 23.9516 11.4009C23.9803 11.5454 23.9656 11.6951 23.9093 11.8312C23.853 11.9673 23.7577 12.0836 23.6353 12.1655C23.513 12.2473 23.3692 12.291 23.2221 12.291C23.0249 12.291 22.8357 12.2125 22.6962 12.0729C22.5567 11.9332 22.4783 11.7437 22.4783 11.5462ZM23.2221 9.70662C23.111 9.70369 23.0032 9.66802 22.9122 9.60407C22.8212 9.54012 22.7511 9.45073 22.7106 9.34708C22.6701 9.24343 22.661 9.13012 22.6845 9.02132C22.7079 8.91252 22.7629 8.81306 22.8425 8.73539C22.9221 8.65771 23.0228 8.60526 23.1321 8.5846C23.2413 8.56394 23.3542 8.57599 23.4566 8.61923C23.559 8.66247 23.6465 8.735 23.7079 8.82773C23.7694 8.92046 23.8022 9.02929 23.8023 9.1406C23.8043 9.29143 23.7468 9.43698 23.6424 9.54572C23.538 9.65445 23.395 9.71761 23.2444 9.72152L23.2221 9.70662ZM12.2885 4.94007C12.3 4.71155 12.3994 4.49635 12.5657 4.33948C12.7321 4.18262 12.9526 4.09626 13.1811 4.09848H18.8189C19.05 4.09235 19.2742 4.17696 19.4438 4.33423C19.6134 4.49149 19.7148 4.70893 19.7263 4.94007C19.7263 6.86159 20.6189 8.00854 22.1064 8.00854C22.275 8.00854 22.4387 8.00854 22.5973 8.00854C22.3978 8.1247 22.2331 8.29246 22.1206 8.49426C22.008 8.69605 21.9518 8.92444 21.9577 9.15549C21.9594 9.3756 22.0161 9.59179 22.1226 9.78432C22.2291 9.97686 22.3821 10.1396 22.5676 10.2578C22.3644 10.3684 22.1898 10.5249 22.0576 10.715C21.9254 10.905 21.8393 11.1233 21.8061 11.3524C21.7729 11.5816 21.7935 11.8154 21.8663 12.0352C21.9391 12.255 22.0621 12.4548 22.2254 12.6187C21.9034 12.7123 21.6204 12.9082 21.4192 13.1769C21.218 13.4456 21.1094 13.7724 21.1098 14.1082C21.1125 14.3469 21.1711 14.5816 21.2808 14.7934C20.8713 14.8458 20.4946 15.0453 20.221 15.3549C19.9474 15.6646 19.7954 16.0632 19.7933 16.4766C19.793 16.5996 19.808 16.7222 19.8379 16.8416C19.6658 16.7939 19.4883 16.7689 19.3098 16.7671C18.8481 16.7649 18.4004 16.9258 18.0454 17.2214C17.6904 17.5169 17.4507 17.9283 17.3685 18.3832C16.9697 18.1057 16.493 17.9622 16.0074 17.9736C15.5144 17.9751 15.0358 18.1401 14.6463 18.4428C14.5801 17.9762 14.3481 17.5492 13.9929 17.2401C13.6377 16.9309 13.1831 16.7603 12.7125 16.7596C12.534 16.7614 12.3565 16.7865 12.1844 16.8341C12.2143 16.7148 12.2292 16.5922 12.229 16.4692C12.2269 16.0557 12.0749 15.6571 11.8013 15.3475C11.5277 15.0379 11.151 14.8383 10.7415 14.786C10.8512 14.5741 10.9098 14.3394 10.9125 14.1008C10.9129 13.765 10.8043 13.4381 10.6031 13.1694C10.4019 12.9008 10.1189 12.7049 9.79685 12.6112C9.96024 12.4473 10.0832 12.2476 10.156 12.0278C10.2288 11.8079 10.2494 11.5742 10.2162 11.345C10.183 11.1158 10.0969 10.8975 9.96469 10.7075C9.8325 10.5175 9.65788 10.3609 9.45471 10.2503C9.63776 10.132 9.78863 9.97003 9.89377 9.77895C9.99892 9.58787 10.0551 9.37365 10.0572 9.15549C10.0569 8.92599 9.99533 8.70074 9.87895 8.50303C9.76257 8.30532 9.59557 8.14232 9.39521 8.03088C9.57371 8.03088 9.74478 8.03088 9.93073 8.03088C11.396 8.00854 12.2885 6.86159 12.2885 4.94007ZM17.019 27.7078C16.7056 27.8389 16.3694 27.9064 16.0297 27.9064C15.6901 27.9064 15.3539 27.8389 15.0405 27.7078C10.139 25.5703 4.88789 19.56 4.88789 14.004C4.88789 11.2632 5.83993 9.37148 7.55806 8.51499C7.44868 8.7109 7.38988 8.93106 7.38699 9.15549C7.38719 9.37504 7.44246 9.59103 7.54773 9.78362C7.65299 9.97622 7.80488 10.1392 7.98946 10.2578C7.73821 10.3981 7.53299 10.6084 7.39866 10.8631C7.26434 11.1179 7.20667 11.4062 7.23265 11.6931C7.25862 11.98 7.36713 12.2532 7.54502 12.4796C7.72291 12.706 7.96255 12.8759 8.23491 12.9687C8.07827 13.1127 7.95313 13.2877 7.86736 13.4825C7.78159 13.6773 7.73706 13.8879 7.73657 14.1008C7.73987 14.4667 7.87117 14.8198 8.10763 15.0988C8.34409 15.3777 8.67075 15.5649 9.03075 15.6276C8.87531 15.8807 8.79293 16.172 8.79274 16.4692C8.79667 16.9222 8.97966 17.3552 9.30166 17.6734C9.62366 17.9917 10.0585 18.1692 10.5109 18.1673C10.621 18.1663 10.7307 18.1538 10.8381 18.13C10.7753 18.3173 10.7427 18.5134 10.7415 18.7109C10.7469 19.0626 10.846 19.4063 11.0286 19.7067C11.2112 20.0071 11.4706 20.2532 11.7801 20.4195C12.0895 20.5858 12.4377 20.6663 12.7886 20.6527C13.1395 20.6391 13.4804 20.5318 13.7761 20.342C13.7712 20.9346 14.0015 21.5048 14.4165 21.9274C14.8315 22.3499 15.397 22.59 15.9888 22.5949C16.5806 22.5999 17.1501 22.3692 17.5721 21.9537C17.994 21.5382 18.2338 20.9718 18.2388 20.3792C18.5425 20.5611 18.889 20.6588 19.2429 20.6622C19.7624 20.6642 20.2615 20.46 20.6309 20.0943C21.0003 19.7285 21.21 19.2311 21.2139 18.7109C21.2127 18.5134 21.18 18.3173 21.1172 18.13C21.2247 18.1538 21.3344 18.1663 21.4445 18.1673C21.8969 18.1692 22.3317 17.9917 22.6537 17.6734C22.9757 17.3552 23.1587 16.9222 23.1626 16.4692C23.1624 16.172 23.08 15.8807 22.9246 15.6276C23.2791 15.5587 23.5989 15.3689 23.8294 15.0906C24.06 14.8122 24.187 14.4624 24.189 14.1008C24.1885 13.8879 24.144 13.6773 24.0582 13.4825C23.9725 13.2877 23.8473 13.1127 23.6907 12.9687C23.9631 12.8759 24.2027 12.706 24.3806 12.4796C24.5585 12.2532 24.667 11.98 24.693 11.6931C24.7189 11.4062 24.6613 11.1179 24.5269 10.8631C24.3926 10.6084 24.1874 10.3981 23.9361 10.2578C24.1207 10.1392 24.2726 9.97622 24.3779 9.78362C24.4831 9.59103 24.5384 9.37504 24.5386 9.15549C24.5388 8.91926 24.4745 8.68748 24.3527 8.4852C26.108 9.32679 27.0823 11.2334 27.0823 14.004C27.1121 19.2695 22.5825 25.4139 17.019 27.7078Z" fill="#101010"/>
</svg>
