<svg width="32" height="32" viewBox="0 0 32 32" fill="none" xmlns="http://www.w3.org/2000/svg">
<path fill-rule="evenodd" clip-rule="evenodd" d="M11.7771 10.1373C11.3075 9.79314 10.7273 9.83469 10.3912 10.1965C10.0249 10.5908 9.66299 11.0922 9.47434 11.6581C9.08538 12.825 9.25852 14.1977 9.87418 15.6099C10.4882 17.0184 11.5246 18.4211 12.7818 19.6082C14.0391 20.7954 15.4962 21.7469 16.9335 22.2729C18.3743 22.8001 19.7493 22.8847 20.8885 22.4159C21.4402 22.1889 21.9156 21.7934 22.2838 21.401C22.6218 21.0409 22.6234 20.4592 22.2478 20.0143C21.6989 19.364 21.1832 18.9014 20.4523 18.6514C20.1187 18.5373 19.7188 18.636 19.3806 18.928L18.1726 19.9707C18.0586 20.0691 17.9064 20.1109 17.7582 20.0845C16.4744 19.8557 15.1961 19.0962 14.1725 18.1154C13.1482 17.1341 12.331 15.8856 12.0149 14.6213C11.9784 14.4752 12.0097 14.3205 12.1 14.2L13.0575 12.9233L13.4339 13.2057L13.0575 12.9233C13.3255 12.5659 13.3966 12.1602 13.2599 11.8352C12.9604 11.1231 12.4635 10.6404 11.7771 10.1373ZM9.65851 9.51593C10.3985 8.71931 11.5626 8.74031 12.3683 9.33078C13.1144 9.87763 13.7796 10.4916 14.1817 11.4475C14.4906 12.1822 14.2791 12.9611 13.8575 13.5233L13.0477 14.6031C13.3456 15.5724 14.0062 16.5712 14.8643 17.3934C15.7221 18.2152 16.7361 18.8213 17.706 19.0525L18.7271 18.171L19.0538 18.5495L18.7271 18.171C19.2591 17.7117 20.0217 17.4473 20.7759 17.7052C21.7571 18.0408 22.4152 18.6623 23.012 19.3692C23.6563 20.1325 23.7571 21.2924 23.013 22.0853C22.5903 22.5358 22.0009 23.0395 21.2691 23.3407C19.8225 23.9359 18.1744 23.7918 16.5899 23.212C15.0019 22.6309 13.4317 21.5972 12.0953 20.3353C10.7588 19.0733 9.63482 17.5632 8.9575 16.0096C8.28182 14.4597 8.03257 12.8211 8.52566 11.3419C8.77591 10.5912 9.23808 9.96854 9.65851 9.51593Z" fill="#101010"/>
<path fill-rule="evenodd" clip-rule="evenodd" d="M16 4.5C9.64873 4.5 4.5 9.64873 4.5 16C4.5 22.3513 9.64873 27.5 16 27.5C22.3513 27.5 27.5 22.3513 27.5 16C27.5 9.64873 22.3513 4.5 16 4.5ZM3.5 16C3.5 9.09644 9.09644 3.5 16 3.5C22.9036 3.5 28.5 9.09644 28.5 16C28.5 22.9036 22.9036 28.5 16 28.5C9.09644 28.5 3.5 22.9036 3.5 16Z" fill="#101010"/>
</svg>
