<svg width="24" height="24" viewBox="0 0 24 24" fill="none" xmlns="http://www.w3.org/2000/svg">
<g clip-path="url(#clip0)">
<path d="M7.33273 5.40024H17.304C18.7761 5.40024 20.0325 6.45786 20.2751 7.90119L21.1581 13.1546C21.465 14.9801 20.0489 16.6425 18.187 16.6425H14.5809L15.7911 20.1033C16.2756 21.4889 15.6445 23.016 14.3202 23.6629C13.762 23.9355 13.0895 23.7926 12.6932 23.3162C10.6178 20.8211 7.43375 17.0031 7.33273 16.9227V5.40024ZM7.33273 5.40024L3.80414 5.40005C3.2496 5.40005 2.80005 5.84693 2.80005 6.39819V15.6869C2.80005 16.2382 3.2496 16.6851 3.80414 16.6851H7.33269" stroke="#E6E6E6" stroke-linecap="round" stroke-linejoin="round"/>
</g>
<defs>
<clipPath id="clip0">
<rect width="24" height="24" fill="white" transform="translate(24 24) rotate(-180)"/>
</clipPath>
</defs>
</svg>
