<svg width="16" height="19" viewBox="0 0 16 19"  xmlns="http://www.w3.org/2000/svg">
<path d="M11.6468 4.25C11.6468 2.23464 9.95664 0.544444 7.94128 0.544444C5.82405 0.544444 4.23573 2.24215 4.23573 4.25C4.23573 6.26536 5.92593 7.95556 7.94128 7.95556C9.95664 7.95556 11.6468 6.26536 11.6468 4.25ZM4.09128 4.25C4.09128 2.1098 5.80109 0.4 7.94128 0.4C10.0815 0.4 11.7913 2.1098 11.7913 4.25C11.7913 6.3902 10.0815 8.1 7.94128 8.1C5.80109 8.1 4.09128 6.3902 4.09128 4.25Z" fill="none" stroke-width="0.8"/>
<path d="M13.5666 18C14.4212 18 15.0859 17.129 14.991 16.2581C14.4212 12.9677 12.0473 10.4516 8.0592 10.4516C3.9761 10.4516 1.60221 12.871 1.03248 16.2581C0.842569 17.129 1.50726 18 2.45681 18H13.5666Z"  fill="none" stroke-width="0.8" stroke-linecap="round" stroke-linejoin="round"/>
</svg>
