<svg width="50" height="17" viewBox="0 0 50 17" fill="none" xmlns="http://www.w3.org/2000/svg">
<g clip-path="url(#clip0)">
<path fill-rule="evenodd" clip-rule="evenodd" d="M17.5532 16.5094L20.0348 0.844971H24.002L21.5205 16.5094H17.5532Z" fill="#005CA3"/>
<path fill-rule="evenodd" clip-rule="evenodd" d="M36.0014 1.22647C35.2167 0.910647 33.9743 0.561279 32.4376 0.561279C28.514 0.561279 25.7509 2.69003 25.7346 5.73338C25.702 7.97869 27.7127 9.22605 29.2168 9.9746C30.7536 10.7394 31.2768 11.2382 31.2768 11.9204C31.2605 12.9681 30.0345 13.4507 28.8901 13.4507C27.3044 13.4507 26.454 13.2013 25.1624 12.6188L24.6392 12.3694L24.0836 15.8786C25.0155 16.311 26.7318 16.6936 28.514 16.7102C32.6827 16.7102 35.3965 14.6147 35.4291 11.3717C35.4455 9.59169 34.383 8.2281 32.0942 7.11391C30.7046 6.3989 29.8546 5.91636 29.8546 5.18475C29.871 4.51956 30.5737 3.83776 32.1431 3.83776C33.4348 3.80455 34.383 4.12037 35.1024 4.43653L35.4621 4.60258L36.0014 1.22647Z" fill="#005CA3"/>
<path fill-rule="evenodd" clip-rule="evenodd" d="M46.1457 0.884521H43.0748C42.1273 0.884521 41.4085 1.1677 41.0001 2.18396L35.1034 16.549H39.2686C39.2686 16.549 39.9548 14.6156 40.1019 14.199H45.1983C45.3128 14.7491 45.6722 16.549 45.6722 16.549H49.3475L46.1457 0.884521ZM41.2451 10.9995C41.5719 10.0997 42.8298 6.61669 42.8298 6.61669C42.8135 6.6503 43.1566 5.70026 43.3526 5.11693L43.6302 6.46661C43.6302 6.46661 44.3816 10.2165 44.545 10.9995H41.2451Z" fill="#005CA3"/>
<path fill-rule="evenodd" clip-rule="evenodd" d="M14.3593 0.844971L10.4716 11.5053L10.0469 9.34303C9.32805 6.84864 7.07399 4.13806 4.55835 2.79073L8.11932 16.4616H12.3176L18.5576 0.844971H14.3593Z" fill="#005CA3"/>
<path fill-rule="evenodd" clip-rule="evenodd" d="M6.86019 0.844971H0.476569L0.411377 1.1608C5.39075 2.45797 8.6885 5.58468 10.0435 9.34303L8.6559 2.15842C8.42741 1.1608 7.72529 0.877848 6.86019 0.844971Z" fill="#FFAD30"/>
</g>
<defs>
<clipPath id="clip0">
<rect width="48.9362" height="16.1833" fill="white" transform="translate(0.411377 0.561279)"/>
</clipPath>
</defs>
</svg>
