<svg width="50" height="16" viewBox="0 0 50 16" fill="none" xmlns="http://www.w3.org/2000/svg">
<path fill-rule="evenodd" clip-rule="evenodd" d="M17.6416 15.9482L20.1231 0.283691H24.0904L21.6089 15.9482H17.6416Z" fill="#005CA3"/>
<path fill-rule="evenodd" clip-rule="evenodd" d="M36.0896 0.665193C35.3049 0.349367 34.0626 0 32.5258 0C28.6023 0 25.8392 2.12875 25.8229 5.1721C25.7902 7.41741 27.801 8.66477 29.3051 9.41332C30.8418 10.1781 31.3651 10.677 31.3651 11.3591C31.3488 12.4069 30.1227 12.8894 28.9783 12.8894C27.3926 12.8894 26.5423 12.64 25.2507 12.0575L24.7274 11.8081L24.1719 15.3174C25.1038 15.7498 26.8201 16.1323 28.6023 16.1489C32.7709 16.1489 35.4848 14.0534 35.5174 10.8105C35.5337 9.03041 34.4712 7.66682 32.1824 6.55263C30.7929 5.83762 29.9429 5.35508 29.9429 4.62347C29.9592 3.95828 30.662 3.27648 32.2314 3.27648C33.523 3.24327 34.4712 3.5591 35.1907 3.87525L35.5504 4.0413L36.0896 0.665193Z" fill="#005CA3"/>
<path fill-rule="evenodd" clip-rule="evenodd" d="M46.2347 0.323242H43.1637C42.2163 0.323242 41.4975 0.606423 41.0891 1.62268L35.1924 15.9877H39.3576C39.3576 15.9877 40.0438 14.0544 40.1909 13.6377H45.2873C45.4018 14.1878 45.7612 15.9877 45.7612 15.9877H49.4365L46.2347 0.323242ZM41.3341 10.4382C41.6609 9.53844 42.9188 6.05541 42.9188 6.05541C42.9025 6.08902 43.2456 5.13898 43.4416 4.55565L43.7192 5.90533C43.7192 5.90533 44.4706 9.65524 44.634 10.4382H41.3341Z" fill="#005CA3"/>
<path fill-rule="evenodd" clip-rule="evenodd" d="M14.4484 0.283691L10.5607 10.944L10.136 8.78175C9.41716 6.28736 7.1631 3.57678 4.64746 2.22945L8.20843 15.9003H12.4067L18.6467 0.283691H14.4484Z" fill="#005CA3"/>
<path fill-rule="evenodd" clip-rule="evenodd" d="M6.94881 0.283691H0.565192L0.5 0.599517C5.47938 1.89669 8.77712 5.0234 10.1321 8.78175L8.74453 1.59714C8.51603 0.599517 7.81391 0.316569 6.94881 0.283691Z" fill="#FFAD30"/>
</svg>
