<svg width="32" height="32" viewBox="0 0 32 32" fill="none" xmlns="http://www.w3.org/2000/svg">
<path fill-rule="evenodd" clip-rule="evenodd" d="M17.282 19.34C17.047 19.455 16.72 19.513 16.299 19.513H14.503V16.896H16.33C16.748 16.901 17.072 16.956 17.302 17.063C17.715 17.253 17.922 17.605 17.922 18.115C17.922 18.719 17.707 19.127 17.282 19.34ZM14.504 12.888H15.834C16.3 12.888 16.684 12.938 16.984 13.041C17.33 13.189 17.504 13.491 17.504 13.947C17.504 14.36 17.374 14.647 17.11 14.81C16.846 14.97 16.504 15.052 16.082 15.052H14.504V12.888ZM20.814 16.558C20.354 16.108 20.03 15.814 19.244 15.67V15.612C19.802 15.385 20.236 15.069 20.54 14.662C20.8451 14.2565 21.0069 13.7613 21 13.254C21 12.798 20.888 12.389 20.664 12.031C20.441 11.677 20.104 11.391 19.648 11.181C19.2262 10.9841 18.7772 10.8519 18.316 10.789C17.87 10.728 16.866 10.7 15.9 10.7H12.5C11.9477 10.7 11.5 11.1477 11.5 11.7V20.7C11.5 21.2522 11.9477 21.7 12.5 21.7H16.48C17.348 21.7 18.067 21.632 18.633 21.493C19.1897 21.3578 19.7173 21.1227 20.19 20.799C20.596 20.521 20.918 20.176 21.15 19.754C21.384 19.334 21.5 18.861 21.5 18.329C21.5 17.596 21.27 17.006 20.813 16.557L20.814 16.558Z" fill="#101010"/>
<path d="M16 28C22.6274 28 28 22.6274 28 16C28 9.37258 22.6274 4 16 4C9.37258 4 4 9.37258 4 16C4 22.6274 9.37258 28 16 28Z" stroke="#101010"/>
</svg>
