<svg xmlns="http://www.w3.org/2000/svg" width="291" height="299" fill="none"><path fill-rule="evenodd" clip-rule="evenodd" d="M23.673 229.758c-7.567 1.594-11.196 8.684-16.316 14.356-1.293 1.432-2.63 2.817-4.089 4.019-.559.461-1.303 1.078-2.215 1.67-.058.108 1.525 1.206 1.677 1.305 1.986 1.287 4.219 1.971 6.409 2.252 7.635.978 17.771 1.388 30.71-18.016" fill="#A6E468"/><path fill-rule="evenodd" clip-rule="evenodd" d="M54.465 224.589c-2.575 2.04-5.21 4.441-7.054 7.17-6.447 9.544-4.168 21.127-6.081 31.73-.881 4.876-4.55 11.702-6.781 15.917.55.185 1.784.401 1.942.423 2.03.282 4.084.013 6.074-.426 6.849-1.508 14.332-7.889 19.619-12.514 13.227-11.57 14.247-29.83 15.012-46.156" fill="#D6EDF5"/><path fill-rule="evenodd" clip-rule="evenodd" d="M74.107 228.762c-7.534 5.73-9.696 18.833-9.243 24.773.503 6.592 2.42 13 1.839 19.671-.758 8.706-3.878 17.13-10.715 21.725 4.54.728 8.853.035 11.42-.349 7.413-1.108 19.318-5.17 29.376-13.298 7.79-6.296 16.288-16.668 19.364-35.835.966-6.016 3.202-13.344 6.863-18.175" fill="#A6E468"/><path fill-rule="evenodd" clip-rule="evenodd" d="M98.546 227.737l1.721-.053c-3.64 4.937-6.604 10.405-9.046 16.196l.192.179c6.766 6.312 10.27 16.44 11.88 25.654.255 1.457.439 2.928.5 4.402l-.923 1.074c-.558-.766-.553-3.538-.964-5.74-1.403-7.502-4.2-14.846-8.476-20.939-.827-1.177-1.732-2.308-2.764-3.287-2.426 5.995-4.314 12.315-5.796 18.766a73.701 73.701 0 0 1-2.253 7.788c.153.505.19 1.192.293 1.821.85 5.168 1.263 10.535.445 15.641l-.004.012-1.24.568c-.092-.198-.114-.46-.054-.824.763-4.845.49-9.867-.36-14.769-3.593 8.98-9.28 16.863-17.833 19.607-1.496.48-3.024.829-4.579 1.122a25.63 25.63 0 0 1-3.308-.305l.884-.646.907-.18c5.343-.983 10.695-2.795 14.598-7.167 5.144-5.762 8.643-13.03 10.62-20.538.604-2.292 1.182-4.594 1.792-6.895-4.837 3.718-10.678 5.792-15.23 10.626a58.99 58.99 0 0 0-2.453 2.801s-.179.022-.392.007l.075-1.731c4.37-5.106 10.265-8.197 16.156-12.109.967-.642 2.282-1.726 2.282-1.726.057-.035.086-.07.163-.092.785-2.834 1.646-5.661 2.693-8.461 1.622-4.333 3.439-8.59 5.564-12.658-10.35 4.021-20.296 9.627-28.271 17.868 0 0-.218.034-.462.012l-.05-.507-.016-.918.003-.004c8.245-8.361 18.67-14.126 29.4-18.177 0 0 .156-.098.392-.127a70.053 70.053 0 0 1 3.913-6.291zm3.886-.163l1.514-.046c2.263 3.686 5.15 6.974 7.223 10.873 1.812 3.407 3.156 7.074 4.118 10.849l-.52 2.263c-.402-.601-.687-1.791-.986-2.863-1.838-6.58-5.396-12.36-9.315-17.91-.724-1.03-1.424-2.079-2.034-3.166z" fill="#8BDC3A"/><path fill-rule="evenodd" clip-rule="evenodd" d="M41.676 237.773c-3.876 1.806-7.888 2.909-9.245.556-1.214-2.105 1.452-4.581 4.235-5.855.207-.094.416-.184.627-.272 6.61 1.278 7.246.194 12.986 2.608 2.052 4.524 3.905 9.243 2.491 13.555-.988 3.014-5.414 4.581-8.184-2.281-.927-2.296-1.461-4.734-1.712-7.218a134.924 134.924 0 0 1-1.82 4.199c.09.207.17.431.242.646 2.152 6.307 5.453 12.542 5.095 19.18-.15 2.791-1.012 6.243-4.242 6.183-5.205-.097-6.267-8.925-5.987-14.328.035-.661.073-1.322.114-1.983a271.487 271.487 0 0 1-2.333 4.328c.02.867-.163 1.92-.55 3.089-2.052 6.173-4.105 12.792-9.592 16.581-1.431.988-3.387 1.641-4.812.456-2.847-2.366-1.162-6.927.083-9.14 2.171-3.861 7.93-10.251 13.792-12.183a248.789 248.789 0 0 0 2.237-4.158l-1.06.587c-3.217 1.79-7.977 4.075-9.575.301-.97-2.29 1.468-4.934 3.554-6.331a21.546 21.546 0 0 1 3.049-1.7c2.73-1.225 5.74-1.672 8.656-2.283a133.23 133.23 0 0 0 1.95-4.537z" fill="#00988B"/><path fill-rule="evenodd" clip-rule="evenodd" d="M291 83.185c0-4.401-3.581-7.974-7.99-7.974H8.99C4.58 75.21 1 78.784 1 83.185v143.542c0 4.401 3.58 7.975 7.99 7.975h274.02c4.409 0 7.99-3.574 7.99-7.975V83.185z" fill="#FFF8E4"/><path d="M272.41 94.932H19.523v119.892H272.41V94.932z" fill="#fff"/><path fill-rule="evenodd" clip-rule="evenodd" d="M273.427 94.322c.466.311.39.583.39.583v119.892l-.39.583-.243.048H19.626l-.447-.185c-.135-.203-.137-.206-.185-.446V94.905c.186-.934.632-.63.632-.63h253.558l.243.047zM20.259 95.536v118.63h252.293V95.536H20.259z" fill="#FFE69A"/><path fill-rule="evenodd" clip-rule="evenodd" d="M157.633 47.21c2.585 2.116 11.063 12.853 17.28 20.357 9.432 11.385 17.244 15.423 25.886 17.429 15.183 3.524 27.308 1.064 27.126.986-5.419-2.345-8.666-6.829-10.449-15.495-1.476-7.171-2.454-16.602-7.049-22.748" fill="#A2F5D9"/><path fill-rule="evenodd" clip-rule="evenodd" d="M182.339 47.21l.687.007c.225.061.249.156.406.265 4.003 2.798 7.186 6.623 10.617 10.215 1.862 1.956 3.597 4.023 5.308 6.132a.913.913 0 0 1 .125-.003c6.016.62 11.929 2.2 17.558 4.512l.305 1.617c-5.369-2.256-11.007-3.863-16.754-4.594 3.748 4.675 7.499 9.475 12.345 13.674 3.771 3.266 8.614 6.133 13.298 6.112l1.663.846c.055.024-1.009.264-2.931.477-5.505-.448-10.905-4.246-14.705-8.026-3.785-3.768-7.106-7.93-10.499-12.05-1.001 6.11-.122 12.57 1.924 18.557l-.964-.203-.637-.171c-2.031-6.291-2.801-13.029-1.508-19.504l.017-.09c-1.791-2.154-3.619-4.281-5.561-6.322-3.443-3.603-6.618-7.499-10.753-10.27 0 0-.443-.921.059-1.18zm-2.415 25.72c-2.629-7.232-2.464-15.416-.237-22.863 0 0 .122-.994.923-.898 1.346.328-.148 3.088-.592 5.423-1.321 6.953-.735 14.356 2.46 20.76l-.727-.614-1.827-1.807z" fill="#75F0C7"/><path fill-rule="evenodd" clip-rule="evenodd" d="M227.855 26.237c11.039-9.543 24.369-3.065 30.035-2.362 1.889.234 11.499 1.567 13.624 1.007-7.998 11.33-15.287 15.462-19.497 17.494-7.049 3.4-13.556 5.505-21.482 4.386" fill="#A6E468"/><path fill-rule="evenodd" clip-rule="evenodd" d="M230.394 59.038c.003 3.3-.066 6.44.569 9.725.482 2.494 1.123 4.984 2.265 7.267 1.165 2.33 3.624 5.878 6.196 3.182.314-.33.831-.774.943-1.24.674-2.81-.636-6.251-1.889-8.693a53.848 53.848 0 0 0-4.883-7.796 81.257 81.257 0 0 0 9.788 6.137s.064.021.159.036l.006.018c6.164 4.906 10.974 7.541 16.977 9.395 2.052.635 7.17 1.292 9.525-.177 1.103-.688 2.133-2.866.796-4.482-1.28-1.547-2.916-2.52-4.812-3.137-3.835-1.25-11.432-2.22-22.396-2.855a86.111 86.111 0 0 1-6.952-4.251c4.665 1.098 9.729 1.357 14.251-.385 1.779-.685 5.383-3.814 3.301-6.057-1.419-1.53-4.688-1.526-6.575-1.311-5.575.635-11.078 2.554-16.596 3.597l.096.098a93.722 93.722 0 0 1-8.218-7.366c3.91.734 7.904.928 11.762-.139 2.396-.662 5.604-1.97 6.025-4.772.375-2.5-2.783-3.559-4.679-3.837-4.935-.725-10.5.963-14.955 2.954l-2.128 1.466a4.938 4.938 0 0 0-.067-.11l-2.73 2.037-.699.482.037.011-.582.435c-3.049 9.427-4.438 15.674-3.039 18.729 1.732 3.78 4.598 3.006 6.115 1.241 3.341-3.887 3.94-7.041 3.895-12.161-.017-1.982-.276-4.325-1.121-6.795l.09.021a97.274 97.274 0 0 0 9.525 8.733z" fill="#00988B"/><path fill-rule="evenodd" clip-rule="evenodd" d="M120.094 45.147c6.249 8.696 15.25 18.01 24.184 22.155 10.653 4.943 27.943 3.704 30.006-5.28 1.228-5.345-2.304-13.993-6.213-22.003" fill="#D6EDF5"/><path fill-rule="evenodd" clip-rule="evenodd" d="M235.811 29.708c0-9.337-7.6-16.918-16.961-16.918H45.02c-9.36 0-16.96 7.58-16.96 16.918v8.46c0 9.336 7.6 16.917 16.96 16.917h173.83c9.361 0 16.961-7.58 16.961-16.918v-8.46z" fill="#FFECB4"/><path fill-rule="evenodd" clip-rule="evenodd" d="M235.748 28.18c0-8.494-6.913-15.39-15.428-15.39H47.872c-8.515 0-15.429 6.896-15.429 15.39v7.694c0 8.495 6.914 15.39 15.429 15.39H220.32c8.515 0 15.428-6.895 15.428-15.39V28.18z" fill="#FFFDF6"/><path fill-rule="evenodd" clip-rule="evenodd" d="M221.74 14.022H53.288c-7.184 0-13.008 5.813-13.008 12.984v10.276c0 7.171 5.824 12.984 13.008 12.984h168.451c7.185 0 13.008-5.813 13.008-12.983V27.005c0-7.17-5.823-12.984-13.007-12.984zm-168.452-.998c-7.737 0-14.009 6.26-14.009 13.982v10.276c0 7.723 6.272 13.983 14.009 13.983h168.451c7.737 0 14.009-6.26 14.009-13.983V27.006c0-7.722-6.272-13.982-14.008-13.982H53.288z" fill="#FFD24B"/><ellipse cx="32.442" cy="31.558" rx="31.617" ry="31.558" fill="#FFF8E4"/><mask id="a" maskUnits="userSpaceOnUse" x="0" y="0" width="65" height="64"><ellipse cx="32.442" cy="31.558" rx="31.617" ry="31.558" fill="#fff"/></mask><g mask="url(#a)" fill-rule="evenodd" clip-rule="evenodd"><path d="M23.842 53.54c-4.63 4.455-6.79 7.927-11.363 21.19C9.294 83.962 5.524 92.825.569 98.58c4.219 1.091 15.628.39 21.176-3.352 1.485-4.442 2.266-9.743 2.657-12.237.488 2.651 1.39 5.716 1.897 7.342a3.815 3.815 0 0 1-.01 2.317c-1.635 5.068-8.005 25.109-8.005 25.109h48.79s-9.879-18.47-13.848-27.427a3.862 3.862 0 0 1-.308-1.825c.208-2.861.397-6.373.397-6.373s2.578-3.898 2.969-7.406c3.516 3.976 10.08 10.212 13.597 14.733 1.719-1.715 6.173-17.46 6.72-23.618a322.647 322.647 0 0 0-6.173-.702s-6.33-1.264-12.503-5.776c-6.173-4.513-8.83-6.695-15.472-7.63-6.642-.936-12.22-.33-18.611 1.805z" fill="#FFBF00"/><path d="M56.285 74.8c2.04 2.367 8.676 9.18 10.076 10.636 0 0-9.034-14.743-17.703-22.615 4.923 5.784 7.774 8.916 7.627 11.98z" fill="#FF8C1A"/><path d="M48.136 24.342c1.55 2.112 4.728 3.091 6.55 6.32 1.672 2.967 1.436 5.872 4.317 7.787 2.88 1.916 4.836.02 8.66 3.891-4.141 0-9.43 2.262-12.677 5.251-4.904 4.514-7.922 5.512-11.883 5.153-3.96-.36-20.095-9.399-20.095-9.399l23.276-19.994 1.87 1.001" fill="#F20D59"/><path d="M58.468 45.063c-2.108-1.629-4.878-2.335-7.134-4.027-2.272-1.703-4.327-4.028-4.493-6.693-.015-.24.078-.477.347-.472.383.053.31.635.381 1.015.615 3.295 3.803 5.768 6.908 7.287 1.581.773 3.224 1.457 4.596 2.548l-.605.342zm4.627-1.989c-2.775-1.835-6.405-2.307-8.652-4.953-1.64-1.93-1.353-4.858-2.907-7.18-1.372-2.05-3.464-3.508-5.581-4.702 0 0-.33-.619.19-.61.318.05 1.703.93 2.855 1.799 2.054 1.55 3.737 3.671 4.442 6.155.543 1.911.837 3.863 2.705 5.212 2.348 1.696 5.341 2.307 7.757 4.054l-.81.225zm-11.032 6.969c-1.74-.6-3.32-1.651-4.436-2.967-1.997-2.357-2.818-5.44-3.686-8.276 0 0-.16-.625.294-.602.19.032.215.06.279.23 1.237 4.026 2.341 8.392 6.41 10.393.58.285 1.182.535 1.807.713l-.668.509zm-2.779 1.683c-2.045-.622-3.78-2.224-4.832-4.276-.962-1.877-1.439-3.952-1.938-6.011 0 0-.275-.81.258-.787.417.065.452.933.616 1.6.916 3.7 2.228 7.647 6.053 8.858l.727.169-.111.07-.773.377z" fill="#DA0C51"/><path d="M35.096 44.493c.224 1.82 3.503 6.785 6.577 7.939-2.113 1.373-8.817 4.779-17.843 1.118l3.87-5.296c1.012-1.385 1.168-7.726 1.168-7.726s6.004 2.145 6.229 3.965z" fill="#FFE6E6"/><path d="M29.928 41.076c1.727.705 5.026 2.22 5.19 3.56.084.673.582 1.773 1.335 2.95-2.3-.43-4.946-1.132-7.857-2.768.139-1.17.216-2.364.256-3.174a6.429 6.429 0 0 1 1.076-.568z" fill="#FECDCD"/><path d="M9.321 41.78c-.258 2.606-.224 6.094-1.23 8.189-1.481 3.084-2.77 4.175-2.77 4.175s-6.283-3.1-14.462-3.613c3.157-2.887 4.058-6.7 4.83-9.527.773-2.826 2.82-6.105 7.005-8.931 4.186-2.827 3.15-7.69 7.329-12.92 2.994-3.747 9.225-7.694 15.52-9.01 1.545-1.992 22.217 5.845 22.604 14.26-4.315.963-9.918-3.312-13.009-7.02-.424 3.848-1.414 9.827-12.138 13.98-1.27 1.014-3.392 1.746-5.614 2.632a168.5 168.5 0 0 1 6.768 3.843c7.025-.803 5.154 13.188 4.929 14.671-4.071-1.12-6.625-.561-9.715.632-3.09 1.192-5.637 2.32-9.576 2.109 2.11-4-.025-9.856-.47-13.47z" fill="#F20D59"/><path d="M16.032 54.392c1.494-4.241-1.033-9.434-1.491-14.086-.22-2.232.143-4.49.859-6.62.023-.069.07-.366.406-.335.6.151.116.81-.068 1.464-.69 2.457-.721 5.018-.166 7.599.762 3.545 1.956 7.113 1.42 10.799l-.186.91-.774.27zm8.326-2.477c.024-.562.08-1.26.02-1.941-.334-3.779-2.779-7.17-3.41-10.595 0 0 0-.457.36-.43.361.073.287.32.322.495.583 2.824 2.317 5.315 3.002 8.177.335 1.396.488 2.838.398 4.268l-.068-.003-.624.029zm-27.27-.559c1.223-3.302 1.514-6.92 3.536-9.753 2.337-3.277 5.331-6.04 7.243-9.673 2.424-4.605 3.165-9.843 6.138-13.916 1.062-1.456 2.28-2.781 3.566-4.069.133-.132.166-.323.503-.269.54.208.09.602-.22.913-3.134 3.173-5.385 6.984-6.787 11.308-.916 2.8-2.022 5.539-3.602 8.074-2.07 3.32-5.306 5.796-7.138 9.347-1.313 2.544-1.614 5.466-2.598 8.192l-.641-.154z" fill="#DA0C51"/><path d="M4.783 53.865c.029-.102.108-.223.243-.373 2.079-2.329 3.242-5.324 3.434-8.479.255-4.416.778-8.999 3.714-12.489 3.174-3.774 7.211-6.95 9.1-11.643 1.28-3.185 1.86-6.617 2.243-10.038 0 0 .107-.347.434-.273.29.14.2.514.163.836-.598 5.01-1.685 10.042-4.698 14.107-2.661 3.59-6.622 6.304-8.46 10.03-1.015 2.06-1.338 4.347-1.544 6.63l-.068-.423c-.161 1.621-.209 3.584-.465 5.346-.172 1.024-.417 2.002-.803 2.915-.61 1.263-1.187 2.186-1.665 2.824-.315.427-.663.839-1.024 1.234l-.07.033-.534-.237z" fill="#DA0C51"/><path d="M48.47 35.037a2.465 2.465 0 0 0 2.469-2.462 2.465 2.465 0 0 0-2.468-2.463 2.465 2.465 0 0 0-2.469 2.463 2.465 2.465 0 0 0 2.468 2.462z" fill="#fff"/><path d="M22.982 31.391c-1.25-1.454-2.164-2.086-4.544-1.798-2.38.287-3.75 2.95-3.318 4.892.433 1.943 2.453 4.245 4.544 4.46 2.092.216 3.679-.215 4.472-1.079 1.082 1.223 6.275 6.26 11.612 7.195 5.337.935 8.943-2.662 10.242-6.116 1.298-3.453 1.808-9.841.87-14.374-4.327-4.82-12.05-8.164-12.05-8.164s-7.5 7.718-11.828 14.984z" fill="#FFE6E6"/><path d="M20.947 34.49c.097-.78-.138-1.628-.486-2.01-.166-.205-.05-.556.275-.54.706.074 1.187 1.607.898 2.707.425.13.83.324 1.19.588 0 0 .141.128.135.278-.023.534-1.066-.18-1.957-.35a4.693 4.693 0 0 0-1.828.015s-.19.018-.297-.087c-.339-.333.456-.672 1.322-.665.25.005.501.026.748.064z" fill="#FECDCD"/><path d="M35.124 17.484c-.425 3.847-1.415 9.826-12.138 13.98-2.577-3.574 2.717-17.112 2.543-21.221 2.096-2.817 9.04-3.263 13.48-1.76 5.594 1.892 8.737 7.605 9.123 16.02-4.315.964-9.917-3.311-13.008-7.02z" fill="#F20D59"/><path d="M33.102 7.636c2.534.539 4.958 1.607 7.173 2.97 2.43 1.495 4.6 3.445 6.303 5.715l.389 1.112.277.988c-3.096-5.044-8.37-8.776-14.167-10.11a16.083 16.083 0 0 0-2.83-.407 17.179 17.179 0 0 1 2.855-.268z" fill="#DA0C51"/><path d="M30.974 9.939c2.287 2.106 4.177 4.971 3.988 8.198l-.032.327c-.245 1.73-.732 3.77-2.14 5.833-.219.021-.404-.18-.135-.721 1.437-2.924 2.37-6.274.912-9.333-1.074-2.251-3.027-3.83-4.863-5.38a6.077 6.077 0 0 1-.429-.438s.29-.096.429-.138c.135-.04.408-.112.408-.112 5.554 2.163 10.793 5.196 14.764 9.47 1.558 1.676 2.935 3.491 4.174 5.407l.09 1.3-.032.004c-2.63-4.226-5.943-8.052-10.037-10.876-2.397-1.653-5.012-2.976-7.714-4.09l.617.549zm-3.103-1.373c.086.196.132.41.182.597 1.402 5.26-.192 11.104-1.886 16.172-.675 2.018-1.26 4.241-2.546 5.828l-.58.244-.215-.358c1.24-1.41 1.842-3.403 2.516-5.33 1.62-4.634 2.802-9.562 2.42-14.286-.072-.88-.212-1.747-.497-2.585l.606-.282z" fill="#DA0C51"/><path d="M27.095 8.967c1.953-2.235 2.996-6.493.377-8.61-3.016-2.439-7.617-3-11.715-1.788-3.26.966-7.489 5.14-7.84 11.175-.353 6.034 4.64 6.13 6.912 5.747 2.273-.383 10.479-4.478 12.266-6.524z" fill="#F20D59"/><path d="M11.887 1.058c4.212.427 8.192 3.47 8.624 7.843.144 1.457.159 2.959-.072 4.385l-.722.358c.68-3.633.1-7.702-2.96-10.052-1.555-1.196-3.495-1.84-5.47-1.913l.011-.014.589-.607z" fill="#DA0C51"/><path d="M10.825 2.154l.091.033c3.323 1.407 4.74 5.577 4.826 8.886a15.958 15.958 0 0 1-.435 4.26l-.458.126-.23.026.027-.185c1.138-4.632.638-10.32-3.716-12.39a2.999 2.999 0 0 1-.471-.266l.307-.42.059-.07zm-.82 1.158c2.028 3.077 2.595 7.273 1.579 10.766-.125.428-.284.88-.545 1.239a4.776 4.776 0 0 1-.657-.272c.71-.82.814-2.09.863-3.307.107-2.706-.331-5.615-1.626-7.8l.091-.168.295-.458zm3.373-3.496l1.197-.037c.786.004 1.57.04 2.35.128.254.029.508.063.76.103 3.07.49 6.185 2.306 7.102 5.63.447 1.619.387 3.374.19 5.049l-.266.185-.405.244-.011-.192c.355-3.047.264-6.522-2.41-8.586C19.22.282 15.599.3 12.49.5l-.013.002a9.68 9.68 0 0 1 .901-.686z" fill="#DA0C51"/><path d="M19.183-2.048c3.491.323 6.95 1.805 8.425 5.131.658 1.486.717 3.189.28 4.776a6.628 6.628 0 0 1-.761 1.071l-.389.388c-.027-.097-.01-.228.072-.4 1.226-2.635.822-5.866-1.614-7.97-2.692-2.327-6.574-2.68-9.88-2.249l.473-.166a14.426 14.426 0 0 1 3.394-.581z" fill="#DA0C51"/><path d="M20.717 41.25a2.465 2.465 0 0 0 2.468-2.463 2.465 2.465 0 0 0-2.468-2.462 2.465 2.465 0 0 0-2.469 2.462 2.465 2.465 0 0 0 2.468 2.463z" fill="#fff"/><path d="M28.673 23.998c2.412-1.263 5.65.141 7.224 3.134 1.575 2.993.895 6.449-1.517 7.712s-5.65-.141-7.224-3.134c-1.576-2.993-.896-6.449 1.517-7.712z" fill="#F5FBFC"/><path d="M30.196 27.668c.617-.352 1.564.139 2.113 1.096.549.957.493 2.02-.124 2.372-.618.353-1.565-.138-2.114-1.095-.549-.957-.493-2.02.125-2.373z" fill="#26ACD8"/><path d="M40.907 21.268c2.22-1.003 5.145.659 6.529 3.707 1.383 3.049.705 6.338-1.514 7.34-2.22 1.003-5.145-.659-6.529-3.707-1.384-3.05-.705-6.338 1.514-7.34z" fill="#F5FBFC"/><path d="M41.566 25.066c.523-.268 1.33.255 1.8 1.168.472.912.43 1.871-.093 2.14-.523.268-1.33-.255-1.8-1.167-.472-.913-.43-1.872.093-2.14z" fill="#26ACD8"/><path d="M42.333 20.976c3.47.066 6.294 4.227 5.766 8.057-.242 1.764-1.563 3.566-3.537 3.575-3.51.015-6.381-4.312-5.814-8.122.256-1.722 1.465-3.453 3.472-3.51h.113zm-.1.655c-1.765.049-2.913 2.064-2.896 3.844.037 3.933 4.303 8.474 7.092 5.71 2.8-2.776.005-9.605-4.196-9.554z" fill="#66C5E4"/><path d="M38.307 25.91c.677 1.972 3.22 4.074 4.937 4.89 1.432.68.41 2.876-2.129 3.399" fill="#FFE6E6"/><path d="M38.358 25.544c.427.045.551.886.936 1.439 1.044 1.5 2.53 2.702 4.164 3.502 0 0 .659.35.776.99.254 1.381-1.352 2.643-2.956 2.993-.398.086-.746-.504-.085-.653 1.596-.377 3.2-2.105 1.969-2.745-2.226-1.09-4.3-2.851-5.096-4.992-.091-.244.01-.536.292-.534z" fill="#FDB3B3"/><path d="M26.346 29.534c-.326-1.81.085-3.671 1.526-4.965.759-.681 1.785-1.043 2.81-1.035 2.786.062 4.96 2.4 5.756 4.884.995-.54 2.162-.777 3.293-.784.082.098.346.393.49.54-1.326 0-2.705.376-3.606.898.073.333.12.665.14.991.154 2.518-1.511 5.536-4.718 5.223-2.702-.265-4.832-2.558-5.542-5.103a20.079 20.079 0 0 0-4.187.462c-.009-.003-.289-.277-.581-.481.898-.322 3.087-.595 4.62-.63zm4.22-5.345a3.503 3.503 0 0 0-2.807 1.497c-1.705 2.471-.52 6.438 2.23 8.187 1.643 1.046 4.076 1.127 5.348-.718 2.23-3.23-.513-8.874-4.665-8.966h-.106z" fill="#66C5E4"/><path d="M32.813 37.056c3.372.422 5.796.455 8.724.183-.471 2.09-1.997 3.84-4.59 3.762-2.486-.075-4-2.071-4.135-3.945z" fill="#FECDCD"/><path d="M33.402 38.885a4.076 4.076 0 0 1-.59-1.829c1.878.235 3.462.35 4.997.346l.506.225c-2.267.272-3.726.739-4.913 1.258z" fill="#FDB3B3"/><path d="M32.897 36.692l.465.056c2.706.314 5.457.375 8.189.126 0 0 .432.072.313.552-.68 2.661-3.55 4.627-6.38 3.576-1.584-.59-2.764-2.127-2.943-3.819-.027-.262.08-.512.356-.491zm.338.706c.566 2.973 5.3 4.67 7.368 1.36.282-.45.54-1.191.54-1.191l-.483.037c-2.452.173-4.924.078-7.374-.206 0 0-.054-.017-.05 0z" fill="#FDB3B3"/></g><path fill-rule="evenodd" clip-rule="evenodd" d="M100.244 278.041V249.05l47.475-19.409c.443-.181.731-.601.731-1.068v-8.092c0-4.329 1.233-19.195 10.808-27.912 3.726-3.39 11.511-4.836 11.511-4.836h112.268v79.148l-6.068 6.047-10.406 5.113H100.244z" fill="#D2F7F4"/><path d="M147.555 229.941l.042-.018c.441-.183.742-.47.832-.883v-.128l.005-.004h98.581l.145.018h.004c.935.349.429 1.143-.149 1.212l-99.46-.197z" fill="#7EE8DF"/><path fill-rule="evenodd" clip-rule="evenodd" d="M199.363 278.534v-29.477s42.614-17.256 47.435-19.436c0-8.937 1.267-20.962 10.106-30.066 8.84-9.104 15.393-11.151 26.135-11.822v83.536a7 7 0 0 1-6.976 7l-76.7.265z" fill="#7EE8DF"/><path fill-rule="evenodd" clip-rule="evenodd" d="M207.71 239.888h-74.728l-13.298 4.803 74.817.086 13.296-4.889h-.087z" fill="#FFF8E4"/><path d="M194.499 244.774l-74.817-.082v1.462l74.817.08v-1.46z" fill="#FFD24B"/><path fill-rule="evenodd" clip-rule="evenodd" d="M194.5 244.777l13.3-4.889v1.462l-13.3 4.889v-1.462z" fill="#FFBF00"/><path fill-rule="evenodd" clip-rule="evenodd" d="M225.043 232.34h-72.628l-13.306 4.81 72.634.078 13.3-4.888z" fill="#FFF8E4"/><path fill-rule="evenodd" clip-rule="evenodd" d="M225.047 233.538v-1.198l-13.301 4.804v1.438c5.194-1.909 8.106-3.135 13.301-5.044z" fill="#FFBF00"/><path d="M199.367 249.496h-99.123v29.038h99.123v-29.038z" fill="#A9F0E9"/><path d="M190.535 258.76h-90.291v19.774h90.291V258.76z" fill="#26D8C8"/><path d="M190.535 268.586h-90.291v9.948h90.291v-9.948z" fill="#7EE8DF"/><path d="M211.745 237.143h-72.628v1.439h72.628v-1.439z" fill="#FFD24B"/><path d="M163.452 258.76h-8.169v19.774h8.169V258.76z" fill="#CCC"/><path fill-rule="evenodd" clip-rule="evenodd" d="M170.136 257.454H83.233a3.323 3.323 0 0 0-3.325 3.325v15.422a3.323 3.323 0 0 0 3.325 3.326h86.903" fill="#FFECB4"/><path fill-rule="evenodd" clip-rule="evenodd" d="M169.746 256.729a1.319 1.319 0 0 1 1.188 1.31c-29.018 0-58.798-.888-87.802.003-1.348.058-2.537 1.236-2.563 2.618-.03 5.171-.158 10.344.002 15.513.061 1.981 2.083 3.276 3.45 3.301h86.913c0 .711-.534 1.287-1.246 1.287-9.693.006-72.87.048-84.717.048-1.426-.025-1.933-.015-3.28-.673-1.35-.658-2.41-2.628-2.452-3.963a413.645 413.645 0 0 1 0-15.579c.064-2.043 1.883-3.868 3.99-3.88 0 0 76.051.009 86.517.015z" fill="#FFD24B"/><path d="M170.934 258.023h-9.381v21.504h9.381v-21.504z" fill="#FFD24B"/><path fill-rule="evenodd" clip-rule="evenodd" d="M242.554 197.341H169.33c-5.511 3.047-9.374 12.416-9.922 22.519h73.985c1.437-11.458 4.271-17.611 9.161-22.519z" fill="#fff"/><path fill-rule="evenodd" clip-rule="evenodd" d="M189.95 213.497h1.826c.91 0 .846 1.259 0 1.259l-2.133.018.212-.963.095-.314zm34.121 1.2h-17.508c-1.215-.064-.651-1.196 0-1.23h17.508l.065.004c.606.095.818 1.126-.065 1.226zm-21.062-1.187c.61.056.783 1.157 0 1.228-1.897.057-3.795.001-5.693.001-.608-.018-.916-1.149-.037-1.229a96.024 96.024 0 0 1 5.73 0zm-11.322-5.532h18.221l.097.008c.601.143.617 1.115-.097 1.221H191.23l.457-1.229zm2.644-5.49h26.266a3.5 3.5 0 0 1 .102.008c.604.153.617 1.112-.102 1.221h-26.96l.694-1.229z" fill="#7EE8DF"/><path fill-rule="evenodd" clip-rule="evenodd" d="M189.955 213.492l-.309 1.283c-1.637.02-3.269-.024-4.901-.024-.925 0-.933-1.228-.041-1.228 1.815 0 3.436-.031 5.251-.031zm1.737-5.514l-.456 1.229h-19.731c-.668-.052-.845-1.163 0-1.229h20.187zm2.723-5.49l-.695 1.229h-18.76c-.667-.055-.89-1.156 0-1.229h19.455z" fill="#D2F7F4"/><path fill-rule="evenodd" clip-rule="evenodd" d="M242.613 196.669c1.554.514-.668 1.949-1.887 3.512-4.257 5.455-5.895 12.602-6.793 19.685 0 0-.177.492-.612.537h-73.984c-.705-.071-.629-.455-.587-1.127.438-6.533 1.955-13.115 5.787-18.419 1.171-1.621 2.609-3.096 4.354-4.087 0 0 .112-.094.368-.115h73.224l.13.014zm-73.192 1.215c-4.071 2.356-6.321 7.155-7.759 11.941-.909 3.022-1.439 6.153-1.666 9.297l72.783.052c1.021-7.695 2.953-15.361 8.244-21.261l.027-.029h-71.629z" fill="#7EE8DF"/><path fill-rule="evenodd" clip-rule="evenodd" d="M280.573 171.038a2.464 2.464 0 0 0 2.465-2.46v-44.265a2.464 2.464 0 0 0-2.465-2.46H165.315a2.464 2.464 0 0 0-2.465 2.46v44.265a2.463 2.463 0 0 0 2.465 2.46h115.258z" fill="#D2F7F4"/><path d="M229.686 170.92h-15.409v16.6h15.409v-16.6z" fill="#A9F0E9"/><path fill-rule="evenodd" clip-rule="evenodd" d="M214.277 170.92h15.409v16.6l-15.409-15.37v-1.23z" fill="#7EE8DF"/><path d="M229.686 170.92h-15.409v1.23h15.409v-1.23z" fill="#26D8C8"/><path fill-rule="evenodd" clip-rule="evenodd" d="M275.026 163.216h-104.78v-33.814h104.78v33.814zm-104.164-33.199v32.584h103.547v-32.584H170.862z" fill="#FFBF00"/><path fill-rule="evenodd" clip-rule="evenodd" d="M275.026 163.216v-33.814h-104.78v33.814h104.78z" fill="#fff"/><path fill-rule="evenodd" clip-rule="evenodd" d="M275.09 128.731a.672.672 0 0 1 .479.6v33.814c-.06.533-.306.58-.616.615h-104.78c-.535-.06-.581-.305-.616-.615v-33.814c.037-.329.11-.558.616-.615h104.78l.137.015zm-104.301 1.214v32.585h103.547v-32.585H170.789z" fill="#7EE8DF"/><path d="M255.531 115.678h-65.677v18.62h65.677v-18.62z" fill="#FFF8E4"/><path fill-rule="evenodd" clip-rule="evenodd" d="M255.584 115.346c.447.135.469.326.496.603v18.621c-.051.517-.16.57-.616.615h-65.678c-.518-.051-.571-.161-.616-.615v-18.621c.051-.517.161-.57.616-.615h65.678l.12.012zm-65.181 1.218v17.391h64.445v-17.391h-64.445z" fill="#FFDF80"/><path d="M195.016 128.023v-5.777c.649-.033 1.237-.05 1.764-.05.643 0 1.13.129 1.46.387.33.257.495.609.495 1.058 0 .57-.222 1.001-.665 1.294v.017c.249.094.45.255.602.481.153.227.23.509.23.847 0 .581-.206 1.026-.616 1.336-.405.304-.938.457-1.598.457-.771 0-1.328-.017-1.672-.05zm1.847-2.333h-.516v1.088c.122.033.272.05.449.05.516 0 .774-.205.774-.614 0-.349-.236-.524-.707-.524zm-.1-2.249c-.1 0-.239.011-.416.034v1.053h.441c.411 0 .616-.188.616-.564a.458.458 0 0 0-.183-.382.729.729 0 0 0-.458-.141zm3.891 4.566h-1.34l2.421-5.81h1.191l2.421 5.81h-1.423l-.483-1.221h-2.305l-.482 1.221zm2.288-2.466l-.649-1.643-.657 1.643h1.306zm10.072 2.466h-6.823v-5.81h1.332v4.565h1.414v-4.565h1.331v4.565h1.415v-4.565h1.331v5.81zm3.156 0v-5.81h3.511v1.245h-2.18v.921c.161-.034.383-.05.666-.05.566 0 1.021.163 1.364.49.35.326.525.76.525 1.303 0 .614-.199 1.092-.595 1.432-.397.34-.953.51-1.668.51-.294 0-.619-.008-.974-.025-.1 0-.201-.001-.304-.004l-.233-.008a2.085 2.085 0 0 0-.112-.004zm1.889-2.449c-.172 0-.358.016-.558.05v1.154c.266.027.433.041.499.041.483 0 .725-.199.725-.598a.657.657 0 0 0-.167-.468c-.111-.12-.277-.179-.499-.179zm3.749 2.449h-1.339l2.421-5.81h1.19l2.421 5.81h-1.423l-.482-1.221h-2.305l-.483 1.221zm2.289-2.466l-.65-1.643-.657 1.643h1.307zm7.745 2.466h-1.331v-4.565h-1.281l-.126 1.095c-.116 1.007-.281 1.778-.494 2.312-.214.534-.472.881-.775 1.041-.302.161-.694.2-1.177.117l.025-1.328a.635.635 0 0 0 .304-.005c.08-.024.168-.092.262-.203.095-.116.18-.29.258-.523.172-.498.303-1.361.391-2.589l.083-1.162h3.861v5.81zm2.177 0h-1.339l2.421-5.81h1.19l2.421 5.81h-1.423l-.482-1.221h-2.305l-.483 1.221zm2.288-2.466l-.649-1.643-.657 1.643h1.306zm7.864 2.466h-1.331v-2.341h-2.122v2.341h-1.331v-5.81h1.331v2.224h2.122v-2.224h1.331v5.81zm5.51-1.47l.508.996c-.178.199-.441.363-.79.49a3.292 3.292 0 0 1-1.107.183c-.905 0-1.639-.275-2.205-.822-.566-.559-.849-1.287-.849-2.183 0-.874.267-1.594.799-2.158.533-.564 1.281-.847 2.247-.847.366 0 .707.056 1.023.166.316.111.569.257.757.44l-.591.996a2.248 2.248 0 0 0-1.189-.357c-.472 0-.863.155-1.174.465-.305.305-.457.736-.457 1.295 0 .509.163.932.49 1.27.328.326.752.49 1.274.49a2.06 2.06 0 0 0 1.264-.424z" fill="#D17017"/><path fill-rule="evenodd" clip-rule="evenodd" d="M118.126 273.353c2.761 0 5-2.234 5-4.988v-.001a4.995 4.995 0 0 0-5-4.988h-.001c-2.761 0-5 2.234-5 4.988v.001a4.995 4.995 0 0 0 5 4.988h.001z" fill="#FFBF00"/><defs id="defs283"><linearGradient id="paint0_linear" x1="58.79" y1="159.369" x2="93.091" y2="159.369" gradientUnits="userSpaceOnUse"><stop stop-color="#FF6599" id="stop269"/><stop offset=".52" stop-color="#FF6E7B" id="stop271"/><stop offset="1" stop-color="#FF8C1A" id="stop273"/></linearGradient><linearGradient id="paint1_linear" x1="62.205" y1="171.442" x2="96.207" y2="151.23" gradientUnits="userSpaceOnUse"><stop stop-color="#FF98BA" id="stop276"/><stop offset=".52" stop-color="#FF9594" id="stop278"/><stop offset="1" stop-color="#FF8C1A" id="stop280"/></linearGradient></defs></svg>