<svg width="32" height="32" fill="none" xmlns="http://www.w3.org/2000/svg"><path d="M29.5 15.45a.5.5 0 0 0-.5.5 13 13 0 1 1-2.7-7.91h-2.22a.5.5 0 1 0 0 1h3.33a.49.49 0 0 0 .5-.45l.29-3.29a.5.5 0 0 0-.46-.54.48.48 0 0 0-.54.45L27 7.34a14 14 0 1 0 3 8.61.5.5 0 0 0-.5-.5z" fill="#101010"/><path d="M13.13 15.57a4.424 4.424 0 0 1-.46.67c-.18.23-.39.47-.62.72l-2.81 2.99a.74.74 0 0 0-.22.33 1 1 0 0 0-.06.34v.55h6.34v-1a.49.49 0 0 0 0-.21.549.549 0 0 0-.12-.19.42.42 0 0 0-.18-.11.54.54 0 0 0-.22 0h-2.41c-.19.006-.381.023-.57.05-.2 0-.39.09-.59.15l2.08-2.22c.24-.27.49-.53.71-.79.22-.25.417-.517.59-.8.163-.272.297-.56.4-.86.108-.322.159-.66.15-1a2.779 2.779 0 0 0-.21-1.24 2.579 2.579 0 0 0-.59-.87 2.64 2.64 0 0 0-.91-.55 3.537 3.537 0 0 0-1.16-.2c-.39 0-.778.06-1.15.18a2.85 2.85 0 0 0-1.63 1.4 3.75 3.75 0 0 0-.37 1.22l.82.15a.75.75 0 0 0 .51 0 .84.84 0 0 0 .28-.41c.05-.162.131-.311.24-.44a1.339 1.339 0 0 1 .73-.59 1.597 1.597 0 0 1 1.08.01 1 1 0 0 1 .42.26c.12.13.212.283.27.45.07.195.1.402.09.61a2.321 2.321 0 0 1-.43 1.4zm8.75 5.55v-2.38h.97a.41.41 0 0 0 .15-.09.43.43 0 0 0 .08-.24v-1h-1.2v-6h-1.49L16 17.53l.17.85a.46.46 0 0 0 .15.26.42.42 0 0 0 .28.1h3.91v2.38h1.37zm-4.19-3.67l2.87-4.23v4.23h-2.87z" fill="#101010"/></svg>