<svg width="379" height="142" fill="none" xmlns="http://www.w3.org/2000/svg"><path d="M119.545 89.209v29.819h-16.009v20.294h-35.76v-20.294H0v-9.318L40.957 2.65h36.799L44.283 89.21h23.494V55.662h35.759V89.21h16.009zm12.204-19.259c0-20.845 4.921-37.688 14.761-50.526C156.49 6.584 170.558.165 188.715.165s32.156 6.42 41.997 19.259c9.979 12.839 14.969 29.68 14.969 50.527 0 21.122-4.99 38.378-14.969 51.769-9.98 13.391-23.979 20.087-41.997 20.087s-32.017-6.696-41.997-20.087c-9.979-13.391-14.969-30.647-14.969-51.77zm77.341.208c0-12.84-1.664-22.227-4.99-28.163-3.327-6.074-8.455-9.111-15.385-9.111s-12.058 3.037-15.385 9.111c-3.326 5.936-4.99 15.324-4.99 28.163 0 25.954 6.792 38.93 20.375 38.93s20.375-12.976 20.375-38.93zm169.116 19.051v29.819h-16.008v20.294h-35.76v-20.294h-67.776v-9.318L299.619 2.65h36.799l-33.473 86.56h23.493V55.662h35.76V89.21h16.008z" fill="#E6E6E6"/></svg>