<svg width="32" height="32" stroke-width="0" xmlns="http://www.w3.org/2000/svg"><path d="M7.002 24.324a.4.4 0 1 0 .528.6l-.528-.6zm3.002-1.574a.4.4 0 1 0-.528-.6l.528.6zM8.608 2.91a.4.4 0 1 0-.584.547l.584-.547zm3.082 3.872l-.292.273a.4.4 0 0 0 .586-.003l-.294-.27zM17.757.755a.4.4 0 1 0-.59-.54l.59.54zm7.127 21.62h.4a.4.4 0 0 0-.4-.4v.4zm-5.848 0v-.4a.4.4 0 0 0-.4.4h.4zm1.25 1.274a.4.4 0 1 0 .8 0h-.8zm2.473 0a.4.4 0 1 0 .8 0h-.8zm5.923.226c0 3.493-2.93 6.346-6.572 6.346v.8c4.059 0 7.372-3.187 7.372-7.146h-.8zM22.11 30.22c-3.642 0-6.572-2.853-6.572-6.346h-.8c0 3.959 3.313 7.146 7.372 7.146v-.8zm-6.572-6.346c0-3.494 2.93-6.348 6.572-6.348v-.8c-4.059 0-7.372 3.188-7.372 7.148h.8zm6.572-6.348c3.642 0 6.572 2.854 6.572 6.348h.8c0-3.96-3.313-7.148-7.372-7.148v.8zM15.213 21.9H5.767v.8h9.446v-.8zm-9.446 0c-1.315 0-2.449-1.205-2.449-2.748h-.8c0 1.905 1.416 3.548 3.25 3.548v-.8zm-2.449-2.748v-8.847h-.8v8.846h.8zm0-8.847c0-1.543 1.134-2.748 2.45-2.748v-.8c-1.834 0-3.25 1.643-3.25 3.548h.8zm2.45-2.748h12.519v-.8H5.767v.8zm12.519 0c1.315 0 2.448 1.205 2.448 2.748h.8c0-1.905-1.415-3.548-3.248-3.548v.8zm2.448 2.748v6.747h.8v-6.747h-.8zm-4.173 9.271h-8.47v.8h8.47v-.8zm-8.47 0c-1.361 0-2.45-1.102-2.45-2.374h-.8c0 1.727 1.46 3.174 3.25 3.174v-.8zm-2.45-2.374V12.63h-.8v4.573h.8zm0-4.573c0-1.271 1.089-2.373 2.45-2.373v-.8c-1.79 0-3.25 1.446-3.25 3.173h.8zm2.45-2.373h7.946v-.8H8.09v.8zm7.946 0c1.36 0 2.448 1.102 2.448 2.373h.8c0-1.727-1.46-3.173-3.248-3.173v.8zm2.448 2.373v5.173h.8V12.63h-.8zM7.53 24.925l2.474-2.175-.528-.6-2.474 2.174.528.6zm.494-21.468l3.374 3.598.583-.547L8.608 2.91l-.584.547zm3.96 3.595L17.757.755l-.59-.54-5.772 6.297.59.54zm7.877 20.82h4.198v-.8h-4.198v.8zm4.198 0c.67 0 1.225-.553 1.225-1.224h-.8a.432.432 0 0 1-.425.425v.8zm1.225-1.224v-4.273h-.8v4.273h.8zm-.4-4.673h-5.848v.8h5.848v-.8zm-6.248.4v4.273h.8v-4.273h-.8zm0 4.273c0 .363.133.679.37.901.234.219.542.324.855.324v-.8a.442.442 0 0 1-.307-.108c-.063-.058-.118-.155-.118-.317h-.8zm2.05-2.998h.4v-2.473h-.8v2.472h.4zm.4-2.474c0-.304.11-.503.252-.63a.882.882 0 0 1 .585-.207c.224 0 .435.075.584.208.143.126.252.325.252.629h.8c0-.521-.199-.941-.52-1.227a1.68 1.68 0 0 0-1.116-.41 1.68 1.68 0 0 0-1.117.41c-.321.286-.52.706-.52 1.227h.8zm1.674 0v2.473h.8v-2.472h-.8z"/></svg>