<svg width="48" height="48" fill="none" xmlns="http://www.w3.org/2000/svg"><path fill-rule="evenodd" clip-rule="evenodd" d="M24 4.5C13.23 4.5 4.5 13.23 4.5 24S13.23 43.5 24 43.5 43.5 34.77 43.5 24 34.77 4.5 24 4.5zM3.5 24C3.5 12.678 12.678 3.5 24 3.5S44.5 12.678 44.5 24 35.322 44.5 24 44.5 3.5 35.322 3.5 24z" fill="#101010"/><path fill-rule="evenodd" clip-rule="evenodd" d="M14.636 21.657a.5.5 0 0 1 .707-.02L24 29.812l8.657-8.175a.5.5 0 1 1 .686.726l-9 8.5a.5.5 0 0 1-.686 0l-9-8.5a.5.5 0 0 1-.02-.706z" fill="#101010"/></svg>