<svg width="24" height="24" fill="none" xmlns="http://www.w3.org/2000/svg"><path d="M9.473 3.5C8.187 3.5 7.1 4.534 7 5.776v.103c0 .31.198.518.594.518.395 0 .593-.207.593-.518 0-.31.1-.724.396-.93.198-.208.593-.415.89-.415.693 0 1.286.621 1.286 1.345 0 .518-.297.931-.692 1.138-.693.31-1.088 1.035-1.088 1.759v.207c0 .31.197.517.593.517.396 0 .594-.207.594-.517v-.207c0-.31.197-.62.494-.828 1.187-.62 1.682-1.965 1.088-3.207-.494-.724-1.384-1.241-2.275-1.241zm.127 8.198a.6.6 0 100-1.2.6.6 0 000 1.2z" fill="#fff"/><path d="M10.557 14.15h3.284c1.89 0 3.383-1.565 3.383-3.34V4.34C17.224 2.46 15.73 1 13.84 1H5.383C3.493 1 2 2.566 2 4.34v6.47c0 1.88 1.493 3.34 3.383 3.34v5.115l5.174-5.115z" stroke="#fff" stroke-width=".8" stroke-miterlimit="10" stroke-linecap="round" stroke-linejoin="round"/><path d="M17.323 7.888h2.19c1.392 0 2.487 1.253 2.487 2.714v5.114c0 1.461-1.393 2.714-2.786 2.714v4.07l-3.383-4.07h-2.388c-1.393 0-2.488-1.253-2.488-2.714v-1.148" stroke="#fff" stroke-width=".8" stroke-miterlimit="10" stroke-linecap="round" stroke-linejoin="round"/></svg>