<svg version="1.1" id="Capa_1" xmlns="http://www.w3.org/2000/svg" x="0" y="0" viewBox="0 0 480 480" xml:space="preserve"><style>.st0{fill:#f61d2a}</style><g id="Steering_Wheel-drive-car-car_Parts"><path class="st0" d="M236.4 52.9c-103.3 0-187 83.7-187 187s83.7 187 187 187 187-83.7 187-187c-.1-103.3-83.7-186.9-187-187zm0 12.4c44.1 0 86.6 16.7 118.9 46.9l-26.4 26.4c-52.3-47.9-132.6-47.9-184.9 0l-26.4-26.4c32.2-30.1 74.7-46.9 118.8-46.9zm-74.8 187.1V281L133 309.5c-11.5-17-18.7-36.7-20.7-57.2h49.3zm-49.9-12.5c0-8.4.8-16.7 2.5-24.9h47.4v24.9h-49.9zm56.6 52l21.4 17.1-29.4 29.4c-7.2-5.6-13.8-11.9-19.6-18.8l27.6-27.7zm21.4-45.8l15.6 20.8v35.3h-4.1l-27.1-21.7v-34.4h15.6zm-15.6-12.4V205l8.8-8.8h9.1l-4.7 37.4h-13.2zm109.1 12.4h15.6v34.4l-27.1 21.7h-4.1v-35.3l15.6-20.8zm-2.3-49.9h9.1l8.8 8.8v28.6h-13.2l-4.7-37.4zm-24.5 64.9c-.8 1.1-1.3 2.4-1.2 3.7v37.4h-37.4v-37.4c0-1.4-.4-2.7-1.2-3.7l-17.2-22.9 5.2-41.9h63.8l5.2 41.9-17.2 22.9zm-54.8 53.6h69.7l30.9 30.9c-40.2 25.3-91.3 25.3-131.5 0l30.9-30.9zm81.6-5.7l21.4-17.1 27.7 27.7c-5.9 7-12.4 13.3-19.6 18.8L283.2 309zm28-28v-28.6h49.3c-2 20.5-9.2 40.1-20.7 57.2L311.2 281zm0-41.1V215h47.4c1.7 8.2 2.5 16.6 2.5 24.9h-49.9zm0-37.4c0-1.7-.7-3.2-1.8-4.4L297 185.6c-1.2-1.1-2.8-1.8-4.4-1.8H180.3c-1.7 0-3.2.7-4.4 1.8l-12.5 12.5c-1.1 1.2-1.8 2.8-1.8 4.4h-44.1c20.6-65.7 90.6-102.2 156.3-81.6 38.9 12.2 69.3 42.7 81.6 81.6h-44.2zm-74.8 212c-96.3.1-174.5-78-174.6-174.4 0-44.2 16.7-86.8 46.9-119.1l26.4 26.4c-51.1 55.9-47.2 142.7 8.7 193.8s142.7 47.2 193.8-8.7c47.9-52.4 47.9-132.7 0-185.1L364 121c65.7 70.5 61.9 180.9-8.6 246.6-32.2 30.1-74.8 46.9-119 46.9z"/><path class="st0" d="M223.9 246.1h24.9c3.4 0 6.2-2.8 6.2-6.2v-18.7c0-3.4-2.8-6.2-6.2-6.2h-24.9c-3.4 0-6.2 2.8-6.2 6.2v18.7c0 3.4 2.8 6.2 6.2 6.2zm6.3-18.7h12.5v6.2h-12.5v-6.2z"/></g></svg>