<svg width="32" height="32" stroke-width="0" xmlns="http://www.w3.org/2000/svg"><path d="M18.752 12.096a2.318 2.318 0 0 0 1.978-1.103 2.363 2.363 0 0 0 .106-2.289L19.109 5.23a.39.39 0 0 0-.357-.219.397.397 0 0 0-.365.22L16.66 8.704a2.356 2.356 0 0 0 .953 3.098c.348.196.74.3 1.14.303v-.009zM17.39 9.061l1.362-2.743 1.322 2.743a1.535 1.535 0 0 1-1.354 2.224 1.54 1.54 0 0 1-1.298-.723 1.527 1.527 0 0 1-.032-1.5z"/><path d="M28.578 17.193a.413.413 0 0 0-.494-.3c-.073 0-7.443 1.801-9.73 1.801-1.248 0-4.588-1.826-6.793-3.035l-1.322-.714a.438.438 0 0 1-.227-.357.423.423 0 0 1 .178-.398.438.438 0 0 1 .373-.073l5.457 1.477c-.005.07-.005.141 0 .211a1.212 1.212 0 0 0 .34.869c.217.212.508.331.811.332h.049l3.518-.186a.398.398 0 0 0 .381-.422.383.383 0 0 0-.43-.382l-3.55.195a.292.292 0 0 1-.252-.097.357.357 0 0 1-.105-.26.341.341 0 0 1 .235-.317c.576-.178 1.516-.519 2.554-.884 1.038-.365 1.962-.698 2.838-.99 2.205-.739 5.675-.065 5.675-.057a.413.413 0 0 0 .162-.812c-.146 0-3.697-.73-6.113.082-.876.292-1.905.657-2.854.998a83.1 83.1 0 0 1-2.521.876c-.098.035-.19.08-.276.138l-1.622-.446v-.495a3.54 3.54 0 0 0-3.518-3.547V8.704a1.386 1.386 0 0 0 .75-2.374 1.386 1.386 0 0 0-.929-.385h-.178v-1.72a.812.812 0 0 0-.81-.812h-2.32a.81.81 0 0 0-.81.811v1.753h-.179A1.386 1.386 0 0 0 5.485 7.26a1.389 1.389 0 0 0 1.17 1.477v1.679a3.525 3.525 0 0 0-3.242 3.514v11.11a3.542 3.542 0 0 0 2.174 3.275 3.53 3.53 0 0 0 1.352.272h4.386a3.533 3.533 0 0 0 3.52-3.546v-6.728a10.113 10.113 0 0 0 3.494 1.193c2.359 0 9.59-1.753 9.899-1.826a.403.403 0 0 0 .34-.487zm-21.08-8.44h3.05v1.623H7.473L7.5 8.753zm.374-4.513h2.319v1.753H7.912l-.04-1.753zM6.29 7.365a.577.577 0 0 1 .575-.576h4.29a.575.575 0 1 1 0 1.152H6.882a.575.575 0 0 1-.592-.576zm7.783 17.676a2.728 2.728 0 0 1-2.708 2.735H6.98a2.723 2.723 0 0 1-2.716-2.735V13.947a2.729 2.729 0 0 1 2.716-2.735h4.386a2.722 2.722 0 0 1 2.708 2.735v.276l-3.243-.885a1.207 1.207 0 0 0-1.07.203 1.25 1.25 0 0 0-.503 1.104 1.226 1.226 0 0 0 .665 1.014l1.305.714a95.305 95.305 0 0 0 2.878 1.534l-.032 7.134z"/><path d="M10.612 18.556l-.186-.292a1.436 1.436 0 0 0-2.433 0l-.186.292h-.349a1.443 1.443 0 0 0-1.167.698 1.462 1.462 0 0 0 0 1.404l.17.309-.17.3a1.446 1.446 0 0 0 1.224 2.126h.349l.186.293a1.435 1.435 0 0 0 2.432 0l.187-.293h.348a1.441 1.441 0 0 0 1.396-1.421 1.445 1.445 0 0 0-.171-.705l-.163-.3.163-.309a1.462 1.462 0 0 0 0-1.404 1.444 1.444 0 0 0-1.2-.714l-.43.016zm.851 1.753l-.202.39a.642.642 0 0 0 0 .592l.202.39a.634.634 0 0 1-.535.933h-.438a.64.64 0 0 0-.518.292l-.227.374a.633.633 0 0 1-1.079 0l-.227-.374a.64.64 0 0 0-.519-.292h-.437a.632.632 0 0 1-.536-.925l.203-.39a.641.641 0 0 0 0-.592l-.203-.39a.625.625 0 0 1 .536-.925h.437a.648.648 0 0 0 .52-.3l.226-.373a.632.632 0 0 1 1.079 0l.227.373a.65.65 0 0 0 .519.3h.437a.623.623 0 0 1 .535.917z"/><path d="M9.21 20.244a.753.753 0 0 0-.534 1.289.754.754 0 1 0 .533-1.289z"/></svg>