<svg version="1.1" id="Capa_1" xmlns="http://www.w3.org/2000/svg" x="0" y="0" viewBox="0 0 480 480" xml:space="preserve"><style>.st0{fill:#f61d2a}</style><path class="st0" d="M436.3 386.7v-238h-43.2V91.5h-84.8V52.7h-77.8v17.6h-56.8v58.6h-59.3V91.5H44.7v295.2H24.1v40.4h432.8v-40.4h-20.6zm-43.2-225.1h30.3v225.1h-30.3V161.6zm-84.8 172.6V104.4h71.9v282.3h-71.9v-52.5zM243.4 70.3v-4.7h52.1v52.5h-52.1V70.3zm0 60.6h52.1v7.9h-52.1v-7.9zm0 20.8h52.1v148.9h-52.1V151.7zm0 161.7h52.1v7.9h-52.1v-7.9zm0 20.8h52.1v52.5h-52.1v-52.5zm-56.9-205.3V83.1h44v303.5h-44V128.9zm-22.9 12.9h10.1v244.9h-10.1V141.8zm-26.2 0h13.4v244.9h-13.4V141.8zm-23 0h10.1v244.9h-10.1V141.8zm-56.8-37.5h44v61.3h-44v-61.3zm0 74.2h44v134.6h-44V178.5zm0 147.4h44v60.8h-44v-60.8zm386.5 88.3H36.9v-14.7h407.4l-.2 14.7z"/><path class="st0" d="M344.3 160.5c-16.7 0-30.2 13.6-30.2 30.2s13.6 30.2 30.2 30.2c16.7 0 30.2-13.6 30.2-30.2s-13.6-30.2-30.2-30.2zm0 47.5c-9.6 0-17.4-7.8-17.4-17.4s7.8-17.4 17.4-17.4c9.6 0 17.4 7.8 17.4 17.4s-7.9 17.4-17.4 17.4zm-23.8 59.7h47.6v12.9h-47.6zm0 21.9h47.6v12.9h-47.6zm0 21.9h47.6v12.9h-47.6z"/></svg>