<svg width="32" height="32" xmlns="http://www.w3.org/2000/svg"><path fill-rule="evenodd" clip-rule="evenodd" d="M16 28.917c7.134 0 12.917-5.783 12.917-12.917 0-7.134-5.783-12.917-12.917-12.917C8.866 3.083 3.083 8.866 3.083 16c0 7.134 5.783 12.917 12.917 12.917zm0 1c7.686 0 13.917-6.23 13.917-13.917 0-7.686-6.23-13.917-13.917-13.917C8.314 2.083 2.083 8.313 2.083 16c0 7.686 6.23 13.917 13.917 13.917z"/><path fill-rule="evenodd" clip-rule="evenodd" d="M16 23.088a7.088 7.088 0 100-14.176 7.088 7.088 0 000 14.176zm0 1a8.088 8.088 0 100-16.176 8.088 8.088 0 000 16.176z"/><path fill-rule="evenodd" clip-rule="evenodd" d="M16 17.592a1.592 1.592 0 100-3.184 1.592 1.592 0 000 3.184zm0 1a2.592 2.592 0 100-5.184 2.592 2.592 0 000 5.184z"/><path fill-rule="evenodd" clip-rule="evenodd" d="M13.809 15.497H8.174v-1h5.635v1zm.202 2.027H8.174v-1h5.837v1zm9.567-2.027h-5.634v-1h5.634v1zm.203 2.027h-5.837v-1h5.837v1zm-7.291-3.682V8.208h1v5.634h-1zm-2.026.203V8.208h1v5.837h-1zm2.027 9.566v-5.634h1v5.634h-1zm-2.027.203v-5.837h1v5.837h-1zM8.331 9.111a.5.5 0 01-.145.692c-.728.475-2.441 1.198-4.176.33a.5.5 0 11.447-.894c1.271.636 2.584.117 3.182-.273a.5.5 0 01.692.146zm4.811-2.831a.5.5 0 01-.472.526h-.008c-.395.021-1.192.065-1.981-.179-.822-.253-1.648-.824-2.018-2.006a.5.5 0 01.954-.299c.252.804.782 1.172 1.359 1.35.604.186 1.242.157 1.64.135a.5.5 0 01.526.472zm5.266-.41a.5.5 0 01-.65.28l-.11-.044c-.356-.138-.912-.354-1.409-.797-.571-.51-1.037-1.289-1.184-2.51a.5.5 0 01.993-.12c.12 1.003.484 1.55.857 1.884.355.316.745.47 1.107.611l.117.046a.5.5 0 01.28.65zm4.612 2.41a.5.5 0 01-.706-.03l-.055-.06c-.263-.282-.667-.718-.89-1.389-.244-.732-.257-1.68.18-2.964a.5.5 0 01.947.322c-.386 1.133-.337 1.851-.179 2.326.153.46.424.753.688 1.04l.045.049a.5.5 0 01-.03.706zm2.955 4.465a.5.5 0 01-.568-.421 4.342 4.342 0 01.149-1.844c.218-.703.668-1.434 1.518-1.873a.5.5 0 01.458.889c-.55.284-.86.76-1.021 1.28a3.344 3.344 0 00-.115 1.4.5.5 0 01-.42.569zm.182 5.328a.5.5 0 01-.213-.674c.373-.719 1.408-2.385 3.523-2.146a.5.5 0 11-.111.993c-1.427-.16-2.169.928-2.525 1.614a.5.5 0 01-.674.213zm-2.538 4.851a.5.5 0 01.182-.684c.701-.405 2.47-1.253 4.125.085a.5.5 0 11-.628.778c-1.117-.903-2.327-.384-2.996.003a.5.5 0 01-.683-.183zm-4.539 3.204a.5.5 0 01.442-.551c.805-.089 2.765-.152 3.741 1.74a.5.5 0 11-.889.459c-.658-1.277-1.974-1.29-2.742-1.205a.5.5 0 01-.552-.443zm-5.546.479a.5.5 0 01.626-.328c.774.242 2.595.97 2.73 3.094a.5.5 0 01-.998.064c-.091-1.433-1.292-1.973-2.03-2.203a.5.5 0 01-.328-.627zm-4.851-2.731a.5.5 0 01.705.06c.523.619 1.668 2.21.642 4.076a.5.5 0 01-.876-.483c.692-1.258-.031-2.357-.53-2.948a.5.5 0 01.06-.705zM6.02 19.245a.5.5 0 01.554.44c.092.805.163 2.765-1.725 3.748a.5.5 0 01-.462-.886c1.273-.664 1.28-1.98 1.193-2.748a.5.5 0 01.44-.554zm-.107-5.415a.5.5 0 01.152.69l-.082.132c-.196.316-.495.799-.939 1.165-.548.453-1.3.726-2.326.516a.5.5 0 11.2-.98c.72.148 1.167-.04 1.49-.307.306-.253.512-.582.714-.904l.1-.16a.5.5 0 01.69-.152z"/></svg>