<svg width="58" height="40" fill="none" xmlns="http://www.w3.org/2000/svg"><path d="M52.236 0H4.956A4.962 4.962 0 000 4.957v30.087A4.962 4.962 0 004.956 40h47.28a4.962 4.962 0 004.955-4.956V4.957A4.96 4.96 0 0052.236 0zm3.639 35.043a3.644 3.644 0 01-3.639 3.64H4.956a3.644 3.644 0 01-3.64-3.64v-15.79h54.56l-.001 15.79zm0-24.298H1.316V4.957a3.644 3.644 0 013.641-3.64h47.28a3.644 3.644 0 013.639 3.64v5.788z" fill="#101010"/><path d="M39.342 29.255h8.595a.659.659 0 000-1.316h-8.595a.658.658 0 000 1.316z" fill="#101010"/></svg>