<svg width="32" height="32" stroke-width="0" xmlns="http://www.w3.org/2000/svg"><path d="M30.163 26.316c-.34-.245-2.065-1.652-2.08-1.668a.385.385 0 0 0-.296-.069.383.383 0 0 0-.256.172c-.091.14-.21.256-.348.344a1.103 1.103 0 0 1-.454.162c-.862 0-1.565-.356-2.39-2.134l-.068-.15a5.87 5.87 0 0 0 2.368-2.64.397.397 0 0 0-.06-.332.378.378 0 0 0-.126-.118.358.358 0 0 0-.162-.048c-1.006-.047-2.973-.348-3.949-1.146l-1.12-2.497a.368.368 0 0 0-.144-.178.343.343 0 0 0-.218-.051c-.515.038-1.015.2-1.46.474a11.807 11.807 0 0 1-2.496-4.648l.628-.79c.534-.78.865-1.693.96-2.648 0-.34.076-.79.129-1.288a76.8 76.8 0 0 0 .28-2.932 1.377 1.377 0 0 0-.172-.795 1.29 1.29 0 0 0-.585-.54 1.118 1.118 0 0 0-.725-.053 1.16 1.16 0 0 0-.613.408c-.205.26-.416.585-.636.933-.65 1.027-1.46 2.307-2.594 2.307-1.135 0-1.83-1.177-2.443-2.22a9.925 9.925 0 0 0-.658-1.02 1.161 1.161 0 0 0-.612-.412 1.118 1.118 0 0 0-.727.048c-.246.11-.452.299-.588.539a1.36 1.36 0 0 0-.168.797c0 .727.166 1.897.272 2.932.053.49.106.949.136 1.289a5.57 5.57 0 0 0 .953 2.647l.575.846v.055c-1.014 2.174-3.57 7.999-8.638 7.999a.358.358 0 0 0-.175.042.377.377 0 0 0-.135.124.414.414 0 0 0-.046.363 6.729 6.729 0 0 0 1.633 2.553 6.352 6.352 0 0 0 2.55 1.525 21.365 21.365 0 0 1-2.004 1.787.396.396 0 0 0-.143.218.412.412 0 0 0 .022.264.38.38 0 0 0 .173.19c.078.04.166.052.25.031 4.108-.909 6.377-1.012 8.381-.38a23.75 23.75 0 0 0 5.741 1.186c.131.008.262.008.393 0 0 .19 0 .364.06.514.022.244.13.47.302.635a.916.916 0 0 0 .633.257c.234 0 .46-.092.633-.257a.997.997 0 0 0 .301-.635l.099-.917a8.872 8.872 0 0 0 1.928-.853c0 .063.068.134.099.197a4.54 4.54 0 0 0 1.589 1.773 4.278 4.278 0 0 0 2.23.685h3.102c.311.021.621-.067.88-.25.26-.183.452-.451.549-.762.102-.333.103-.69.003-1.025a1.701 1.701 0 0 0-.563-.84zm-4.485-5.738a5.505 5.505 0 0 1-1.725 1.684l-1.058-2.371c.894.356 1.83.587 2.783.687zM9.507 8.265c0-.34-.076-.79-.13-1.297-.113-1.027-.234-2.189-.271-2.892a.541.541 0 0 1 .06-.33.51.51 0 0 1 .242-.224.392.392 0 0 1 .261-.013c.087.026.162.08.216.156.219.293.419.602.597.924.681 1.154 1.513 2.593 3.086 2.593 1.574 0 2.481-1.518 3.238-2.664.211-.324.408-.64.582-.853a.416.416 0 0 1 .22-.156.399.399 0 0 1 .264.013.515.515 0 0 1 .24.224.55.55 0 0 1 .063.33c-.046.703-.167 1.865-.273 2.892-.053.498-.105.949-.136 1.297a4.8 4.8 0 0 1-.802 2.244l-.756.91h-5.295l-.605-.886a4.924 4.924 0 0 1-.801-2.268zm2.889 17.577c-1.868-.585-3.918-.585-7.246.055 2.148-1.952 4.5-4.742 5.491-7.366a.412.412 0 0 0-.004-.302.387.387 0 0 0-.208-.212.363.363 0 0 0-.29.005.388.388 0 0 0-.201.217 18.542 18.542 0 0 1-3.835 5.603.253.253 0 0 0-.114 0 5.624 5.624 0 0 1-2.227-1.141 5.936 5.936 0 0 1-1.555-2.02c5.204-.45 7.791-6.236 8.744-8.457h5.295a13.297 13.297 0 0 0 2.564 4.703 4.288 4.288 0 0 0-.5.553 4.294 4.294 0 0 0-.764 1.573 4.403 4.403 0 0 0-.082 1.762c.196 1.115.552 4.118.756 6.189-1.036.079-3.17-.34-5.824-1.162zm6.74 2.371c-.16-1.407-.492-4.363-.757-6.268.626.24 1.196.618 1.671 1.107l-.544 5.177a.198.198 0 0 1-.072.11.183.183 0 0 1-.24-.015.2.2 0 0 1-.059-.119v.008zm1.308-1.683l.28-2.688c.463.627.87 1.296 1.217 2a8.047 8.047 0 0 1-1.497.68v.008zm9.56 1.406a.669.669 0 0 1-.271.364.62.62 0 0 1-.432.095H26.2a3.555 3.555 0 0 1-1.828-.563 3.767 3.767 0 0 1-1.311-1.445 14.388 14.388 0 0 0-2.27-3.667.398.398 0 0 0-.093-.163.375.375 0 0 0-.156-.098 5.25 5.25 0 0 0-2.224-1.36h-.075c0-.168-.023-.31-.068-.426a3.58 3.58 0 0 1 .075-1.43c.122-.466.335-.9.628-1.273a2.87 2.87 0 0 1 1.77-1.17l3.026 6.679c.854 1.833 1.74 2.584 3.07 2.584.22-.005.438-.057.639-.15.2-.094.382-.228.534-.395.514.419 1.558 1.264 1.83 1.462a.923.923 0 0 1 .261.435.957.957 0 0 1-.003.514v.007z"/></svg>