<svg width="24" height="24" fill="none" xmlns="http://www.w3.org/2000/svg"><path d="M14.093 13.579c2.547-.842 3.325-3.088 3.396-3.298.778.14 1.627-.07 2.051-.702.566-.772.708-2.246-.141-3.368-.425-.632-1.415-.702-2.123-.702A5.818 5.818 0 0011.9 2C9.495 2 7.372 3.474 6.453 5.579c-.708 0-1.627.14-1.981.772-.708 1.193-.566 2.596.07 3.368a2.07 2.07 0 002.76.421C7.16 9.86 6.24 8.175 7.019 6c0-.07.07-.21.141-.28.849-1.755 2.618-3.018 4.74-3.018 2.9 0 5.235 2.316 5.235 5.193 0 1.123-.283 1.894-.425 2.105 0 0-.778 2.035-3.042 2.737-.141-.07-.212-.14-.353-.14h-2.83a.782.782 0 00-.778.771v.281c0 .14.07.28.141.421-2.759.702-4.669 2.737-5.164 5.755-.141.49 0 1.052.354 1.473.353.421.849.702 1.415.702h11.106c.496 0 .92-.21 1.274-.561.354-.422.566-.983.495-1.544-.566-3.088-2.547-5.193-5.377-5.825.071-.14.142-.21.142-.35v-.141zm4.527 6.386c.071.35-.07.702-.353.982-.212.21-.495.351-.778.351H6.453c-.354 0-.637-.14-.85-.42-.212-.211-.282-.562-.212-.913.566-3.509 3.042-5.474 6.65-5.474 3.537.07 6.014 2.105 6.58 5.474z" fill="#fff"/><circle cx="11.9" cy="8" r="3.6" stroke="#fff" stroke-width=".8"/></svg>