<svg width="92" height="92" fill="none" xmlns="http://www.w3.org/2000/svg"><path fill-rule="evenodd" clip-rule="evenodd" d="M47.042 22.203c3.11 0 5.633-1.775 5.633-3.966 0-2.19-2.522-3.966-5.633-3.966s-5.634 1.776-5.634 3.966c0 2.19 2.523 3.966 5.634 3.966zm3.407-1.979c.835-.587 1.226-1.305 1.226-1.987 0-.682-.391-1.399-1.226-1.986-.831-.586-2.033-.98-3.407-.98-1.375 0-2.576.394-3.408.98-.834.587-1.226 1.304-1.226 1.986 0 .682.392 1.4 1.226 1.987.832.586 2.033.98 3.408.98 1.374 0 2.576-.394 3.407-.98z" fill="#101010"/><path fill-rule="evenodd" clip-rule="evenodd" d="M43.56 9.415V9a2.5 2.5 0 0 1 2.5-2.5h1.964a2.5 2.5 0 0 1 2.5 2.5v.368c2.544.323 5.081.953 7.158 1.588 2.545.777 4.109 3.186 4.109 5.793v9.582h1.824a2.152 2.152 0 1 1 0 4.305h-2.487c0 5.926-.03 9.134-1.624 11.954-1.635 2.889-5.687 6.554-12.131 6.554a.512.512 0 0 1-.068-.005.507.507 0 0 1-.068.005c-6.45 0-10.508-3.628-12.146-6.492-1.614-2.821-1.627-6.037-1.627-12.016h-3.658a2.153 2.153 0 1 1 0-4.305h2.487v-9.503c0-2.651 1.615-5.086 4.204-5.851 2.068-.612 4.569-1.223 7.062-1.562zm1-.415a1.5 1.5 0 0 1 1.5-1.5h1.964a1.5 1.5 0 0 1 1.5 1.5v.257a24.556 24.556 0 0 0-2.287-.113c-.87 0-1.77.055-2.678.15V9zM33.292 26.33H60.79v-9.58c0-2.222-1.326-4.204-3.4-4.838-2.942-.898-6.762-1.768-10.154-1.768-3.422 0-7.39.885-10.457 1.792-2.118.626-3.487 2.635-3.487 4.892v9.503zm1.17 4.306c.002 6.073.041 8.976 1.496 11.52 1.486 2.596 5.235 5.988 11.278 5.988.023 0 .046.002.068.005a.507.507 0 0 1 .068-.005c6.031 0 9.776-3.423 11.26-6.047 1.44-2.546 1.493-5.449 1.495-11.461H34.464zm-5.81-2.153c0-.637.516-1.152 1.153-1.152h33.809a1.153 1.153 0 0 1 0 2.305H29.806a1.153 1.153 0 0 1-1.153-1.153zm9.243 22.981a10.5 10.5 0 0 0-9.023-.657l-3.61 1.412A18.5 18.5 0 0 0 13.5 69.45V85.5h11.965l.006.001H79.5V69.268a18.5 18.5 0 0 0-11.525-17.135l-3.021-1.23a10.5 10.5 0 0 0-9.158.602l-8.914 5.08-8.986-5.121zm30.9 33.036H78.5V69.268a17.5 17.5 0 0 0-10.902-16.209l-3.021-1.23a9.586 9.586 0 0 0-.122-.048l-8.325 9.534a3.5 3.5 0 0 1-4.959.317l-4.289-3.803-4.288 3.803a3.5 3.5 0 0 1-4.959-.317L29.3 51.77a.502.502 0 0 1-.034-.043l-.03.012-3.61 1.412A17.5 17.5 0 0 0 14.5 69.448V84.5h10.47V70.127a.5.5 0 1 1 1 0V84.5h7.412V68.22a.5.5 0 0 1 .5-.5H59.5a.5.5 0 0 1 .5.5V84.5h7.794V70.127a.5.5 0 1 1 1 0V84.5zm-21.06-27.25l4.099 3.633a2.5 2.5 0 0 0 3.541-.226l8.046-9.214a9.5 9.5 0 0 0-7.131.931l-8.555 4.876zM37.4 52.332l8.629 4.918-4.099 3.633a2.5 2.5 0 0 1-3.541-.226l-8.09-9.264a9.5 9.5 0 0 1 7.101.94zM49.441 68.72h-5.5v4.72h5.5v-4.72zm-6.5 0v5.22a.5.5 0 0 0 .5.5h6.5a.5.5 0 0 0 .5-.5v-5.22H59V84.5H34.382V68.72h8.56z" fill="#101010"/></svg>