<svg width="67" height="80" fill="none" xmlns="http://www.w3.org/2000/svg"><path d="M31.06 3.644V3a2 2 0 0 1 2-2h1.964a2 2 0 0 1 2 2v.644" stroke="#101010"/><path d="M20.964 24.314c0 6.24 0 9.36 1.561 12.09 1.562 2.73 5.466 6.24 11.712 6.24m-14.444-21.84v-9.976c0-2.454 1.492-4.676 3.845-5.372 3.085-.912 7.106-1.812 10.599-1.812 3.464 0 7.338.886 10.3 1.79 2.309.705 3.754 2.9 3.754 5.315v10.055m-.663 3.332c0 6.3 0 9.45-1.56 12.207-1.559 2.757-5.457 6.301-11.695 6.301" stroke="#101010" stroke-linecap="round" stroke-linejoin="round"/><rect x="15.153" y="20.831" width="37.114" height="3.305" rx="1.653" stroke="#101010" stroke-linecap="round" stroke-linejoin="round"/><path d="M39.175 12.237c0 .889-.51 1.743-1.438 2.396-.925.652-2.23 1.07-3.695 1.07-1.465 0-2.77-.418-3.696-1.07-.927-.653-1.438-1.507-1.438-2.396 0-.888.511-1.743 1.438-2.395.926-.652 2.23-1.07 3.696-1.07 1.465 0 2.77.418 3.695 1.07.927.652 1.438 1.507 1.438 2.395zM66 79H1V63.448a18 18 0 0 1 11.443-16.763l3.61-1.412a10 10 0 0 1 8.595.625l9.234 5.263 9.161-5.221a10 10 0 0 1 8.722-.574l3.022 1.23A18 18 0 0 1 66 63.268V79z" stroke="#101010"/><path d="M12.47 79V64.127M55.294 79V64.127M20.882 79V62.22H46.5V79" stroke="#101010" stroke-linecap="round" stroke-linejoin="round"/><path d="M30.441 62.22v5.72h6.5v-5.72M16.677 45.44l8.335 9.546a3 3 0 0 0 4.25.272l4.62-4.097m17.206-5.721l-8.335 9.546a3 3 0 0 1-4.25.272l-4.62-4.097" stroke="#101010" stroke-linecap="round" stroke-linejoin="round"/></svg>