<svg width="32" height="32" fill="none" xmlns="http://www.w3.org/2000/svg"><path fill-rule="evenodd" clip-rule="evenodd" d="M12.27 4.124a.703.703 0 0 1 .686-.47h7.476c.307 0 .583.165.705.441.124.283.052.602-.17.832L19.61 6.332l4.561 20.27c.114.425-.008.856-.233 1.17-.226.316-.597.574-1.04.574H10.49a1.39 1.39 0 0 1-1.355-1.74L13.702 6.4l-1.295-1.489a.856.856 0 0 1-.137-.787zm.85.353l1.34 1.54c.086.1.12.233.09.361L9.938 26.797c-.096.398.182.726.554.726h12.406c.113 0 .258-.07.371-.229a.587.587 0 0 0 .102-.503L18.758 6.296a.412.412 0 0 1 .105-.377l1.394-1.442H13.12z" fill="#101010"/><path fill-rule="evenodd" clip-rule="evenodd" d="M7.705 10.238c.114 0 .223.046.301.129l4.136 4.362a.412.412 0 0 1-.598.566l-3.832-4.042-1.11 1.206 4.265 9.63a.412.412 0 0 1-.752.333L5.74 12.545a.411.411 0 0 1 .073-.445l1.59-1.729a.412.412 0 0 1 .3-.133z" fill="#101010"/><path fill-rule="evenodd" clip-rule="evenodd" d="M7.066 9.034L4.529 11.81l1.45.075a.411.411 0 1 1-.042.822l-1.583-.082c-.36-.007-.562-.299-.637-.484-.074-.185-.13-.53.111-.784L6.59 8.335c.215-.297.572-.322.823-.213.255.11.463.37.468.706l.079 1.72a.412.412 0 0 1-.823.038l-.07-1.552zm16.718 1.211c-1.086.139-2.214.761-2.904 2.152a.412.412 0 0 1-.737-.366c.82-1.655 2.198-2.432 3.537-2.602 1.312-.167 2.631.245 3.34 1.027 1.294 1.43 1.9 3.593.612 5.907-.309.57-.713 1.006-1.138 1.392-.212.193-.433.376-.65.555l-.019.017c-.212.175-.42.348-.626.531-.829.741-1.604 1.657-1.979 3.402a.412.412 0 0 1-.805-.173c.42-1.96 1.315-3.02 2.236-3.842.217-.195.436-.376.645-.549l.024-.02c.218-.18.425-.352.62-.53.39-.354.721-.72.97-1.177l.002-.005c1.095-1.965.588-3.751-.503-4.955-.485-.536-1.51-.905-2.625-.764z" fill="#101010"/><path d="M20.67 14.025h-8.11c-.16 0-.318-.165-.318-.412 0-.247.159-.411.318-.411h8.111c.16 0 .318.164.318.411 0 .247-.159.412-.318.412zm-1.431-7.243h-5.09c-.08 0-.159-.165-.159-.412 0-.247.08-.412.16-.412h5.089c.08 0 .159.165.159.412 0 .247-.08.412-.16.412zm3.579 17.86H10.252c-.159 0-.238-.247-.238-.411 0-.165.159-.412.318-.412h12.565c.16 0 .318.165.318.412 0 .247-.238.411-.397.411zm-6.204-7.819c.16 0 .319.082.478.247l.159.33c.08.164.238.246.397.246h.398c.398 0 .636.494.477.823l-.159.33a.541.541 0 0 0 0 .493l.16.33c.158.329-.08.823-.478.823h-.398a.435.435 0 0 0-.397.247l-.16.329c-.079.164-.238.247-.477.247-.238 0-.318-.083-.477-.247l-.159-.33a.435.435 0 0 0-.397-.246h-.398c-.398 0-.636-.494-.477-.823l.159-.33a.541.541 0 0 0 0-.494l-.16-.329c-.158-.329.08-.823.478-.823h.398a.433.433 0 0 0 .397-.247l.16-.329c.158-.165.317-.247.476-.247zm0-.823c-.477 0-.874.247-1.113.659l-.159.164h-.239c-.477 0-.874.247-1.113.659a1.301 1.301 0 0 0 0 1.317l.08.246-.08.33a1.301 1.301 0 0 0 0 1.317c.239.411.636.658 1.114.658h.238l.16.247c.238.412.635.658 1.112.658.478 0 .875-.246 1.114-.658l.159-.247h.238c.478 0 .875-.247 1.114-.658a1.301 1.301 0 0 0 0-1.317l-.08-.247.08-.247a1.3 1.3 0 0 0 0-1.317c-.239-.412-.636-.659-1.114-.659h-.238l-.16-.247c-.238-.411-.635-.658-1.113-.658z" fill="#101010"/><path d="M16.615 19.786a.648.648 0 0 0 .636-.658.648.648 0 0 0-.636-.659.648.648 0 0 0-.637.659c0 .363.285.658.637.658z" fill="#101010"/></svg>