<svg width="80" height="76" fill="none" xmlns="http://www.w3.org/2000/svg"><rect x="8.577" y="20.18" width="48.44" height="7.52" rx="1" stroke="#101010"/><path d="M12.355 27.92v24.975a3 3 0 003 3h8.753M53.239 27.92v16.356M28.988 20.17v24.106M36.58 20.17v24.106" stroke="#000"/><path d="M29.787 15.153l2.974 4.725 2.963-4.6c.936-1.454 1.61-3.277.677-4.732-.604-.94-1.689-1.785-3.64-1.785-2.04 0-3.11.923-3.674 1.913-.804 1.412-.165 3.104.7 4.48zm6.393-.33l-2.752 4.958 5.666.208c1.692.062 3.541-.256 4.376-1.694.575-.989.833-2.365-.177-4.073-1.054-1.78-2.465-2.196-3.65-2.146-1.59.068-2.705 1.38-3.464 2.747zm-6.765 0l2.751 4.958-5.665.208c-1.693.062-3.541-.256-4.377-1.694-.574-.989-.832-2.365.178-4.073 1.053-1.78 2.465-2.196 3.649-2.146 1.59.068 2.706 1.38 3.464 2.747zm1.433 48.41l13.338-13.008" stroke="#101010" stroke-linecap="round" stroke-linejoin="round"/><path d="M45.04 60.623c0 1.493-1.244 2.724-2.805 2.724-1.562 0-2.806-1.231-2.806-2.724 0-1.492 1.244-2.723 2.806-2.723 1.561 0 2.805 1.23 2.805 2.723zm-9.079-8.501c0 1.493-1.244 2.724-2.805 2.724-1.562 0-2.806-1.231-2.806-2.724 0-1.492 1.244-2.723 2.806-2.723 1.561 0 2.805 1.23 2.805 2.723z" stroke="#101010"/><path d="M55.374 49.928h10.405m-13.25 4.673h13.25m0 5.267h-5.528" stroke="#101010" stroke-linecap="round" stroke-linejoin="round"/><rect x="24.45" y="44.535" width="46.807" height="23.103" rx="5" stroke="#101010" stroke-linecap="round" stroke-linejoin="round"/></svg>