<svg width="77" height="76" fill="none" xmlns="http://www.w3.org/2000/svg"><path d="M46.53 50.75a.5.5 0 0 0-.642-.297l-9.479 3.466a.5.5 0 1 0 .344.94l9.48-3.467a.5.5 0 0 0 .297-.642zm-.69 3.35a.5.5 0 0 1 .344.938l-3.253 1.19a.5.5 0 0 1-.344-.939l3.253-1.19zm-6.794 2.484a.5.5 0 0 1 .344.94l-2.685.981a.5.5 0 0 1-.344-.939l2.685-.982z" fill="#101010"/><path fill-rule="evenodd" clip-rule="evenodd" d="M65.435 40.995c0 2.74-2.177 4.962-4.861 4.962-2.685 0-4.861-2.221-4.861-4.962 0-2.74 2.176-4.961 4.86-4.961 2.685 0 4.862 2.221 4.862 4.961zm-1 0c0 2.208-1.748 3.962-3.861 3.962-2.113 0-3.861-1.754-3.861-3.962 0-2.207 1.748-3.961 3.86-3.961 2.114 0 3.862 1.754 3.862 3.961z" fill="#101010"/><path fill-rule="evenodd" clip-rule="evenodd" d="M32.352 11.03a.5.5 0 0 0-.345.002L4.94 21.18a.5.5 0 0 0-.325.468v33.266a.5.5 0 0 0 .333.471l27.066 9.585a.5.5 0 0 0 .33.002l25.192-8.65 2.73 4.703a.5.5 0 0 0 .872-.012l8.713-16.008c1.145-2.104 1.892-4.593 1.152-7.016-.49-1.602-1.38-3.476-3.004-4.951-1.61-1.463-3.906-2.502-7.147-2.533v-8.857a.5.5 0 0 0-.33-.47l-28.171-10.15zm18.946 34.545l5.727 9.865-24.343 8.36V31.592l27.171-9.245v8.182c-2.684.15-4.721 1.016-6.259 2.222-1.688 1.323-2.744 3.032-3.403 4.58-1.179 2.77-.322 5.784 1.107 8.244zM31.682 31.587v32.206L5.616 54.562V22.355l8.41 2.979v13.152a.5.5 0 0 0 .65.477l3.868-1.22 4.354 4.116a.5.5 0 0 0 .843-.363V28.775l7.941 2.812zm-7.095-3.573l7.598 2.69 26.655-9.069-8.213-2.959-26.04 9.338zm24.562-9.87l-26.053 9.342-7.243-2.565 26.243-9.318 7.053 2.541zm-8.536-3.075l-8.427-3.036-25.61 9.603 7.78 2.755h.003l26.254-9.322zm-25.587 10.62l7.715 2.732v11.915l-3.723-3.52a.5.5 0 0 0-.494-.114l-3.498 1.103V25.689zm39.185 7.849c-1.518 1.19-2.486 2.741-3.1 4.185-.998 2.345-.31 5.004 1.052 7.35l8.523 14.682 8.288-15.227c1.09-2.004 1.7-4.197 1.074-6.246-.457-1.496-1.273-3.188-2.72-4.503-1.438-1.306-3.535-2.274-6.628-2.274-2.895 0-4.979.849-6.49 2.033z" fill="#101010"/><path d="M17.195 48.134a1 1 0 0 1 1.32-.947l8.397 2.845a1 1 0 0 1 .68.947v5.792a1 1 0 0 1-1.322.947l-8.396-2.845a1 1 0 0 1-.68-.947v-5.792z" fill="#F6F6F6"/><path d="M17.191 49.383l10.4 3.347v2.743l-10.4-3.462v-2.628z" fill="#3085F8"/><path fill-rule="evenodd" clip-rule="evenodd" d="M18.836 46.24l8.397 2.845a2 2 0 0 1 1.358 1.895v5.792a2 2 0 0 1-2.641 1.894l-8.397-2.846a2 2 0 0 1-1.359-1.894v-5.792a2 2 0 0 1 2.642-1.894zm-.32.947a1 1 0 0 0-1.322.947v5.792a1 1 0 0 0 .68.947l8.396 2.846a1 1 0 0 0 1.322-.947V50.98a1 1 0 0 0-.68-.947l-8.397-2.846z" fill="#101010"/><path d="M17.194 53.926v-1.922l10.398 3.462v1.306a1 1 0 0 1-1.322.947l-8.396-2.846a1 1 0 0 1-.68-.947z" fill="#F61D2A"/><path d="M27.591 50.98v1.745l-10.397-3.35v-1.24a1 1 0 0 1 1.321-.948l8.397 2.846a1 1 0 0 1 .68.947z" fill="#fff"/></svg>