<svg width="76" height="76" fill="none" xmlns="http://www.w3.org/2000/svg"><path d="M32.066 64.5V31.234m0 33.266L5 54.915V21.649M32.066 64.5l25.487-8.752M32.066 31.234l28.17-9.585m-28.17 9.585L5 21.649m55.237 0L32.066 11.5 5 21.649m55.237 0v9.07" stroke="#101010" stroke-linecap="round" stroke-linejoin="round"/><path d="M41.845 15.12L14.41 24.863v13.625l4.148-1.308 4.567 4.318V27.965l27.26-9.774m-4.441 32.731l-9.48 3.467m9.432.18l-3.253 1.19m-6.227 2.277l2.686-.982" stroke="#101010" stroke-linecap="round" stroke-linejoin="round"/><path d="M60.584 60.775l-.432.251a.5.5 0 0 0 .871-.012l-.439-.239zm.432-.25l-8.97-15.452-.864.502 8.97 15.451.864-.502zM50.995 37.722c.614-1.444 1.582-2.996 3.1-4.185 1.51-1.184 3.594-2.033 6.489-2.033v-1c-3.107 0-5.41.917-7.106 2.246-1.688 1.323-2.744 3.032-3.403 4.58l.92.392zm9.589-6.218c3.093 0 5.19.968 6.627 2.274 1.448 1.315 2.263 3.007 2.72 4.503l.957-.292c-.49-1.602-1.38-3.476-3.004-4.951-1.635-1.486-3.978-2.534-7.3-2.534v1zm8.274 13.023l-8.713 16.008.878.478 8.713-16.008-.878-.478zm1.073-6.246c.627 2.05.017 4.242-1.073 6.246l.878.478c1.145-2.104 1.892-4.593 1.152-7.016l-.957.292zm-17.885 6.791c-1.362-2.346-2.05-5.005-1.051-7.35l-.92-.392c-1.179 2.77-.322 5.784 1.107 8.244l.864-.502z" fill="#000"/><path d="M64.818 40.995c0 2.474-1.962 4.462-4.36 4.462-2.4 0-4.361-1.988-4.361-4.462 0-2.473 1.962-4.461 4.36-4.461 2.4 0 4.361 1.988 4.361 4.461z" stroke="#101010"/><mask id="a" maskUnits="userSpaceOnUse" x="16.078" y="45.133" width="13" height="14" fill="#000"><path fill="#fff" d="M16.078 45.133h13v14h-13z"/><path d="M17.078 48.134a1 1 0 0 1 1.321-.947l8.397 2.845a1 1 0 0 1 .68.948v5.791a1 1 0 0 1-1.322.947l-8.397-2.845a1 1 0 0 1-.679-.947v-5.792z"/></mask><path d="M17.757 54.873l-.32.947.32-.947zm8.397 2.846l.321-.948-.32.947zm.642-7.687l-.32.948.32-.948zM18.4 47.187l.321-.947-.32.947zm-.32.947l8.396 2.846.642-1.895-8.397-2.845-.642 1.894zm8.396 2.846v5.791h2V50.98h-2zm0 5.791l-8.397-2.845-.642 1.894 8.397 2.846.642-1.895zm-8.397-2.845v-5.792h-2v5.792h2zm0 0h-2a2 2 0 0 0 1.358 1.894l.642-1.894zm8.397 2.845l-.642 1.895a2 2 0 0 0 2.642-1.895h-2zm0-5.791h2a2 2 0 0 0-1.358-1.895l-.642 1.895zm-7.755-4.74a2 2 0 0 0-2.642 1.894h2l.642-1.894z" fill="#101010" mask="url(#a)"/><mask id="b" maskUnits="userSpaceOnUse" x="17" y="47" width="11" height="11"><path d="M17.078 48.134a1 1 0 0 1 1.321-.947l8.397 2.845a1 1 0 0 1 .68.947v5.792a1 1 0 0 1-1.322.947l-8.397-2.845a1 1 0 0 1-.679-.947v-5.792z" fill="#F6F6F6"/></mask><g mask="url(#b)"><path d="M16.792 46.466l10.804 3.158v3.32l-10.804-3.32v-3.158z" fill="#fff"/><path d="M16.551 49.202l10.925 3.517v2.77L16.55 51.865v-2.663z" fill="#3085F8"/><path d="M16.667 51.865l11.028 3.674v2.836l-10.903-3.732-.125-2.778z" fill="#F61D2A"/></g></svg>