<svg width="76" height="76" fill="none" xmlns="http://www.w3.org/2000/svg"><path d="M49.364 65.27S37.94 68 34.339 68c-2.484 0-9.065-3.846-12.666-5.707-.87-.496-.993-1.612-.248-2.233.372-.248.745-.372 1.117-.248l8.94 2.481" stroke="#000" stroke-miterlimit="10" stroke-linecap="round" stroke-linejoin="round"/><path d="M49.364 59.068s-5.464-1.117-9.065.124c-2.732.992-6.581 2.357-8.195 2.853-.497.124-.87.497-.87.993 0 .62.497 1.24 1.242 1.24l5.464-.372" stroke="#000" stroke-miterlimit="10" stroke-linecap="round" stroke-linejoin="round"/><rect x="49.985" y="56.981" width="3.957" height="10.669" rx="1" stroke="#101010" stroke-linecap="round" stroke-linejoin="round"/><path d="M61 44.999L37.753 53.1V23.52L61 16.244V45zM15 16.244l22.753 7.275M15 16.244V45l22.753 8.1M15 16.245l12.366-4.48M61 16.244L37.753 8l-10.387 3.764m0 0l21.763 8.002" stroke="#101010" stroke-linecap="round" stroke-linejoin="round"/><path d="M42.187 41.202l8.903-2.909v6.073l-8.903 2.909v-6.073zm4.469 1.23v-8.244m0 0l-1.484 1.94m1.484-1.94l1.484.97" stroke="#101010" stroke-linecap="round" stroke-linejoin="round"/></svg>