<svg width="17" height="28" xmlns="http://www.w3.org/2000/svg"><path fill-rule="evenodd" clip-rule="evenodd" d="M.6 4A3.4 3.4 0 014 .6h8.7A3.4 3.4 0 0116.1 4v20.6a3.4 3.4 0 01-3.4 3.4H4a3.4 3.4 0 01-3.4-3.4V4zm.8 19.9v.7A2.6 2.6 0 004 27.2h8.7a2.6 2.6 0 002.6-2.6v-.7H1.4zm13.9-.8H1.4V6.4h13.9v16.7zm0-17.5V4a2.6 2.6 0 00-2.6-2.6H4A2.6 2.6 0 001.4 4v1.6h13.9zM6.8 3.198a.4.4 0 01.4-.4h2.3a.4.4 0 110 .8H7.2a.4.4 0 01-.4-.4z"/><circle cx="8.35" cy="16.713" r=".65"/><ellipse cx="8.35" cy="25.465" rx=".848" ry=".85"/><path fill-rule="evenodd" clip-rule="evenodd" d="M8.309 12.074c-1.403-.007-2.544.527-3.166 1.198a.4.4 0 11-.587-.544c.795-.858 2.163-1.462 3.757-1.454 1.583.008 3.04.606 3.83 1.453a.4.4 0 11-.586.546c-.608-.652-1.834-1.192-3.248-1.199z"/><path d="M6.85 15.105a.4.4 0 01-.545.138c-.312-.183-.14-.588 0-.724.511-.59 1.28-.836 2.05-.827.761.009 1.299.236 1.652.48.146.1.415.289.526.518.097.199.056.435-.133.55a.4.4 0 01-.547-.129c-.36-.448-.952-.613-1.508-.62-.52-.005-1.184.146-1.495.614z"/></svg>