<svg width="250" height="131" fill="none" xmlns="http://www.w3.org/2000/svg"><mask id="a" fill="#fff"><path fill-rule="evenodd" clip-rule="evenodd" d="M237.923 39.784c5.561 0 10.077-4.52 10.077-10.108 0-5.587-4.516-10.107-10.077-10.107-5.56 0-10.076 4.52-10.076 10.107 0 5.588 4.516 10.108 10.076 10.108zm0 2c6.67 0 12.077-5.42 12.077-12.108 0-6.686-5.407-12.107-12.077-12.107-6.669 0-12.076 5.42-12.076 12.107 0 6.687 5.407 12.108 12.076 12.108z"/></mask><path fill-rule="evenodd" clip-rule="evenodd" d="M237.923 39.784c5.561 0 10.077-4.52 10.077-10.108 0-5.587-4.516-10.107-10.077-10.107-5.56 0-10.076 4.52-10.076 10.107 0 5.588 4.516 10.108 10.076 10.108zm0 2c6.67 0 12.077-5.42 12.077-12.108 0-6.686-5.407-12.107-12.077-12.107-6.669 0-12.076 5.42-12.076 12.107 0 6.687 5.407 12.108 12.076 12.108z" fill="#F61D2A"/><path d="M246 29.676c0 4.488-3.625 8.108-8.077 8.108v4c6.67 0 12.077-5.42 12.077-12.108h-4zm-8.077-8.107c4.452 0 8.077 3.62 8.077 8.107h4c0-6.687-5.407-12.107-12.077-12.107v4zm-8.076 8.107c0-4.487 3.625-8.107 8.076-8.107v-4c-6.669 0-12.076 5.42-12.076 12.107h4zm8.076 8.108c-4.451 0-8.076-3.62-8.076-8.108h-4c0 6.688 5.407 12.108 12.076 12.108v-4zM248 29.676c0 5.588-4.516 10.108-10.077 10.108v4c7.78 0 14.077-6.32 14.077-14.108h-4zM237.923 19.57c5.561 0 10.077 4.52 10.077 10.107h4c0-7.786-6.297-14.107-14.077-14.107v4zm-10.076 10.107c0-5.587 4.516-10.107 10.076-10.107v-4c-7.779 0-14.076 6.32-14.076 14.107h4zm10.076 10.108c-5.56 0-10.076-4.52-10.076-10.108h-4c0 7.787 6.297 14.108 14.076 14.108v-4z" fill="#F61D2A" mask="url(#a)"/><mask id="b" fill="#fff"><path fill-rule="evenodd" clip-rule="evenodd" d="M35.802 92.87a5 5 0 004.992-5.009c0-2.772-2.24-5.01-4.992-5.01s-4.991 2.238-4.991 5.01 2.24 5.01 4.991 5.01zm0 2c3.861 0 6.992-3.138 6.992-7.009 0-3.871-3.13-7.01-6.992-7.01-3.861 0-6.991 3.139-6.991 7.01s3.13 7.01 6.991 7.01z"/></mask><path fill-rule="evenodd" clip-rule="evenodd" d="M35.802 92.87a5 5 0 004.992-5.009c0-2.772-2.24-5.01-4.992-5.01s-4.991 2.238-4.991 5.01 2.24 5.01 4.991 5.01zm0 2c3.861 0 6.992-3.138 6.992-7.009 0-3.871-3.13-7.01-6.992-7.01-3.861 0-6.991 3.139-6.991 7.01s3.13 7.01 6.991 7.01z" fill="#F61D2A"/><path d="M38.794 87.861a3 3 0 01-2.992 3.01v4c3.861 0 6.992-3.138 6.992-7.01h-4zm-2.992-3.01a3 3 0 012.992 3.01h4c0-3.872-3.131-7.01-6.992-7.01v4zm-2.992 3.01a3 3 0 012.992-3.01v-4c-3.86 0-6.991 3.138-6.991 7.01h4zm2.992 3.01a3 3 0 01-2.992-3.01h-4c0 3.872 3.131 7.01 6.992 7.01v-4zm4.992-3.01c0 2.772-2.24 5.01-4.992 5.01v4c4.971 0 8.992-4.039 8.992-9.01h-4zm-4.992-5.01c2.752 0 4.992 2.238 4.992 5.01h4c0-4.971-4.021-9.01-8.992-9.01v4zm-4.991 5.01c0-2.772 2.24-5.01 4.991-5.01v-4c-4.97 0-8.991 4.039-8.991 9.01h4zm4.991 5.01c-2.752 0-4.991-2.238-4.991-5.01h-4c0 4.971 4.02 9.01 8.991 9.01v-4z" fill="#F61D2A" mask="url(#b)"/><mask id="c" fill="#fff"><path fill-rule="evenodd" clip-rule="evenodd" d="M203.601 49.98c2.05 0 3.72-1.667 3.72-3.735a3.727 3.727 0 00-3.72-3.735 3.728 3.728 0 00-3.721 3.735 3.728 3.728 0 003.721 3.735zm0 2c3.159 0 5.72-2.567 5.72-5.735 0-3.167-2.561-5.735-5.72-5.735s-5.721 2.568-5.721 5.735c0 3.168 2.562 5.735 5.721 5.735z"/></mask><path fill-rule="evenodd" clip-rule="evenodd" d="M203.601 49.98c2.05 0 3.72-1.667 3.72-3.735a3.727 3.727 0 00-3.72-3.735 3.728 3.728 0 00-3.721 3.735 3.728 3.728 0 003.721 3.735zm0 2c3.159 0 5.72-2.567 5.72-5.735 0-3.167-2.561-5.735-5.72-5.735s-5.721 2.568-5.721 5.735c0 3.168 2.562 5.735 5.721 5.735z" fill="#F61D2A"/><path d="M205.321 46.245c0 .968-.779 1.735-1.72 1.735v4c3.158 0 5.72-2.567 5.72-5.735h-4zm-1.72-1.735c.941 0 1.72.768 1.72 1.735h4c0-3.168-2.562-5.735-5.72-5.735v4zm-1.721 1.735c0-.967.78-1.735 1.721-1.735v-4c-3.159 0-5.721 2.567-5.721 5.735h4zm1.721 1.735a1.728 1.728 0 01-1.721-1.735h-4c0 3.168 2.562 5.735 5.721 5.735v-4zm3.72-1.735a3.727 3.727 0 01-3.72 3.735v4c4.269 0 7.72-3.468 7.72-7.735h-4zm-3.72-3.735c2.05 0 3.72 1.667 3.72 3.735h4c0-4.267-3.451-7.735-7.72-7.735v4zm-3.721 3.735a3.728 3.728 0 013.721-3.735v-4c-4.269 0-7.721 3.468-7.721 7.735h4zm3.721 3.735a3.728 3.728 0 01-3.721-3.735h-4c0 4.267 3.452 7.735 7.721 7.735v-4z" fill="#F61D2A" mask="url(#c)"/><path d="M237.559 100.412c0 10.712-8.661 19.392-19.339 19.392-10.679 0-19.34-8.68-19.34-19.392 0-10.713 8.661-19.392 19.34-19.392 10.678 0 19.339 8.68 19.339 19.392z" fill="#fff" stroke="#F61D2A" stroke-width="2"/><mask id="d" fill="#fff"><path fill-rule="evenodd" clip-rule="evenodd" d="M218.22 118.804c10.123 0 18.339-8.23 18.339-18.392 0-10.163-8.216-18.392-18.339-18.392-10.124 0-18.34 8.23-18.34 18.392 0 10.162 8.216 18.392 18.34 18.392zm0 2c11.233 0 20.339-9.13 20.339-20.392 0-11.263-9.106-20.392-20.339-20.392-11.233 0-20.34 9.13-20.34 20.392 0 11.262 9.107 20.392 20.34 20.392z"/></mask><path fill-rule="evenodd" clip-rule="evenodd" d="M218.22 118.804c10.123 0 18.339-8.23 18.339-18.392 0-10.163-8.216-18.392-18.339-18.392-10.124 0-18.34 8.23-18.34 18.392 0 10.162 8.216 18.392 18.34 18.392zm0 2c11.233 0 20.339-9.13 20.339-20.392 0-11.263-9.106-20.392-20.339-20.392-11.233 0-20.34 9.13-20.34 20.392 0 11.262 9.107 20.392 20.34 20.392z" fill="#fff"/><path d="M234.559 100.412c0 9.063-7.325 16.392-16.339 16.392v4c11.233 0 20.339-9.13 20.339-20.392h-4zM218.22 84.02c9.014 0 16.339 7.329 16.339 16.392h4c0-11.263-9.106-20.392-20.339-20.392v4zm-16.34 16.392c0-9.063 7.325-16.392 16.34-16.392v-4c-11.233 0-20.34 9.13-20.34 20.392h4zm16.34 16.392c-9.015 0-16.34-7.329-16.34-16.392h-4c0 11.262 9.107 20.392 20.34 20.392v-4zm18.339-16.392c0 10.162-8.216 18.392-18.339 18.392v4c12.342 0 22.339-10.03 22.339-22.392h-4zM218.22 82.02c10.123 0 18.339 8.23 18.339 18.392h4c0-12.362-9.997-22.392-22.339-22.392v4zm-18.34 18.392c0-10.163 8.216-18.392 18.34-18.392v-4c-12.343 0-22.34 10.03-22.34 22.392h4zm18.34 18.392c-10.124 0-18.34-8.23-18.34-18.392h-4c0 12.362 9.997 22.392 22.34 22.392v-4z" fill="#F61D2A" mask="url(#d)"/><path d="M58.32 17.569c0 8.6-6.954 15.568-15.526 15.568-8.573 0-15.526-6.968-15.526-15.568C27.268 8.968 34.22 2 42.794 2c8.572 0 15.525 6.968 15.525 15.569z" fill="#fff" stroke="#F61D2A" stroke-width="2"/><mask id="e" fill="#fff"><path fill-rule="evenodd" clip-rule="evenodd" d="M42.794 32.137c8.017 0 14.525-6.517 14.525-14.568C57.32 9.518 50.811 3 42.793 3c-8.017 0-14.525 6.518-14.525 14.569 0 8.05 6.508 14.568 14.526 14.568zm0 2c9.126 0 16.525-7.418 16.525-16.568C59.32 8.418 51.92 1 42.793 1c-9.126 0-16.525 7.418-16.525 16.569 0 9.15 7.399 16.568 16.526 16.568z"/></mask><path fill-rule="evenodd" clip-rule="evenodd" d="M42.794 32.137c8.017 0 14.525-6.517 14.525-14.568C57.32 9.518 50.811 3 42.793 3c-8.017 0-14.525 6.518-14.525 14.569 0 8.05 6.508 14.568 14.526 14.568zm0 2c9.126 0 16.525-7.418 16.525-16.568C59.32 8.418 51.92 1 42.793 1c-9.126 0-16.525 7.418-16.525 16.569 0 9.15 7.399 16.568 16.526 16.568z" fill="#fff"/><path d="M55.32 17.569c0 6.95-5.618 12.568-12.526 12.568v4c9.126 0 16.525-7.418 16.525-16.568h-4zM42.793 5c6.908 0 12.525 5.618 12.525 12.569h4C59.32 8.418 51.92 1 42.793 1v4zM30.268 17.569C30.268 10.618 35.885 5 42.794 5V1c-9.127 0-16.526 7.418-16.526 16.569h4zm12.526 12.568c-6.909 0-12.526-5.617-12.526-12.568h-4c0 9.15 7.399 16.568 16.526 16.568v-4zM57.319 17.57c0 8.05-6.508 14.568-14.526 14.568v4c10.237 0 18.526-8.318 18.526-18.568h-4zM42.793 3C50.812 3 57.32 9.518 57.32 17.569h4C61.32 7.319 53.03-1 42.793-1v4zM28.269 17.569C28.268 9.518 34.776 3 42.794 3v-4C32.556-1 24.268 7.318 24.268 17.569h4zm14.526 14.568c-8.018 0-14.526-6.517-14.526-14.568h-4c0 10.25 8.29 18.568 18.526 18.568v-4z" fill="#F61D2A" mask="url(#e)"/><path fill-rule="evenodd" clip-rule="evenodd" d="M37.17 12.517a1 1 0 011.415.001l4.209 4.22 4.21-4.22a1 1 0 111.415 1.413l-4.213 4.223 4.213 4.224a1 1 0 11-1.416 1.412l-4.209-4.22-4.21 4.22a1 1 0 01-1.415-1.412l4.213-4.224-4.213-4.223a1 1 0 01.002-1.414z" fill="#F61D2A"/><ellipse cx="126.694" cy="74.922" rx="55.933" ry="56.078" fill="#FED2D5"/><mask id="f" fill="#fff"><path fill-rule="evenodd" clip-rule="evenodd" d="M121.608 123.902c29.782 0 53.933-24.207 53.933-54.079 0-29.871-24.151-54.078-53.933-54.078-29.781 0-53.933 24.207-53.933 54.078 0 29.872 24.152 54.079 53.933 54.079zm0 2c30.891 0 55.933-25.107 55.933-56.079 0-30.97-25.042-56.078-55.933-56.078-30.89 0-55.933 25.107-55.933 56.078 0 30.972 25.042 56.079 55.933 56.079z"/></mask><path fill-rule="evenodd" clip-rule="evenodd" d="M121.608 123.902c29.782 0 53.933-24.207 53.933-54.079 0-29.871-24.151-54.078-53.933-54.078-29.781 0-53.933 24.207-53.933 54.078 0 29.872 24.152 54.079 53.933 54.079zm0 2c30.891 0 55.933-25.107 55.933-56.079 0-30.97-25.042-56.078-55.933-56.078-30.89 0-55.933 25.107-55.933 56.078 0 30.972 25.042 56.079 55.933 56.079z" fill="#F61D2A"/><path d="M173.541 69.823c0 28.772-23.261 52.079-51.933 52.079v4c30.891 0 55.933-25.107 55.933-56.079h-4zm-51.933-52.078c28.672 0 51.933 23.307 51.933 52.078h4c0-30.97-25.042-56.078-55.933-56.078v4zM69.675 69.823c0-28.771 23.261-52.078 51.933-52.078v-4c-30.89 0-55.933 25.107-55.933 56.078h4zm51.933 52.079c-28.672 0-51.933-23.307-51.933-52.079h-4c0 30.972 25.042 56.079 55.933 56.079v-4zm53.933-52.079c0 29.872-24.151 54.079-53.933 54.079v4c32.001 0 57.933-26.008 57.933-58.079h-4zm-53.933-54.078c29.782 0 53.933 24.207 53.933 54.078h4c0-32.07-25.932-58.078-57.933-58.078v4zM67.675 69.823c0-29.871 24.152-54.078 53.933-54.078v-4c-32 0-57.933 26.008-57.933 58.078h4zm53.933 54.079c-29.781 0-53.933-24.207-53.933-54.079h-4c0 32.071 25.933 58.079 57.933 58.079v-4z" fill="#F61D2A" mask="url(#f)"/><path fill-rule="evenodd" clip-rule="evenodd" d="M98.17 48.238a3.99 3.99 0 015.654 0l17.913 17.96 17.913-17.96a3.99 3.99 0 015.654 0 4.016 4.016 0 010 5.67l-17.913 17.958 17.913 17.96a4.016 4.016 0 010 5.668 3.99 3.99 0 01-5.654 0l-17.913-17.96-17.913 17.96a3.99 3.99 0 01-5.654 0 4.016 4.016 0 010-5.669l17.913-17.959L98.17 53.907a4.016 4.016 0 010-5.669z" fill="#fff"/><path fill-rule="evenodd" clip-rule="evenodd" d="M97.464 47.53a4.988 4.988 0 017.067 0l17.206 17.25 17.206-17.25a4.988 4.988 0 017.067 0 5.02 5.02 0 010 7.086l-17.205 17.25 17.205 17.25a5.02 5.02 0 010 7.087 4.988 4.988 0 01-7.067 0l-17.206-17.251-17.206 17.25a4.988 4.988 0 01-7.067 0 5.02 5.02 0 010-7.085l17.205-17.25-17.205-17.251a5.02 5.02 0 010-7.086zm5.654 1.417a2.993 2.993 0 00-4.24 0 3.012 3.012 0 000 4.251l17.912 17.96a1.004 1.004 0 010 1.417L98.877 90.534a3.012 3.012 0 000 4.251 2.993 2.993 0 004.241 0l17.912-17.959a1 1 0 011.414 0l17.912 17.96a2.994 2.994 0 004.241 0 3.012 3.012 0 000-4.252l-17.913-17.96a1.004 1.004 0 010-1.416l17.913-17.96a3.012 3.012 0 000-4.251 2.994 2.994 0 00-4.241 0l-17.912 17.959a1 1 0 01-1.414 0l-17.912-17.96zM179.369.495a1 1 0 01.862.498l7.701 13.264a.998.998 0 01-.864 1.502h-15.493a1.002 1.002 0 01-.862-1.507L178.504.989a1 1 0 01.865-.493zm-6.047 13.264h12.009l-5.97-10.281-6.039 10.281zm37.392 80.143a1 1 0 011.414.002l5.563 5.577 5.563-5.577a1 1 0 111.416 1.412l-5.567 5.581 5.567 5.581a1.001 1.001 0 01-1.416 1.413l-5.563-5.578-5.563 5.578a1 1 0 11-1.416-1.413l5.567-5.581-5.567-5.58a1 1 0 01.002-1.415zM7.238 48.032a1 1 0 01.862.498l6.164 10.615a1 1 0 01-.865 1.503H1a1 1 0 01-.862-1.507l6.235-10.616a1 1 0 01.865-.493zm-4.49 10.616h8.914l-4.431-7.633-4.484 7.633z" fill="#F61D2A"/></svg>