<svg width="32" height="32" fill="none" xmlns="http://www.w3.org/2000/svg"><path fill-rule="evenodd" clip-rule="evenodd" d="M20.145 6.652c1.774-.4 3.623-.026 5.107 1.317 1.446 1.309 2.19 2.928 2.245 4.592.055 1.658-.575 3.32-1.798 4.724-1.607 1.943-4.995 5.121-7.234 7.223-.71.666-1.305 1.224-1.691 1.6a.988.988 0 01-.793.392c-.314 0-.61-.14-.838-.363-.362-.353-.918-.887-1.587-1.527-2.261-2.169-5.8-5.562-7.36-7.315-2.27-2.536-2.393-6.773.439-9.326 2.615-2.351 6.996-1.677 9.286 1.38 1.165-1.396 2.661-2.345 4.224-2.697zm.22.975c-1.495.337-2.974 1.335-4.065 2.865a.5.5 0 01-.835-.033c-1.87-3.105-5.924-3.758-8.16-1.748-2.383 2.15-2.304 5.75-.364 7.917l.001.001c1.53 1.72 5.006 5.053 7.27 7.224.682.654 1.254 1.202 1.63 1.569.07.07.124.078.138.078l.001-.002a.5.5 0 01.064-.076c.412-.403 1.047-.999 1.8-1.705 2.241-2.103 5.528-5.187 7.087-7.074l.009-.01c1.08-1.24 1.602-2.662 1.556-4.04-.045-1.372-.655-2.742-1.916-3.882-1.223-1.107-2.732-1.418-4.217-1.084z" fill="#101010"/></svg>