<svg width="32" height="32" fill="none" xmlns="http://www.w3.org/2000/svg"><path d="M16.394 25.78l-.28-.287a.403.403 0 0 0-.05.061l.33.226zm8.924-8.818l-.302-.263-.007.008.309.255zm-9.425-6.76l-.343.206a.4.4 0 0 0 .668.026l-.325-.233zM6.969 8.34l-.267-.298.267.298zm-.4 8.622l.298-.266v-.001l-.299.267zm8.643 9.104c.213.207.485.334.769.334a.89.89 0 0 0 .744-.395l-.661-.45c-.024.034-.05.045-.083.045-.042 0-.121-.02-.21-.107l-.559.573zm1.462 0c1.575-1.54 6.829-6.28 8.952-8.85l-.617-.51c-2.088 2.527-7.261 7.192-8.894 8.788l.559.572zm8.945-8.841c1.211-1.39 1.832-3.029 1.778-4.66-.054-1.636-.784-3.23-2.212-4.522l-.537.594c1.28 1.157 1.903 2.551 1.95 3.954.046 1.405-.487 2.852-1.582 4.108l.603.526zm-.434-9.182c-1.458-1.319-3.273-1.687-5.019-1.294-1.737.392-3.396 1.534-4.599 3.22l.651.465c1.104-1.547 2.603-2.561 4.124-2.904 1.513-.341 3.057-.024 4.306 1.106l.537-.593zm-8.95 1.952c-2.113-3.512-6.81-4.4-9.533-1.953l.535.595c2.29-2.059 6.417-1.38 8.313 1.77l.686-.412zM6.703 8.043c-2.787 2.513-2.67 6.687-.432 9.186l.596-.534c-1.973-2.204-2.056-5.869.371-8.058l-.535-.594zm-.432 9.185c2.017 2.267 7.354 7.286 8.942 8.838l.56-.572c-1.62-1.584-6.912-6.559-8.905-8.798l-.597.532z" fill="#101010"/></svg>