<svg width="32" height="32" fill="none" xmlns="http://www.w3.org/2000/svg"><path fill-rule="evenodd" clip-rule="evenodd" d="M16 4.5C9.649 4.5 4.5 9.649 4.5 16S9.649 27.5 16 27.5 27.5 22.351 27.5 16 22.351 4.5 16 4.5zM3.5 16C3.5 9.096 9.096 3.5 16 3.5S28.5 9.096 28.5 16 22.904 28.5 16 28.5 3.5 22.904 3.5 16z" fill="#101010"/><path fill-rule="evenodd" clip-rule="evenodd" d="M13.351 10.46c-.357.381-.601.994-.601 1.908v7.203c0 1.509 1.24 3.007 3.087 3.007 1.922 0 3.413-1.393 3.413-3.007v-6.203a.5.5 0 111 0v6.203c0 2.27-2.049 4.007-4.413 4.007a4.053 4.053 0 01-4.087-4.007v-7.203c0-1.086.292-1.973.872-2.592.584-.622 1.398-.908 2.307-.908s1.723.286 2.306.908c.58.619.872 1.506.872 2.592 0 1.01-.035 2.213-.07 3.283l-.018.542a74.91 74.91 0 00-.052 1.958c0 .588-.165 1.155-.535 1.583-.38.437-.931.678-1.595.678-.664 0-1.21-.242-1.578-.686-.358-.43-.506-.996-.506-1.575v-2a.5.5 0 111 0v2c0 .42.108.735.275.936.155.186.402.325.81.325.408 0 .67-.14.838-.333.176-.203.29-.517.29-.928 0-.424.025-1.155.053-1.998l.018-.535c.035-1.071.07-2.259.07-3.25 0-.914-.244-1.527-.601-1.908-.354-.377-.88-.592-1.577-.592-.699 0-1.224.215-1.578.592z" fill="#101010"/></svg>