<svg width="171" height="162" fill="none" xmlns="http://www.w3.org/2000/svg"><path fill-rule="evenodd" clip-rule="evenodd" d="M62.385 64.915a4.007 4.007 0 004.014-4c0-2.21-1.797-4-4.014-4a4.007 4.007 0 00-4.014 4c0 2.209 1.797 4 4.014 4zm0-1a3.007 3.007 0 003.014-3c0-1.654-1.346-3-3.014-3a3.007 3.007 0 00-3.014 3c0 1.653 1.346 3 3.014 3zm36.126-3c0 2.209-1.797 4-4.014 4a4.007 4.007 0 01-4.014-4c0-2.21 1.797-4 4.014-4a4.007 4.007 0 014.014 4zm-1 0c0 1.653-1.346 3-3.014 3a3.007 3.007 0 01-3.014-3c0-1.654 1.346-3 3.014-3a3.007 3.007 0 013.014 3z" fill="#101010"/><path d="M118.082 85.311a.5.5 0 01.5-.5c10.031 0 18.166 8.104 18.166 18.104 0 4.047-1.333 7.784-3.585 10.799a.499.499 0 11-.801-.598 16.988 16.988 0 003.386-10.201c0-9.445-7.684-17.104-17.166-17.104a.5.5 0 01-.5-.5zm-3.532.454a.5.5 0 01-.357.61c-1.75.46-3.39 1.188-4.875 2.138a.5.5 0 11-.539-.842 18.113 18.113 0 015.16-2.263.5.5 0 01.611.357zm-77.253 34.65c-7.481 0-13.546-6.065-13.546-13.546v-8.954a.5.5 0 011 0v8.954c0 6.929 5.617 12.546 12.546 12.546 6.929 0 12.546-5.617 12.546-12.546v-8.954a.5.5 0 111 0v8.954c0 7.481-6.065 13.546-13.546 13.546z" fill="#101010"/><path fill-rule="evenodd" clip-rule="evenodd" d="M81.282 1.5C37.218 1.5 1.5 37.095 1.5 81c0 12.98 3.121 25.231 8.656 36.052L13.66 93.33a4 4 0 013.957-3.415h23.77l4.764-36.58a4.51 4.51 0 014.476-3.92h11.258v-10.5c0-8.56 6.94-15.5 15.5-15.5h2.112c8.56 0 15.5 6.94 15.5 15.5v10.5h11.258a4.509 4.509 0 014.476 3.92l3.385 25.992a24.29 24.29 0 014.466-.412c13.302 0 24.085 10.745 24.085 24a23.84 23.84 0 01-4.82 14.406l6.631 6.774a5.076 5.076 0 013.505.58c8.398-12.585 13.08-27.417 13.08-43.675a79.25 79.25 0 00-3.37-22.937.5.5 0 01.957-.288A80.25 80.25 0 01162.063 81c0 16.469-4.748 31.503-13.267 44.259l.021.018.027.024.029.026.023.022c.045.041.089.083.132.127l18.398 18.333a5.024 5.024 0 010 7.123l-.658.656a5.067 5.067 0 01-7.147 0l-17.589-17.527c-14.805 16.82-36.534 27.439-60.75 27.439-19.063 0-36.584-6.58-50.4-17.585H13.139c-3.663 0-6.47-3.254-5.935-6.877l2.754-18.643a.5.5 0 01-.37-.263C3.783 107.021.5 94.392.5 81 .5 36.54 36.669.5 81.282.5c34.778 0 64.424 21.901 75.805 52.619a.501.501 0 01-.938.347C144.909 23.13 115.63 1.5 81.282 1.5zm12.715 47.915v-10.5c0-8.008-6.491-14.5-14.5-14.5h-2.112c-8.008 0-14.5 6.492-14.5 14.5v10.5h31.112zm-37.02 40.5h-14.58l4.745-36.45a3.51 3.51 0 013.485-3.05h55.628a3.51 3.51 0 013.485 3.05l3.394 26.066c-10.677 2.46-18.636 11.996-18.636 23.384 0 13.002 10.376 23.59 23.327 23.988a9.534 9.534 0 01-8.657 5.512h-42.46L60.933 93.33a4 4 0 00-3.957-3.415zm52.191 43.5c4.442 0 8.178-2.721 9.745-6.502a24.031 24.031 0 0014.045-4.741l6.812 6.992a5.012 5.012 0 001.453 4.09l.1.1c-14.624 16.639-36.101 27.146-60.041 27.146-18.372 0-35.293-6.187-48.779-16.585h28.952c3.663 0 6.47-3.254 5.935-6.877l-.535-3.623h42.313zm34.239-8.984l-6.184-6.318a24.234 24.234 0 01-3.47 3.443l6.282 6.446a4.993 4.993 0 011.188-1.87l.658-.656a5.034 5.034 0 011.526-1.045zm-1.74-21.516c0 12.699-10.332 23-23.085 23-12.752 0-23.084-10.301-23.084-23 0-12.7 10.332-23 23.084-23 12.753 0 23.085 10.3 23.085 23zm.264 23.923l.658-.656a4.063 4.063 0 015.731 0l18.398 18.333a4.03 4.03 0 010 5.711l-.658.656a4.063 4.063 0 01-5.731 0l-18.398-18.334a4.026 4.026 0 010-5.71zM56.977 90.915h-39.36a3 3 0 00-2.968 2.561l-6.456 43.708a5 5 0 004.946 5.731h48.316a5 5 0 004.946-5.731l-6.456-43.708a3 3 0 00-2.968-2.561z" fill="#101010"/><path fill-rule="evenodd" clip-rule="evenodd" d="M143.778 70.52l18.995-17.825a1.654 1.654 0 10-2.274-2.4l-16.771 16.057a1.524 1.524 0 01-2.115-.007l-8.687-8.431a1.659 1.659 0 10-2.287 2.402l10.922 10.206a1.622 1.622 0 002.217-.003zm-13.73-13.44a2.66 2.66 0 013.575.116l8.687 8.431a.524.524 0 00.727.003l16.77-16.056a2.653 2.653 0 113.65 3.85L144.462 71.25a2.62 2.62 0 01-3.583.004l-10.923-10.206a2.658 2.658 0 01.092-3.967z" fill="#F61D2A"/></svg>