<svg xmlns="http://www.w3.org/2000/svg" viewBox="0 0 480 480"><path d="M420 133.3h-13.3V100c0-11-9-20-20-20H360c-11 0-20 9-20 20v53.3h-15.7l-1.5-3.8c-7.1-18-24.1-29.6-43.4-29.6h-.7c-2.8-7.8-10.1-13.3-18.8-13.3-5.2 0-9.8 2-13.3 5.2-3.6-3.2-8.2-5.2-13.3-5.2s-9.8 2-13.3 5.2c-3.6-3.2-8.2-5.2-13.3-5.2-5.2 0-9.8 2-13.3 5.2-3.6-3.2-8.2-5.2-13.3-5.2-11 0-20 9-20 20v26.7h-20V100c0-11-9-20-20-20H93.3c-11 0-20 9-20 20v33.3H60c-11 0-20 9-20 20V220c0 11 9 20 20 20h13.3v33.3c0 11 9 20 20 20H120c11 0 20-9 20-20V220h15.1l5.2 16.4c.2.8.6 1.4 1.1 2.1l17.8 23-11.4 119.8c-.5 4.8 1.2 9.6 4.3 13.1 3.2 3.6 7.8 5.6 12.7 5.6h90.3c4.8 0 9.4-2.1 12.7-5.6 3.2-3.6 4.8-8.3 4.3-13.2l-11.7-116.5c-.2-1.2.3-2.4 1.2-3.2l36.6-31.3c3.2-2.8 5.4-6.3 6.8-10.2h15v53.3c0 11 9 20 20 20h26.7c11 0 20-9 20-20V240H420c11 0 20-9 20-20v-66.7c0-11-9-20-20-20zM73.3 226.7H60c-3.7 0-6.7-3-6.7-6.7v-66.7c0-3.7 3-6.7 6.7-6.7h13.3v80.1zm53.4-66.7v113.3c0 3.7-3 6.7-6.7 6.7H93.3c-3.7 0-6.7-3-6.7-6.7V100c0-3.7 3-6.7 6.7-6.7H120c3.7 0 6.7 3 6.7 6.7v60zm126.6-33.3a6.7 6.7 0 0 1 13.4 0v39.2c0 2.5-1.2 4.8-3 6.2-.2.2-.3.2-.6.4s-.8.3-1.2.4c-.4.2-.8.2-1.3.2s-1.1 0-1.6-.1c-.4-.1-.8-.1-1.2-.2-.5-.2-1-.5-1.5-.8-.2-.2-.6-.3-.8-.6-.5-.4-.8-1-1.2-1.5-.2-.2-.3-.4-.4-.7-.3-.8-.6-1.8-.6-2.7v-39.8zm-26.6 0a6.7 6.7 0 0 1 13.4 0v40a6.7 6.7 0 0 1-13.4 0v-40zm-26.7 0a6.7 6.7 0 0 1 13.4 0v40a6.7 6.7 0 0 1-13.4 0v-40zM173.3 160v-33.3a6.7 6.7 0 0 1 13.4 0v40c0 .9-.3 1.8-.6 2.7-.1.2-.3.4-.4.7-.3.5-.7 1.1-1.2 1.5-.2.2-.6.4-.8.6-.5.3-1 .6-1.5.8-.3.1-.8.2-1.1.2-.5.1-1.1.2-1.6.1-.4 0-.9-.2-1.3-.2-.4-.2-.8-.2-1.2-.4-.2-.1-.4-.3-.6-.4-1.8-1.3-3.1-3.7-3.1-6.2V160zM140 206.7v-40h20c0 7.3 4 13.7 9.8 17.2.3.2.7.4 1.1.6.6.3 1.2.6 1.8.8s1.4.5 2.2.7c.4.1.8.2 1.3.3.2 0 .2.1.4.1.5.1.9 0 1.4.1.7.1 1.2.2 1.9.2.2 0 .3-.1.6-.1.6 0 1.2-.1 1.8-.2.8-.1 1.6-.2 2.3-.4.6-.2 1.1-.3 1.7-.5.8-.3 1.5-.5 2.2-.8.5-.2 1.1-.6 1.6-.8.7-.4 1.3-.8 1.9-1.3.2-.2.6-.3.8-.6.2-.1.2-.2.4-.3l1.2.9c.4.3.8.7 1.2.9.7.4 1.3.8 2 1.1.4.2.8.5 1.3.7.7.3 1.6.5 2.4.8l1.2.3c1.2.2 2.6.4 3.9.4 1.3 0 2.7-.2 3.9-.4l1.2-.3c.8-.2 1.6-.4 2.4-.8.5-.2.9-.4 1.3-.7.7-.3 1.3-.7 1.9-1.1.4-.2.8-.6 1.2-.9l1.2-.9 1.2.9c.4.3.8.7 1.2.9.6.4 1.2.8 1.9 1.1.4.2.9.5 1.3.7.8.3 1.6.5 2.4.8l1.2.3c1.2.2 2.6.4 3.9.4s2.7-.2 3.9-.4l1.2-.3c.8-.2 1.7-.4 2.4-.8.5-.2.9-.4 1.3-.7.7-.3 1.3-.7 2-1.1.4-.2.8-.6 1.2-.9l1.2-.9c.2.1.2.2.4.3.2.2.6.3.8.6.6.5 1.2.9 1.9 1.3.5.3 1 .6 1.6.8.8.3 1.5.7 2.3.9.5.2 1.1.3 1.6.5.8.2 1.7.3 2.5.4.6.1 1.1.2 1.7.2.2 0 .4.1.6.1.7 0 1.3-.2 1.9-.2.4 0 .9 0 1.3-.1.2 0 .3-.1.4-.1l.9-.3c.8-.2 1.7-.4 2.5-.7.4-.2.8-.3 1.2-.6.5-.3.9-.5 1.3-.8 4.8-2.8 8.5-7.4 9.8-13.1.3.7.5 1.5.5 2.4v23.9l-9.5 9.4H140v.1zm173.3 5.5c0 3.1-1.3 5.9-3.7 7.9L273 251.4c-4.2 3.7-6.4 9.1-5.9 14.7l11.7 116.5c.2 1.4-.5 2.4-.9 2.9-.4.4-1.3 1.2-2.7 1.2h-90.4c-1.4 0-2.3-.8-2.8-1.2-.4-.5-1.1-1.4-1-2.9l11.7-122.4c.2-1.7-.3-3.3-1.3-4.8l-18.7-24.2-3.6-11.2h101.5c3.5 0 6.9-1.4 9.4-3.9l9.4-9.4c2.5-2.5 3.9-5.8 3.9-9.4v-23.9c0-8.7-5.6-16-13.3-18.8v-21.2c13.6.2 25.4 8.5 30.4 21.2l2.5 6.3c.2.5.4 1.1.4 1.7v49.6zm26.7-5.5h-13.3v-40H340v40zm53.3-66.7v133.3c0 3.7-3 6.7-6.7 6.7H360c-3.7 0-6.7-3-6.7-6.7V100c0-3.7 3-6.7 6.7-6.7h26.7c3.7 0 6.7 3 6.7 6.7v40h-.1zm33.4 80c0 3.7-3 6.7-6.7 6.7h-13.3v-80H420c3.7 0 6.7 3 6.7 6.7V220z"/></svg>