<svg width="65" height="16" fill="none" xmlns="http://www.w3.org/2000/svg"><path d="M10.42 8.268c.156-.052.286-.104.39-.156a8.047 8.047 0 0 0 2.755-1.56c.91-.806 1.585-1.742 1.793-2.99.26-1.56-.624-2.99-2.105-3.355-.884-.208-1.715-.104-2.495.338-.312.183-.546.469-.78.729-.156.156-.156.338 0 .546a3.59 3.59 0 0 1 .572 2.522c-.104.728-.468 1.3-1.117 1.664a5.096 5.096 0 0 0-.156-.364L7.406.884C7.328.676 7.224.57 6.99.57H2.312c-.13.053-.234.079-.416.105 1.118 2.236 2.21 4.394 3.3 6.604-1.039.312-1.974.754-2.806 1.352-.935.676-1.715 1.508-2.157 2.626-.753 1.924.338 3.874 2.287 4.186 1.118.182 2.417-.416 2.989-1.404.13-.234.182-.442 0-.702-.338-.468-.468-1.04-.494-1.612 0-.884.364-1.56 1.091-2.08.052.13.104.234.156.338l1.95 4.758c.077.208.207.286.441.286h4.964c.103 0 .207-.026.363-.026-1.221-2.262-2.39-4.498-3.56-6.734zm25.883-1.456v.208c-.311 2.548-.623 5.122-.961 7.67-.026.26.026.364.286.338h3.118c.702 0 .598.156.676-.624.26-1.976.494-3.926.727-5.902.13-1.092.26-2.21.416-3.302.026-.182 0-.286-.182-.312a6.586 6.586 0 0 1-.701-.13 20.412 20.412 0 0 0-7.64.104c-.235.052-.312.156-.338.39-.156.962-.286 1.924-.494 2.886-.39 1.924-1.118 3.666-2.729 4.888-.104.078-.156.286-.156.442.078.884.832 1.768 1.715 1.924 1.118.234 2.105-.052 2.833-.962.39-.494.728-1.092.91-1.69.337-1.196.545-2.392.753-3.614.13-.754.156-1.534.234-2.34.494.026.988.026 1.533.026zm12.942.312a3.804 3.804 0 0 0-1.325-.182c-.65.026-1.326.13-2.002.182-.025-.208.105-.26.338-.312.78-.156 1.586-.286 2.34-.52 1.117-.338 2.104-.884 2.806-1.846.494-.676.727-1.43.52-2.262C51.636.936 50.466.05 49.063-.001c-1.663-.052-3.067.598-4.262 1.743-1.195 1.17-1.975 2.574-2.547 4.134-.597 1.742-.961 3.51-.727 5.356.26 1.95 1.247 3.38 3.196 3.978.832.26 1.69.234 2.573.078 2.26-.416 4.21-2.132 4.314-4.784.104-1.69-.728-2.938-2.365-3.38zm-2.001-3.822c.13-.26.416-.494.702-.598.39-.156.675.104.597.52-.026.208-.13.442-.234.624-.441.65-1.091 1.066-1.793 1.43-.026-.026-.078-.052-.104-.078.26-.65.52-1.3.832-1.898zm.104 9.256a1.51 1.51 0 0 1-.494.416c-.442.26-.961.13-1.17-.338a3.531 3.531 0 0 1-.311-1.248c-.026-.676.078-1.378.104-2.054.026-.234.104-.364.364-.364.155 0 .337-.052.415-.052.962-.026 1.534.416 1.663 1.274.157.884-.077 1.664-.571 2.366zm-19.672-7.54c.026-.234-.026-.286-.234-.286h-3.639c-.233 0-.311.078-.337.312a10.43 10.43 0 0 1-.156 1.118c-.052-.078-.078-.104-.104-.13-.78-1.378-1.897-1.924-3.43-1.612-1.404.286-2.365 1.17-3.041 2.392-.832 1.508-1.117 3.146-.857 4.862.13.91.415 1.742.961 2.47.754.988 1.871 1.378 3.067 1.066 1.039-.286 1.767-.962 2.416-1.794.078-.104.156-.208.26-.338.182 1.482 1.144 2.314 2.599 2.236a3.082 3.082 0 0 0 2.365-1.248c.156-.182.182-.364-.078-.494a1.07 1.07 0 0 1-.598-.91c-.026-.728-.052-1.456.026-2.158.208-1.846.52-3.666.78-5.486zm-5.198 6.526a2.19 2.19 0 0 1-.65.728c-.597.416-1.299.208-1.585-.468a2.765 2.765 0 0 1-.234-.91 5.337 5.337 0 0 1 .416-2.626c.156-.338.364-.65.624-.91.598-.572 1.43-.39 1.741.364.182.442.234.91.338 1.378-.104.884-.234 1.716-.65 2.444zM64.5 5.07c.052-.26-.026-.338-.285-.338h-3.56c-.26 0-.365.104-.39.364-.027.338-.079.676-.13 1.014-.026 0-.053 0-.053-.026-.026-.052-.077-.104-.103-.156-.624-1.144-1.612-1.664-2.911-1.56-1.43.104-2.495.858-3.248 2.028-1.04 1.56-1.352 3.302-1.144 5.148.104.936.39 1.846.988 2.626.805.988 1.819 1.326 3.04 1.014 1.04-.26 1.767-.962 2.417-1.768.078-.078.13-.182.234-.312.286 1.586 1.247 2.34 2.755 2.184.883-.078 1.637-.494 2.208-1.222.13-.182.234-.364-.026-.52-.415-.234-.623-.624-.65-1.066-.025-.624-.051-1.248.027-1.872.26-1.82.545-3.666.831-5.538zm-5.197 6.422a2.198 2.198 0 0 1-.676.78c-.597.442-1.325.234-1.585-.468-.156-.416-.208-.884-.312-1.352.078-.78.182-1.508.52-2.184a3.28 3.28 0 0 1 .702-.962c.545-.468 1.299-.312 1.61.364.157.338.26.754.287 1.144.078.936-.078 1.846-.546 2.678z" fill="#842325"/></svg>