<svg width="65" height="16" fill="none" xmlns="http://www.w3.org/2000/svg"><g clip-path="url(#clip0)"><path d="M10.976 8.41c.156-.052.286-.104.39-.156a8.038 8.038 0 0 0 2.752-1.56c.908-.806 1.583-1.742 1.79-2.99.26-1.56-.622-2.99-2.102-3.354-.883-.208-1.713-.104-2.492.338-.312.182-.545.468-.779.728-.156.156-.156.338 0 .546.493.754.701 1.612.571 2.522-.104.728-.467 1.3-1.116 1.664a5.098 5.098 0 0 0-.156-.364L7.965 1.026C7.887.818 7.783.714 7.55.714H2.877a1.62 1.62 0 0 1-.415.104c1.116 2.236 2.206 4.394 3.296 6.604-1.038.312-1.973.754-2.803 1.352C2.02 9.45 1.24 10.282.8 11.4c-.753 1.924.338 3.874 2.285 4.186 1.116.182 2.414-.416 2.985-1.404.13-.234.182-.442 0-.702-.338-.468-.467-1.04-.493-1.612 0-.884.363-1.56 1.09-2.08.052.13.104.234.156.338l1.947 4.758c.078.208.207.286.441.286h4.958c.104 0 .208-.026.364-.026a572.876 572.876 0 0 1-3.557-6.734zm25.857-1.456v.208c-.312 2.548-.623 5.122-.961 7.67-.026.26.026.364.286.338h3.115c.7 0 .597.156.675-.624.26-1.976.493-3.926.727-5.902.13-1.092.26-2.21.415-3.302.026-.182 0-.286-.182-.312a6.614 6.614 0 0 1-.7-.13 20.37 20.37 0 0 0-7.633.104c-.233.052-.311.156-.337.39-.156.962-.286 1.924-.494 2.886-.389 1.924-1.116 3.666-2.725 4.888-.104.078-.156.286-.156.442.078.884.83 1.768 1.713 1.924 1.116.234 2.103-.052 2.83-.962.39-.494.727-1.092.908-1.69.338-1.196.546-2.392.753-3.614.13-.754.156-1.534.234-2.34.493.026.986.026 1.532.026zm12.928.312a3.796 3.796 0 0 0-1.324-.182c-.65.026-1.324.13-2 .182-.025-.208.105-.26.338-.312.779-.156 1.584-.286 2.337-.52 1.116-.338 2.102-.884 2.803-1.846.493-.676.727-1.43.52-2.262C52.148 1.078 50.98.194 49.578.142 47.917.09 46.516.74 45.32 1.884c-1.194 1.17-1.972 2.574-2.544 4.134-.597 1.742-.96 3.51-.727 5.356.26 1.95 1.247 3.38 3.194 3.978.83.26 1.687.234 2.57.078 2.258-.416 4.205-2.132 4.309-4.784.104-1.69-.727-2.938-2.362-3.38zm-2-3.822c.13-.26.416-.494.702-.598.389-.156.675.104.597.52-.026.208-.13.442-.234.624-.441.65-1.09 1.066-1.791 1.43-.026-.026-.078-.052-.104-.078.26-.65.52-1.3.83-1.898zm.104 9.256c-.13.182-.311.312-.493.416-.441.26-.96.13-1.168-.338a3.532 3.532 0 0 1-.311-1.248c-.026-.676.077-1.378.103-2.054.026-.234.104-.364.364-.364.156 0 .337-.052.415-.052.96-.026 1.532.416 1.662 1.274.155.884-.078 1.664-.572 2.366zM28.214 5.16c.026-.234-.026-.286-.234-.286h-3.634c-.234 0-.312.078-.338.312-.026.338-.078.702-.155 1.118a.709.709 0 0 0-.104-.13c-.78-1.378-1.895-1.924-3.427-1.612-1.402.286-2.362 1.17-3.037 2.392-.831 1.508-1.117 3.146-.857 4.862.13.91.415 1.742.96 2.47.753.988 1.87 1.378 3.064 1.066 1.038-.286 1.765-.962 2.414-1.794.078-.104.156-.208.26-.338.181 1.482 1.142 2.314 2.596 2.236a3.077 3.077 0 0 0 2.362-1.248c.156-.182.182-.364-.078-.494a1.07 1.07 0 0 1-.597-.91c-.026-.728-.052-1.456.026-2.158.208-1.846.52-3.666.779-5.486zm-5.192 6.526a2.19 2.19 0 0 1-.65.728c-.596.416-1.297.208-1.583-.468a2.77 2.77 0 0 1-.233-.91 5.344 5.344 0 0 1 .415-2.626 3.15 3.15 0 0 1 .623-.91c.597-.572 1.428-.39 1.74.364.181.442.233.91.337 1.378-.104.884-.234 1.716-.65 2.444zm41.977-6.474c.052-.26-.026-.338-.285-.338h-3.557c-.26 0-.363.104-.39.364-.025.338-.077.676-.13 1.014-.025 0-.051 0-.051-.026-.026-.052-.078-.104-.104-.156-.623-1.144-1.61-1.664-2.907-1.56-1.428.104-2.493.858-3.245 2.028-1.039 1.56-1.35 3.302-1.143 5.148.104.936.39 1.846.987 2.626.804.988 1.817 1.326 3.037 1.014 1.038-.26 1.765-.962 2.414-1.768.078-.078.13-.182.234-.312.286 1.586 1.246 2.34 2.752 2.184.882-.078 1.635-.494 2.206-1.222.13-.182.234-.364-.026-.52-.415-.234-.623-.624-.649-1.066-.026-.624-.051-1.248.026-1.872.26-1.82.545-3.666.831-5.538zm-5.192 6.422a2.198 2.198 0 0 1-.675.78c-.597.442-1.324.234-1.583-.468-.156-.416-.208-.884-.312-1.352.078-.78.182-1.508.52-2.184.181-.364.415-.702.7-.962.545-.468 1.298-.312 1.61.364.155.338.26.754.285 1.144.078.936-.078 1.846-.545 2.678z" fill="#842325"/></g><defs><clipPath id="clip0"><path fill="#fff" transform="translate(.567 .142)" d="M0 0h64.433v15.496H0z"/></clipPath></defs></svg>