<svg width="32" height="32" xmlns="http://www.w3.org/2000/svg"><path d="M28.526 3.455C21.166 6.5 12.052 15.104 9.196 19.926m-3.023.754a2 2 0 0 1 2.732-.733l.181.105a2 2 0 0 1 .732 2.732l-2.721 4.713a2 2 0 0 1-2.732.732l-.182-.104a2 2 0 0 1-.732-2.732l2.722-4.714z" fill="none"/><path d="M24.029 26.94a.4.4 0 0 0-.8 0h.8zm3.504-7.794l-.4.02.4-.02zM26.188 4.45c-.152.912.206 1.783.552 2.586.36.838.73 1.646.798 2.567l.798-.06c-.08-1.08-.516-2.021-.861-2.823-.36-.835-.605-1.493-.498-2.139l-.789-.131zm1.35 5.153c.061.826-.345 1.353-.89 2.05-.534.685-1.17 1.503-1.17 2.812h.8c0-1.011.469-1.638 1-2.319.522-.668 1.145-1.427 1.058-2.602l-.798.059zm-1.355 14.316v3.021h.8v-3.02h-.8zm0 3.021c0 .343-.116.623-.298.815-.18.19-.447.315-.798.315v.8c.555 0 1.036-.205 1.377-.563.34-.356.519-.841.519-1.367h-.8zm-1.096 1.13c-.363 0-.616-.115-.778-.287-.165-.173-.28-.448-.28-.843h-.8c0 .55.162 1.04.5 1.395.34.357.817.535 1.358.535v-.8zm.392-13.605c0 1.271.437 2.036.853 2.699.41.652.76 1.156.801 2.001l.8-.038c-.053-1.087-.53-1.764-.924-2.39-.387-.615-.73-1.224-.73-2.272h-.8zm1.654 4.7c.049 1.018-.17 1.741-.413 2.436-.243.691-.537 1.41-.537 2.318h.8c0-.742.233-1.316.491-2.053.258-.731.514-1.57.458-2.74l-.799.04z"/><circle cx="14.153" cy="18.947" r="2.935" fill="none"/><circle cx="14.164" cy="18.959" r=".5" fill="none"/><path d="M25.28 23.529h2.712M7.995 6.032c-.66-.716-1.504-2.51.396-3.957 1.13 1.583.207 3.298-.396 3.957zm0 0c1.493 1.945 3.863.81 4.862 0-.942-.678-3.234-1.628-4.862 0zm0 0c-3.134-.104-5.002.992-5.922 2.695m5.922-2.695c.557 2.563-.545 4.809-2.633 5.871m-3.29-3.176c-.573 1.063-.778 2.36-.692 3.75 1.533.214 2.892-.019 3.982-.574m-3.29-3.176c1.049.02 3.174.682 3.29 3.176" fill="none"/></svg>