<svg width="32" height="32" xmlns="http://www.w3.org/2000/svg"><path fill-rule="evenodd" clip-rule="evenodd" d="M8.49 1.604a.4.4 0 01.265.164c.644.903.702 1.851.516 2.651a3.923 3.923 0 01-.116.402c.545-.17 1.1-.189 1.62-.12a5.48 5.48 0 012.355.939.4.4 0 01.018.635c-.536.436-1.442.964-2.436 1.12-.704.11-1.46.033-2.14-.394.098 2.268-1.046 4.21-2.99 5.202-1.17.597-2.614.838-4.218.615a.4.4 0 01-.344-.372c-.09-1.443.12-2.823.74-3.971.926-1.72 2.715-2.824 5.504-2.912a3.212 3.212 0 01-.39-1.275c-.068-.863.262-1.804 1.313-2.606a.4.4 0 01.302-.078zm-.788 4.754c-2.489-.017-4.035.78-4.915 1.983.49.098 1.047.301 1.55.658.647.46 1.192 1.166 1.39 2.193 1.511-1.013 2.31-2.787 1.975-4.834zM4.98 11.604c-.111-.967-.572-1.572-1.107-1.952a3.343 3.343 0 00-1.525-.571c-.403.854-.576 1.872-.546 2.983 1.213.118 2.288-.063 3.178-.46zM8.596 6c.643-.496 1.374-.6 2.073-.507.56.075 1.087.275 1.502.494-.442.273-1.003.525-1.583.616-.692.11-1.398-.01-1.992-.603zm-.56-.7c.184-.286.361-.654.456-1.062a2.405 2.405 0 00-.161-1.626c-.561.557-.698 1.123-.66 1.613.031.402.183.777.365 1.076z"/><path d="M14.15 19.65a.7.7 0 100-1.4.7.7 0 000 1.4z"/><path fill-rule="evenodd" clip-rule="evenodd" d="M28.866 3.346a.4.4 0 01-.216.523c-.566.235-1.142.504-1.726.802-.067.615.17 1.247.51 2.039l.073.17c.33.766.711 1.651.785 2.658.084 1.143-.5 1.893-1.01 2.55-.55.706-1.04 1.338-1.04 2.38 0 1.05.342 1.662.728 2.278l.08.129.002.002c.374.592.789 1.25.837 2.262.056 1.172-.2 2.01-.456 2.744l-.043.122-.032.092a9.451 9.451 0 00-.315 1.003H28a.4.4 0 110 .8h-1.056c-.008.684-.006 1.367-.003 2.051l.002 1.016c0 .526-.178 1.011-.516 1.368-.34.36-.82.565-1.374.565-.54 0-1.016-.178-1.355-.537-.337-.356-.498-.846-.498-1.396a.4.4 0 01.8 0c0 .396.115.672.28.846.161.172.412.287.773.287.348 0 .613-.126.793-.315.182-.192.297-.473.297-.818 0-.338 0-.677-.002-1.015-.002-.684-.004-1.368.003-2.052H25.3a.4.4 0 010-.8h.926c.088-.456.235-.868.376-1.265l.076-.216c.243-.697.46-1.421.412-2.442-.038-.797-.349-1.292-.726-1.891l-.072-.115c-.415-.664-.85-1.43-.85-2.703 0-1.31.632-2.13 1.165-2.815.542-.699.948-1.227.887-2.056-.064-.868-.394-1.636-.731-2.422l-.065-.15c-.26-.609-.527-1.255-.577-1.929-2.914 1.6-5.966 3.872-8.696 6.286a57.852 57.852 0 00-4.534 4.463 3.35 3.35 0 11-2.02 2.413 21.24 21.24 0 00-1.198 1.727 2.4 2.4 0 01.483 2.994l-2.7 4.677c-.693 1.2-2.201 1.5-3.365.828-1.163-.672-1.658-2.128-.965-3.328l2.7-4.677a2.4 2.4 0 013.178-.933c1.507-2.444 4.446-5.716 7.891-8.763 3.566-3.154 7.716-6.103 11.448-7.653a.4.4 0 01.523.216zM6.52 20.88l-2.7 4.677c-.475.822-.113 1.782.672 2.235.785.454 1.798.287 2.272-.535l2.7-4.677c.475-.822.113-1.782-.672-2.235-.785-.454-1.797-.287-2.272.535zm7.631.621a2.55 2.55 0 100-5.1 2.55 2.55 0 000 5.1z"/></svg>