<svg width="32" height="32" stroke-width="0" xmlns="http://www.w3.org/2000/svg"><path d="M26.028 10.5a3.454 3.454 0 00-.985.155V7.391a4.512 4.512 0 00-1.263-3.113A4.174 4.174 0 0020.772 3h-9.497a4.174 4.174 0 00-3.008 1.278 4.512 4.512 0 00-1.263 3.113v3.28a3.194 3.194 0 00-.986-.163 2.92 2.92 0 00-1.158.24 3.008 3.008 0 00-.981.685 3.15 3.15 0 00-.654 1.023 3.323 3.323 0 00.114 2.663c.222.451.543.842.938 1.14v8.792c0 .109.041.213.115.29.074.077.174.12.279.12h1.371v1.712a1.684 1.684 0 00.37 1.223c.138.167.306.304.496.402.19.099.396.156.608.17.859 0 1.434-.722 1.434-1.795v-1.712h14.1v1.745a1.678 1.678 0 00.37 1.222c.137.168.306.305.495.403.19.098.397.156.608.169.86 0 1.434-.72 1.434-1.794v-1.712h1.372a.387.387 0 00.278-.12.418.418 0 00.116-.29v-8.793c.396-.296.718-.686.94-1.138.222-.451.337-.951.337-1.458a3.247 3.247 0 00-.21-1.207 3.153 3.153 0 00-.638-1.032 3.019 3.019 0 00-.97-.698 2.92 2.92 0 00-1.154-.258zM7.752 7.39c.004-.475.099-.945.279-1.383.18-.437.44-.833.768-1.165a3.457 3.457 0 011.14-.77 3.371 3.371 0 011.336-.254h9.536a3.4 3.4 0 012.451 1.039 3.676 3.676 0 011.032 2.533v3.633a3.007 3.007 0 00-.928 1.158c-.211.461-.306.97-.277 1.48v2.63H8.959v-2.63a3.168 3.168 0 00-.286-1.469 3.04 3.04 0 00-.92-1.153V7.391zm1.206 9.72H23.05v2.4H8.96v-2.4zm-3.893-1.073a.435.435 0 00-.05-.203.403.403 0 00-.14-.15 2.33 2.33 0 01-.798-.864 2.442 2.442 0 01-.289-1.16 2.368 2.368 0 01.631-1.64 2.19 2.19 0 012.71-.407.476.476 0 00.111.057c.309.218.557.517.72.866.164.35.236.737.21 1.125v10.98H5.08l-.015-8.604zm3.105 9.456v1.712c0 .23-.047.975-.646.975-.6 0-.686-.524-.686-.975v-1.712h1.348s-.016-.008-.016 0zm.788-.82V20.33H23.05v4.312l-14.09.033zm16.211.82v1.712c0 .23-.047.975-.646.975s-.686-.524-.686-.975v-1.712h1.348s-.016-.008-.016 0zm1.963-9.809a.402.402 0 00-.14.15.424.424 0 00-.05.203v8.604h-3.105v-10.98a2.2 2.2 0 01.1-.92 2.15 2.15 0 01.466-.787c.21-.224.463-.397.744-.507a1.98 1.98 0 01.881-.13 2.19 2.19 0 011.56.703c.41.439.638 1.029.631 1.64.001.407-.099.806-.289 1.16a2.32 2.32 0 01-.798.864z"/></svg>