<svg width="32" height="32" xmlns="http://www.w3.org/2000/svg"><path fill-rule="evenodd" clip-rule="evenodd" d="M7.552 8.844c-1.7.03-2.967 1.559-2.967 3.255v9.381h1v-1.71H16.19v2.341a5.5 5.5 0 01-5.5 5.5H9.102v1h1.588a6.5 6.5 0 006.5-6.5v-4.223c0-3.154-2.523-7.669-8.644-8.918a6.375 6.375 0 016.362-5.963h1.552a7.928 7.928 0 017.928 7.927v10.781a1.422 1.422 0 00-.921 1.33v1.714a2.803 2.803 0 00-2.638 2.365c-.71.203-1.23.857-1.23 1.632v1.237h10.486v-1.237c0-.775-.52-1.43-1.23-1.632a2.804 2.804 0 00-2.454-2.35v-1.636c0-.66-.423-1.222-1.013-1.429V10.934a8.928 8.928 0 00-8.928-8.927h-1.552a7.376 7.376 0 00-7.356 6.837zm17.849 15.912v-1.618a.513.513 0 00-.513-.513.421.421 0 00-.421.42v1.711h.934zm2.416 2.303a1.803 1.803 0 00-1.732-1.303h-2.487c-.822 0-1.515.55-1.732 1.303h5.951zm-11.627-8.29v-.88c0-2.724-2.273-6.973-8.243-8.015-1.244-.217-2.362.834-2.362 2.225v6.67H16.19zm5.106 9.29a.697.697 0 00-.698.697v.237h8.487v-.237a.697.697 0 00-.697-.697h-7.092z"/><path fill-rule="evenodd" clip-rule="evenodd" d="M6.652 28.493a3.237 3.237 0 100-6.473 3.237 3.237 0 000 6.473zm0 1a4.237 4.237 0 100-8.473 4.237 4.237 0 000 8.473z"/><path fill-rule="evenodd" clip-rule="evenodd" d="M6.652 25.546a.29.29 0 100-.58.29.29 0 000 .58zm0 1a1.29 1.29 0 100-2.58 1.29 1.29 0 000 2.58z"/></svg>