<svg version="1.1" id="Capa_1" xmlns="http://www.w3.org/2000/svg" x="0" y="0" viewBox="0 0 480 480" xml:space="preserve"><style>.st0{fill:#f61d2a}</style><path class="st0" d="M431.7 73.9H48.5c-11.8 0-21.3 9.5-21.3 21.3V379c0 11.8 9.5 21.3 21.3 21.3h21.3v21.3c0 3.9 3.2 7.1 7.1 7.1h42.6c3.9 0 7.1-3.2 7.1-7.1v-21.3h227.1v21.3c0 3.9 3.2 7.1 7.1 7.1h42.6c3.9 0 7.1-3.2 7.1-7.1v-21.3h21.3c11.8 0 21.3-9.5 21.3-21.3V95.2c-.1-11.8-9.6-21.3-21.4-21.3zM112.4 414.5H84v-14.2h28.4v14.2zm283.8 0h-28.4v-14.2h28.4v14.2zm42.6-35.5c0 3.9-3.2 7.1-7.1 7.1H48.5c-3.9 0-7.1-3.2-7.1-7.1V95.2c0-3.9 3.2-7.1 7.1-7.1h383.2c3.9 0 7.1 3.2 7.1 7.1V379z"/><path class="st0" d="M346.5 116.5H91.1c-11.8 0-21.3 9.5-21.3 21.3v198.7c0 11.8 9.5 21.3 21.3 21.3h255.5c11.8 0 21.3-9.5 21.3-21.3V137.7c-.1-11.7-9.6-21.2-21.4-21.2zm7.1 220c0 3.9-3.2 7.1-7.1 7.1H91.1c-3.9 0-7.1-3.2-7.1-7.1V137.7c0-3.9 3.2-7.1 7.1-7.1h255.5c3.9 0 7.1 3.2 7.1 7.1v198.8zM403.3 159c-11.8 0-21.3 9.5-21.3 21.3s9.5 21.3 21.3 21.3 21.3-9.5 21.3-21.3c0-11.7-9.5-21.3-21.3-21.3zm0 28.4c-3.9 0-7.1-3.2-7.1-7.1 0-3.9 3.2-7.1 7.1-7.1s7.1 3.2 7.1 7.1c0 3.9-3.2 7.1-7.1 7.1zm0 28.4c-11.8 0-21.3 9.5-21.3 21.3s9.5 21.3 21.3 21.3 21.3-9.5 21.3-21.3-9.5-21.3-21.3-21.3zm0 28.4c-3.9 0-7.1-3.2-7.1-7.1 0-3.9 3.2-7.1 7.1-7.1s7.1 3.2 7.1 7.1c0 3.9-3.2 7.1-7.1 7.1zm0 28.4c-11.8 0-21.3 9.5-21.3 21.3s9.5 21.3 21.3 21.3 21.3-9.5 21.3-21.3-9.5-21.3-21.3-21.3zm0 28.4c-3.9 0-7.1-3.2-7.1-7.1s3.2-7.1 7.1-7.1 7.1 3.2 7.1 7.1-3.2 7.1-7.1 7.1zM382 130.6h42.6v14.2H382v-14.2z"/><path class="st0" d="M332.4 144.8H304V159h21.3v21.3h14.2v-28.4c0-3.9-3.2-7.1-7.1-7.1zm-7.1 49.7h14.2v14.2h-14.2v-14.2zm-212.9 78.1h16.9l12.2 24.5c1.2 2.4 3.7 3.9 6.4 3.9h141.9c2.7 0 5.2-1.5 6.4-3.9l12.2-24.5h16.9v-14.2H112.4v14.2zm173 14.2H152.2l-7.1-14.2h147.4l-7.1 14.2zm-77.9-42.6h14.2c-.1-2.8 1-5.6 2.9-7.7 7.5-9.3 7.5-22.6 0-31.9-3.9-4.4-3.9-11 0-15.4 3.7-4.5 5.7-10.2 5.6-16H216c.1 2.8-1 5.6-2.9 7.7-7.4 9.3-7.4 22.6 0 31.9 3.9 4.4 3.9 11 0 15.4-3.7 4.5-5.7 10.2-5.6 16zm42.5 0h14.2c-.1-2.8 1-5.6 2.9-7.7 7.5-9.3 7.5-22.6 0-31.9-3.9-4.4-3.9-11 0-15.4 3.7-4.5 5.7-10.2 5.6-16h-14.2c.1 2.8-1 5.6-2.9 7.7-7.4 9.3-7.4 22.6 0 31.9 3.9 4.4 3.9 11 0 15.4-3.7 4.5-5.6 10.2-5.6 16zm-85.1 0h14.2c-.1-2.8 1-5.6 2.9-7.7 7.5-9.3 7.5-22.6 0-31.9-3.9-4.4-3.9-11 0-15.4 3.7-4.5 5.7-10.2 5.6-16h-14.2c.1 2.8-1 5.6-2.9 7.7-7.4 9.3-7.4 22.6 0 31.9 3.9 4.4 3.9 11 0 15.4-3.7 4.5-5.7 10.2-5.6 16z"/></svg>