<svg width="32" height="32" fill="none" xmlns="http://www.w3.org/2000/svg"><path d="M23.331 13.424c0-4.876-3.758-7.123-7.313-7.196-3.556-.072-7.313 2.32-7.313 7.196 0 4.875 4.063 6.5 7.313 6.5s7.313-1.625 7.313-6.5z" stroke="#101010" stroke-width=".75"/><path d="M8.336 1.643l-.019.374h.019v-.374zm-4.47 5.282l.374.038-.373-.038zM5.098 10.5l-.088.364.088-.364zm5.013-8.376a.375.375 0 1 0-.67.338l.67-.338zm2.32 4.676c-.77-2.212-1.417-3.582-2.047-4.402-.319-.415-.644-.703-.992-.884a2.224 2.224 0 0 0-1.056-.247v.75c.257 0 .485.045.709.162.227.118.473.323.744.676.552.718 1.167 1.989 1.934 4.192l.708-.247zM9.867 9.967c-.151-.226-.403-.502-.614-.754-.227-.27-.44-.547-.582-.83l-.67.335c.183.366.444.699.677.977.25.297.445.508.565.688l.624-.416zm-6.374-3.08c-.057.566-.114 1.421.04 2.19.153.765.546 1.563 1.476 1.788l.176-.729c-.505-.122-.785-.55-.917-1.206-.13-.652-.085-1.411-.028-1.967l-.747-.076zm1.516 3.978c.815.198 1.622-.191 2.304-.786.692-.604 1.33-1.479 1.84-2.428.51-.951.905-2 1.099-2.964.19-.948.2-1.885-.142-2.562l-.67.338c.228.448.257 1.178.077 2.076-.177.882-.544 1.86-1.025 2.757-.483.899-1.069 1.692-1.672 2.218-.612.534-1.172.735-1.635.622l-.176.73zm3.346-9.597c-1.524-.076-2.702.937-3.493 2.097-.796 1.167-1.273 2.58-1.369 3.522l.747.076c.082-.81.511-2.105 1.241-3.175.734-1.076 1.701-1.827 2.836-1.77l.038-.75zm15.345.375l.018.374H23.7v-.374zm4.47 5.281l-.374.038.373-.038zm-1.231 3.577l.088.364-.088-.364zm-5.013-8.377a.375.375 0 1 1 .669.339l-.67-.339zm-2.322 4.677c.771-2.213 1.418-3.582 2.047-4.402.32-.415.644-.703.993-.885a2.223 2.223 0 0 1 1.056-.246v.75a1.48 1.48 0 0 0-.71.161c-.226.119-.472.324-.744.677-.551.717-1.166 1.989-1.933 4.192l-.709-.247zm2.565 3.166c.15-.226.402-.503.614-.755.227-.27.44-.547.581-.83l.671.335c-.183.367-.444.7-.678.978-.249.296-.444.508-.564.688l-.624-.416zm6.373-3.08c.058.566.115 1.42-.04 2.19-.153.765-.545 1.563-1.475 1.788l-.177-.729c.506-.122.786-.551.917-1.207.131-.651.086-1.41.029-1.967l.746-.076zm-1.515 3.978c-.816.198-1.623-.191-2.305-.786-.692-.604-1.329-1.479-1.839-2.428-.51-.952-.906-2-1.1-2.965-.19-.948-.2-1.884.143-2.562l.669.339c-.227.448-.256 1.177-.076 2.076.177.882.544 1.86 1.025 2.757.483.899 1.069 1.692 1.671 2.217.613.535 1.172.735 1.635.623l.177.729zM23.68 1.268c1.523-.076 2.702.937 3.493 2.097.796 1.166 1.272 2.58 1.368 3.521l-.746.076c-.082-.81-.512-2.105-1.241-3.174-.735-1.076-1.701-1.828-2.837-1.77l-.037-.75z" fill="#101010"/><path d="M11.858 19.035c-.628.526-1.605 2.498-1.605 3.764m9.916-3.764c.627.526 1.729 2.675 1.604 3.764m-8.647 2.412c.496 1.667-.193 3.172-1.31 3.504-1.115.332-2.515-.551-3.01-2.218-.497-1.667.192-3.171 1.308-3.503 1.116-.332 2.516.55 3.012 2.217zm5.784 0c-.496 1.667.193 3.172 1.309 3.504 1.116.332 2.515-.551 3.011-2.218.497-1.667-.193-3.171-1.309-3.503-1.116-.332-2.515.55-3.011 2.217z" stroke="#101010" stroke-width=".75"/><path d="M11.7 19.334L8.556 17.52a1.472 1.472 0 0 0-2.011.539v0a1.472 1.472 0 0 0 .538 2.011l3.145 1.816m10.108-2.552l3.144-1.815a1.472 1.472 0 0 1 2.011.539v0a1.472 1.472 0 0 1-.538 2.011l-3.145 1.816m-8.988 5.961c1.274.959 4.905.9 6.396 0" stroke="#101010" stroke-width=".75"/><circle cx="13.013" cy="11.53" r=".916" stroke="#101010" stroke-width=".75"/><circle cx="19.022" cy="11.53" r=".916" stroke="#101010" stroke-width=".75"/><path d="M14.251 15.858c.27.773.991 1.134 1.767 1.134.775 0 1.53-.522 1.767-1.134" stroke="#101010" stroke-width=".75" stroke-linecap="round" stroke-linejoin="round"/><path fill-rule="evenodd" clip-rule="evenodd" d="M14.853 13.594a.406.406 0 0 1 .362-.222h1.368a.406.406 0 0 1 .318.659l-.714.898a.406.406 0 0 1-.647-.013l-.653-.899a.406.406 0 0 1-.034-.423z" fill="#101010"/></svg>