<svg width="32" height="32" xmlns="http://www.w3.org/2000/svg"><path fill-rule="evenodd" clip-rule="evenodd" d="M23.69 2.043a2.245 2.245 0 00-1.058.25c-.352.183-.68.474-1 .89-.62.807-1.255 2.143-2.005 4.28a8.836 8.836 0 00-3.6-.834 8.072 8.072 0 00-3.637.779c-.742-2.105-1.371-3.424-1.986-4.224-.32-.417-.648-.708-1-.891a2.245 2.245 0 00-1.058-.25C6.815 1.97 5.633 2.99 4.841 4.15c-.798 1.17-1.276 2.587-1.372 3.533-.058.567-.116 1.425.04 2.198.154.769.55 1.579 1.494 1.808.827.2 1.642-.195 2.327-.792.31-.27.61-.596.891-.958.14.209.295.4.438.571a28.159 28.159 0 00.317.372c-.427.957-.671 2.072-.671 3.34 0 1.839.553 3.256 1.427 4.313l-.976-.564a1.872 1.872 0 10-1.873 3.243l3.03 1.75a3.723 3.723 0 00-.058.521c-1.29.495-1.919 2.206-1.41 3.918.53 1.779 2.087 2.884 3.479 2.47a2.168 2.168 0 001.03-.678 4.57 4.57 0 001.11.372 8.953 8.953 0 001.875.175c1.111-.007 2.287-.19 3.126-.568.278.33.631.575 1.047.7 1.392.413 2.949-.692 3.478-2.47.51-1.712-.12-3.423-1.408-3.918a2.82 2.82 0 00-.04-.534l3.01-1.738a1.872 1.872 0 10-1.872-3.242l-.976.563c.875-1.057 1.427-2.474 1.427-4.312 0-1.275-.246-2.386-.677-3.335l.12-.14v-.001l.203-.237c.143-.17.297-.363.438-.57.281.36.58.686.891.957.685.596 1.5.992 2.327.791.944-.228 1.34-1.039 1.494-1.807.155-.773.098-1.631.04-2.198-.096-.947-.574-2.363-1.372-3.533-.792-1.16-1.974-2.18-3.505-2.108zm-5.045 26.442c-.313-.733-.37-1.657-.095-2.58.449-1.507 1.634-2.53 2.832-2.557a3.026 3.026 0 00-.105-.62 7.698 7.698 0 00-.91-2.018 3.735 3.735 0 00-.33-.444c-1.283.609-2.72.858-4.019.858-1.3 0-2.741-.25-4.025-.862a3.395 3.395 0 00-.315.422c-.167.26-.339.577-.493.92-.269.595-.467 1.23-.519 1.744 1.194.034 2.373 1.055 2.82 2.556.278.937.216 1.872-.108 2.61.23.108.516.2.852.271.51.109 1.1.161 1.704.158 1.025-.006 2.028-.173 2.711-.458zm6.108-7.962l-2.815 1.625a7.766 7.766 0 00-.322-.808 8.494 8.494 0 00-.619-1.126l2.683-1.549a1.072 1.072 0 011.073 1.858zm-14.638 1.634a8.426 8.426 0 01.891-1.907l.026-.04-2.676-1.545a1.072 1.072 0 10-1.073 1.858l2.832 1.634zM21.267 8.52a7.292 7.292 0 00-.928-.672c.49-1.405.917-2.429 1.304-3.17.021.266.061.54.116.813.195.968.59 2.019 1.102 2.972.141.262.292.519.451.766a4.71 4.71 0 01-.548.767c-.037.044-.075.09-.114.134a6.8 6.8 0 00-1.383-1.61zm1.345-5.235c.137-.128.267-.219.39-.283.22-.115.444-.16.698-.16h.02c1.122-.056 2.082.687 2.814 1.76.728 1.066 1.155 2.357 1.237 3.163.057.556.102 1.312-.028 1.96-.13.651-.407 1.068-.898 1.187-.451.11-1.003-.085-1.613-.617-.6-.523-1.184-1.314-1.666-2.21-.48-.895-.846-1.872-1.022-2.751-.18-.89-.15-1.608.068-2.05zM11.68 7.797c-.482-1.378-.904-2.386-1.286-3.12a6.89 6.89 0 01-.116.815c-.195.967-.59 2.018-1.102 2.97-.141.263-.292.52-.451.767.14.26.337.516.548.768l.103.121a6.88 6.88 0 011.391-1.65c.288-.249.594-.473.913-.67zM9.033 3.002c.124.064.254.155.39.283.219.441.248 1.16.07 2.05-.177.878-.543 1.855-1.023 2.75-.482.896-1.066 1.687-1.666 2.21-.61.532-1.162.726-1.613.617-.491-.119-.767-.535-.898-1.187-.13-.648-.085-1.404-.028-1.96.082-.806.51-2.096 1.237-3.163.732-1.073 1.692-1.816 2.814-1.76h.02c.254 0 .478.045.697.16zm.072 11.222c0-2.326.892-4.031 2.185-5.15 1.301-1.128 3.03-1.68 4.72-1.646 1.702.035 3.436.59 4.738 1.701 1.293 1.102 2.183 2.77 2.183 5.095 0 2.308-.953 3.812-2.27 4.753-1.335.954-3.075 1.347-4.643 1.347-1.568 0-3.308-.393-4.643-1.347-1.317-.941-2.27-2.445-2.27-4.753zm3.614 11.909c.458 1.54-.22 2.735-1.023 2.974-.804.24-2.025-.39-2.483-1.931-.459-1.54.219-2.736 1.023-2.975.803-.239 2.024.391 2.483 1.932zm7.621 2.974c-.803-.239-1.481-1.434-1.023-2.974.459-1.54 1.68-2.171 2.483-1.932.804.24 1.482 1.434 1.023 2.975-.458 1.54-1.68 2.17-2.483 1.931z"/><path fill-rule="evenodd" clip-rule="evenodd" d="M13.013 12.82a.491.491 0 100-.981.491.491 0 000 .982zm0 .8a1.291 1.291 0 100-2.581 1.291 1.291 0 000 2.582zm6.01-.8a.491.491 0 100-.981.491.491 0 000 .982zm0 .8a1.291 1.291 0 100-2.581 1.291 1.291 0 000 2.582zm-4.903 2.66a.4.4 0 01.509.246c.198.568.73.866 1.389.866.623 0 1.22-.432 1.394-.878a.4.4 0 11.746.289c-.301.777-1.212 1.39-2.14 1.39-.893 0-1.804-.425-2.145-1.403a.4.4 0 01.247-.51zm.734-1.886a.406.406 0 01.362-.222h1.367a.406.406 0 01.318.659l-.714.898a.406.406 0 01-.647-.013l-.653-.899a.406.406 0 01-.034-.423z"/></svg>