<svg width="120" height="60" xmlns="http://www.w3.org/2000/svg" viewBox="0 0 120.8 60.32"><path d="M93.8 26.92a24.7 24.7 0 1 1-24.7-24.7 24.75 24.75 0 0 1 24.7 24.7z" fill="#b9e1ff"/><path d="M97.4 24.62h-3.9v-8.9h4.1c1.8 0 6.2.1 6.2 4.3.1 4.6-4.9 4.6-6.4 4.6zm20.9 11.2a9.5 9.5 0 0 0-8.1-7.6c5.4-.9 9.7-4.6 9.7-10.6 0-10.4-10.8-11-16.6-11H86l-2 .2-.9.1c-3.2.5-10 2.7-13 6a5.21 5.21 0 0 0-1.5 3.5c0 1.5 1 2.8 2.6 4s3.6 2.2 5.2 3.2a33.58 33.58 0 0 1 7.2 4.9c1.9 1.8 4.2 4.2 4.2 7.3a14.5 14.5 0 0 1-5.7 12h12.1v-14.4h3.5c1.7 0 4.6.5 5.1 4.1l1.5 10.3h16.5zM59 29.92a34.35 34.35 0 0 1-7.7-5.2 9.47 9.47 0 0 1-3.2-7.1c0-4.2 3.2-8 7.2-11.1H43.4v14.3H32.8V6.52H17v41.3h15.8v-15.2h10.6v15.2h6.8l.3-.1a37.45 37.45 0 0 0 10.5-3.7c3.1-1.8 5-4 5-6.4a5.28 5.28 0 0 0-1.6-3.9 18.84 18.84 0 0 0-5.4-3.8zm-37.2 30.3h-1.3v-2.4h-2.1v2.4h-1.3v-5.9h1.3v2.2h2.1v-2.2h1.3zm1.1-2.9a2.94 2.94 0 0 1 .9-2.2 3 3 0 0 1 2.3-.9 3.11 3.11 0 0 1 2.2.8 3.1 3.1 0 0 1-2.2 5.3 3.11 3.11 0 0 1-2.2-.8 2.7 2.7 0 0 1-1-2.2zm1.4 0a2.11 2.11 0 0 0 .5 1.3 1.66 1.66 0 0 0 1.2.5 1.9 1.9 0 0 0 1.3-.5 1.84 1.84 0 0 0 .4-1.3 1.9 1.9 0 0 0-.5-1.3 1.69 1.69 0 0 0-2.4 0 1.73 1.73 0 0 0-.5 1.3zm7.3 2.9h-1.3v-5.9h1.3l1.8 2.5 1.7-2.5h1.3v5.9h-1.3v-3.7l-1.6 2.3h-.2l-1.7-2.3zm9.9 0h-3.6v-5.9h3.5v1.3h-2.1v1h1.9v1.3h-1.9v1.1h2.2zm5.3-1.6c0-.2-.3-.5-.9-.8-.2-.1-.3-.1-.4-.2s-.3-.2-.4-.3a.78.78 0 0 1-.4-.4 2.19 2.19 0 0 1-.3-.5 1.27 1.27 0 0 1-.1-.6 1.66 1.66 0 0 1 .5-1.2 2 2 0 0 1 1.4-.5 2.35 2.35 0 0 1 1.7.6l-.7 1c-.2-.2-.3-.3-.4-.3a.75.75 0 0 0-.5-.1c-.2 0-.3 0-.4.1s-.2.2-.2.3a.52.52 0 0 0 .2.4 2.19 2.19 0 0 0 .5.3l.6.3a2.09 2.09 0 0 1 .6.4c.2.1.3.3.5.5a1.88 1.88 0 0 1 .2.8 1.43 1.43 0 0 1-.6 1.2 2.39 2.39 0 0 1-1.4.5 2.66 2.66 0 0 1-1.2-.3 1.85 1.85 0 0 1-.8-.7l.8-.9a3.17 3.17 0 0 0 .6.5 1.85 1.85 0 0 0 .7.2c.2 0 .3 0 .4-.1zm7.4 1.6h-1.3v-2.4h-2.1v2.4h-1.3v-5.9h1.3v2.2h2.1v-2.2h1.3zm1.1-2.9a2.94 2.94 0 0 1 .9-2.2 3 3 0 0 1 2.3-.9 3.11 3.11 0 0 1 2.2.8 3.1 3.1 0 0 1-2.2 5.3 3.11 3.11 0 0 1-2.2-.8 2.44 2.44 0 0 1-1-2.2zm1.4 0a2.11 2.11 0 0 0 .5 1.3 1.66 1.66 0 0 0 1.2.5 1.9 1.9 0 0 0 1.3-.5 1.84 1.84 0 0 0 .4-1.3 1.9 1.9 0 0 0-.5-1.3 1.69 1.69 0 0 0-2.4 0 1.43 1.43 0 0 0-.5 1.3zm7.2.9v2h-1.3v-5.9h1.7a2.44 2.44 0 0 1 1.8.6 1.82 1.82 0 0 1 .6 1.4 2 2 0 0 1-.6 1.4 2.07 2.07 0 0 1-1.5.5zm.6-2.6h-.6v1.3h.6a1.42 1.42 0 0 0 .6-.2c.2-.1.2-.3.2-.5 0-.4-.2-.6-.8-.6zm4.7 2.6v2h-1.3v-5.9h1.7a2.44 2.44 0 0 1 1.8.6 1.82 1.82 0 0 1 .6 1.4 2 2 0 0 1-.6 1.4 2.11 2.11 0 0 1-1.6.6 1.27 1.27 0 0 0-.6-.1zm.6-2.6h-.6v1.3h.6a1.42 1.42 0 0 0 .6-.2c.2-.1.2-.3.2-.5 0-.4-.3-.6-.8-.6zm4.8 4.6h-1.3v-5.9h1.3zm6.7-5.9v5.9h-1.1l-2.8-3.5v3.5h-1.3v-5.9h1.1l2.8 3.5v-3.5zm5.2 3.8h-1.3v-1.3h2.5v2.6a2.07 2.07 0 0 1-1 .6 2.54 2.54 0 0 1-1.2.2 3.2 3.2 0 0 1-2.3-.8 2.73 2.73 0 0 1-.8-2.2 3.29 3.29 0 0 1 .8-2.2 2.79 2.79 0 0 1 2.2-.9 2.88 2.88 0 0 1 1.9.6l-.6 1.1a2.19 2.19 0 0 0-.5-.3 1.7 1.7 0 0 0-.7-.1 2.11 2.11 0 0 0-1.3.5 1.73 1.73 0 0 0-.5 1.3 1.9 1.9 0 0 0 .5 1.3 1.73 1.73 0 0 0 1.3.5.9.9 0 0 0 .5-.1c.2-.1.3-.1.4-.2v-.6zm5.6 0v2.1h-1.3v-5.9h2c1.4 0 2.2.6 2.2 1.9a1.67 1.67 0 0 1-1 1.7l1.7 2.3h-1.6l-1.5-2.1zm.6-2.5h-.6v1.3h.5c.6 0 .9-.2.9-.7s-.2-.6-.8-.6zm7.3-1.3h1.3v3.4a2.35 2.35 0 0 1-.7 1.9 2.52 2.52 0 0 1-1.7.6 2.49 2.49 0 0 1-1.9-.7 2.35 2.35 0 0 1-.7-1.9v-3.4h1.3v3.1c0 1.1.4 1.6 1.2 1.6a.81.81 0 0 0 .8-.4 1.92 1.92 0 0 0 .3-1.2v-3zm4.9 4.3c0-.2-.3-.5-.9-.8-.2-.1-.3-.1-.4-.2s-.3-.2-.4-.3a.78.78 0 0 1-.4-.4 2.19 2.19 0 0 1-.3-.5 1.27 1.27 0 0 1-.1-.6 1.66 1.66 0 0 1 .5-1.2 2 2 0 0 1 1.4-.5 2.35 2.35 0 0 1 1.7.6l-.7 1c-.2-.2-.3-.3-.4-.3a.75.75 0 0 0-.5-.1c-.2 0-.3 0-.4.1s-.2.2-.2.3a.52.52 0 0 0 .2.4 2.19 2.19 0 0 0 .5.3l.6.3a2.09 2.09 0 0 1 .6.4c.2.1.3.3.5.5a1.88 1.88 0 0 1 .2.8 1.43 1.43 0 0 1-.6 1.2 2.39 2.39 0 0 1-1.4.5 2.66 2.66 0 0 1-1.2-.3 1.85 1.85 0 0 1-.8-.7l.8-.9a3.17 3.17 0 0 0 .6.5 1.85 1.85 0 0 0 .7.2c.2 0 .3 0 .4-.1zm4.7 0c0-.2-.3-.5-.9-.8-.2-.1-.3-.1-.4-.2s-.3-.2-.4-.3a.78.78 0 0 1-.4-.4 2.19 2.19 0 0 1-.3-.5 1.27 1.27 0 0 1-.1-.6 1.66 1.66 0 0 1 .5-1.2 2 2 0 0 1 1.4-.5 2.35 2.35 0 0 1 1.7.6l-.7 1c-.2-.2-.3-.3-.4-.3a.75.75 0 0 0-.5-.1c-.2 0-.3 0-.4.1s-.2.2-.2.3a.52.52 0 0 0 .2.4 2.19 2.19 0 0 0 .5.3l.6.3a2.09 2.09 0 0 1 .6.4c.2.1.3.3.5.5a1.88 1.88 0 0 1 .2.8 1.43 1.43 0 0 1-.6 1.2 2.39 2.39 0 0 1-1.4.5 2.66 2.66 0 0 1-1.2-.3 1.85 1.85 0 0 1-.8-.7l.8-.9a3.17 3.17 0 0 0 .6.5 1.85 1.85 0 0 0 .7.2c.2 0 .3 0 .4-.1-.1 0 0-.1 0-.2zm4 1.6h-1.3v-5.9h1.3zm2.2 0h-1.4l2.4-5.9h1.2l2.4 5.9H119l-.5-1.2h-2.3zm2.3-2.5l-.7-1.7-.7 1.7z" fill="#221e59"/><path d="M14.5.42c-.9.3-1.7.5-2.6.8a6.56 6.56 0 0 0-3 1.5 4.14 4.14 0 0 0-1.1 3 8.76 8.76 0 0 0 .7 3.2 20.93 20.93 0 0 0 7 9.1 29 29 0 0 1 10.7-12.8c-2.3-1.4-4.7-2.8-7-4.2a6 6 0 0 0-2.5-1 5.7 5.7 0 0 0-2.2.4z" fill="#e82e2c"/><path d="M15.7 4.42a5.16 5.16 0 0 0-4.1-2.5 2.82 2.82 0 0 0-1.8.2 4.44 4.44 0 0 0-1.1.8A10.87 10.87 0 0 0 6 9.42a19.07 19.07 0 0 0 2.4 11.5 3.17 3.17 0 0 1 .6 1.5c0 .9-.9 1.6-1.8 2a15.16 15.16 0 0 1-3.6 1.8 1.55 1.55 0 0 0 1.5.9 5.66 5.66 0 0 0 1.8-.3 32.2 32.2 0 0 0 5.1-2.1 3.92 3.92 0 0 0 2.1-2.1 2.9 2.9 0 0 0 0-1.6c-.4-2.9-1.3-5.8-.5-8.6.4-1.4 1.2-2.6 1.7-3.9a4.61 4.61 0 0 0 .4-4.1z" fill="#e82e2c"/><path d="M9.9 8.72a8.62 8.62 0 0 0 .6 4.2 8.79 8.79 0 0 0 3 4.1c.1.1.3 0 .2-.2-.5-1.3-1.7-2.3-2.4-3.5a7 7 0 0 1-1.2-4.6c-.1-.1-.2-.1-.2 0z" fill="#ba0600"/><path d="M13.1 16.32c.1 1.2.4 2.4.6 3.7a4 4 0 0 1-1.7 4.4 15.33 15.33 0 0 1-3.7 1.6 27.94 27.94 0 0 1-4 .7c-.3 0-.2.4.1.4a13.68 13.68 0 0 0 8.5-2.7c2.4-1.9 1.3-5.6.4-8.1 0-.2-.2-.2-.2 0z" fill="#ba0600"/><path d="M26.2 3.42a5.63 5.63 0 0 1 2.7 3.2c-5.3 1.1-11.3 9.2-12 13.6-1.4-.5-3.2-1.9-3.5-3.4a2.08 2.08 0 0 1 .1-1.1 20.33 20.33 0 0 1 9.3-12 2.88 2.88 0 0 1 3.4-.3z" fill="#b9e1ff"/><path d="M8.4 18.32c1.2 1.6 1.6 3.7-.1 5.1-1.4 1-3.1 1.5-4.5 2.5-.1 0 0 .2.1.1a34.54 34.54 0 0 0 3.4-1.4 4.56 4.56 0 0 0 2.3-1.8 3.93 3.93 0 0 0-1.2-4.5z" fill="#ba0600"/><path d="M2.2 23.82a2.7 2.7 0 0 0-1.8 4.1 2.63 2.63 0 0 0 3 1.4c2.1-.5 2.7-2.4 1.7-4.3a2.59 2.59 0 0 0-1.9-1.3 3.75 3.75 0 0 1-1 .1z" fill="#b9e1ff"/><path d="M9.9 6.42a7.58 7.58 0 0 0-.8 3.6c0 .1.1.1.1 0a23.69 23.69 0 0 1 .9-3.6c0-.1-.2-.1-.2 0z" fill="#ba0600"/><path d="M25.6 3.12a3 3 0 0 0-1.3.5c-.1.1 0 .2.1.2a5.27 5.27 0 0 1 1.2-.3c.3-.1.8 0 1.1-.1 0 0 .1-.1 0-.1-.3-.4-.7-.3-1.1-.2zm1.1.9a6.75 6.75 0 0 0-1.4.2c-.1 0-.1.2.1.2a4.87 4.87 0 0 1 1.2-.1 1.27 1.27 0 0 1 .6.1c.1 0 .2.1.4.1l.1-.1c-.1-.4-.7-.4-1-.4zm-.1.8c-.1 0-.1.2 0 .2a2.59 2.59 0 0 1 2.1 1.5 8.37 8.37 0 0 0-3.7 1.7 31.31 31.31 0 0 0-4.4 3.6 19.25 19.25 0 0 0-2.9 4.5 5.55 5.55 0 0 0-.9 3.7c.1.4.6.2.6-.2-.2-1.4.6-2.7 1.2-3.9a15.64 15.64 0 0 1 2.7-4 36.5 36.5 0 0 1 3.6-3.1 9.1 9.1 0 0 1 4-2.1c.2 0 .2-.2.2-.3a3.13 3.13 0 0 0-2.5-1.6z" fill="#221e59"/><path d="M16.9 19.92a6.66 6.66 0 0 1-3.4-2.8c-.1-.2-.3-.1-.2.1a5 5 0 0 0 1.7 2.1c.5.4 1.6 1.2 2.1.9 0-.1 0-.2-.2-.3zm-1.9-2.6a1.27 1.27 0 0 0 .1.6c0 .2 0 .4.2.5h.1c.1-.1 0-.3 0-.5s-.1-.4-.1-.6q-.3-.15-.3 0zm-.6-.3c0 .1-.1.2-.1.4s.1.1.2 0 .1-.2.1-.4-.2-.2-.2 0zm-10.5 6.5a1.75 1.75 0 0 0-2.2 1.1.1.1 0 0 0 .1.1c.3-.1.6-.5.9-.6a5.27 5.27 0 0 1 1.2-.3.19.19 0 0 0 0-.3zm.5.8a1.48 1.48 0 0 0-1.6.6c-.1.2.1.3.2.2s.4-.3.6-.3h.7c.2 0 .3-.4.1-.5z" fill="#221e59"/><path d="M3.7 25.02c-.1 0 0 .2 0 .2 2.5.1 1.2 3.3-.3 3.8a3.1 3.1 0 0 1-1.9-.1c-.7-.4-.9-1.2-1.3-1.8 0-.1-.1 0-.1 0a2.64 2.64 0 0 0 4.5 1.7 3.14 3.14 0 0 0 .9-2.9 1.28 1.28 0 0 0-1.8-.9z" fill="#221e59"/><path d="M19.2 1.82c-.1-.1-.2-.2-.3-.2a4 4 0 0 0-2-.9 5 5 0 0 0-2.7.3 6.19 6.19 0 0 0-1.9.7 2.43 2.43 0 0 0-1.3 1.5 4.87 4.87 0 0 0-.1 1.2 11.41 11.41 0 0 0 .7 4.1c.3.8 1.1 3.2 2.2 3.1.4 0 .7-.4.9-.8a18.6 18.6 0 0 1 5.4-6.1 1.47 1.47 0 0 0 .6-.5 1.23 1.23 0 0 0-.2-1.4 11.32 11.32 0 0 0-1.3-1z" fill="#f63525"/><path d="M13.7 2.02a1.44 1.44 0 0 0-1.4-.3 8.93 8.93 0 0 0-2.9 2.2c-1.4 1.5-1.7 3.4-2.2 5.3-.1.4.4.5.6.2.6-1.5 1.5-3.7 3.2-4.2a10.93 10.93 0 0 0 1.7-.5 5.5 5.5 0 0 0 .9-.7 2.41 2.41 0 0 0 .6-.8 1.36 1.36 0 0 0-.5-1.2zM10 22.72c-.1.3-.4.7-.2.9a.76.76 0 0 0 .5.2 2.56 2.56 0 0 0 2.5-2.2 5.16 5.16 0 0 0-.9-3.4c-.7-1-1.5-1.9-2.2-2.9s-1-1.8-1.6-2.6c-.4.1-.5.6-.5 1a12.48 12.48 0 0 0 1.4 5 11.08 11.08 0 0 1 .9 1.9 2.58 2.58 0 0 1 .1 2.1z" fill="#f63525"/><path d="M2.8 25.82a.86.86 0 0 0-.9-.7 1.2 1.2 0 0 0-1.1 1.2c0 1.7 2.3 1.3 2-.3a.14.14 0 0 0 0-.2zm21.3-20.5a.53.53 0 0 0-.8.1l-.2.2c-.1.1-.3.2-.4.3a.86.86 0 0 0-1.4-.7 22.71 22.71 0 0 0-2.8 2.6l-1.6 1.9c-.1.2-.3.5-.5.9-.6 1-1.2 2.4-.5 3.2l.1.1a.92.92 0 0 0 1 .1 6 6 0 0 0 2.5-2.2c.3-.4.7-.9 1-1.3 1.3-1.3 2.7-2.5 4.1-3.7.4-.3.3-.8 0-1.2a2.19 2.19 0 0 0-.5-.3z" fill="#fff"/><path d="M23 4.22a1.85 1.85 0 0 0-.7 1.2.5.5 0 0 0 1 0 2 2 0 0 1 .1-.8.283.283 0 0 0-.4-.4zm1.6.1c-.1 0-.2-.1-.2 0h-.3l-.1.1a.3.3 0 0 0 0 .4.1.1 0 0 0 .1.1.1.1 0 0 1 .1.1h.1c.1 0 .1.1.2.1s.3-.1.3-.2a.3.3 0 0 0 0-.4c-.1-.1-.1-.2-.2-.2zm1.1 1.1a.35.35 0 0 0-.2.1.424.424 0 0 0 .6.6c.1-.1.1-.1.1-.2.1-.3-.2-.5-.5-.5zm-11.2 8.2a1.13 1.13 0 0 0 .1.8c.1.2.2.6.4.7s.3.2.4.1.4-.2.3-.4a1.42 1.42 0 0 0-.2-.6c-.1-.2-.1-.5-.2-.7a.42.42 0 0 0-.8.1z" fill="#fff"/></svg>