<svg width="104" height="59" fill="none" xmlns="http://www.w3.org/2000/svg"><path fill-rule="evenodd" clip-rule="evenodd" d="M76.841 24.706c0 13.643-11.06 24.704-24.705 24.705-13.645 0-24.706-11.062-24.706-24.706S38.492 0 52.136 0s24.705 11.06 24.705 24.706z" fill="#B9E1FF"/><path d="M80.445 22.34H76.55v-8.856h4.132c1.772 0 6.2.118 6.2 4.31 0 4.604-5.02 4.545-6.436 4.545zm20.84 11.274c-1.241-5.548-5.373-7.143-8.147-7.556v-.118c5.37-.886 9.682-4.604 9.682-10.627 0-10.448-10.804-11.04-16.648-11.04H68.99l-1.964.241-.902.147c-3.19.499-10.034 2.655-12.975 5.98-.986 1.102-1.538 2.262-1.54 3.54-.013 1.478 1.036 2.816 2.64 4.045 1.589 1.22 3.612 2.245 5.176 3.173 2.755 1.634 5.29 3.047 7.21 4.88 1.92 1.824 4.232 4.168 4.216 7.327-.028 4.202-1.325 8.45-5.732 11.993H77.26V31.194h3.54c1.712 0 4.605.473 5.138 4.073L87.47 45.6H104l-2.715-11.985zM41.99 27.711c-3.113-1.688-5.79-3.31-7.744-5.243-1.954-1.92-3.175-4.23-3.165-7.05.018-4.2 3.21-8.04 7.152-11.144H26.39V18.56H15.82V4.274H0v41.325h15.821v-15.23H26.39v15.23h6.833l.338-.069c3.499-.712 7.492-1.974 10.537-3.736 3.074-1.774 5.047-3.97 5.027-6.441-.014-1.644-.475-2.739-1.589-3.913-1.115-1.163-2.947-2.325-5.546-3.73zM4.827 57.964H3.484v-2.362h-2.14v2.362H0V52.1h1.343v2.246h2.14V52.1h1.344v5.863zm1.1-2.932c0-.865.288-1.586.864-2.16C7.373 52.29 8.126 52 9.05 52c.918 0 1.665.276 2.242.83.587.552.881 1.287.881 2.203 0 .882-.297 1.608-.89 2.178-.587.57-1.332.854-2.233.854-.912 0-1.662-.276-2.25-.83-.581-.552-.872-1.287-.872-2.203zm1.427 0c0 .498.165.92.495 1.265.325.341.725.511 1.2.511.538 0 .955-.164 1.251-.494.297-.34.445-.768.445-1.282 0-.53-.162-.957-.487-1.281a1.646 1.646 0 0 0-1.209-.494c-.492 0-.898.164-1.217.494-.319.33-.478.757-.478 1.282zm7.264 2.932h-1.343V52.1h1.351l1.813 2.472 1.713-2.472h1.267v5.864h-1.343v-3.736l-1.637 2.287h-.193l-1.628-2.262v3.711zm9.891 0H20.94V52.1h3.484v1.257h-2.141v1.03h1.889v1.257h-1.889v1.064h2.225v1.256zm5.301-1.608c0-.246-.288-.505-.865-.779a15.47 15.47 0 0 1-.445-.201 4.203 4.203 0 0 1-.42-.268 2.34 2.34 0 0 1-.377-.36 1.872 1.872 0 0 1-.252-.461 1.598 1.598 0 0 1-.092-.595c0-.469.173-.868.52-1.198.347-.33.806-.494 1.377-.494.75 0 1.326.215 1.729.645l-.722 1.005a1.71 1.71 0 0 0-.428-.31 1.083 1.083 0 0 0-.462-.084c-.184 0-.33.04-.436.118a.381.381 0 0 0-.151.318c0 .15.058.285.176.402.123.117.274.215.453.293a5.994 5.994 0 0 1 1.184.637c.184.123.336.299.453.528.123.223.185.486.185.787 0 .503-.193.916-.58 1.24-.374.324-.853.486-1.435.486-.425 0-.828-.087-1.209-.26-.386-.173-.646-.407-.78-.703l.764-.913c.15.195.341.349.57.46.23.106.46.16.689.16.173 0 .308-.04.403-.118a.414.414 0 0 0 .15-.335zm7.351 1.608h-1.343v-2.362h-2.14v2.362h-1.343V52.1h1.343v2.246h2.14V52.1h1.343v5.863zm1.1-2.932c0-.865.288-1.586.865-2.16.582-.582 1.335-.872 2.258-.872.918 0 1.665.276 2.241.83.588.552.882 1.287.882 2.203 0 .882-.297 1.608-.89 2.178-.588.57-1.332.854-2.233.854-.912 0-1.662-.276-2.25-.83-.582-.552-.873-1.287-.873-2.203zm1.427 0c0 .498.165.92.496 1.265.324.341.724.511 1.2.511.537 0 .954-.164 1.25-.494.297-.34.446-.768.446-1.282 0-.53-.163-.957-.487-1.281a1.646 1.646 0 0 0-1.209-.494c-.492 0-.898.164-1.217.494-.32.33-.479.757-.479 1.282zm7.265.938v1.994h-1.344V52.1c.258 0 .54-.002.848-.008.314-.005.63-.008.949-.008.828 0 1.433.184 1.813.553.375.357.562.82.562 1.39 0 .547-.198 1.014-.596 1.4-.397.379-.923.569-1.578.569-.29 0-.509-.009-.654-.025zm.587-2.63l-.075.009c-.045 0-.115.003-.21.008h-.303v1.34c.236.028.44.042.613.042.23 0 .417-.058.563-.176.15-.123.226-.304.226-.544 0-.453-.271-.679-.814-.679zm4.685 2.63v1.994h-1.343V52.1c.257 0 .54-.002.848-.008.313-.005.63-.008.948-.008.829 0 1.433.184 1.814.553.375.357.562.82.562 1.39 0 .547-.199 1.014-.596 1.4-.397.379-.923.569-1.578.569-.291 0-.51-.009-.655-.025zm.588-2.63l-.076.009c-.045 0-.115.003-.21.008h-.302v1.34c.235.028.44.042.613.042.23 0 .417-.058.562-.176.151-.123.227-.304.227-.544 0-.453-.272-.679-.814-.679zm4.768 4.624h-1.343V52.1h1.343v5.864zM64.31 52.1v5.864h-1.075l-2.787-3.518v3.518H59.19V52.1h1.075l2.786 3.536V52.1h1.26zm5.189 3.779h-1.251v-1.257h2.51v2.614c-.252.25-.588.452-1.007.603-.409.15-.806.226-1.192.226-.985 0-1.758-.274-2.317-.821-.554-.547-.831-1.285-.831-2.212 0-.865.271-1.586.814-2.16.548-.582 1.27-.872 2.166-.872.772 0 1.413.204 1.922.611l-.562 1.081c-.118-.123-.291-.226-.52-.31a1.926 1.926 0 0 0-.68-.125c-.521 0-.938.153-1.252.46-.307.307-.461.746-.461 1.316 0 .541.157.974.47 1.298.319.318.741.477 1.267.477.157 0 .333-.03.53-.092.184-.061.315-.128.394-.2v-.637zm5.637.033v2.052h-1.343V52.1c.32 0 .672-.002 1.058-.008.386-.005.7-.008.94-.008 1.45 0 2.174.625 2.174 1.876 0 .804-.33 1.368-.99 1.692l1.712 2.312H77.06l-1.427-2.052h-.496zm.588-2.572l-.076.009c-.044 0-.114.003-.21.008h-.302v1.299h.487c.61 0 .915-.227.915-.679 0-.424-.271-.637-.814-.637zm7.261-1.24h1.343v3.444c0 .843-.23 1.474-.688 1.893-.454.419-1.024.628-1.713.628-.783 0-1.404-.22-1.863-.662-.465-.447-.697-1.086-.697-1.918V52.1h1.343v3.1c0 1.072.406 1.608 1.217 1.608.375 0 .644-.125.806-.377.168-.25.252-.636.252-1.156V52.1zm4.937 4.256c0-.246-.288-.505-.865-.779a15.47 15.47 0 0 1-.445-.201 4.203 4.203 0 0 1-.42-.268 2.34 2.34 0 0 1-.377-.36 1.872 1.872 0 0 1-.252-.461 1.598 1.598 0 0 1-.092-.595c0-.469.173-.868.52-1.198.347-.33.806-.494 1.377-.494.75 0 1.326.215 1.73.645l-.723 1.005a1.712 1.712 0 0 0-.428-.31 1.084 1.084 0 0 0-.462-.084c-.184 0-.33.04-.436.118a.381.381 0 0 0-.151.318c0 .15.059.285.176.402.123.117.274.215.453.293a5.994 5.994 0 0 1 1.184.637c.185.123.336.299.453.528.123.223.185.486.185.787 0 .503-.193.916-.58 1.24-.374.324-.853.486-1.435.486-.425 0-.828-.087-1.208-.26-.387-.173-.647-.407-.781-.703l.764-.913c.15.195.341.349.57.46.23.106.46.16.689.16.173 0 .308-.04.403-.118a.414.414 0 0 0 .151-.335zm4.682 0c0-.246-.288-.505-.864-.779-.168-.073-.317-.14-.445-.201a4.215 4.215 0 0 1-.42-.268 2.34 2.34 0 0 1-.378-.36 1.872 1.872 0 0 1-.252-.461 1.6 1.6 0 0 1-.092-.595c0-.469.174-.868.52-1.198.347-.33.806-.494 1.377-.494.75 0 1.326.215 1.73.645l-.722 1.005a1.712 1.712 0 0 0-.429-.31 1.083 1.083 0 0 0-.461-.084c-.185 0-.33.04-.437.118a.382.382 0 0 0-.15.318c0 .15.058.285.175.402.123.117.275.215.454.293.184.073.383.165.596.277.212.112.408.232.587.36.185.123.336.299.454.528.123.223.184.486.184.787 0 .503-.193.916-.579 1.24-.375.324-.853.486-1.435.486-.426 0-.829-.087-1.21-.26-.385-.173-.645-.407-.78-.703l.764-.913c.151.195.341.349.57.46.23.106.46.16.69.16.173 0 .307-.04.402-.118a.414.414 0 0 0 .151-.335zm3.952 1.608h-1.343V52.1h1.343v5.864zm2.204 0h-1.352l2.443-5.864h1.2l2.443 5.864h-1.435l-.487-1.231h-2.325l-.487 1.231zm2.308-2.488l-.655-1.658-.663 1.658h1.318z" fill="#221E59"/></svg>