<svg width="104" height="58" fill="none" xmlns="http://www.w3.org/2000/svg"><path d="M32.269 44.21c26.68-10.141 10.094-14.273 1.912-20.304-3.736-2.762-5.336-8.661-3.802-11.82C34.314 3.998 41.406.288 51.812 0l18.433 3.844s-13.23 4.088-15.564 6.739c-5.781 6.85 9.76 9.368 13.585 13.257 3.824 3.888 6.225 11.334 2.757 15.465-2.18 2.486-4.579 4.381-7.615 5.71-3.036 1.329-6.634 2.06-9.95 1.979l-21.19-2.784z" fill="#C0FBF8"/><path d="M80.11 21.385h-3.867v-8.846h4.112c1.778 0 6.18 0 6.18 4.268 0 4.622-5.002 4.578-6.425 4.578zm20.761 11.057a9.225 9.225 0 0 0-2.811-5.082 9.312 9.312 0 0 0-5.302-2.415c3.717-.684 9.879-2.454 9.698-10.416-.181-7.961-7.718-11.057-16.633-11.013H68.707a54.26 54.26 0 0 0-2.934.398c-3.112.53-9.914 2.61-12.848 5.905a5.185 5.185 0 0 0-1.534 3.472c.096.823.383 1.614.838 2.309a5.368 5.368 0 0 0 1.785 1.694 50.018 50.018 0 0 0 5.09 3.14 40.016 40.016 0 0 1 7.18 4.843 10.523 10.523 0 0 1 2.854 3.182 10.468 10.468 0 0 1 1.347 4.05 14.444 14.444 0 0 1-1.429 6.607 14.522 14.522 0 0 1-4.283 5.246l12.114-.017V30.098h3.557a4.64 4.64 0 0 1 3.404.955 4.594 4.594 0 0 1 1.73 3.07l1.534 10.222H104l-3.129-11.814v-.089zm-59.06-5.75a33.858 33.858 0 0 1-7.69-5.197 9.556 9.556 0 0 1-2.31-3.155 9.512 9.512 0 0 1-.847-3.81c0-4.158 3.2-7.962 7.113-11.058H26.296v14.242H15.76V3.516H0v40.83h15.76V29.323h10.536v15.021l7.135.039a36.535 36.535 0 0 0 10.492-3.693c3.067-1.77 5.023-3.937 5.001-6.37a5.02 5.02 0 0 0-1.578-3.87 22.234 22.234 0 0 0-5.535-3.692v-.067zM4.886 57.9H3.543v-2.363H1.402V57.9H.059v-5.864h1.343v2.245h2.14v-2.245h1.344V57.9zm1.1-2.932c0-.866.288-1.587.864-2.162.582-.58 1.335-.87 2.258-.87.918 0 1.665.276 2.242.828.587.553.881 1.288.881 2.203 0 .883-.297 1.609-.89 2.178-.587.57-1.332.855-2.233.855-.912 0-1.662-.276-2.25-.83-.581-.552-.872-1.287-.872-2.203zm1.427 0c0 .497.165.918.495 1.264a1.59 1.59 0 0 0 1.2.511c.537 0 .954-.164 1.251-.494.297-.34.445-.768.445-1.282 0-.53-.162-.957-.487-1.281a1.646 1.646 0 0 0-1.209-.494c-.492 0-.898.164-1.217.494-.319.33-.478.757-.478 1.282zm7.264 2.932h-1.343v-5.864h1.351l1.813 2.47 1.713-2.47h1.267V57.9h-1.343v-3.737l-1.637 2.287h-.193l-1.628-2.262V57.9zm9.89 0H21v-5.864h3.483v1.256h-2.14v1.03h1.889v1.257h-1.889v1.064h2.224V57.9zm5.302-1.609c0-.246-.288-.505-.865-.779a13.34 13.34 0 0 1-.445-.201 4.2 4.2 0 0 1-.42-.268 2.341 2.341 0 0 1-.377-.36 1.873 1.873 0 0 1-.252-.461 1.598 1.598 0 0 1-.092-.595c0-.469.173-.868.52-1.198.347-.33.806-.494 1.377-.494.75 0 1.326.215 1.729.645l-.722 1.005a1.709 1.709 0 0 0-.428-.31 1.082 1.082 0 0 0-.462-.083c-.184 0-.33.039-.436.117a.382.382 0 0 0-.151.318.55.55 0 0 0 .176.402c.123.118.274.215.453.293a5.994 5.994 0 0 1 1.184.637c.184.123.335.299.453.528.123.223.185.486.185.787 0 .503-.193.916-.58 1.24-.374.324-.853.486-1.435.486-.425 0-.828-.087-1.209-.26-.386-.173-.646-.407-.78-.703l.763-.913c.152.195.342.349.571.46.23.106.46.16.689.16.173 0 .307-.04.403-.118a.414.414 0 0 0 .15-.335zM37.22 57.9h-1.343v-2.363h-2.14V57.9h-1.343v-5.864h1.343v2.245h2.14v-2.245h1.343V57.9zm1.1-2.932c0-.866.288-1.587.865-2.162.582-.58 1.335-.87 2.258-.87.918 0 1.665.276 2.241.828.588.553.882 1.288.882 2.203 0 .883-.297 1.609-.89 2.178-.588.57-1.332.855-2.233.855-.912 0-1.662-.276-2.25-.83-.582-.552-.873-1.287-.873-2.203zm1.427 0c0 .497.165.918.496 1.264.324.341.724.511 1.2.511.537 0 .954-.164 1.25-.494.297-.34.446-.768.446-1.282 0-.53-.163-.957-.487-1.281a1.646 1.646 0 0 0-1.209-.494c-.492 0-.898.164-1.217.494-.32.33-.479.757-.479 1.282zm7.264.938V57.9h-1.343v-5.864c.258 0 .54-.003.848-.009.314-.005.63-.008.949-.008.828 0 1.432.184 1.813.553.375.357.562.82.562 1.39 0 .548-.198 1.014-.596 1.4-.397.379-.923.569-1.578.569a6.17 6.17 0 0 1-.654-.025zm.588-2.63a.923.923 0 0 0-.075.008c-.045 0-.115.002-.21.008h-.303v1.34c.235.028.44.042.613.042.23 0 .417-.058.563-.176.15-.122.226-.304.226-.544 0-.452-.271-.679-.814-.679zm4.685 2.63V57.9h-1.343v-5.864c.257 0 .54-.003.848-.009.313-.005.63-.008.948-.008.828 0 1.433.184 1.813.553.375.357.563.82.563 1.39a1.88 1.88 0 0 1-.596 1.4c-.398.379-.924.569-1.578.569-.291 0-.51-.008-.655-.025zm.588-2.63a.879.879 0 0 0-.076.008c-.045 0-.115.002-.21.008h-.302v1.34c.235.028.44.042.613.042.23 0 .417-.058.562-.176.151-.122.227-.304.227-.544 0-.452-.272-.679-.814-.679zM57.64 57.9h-1.343v-5.864h1.343V57.9zm6.728-5.864V57.9h-1.074l-2.787-3.519V57.9h-1.26v-5.864h1.075l2.787 3.535v-3.535h1.26zm5.19 3.778h-1.251v-1.257h2.51v2.614c-.252.251-.588.452-1.007.603-.409.15-.806.226-1.192.226-.985 0-1.758-.274-2.317-.821-.554-.547-.831-1.284-.831-2.212 0-.865.271-1.585.814-2.16.548-.582 1.27-.872 2.166-.872.772 0 1.413.204 1.922.612l-.563 1.08c-.117-.123-.29-.226-.52-.31a1.926 1.926 0 0 0-.68-.125c-.52 0-.937.153-1.25.46-.308.307-.462.746-.462 1.316 0 .541.156.974.47 1.298.319.318.741.477 1.267.477.157 0 .333-.03.53-.092.184-.061.315-.128.394-.2v-.637zm5.637.033V57.9h-1.343v-5.864c.32 0 .672-.003 1.058-.009.386-.005.7-.008.94-.008 1.45 0 2.174.625 2.174 1.876 0 .804-.33 1.368-.99 1.692l1.712 2.313h-1.628l-1.427-2.053h-.496zm.588-2.572l-.076.009a3.54 3.54 0 0 0-.21.008h-.302v1.299h.487c.61 0 .915-.227.915-.679 0-.424-.271-.637-.814-.637zm7.261-1.239h1.343v3.442c0 .844-.23 1.475-.688 1.894-.454.419-1.024.628-1.713.628-.783 0-1.404-.22-1.863-.662-.465-.447-.697-1.086-.697-1.918v-3.384h1.343v3.1c0 1.071.406 1.607 1.217 1.607.375 0 .644-.125.806-.377.168-.25.252-.636.252-1.155v-3.175zm4.936 4.255c0-.246-.287-.505-.864-.779a13.34 13.34 0 0 1-.445-.201 4.2 4.2 0 0 1-.42-.268 2.345 2.345 0 0 1-.377-.36 1.873 1.873 0 0 1-.252-.461 1.598 1.598 0 0 1-.092-.595c0-.469.173-.868.52-1.198.347-.33.806-.494 1.377-.494.75 0 1.326.215 1.73.645l-.723 1.005a1.709 1.709 0 0 0-.428-.31 1.082 1.082 0 0 0-.462-.083c-.184 0-.33.039-.436.117a.382.382 0 0 0-.151.318c0 .151.059.285.176.402.123.118.274.215.453.293a5.994 5.994 0 0 1 1.184.637c.185.123.336.299.453.528.123.223.185.486.185.787 0 .503-.193.916-.58 1.24-.374.324-.853.486-1.435.486-.425 0-.828-.087-1.209-.26-.386-.173-.646-.407-.78-.703l.764-.913c.15.195.341.349.57.46.23.106.46.16.689.16.173 0 .308-.04.403-.118a.414.414 0 0 0 .15-.335zm4.683 0c0-.246-.288-.505-.864-.779a13.53 13.53 0 0 1-.445-.201 4.2 4.2 0 0 1-.42-.268 2.34 2.34 0 0 1-.378-.36 1.873 1.873 0 0 1-.252-.461 1.598 1.598 0 0 1-.092-.595c0-.469.173-.868.52-1.198.347-.33.806-.494 1.377-.494.75 0 1.326.215 1.73.645l-.722 1.005a1.709 1.709 0 0 0-.429-.31 1.082 1.082 0 0 0-.461-.083c-.185 0-.33.039-.437.117a.381.381 0 0 0-.15.318c0 .151.058.285.175.402.124.118.275.215.454.293.184.073.383.165.596.277.212.112.408.232.587.36.185.123.336.299.454.528.123.223.184.486.184.787 0 .503-.193.916-.579 1.24-.375.324-.853.486-1.435.486-.426 0-.829-.087-1.21-.26-.385-.173-.646-.407-.78-.703l.764-.913c.151.195.341.349.57.46.23.106.46.16.69.16.173 0 .307-.04.402-.118a.414.414 0 0 0 .151-.335zm3.952 1.609h-1.343v-5.864h1.343V57.9zm2.204 0h-1.352l2.443-5.864h1.2l2.443 5.864h-1.435l-.487-1.232h-2.326L98.82 57.9zm2.308-2.489l-.655-1.658-.663 1.658h1.318z" fill="#101010"/></svg>