<svg xmlns="http://www.w3.org/2000/svg" width="192.638" height="189.642" viewBox="0 0 1468.98 1446.14" shape-rendering="geometricPrecision" text-rendering="geometricPrecision" image-rendering="optimizeQuality" fill-rule="evenodd" clip-rule="evenodd"><defs><style>.str0{stroke:#2b2a29;stroke-width:10.17;stroke-miterlimit:2.61313}.fil3{fill:none}.fil0{fill:#2b2a29}.fil0,.fil2,.fil4{fill-rule:nonzero}.fil2{fill:#000}.fil4{fill:#f61d2a}</style></defs><g id="Layer_x0020_1"><g id="_1727993669968"><path class="fil0" d="M554.17 308.36c1.09 20.54 9.94 39.12 23.65 52.83 14.66 14.66 34.89 23.77 57.13 23.77 22.24 0 42.47-9.1 57.14-23.77 13.71-13.71 22.56-32.29 23.65-52.83h.22c.26 5.12.97 10.12 2.1 14.96-3.67 15.77-11.75 29.9-22.85 40.99-15.46 15.46-36.79 25.06-60.25 25.06-23.47 0-44.8-9.6-60.26-25.06-14.51-14.51-23.85-34.19-24.95-55.95h4.42z"/><path class="fil0" d="M720.38 308.36c1.09 20.54 9.94 39.12 23.65 52.83 14.66 14.66 34.89 23.77 57.13 23.77 22.24 0 42.47-9.1 57.14-23.77 13.71-13.71 22.56-32.29 23.65-52.83h4.42c-1.09 21.76-10.44 41.44-24.95 55.95-15.46 15.46-36.79 25.06-60.25 25.06-23.47 0-44.8-9.6-60.26-25.06-14.51-14.51-23.86-34.19-24.95-55.95h4.42z"/><path class="fil0" d="M1052.58 308.36c-1.09 21.76-10.44 41.44-24.95 55.95-15.46 15.46-36.79 25.06-60.25 25.06-23.47 0-44.8-9.6-60.26-25.06-14.51-14.51-23.86-34.19-24.95-55.95h4.42c1.09 20.54 9.94 39.12 23.65 52.83 14.66 14.66 34.89 23.77 57.13 23.77 22.24 0 42.47-9.1 57.13-23.77 13.71-13.71 22.56-32.29 23.65-52.83h4.42z"/><path class="fil0" d="M1052.8 308.36c1.09 20.54 9.94 39.12 23.65 52.83 14.66 14.66 34.89 23.77 57.13 23.77 22.24 0 42.47-9.1 57.13-23.77 13.71-13.71 22.56-32.29 23.65-52.83h4.42c-1.09 21.76-10.44 41.44-24.95 55.95-15.46 15.46-36.79 25.06-60.25 25.06-23.47 0-44.8-9.6-60.26-25.06-14.51-14.51-23.86-34.19-24.95-55.95h4.42z"/><path class="fil0" d="M1385 308.36c-1.1 21.76-10.44 41.44-24.95 55.95-15.46 15.46-36.79 25.06-60.25 25.06-23.47 0-44.8-9.6-60.26-25.06-14.51-14.51-23.86-34.19-24.95-55.95h4.42c1.09 20.54 9.94 39.12 23.65 52.83 14.66 14.66 34.89 23.77 57.13 23.77 22.24 0 42.47-9.1 57.13-23.77 13.71-13.71 22.56-32.29 23.65-52.83h4.42z"/><path class="fil0" d="M1385.23 308.36c1.09 20.54 9.94 39.12 23.65 52.83 14.66 14.66 34.89 23.77 57.13 23.77h.32v4.42h-.32c-23.47 0-44.8-9.6-60.26-25.06-14.51-14.51-23.86-34.19-24.95-55.95h4.42z"/><path fill="#9d9e9e" fill-rule="nonzero" d="M554.91 300.85h914.07v17.66H554.91z"/><path class="fil2" d="M556.37 308.25c.52 9.82 2.86 19.18 6.7 27.74 3.96 8.84 9.53 16.85 16.32 23.64 7.27 7.27 15.95 13.14 25.57 17.14a77.92 77.92 0 0030 5.98 77.97 77.97 0 0030.01-5.98c9.62-4 18.3-9.87 25.57-17.14 13.34-13.34 21.96-31.42 23.01-51.38l.11-2.1h4.4l.11 2.1c.12 2.46.36 4.91.7 7.34.34 2.43.8 4.84 1.35 7.23v1a86.699 86.699 0 01-8.75 22.6 88.347 88.347 0 01-14.69 19.45 87.88 87.88 0 01-28.43 19.05 86.891 86.891 0 01-33.38 6.65c-11.8 0-23.08-2.37-33.38-6.65-10.71-4.45-20.36-10.98-28.43-19.05a87.915 87.915 0 01-18.17-26.4 86.608 86.608 0 01-7.42-31l-.12-2.31h8.82l.11 2.1zm2.68 29.53a82.277 82.277 0 01-6.94-27.21c.73 9.57 3.13 18.7 6.87 27.11 4.18 9.39 10.08 17.88 17.27 25.08 7.68 7.68 16.84 13.88 27 18.1a82.418 82.418 0 0030.82 6.3 82.162 82.162 0 01-30.82-6.32 83.65 83.65 0 01-27-18.09 83.74 83.74 0 01-17.21-24.97zm107.6 43.06a82.354 82.354 0 01-31.69 6.32c11.22 0 21.93-2.25 31.7-6.31a83.733 83.733 0 0027-18.1 83.6 83.6 0 0013.96-18.46 82.4 82.4 0 008.19-20.98l-.01-.03c-3.63 15.18-11.45 28.77-22.15 39.47-7.67 7.67-16.84 13.87-27 18.09z"/><path class="fil2" d="M722.58 308.25c.52 9.82 2.86 19.18 6.7 27.74 3.96 8.84 9.53 16.85 16.32 23.64 7.27 7.27 15.95 13.14 25.57 17.14a77.92 77.92 0 0030 5.98 77.97 77.97 0 0030.01-5.98c9.61-4 18.3-9.87 25.57-17.14 13.34-13.34 21.96-31.42 23.01-51.38l.11-2.1h8.82l-.12 2.31a86.608 86.608 0 01-7.42 31 87.972 87.972 0 01-18.17 26.4 87.987 87.987 0 01-28.43 19.05 86.891 86.891 0 01-33.38 6.65c-11.8 0-23.08-2.37-33.38-6.65-10.71-4.45-20.36-10.98-28.43-19.05a87.915 87.915 0 01-18.17-26.4 86.608 86.608 0 01-7.42-31l-.12-2.31h8.82l.11 2.1zm2.68 29.53a82.277 82.277 0 01-6.94-27.21c.73 9.57 3.12 18.7 6.87 27.11 4.18 9.39 10.08 17.88 17.28 25.08 7.68 7.68 16.84 13.88 27 18.1a82.377 82.377 0 0030.82 6.3 82.306 82.306 0 01-30.81-6.32 83.65 83.65 0 01-27-18.09 83.74 83.74 0 01-17.21-24.97zm107.6 43.06a82.316 82.316 0 01-31.69 6.32 82.47 82.47 0 0031.7-6.31 83.733 83.733 0 0027-18.1 83.664 83.664 0 0017.28-25.08c3.74-8.4 6.14-17.53 6.89-27.11-1.61 20.28-10.56 38.57-24.17 52.18-7.67 7.67-16.84 13.87-27 18.09z"/><path class="fil2" d="M1054.78 308.47a86.608 86.608 0 01-7.42 31 87.972 87.972 0 01-18.17 26.4 87.987 87.987 0 01-28.43 19.05 86.854 86.854 0 01-33.38 6.65c-11.8 0-23.08-2.37-33.38-6.65-10.71-4.45-20.36-10.98-28.43-19.05a87.915 87.915 0 01-18.17-26.4 86.818 86.818 0 01-7.42-31l-.12-2.31h8.82l.11 2.1c.52 9.82 2.86 19.18 6.7 27.74 3.96 8.84 9.53 16.85 16.32 23.64 7.27 7.27 15.95 13.14 25.57 17.14a77.92 77.92 0 0030 5.98 77.97 77.97 0 0030.01-5.98c9.61-4 18.3-9.87 25.57-17.14 13.34-13.34 21.96-31.42 23.01-51.38l.11-2.1h8.82l-.12 2.31zm-11.43 29.21c3.74-8.4 6.14-17.53 6.89-27.11-1.61 20.28-10.55 38.57-24.17 52.18-7.67 7.67-16.83 13.87-27 18.09a82.316 82.316 0 01-31.69 6.32 82.47 82.47 0 0031.7-6.31 83.733 83.733 0 0027-18.1 83.664 83.664 0 0017.28-25.08zm-107.67 43.18c9.38 3.9 19.64 6.13 30.37 6.3a82.325 82.325 0 01-30.37-6.31 83.65 83.65 0 01-27-18.09 83.74 83.74 0 01-17.21-24.97 82.033 82.033 0 01-6.94-27.21c.73 9.57 3.12 18.7 6.87 27.11 4.18 9.39 10.08 17.88 17.28 25.08 7.68 7.68 16.84 13.88 27 18.1z"/><path class="fil2" d="M1055 308.25c.52 9.82 2.86 19.18 6.7 27.74 3.96 8.84 9.53 16.85 16.32 23.64a79.344 79.344 0 0025.57 17.14 77.92 77.92 0 0030 5.98 77.97 77.97 0 0030.01-5.98c9.61-4 18.3-9.87 25.57-17.14 13.34-13.34 21.96-31.42 23.01-51.38l.11-2.1h8.82l-.12 2.31a86.608 86.608 0 01-7.42 31 87.972 87.972 0 01-18.17 26.4 87.987 87.987 0 01-28.43 19.05 86.854 86.854 0 01-33.38 6.65c-11.8 0-23.08-2.37-33.38-6.65-10.71-4.45-20.36-10.98-28.43-19.05a87.915 87.915 0 01-18.17-26.4 86.818 86.818 0 01-7.42-31l-.12-2.31h8.82l.11 2.1zm2.68 29.53a82.033 82.033 0 01-6.94-27.21c.73 9.57 3.12 18.7 6.87 27.11 4.18 9.39 10.08 17.88 17.28 25.08 7.68 7.68 16.84 13.88 27 18.1a82.314 82.314 0 0030.8 6.3 82.203 82.203 0 01-30.79-6.32 83.65 83.65 0 01-27-18.09 83.74 83.74 0 01-17.21-24.97zm107.6 43.06a82.316 82.316 0 01-31.69 6.32 82.47 82.47 0 0031.7-6.31 83.733 83.733 0 0027-18.1 83.664 83.664 0 0017.28-25.08c3.74-8.4 6.14-17.53 6.89-27.11-1.61 20.28-10.55 38.57-24.17 52.18-7.67 7.67-16.83 13.87-27 18.09z"/><path class="fil2" d="M1387.2 308.47a86.608 86.608 0 01-7.42 31 87.972 87.972 0 01-18.17 26.4 87.987 87.987 0 01-28.43 19.05 86.891 86.891 0 01-33.38 6.65c-11.8 0-23.08-2.37-33.39-6.65a88.147 88.147 0 01-28.43-19.05 87.915 87.915 0 01-18.17-26.4 86.608 86.608 0 01-7.42-31l-.12-2.31h8.82l.11 2.1c.52 9.82 2.86 19.18 6.7 27.74 3.96 8.84 9.53 16.85 16.32 23.64 7.27 7.27 15.95 13.14 25.57 17.14a77.92 77.92 0 0030 5.98 77.97 77.97 0 0030.01-5.98c9.61-4 18.3-9.87 25.57-17.14 13.34-13.34 21.96-31.42 23.01-51.38l.11-2.1h8.82l-.12 2.31zm-11.43 29.21c3.75-8.4 6.14-17.53 6.89-27.11-1.61 20.28-10.56 38.57-24.17 52.18-7.67 7.67-16.83 13.87-27 18.09a82.316 82.316 0 01-31.69 6.32 82.47 82.47 0 0031.7-6.31 83.733 83.733 0 0027-18.1 83.453 83.453 0 0017.27-25.08zm-107.66 43.18a82.525 82.525 0 0030.65 6.3 82.447 82.447 0 01-30.64-6.31 83.758 83.758 0 01-27-18.09 83.74 83.74 0 01-17.21-24.97 82.033 82.033 0 01-6.94-27.21c.73 9.57 3.12 18.7 6.87 27.11 4.18 9.39 10.08 17.88 17.28 25.08 7.68 7.68 16.84 13.88 27 18.1zm30.65 6.3h.14-.14z"/><path class="fil2" d="M1387.43 308.25c.52 9.82 2.86 19.18 6.69 27.74 3.96 8.84 9.53 16.85 16.32 23.64 7.27 7.27 15.95 13.14 25.57 17.14a77.92 77.92 0 0030 5.98l2.53-.01v8.81l-2.51.02a86.65 86.65 0 01-33.4-6.64c-10.71-4.45-20.36-10.98-28.43-19.05a87.915 87.915 0 01-18.17-26.4 86.608 86.608 0 01-7.42-31l-.12-2.31h8.82l.11 2.1zm2.68 29.53a82.033 82.033 0 01-6.94-27.21c.74 9.57 3.13 18.7 6.87 27.11 4.18 9.39 10.08 17.88 17.28 25.08 7.68 7.68 16.84 13.88 27 18.1a82.48 82.48 0 0029.81 6.29 82.359 82.359 0 01-29.8-6.3 83.758 83.758 0 01-27-18.09 83.74 83.74 0 01-17.21-24.97z"/><path class="fil0" d="M547.98 306.48L692.22 2.54l7.96 3.75-144.24 303.95zm168.19.59L809.86 3.12l8.42 2.59-93.69 303.95zm163.66.47L938.21 3.59l8.66 1.65-58.39 303.95zm166.14.49l23.28-303.94 8.8.65-23.28 303.95zm166.19.33V4.42h8.83v303.94zm166.25.49L1344.74 4.9l8.76-.97 33.67 303.95z"/><path class="fil0" d="M696.2 0h652.93v8.83H696.2z"/><path class="fil3 str0" d="M694.88 367.71v334.65h-88.73V386.68a86.634 86.634 0 0028.81 4.91c11.8 0 23.08-2.37 33.38-6.65a87.858 87.858 0 0026.54-17.22z"/><path class="fil0" d="M466.41 697.94h463.56c12.31 0 23.51 5.04 31.63 13.15 8.13 8.14 13.17 19.33 13.17 31.64v290.06c0 12.31-5.04 23.51-13.15 31.63-8.14 8.13-19.33 13.17-31.64 13.17H659.61c-.12-3.73-2.17-7-5.17-8.83h275.54c9.89 0 18.89-4.05 25.41-10.56 6.51-6.52 10.56-15.51 10.56-25.41V742.73c0-9.89-4.05-18.89-10.56-25.41-6.52-6.51-15.51-10.56-25.41-10.56H466.42c-9.89 0-18.89 4.05-25.41 10.56-6.51 6.52-10.56 15.51-10.56 25.41v56.5h-8.83v-56.5c0-12.31 5.04-23.51 13.15-31.63 8.13-8.13 19.33-13.17 31.64-13.17zm1.82 379.66h-1.82c-12.31 0-23.51-5.04-31.63-13.16-8.13-8.13-13.17-19.33-13.17-31.64V908.79l8.83-2.05v126.07c0 9.89 4.05 18.89 10.56 25.41 6.52 6.51 15.51 10.56 25.41 10.56h13.32a24.995 24.995 0 00-11.5 8.83z"/><path class="fil0" d="M697.46 699.15c49.59 46.46 90.11 103.88 118.28 168.76 27.16 62.52 42.85 131.98 44.16 205.2l.08 4.49H659.59c-.12-3.73-2.17-7-5.17-8.83H851c-1.84-70.4-17.18-137.16-43.33-197.38-27.44-63.17-66.8-119.17-114.97-164.62H466.4c-9.89 0-18.89 4.05-25.41 10.56-6.51 6.52-10.56 15.51-10.56 25.41v56.5h-8.83v-56.5c0-12.31 5.04-23.51 13.15-31.63 8.13-8.13 19.33-13.17 31.64-13.17h228.03l3.02 1.21zM468.23 1077.6h-1.82c-12.31 0-23.51-5.04-31.63-13.16-8.13-8.13-13.17-19.33-13.17-31.64V908.79l8.83-2.05v126.07c0 9.89 4.05 18.89 10.56 25.41 6.52 6.51 15.51 10.56 25.41 10.56h13.32a24.995 24.995 0 00-11.5 8.83z"/><path class="fil3 str0" d="M496.05 940.07h194.69m-192.7 57.61h158.93"/><path class="fil0" d="M1440.34 919.31H974.76v113.49c0 12.31-5.04 23.51-13.15 31.63a44.983 44.983 0 01-5.03 4.34h483.76v8.83H929.96v-8.83c9.89 0 18.89-4.05 25.41-10.56 6.51-6.52 10.56-15.51 10.56-25.41V910.48h474.41v8.83z"/><path class="fil3 str0" d="M1323.14 1073.19v149.63h-200.65v-149.63z"/><rect class="fil3 str0" x="1001.31" y="1222.82" width="445.66" height="63.57" rx="31.79" ry="31.79"/><path class="fil0" d="M363.99 1044.24c12.45-7.57 20.62-21.58 24.09-42.64 3.6-21.9 2.1-51.21-4.95-88.54l-.78-4.14 31.8-7.44c71.72-16.67 137.28-31.92 160.59-54.21 11-10.52 11.56-23.15-3.1-39.21h-184.6c-17.94 2.55-33.81 6.82-47.68 12.72-13.75 5.85-25.53 13.3-35.41 22.29L200.32 970.46c-19.68 27.22-26.25 61.07-32.59 93.76-8.4 43.3-16.43 84.67-53.34 108.66l-4.8-7.38c33.77-21.94 41.45-61.51 49.48-102.93 6.52-33.64 13.28-68.47 34.11-97.27L297.3 837.31l.45-.46c10.7-9.79 23.4-17.87 38.16-24.16 14.67-6.24 31.41-10.73 50.29-13.39l.6-.05h188.61l1.32 1.38c20.31 21.25 19.41 38.38 4.08 53.04-25.04 23.94-91.72 39.45-164.65 56.41l-23.6 5.52c6.58 36.41 7.85 65.37 4.22 87.44-3.9 23.76-13.48 39.78-28.22 48.75l-4.55-7.52z"/><rect class="fil3 str0" transform="matrix(.56126 .5994 -.55953 .52393 67.901 1122.1)" width="434.66" height="123.54" rx="19.83" ry="19.83"/><path class="fil3 str0" d="M270.15 1338.09c16.77-15.47 39.84-32.43 70.95-31.84h91.38c35.91-10.53 62.54-25.89 75.49-48.34"/><rect class="fil3 str0" x="410.96" y="1196.33" width="196.01" height="62.91" rx="27.46" ry="24.79"/><path class="fil3 str0" d="M463.89 1133.42h161.45c5.37 0 9.76 4.39 9.76 9.76v21.69c0 17.3-14.15 31.45-31.45 31.45H463.88c-13.64 0-24.79-11.15-24.79-24.79v-13.33c0-13.64 11.16-24.79 24.79-24.79zm24.5-66.22h160.46c5.92 0 10.76 4.84 10.76 10.76v20.7c0 17.3-14.15 31.45-31.45 31.45H488.39c-13.64 0-24.79-11.15-24.79-24.79v-13.33c0-13.64 11.15-24.79 24.79-24.79z"/><path class="fil4" d="M455.96 611.16l-16.55-98.34 8.69-1.44 16.55 98.33zm-177.48-84.48l104.96 114.89-6.51 5.94-104.96-114.89zm-64.64 166.19l123.83 25.17-1.72 8.62-123.83-25.17z"/><circle cx="1212.8" cy="657.94" r="150.61" fill="#fefefe"/><path class="fil4" d="M1212.8 503.15c42.74 0 81.44 17.33 109.46 45.34 28.01 28.01 45.34 66.72 45.34 109.46 0 42.74-17.33 81.44-45.34 109.46-28.01 28.01-66.71 45.34-109.46 45.34-42.74 0-81.45-17.33-109.46-45.34-28.01-28.01-45.34-66.71-45.34-109.46 0-42.74 17.32-81.45 45.34-109.46 28.01-28.01 66.72-45.34 109.46-45.34zm103.54 51.26c-26.5-26.5-63.1-42.88-103.54-42.88-40.43 0-77.04 16.39-103.53 42.88-26.5 26.49-42.88 63.1-42.88 103.53s16.39 77.04 42.88 103.53c26.49 26.5 63.1 42.88 103.53 42.88s77.04-16.39 103.54-42.88c26.49-26.5 42.88-63.1 42.88-103.53s-16.39-77.04-42.88-103.53z"/><path class="fil4" d="M1171.08 725.31v-52.66h-15.28v-8.38h15.28v-81.66h65.75c19.27 0 31.78 12 37.25 27.27 2.05 5.74 3.1 11.95 3.12 18.14.02 6.17-.99 12.37-3.05 18.08-5.38 14.94-17.74 26.56-37.32 26.56h-57.38v52.66h-8.38zm8.38-134.33v73.29h57.38c15.46 0 25.22-9.19 29.47-21 1.72-4.78 2.57-10.02 2.56-15.26-.01-5.25-.9-10.49-2.63-15.32-4.35-12.16-14.23-21.71-29.4-21.71h-57.38z"/><path class="fil4" d="M1228.67 689.61h-74.13v-8.38h74.13z"/></g></g></svg>