<svg xmlns="http://www.w3.org/2000/svg" width="174.265" height="190.309" viewBox="0 0 1372.39 1498.75" shape-rendering="geometricPrecision" text-rendering="geometricPrecision" image-rendering="optimizeQuality" fill-rule="evenodd" clip-rule="evenodd"><defs><style>.str0{stroke:#2b2a29;stroke-width:10.5;stroke-miterlimit:2.61313}.fil0{fill:none}.fil2{fill:#2b2a29;fill-rule:nonzero}</style></defs><g id="Layer_x0020_1"><g id="_1728001730432"><rect class="fil0 str0" transform="matrix(0 .50331 .92028 0 5.251 943.331)" width="1093.1" height="215.78" rx="55.7" ry="55.7"/><path class="fil0 str0" d="M203.83 1026.39c86.5-8.27 129.56-103.99 279.81-106.06 74.38 2.07 118.85 30.09 178.27 45.13h98.16c108.62 17.37 229.66 82.72 186.17 137.65H637.08"/><path class="fil0 str0" d="M203.83 1341.19c74.84-20.69 107.65-59.42 224.52-62.05 92.52-.57 153.45 29.9 260.64 30.46 222.9 8.8 471.94-188.2 676.98-356.54-14.61-33.01-54.21-43.34-109.45-39.5-138.29 17.11-201.59 94.78-302.38 142.17m247.94-131.55c-194.26-59.77-251.98 39.83-345.53 68.35m188.57-83.21c-166.86-47.01-216.64 37.43-312.69 56.14"/><circle cx="682.17" cy="438.9" r="314.05" fill="#fefefe"/><path class="fil2" d="M682.17 116.12c89.13 0 169.82 36.13 228.24 94.54 58.41 58.41 94.54 139.11 94.54 228.24s-36.13 169.82-94.54 228.24C852 725.55 771.3 761.68 682.17 761.68s-169.83-36.13-228.24-94.54c-58.41-58.41-94.54-139.11-94.54-228.24s36.13-169.83 94.54-228.24c58.41-58.41 139.11-94.54 228.24-94.54zm215.89 106.89c-55.25-55.25-131.58-89.42-215.89-89.42-84.31 0-160.65 34.17-215.89 89.42-55.25 55.24-89.42 131.58-89.42 215.89 0 84.31 34.17 160.64 89.42 215.89 55.24 55.25 131.58 89.42 215.89 89.42 84.31 0 160.64-34.17 215.89-89.42 55.24-55.25 89.42-131.58 89.42-215.89 0-84.31-34.18-160.65-89.42-215.89z"/><path class="fil2" d="M595.17 579.39V469.58H563.3v-17.47h31.87V281.82h137.11c40.19 0 66.27 25.01 77.68 56.86 4.29 11.97 6.47 24.92 6.51 37.82.03 12.87-2.07 25.79-6.36 37.69-11.22 31.15-36.99 55.38-77.83 55.38H612.64v109.81h-17.47zm17.47-280.1v152.82h119.64c32.24 0 52.59-19.16 61.46-43.78 3.59-9.97 5.36-20.89 5.33-31.83-.03-10.94-1.87-21.88-5.48-31.96-9.08-25.35-29.68-45.25-61.31-45.25H612.64z"/><path class="fil2" d="M715.24 504.94H560.68v-17.47h154.56z"/><path class="fil0 str0" d="M446.36 103.8h92.22l68.6-68.6c39.93-39.93 105.27-39.93 145.21 0l68.6 68.6H918c56.47 0 102.67 46.2 102.67 102.67v97.01l65.21 65.21c39.93 39.94 39.93 105.27 0 145.2l-65.21 65.21v92.22c0 56.47-46.2 102.67-102.67 102.67h-92.22l-68.6 68.6c-39.93 39.93-105.27 39.93-145.2 0l-68.6-68.6h-97.01c-56.48 0-102.68-46.2-102.68-102.67v-97.01l-65.21-65.21c-39.93-39.94-39.93-105.27 0-145.2l65.21-65.21v-92.22c0-56.47 46.2-102.67 102.68-102.67z"/></g></g></svg>