<svg xmlns="http://www.w3.org/2000/svg" width="190.045" height="188.976" viewBox="0 0 1979.64 1968.5" shape-rendering="geometricPrecision" text-rendering="geometricPrecision" image-rendering="optimizeQuality" fill-rule="evenodd" clip-rule="evenodd"><defs><style>.fil4{fill:#fefefe}.fil0{fill:#2b2a29}.fil0,.fil1,.fil2{fill-rule:nonzero}.fil1{fill:#000}.fil2{fill:#f61d2a}</style></defs><g id="Layer_x0020_1"><g id="_1693499888976"><path class="fil0" d="M1506.01 3c48.57 0 92.72 19.86 124.72 51.86s51.87 76.15 51.87 124.71v64.75h-6v-64.75c0-46.9-19.2-89.55-50.11-120.47s-73.56-50.11-120.46-50.11c-46.91 0-89.56 19.19-120.48 50.11-30.92 30.91-50.11 73.56-50.11 120.47v64.75h-6v-64.75c0-48.56 19.86-92.71 51.86-124.71S1457.45 3 1506.01 3z"/><path class="fil1" d="M1506.01 0c24.21 0 47.35 4.86 68.49 13.65 21.97 9.14 41.77 22.52 58.34 39.09 16.57 16.57 29.96 36.37 39.09 58.35 8.79 21.14 13.65 44.28 13.65 68.48v67.74h-11.99v-67.74c0-22.6-4.54-44.19-12.73-63.9-8.52-20.48-21.02-38.97-36.5-54.45-15.47-15.48-33.95-27.98-54.45-36.5-19.71-8.2-41.3-12.73-63.9-12.73-22.61 0-44.2 4.53-63.91 12.73-20.5 8.52-38.98 21.02-54.45 36.49-15.48 15.48-27.98 33.96-36.5 54.46-8.2 19.7-12.73 41.3-12.73 63.9v67.74h-11.99v-67.74c0-24.2 4.86-47.35 13.65-68.49 9.14-21.97 22.52-41.77 39.09-58.34 16.57-16.57 36.37-29.96 58.34-39.09C1458.65 4.86 1481.79 0 1506 0zm66.2 19.18c-19.29-8.02-40.33-12.65-62.35-13.14 22 .48 43.04 5.12 62.35 13.16 21.21 8.82 40.35 21.76 56.39 37.8 16.03 16.02 28.97 35.16 37.8 56.39 8.5 20.43 13.2 42.8 13.2 66.19 0-23.41-4.69-45.78-13.18-66.19-8.83-21.22-21.77-40.37-37.8-56.4-16.04-16.04-35.17-28.97-56.4-37.8zM1506.01 6c-23.42 0-45.79 4.69-66.2 13.18-21.22 8.83-40.36 21.77-56.4 37.8-16.04 16.04-28.97 35.17-37.8 56.4-8.49 20.41-13.18 42.78-13.18 66.2 0-23.39 4.7-45.76 13.2-66.19 8.82-21.22 21.76-40.35 37.79-56.38 16.04-16.05 35.18-28.98 56.4-37.8 20.43-8.5 42.8-13.2 66.19-13.2z"/><path class="fil0" d="M797.25 238.33h883.79v1310.69H791.26l-.08-160.41h12.07v148.41h865.8V250.31h-865.8v500.33h-12.17c.02-170.78.08-341.55.18-512.32h5.99zm-6.1 1080.17c-.05-153.7-.08-307.42-.08-461.13 4.14-1.37 8.2-2.84 12.18-4.41v478.47c-3.73-4.5-7.76-8.81-12.1-12.94z"/><path class="fil0" d="M1967.65 250.32h-286.6v1286.71h286.6V250.32zm-292.6-11.99h304.59v1310.69h-310.58c-.25-436.89-.25-873.81 0-1310.69h5.99z"/><path class="fil0" d="M1830.34 244.32v1072.06l-1.01 3.28-149.29 226.64-9.98-6.56 148.29-225.1V244.32z"/><path class="fil0" d="M1829.33 1313.1l149.3 226.64-9.98 6.56-149.29-226.64zm-760.91-869.7c22.76 0 43.37 9.23 58.3 24.15 14.92 14.92 24.15 35.53 24.15 58.29 0 22.76-9.23 43.37-24.15 58.3-14.92 14.92-35.53 24.15-58.3 24.15-22.76 0-43.37-9.23-58.29-24.15-14.92-14.92-24.15-35.53-24.15-58.3 0-22.76 9.23-43.37 24.15-58.29 14.92-14.92 35.53-24.15 58.29-24.15zm49.82 32.63c-12.75-12.75-30.36-20.63-49.82-20.63-19.45 0-37.07 7.89-49.81 20.63-12.74 12.75-20.63 30.36-20.63 49.81 0 19.45 7.89 37.07 20.63 49.81 12.75 12.75 30.36 20.63 49.81 20.63 19.46 0 37.07-7.89 49.82-20.63 12.74-12.74 20.63-30.36 20.63-49.81 0-19.45-7.89-37.07-20.63-49.81zm299.14-32.63c22.76 0 43.37 9.23 58.29 24.15 14.92 14.92 24.15 35.53 24.15 58.29 0 22.76-9.23 43.37-24.15 58.3-14.92 14.92-35.53 24.15-58.29 24.15-22.76 0-43.37-9.23-58.3-24.15-14.92-14.92-24.15-35.53-24.15-58.3 0-22.76 9.23-43.37 24.15-58.29 14.92-14.92 35.53-24.15 58.3-24.15zm49.81 32.63c-12.75-12.75-30.36-20.63-49.81-20.63-19.46 0-37.07 7.89-49.82 20.63-12.74 12.75-20.63 30.36-20.63 49.81 0 19.45 7.89 37.07 20.63 49.81 12.75 12.75 30.36 20.63 49.82 20.63 19.45 0 37.07-7.89 49.81-20.63 12.74-12.74 20.63-30.36 20.63-49.81 0-19.45-7.89-37.07-20.63-49.81z"/><path class="fil0" d="M1242.9 3c48.57 0 92.72 19.86 124.72 51.86s51.87 76.15 51.87 124.71v330.97h-6V179.57c0-46.9-19.2-89.55-50.11-120.47-30.92-30.92-73.56-50.11-120.47-50.11s-89.56 19.19-120.48 50.11c-30.92 30.91-50.11 73.56-50.11 120.47v330.97h-6V179.57c0-48.56 19.86-92.71 51.86-124.71S1194.33 3 1242.89 3z"/><path class="fil1" d="M1242.9 0c24.21 0 47.35 4.86 68.49 13.65 21.97 9.14 41.77 22.52 58.34 39.09 16.57 16.57 29.96 36.37 39.09 58.35 8.79 21.14 13.65 44.28 13.65 68.48v333.96h-11.99V179.57c0-22.6-4.53-44.19-12.73-63.9-8.52-20.48-21.02-38.97-36.5-54.45-15.47-15.48-33.95-27.98-54.45-36.5-19.7-8.2-41.3-12.73-63.9-12.73-22.61 0-44.2 4.53-63.91 12.73-20.5 8.52-38.98 21.02-54.45 36.49-15.48 15.48-27.98 33.96-36.5 54.46-8.2 19.7-12.73 41.3-12.73 63.9v333.96h-11.99V179.57c0-24.2 4.86-47.35 13.65-68.49 9.14-21.97 22.52-41.77 39.09-58.34 16.57-16.57 36.37-29.96 58.34-39.09C1195.54 4.86 1218.68 0 1242.89 0zm66.2 19.18a171.982 171.982 0 00-62.28-13.14c21.98.5 42.99 5.13 62.28 13.16 21.21 8.82 40.35 21.76 56.39 37.8 16.03 16.02 28.97 35.16 37.8 56.39 8.5 20.43 13.2 42.8 13.2 66.19 0-23.41-4.69-45.78-13.18-66.19-8.83-21.22-21.77-40.37-37.8-56.4-16.03-16.04-35.17-28.97-56.4-37.8zM1242.9 6c-23.42 0-45.79 4.69-66.2 13.18-21.22 8.83-40.36 21.77-56.4 37.8-16.04 16.04-28.97 35.17-37.8 56.4-8.49 20.41-13.18 42.78-13.18 66.2 0-23.39 4.7-45.76 13.2-66.19 8.82-21.22 21.76-40.35 37.79-56.38 16.04-16.05 35.18-28.98 56.4-37.8 20.43-8.5 42.8-13.2 66.19-13.2z"/><path class="fil2" d="M1193.8 844.89v82.07h-12v-82.07zm-90.77 101.71h48.12v11.99h-48.12zm78.77 113.7v-82.07h12v82.07zm90.77-101.71h-48.12V946.6h48.12z"/><path d="M628.99 1499.01v63.36h-12v-63.36zm-71.44 77.16h37.15v11.99h-37.15zm59.44 89.15v-63.37h12v63.37zm71.44-77.16h-37.14v-11.99h37.14z" fill="#f61d2a" fill-rule="nonzero"/><path class="fil0" d="M42.87 950.31H149c11.78 0 22.5 4.82 30.26 12.59 7.79 7.76 12.61 18.49 12.61 30.28v443.39c0 11.78-4.83 22.5-12.59 30.26-7.79 7.79-18.51 12.61-30.28 12.61H42.87c-11.8 0-22.52-4.83-30.28-12.59C4.83 1459.06 0 1448.34 0 1436.57V993.18c0-11.8 4.82-22.52 12.59-30.28 7.76-7.76 18.49-12.59 30.28-12.59zM149 962.3H42.87c-8.49 0-16.21 3.48-21.81 9.07-5.59 5.6-9.07 13.32-9.07 21.81v443.39c0 8.5 3.47 16.22 9.06 21.82 5.61 5.58 13.33 9.06 21.81 9.06h106.13c8.5 0 16.22-3.48 21.82-9.06 5.59-5.59 9.06-13.32 9.06-21.82V993.18c0-8.49-3.48-16.21-9.07-21.81-5.58-5.6-13.31-9.07-21.81-9.07z"/><path class="fil0" d="M185.87 1050.14h98.78c34.56-55.4 72.82-108.39 116.18-158.03 44.11-50.5 93.53-97.57 149.74-140.22l3.61-1.24h351.87l-3.72 8.41c-14.47 32.7-35.69 57.2-62.43 74.97-26.53 17.62-58.46 28.54-94.57 34.19l-.91.09H633.39c-38.8 19.76-72.04 42.68-99.09 69.11-26.92 26.3-47.73 56.09-61.8 89.72v128.69c10.72 28.18 26.81 52.04 48.75 71.15 22.12 19.27 50.27 33.76 84.94 43.04h86.05l1.33.17c38.02 8.73 67.57 22.85 89.95 41.49 22.57 18.79 37.8 42.07 47.04 68.98l2.73 7.94H185.88v-11.99h630.38c-8.7-21.56-21.87-40.33-40.38-55.75-20.8-17.32-48.47-30.53-84.27-38.84h-86.17l-1.52-.21c-36.91-9.76-66.91-25.18-90.55-45.78-23.72-20.67-41.03-46.53-52.48-77.09l-.4-2.09v-130.86l.47-2.27c14.72-35.65 36.61-67.16 64.99-94.88 28.24-27.59 62.91-51.43 103.33-71.88l2.69-.65h112.11c34.18-5.42 64.3-15.72 89.2-32.27 22.5-14.94 40.82-35.08 54.1-61.41H556.14c-54.81 41.78-103.11 87.87-146.32 137.34-43.65 49.98-82.1 103.41-116.78 159.29l-1.77 2.86H185.88v-11.99z"/><circle class="fil4" cx="803.99" cy="1073.24" r="215.63"/><path class="fil2" d="M803.99 851.62c61.19 0 116.6 24.81 156.71 64.91 40.11 40.11 64.91 95.52 64.91 156.71 0 61.2-24.81 116.6-64.91 156.71-40.11 40.11-95.52 64.91-156.71 64.91-61.2 0-116.61-24.81-156.71-64.91-40.1-40.11-64.91-95.51-64.91-156.71s24.81-116.61 64.91-156.71c40.11-40.1 95.52-64.91 156.71-64.91zm148.23 73.39c-37.94-37.93-90.35-61.39-148.23-61.39-57.89 0-110.3 23.46-148.24 61.39-37.93 37.93-61.39 90.35-61.39 148.24 0 57.89 23.46 110.3 61.39 148.23 37.93 37.93 90.35 61.4 148.24 61.4 57.89 0 110.3-23.46 148.23-61.4 37.93-37.94 61.4-90.35 61.4-148.23 0-57.89-23.46-110.3-61.4-148.24z"/><path class="fil2" d="M744.25 1169.71v-75.4h-21.88v-11.99h21.88V965.4h94.14c27.59 0 45.5 17.17 53.33 39.04 2.94 8.22 4.44 17.11 4.47 25.96.02 8.84-1.42 17.71-4.37 25.88-7.7 21.39-25.4 38.02-53.44 38.02h-82.15v75.4h-11.99zm11.99-192.32v104.92h82.15c22.14 0 36.11-13.15 42.2-30.06 2.46-6.85 3.69-14.34 3.66-21.85-.02-7.51-1.28-15.02-3.76-21.94-6.24-17.4-20.38-31.07-42.1-31.07h-82.15z"/><path class="fil2" d="M826.7 1118.59H720.57v-11.99H826.7z"/><path class="fil4" d="M1165.32 1373.86h541.42v97.58h-601.68v-37.32c0-33.15 27.12-60.26 60.26-60.26z"/><path class="fil0" d="M1165.32 1367.87h547.42v109.57h-613.68v-43.31c0-18.23 7.46-34.8 19.46-46.8s28.57-19.46 46.8-19.46zm535.42 11.99h-535.42c-14.92 0-28.49 6.11-38.32 15.94-9.83 9.83-15.94 23.4-15.94 38.32v31.32h589.69v-85.59z"/><circle class="fil4" cx="1326.29" cy="1347.34" r="174.62"/><path class="fil2" d="M1326.3 1166.72c49.87 0 95.03 20.22 127.71 52.9 32.68 32.68 52.9 77.84 52.9 127.72 0 49.87-20.22 95.03-52.9 127.71-32.68 32.68-77.84 52.91-127.71 52.91-49.87 0-95.04-20.22-127.72-52.91-32.68-32.68-52.9-77.84-52.9-127.71 0-49.87 20.22-95.04 52.91-127.72 32.68-32.68 77.84-52.9 127.72-52.9zm119.24 61.38c-30.52-30.51-72.68-49.39-119.24-49.39-46.57 0-88.73 18.87-119.24 49.39-30.52 30.52-49.39 72.67-49.39 119.24 0 46.56 18.87 88.72 49.39 119.24 30.52 30.52 72.68 49.39 119.24 49.39 46.56 0 88.72-18.87 119.24-49.39 30.51-30.51 49.39-72.67 49.39-119.24 0-46.57-18.87-88.72-49.39-119.24z"/><path class="fil2" d="M1276.78 1425.45v-59.92h-16.58v-11.99h16.58v-94.69h77.38c22.91 0 37.76 14.24 44.26 32.37 2.44 6.74 3.67 14.07 3.69 21.41.02 7.28-1.18 14.59-3.6 21.34-6.39 17.75-21.07 31.56-44.34 31.56h-65.39v59.92h-11.99zm11.99-154.61v82.7h65.39c17.36 0 28.33-10.32 33.11-23.59 1.94-5.42 2.91-11.36 2.89-17.31-.01-5.91-1.02-11.87-3-17.39-4.88-13.67-15.98-24.41-33-24.41h-65.39z"/><path class="fil2" d="M1344.69 1385.19h-85.95v-11.99h85.95z"/><path class="fil4" d="M1105.05 1471.45h624.54c39.37 0 71.58 32.21 71.58 71.57v347.91c0 39.37-32.21 71.57-71.58 71.57h-552.97c-39.37 0-71.57-32.21-71.57-71.57v-419.48z"/><path class="fil0" d="M1105.05 1465.45h624.54c21.32 0 40.71 8.73 54.77 22.78 14.08 14.08 22.81 33.47 22.81 54.79v347.9c0 21.32-8.73 40.71-22.78 54.77-14.08 14.08-33.47 22.81-54.79 22.81h-552.96c-21.32 0-40.71-8.73-54.77-22.78-14.08-14.08-22.81-33.47-22.81-54.79v-425.48h6zm624.54 11.99h-618.54v413.48c0 18.04 7.38 34.44 19.26 46.33 11.89 11.87 28.29 19.26 46.33 19.26h552.96c18.04 0 34.44-7.38 46.33-19.26 11.87-11.89 19.26-28.29 19.26-46.33v-347.9c0-18.04-7.38-34.44-19.26-46.33-11.89-11.87-28.29-19.26-46.33-19.26z"/><path class="fil0" d="M1556.99 1619.7h250.18v207.61h-250.18c-14.12 0-26.98-5.79-36.3-15.11-9.33-9.3-15.11-22.16-15.11-36.3v-104.78c0-14.11 5.79-26.97 15.1-36.29 9.34-9.34 22.2-15.12 36.31-15.12zm238.18 11.99h-238.18c-10.85 0-20.71 4.43-27.84 11.56-7.16 7.15-11.59 17.01-11.59 27.86v104.78c0 10.84 4.44 20.69 11.59 27.84 7.13 7.16 16.98 11.59 27.84 11.59h238.18V1631.7z"/><path class="fil0" d="M1625.11 1680.93c11.07 0 21.1 4.49 28.35 11.74 7.26 7.26 11.74 17.28 11.74 28.36 0 11.07-4.49 21.1-11.74 28.35a39.939 39.939 0 01-28.35 11.74c-11.07 0-21.1-4.49-28.36-11.74-7.25-7.25-11.74-17.28-11.74-28.35s4.49-21.1 11.74-28.36c7.26-7.25 17.28-11.74 28.36-11.74zm24.11 15.98c-6.17-6.17-14.7-9.99-24.11-9.99-9.42 0-17.94 3.81-24.11 9.99-6.17 6.17-9.99 14.7-9.99 24.11s3.81 17.94 9.99 24.11c6.17 6.17 14.7 9.99 24.11 9.99s17.94-3.82 24.11-9.99c6.17-6.17 9.99-14.7 9.99-24.11 0-9.42-3.82-17.94-9.99-24.11z"/></g></g></svg>