<svg xmlns="http://www.w3.org/2000/svg" width="186.284" height="189.643" viewBox="0 0 553.97 563.95" shape-rendering="geometricPrecision" text-rendering="geometricPrecision" image-rendering="optimizeQuality" fill-rule="evenodd" clip-rule="evenodd"><defs><style>.str0{stroke:#2b2a29;stroke-width:3.96;stroke-miterlimit:2.61313}.fil0{fill:none}</style></defs><g id="Layer_x0020_1"><g id="_1728000668800"><path class="fil0 str0" d="M344.21 136.52h167c2.59 0 4.45 2.13 4.7 4.7l35.9 371.4c2.53 26.2-21.54 47.87-47.87 47.87H253.02c10.55-3.52 18.15-12.9 18.15-23.85V399.06h8.93c7.58 0 13.78-6.2 13.78-13.78v-25.83c0-7.58-6.2-13.78-13.78-13.78h-59.49c16.73-9.76 22.85-28.71 13.6-43.18-9.58-14.97-32-19.47-50.09-10.05-.5.26-.99.53-1.47.81v.18c0-6.9-1.88-13.31-5.11-18.68l12.91-133.53c.25-2.57 2.12-4.7 4.7-4.7H344.2z"/><circle class="fil0 str0" cx="271.77" cy="189.83" r="20.09"/><circle class="fil0 str0" cx="434.61" cy="189.83" r="20.09"/><path d="M353.51 0c23.09 0 44.08 9.45 59.29 24.66s24.66 36.2 24.66 59.29v52.57h-5.7V83.95c0-21.51-8.8-41.08-22.99-55.26C394.59 14.51 375.02 5.7 353.51 5.7c-21.52 0-41.08 8.8-55.26 22.99-14.18 14.18-22.99 33.75-22.99 55.26v52.57h-5.7V83.95c0-23.09 9.45-44.08 24.66-59.29S330.42 0 353.51 0z" fill="#2b2a29" fill-rule="nonzero"/><path class="fil0 str0" d="M271.18 399.06v137.58c0 13.93-12.3 25.33-27.34 25.33H52.04c-15.04 0-27.34-11.4-27.34-25.33V399.06h246.48z"/><rect class="fil0 str0" x="1.98" y="345.66" width="291.91" height="53.4" rx="14.88" ry="13.78"/><circle class="fil0 str0" cx="119.3" cy="451.71" r="19.23"/><circle class="fil0 str0" cx="176.78" cy="506.2" r="19.23"/><path class="fil0 str0" d="M191.74 435.05l-85.59 85.58m76.51-227.21c0 20.81-18.62 35.14-31.31 52.24-12.69-17.09-31.31-31.43-31.31-52.24 0-18.84 14.02-34.12 31.31-34.12s31.31 15.28 31.31 34.12z"/><path class="fil0 str0" d="M151.35 345.66c12.69-17.09 31.31-31.43 31.31-52.24v-.18c.48-.28.97-.55 1.47-.81 18.08-9.42 40.51-4.92 50.09 10.05 9.26 14.47 3.13 33.41-13.6 43.18h-69.27zm0 0c-12.69-17.09-31.31-31.43-31.31-52.24v-.18c-.48-.28-.97-.55-1.47-.81-18.08-9.42-40.51-4.92-50.09 10.05-9.26 14.47-3.13 33.41 13.6 43.18h69.27z"/></g></g></svg>