<svg xmlns="http://www.w3.org/2000/svg" width="190.627" height="190.309" viewBox="0 0 1406.02 1403.68" shape-rendering="geometricPrecision" text-rendering="geometricPrecision" image-rendering="optimizeQuality" fill-rule="evenodd" clip-rule="evenodd"><defs><style>.str0{stroke:#2b2a29;stroke-width:9.83;stroke-miterlimit:2.61313}.fil1{fill:none}.fil0,.fil2{fill:#2b2a29;fill-rule:nonzero}.fil2{fill:#f61d2a}</style></defs><g id="Layer_x0020_1"><g id="_1693489150592"><path class="fil0" d="M153.57 500.51h35.72v8.43h-35.72c-4.93 0-9.41 2.02-12.66 5.25-3.24 3.25-5.26 7.73-5.26 12.66v694.45h1134.72V526.85c0-4.93-2.02-9.41-5.26-12.66a17.878 17.878 0 00-12.66-5.25h-26.24v-8.43h26.24c7.24 0 13.82 2.97 18.59 7.74 4.79 4.79 7.75 11.37 7.75 18.61v702.88H127.21V526.86c0-7.24 2.97-13.82 7.74-18.59 4.79-4.79 11.37-7.75 18.61-7.75z"/><path class="fil0" d="M133.01 437.29h56.27v8.43h-56.27c-20.14 0-38.45 8.24-51.72 21.52-13.27 13.27-21.52 31.58-21.52 51.72v702.36h1286.46V518.96c0-20.14-8.24-38.45-21.52-51.72-13.27-13.27-31.58-21.52-51.72-21.52h-46.79v-8.43h46.79c22.46 0 42.88 9.19 57.68 23.99 14.8 14.8 23.99 35.22 23.99 57.68v710.79H51.33V518.96c0-22.46 9.19-42.88 23.99-57.68 14.8-14.8 35.22-23.99 57.68-23.99z"/><path class="fil1 str0" d="M1400.96 1225.52c-2.7 95.75-81.85 173.24-178.23 173.24H183.27c-96.38 0-175.52-77.49-178.23-173.24h1395.91z"/><circle class="fil1 str0" cx="225.64" cy="1312.78" r="40.15"/><circle class="fil1 str0" cx="366.33" cy="1312.78" r="40.15"/><path class="fil1 str0" d="M500.05 1225.52h405.92l-46.15 54.38H546.2z"/><path class="fil0" d="M254.41 156.24h921.02V862.7H847.49v-8.43H1167v-689.6H258.63v689.6H561.7v8.43H250.2c-.13-235.48-.13-470.98 0-706.46h4.21z"/><path class="fil1 str0" d="M254.41 4.92h916.8v155.54h-916.8z"/><circle class="fil1 str0" cx="342.45" cy="86.64" r="30.19"/><circle class="fil1 str0" cx="450.1" cy="86.64" r="30.19"/><circle class="fil1 str0" cx="546.2" cy="86.64" r="30.19"/><path class="fil1 str0" d="M843.68 266.04h263.03m-263.03 79.67h263.03m-263.03 79.66h263.03"/><path class="fil2" d="M609.43 896.31h67.02v8.42h-67.02zm60.55-102.21l34.06 59-7.28 4.18-34.06-59zm126.23 4.65l-30.34 58.49-7.48-3.85 30.35-58.49zm-88.43 154.33l-36.36 55.33-7.01-4.61 36.36-55.32z"/><path class="str0" fill="none" fill-rule="nonzero" d="M886.7 1019.95l-41.49-38.44 37.9-40.08-159.49-38.17 50.23 156.11 39.49-41.65 41.5 38.44z"/><path class="fil2" d="M969.83 500.81c34.16 0 65.09 13.85 87.48 36.24s36.23 53.32 36.23 87.48c0 34.16-13.85 65.1-36.23 87.48-22.39 22.38-53.32 36.23-87.48 36.23-34.16 0-65.1-13.85-87.48-36.23-22.39-22.39-36.23-53.32-36.23-87.48 0-34.16 13.85-65.09 36.23-87.48 22.39-22.39 53.32-36.24 87.48-36.24zm81.52 42.19c-20.86-20.86-49.68-33.76-81.52-33.76-31.84 0-60.66 12.9-81.52 33.76s-33.76 49.69-33.76 81.52c0 31.84 12.9 60.66 33.76 81.52S938 739.8 969.83 739.8c31.84 0 60.66-12.91 81.52-33.76 20.86-20.86 33.76-49.69 33.76-81.52 0-31.84-12.9-60.66-33.76-81.52z"/><path class="fil2" d="M898.93 617.23l50.42 54.28 82.94-104.29 6.59 5.23-89.03 111.95-57.07-61.44z"/><path class="fil1 str0" d="M341.04 304.59h64.49l63.23 267.46"/><path class="fil1 str0" d="M416.2 344.4h337.08l-48.69 227.64H433.03c-41.73 0-37.62 65.6 0 65.6h267.29M434.54 427.32h300.97m-284.59 69.26h270.33m-69.93 75.47l20.55-227.65m-83.46 0v227.65M501.79 344.4l29.72 227.65"/><circle class="fil1 str0" cx="481.98" cy="679.99" r="27.94"/><circle class="fil1 str0" cx="630.77" cy="679.99" r="27.94"/></g></g></svg>