<svg width="100" height="95" fill="none" xmlns="http://www.w3.org/2000/svg"><path d="M37.127 6.99a.6.6 0 0 0 .394.159.6.6 0 0 0 .394-.16.627.627 0 0 0 0-.873l-1.419-1.43a.615.615 0 0 0-.867 0 .627.627 0 0 0 0 .874l1.498 1.43zm4.493 4.528a.6.6 0 0 0 .394.159.6.6 0 0 0 .394-.16.627.627 0 0 0 0-.873l-1.419-1.43a.615.615 0 0 0-.867 0 .627.627 0 0 0 0 .874l1.498 1.43zm-5.44.159a.6.6 0 0 0 .395-.16l1.419-1.43a.627.627 0 0 0 0-.873.615.615 0 0 0-.867 0l-1.42 1.43a.627.627 0 0 0 0 .874c.158.08.316.159.474.159zm4.494-4.528a.6.6 0 0 0 .394-.16l1.419-1.429a.627.627 0 0 0 0-.874.615.615 0 0 0-.867 0l-1.42 1.43a.627.627 0 0 0 0 .874c.159.08.316.159.474.159zm19.391 77.445a.615.615 0 0 0-.867 0 .627.627 0 0 0 0 .874l1.419 1.43a.6.6 0 0 0 .394.159.6.6 0 0 0 .394-.16.627.627 0 0 0 0-.873l-1.34-1.43zm4.493 4.528a.615.615 0 0 0-.867 0 .627.627 0 0 0 0 .874l1.419 1.43a.6.6 0 0 0 .394.159.6.6 0 0 0 .394-.16.627.627 0 0 0 0-.873l-1.34-1.43zm-3.941 0l-1.42 1.43a.627.627 0 0 0 0 .874.6.6 0 0 0 .395.159.6.6 0 0 0 .394-.16l1.419-1.429a.627.627 0 0 0 0-.874c-.158-.238-.552-.238-.788 0zm4.493-4.528l-1.42 1.43a.627.627 0 0 0 0 .874.6.6 0 0 0 .395.159.6.6 0 0 0 .394-.16l1.419-1.429a.627.627 0 0 0 0-.874c-.158-.238-.552-.238-.788 0zm-6.07-74.188c1.498 0 2.76-1.271 2.76-2.78 0-1.51-1.262-2.78-2.76-2.78-1.498 0-2.759 1.27-2.759 2.78-.078 1.509 1.183 2.78 2.76 2.78zm0-4.369c.867 0 1.577.715 1.577 1.589s-.71 1.588-1.577 1.588a1.587 1.587 0 0 1-1.576-1.588c0-.874.71-1.589 1.576-1.589zm25.776 76.889c-1.498 0-2.759 1.271-2.759 2.78 0 1.51 1.261 2.78 2.76 2.78 1.497 0 2.758-1.27 2.758-2.78 0-1.509-1.261-2.78-2.759-2.78zm0 4.448a1.587 1.587 0 0 1-1.576-1.588c0-.874.71-1.589 1.576-1.589.867 0 1.577.715 1.577 1.589 0 .873-.71 1.588-1.577 1.588zM72.046 6.118h9.538c.316 0 .63-.239.63-.636 0-.398-.236-.636-.63-.636h-9.538a.624.624 0 0 0-.63.636c0 .397.315.636.63.636zm12.77 0h3.074c.316 0 .63-.239.63-.636 0-.398-.236-.636-.63-.636h-3.074a.624.624 0 0 0-.63.636c0 .397.236.636.63.636zM87.89 8.26h-6.7a.624.624 0 0 0-.63.637c0 .397.236.636.63.636h6.7c.316 0 .63-.239.63-.636a.624.624 0 0 0-.63-.636zm-11.666 0a.624.624 0 0 0-.63.637c0 .397.236.636.63.636h2.129c.315 0 .63-.239.63-.636 0-.398-.236-.636-.63-.636h-2.129zM19.391 88.486H9.774a.624.624 0 0 0-.63.636c0 .318.236.636.63.636h9.538c.316 0 .63-.238.63-.636 0-.397-.236-.636-.55-.636zm-12.77 0H3.547a.624.624 0 0 0-.63.636c0 .318.236.636.63.636h3.074c.316 0 .63-.238.63-.636a.624.624 0 0 0-.63-.636zm-3.074-2.143h6.7c.316 0 .63-.239.63-.636a.625.625 0 0 0-.63-.636h-6.7a.624.624 0 0 0-.63.636c0 .397.315.636.63.636zm11.666 0a.625.625 0 0 0 .631-.636.625.625 0 0 0-.63-.636h-2.129a.624.624 0 0 0-.63.636c0 .318.236.636.63.636h2.128zM91.2 33.203a.625.625 0 0 0 .632-.636v-9.055a.624.624 0 0 0-.631-.636.624.624 0 0 0-.63.636v9.055c0 .397.236.636.63.636zm0 5.957a.625.625 0 0 0 .632-.636v-2.939a.624.624 0 0 0-.631-.635.624.624 0 0 0-.63.635v2.94c0 .317.236.635.63.635z" fill="#000"/><path d="M99.478 42.655H59.513a.624.624 0 0 0-.63.635v22.876c0 .318.236.636.63.636h19.391v6.513H46.35V33.758c0-9.055 7.331-16.363 16.238-16.363 8.986 0 16.238 7.388 16.238 16.363 0 .318.237.636.631.636.315 0 .63-.238.63-.636 0-9.69-7.803-17.554-17.42-17.554H21.992V.635a.624.624 0 0 0-.63-.635.624.624 0 0 0-.63.635v1.907c-2.444-1.033-4.888-.318-7.253.397-2.522.794-4.887 1.51-7.173.08-.158-.16-.394-.16-.63 0-.158.079-.316.317-.316.476v9.214c0 .238.079.397.315.477 1.183.714 2.365.953 3.548.953 1.576 0 3.074-.477 4.65-.953 2.444-.715 4.651-1.43 6.937-.239v3.098h-.788C8.986 16.204 0 25.26 0 36.38v37.492c0 .318.236.636.63.636h36.103L35.55 94.364c0 .16.08.318.158.477.079.159.236.159.394.159h7.725a.6.6 0 0 0 .394-.159c.079-.159.158-.318.158-.477l-1.183-19.857h36.102a.625.625 0 0 0 .631-.636v-7.07H99.32c.315 0 .63-.238.63-.635V43.29c.158-.318-.078-.635-.472-.635zM13.479 12.153c-2.443.715-4.65 1.43-6.936.238V4.528c2.443 1.032 4.887.317 7.251-.398 2.365-.714 4.651-1.43 6.937-.238v7.864c-2.444-1.112-4.887-.318-7.252.397zM1.182 36.38c0-10.485 8.435-18.985 18.84-18.985h.788v12.393c-1.498.238-2.601 1.588-2.601 3.098 0 1.747 1.419 3.177 3.153 3.177s3.153-1.43 3.153-3.177c0-1.59-1.104-2.86-2.602-3.098V17.395h34.368c-6.542 2.542-11.114 8.976-11.114 16.363v39.478H1.183V36.379zm20.18-5.402a1.96 1.96 0 0 1 1.97 1.986 1.96 1.96 0 0 1-1.97 1.986 1.959 1.959 0 0 1-1.97-1.986c0-1.112.866-1.986 1.97-1.986zm21.913 62.75h-6.463l1.103-19.3h4.257l1.103 19.3zM63.85 65.532l9.932-11.915 3.231 2.224c.158.08.395.238.552.318.079 0 .079 0 .158.08.157.079.315.079.473.158h.158c.157 0 .315.08.472.08h1.419c.158 0 .316-.08.473-.08.079 0 .079 0 .158-.08.394-.079.71-.238 1.103-.476l3.232-2.224 9.932 11.915H63.85zm33.42-21.686L81.348 54.808a3.333 3.333 0 0 1-3.626 0L61.72 43.846h35.55zm-37.206.318l12.77 8.817L62.35 65.53h-2.286V44.164zm38.86 21.367H96.72L86.156 52.9l12.77-8.737V65.53z" fill="#000"/></svg>