<svg width="93" height="76" fill="none" xmlns="http://www.w3.org/2000/svg"><path d="M43.398.426a.5.5 0 01.5.5v3.187a.5.5 0 01-1 0V.926a.5.5 0 01.5-.5zM39.07 5.707a.5.5 0 01.5-.5h2.297a.5.5 0 110 1H39.57a.5.5 0 01-.5-.5zm5.359 0a.5.5 0 01.5-.5h2.297a.5.5 0 110 1h-2.297a.5.5 0 01-.5-.5zM43.398 6.8a.5.5 0 01.5.5v3.188a.5.5 0 11-1 0V7.3a.5.5 0 01.5-.5z" fill="#101010"/><path fill-rule="evenodd" clip-rule="evenodd" d="M30.108 1.179a.5.5 0 10-1 0v1.683c-1.95-.808-3.988-.175-5.768.378l-.087.027c-1.055.327-2.023.625-2.938.69-.893.065-1.703-.095-2.453-.67a.5.5 0 00-.804.397v7.354a.5.5 0 00.332.47c.61.219 1.651.47 2.842.544 1.19.074 2.567-.028 3.826-.553 1.409-.586 2.61-.807 3.513-.78.813.025 1.301.245 1.537.492v2.294h-1.614c-6.434 0-14.689 5.54-14.689 14.918v27.525a3.499 3.499 0 003.5 3.499h23.203v12.521a3.606 3.606 0 007.212 0V59.447h25.403a3.5 3.5 0 003.5-3.5v-2.548H88.75a2.5 2.5 0 002.5-2.5V36.671a2.5 2.5 0 00-2.5-2.5H75.623v-6.98c-.027-2.286-.792-5.695-3.009-8.546-2.234-2.873-5.916-5.14-11.68-5.14H30.108V1.18zm31.197 52.22h13.318v2.548a2.5 2.5 0 01-2.5 2.5H49.085v-31.25c0-5.973 4.191-11.941 11.873-12.692 5.45.007 8.83 2.135 10.867 4.754 2.057 2.645 2.773 5.829 2.798 7.94v6.972H61.305a2.5 2.5 0 00-2.5 2.5V50.9a2.5 2.5 0 002.5 2.5zm27.445-1h-.138L80.9 42.841l9.203-6.821c.095.197.148.418.148.651V50.9a1.5 1.5 0 01-1.5 1.5zm0-17.228c.225 0 .439.05.63.139l-10.475 7.764a6.5 6.5 0 01-7.73.009L60.653 35.32c.197-.095.419-.149.653-.149H88.75zm-28.945 1.5c0-.225.05-.44.139-.631l9.548 7.043-7.885 9.312-.004.004h-.298a1.5 1.5 0 01-1.5-1.5V36.671zm10.493 7.007L62.914 52.4h24.413l-7.232-8.962-.595.44a7.5 7.5 0 01-8.918.01l-.284-.209zM23.55 4.222c2.037-.632 3.868-1.175 5.56-.253v6.057c-.432-.19-.95-.29-1.508-.306-1.079-.033-2.424.23-3.927.856-1.07.446-2.281.546-3.38.478a10.52 10.52 0 01-2.236-.38V4.57c.753.352 1.54.441 2.328.384 1.043-.075 2.116-.408 3.136-.725l.027-.008zm3.945 10.283h1.614v10.09a2.63 2.63 0 101 .043V14.505H56.66c-5.566 2.202-8.573 7.448-8.573 12.691v31.25h-31.78a2.499 2.499 0 01-2.5-2.498V28.424c0-8.722 7.697-13.919 13.688-13.919zm13.014 57.463V59.447h5.212v12.521a2.606 2.606 0 11-5.212 0zm-9.38-44.772a1.63 1.63 0 11-3.26-.001 1.63 1.63 0 013.26.001zM62.536 5.707a1.913 1.913 0 10.001-3.826 1.913 1.913 0 000 3.826zm0-1a.913.913 0 10.001-1.826.913.913 0 000 1.826zm19.138 61.24a1.913 1.913 0 11-3.825-.001 1.913 1.913 0 013.825.001zm-1 0a.913.913 0 11-1.826-.001.913.913 0 011.826.001zm-60.243 2.869a1.913 1.913 0 10.001-3.826 1.913 1.913 0 000 3.826zm0-1a.913.913 0 10.001-1.826.913.913 0 000 1.826z" fill="#101010"/><path fill-rule="evenodd" clip-rule="evenodd" d="M86.459 29.612a1.913 1.913 0 11-3.826-.001 1.913 1.913 0 013.826 0zm-1 0a.913.913 0 11-1.826-.002.913.913 0 011.826.002zm-.913-15.299c-1.03 0-1.84.88-1.755 1.906l.718 8.614a1.04 1.04 0 002.073 0l.718-8.614a1.76 1.76 0 00-1.754-1.907zm.04 10.437l.718-8.614a.76.76 0 10-1.517 0l.719 8.614a.04.04 0 00.08 0z" fill="#101010"/><path d="M62.08 64.035a.5.5 0 10-1 0v3.187a.5.5 0 001 0v-3.187zm-4.328 4.281a.5.5 0 100 1h2.296a.5.5 0 000-1h-2.296zm5.358 0a.5.5 0 100 1h2.297a.5.5 0 000-1h-2.296zm-1.03 2.094a.5.5 0 10-1 0v3.187a.5.5 0 001 0v-3.188zM5.62 51.604a.5.5 0 10-1 0v1.912a.5.5 0 001 0v-1.912zm-3.37 3.325a.5.5 0 100 1h1.148a.5.5 0 000-1H2.25zm4.593 0a.5.5 0 100 1h1.149a.5.5 0 000-1H6.843zM5.62 57.341a.5.5 0 10-1 0v1.913a.5.5 0 001 0V57.34z" fill="#101010"/></svg>