<svg width="32" height="32" fill="none" xmlns="http://www.w3.org/2000/svg"><path fill-rule="evenodd" clip-rule="evenodd" d="M9.45 5.69C7.7 7.182 6.5 9.523 6.5 12.948c0 1.668.59 3.543 1.512 5.443.92 1.894 2.15 3.777 3.39 5.45a57.974 57.974 0 0 0 4.53 5.372l.068.071.068-.07a57.944 57.944 0 0 0 4.53-5.373c1.24-1.673 2.47-3.556 3.39-5.45.922-1.9 1.512-3.775 1.512-5.443 0-3.425-1.2-5.766-2.95-7.258C20.788 4.186 18.413 3.5 16 3.5s-4.787.686-6.55 2.19zM16 30a51.56 51.56 0 0 1-.353.354l-.002-.002-.006-.006-.022-.022a54.499 54.499 0 0 1-1.551-1.655 59.014 59.014 0 0 1-3.468-4.233c-1.26-1.702-2.53-3.639-3.485-5.608-.953-1.963-1.613-3.996-1.613-5.88 0-3.68 1.3-6.314 3.3-8.02C10.788 3.236 13.413 2.5 16 2.5s5.213.735 7.2 2.429c2 1.705 3.3 4.338 3.3 8.019 0 1.884-.66 3.917-1.613 5.88-.955 1.969-2.224 3.906-3.485 5.608a58.96 58.96 0 0 1-4.933 5.8 18.47 18.47 0 0 1-.086.088l-.022.022-.006.006-.002.002L16 30zm0 0l-.353.354a.501.501 0 0 0 .706 0L16 30z" fill="#101010"/><path fill-rule="evenodd" clip-rule="evenodd" d="M15.714 17.368c2.609 0 4.714-2.102 4.714-4.684 0-2.582-2.105-4.684-4.714-4.684C13.106 8 11 10.102 11 12.684c0 2.582 2.106 4.684 4.714 4.684zm0 1c3.156 0 5.714-2.545 5.714-5.684C21.428 9.544 18.87 7 15.714 7 12.558 7 10 9.545 10 12.684c0 3.14 2.558 5.684 5.714 5.684z" fill="#101010"/></svg>