<svg width="34" height="20" fill="none" xmlns="http://www.w3.org/2000/svg"><g clip-path="url(#clip0)"><path d="M20.722 2.076h-8.821v15.261h8.821V2.076z" fill="#FF5F00"/><path d="M12.46 9.709a9.39 9.39 0 0 1 1.012-4.244 9.77 9.77 0 0 1 2.84-3.388 10.299 10.299 0 0 0-5.155-2.02 10.43 10.43 0 0 0-5.482.921 9.96 9.96 0 0 0-4.14 3.58A9.44 9.44 0 0 0 0 9.709a9.44 9.44 0 0 0 1.536 5.148 9.96 9.96 0 0 0 4.14 3.58 10.424 10.424 0 0 0 5.481.921 10.298 10.298 0 0 0 5.154-2.019 9.77 9.77 0 0 1-2.838-3.387 9.392 9.392 0 0 1-1.012-4.242z" fill="#EB001B"/><path d="M32.624 9.708a9.44 9.44 0 0 1-1.536 5.149 9.961 9.961 0 0 1-4.14 3.58 10.425 10.425 0 0 1-5.482.92 10.298 10.298 0 0 1-5.155-2.02 9.785 9.785 0 0 0 2.838-3.389 9.407 9.407 0 0 0 1.014-4.242c0-1.47-.346-2.92-1.014-4.242a9.785 9.785 0 0 0-2.838-3.388 10.299 10.299 0 0 1 5.155-2.02c1.88-.195 3.78.124 5.482.92a9.961 9.961 0 0 1 4.14 3.58 9.44 9.44 0 0 1 1.536 5.149v.003z" fill="#F79E1B"/></g><defs><clipPath id="clip0"><path fill="#fff" d="M0 0h33.44v19.454H0z"/></clipPath></defs></svg>