<svg width="56" height="16" fill="none" xmlns="http://www.w3.org/2000/svg"><g clip-path="url(#clip0)"><path d="M39.345 7.378v7.844h4.906v-4.413h4.938c2.579 0 4.78-1.424 5.63-3.431H39.345z" fill="#006848"/><path d="M39.144.379c.016.399.08.797.174 1.166.016.076.048.168.064.245.015.03.015.061.031.107.885 2.716 3.493 4.68 6.576 4.68h9.104a4.59 4.59 0 0 0 .095-.936c0-1.534-.68-2.915-1.77-3.882A5.479 5.479 0 0 0 49.75.38H39.144z" fill="url(#paint0_linear)"/><path d="M30.535 1.951l-3.463 7.22h-.35V.38h-4.924v14.883h4.178c1.096 0 2.097-.61 2.558-1.572l3.463-7.22h.35v8.792h4.924V.38h-4.178c-1.096 0-2.097.61-2.558 1.572zm-22.84.392L9.742 9.22h.347l2.031-6.876C12.467 1.177 13.554.38 14.798.38h4.882v14.964h-4.882v-8.84h-.347l-2.803 8.84h-3.48l-2.804-8.84h-.347v8.84H.135V.379h4.882c1.244 0 2.331.798 2.678 1.964z" fill="#006848"/></g><defs><linearGradient id="paint0_linear" x1="39.142" y1="3.48" x2="55.183" y2="3.48" gradientUnits="userSpaceOnUse"><stop stop-color="#02AFFF"/><stop offset="1" stop-color="#1F5BDE"/></linearGradient><clipPath id="clip0"><path fill="#fff" transform="translate(.135 .379)" d="M0 0h55.053v14.996H0z"/></clipPath></defs></svg>