<svg width="56" height="15" fill="none" xmlns="http://www.w3.org/2000/svg"><g clip-path="url(#clip0)"><path d="M39.221 7.001v7.846h4.908v-4.413h4.94c2.579 0 4.78-1.425 5.63-3.433H39.221z" fill="#006848"/><path d="M39.02 0c.016.399.08.798.174 1.166.016.077.048.17.064.246.015.03.015.061.031.107.886 2.716 3.495 4.68 6.578 4.68h9.107c.063-.306.095-.613.095-.935 0-1.535-.68-2.916-1.771-3.883A5.48 5.48 0 0 0 49.63 0H39.02z" fill="url(#paint0_linear)"/><path d="M30.41 1.573l-3.465 7.222h-.35V0H21.67v14.888h4.18c1.096 0 2.097-.611 2.558-1.573l3.464-7.222h.35v8.795h4.926V0h-4.18c-1.096 0-2.097.61-2.558 1.573zm-22.848.392L9.61 8.843h.347l2.032-6.878C12.336.798 13.423 0 14.667 0h4.884v14.968h-4.884V6.125h-.346l-2.805 8.843H8.035L5.23 6.125h-.346v8.843H0V0h4.884c1.244 0 2.331.798 2.678 1.965z" fill="#006848"/></g><defs><linearGradient id="paint0_linear" x1="39.018" y1="3.102" x2="55.064" y2="3.102" gradientUnits="userSpaceOnUse"><stop stop-color="#02AFFF"/><stop offset="1" stop-color="#1F5BDE"/></linearGradient><clipPath id="clip0"><path fill="#fff" transform="scale(1.00028)" d="M0 0h55.053v14.996H0z"/></clipPath></defs></svg>