<svg xmlns="http://www.w3.org/2000/svg" width="55" height="15" fill="none"><path d="M39.21 6.999v7.844h4.906v-4.412h4.938c2.579 0 4.78-1.425 5.63-3.432H39.21z" fill="#006848"/><path d="M39.01 0c.016.399.079.798.174 1.166.015.077.047.169.063.245.016.031.016.062.032.108.885 2.715 3.493 4.679 6.575 4.679h9.105c.063-.307.094-.614.094-.936 0-1.534-.68-2.915-1.77-3.881A5.48 5.48 0 0 0 49.616 0H39.01z" fill="#02afff"/><path d="M30.4 1.572l-3.463 7.22h-.35V0h-4.924v14.883h4.178c1.096 0 2.097-.61 2.558-1.572l3.463-7.22h.35v8.792h4.925V0h-4.178C31.861 0 30.86.61 30.4 1.572zm-22.84.392L9.607 8.84h.347l2.032-6.875C12.332.798 13.419 0 14.663 0h4.883v14.964h-4.883v-8.84h-.346l-2.804 8.84h-3.48l-2.804-8.84h-.347v8.84H0V0h4.882C6.127 0 7.213.798 7.56 1.964z" fill="#006848"/><defs id="defs15"><linearGradient id="paint0_linear" x1="39.007" y1="3.101" x2="55.048" y2="3.101" gradientUnits="userSpaceOnUse"><stop stop-color="#02AFFF" id="stop10"/><stop offset="1" stop-color="#1F5BDE" id="stop12"/></linearGradient></defs></svg>