<svg width="56" height="16" fill="none" xmlns="http://www.w3.org/2000/svg"><g clip-path="url(#clip0)"><path d="M39.345 7.776v7.844h4.907v-4.412h4.937c2.58 0 4.78-1.425 5.63-3.432H39.345z" fill="#006848"/><path d="M39.144.777c.016.399.08.798.174 1.166.016.077.048.169.063.246.016.03.016.06.032.107.885 2.715 3.493 4.68 6.576 4.68h9.104a4.59 4.59 0 0 0 .095-.937c0-1.534-.68-2.915-1.77-3.881A5.479 5.479 0 0 0 49.75.778H39.144z" fill="url(#paint0_linear)"/><path d="M30.535 2.35l-3.463 7.22h-.35V.777h-4.924v14.884h4.178c1.096 0 2.097-.611 2.558-1.573l3.463-7.22h.35v8.793h4.924V.777h-4.178c-1.096 0-2.097.61-2.558 1.572zm-22.84.392l2.047 6.875h.347l2.031-6.875c.347-1.167 1.434-1.965 2.678-1.965h4.882v14.964h-4.882v-8.84h-.347l-2.803 8.84h-3.48l-2.804-8.84h-.347v8.84H.135V.777h4.882c1.244 0 2.331.798 2.678 1.965z" fill="#006848"/></g><defs><linearGradient id="paint0_linear" x1="39.142" y1="3.878" x2="55.183" y2="3.878" gradientUnits="userSpaceOnUse"><stop stop-color="#02AFFF"/><stop offset="1" stop-color="#1F5BDE"/></linearGradient><clipPath id="clip0"><path fill="#fff" transform="translate(.135 .777)" d="M0 0h55.053v15.133H0z"/></clipPath></defs></svg>