<svg width="92" height="92" fill="none" xmlns="http://www.w3.org/2000/svg"><path d="M49.056 71v-3.62c0-3.48 1.153-6.861 3.28-9.615l2.439-3.158a4.036 4.036 0 0 0 .841-2.467v-9.232a3.28 3.28 0 0 1 3.28-3.28v0a3.28 3.28 0 0 1 3.281 3.28v9.125c0 .957.344 1.883.968 2.61l3.953 4.593m9.021 11.439v-5.022c0-.464.04-.928.12-1.385l4.183-23.784a4 4 0 0 0-.74-3.092l-7.293-9.725" stroke="#101010" stroke-linecap="round" stroke-linejoin="round"/><rect x="79.667" y="71.5" width="9" height="34.556" rx="1.5" transform="rotate(90 79.667 71.5)" stroke="#101010"/><path d="M55.722 48.778H23.055a4 4 0 0 1-4-4v-22a4 4 0 0 1 4-4H68.39a4 4 0 0 1 4 4v22a4 4 0 0 1-4 4h-6" stroke="#101010"/><path d="M64.611 19.333V15a4 4 0 0 0-4-4H15.278a4 4 0 0 0-4 4v22a4 4 0 0 0 4 4h4.333m3.889 7.778l-3.81 3.773a4 4 0 0 0-.014 5.67l15.542 15.543a4 4 0 0 0 5.657 0l8.18-8.18" stroke="#101010"/><path d="M41.904 40.659V26.897h4.643c1.393 0 4.18.999 4.18 4.091 0 3.093-2.572 4.192-3.736 4.192h-6.273m6.273 1.832h-6.273" stroke="#000" stroke-linecap="round" stroke-linejoin="round"/><path d="M55.405 53.148L42.48 66.071c-2.21-2.21-5.136-1.935-6.736-.335l-7.07-7.072c2.4-2.4 1.831-5.367.064-7.135 1.775-1.732 2.919-2.642 2.919-2.642m23.636-4.554H29.692c0-3.298-2.263-5.277-4.525-5.277V28.5c3.394 0 5.09-2.639 5.09-5.278h26.02m.001 0h5.263c0 2.656 1.579 5.312 4.737 5.312V39.16c-1.873 0-3.713 1.379-4.104 4.063" stroke="#101010" stroke-linecap="round" stroke-linejoin="round"/></svg>