<svg width="92" height="92" fill="none" xmlns="http://www.w3.org/2000/svg"><path fill-rule="evenodd" clip-rule="evenodd" d="M41.405 26.897a.5.5 0 01.5-.5h4.642c.792 0 1.943.278 2.907.982.986.72 1.773 1.888 1.773 3.61 0 1.703-.716 2.888-1.61 3.638-.874.733-1.92 1.053-2.626 1.053h-4.586v.832h4.586a.5.5 0 110 1h-4.586v3.147a.5.5 0 11-1 0v-3.147h-.687a.5.5 0 010-1h.687v-.832h-.687a.5.5 0 010-1h.687v-7.783zm1 7.783h4.586c.458 0 1.28-.23 1.983-.82.682-.572 1.253-1.483 1.253-2.872 0-1.37-.607-2.25-1.363-2.801-.777-.568-1.716-.79-2.317-.79h-4.142v7.283z" fill="#101010"/><path fill-rule="evenodd" clip-rule="evenodd" d="M10.778 15a4.5 4.5 0 014.5-4.5H60.61a4.5 4.5 0 014.5 4.5v3.278h3.278a4.5 4.5 0 014.5 4.5V27.5l7.194 9.592a4.5 4.5 0 01.832 3.479l-4.183 23.784a7.5 7.5 0 00-.113 1.299V71h1.548a2 2 0 012 2v6a2 2 0 01-2 2H46.61a2 2 0 01-2-2v-6a2 2 0 012-2h1.945v-3.62c0-.2.003-.4.01-.6l-7.338 7.338a4.5 4.5 0 01-6.363 0L19.322 58.575a4.5 4.5 0 01.016-6.38l3.003-2.974a4.501 4.501 0 01-3.786-4.443V41.5h-3.277a4.5 4.5 0 01-4.5-4.5V15zm12.928 34.278l-3.665 3.628a3.5 3.5 0 00-.012 4.962L35.572 73.41a3.5 3.5 0 004.95 0l8.176-8.176a16.23 16.23 0 013.242-7.774l.475-.615-2.99 2.988c-2.954 2.955-5.953 5.952-6.593 6.592a.5.5 0 01-.707 0c-2.019-2.019-4.628-1.736-6.028-.336a.5.5 0 01-.707 0l-7.071-7.07a.5.5 0 010-.708c1.106-1.106 1.505-2.313 1.449-3.426-.056-1.125-.578-2.195-1.385-3.002a.5.5 0 01.005-.712 54.859 54.859 0 012.036-1.893h-6.718zm8.261 0l-.002.002-.009.007-.037.03-.15.124c-.132.11-.327.275-.578.494-.434.38-1.033.92-1.757 1.615.77.912 1.272 2.059 1.333 3.285.064 1.28-.356 2.615-1.4 3.817l6.396 6.396c1.75-1.409 4.51-1.56 6.703.33l12.586-12.583.004-.005c.04-.213.06-.43.06-.65v-2.862H31.967zm32.144-29.944v-.056H23.055a3.5 3.5 0 00-3.5 3.5V40.5h.056v1h-.056v3.278a3.5 3.5 0 003.5 3.5h32.061v-3.444H29.692a.5.5 0 01-.5-.5c0-3.055-2.07-4.778-4.025-4.778a.5.5 0 01-.5-.5V28.5a.5.5 0 01.5-.5c1.554 0 2.687-.599 3.438-1.475.76-.886 1.153-2.085 1.153-3.303a.5.5 0 01.5-.5H61.54a.5.5 0 01.5.5c0 1.236.368 2.45 1.076 3.342.697.88 1.739 1.47 3.16 1.47a.5.5 0 01.5.5V39.16a.5.5 0 01-.5.5c-1.586 0-3.224 1.153-3.6 3.578v5.04h5.712a3.5 3.5 0 003.5-3.5v-22a3.5 3.5 0 00-3.5-3.5H65.11v.056h-1zm-2.434 23.83a.495.495 0 000 .118v8.75c0 1.078.387 2.12 1.09 2.937l3.952 4.594a.5.5 0 00.758-.653l-3.953-4.593a3.502 3.502 0 01-.847-2.284v-2.755h5.712a4.5 4.5 0 004.5-4.5V29.167l6.394 8.525a3.5 3.5 0 01.647 2.706l-4.183 23.784a8.496 8.496 0 00-.128 1.472V71H49.556v-3.62c0-3.369 1.117-6.643 3.176-9.31l2.438-3.157c.614-.794.946-1.77.946-2.773v-9.232a2.78 2.78 0 015.561 0v.256zm.601-1.948a3.78 3.78 0 00-7.162 1.692v.925h-24.94c-.205-3.029-2.252-4.994-4.51-5.25v-9.601c1.597-.119 2.84-.805 3.698-1.806.828-.964 1.28-2.2 1.375-3.454h30.319c.087 1.254.506 2.493 1.275 3.463.795 1.003 1.952 1.701 3.445 1.829v9.674c-1.421.165-2.738 1.034-3.5 2.528zM64.111 15v3.278H23.055a4.5 4.5 0 00-4.5 4.5V40.5h-3.277a3.5 3.5 0 01-3.5-3.5V15a3.5 3.5 0 013.5-3.5H60.61a3.5 3.5 0 013.5 3.5zm15.056 64v-6a1 1 0 00-1-1H46.61a1 1 0 00-1 1v6a1 1 0 001 1h31.556a1 1 0 001-1z" fill="#101010"/></svg>