<svg width="92" height="92" fill="none" xmlns="http://www.w3.org/2000/svg"><path fill-rule="evenodd" clip-rule="evenodd" d="M46 69.677a3.378 3.378 0 100-6.755 3.378 3.378 0 000 6.755zm0-1a2.378 2.378 0 100-4.756 2.378 2.378 0 000 4.756zm-6.975-40.4a.5.5 0 01.5-.5h4.178c.723 0 1.769.253 2.646.894.9.657 1.616 1.721 1.616 3.288 0 1.549-.652 2.63-1.467 3.313-.795.667-1.748.96-2.396.96h-4.077v.649h4.077a.5.5 0 110 1h-4.077v2.782a.5.5 0 11-1 0V37.88h-.568a.5.5 0 010-1h.568v-.65h-.567a.5.5 0 01-.001-1h.568v-6.954zm1 6.955h4.077c.4 0 1.129-.202 1.753-.726.604-.506 1.11-1.312 1.11-2.547 0-1.216-.538-1.992-1.206-2.48-.69-.505-1.525-.702-2.056-.702h-3.678v6.455z" fill="#101010"/><path fill-rule="evenodd" clip-rule="evenodd" d="M53.816 10.159a4.5 4.5 0 00-3.662.224l-10.29 5.369a2.5 2.5 0 00-1.344 2.216v1.202a15.133 15.133 0 00-6.333 3.842H15.095a4.5 4.5 0 00-4.5 4.5v40.417a4.5 4.5 0 004.5 4.5h21.96V81h-6.819a.5.5 0 000 1h31.528a.5.5 0 100-1h-7.382v-8.57h22.524a4.5 4.5 0 004.5-4.5V27.511a4.5 4.5 0 00-4.5-4.5h-.504v-8.76a2 2 0 00-2-2h-2.756a2 2 0 00-2 2v.368a.498.498 0 00-.225-.053h-2.49a7.5 7.5 0 01-2.633-.477l-10.482-3.931zm22.586 13.853v11.012a2 2 0 01-2 2h-2.756a2 2 0 01-2-2v-.878h-2.5c-2.505 0-4.94-.828-6.925-2.356l-2.177-1.675a2.282 2.282 0 00-.423-.257c.312 1.21.478 2.48.478 3.788 0 6.628-4.26 12.261-10.192 14.311-2.681 4.19-7.661 7.456-13.04 7.456-8.361 0-15.139-6.777-15.139-15.137 0-6.717 4.104-12.53 10.203-14.5a.504.504 0 01.11-.023c.374-.61.79-1.192 1.243-1.741h-16.19a3.5 3.5 0 00-3.5 3.5v33.214h68.812V27.512a3.5 3.5 0 00-3.5-3.5h-.504zm4.004 37.727H11.594v6.19a3.5 3.5 0 003.5 3.5h21.961v-.063h1v.063h15.327v-.063h1v.063h22.524a3.5 3.5 0 003.5-3.5v-6.19zm-27.024 10.69H38.055V81h15.327v-8.57zm16.264-56.915a.498.498 0 01-.225.053h-2.49a8.5 8.5 0 01-2.984-.541l-10.482-3.93a3.5 3.5 0 00-2.848.173l-10.29 5.37a1.5 1.5 0 00-.807 1.33v.932a15.186 15.186 0 013.44-.393 15.11 15.11 0 0111.78 5.63h1.838c.54 0 1.06-.193 1.47-.544l3.166-2.714a.5.5 0 01.651.76l-3.166 2.714a3.258 3.258 0 01-2.12.784h-6.3a1.752 1.752 0 000 3.504h6.373c.724 0 1.428.24 2.002.68l2.177 1.676a10.357 10.357 0 006.315 2.148h2.5V15.514zM46.38 48.396a15.174 15.174 0 01-3.42.388c-8.36 0-15.138-6.778-15.138-15.138 0-2.361.54-4.597 1.505-6.588-5.16 2.09-8.6 7.253-8.6 13.218 0 7.808 6.33 14.137 14.138 14.137 4.567 0 8.88-2.554 11.515-6.017zm-17.558-14.75c0-6.433 4.296-11.862 10.176-13.575h.02a.49.49 0 00.278-.084 14.157 14.157 0 013.664-.479 14.1 14.1 0 0110.463 4.63H50.28a2.752 2.752 0 100 5.504h6.244c.374 1.269.575 2.613.575 4.004 0 7.808-6.33 14.138-14.138 14.138s-14.138-6.33-14.138-14.138zm42.823-20.394h2.756a1 1 0 011 1v20.772a1 1 0 01-1 1h-2.756a1 1 0 01-1-1V14.252a1 1 0 011-1z" fill="#101010"/></svg>