<svg width="92" height="92" fill="none" xmlns="http://www.w3.org/2000/svg"><path d="M37.555 71.366V81.5m16.327-10.134V81.5" stroke="#101010"/><path d="M30.236 81.5h31.528" stroke="#101010" stroke-linecap="round" stroke-linejoin="round"/><path d="M11.658 61.232h68.121" stroke="#101010"/><path d="M69.646 33.646h-2.5c-2.395 0-4.722-.792-6.62-2.252l-2.177-1.675a2.782 2.782 0 00-1.697-.577H50.28a2.252 2.252 0 01-2.252-2.252v0a2.252 2.252 0 012.252-2.252h6.298a2.76 2.76 0 001.795-.664l3.167-2.714m7.881-6.193h-2.49a8 8 0 01-2.809-.51l-10.481-3.93a4 4 0 00-3.255.199l-10.291 5.37a2 2 0 00-1.075 1.772v1.603" stroke="#101010" stroke-linecap="round" stroke-linejoin="round"/><path d="M54.39 24.5a14.61 14.61 0 00-11.43-5.492c-8.083 0-14.637 6.553-14.637 14.638 0 8.084 6.554 14.637 14.638 14.637s14.638-6.553 14.638-14.637A14.63 14.63 0 0056.846 29" stroke="#101010"/><path d="M47.957 47.88a.5.5 0 00-.846-.535l.846.534zM30.238 26.726a.5.5 0 10-.307-.952l.307.952zm4.628 27.686c-7.808 0-14.138-6.33-14.138-14.137h-1c0 8.36 6.778 15.137 15.138 15.137v-1zm12.245-7.068c-2.516 3.985-7.228 7.068-12.245 7.068v1c5.413 0 10.421-3.306 13.09-7.534l-.845-.534zm-26.383-7.07c0-6.308 3.848-11.72 9.51-13.548l-.307-.952c-6.1 1.97-10.203 7.784-10.203 14.5h1z" fill="#101010"/><path d="M39.525 40.663V28.277h4.178c1.254 0 3.762.899 3.762 3.682s-2.315 3.772-3.363 3.772h-5.645m5.645 1.65h-5.645" stroke="#000" stroke-linecap="round" stroke-linejoin="round"/><rect x="70.146" y="12.752" width="5.756" height="23.772" rx="1.5" stroke="#101010"/><circle cx="46" cy="66.299" r="2.878" stroke="#101010"/><path d="M32.193 23.512H15.095a4 4 0 00-4 4v40.417a4 4 0 004 4h61.81a4 4 0 004-4V27.512a4 4 0 00-4-4H75.84" stroke="#101010"/></svg>