<svg width="92" height="92" fill="none" xmlns="http://www.w3.org/2000/svg"><path fill-rule="evenodd" clip-rule="evenodd" d="M76 9H16a7 7 0 00-7 7v60a7 7 0 007 7h60a7 7 0 007-7V16a7 7 0 00-7-7zM16 8a8 8 0 00-8 8v60a8 8 0 008 8h60a8 8 0 008-8V16a8 8 0 00-8-8H16z" fill="#101010"/><path fill-rule="evenodd" clip-rule="evenodd" d="M48.545 58.871c-.687-.84-1.034-1.942-1.034-3.276 0-1.368.332-2.47.987-3.274.713-.882 1.764-1.328 3.125-1.328h.104V48.71h-.104c-2.123 0-3.76.666-4.868 1.98-1.008 1.19-1.52 2.845-1.52 4.923 0 2.009.555 3.66 1.649 4.908 1.15 1.312 2.755 1.979 4.77 1.979h.104v-2.283h-.104c-1.328 0-2.375-.453-3.109-1.346zm-8.083 0c-.686-.84-1.035-1.941-1.035-3.276 0-1.368.333-2.47.987-3.274.713-.882 1.764-1.328 3.125-1.328h.104V48.71h-.104c-2.123 0-3.76.666-4.868 1.98-1.008 1.19-1.52 2.845-1.52 4.923 0 2.009.556 3.66 1.65 4.908 1.15 1.312 2.755 1.979 4.77 1.979h.104v-2.283h-.104c-1.328 0-2.375-.453-3.109-1.346zm7.429-22.234v6.356h2.413V29.835h-2.413v4.583h-1.313c-.542 0-.946-.123-1.202-.368-.185-.173-.274-.403-.274-.706v-3.509H42.69v3.757c0 .865.34 1.598 1.013 2.178.665.576 1.48.867 2.424.867h1.765zm23.088 11.76l-.17.178-4.822 5.052v-4.603H63.88v13.083h2.108v-5.374l3.058-3.249.306 8.623H71.5l-.521-13.71zM55.19 42.993h2.413v-10.97h2.034v-2.187H53.19v2.187h2.001v10.97zm5.558 5.582l-4.822 5.052v-4.603H53.82v13.083h2.108v-5.374l3.057-3.249.306 8.623h2.149l-.52-13.71-.17.178zm4.34-16.552h.874c.622 0 1.05.187 1.309.572.208.321.356.94.45 1.79h-2.69l.057-2.362zm-.1 4.548l3.011.001.677 6.422 2.43-.001-1.112-9.619c0-1.26-.387-2.213-1.153-2.811-.61-.482-1.445-.727-2.482-.727h-3.575l-.444 13.157h2.414l.233-6.422zm-42.062-4.548h2.989v10.97h2.413V29.836h-7.815v13.158h2.413v-10.97zm1.129 24.144c-.173.335-.375.503-.6.503-.218 0-.402-.145-.56-.445-.168-.317-.253-.782-.253-1.382v-3.85h.088c.498 0 .879.276 1.164.843.292.585.44 1.52.44 2.78 0 .67-.094 1.192-.28 1.55zm-1.32-7.123H20.5v13.055h2.143v-3.795c.415.366.867.584 1.362.584.714 0 1.307-.379 1.766-1.124.513-.837.772-2.077.772-3.69 0-1.119-.208-2.124-.619-2.983-.646-1.357-1.72-2.047-3.188-2.047zm14.356-9.27c-.313.853-.756 1.267-1.35 1.267-.57 0-1-.42-1.314-1.283-.33-.903-.496-2.047-.496-3.403 0-1.39.163-2.535.487-3.402.307-.83.74-1.232 1.323-1.232.653 0 1.12.408 1.422 1.247.282.772.424 1.899.424 3.35 0 1.402-.167 2.565-.496 3.457zm1.864 1.488c.715-1.24 1.079-2.904 1.079-4.944 0-2.017-.377-3.67-1.116-4.91-.756-1.267-1.827-1.908-3.182-1.908-1.285 0-2.308.646-3.038 1.92-.716 1.242-1.08 2.897-1.08 4.914 0 2.09.348 3.776 1.033 5.014.7 1.268 1.739 1.912 3.085 1.912 1.368.001 2.451-.67 3.219-1.998zm-6.043 17.692c-.282.86-.698 1.297-1.233 1.297-.515 0-.919-.443-1.203-1.315-.294-.909-.445-2.06-.445-3.425 0-1.4.148-2.552.437-3.425.277-.838.684-1.262 1.21-1.262.596 0 1.022.42 1.298 1.28.252.778.38 1.91.38 3.37.001 1.412-.148 2.582-.444 3.48zm1.594-8.359c-.672-1.25-1.622-1.885-2.825-1.885-1.141 0-2.05.638-2.698 1.898-.638 1.237-.962 2.88-.962 4.885 0 2.076.31 3.754.92 4.985.62 1.253 1.543 1.888 2.739 1.888 1.214 0 2.176-.665 2.858-1.978.637-1.23.96-2.883.96-4.913.002-2.006-.332-3.648-.992-4.88z" fill="#C6C6C6"/></svg>