<svg width="67" height="67" fill="none" xmlns="http://www.w3.org/2000/svg"><path d="M62.206 16.325H51.24l1.602-2.126a8.79 8.79 0 001.78-5.323C54.62 3.982 50.638 0 45.744 0c-2.98 0-5.078 1.016-6.805 3.295-1.564 2.06-2.786 5.165-4.203 8.759L33.5 15.188l-1.235-3.134c-1.477-3.744-2.643-6.702-4.203-8.759C26.335 1.016 24.236 0 21.256 0c-4.893 0-8.876 3.982-8.876 8.876a8.79 8.79 0 001.78 5.323l1.6 2.126H4.796A4.8 4.8 0 000 21.12v4.08a4.806 4.806 0 003.198 4.52l.883.313v32.171A4.8 4.8 0 008.875 67h49.25a4.8 4.8 0 004.794-4.795V30.034l.883-.314A4.806 4.806 0 0067 25.201V21.12a4.799 4.799 0 00-4.794-4.795zm-26.195-3.618c2.96-7.511 4.446-11.282 9.734-11.282 4.107 0 7.45 3.342 7.45 7.45 0 4.108-3.343 7.45-7.45 7.45h-11.17l1.436-3.618zM13.807 8.876c0-4.109 3.342-7.45 7.45-7.45 5.287 0 6.772 3.77 9.733 11.28.224.571.461 1.173.712 1.798l.727 1.821H21.256c-4.107 0-7.45-3.342-7.45-7.45zm12.858 56.699H8.875a3.373 3.373 0 01-3.369-3.37v-32.21h21.158v35.58h.001zm0-37.005H4.795a3.373 3.373 0 01-3.37-3.369V21.12a3.373 3.373 0 013.37-3.369h21.87V28.57zM38.91 65.575H28.09V17.75h10.82v47.824zm22.584-3.37a3.372 3.372 0 01-3.369 3.37h-17.79v-35.58h21.159v32.21zm4.08-37.004a3.373 3.373 0 01-3.369 3.369h-21.87V17.75h21.871a3.373 3.373 0 013.37 3.369V25.2h-.001z" fill="#101010"/></svg>