<svg width="32" height="32" xmlns="http://www.w3.org/2000/svg"><path fill-rule="evenodd" clip-rule="evenodd" d="M19.15 8.521c-.766 0-1.387.62-1.387 1.386v1.551H16.18a1.38 1.38 0 1 0 0 2.757h1.582v3.51a1.387 1.387 0 0 0 2.776 0v-3.51h1.582a1.38 1.38 0 1 0 0-2.757h-1.582v-1.55c0-.766-.622-1.387-1.388-1.387zm-.587 1.386a.587.587 0 0 1 1.175 0v1.95a.4.4 0 0 0 .4.4h1.982a.58.58 0 1 1 0 1.16h-1.983a.4.4 0 0 0-.4.399v3.908a.587.587 0 0 1-1.174 0v-3.908a.4.4 0 0 0-.4-.4H16.18a.58.58 0 1 1 0-1.159h1.983a.4.4 0 0 0 .4-.4v-1.95z"/><path fill-rule="evenodd" clip-rule="evenodd" d="M6.907 26.021V6.002A2.38 2.38 0 0 1 9.29 3.628H24.9c1.326 0 2.4 1.073 2.4 2.397v16.183a2.398 2.398 0 0 1-1.6 2.26v3.734a.4.4 0 0 1-.4.399h-16a2.399 2.399 0 0 1-2.393-2.579zM10.6 4.378H9.29c-.9 0-1.63.727-1.63 1.625v18.451a2.393 2.393 0 0 1 1.64-.648h1.3V4.377zm.357 20.227a.495.495 0 0 0 .043 0h13.9v3.197H9.3a1.6 1.6 0 1 1 0-3.197h1.657zm13.943-.799H11.4V4.425h13.5a1.6 1.6 0 0 1 1.6 1.6v16.182a1.6 1.6 0 0 1-1.6 1.598z"/></svg>