<svg width="32" height="32" fill="none" xmlns="http://www.w3.org/2000/svg"><path d="M11.103 4h13.888a2 2 0 0 1 2 2v16.258a2 2 0 0 1-2 2H11.103V4zm14.331 20.428v3.701H9.267a1.936 1.936 0 0 1-1.936-1.935v0c0-1.07.867-1.936 1.936-1.936h1.742" stroke="#101010" stroke-width=".75" stroke-linecap="round" stroke-linejoin="round"/><path d="M11.284 4.002H9.351a2 2 0 0 0-2 2v19.863m10.806-14.012h-1.964a.982.982 0 0 0 0 1.964h1.964v3.926a.982.982 0 0 0 1.963 0v-3.926h1.963a.982.982 0 1 0 0-1.964H20.12V9.89a.982.982 0 1 0-1.963 0v1.963z" stroke="#101010" stroke-width=".75" stroke-linecap="round" stroke-linejoin="round"/></svg>