<svg width="62" height="82" fill="none" xmlns="http://www.w3.org/2000/svg"><path d="M45.822 77.36S30.922 81 26.224 81c-3.239 0-11.823-5.128-16.52-7.609-1.134-.662-1.296-2.15-.324-2.978.486-.33.972-.496 1.458-.33l11.661 3.308" stroke="#000" stroke-miterlimit="10" stroke-linecap="round" stroke-linejoin="round"/><path d="M45.822 69.09s-7.126-1.488-11.823.166c-3.564 1.323-8.584 3.143-10.69 3.804-.648.166-1.134.662-1.134 1.324 0 .827.648 1.654 1.62 1.654l7.126-.496" stroke="#000" stroke-miterlimit="10" stroke-linecap="round" stroke-linejoin="round"/><rect x="46.632" y="66.308" width="5.161" height="14.226" rx="1" stroke="#101010" stroke-linecap="round" stroke-linejoin="round"/><path d="M61 50.332L30.677 61.135V21.692L61 11.992v38.34zM1 11.992l29.677 9.7M1 11.992v38.34l29.677 10.803M1 11.992l16.129-5.974M61 11.992L30.677 1 17.13 6.018m0 0l28.387 10.67" stroke="#101010" stroke-linecap="round" stroke-linejoin="round"/><path d="M36.46 45.27l11.614-3.88v8.098L36.46 53.366V45.27zm5.83 1.64V35.917m0 0l-1.935 2.587m1.935-2.587l1.936 1.294" stroke="#101010" stroke-linecap="round" stroke-linejoin="round"/></svg>