<svg width="92" height="92" fill="none" xmlns="http://www.w3.org/2000/svg"><path fill-rule="evenodd" clip-rule="evenodd" d="M63.366 45.985a.5.5 0 0 1 .208.406v8.097a.5.5 0 0 1-.342.474L51.62 58.84a.5.5 0 0 1-.658-.474V50.27a.5.5 0 0 1 .342-.475l5.487-1.833V42.42l-1.035 1.383a.5.5 0 0 1-.8-.599l1.935-2.586a.5.5 0 0 1 .678-.116l1.936 1.293a.5.5 0 1 1-.556.831l-1.158-.773v5.776l5.125-1.712a.5.5 0 0 1 .451.068zm-5.576 2.698l4.784-1.598v7.042L51.96 57.672V50.63l4.83-1.613v2.893a.5.5 0 0 0 1 0v-3.227z" fill="#101010"/><path fill-rule="evenodd" clip-rule="evenodd" d="M45.703 66.635a.498.498 0 0 1-.206-.033l-29.668-10.8a.5.5 0 0 1-.329-.47v-38.34a.5.5 0 0 1 .326-.468L45.504 5.53a.5.5 0 0 1 .344-.001L76.17 16.522a.498.498 0 0 1 .33.479v38.33a.5.5 0 0 1-.332.472L45.845 66.606a.501.501 0 0 1-.142.029zM74.45 16.963L45.68 6.533l-12.12 4.489 27.133 10.197a.5.5 0 0 1 .157.095l13.602-4.351zm-15.086 4.826L32.128 11.552l-14.609 5.411 28.16 9.203 13.686-4.377zm-14.188 5.265L16.5 17.682v37.3l28.678 10.44V27.053zm1 .003v38.37L75.5 54.979V17.677l-29.322 9.38zm16.456 43.751a1.5 1.5 0 0 0-1.5 1.5v1.39a.5.5 0 0 0-.208-.097l-.006-.001-.017-.004-.063-.013-.24-.045a37.146 37.146 0 0 0-3.89-.484c-2.388-.167-5.427-.132-7.875.73l-.008.003c-3.56 1.322-8.556 3.132-10.654 3.792a2.223 2.223 0 0 0-.662.295l-11.523-3.269c-.702-.233-1.354.032-1.887.395a.515.515 0 0 0-.043.033c-1.252 1.065-1.015 2.966.396 3.79a227.157 227.157 0 0 1 3.02 1.64h.001c1.82 1 3.86 2.119 5.812 3.109 1.575.799 3.115 1.526 4.47 2.054 1.34.521 2.559.874 3.47.874 2.411 0 7.368-.924 11.663-1.83a292.797 292.797 0 0 0 7.883-1.782l.17-.041a.498.498 0 0 0 .191-.093v1.78a1.5 1.5 0 0 0 1.5 1.5h3.161a1.5 1.5 0 0 0 1.5-1.5V72.308a1.5 1.5 0 0 0-1.5-1.5h-3.16zm-1.809 3.278l.101-.485-.1.485zm.31 7.883v-7.486a.5.5 0 0 1-.413.097h-.004l-.014-.004-.057-.011a29.526 29.526 0 0 0-1.085-.187 36.139 36.139 0 0 0-2.923-.326c-2.35-.165-5.22-.117-7.468.674-3.56 1.322-8.59 3.145-10.71 3.811a.461.461 0 0 1-.026.008c-.484.123-.758.46-.758.839 0 .59.458 1.145 1.104 1.154l7.108-.495a.5.5 0 1 1 .07.997l-7.127.497a.506.506 0 0 1-.035 0c-1.29 0-2.12-1.094-2.12-2.153 0-.244.047-.468.13-.67L25.7 75.564a.542.542 0 0 1-.024-.008c-.261-.089-.57-.028-.992.255-.669.59-.578 1.646.263 2.143.902.477 1.934 1.044 3.038 1.65 1.805.99 3.805 2.089 5.751 3.076 1.563.793 3.07 1.503 4.381 2.014 1.33.518 2.398.806 3.106.806 2.286 0 7.128-.895 11.458-1.809a292.491 292.491 0 0 0 7.375-1.66l.156-.037.323-.078.167-.04.086.347-.086-.348a.5.5 0 0 1 .43.094zm1-9.66a.5.5 0 0 1 .5-.5h3.16a.5.5 0 0 1 .5.5v12.225a.5.5 0 0 1-.5.5h-3.16a.5.5 0 0 1-.5-.5V72.308z" fill="#101010"/></svg>