<svg width="32" height="32" xmlns="http://www.w3.org/2000/svg"><circle cx="16" cy="16" r="12"/><path d="M15.795 8.538C18.418 8.538 21 9.812 21 12.86c0 2.811-3.053 3.893-3.71 4.909-.491.755-.327 1.817-1.68 1.817-.88 0-1.311-.756-1.311-1.448 0-2.575 3.585-3.157 3.585-5.277 0-1.167-.736-1.86-1.966-1.86-2.623 0-1.599 2.854-3.585 2.854-.717 0-1.333-.454-1.333-1.318 0-2.121 2.294-4 4.795-4zm-.102 12.453c.92 0 1.68.799 1.68 1.773 0 .975-.758 1.774-1.68 1.774-.922 0-1.681-.798-1.681-1.774 0-.974.758-1.773 1.68-1.773z" fill="#fff"/></svg>