<svg width="24" height="24" fill="none" xmlns="http://www.w3.org/2000/svg"><path d="M22.403 11.017a1.57 1.57 0 00.395-1.611 1.554 1.554 0 00-1.26-1.07l-5.266-.772a.688.688 0 01-.519-.38L13.4 2.377A1.55 1.55 0 0012 1.5a1.55 1.55 0 00-1.398.876l-2.355 4.81a.689.689 0 01-.519.379l-5.266.771a1.554 1.554 0 00-1.26 1.07 1.57 1.57 0 00.395 1.611l3.81 3.743c.163.16.237.39.199.615l-.899 5.285c-.08.465.041.918.34 1.275a1.568 1.568 0 001.923.382l4.71-2.496a.7.7 0 01.64 0l4.71 2.496c.23.122.474.183.726.183.46 0 .897-.206 1.197-.565.3-.357.42-.81.34-1.275l-.899-5.285a.698.698 0 01.199-.615l3.81-3.743z" fill="#F61D2A"/></svg>