<svg width="22" height="22" fill="none" xmlns="http://www.w3.org/2000/svg"><path fill-rule="evenodd" clip-rule="evenodd" d="M20.653 9.304a.573.573 0 0 0 .143-.592.551.551 0 0 0-.45-.387l-5.254-.771a1.687 1.687 0 0 1-1.27-.93l-2.35-4.809a.546.546 0 0 0-.497-.315.545.545 0 0 0-.496.315l-2.35 4.808c-.244.5-.718.85-1.27.931l-5.255.771a.552.552 0 0 0-.45.387.573.573 0 0 0 .144.593l3.801 3.743a1.7 1.7 0 0 1 .483 1.494l-.897 5.287a.55.55 0 0 0 .12.465h.002c.166.2.46.257.68.14l4.7-2.496a1.697 1.697 0 0 1 1.574-.002l.003.002 4.7 2.496a.53.53 0 0 0 .254.066c.157 0 .313-.07.426-.206h.001a.55.55 0 0 0 .121-.465l-.897-5.287a1.699 1.699 0 0 1 .482-1.494l3.802-3.744zm-16.057 5.07a.7.7 0 0 0-.198-.614L.596 10.017a1.573 1.573 0 0 1-.394-1.61A1.551 1.551 0 0 1 1.46 7.335l5.254-.771a.688.688 0 0 0 .518-.38L9.58 1.376c.264-.54.8-.876 1.395-.876.597 0 1.132.336 1.396.876l2.349 4.809c.1.205.293.347.517.38l5.254.77a1.553 1.553 0 0 1 1.257 1.07 1.575 1.575 0 0 1-.394 1.612l-3.802 3.743a.7.7 0 0 0-.198.615l.898 5.285c.08.465-.041.918-.34 1.275-.3.359-.735.565-1.194.565-.251 0-.495-.061-.724-.183l-4.699-2.496a.697.697 0 0 0-.64 0l-4.698 2.496a1.562 1.562 0 0 1-2.258-1.657l.897-5.285z" fill="#101010"/></svg>