<svg width="32" height="32" xmlns="http://www.w3.org/2000/svg"><path fill-rule="evenodd" clip-rule="evenodd" d="M14.21 3.544a.4.4 0 00-.4.4v5.5a.4.4 0 00.4.4h3.019a.4.4 0 00.4-.4v-.749h1.701v2.85h-.023a.4.4 0 00-.398.364l-1.215 13.763a3.376 3.376 0 106.726 0l-1.215-13.763a.4.4 0 00-.38-.364v-1.6c0-.253.001-.597.058-.935.058-.347.164-.622.326-.783.426-.426 1.308-.875 2.292-.819.948.054 2.054.584 2.955 2.229a.4.4 0 00.75-.155c.118-1.265-.006-2.722-.58-3.881-.586-1.187-1.647-2.057-3.319-2.057H19.73a.4.4 0 00-.4.4v.797h-1.7v-.797a.4.4 0 00-.4-.4h-3.02zm7.816 8V9.937c0-.249 0-.65.068-1.058.067-.403.21-.879.549-1.218.574-.573 1.674-1.122 2.903-1.051.981.056 2.005.503 2.889 1.565-.043-.794-.207-1.575-.526-2.22-.47-.952-1.274-1.61-2.602-1.61H20.13v.796a.4.4 0 01-.4.4h-2.5a.4.4 0 01-.4-.4v-.797h-2.22v4.7h2.22v-.749a.4.4 0 01.4-.4h2.501a.4.4 0 01.4.4v3.25h1.896zm-2.353.8l-1.182 13.398a2.576 2.576 0 105.132 0L22.44 12.344h-2.768zm-13.585-8.4a.4.4 0 00-.578-.358l-.002.002-.008.004-.025.013a5.885 5.885 0 00-.398.235c-.252.162-.59.404-.929.722-.67.63-1.393 1.601-1.393 2.878a4.45 4.45 0 002.799 4.132L4.08 25.96v.005a3.134 3.134 0 106.244 0L8.85 11.573a4.45 4.45 0 002.8-4.133c0-1.419-.743-2.395-1.454-3a5.476 5.476 0 00-1.394-.855l-.027-.011-.009-.003-.002-.001h-.002l-.139.374.139-.375a.4.4 0 00-.539.375v3.802H6.088V3.944zm1.982 7.86a4.467 4.467 0 01-1.737 0L4.876 26.036a2.334 2.334 0 104.651 0L8.07 11.803zM5.51 3.585l.178.358-.178-.358zm-.815 1.56c.205-.193.412-.355.593-.484v3.484c0 .221.18.4.4.4h2.935a.4.4 0 00.4-.4V4.587c.197.116.426.269.654.463.602.511 1.173 1.283 1.173 2.39a3.648 3.648 0 11-7.296 0c0-.959.544-1.734 1.14-2.294z"/><path d="M7.952 26.16a.75.75 0 11-1.5 0 .75.75 0 011.5 0z"/></svg>