<svg width="220" height="188" fill="none" xmlns="http://www.w3.org/2000/svg"><path fill-rule="evenodd" clip-rule="evenodd" d="M28.264 26.77a9.5 9.5 0 00-9.5 9.5v71.773h-1V36.269c0-5.798 4.701-10.5 10.5-10.5h113.698v1H28.264zm157.66 0h-26.113v-1h26.113c5.799 0 10.5 4.7 10.5 10.5v31.953h-1V36.27a9.5 9.5 0 00-9.5-9.5zm9.5 107.386V92.151h1v42.005c0 5.799-4.701 10.5-10.5 10.5h-27.358v-1h27.358a9.5 9.5 0 009.5-9.5zm-176.66-13.66v13.66a9.5 9.5 0 009.5 9.5h87.132v1H28.264c-5.799 0-10.5-4.701-10.5-10.5v-13.66h1z" fill="#101010"/><path fill-rule="evenodd" clip-rule="evenodd" d="M123.283 46.694H18.679v-1h104.604v1zm72.641 0h-55.623v-1h55.623v1z" fill="#000"/><path d="M34.037 37.062a3.32 3.32 0 11-6.641 0 3.32 3.32 0 016.641 0zm13.283 0a3.32 3.32 0 11-6.64 0 3.32 3.32 0 016.64 0zm13.284 0a3.32 3.32 0 11-6.642 0 3.32 3.32 0 016.642 0z" fill="#101010"/><path fill-rule="evenodd" clip-rule="evenodd" d="M207.547 68.78H48.981c-6.325 0-11.452 5.127-11.452 11.452s5.127 11.453 11.452 11.453h158.566c6.325 0 11.453-5.128 11.453-11.453 0-6.325-5.128-11.453-11.453-11.453zm-158.566-1c-6.877 0-12.452 5.574-12.452 12.452 0 6.877 5.575 12.453 12.452 12.453h158.566c6.878 0 12.453-5.576 12.453-12.453 0-6.878-5.575-12.453-12.453-12.453H48.981z" fill="#101010"/><path fill-rule="evenodd" clip-rule="evenodd" d="M207.547 68.78h-44c-6.325 0-11.453 5.127-11.453 11.452s5.128 11.453 11.453 11.453h44c6.325 0 11.453-5.128 11.453-11.453 0-6.325-5.128-11.453-11.453-11.453zm-44-1c-6.877 0-12.453 5.574-12.453 12.452 0 6.877 5.576 12.453 12.453 12.453h44c6.878 0 12.453-5.576 12.453-12.453 0-6.878-5.575-12.453-12.453-12.453h-44z" fill="#F61D2A"/><path fill-rule="evenodd" clip-rule="evenodd" d="M42.34 119.911h12.452a5.642 5.642 0 000-11.283H42.34a5.642 5.642 0 000 11.283zm19.094-5.642a6.641 6.641 0 00-6.642-6.641H42.34a6.641 6.641 0 100 13.283h12.453a6.642 6.642 0 006.642-6.642zm-54.793 5.642h12.453a5.642 5.642 0 000-11.283H6.641a5.642 5.642 0 000 11.283zm19.095-5.642a6.641 6.641 0 00-6.642-6.641H6.641a6.641 6.641 0 100 13.283h12.453a6.642 6.642 0 006.642-6.642z" fill="#101010"/><path fill-rule="evenodd" clip-rule="evenodd" d="M48.651 114.269a.5.5 0 01-.5.5H12.038a.5.5 0 010-1h36.113a.5.5 0 01.5.5zM164.428 1.852a.5.5 0 01.696-.031l9.818 8.73a.499.499 0 01.027.721L130.706 56.97a.5.5 0 01-.213.13l-12.045 3.686a.5.5 0 01-.632-.6l2.96-11.803a.507.507 0 01.121-.221l43.531-46.31zm-42.883 47.575l-2.543 10.143 10.35-3.168-7.807-6.975zm8.776 6.5l-8.344-7.455 42.846-45.581 9.064 8.06-43.566 44.977z" fill="#101010"/><g filter="url(#filter0_d)"><path fill-rule="evenodd" clip-rule="evenodd" d="M160.9 157.832l-8.16-8.375.719-.695 8.16 8.374-.719.696zm-2.736-13.76l8.003 8.176-.717.697-8.003-8.176.717-.697z" fill="#101010"/></g><path fill-rule="evenodd" clip-rule="evenodd" d="M136.766 154.158c14.463 0 26.182-11.682 26.182-26.086 0-14.403-11.719-26.086-26.182-26.086s-26.181 11.683-26.181 26.086c0 14.404 11.718 26.086 26.181 26.086zm0 1c15.012 0 27.182-12.126 27.182-27.086 0-14.959-12.17-27.086-27.182-27.086-15.012 0-27.181 12.127-27.181 27.086 0 14.96 12.169 27.086 27.181 27.086z" fill="#101010"/><path fill-rule="evenodd" clip-rule="evenodd" d="M136.266 108.205a.5.5 0 01.5-.5c11.286 0 20.437 9.117 20.437 20.368 0 4.552-1.499 8.757-4.032 12.149a.5.5 0 01-.802-.599 19.23 19.23 0 003.834-11.55c0-10.695-8.7-19.368-19.437-19.368a.5.5 0 01-.5-.5zm-4.113.528a.5.5 0 01-.357.611 19.378 19.378 0 00-5.52 2.421.499.499 0 11-.539-.842 20.35 20.35 0 015.805-2.546.5.5 0 01.611.356zm58.658 65.828L170.79 154.61a5.24 5.24 0 00-7.392 0 5.195 5.195 0 000 7.367l20.021 19.951a5.24 5.24 0 007.392 0 5.195 5.195 0 000-7.367zm-28.122-20.656a6.193 6.193 0 000 8.778l20.021 19.951a6.246 6.246 0 008.81 0 6.194 6.194 0 000-8.779l-20.021-19.95a6.244 6.244 0 00-8.81 0z" fill="#101010"/><path d="M52.663 84.895a.678.678 0 11-1.356 0 .678.678 0 011.356 0z" fill="#101010"/><path fill-rule="evenodd" clip-rule="evenodd" d="M52.411 75.39c-1.065.012-2.2.574-2.805 1.633a.5.5 0 11-.868-.497c.799-1.397 2.28-2.12 3.662-2.136 1.39-.016 2.774.694 3.217 2.247.209.729.135 1.338-.13 1.88-.25.513-.659.94-1.05 1.33l-.137.138c-.763.759-1.536 1.528-1.833 2.862a.5.5 0 11-.976-.217c.362-1.628 1.328-2.586 2.084-3.335l.155-.155c.4-.4.692-.718.859-1.06.152-.314.21-.669.067-1.168-.29-1.016-1.187-1.534-2.245-1.522z" fill="#101010"/><path d="M61.891 84.895a.678.678 0 11-1.356 0 .678.678 0 011.356 0z" fill="#101010"/><path fill-rule="evenodd" clip-rule="evenodd" d="M61.64 75.39c-1.065.012-2.2.574-2.804 1.633a.5.5 0 01-.868-.497c.798-1.397 2.278-2.12 3.66-2.136 1.391-.016 2.775.694 3.219 2.247.208.729.134 1.338-.13 1.88-.25.513-.66.94-1.05 1.33l-.138.138c-.763.759-1.536 1.528-1.833 2.862a.5.5 0 01-.976-.217c.362-1.628 1.328-2.586 2.084-3.335l.156-.155c.399-.4.69-.718.858-1.06.152-.314.21-.669.067-1.168-.29-1.016-1.187-1.534-2.244-1.522z" fill="#101010"/><path d="M71.12 84.895a.678.678 0 11-1.356 0 .678.678 0 011.357 0z" fill="#101010"/><path fill-rule="evenodd" clip-rule="evenodd" d="M70.87 75.39c-1.066.012-2.2.574-2.805 1.633a.5.5 0 11-.868-.497c.798-1.397 2.279-2.12 3.661-2.136 1.39-.016 2.774.694 3.218 2.247.208.729.134 1.338-.13 1.88-.25.513-.66.94-1.05 1.33l-.138.138c-.763.759-1.536 1.528-1.832 2.862a.5.5 0 11-.977-.217c.362-1.628 1.329-2.586 2.084-3.335l.156-.155c.4-.4.691-.718.858-1.06.153-.314.21-.669.067-1.168-.29-1.016-1.187-1.534-2.244-1.522z" fill="#101010"/><path fill-rule="evenodd" clip-rule="evenodd" d="M128.37 122.285a.502.502 0 01.708 0l14.637 14.638a.5.5 0 01-.707.707l-14.638-14.638a.5.5 0 010-.707z" fill="#F61D2A"/><path fill-rule="evenodd" clip-rule="evenodd" d="M143.714 122.285a.5.5 0 00-.707 0l-14.638 14.638a.5.5 0 00.708.707l14.637-14.638a.499.499 0 000-.707z" fill="#F61D2A"/><defs><filter id="filter0_d" x="147.302" y="144.072" width="24.303" height="24.635" filterUnits="userSpaceOnUse" color-interpolation-filters="sRGB"><feFlood flood-opacity="0" result="BackgroundImageFix"/><feColorMatrix in="SourceAlpha" values="0 0 0 0 0 0 0 0 0 0 0 0 0 0 0 0 0 0 127 0"/><feOffset dy="5.438"/><feGaussianBlur stdDeviation="2.719"/><feColorMatrix values="0 0 0 0 0 0 0 0 0 0 0 0 0 0 0 0 0 0 0.25 0"/><feBlend in2="BackgroundImageFix" result="effect1_dropShadow"/><feBlend in="SourceGraphic" in2="effect1_dropShadow" result="shape"/></filter></defs></svg>