<svg width="32" height="32" fill="none" xmlns="http://www.w3.org/2000/svg"><path d="M29.5 15.5a.5.5 0 00-.5.5 13.044 13.044 0 01-2.646 7.8 12.999 12.999 0 01-6.786 4.649 12.975 12.975 0 01-8.213-.36A13.006 13.006 0 015 22.864l2.18.24a.5.5 0 00.405-.833.5.5 0 00-.345-.168L4 21.742h-.1a.48.48 0 00-.52.39l-.65 3.247a.502.502 0 00.39.592h.1a.51.51 0 00.49-.401l.43-2.145a14.006 14.006 0 006.853 5.647 13.973 13.973 0 008.863.385 14 14 0 007.315-5.03A14.048 14.048 0 0030 16a.502.502 0 00-.5-.5zM3 16a13.045 13.045 0 012.452-7.585 13.002 13.002 0 016.404-4.733 12.974 12.974 0 017.956-.107 13 13 0 016.528 4.559h-2.17a.5.5 0 00-.354.855.5.5 0 00.354.147h3.34a.5.5 0 00.49-.45l.33-3.298a.506.506 0 00-.455-.546.501.501 0 00-.545.456l-.22 2.195a14 14 0 00-7.036-4.886 13.972 13.972 0 00-8.558.132 14.002 14.002 0 00-6.883 5.1A14.049 14.049 0 002 16a.502.502 0 00.854.355A.502.502 0 003 16z" fill="#101010"/></svg>