<svg width="32" height="32" fill="none" xmlns="http://www.w3.org/2000/svg"><path d="M29.5 15.5a.5.5 0 0 0-.5.5 13.044 13.044 0 0 1-2.646 7.8 12.999 12.999 0 0 1-6.786 4.649 12.975 12.975 0 0 1-8.213-.36A13.006 13.006 0 0 1 5 22.864l2.18.24a.5.5 0 0 0 .405-.833.5.5 0 0 0-.345-.168L4 21.742h-.1a.48.48 0 0 0-.52.39l-.65 3.247a.502.502 0 0 0 .39.592h.1a.51.51 0 0 0 .49-.401l.43-2.145a14.006 14.006 0 0 0 6.853 5.647 13.973 13.973 0 0 0 8.863.385 14 14 0 0 0 7.315-5.03A14.048 14.048 0 0 0 30 16a.502.502 0 0 0-.5-.5zM3 16a13.045 13.045 0 0 1 2.452-7.585 13.002 13.002 0 0 1 6.404-4.733 12.974 12.974 0 0 1 7.956-.107 13 13 0 0 1 6.528 4.559h-2.17a.5.5 0 0 0-.354.855.5.5 0 0 0 .354.147h3.34a.5.5 0 0 0 .49-.45l.33-3.298a.506.506 0 0 0-.455-.546.501.501 0 0 0-.545.456l-.22 2.195a14 14 0 0 0-7.036-4.886 13.972 13.972 0 0 0-8.558.132 14.002 14.002 0 0 0-6.883 5.1A14.049 14.049 0 0 0 2 16a.502.502 0 0 0 .854.355A.502.502 0 0 0 3 16z" fill="#101010"/></svg>