<svg width="76" height="71" fill="none" xmlns="http://www.w3.org/2000/svg"><path d="M37.912 57.558c14.306 0 25.904-11.154 25.904-24.914 0-13.759-11.598-24.913-25.904-24.913S12.008 18.885 12.008 32.644c0 13.76 11.598 24.914 25.904 24.914z" fill="#FFD24B"/><path fill-rule="evenodd" clip-rule="evenodd" d="M63.702 31.651l.063 1.188c0 9.404-5.43 17.6-13.435 21.83L37.266 44.307l9.606-24.147 16.83 11.492z" fill="#FFBF00"/><path fill-rule="evenodd" clip-rule="evenodd" d="M38.072.67c12.08.11 23.745 6.988 29.294 17.248 4.716 8.717 4.913 19.54.54 28.402-6.194 12.548-21.387 20.383-36.134 17.754C21.551 62.25 12.42 55.518 7.897 46.495c-4.466-8.907-4.29-19.812.45-28.577C13.895 7.662 25.487.781 37.643.671h.43zm-.423 1c-11.704.106-23.012 6.784-28.38 16.71-4.567 8.443-4.757 18.928-.521 27.512 6 12.157 20.717 19.747 35.005 17.2 9.963-1.777 18.859-8.377 23.214-17.2 4.242-8.597 4.044-19.073-.522-27.513C61.071 8.444 49.847 1.777 38.065 1.67h-.416z" fill="#FFECB4"/><path fill-rule="evenodd" clip-rule="evenodd" d="M37.874 42.836l-13.09-15.987 4.172-6.407h17.658l4.49 6.407-13.23 15.987z" fill="#FFF3CE"/><path fill-rule="evenodd" clip-rule="evenodd" d="M32.655 35.76l-1.145 1.027c-3.023-3.848-6.206-7.94-7.364-9.537-.37-.511-.316-.95.145-1.528.866-1.087 4.02-5.319 4.02-5.319.237-.281.646-.508 1.001-.526h17.233c.21 0 .466.13.663.36l1.132 1.466-1.136 1.018-3.419 3.063-2.755 2.47-5.19 4.652-1.26 1.13-1.925 1.724z" fill="#FFF8E4"/><path fill-rule="evenodd" clip-rule="evenodd" d="M24.146 27.25c-.37-.511-.316-.95.145-1.528.866-1.087 4.02-5.319 4.02-5.319.237-.281.646-.508 1.001-.526h17.233c.21 0 .466.13.663.36 0 0 3.653 4.653 4.45 5.766.294.41.24.851 0 1.247L38.616 44.056c-.261.337-1.117.334-1.382 0-2.4-3.027-11.008-13.94-13.088-16.808zm17.112.102h-6.91l3.56 13.253 3.35-13.253zm1.6 0L39.42 40.605 49.6 27.352h-6.74zm-10.12 0h-6.565L36.39 40.605l-3.652-13.253zm13.846-5.44l-2.848 3.941h5.87l-3.023-3.94zM26.15 25.854h5.727L29.13 21.93l-2.98 3.923zm8.733 0h5.873l-2.844-3.94-3.03 3.94zm1.507-4.478h-5.77l2.751 3.928 3.02-3.928zm8.687 0H39.42l2.826 3.914 2.831-3.914z" fill="url(#paint0_linear)"/><path fill-rule="evenodd" clip-rule="evenodd" d="M46.545 19.877c.21 0 .466.13.663.36l1.132 1.466-1.136 1.018-.62-.808-2.798 3.871-2.756 2.47.228-.902h-6.91l1.492 5.554-1.26 1.13-1.842-6.684h-6.565l6.483 8.408-1.146 1.027c-2.45-3.12-5.006-6.399-6.503-8.38l-.031-.042-.125-.166-.049-.064-.101-.136-.054-.071-.088-.119-.054-.071-.081-.11-.05-.066-.08-.11-.04-.053-.108-.15a1.272 1.272 0 0 1-.224-.463l-.004-.023a.903.903 0 0 1 .035-.462l.007-.023a1.98 1.98 0 0 1 .331-.556 220.84 220.84 0 0 0 2.642-3.477l.022-.03.214-.285 1.004-1.343.137-.184c.102-.12.236-.231.383-.32l.009-.005.008-.005a1.795 1.795 0 0 1 .24-.115c.121-.046.245-.075.362-.081h17.233zM26.15 25.852h5.728L29.13 21.93l-2.981 3.923zm8.733 0h5.873l-2.844-3.94-3.03 3.94zm1.508-4.478h-5.77l2.75 3.928 3.02-3.928zm8.686 0h-5.656l2.825 3.914 2.831-3.914z" fill="url(#paint1_linear)"/><path fill-rule="evenodd" clip-rule="evenodd" d="M19.287 65.785S14.6 67.374 6.202 70.217c.788-4.319 2.164-7.849 2.164-7.849l-7.665-3.17L11.577 54.9l7.71 10.885z" fill="#F20D59"/><path fill-rule="evenodd" clip-rule="evenodd" d="M18.515 63.656l.882 2.075-4.01-1.181 3.128-.894z" fill="#DA0C51"/><path fill-rule="evenodd" clip-rule="evenodd" d="M56.5 65.785s4.688 1.589 13.085 4.432c-1.09-5.018-2.164-7.849-2.164-7.849l7.665-3.17L64.21 54.9 56.5 65.785z" fill="#F20D59"/><path fill-rule="evenodd" clip-rule="evenodd" d="M57.413 63.656L56.5 65.73l4.01-1.181-3.097-.894z" fill="#DA0C51"/><path fill-rule="evenodd" clip-rule="evenodd" d="M37.991 61.418c-4.862 0-10.738.366-22.627 3.122 0 0-2.663-6.806-4.53-11.885 8.611-2.233 18.105-3.404 27.157-3.404 9.053 0 15.047.622 27.158 3.404-.899 2.263-4.53 11.885-4.53 11.885-11.73-2.83-17.766-3.122-22.628-3.122z" fill="#F37"/><path d="M16.524 59.402l-.698-3.942c.455-.098.87-.177 1.243-.238.454-.074.815-.043 1.08.094a.88.88 0 0 1 .478.665c.068.389-.037.709-.315.96l.002.012a.9.9 0 0 1 .485.258c.135.138.224.32.264.552.07.396-.021.723-.274.983-.25.254-.608.42-1.076.496a14.89 14.89 0 0 1-1.19.16zm1.025-1.806l-.365.06.132.742c.09.008.198.002.323-.018.366-.06.523-.23.474-.509-.042-.238-.23-.33-.564-.275zm-.342-1.523c-.07.012-.168.036-.29.071l.127.72.312-.051c.29-.048.413-.2.367-.457a.317.317 0 0 0-.175-.24.542.542 0 0 0-.34-.043zm5.465 1.408l.46.634c-.106.154-.277.291-.513.412a2.43 2.43 0 0 1-.768.231c-.643.087-1.193-.03-1.65-.351-.458-.33-.732-.801-.822-1.415-.087-.6.03-1.118.353-1.556.322-.438.826-.703 1.512-.796.26-.035.509-.03.744.016.236.046.43.122.583.23l-.32.738a1.67 1.67 0 0 0-.882-.13 1.157 1.157 0 0 0-.788.43c-.186.238-.252.549-.196.932.05.349.21.623.476.823.265.193.584.264.954.214a1.5 1.5 0 0 0 .857-.412zm3.368.899l-2.523.269-.462-3.997 2.464-.263.099.857-1.514.16.081.703 1.336-.142.098.856-1.335.143.084.725 1.573-.168.099.856zm-3.015-4.517a.382.382 0 0 1 .126-.34.679.679 0 0 1 .404-.167.602.602 0 0 1 .397.085c.115.072.18.173.194.303a.43.43 0 0 1-.116.365.577.577 0 0 1-.368.172.667.667 0 0 1-.434-.084.43.43 0 0 1-.203-.334zm1.37-.146a.383.383 0 0 1 .13-.34.68.68 0 0 1 .402-.167.604.604 0 0 1 .397.084.4.4 0 0 1 .194.304.435.435 0 0 1-.114.364.575.575 0 0 1-.37.173.662.662 0 0 1-.434-.084.43.43 0 0 1-.204-.334zm3.052 4.457l-.314-3.986c.463-.057.883-.1 1.26-.127.46-.033.816.03 1.066.19.25.16.388.396.412.705.03.393-.104.703-.406.928v.011a.895.895 0 0 1 .459.301c.121.149.191.34.21.572.031.401-.092.72-.368.955-.274.23-.647.364-1.12.398-.551.04-.951.058-1.199.053zm1.195-1.706l-.37.027.06.75c.09.017.197.02.324.011.37-.026.543-.181.521-.464-.02-.24-.197-.348-.535-.324zm-.194-1.547a2.64 2.64 0 0 0-.296.045l.058.727.315-.023c.294-.021.43-.162.41-.422a.314.314 0 0 0-.151-.253.54.54 0 0 0-.336-.074zm3.348 2.972l-.954.04-.184-4.017.955-.04.08 1.75 1.286-1.808 1.146-.048-1.485 1.92 1.794 2.092-1.212.05-1.513-1.85.087 1.911z" fill="#fff"/><path d="M38.049 57.79l-.956.014-.048-3.159-.92.013-.078.76c-.073.698-.183 1.233-.33 1.605-.149.371-.33.614-.545.728-.215.114-.497.145-.844.093l.004-.92c.087.014.16.012.218-.006a.44.44 0 0 0 .186-.143 1.16 1.16 0 0 0 .18-.364c.117-.347.202-.945.253-1.797l.047-.804 2.771-.04.062 4.02zm1.639.028l-.956-.029.13-4.019.955.029-.05 1.539.526.015a1.98 1.98 0 0 1 .736-1.139c.372-.287.829-.423 1.37-.407.644.02 1.16.224 1.545.615.386.383.57.892.549 1.528-.02.604-.237 1.098-.651 1.48-.415.375-.94.553-1.577.534a2.147 2.147 0 0 1-1.353-.495c-.376-.314-.597-.732-.664-1.255l-.508-.015-.052 1.619zm1.557-1.965c-.011.344.09.636.3.877.212.24.471.364.777.373.37.011.653-.09.847-.302.194-.213.297-.506.31-.881.011-.368-.081-.666-.277-.894-.196-.228-.463-.347-.801-.357a1.05 1.05 0 0 0-.81.315c-.22.22-.334.509-.346.869zm6.088-1.935l.953.065-.294 4.01-.953-.064.112-1.536c-.222.142-.526.2-.911.175a1.387 1.387 0 0 1-.88-.368c-.237-.222-.34-.554-.307-.997l.105-1.433.953.065-.084 1.157c-.02.252.018.435.11.546.09.112.232.174.422.187.227.016.445-.04.653-.169l.12-1.638zm3.912 4.379l-2.526-.243.417-4.002 2.466.238-.089.858L49.998 55l-.074.703 1.337.13-.09.857-1.336-.129-.076.726 1.575.152-.09.857zm3.962.733l-.948-.118.217-1.607-1.51-.188-.217 1.606-.948-.118.538-3.987.948.118-.206 1.526 1.51.19.206-1.528.948.119-.538 3.987zm.892-2.108c.1-.586.387-1.041.859-1.366.476-.327 1.038-.44 1.687-.336.644.103 1.136.373 1.476.812.348.44.468.97.361 1.59-.102.596-.395 1.054-.879 1.373-.478.32-1.034.428-1.667.328-.64-.103-1.134-.374-1.482-.814-.344-.439-.462-.968-.355-1.587zm1.001.16c-.058.335.009.64.2.91.188.267.45.428.783.48.377.06.689-.004.936-.194.248-.197.402-.47.462-.817.062-.359-.002-.666-.192-.921a1.177 1.177 0 0 0-.791-.47 1.19 1.19 0 0 0-.912.198c-.263.187-.425.458-.486.813z" fill="#fff"/><path fill-rule="evenodd" clip-rule="evenodd" d="M22.58 43.937c1.236-.34 1.815-.682 1.835-2.594 0 1.775.829 2.594 2.131 2.594-1.322 0-2.13.888-2.13 2.39 0-1.502-.538-2.253-1.836-2.39z" fill="#FFF8E4"/><path fill-rule="evenodd" clip-rule="evenodd" d="M24.372 41.06c.506.037.367.836.465 1.258.164.71.752 1.297 1.683 1.338 0 0 .212.038.3.179.158.25-.051.559-.437.571-.397.022-.794.147-1.076.412-.439.412-.556 1.04-.56 1.604 0 0-.02.176-.121.268-.296.272-.565-.022-.703-.925a1.642 1.642 0 0 0-1.447-1.364s-.203-.036-.293-.187c-.15-.255.119-.507.497-.622.845-.266 1.27-1.06 1.287-2.163 0 0 .018-.37.405-.369zm-.007 2.258c-.169.277-.405.51-.69.674.307.175.549.437.72.738.34-.548.46-.543.66-.678 0 0 .186.12-.17-.17-.243-.204-.482-.632-.52-.564z" fill="#FF9D00"/><path fill-rule="evenodd" clip-rule="evenodd" d="M48.863 37.724c1.236-.341 1.816-.683 1.835-2.595 0 1.775.829 2.595 2.131 2.595-1.322 0-2.13.887-2.13 2.39 0-1.503-.539-2.255-1.836-2.39z" fill="#FFF8E4"/><path fill-rule="evenodd" clip-rule="evenodd" d="M50.675 34.846c.437.032.358.66.428 1.077.13.77.756 1.508 1.692 1.518 0 0 .353.075.383.334.06.53-1.014.308-1.569.83-.438.412-.555 1.038-.56 1.603 0 0-.008.165-.12.268-.301.276-.566-.022-.704-.925-.103-.674-.607-1.24-1.474-1.368 0 0-.143-.039-.216-.117-.2-.213-.174-.498.448-.688.826-.26 1.27-1.003 1.287-2.163 0 0 .015-.37.405-.369zm-.008 2.258c-.23.379-.806.601-.628.71 0 0 .43.299.66.703.594-.965.938-.483.488-.85-.242-.203-.481-.63-.52-.563z" fill="#FF9D00"/><path fill-rule="evenodd" clip-rule="evenodd" d="M57.088 41.69c2.184-.677 3.208-1.355 3.243-5.149 0 3.523 1.465 5.15 3.766 5.15-2.336 0-3.766 1.76-3.766 4.742 0-2.981-.95-4.473-3.243-4.743z" fill="#FFF8E4"/><path fill-rule="evenodd" clip-rule="evenodd" d="M60.294 35.976c.553.056.27 1.262.62 2.572.28 1.042.94 2.091 2.084 2.435.429.128 1.082.144 1.082.144.438.067.572.718-.238.752-.768.042-1.518.326-2.055.877-.902.925-1.12 2.277-1.125 3.488 0 0-.018.196-.152.295-.23.171-.607.054-.627-.295 0-.135 0-.135-.003-.27a9.942 9.942 0 0 0-.08-1.09c-.147-1.078-.61-2.264-1.736-2.742-.435-.185-1.122-.278-1.122-.278-.394-.107-.474-.576.26-.814.646-.216 1.318-.476 1.778-.978.921-1.009.886-2.475.903-3.727 0 0 .075-.37.41-.369zm.006 3.275a3.685 3.685 0 0 1-1.955 2.166s1.203.636 1.697 1.577c.14.267.28.668.28.668.024-.063.05-.125.078-.187.376-.835 1.012-1.565 1.849-1.97 0 0-.466-.241-.785-.52-.538-.469-.906-1.092-1.15-1.757 0 0 .008-.045-.014.023z" fill="#FF9D00"/><path fill-rule="evenodd" clip-rule="evenodd" d="M23.021 29.172c2.058-.444 3.156-1.108 3.19-4.211 0 2.88 1.44 4.211 3.705 4.211-2.298 0-3.705 1.44-3.705 3.879 0-2.439-1.132-3.879-3.19-3.879z" fill="#FFF8E4"/><path fill-rule="evenodd" clip-rule="evenodd" d="M26.216 24.679c.496.069.335.844.431 1.44.181 1.13.873 2.288 2.116 2.63.46.127 1.157.141 1.157.141.25.035.284.135.326.238.2.497-.89.448-1.653.705a2.813 2.813 0 0 0-1.491 1.165c-.4.643-.53 1.405-.535 2.146 0 0-.007.117-.058.196-.207.32-.703.216-.725-.466a6.683 6.683 0 0 0-.028-.407c-.113-1.098-.617-2.343-1.863-2.708-.375-.11-.943-.123-.943-.123-.13-.018-.165-.044-.223-.094-.26-.227-.228-.542.539-.728.666-.168 1.357-.405 1.8-.925.668-.786.71-1.879.722-2.842 0 0 .012-.388.428-.368zm-.013 2.765a3.207 3.207 0 0 1-1.65 1.733s.458.248.765.52c.408.364.7.827.896 1.324a3.618 3.618 0 0 1 1.744-1.746s-1.237-.698-1.736-1.825c0 0 0-.054-.02-.006z" fill="#FFBF00"/><path fill-rule="evenodd" clip-rule="evenodd" d="M16.12 15.73c1.719-.425 2.637-1.064 2.665-4.044 0 2.767 1.204 4.044 3.096 4.044-1.92 0-3.096 1.384-3.096 3.725 0-2.341-.946-3.725-2.666-3.725z" fill="#FFF8E4"/><path fill-rule="evenodd" clip-rule="evenodd" d="M18.839 11.403c.607.056.354 1.161.527 1.896.204.866.74 1.747 1.677 2.029.361.109.909.12.909.12.245.034.278.13.321.227.112.253-.04.5-.556.527-.565.036-1.124.229-1.537.6-.771.694-.968 1.787-.971 2.746 0 0-.072.335-.338.37-.706.093-.463-1.447-.683-2.12-.275-.845-1.044-1.595-2.038-1.601 0 0-.85-.522.206-.817.484-.141.977-.333 1.322-.695.743-.78.737-1.935.751-2.913 0 0 .007-.37.41-.369zm.004 2.835a2.917 2.917 0 0 1-1.336 1.505s.354.212.598.446c.34.327.58.735.75 1.165a3.245 3.245 0 0 1 1.405-1.525s-.445-.263-.73-.559a3.442 3.442 0 0 1-.68-1.05l-.007.018z" fill="#FFBF00"/><path fill-rule="evenodd" clip-rule="evenodd" d="M36.53 12.84c1.451-.36 2.226-.899 2.25-3.414 0 2.335 1.016 3.414 2.613 3.414-1.621 0-2.613 1.168-2.613 3.144 0-1.976-.799-3.144-2.25-3.144z" fill="#FFF8E4"/><path fill-rule="evenodd" clip-rule="evenodd" d="M38.778 9.144c.56.069.332.983.488 1.644.217.92 1.017 1.762 2.094 1.768 0 0 .27.039.355.225.116.254-.095.507-.52.529-.454.029-.904.18-1.24.473-.654.571-.814 1.486-.82 2.295 0 0-.019.195-.152.293-.284.211-.61.175-.633-.554a5.972 5.972 0 0 0-.039-.481 4.3 4.3 0 0 0-.06-.363c-.173-.807-.764-1.662-1.759-1.668 0 0-.13-.009-.212-.061-.283-.18-.317-.55.368-.742.393-.115.792-.267 1.073-.554.632-.642.622-1.615.634-2.436 0 0 .024-.385.423-.368zm-.016 2.612c-.209.46-.56.851-1.008 1.112 0 0 .728.543 1.02 1.2 0 0 .377-.71 1.025-1.107 0 0 .157.042-.054-.09a2.792 2.792 0 0 1-.964-1.124s.005-.044-.019.01z" fill="#FFBF00"/><path fill-rule="evenodd" clip-rule="evenodd" d="M10.982 34.535c2.387-.776 3.506-1.554 3.544-5.903 0 4.038 1.6 5.903 4.115 5.903-2.552 0-4.115 2.019-4.115 5.436 0-3.417-1.039-5.127-3.544-5.436z" fill="#FFF8E4"/><path fill-rule="evenodd" clip-rule="evenodd" d="M14.475 28.068c.545.059.353.874.422 1.587a8.179 8.179 0 0 0 .19 1.189c.293 1.247.994 2.562 2.383 2.975.454.135 1.142.153 1.142.153.434.07.582.714-.26.752-.713.04-1.413.277-1.955.724-1.273 1.05-1.55 2.811-1.555 4.334 0 0-.044.27-.246.347a.405.405 0 0 1-.533-.347 14.21 14.21 0 0 0-.043-1.103 9.859 9.859 0 0 0-.066-.59 7.723 7.723 0 0 0-.073-.423c-.215-1.06-.754-2.157-1.833-2.638-.476-.212-1.232-.32-1.232-.32-.333-.097-.392-.58-.033-.718.83-.273 1.727-.588 2.304-1.27 1.001-1.184.96-2.845.976-4.282 0 0 .061-.371.412-.37zm.012 3.554a4.215 4.215 0 0 1-2.294 2.643s.64.276 1.054.626c.627.53 1.026 1.273 1.255 2.051.38-1.077 1.127-2.053 2.172-2.564 0 0 .23.056-.087-.104-1.044-.544-1.733-1.563-2.095-2.67a.28.28 0 0 0-.005.018z" fill="#FF9D00"/><path fill-rule="evenodd" clip-rule="evenodd" d="M49.16 16.619c2.993-.727 4.59-1.819 4.64-6.91 0 4.728 2.096 6.91 5.39 6.91-3.344 0-5.39 2.365-5.39 6.366 0-4.001-1.646-6.366-4.64-6.366z" fill="#FFF8E4"/><path fill-rule="evenodd" clip-rule="evenodd" d="M53.909 9.143c1.004.102.44 1.942.83 3.364.517 1.89 2.156 3.534 4.534 3.547 0 0 1.263.961-.218 1.003-1.226.047-2.436.5-3.253 1.405-1.095 1.215-1.395 2.908-1.402 4.459 0 0-1.006 1.28-1.044-.36a11.054 11.054 0 0 0-.159-1.63 8.41 8.41 0 0 0-.107-.506c-.418-1.697-1.81-3.36-3.853-3.372 0 0-.39-.058-.489-.339-.329-.93 2.179-.889 3.267-2.011 1.308-1.347 1.326-3.367 1.346-5.067 0 0 .1-.494.548-.493zm-.005 4.293c-.434 1.301-1.39 2.417-2.673 2.998.44.188.602.295.874.495.889.652 1.47 1.622 1.82 2.657 0 0 .93-2.172 2.812-3.027 0 0-2.092-1.22-2.811-3.192l-.022.069z" fill="#FF9D00"/><defs><linearGradient id="paint0_linear" x1="33.342" y1="35.145" x2="37.931" y2="35.145" gradientUnits="userSpaceOnUse"><stop stop-color="#FF6599"/><stop offset=".52" stop-color="#FF6E7B"/><stop offset="1" stop-color="#FF8C1A"/></linearGradient><linearGradient id="paint1_linear" x1="24.977" y1="23.339" x2="49.599" y2="23.298" gradientUnits="userSpaceOnUse"><stop stop-color="#FF98BA"/><stop offset=".52" stop-color="#FF9594"/><stop offset="1" stop-color="#FF8C1A"/></linearGradient></defs></svg>