<svg width="92" height="88" fill="none" xmlns="http://www.w3.org/2000/svg"><path d="M45.94 72.411c17.425 0 31.551-14.09 31.551-31.47 0-17.382-14.126-31.472-31.55-31.472-17.425 0-31.55 14.09-31.55 31.471s14.125 31.471 31.55 31.471z" fill="#FFD24B"/><path fill-rule="evenodd" clip-rule="evenodd" d="M77.48 43.216c-.966 13.946-11.097 25.397-24.447 28.395l-18.34-16.279L63.708 33.77l13.772 9.446z" fill="#FFBF00"/><path fill-rule="evenodd" clip-rule="evenodd" d="M45.941 23.656l4.536 10.612 11.775.918-8.971 7.477 2.74 11.18-10.08-5.992-10.08 5.991 2.74-11.18-8.97-7.476 11.774-.918 4.536-10.612z" fill="#FFF3CE"/><path fill-rule="evenodd" clip-rule="evenodd" d="M45.94 21.795c1.007 0 1.454.533 1.746 1.145l4.085 9.557s8.32.622 10.628.828c.731.066 1.47.373 1.76 1.425.193.698-.143 1.495-.691 1.915-1.742 1.338-8.063 6.72-8.063 6.72l2.46 10.034s.163.946-.334 1.597c-.566.74-1.465 1.028-2.482.479L45.94 50.08s-7.873 4.723-9.11 5.414c-.626.35-1.397.537-2.242-.14-.561-.451-.72-1.28-.572-1.936.222-.982 2.46-10.033 2.46-10.033s-6.258-5.228-8.064-6.721c-.565-.468-1-1.376-.664-2.192.335-.817 1.047-1.08 1.733-1.148 1.889-.19 10.628-.828 10.628-.828l4.086-9.557s.413-1.145 1.745-1.145zm-4.536 12.5l-11.775.917L38.6 42.69l-2.74 11.18 10.08-5.991 10.081 5.99L53.28 42.69l8.971-7.477-11.775-.918-4.536-10.612-4.536 10.612z" fill="url(#paint0_linear)"/><path fill-rule="evenodd" clip-rule="evenodd" d="M36.686 50.598l1.937-7.902-8.97-7.477 11.773-.918 4.536-10.612L50.5 34.3l3.354.261-17.167 16.036z" fill="#FFF8E4"/><path fill-rule="evenodd" clip-rule="evenodd" d="M34.129 52.959l2.347-9.573s-6.258-5.228-8.064-6.721c-.565-.468-1-1.376-.664-2.192.335-.817 1.047-1.08 1.733-1.148 1.889-.19 10.628-.828 10.628-.828l4.085-9.557s.413-1.145 1.746-1.145c1.007 0 1.454.533 1.745 1.145l4.086 9.557 3.935.306-1.876 1.753-3.354-.262-4.536-10.612-4.537 10.612-11.774.918 8.97 7.477-1.936 7.903-2.534 2.367z" fill="url(#paint1_linear)"/><path fill-rule="evenodd" clip-rule="evenodd" d="M46.294.313c14.78.141 29.069 8.917 35.793 22.005 5.658 11.013 5.844 24.694.437 35.882-7.632 15.789-26.26 25.582-44.151 22.158C21.933 77.213 8.267 62.906 5.94 46.341 4.16 33.673 8.833 20.287 18.105 11.47 25.466 4.469 35.482.411 45.771.313h.523zm-.514 1.262c-14.263.136-28.018 8.553-34.566 21.108-5.563 10.665-5.795 23.911-.636 34.754C17.918 72.86 35.996 82.46 53.454 79.12c15.923-3.048 29.166-16.91 31.419-32.954 1.708-12.162-2.718-25.056-11.616-33.621-7.157-6.888-17-10.875-26.97-10.97h-.508z" fill="#FFECB4"/><path fill-rule="evenodd" clip-rule="evenodd" d="M23.432 82.385L7.496 87.984c.96-5.456 2.636-9.915 2.636-9.915L.797 74.064l13.246-5.43 9.39 13.751z" fill="#F20D59"/><path fill-rule="evenodd" clip-rule="evenodd" d="M22.439 79.552l1.074 2.62-4.884-1.49 3.81-1.13z" fill="#DA0C51"/><path fill-rule="evenodd" clip-rule="evenodd" d="M68.758 82.385l15.936 5.599c-1.329-6.34-2.636-9.915-2.636-9.915l9.335-4.005-13.246-5.43-9.39 13.751z" fill="#F20D59"/><path fill-rule="evenodd" clip-rule="evenodd" d="M69.87 79.552l-1.112 2.62 4.884-1.49-3.773-1.13z" fill="#DA0C51"/><path fill-rule="evenodd" clip-rule="evenodd" d="M46.053 76.96c-5.922 0-13.078.462-27.56 3.944 0 0-3.243-8.597-5.516-15.013 10.487-2.822 22.05-4.3 33.076-4.3 11.025 0 18.325.785 33.076 4.3-1.094 2.858-5.517 15.013-5.517 15.013-14.286-3.576-21.637-3.944-27.56-3.944z" fill="#F37"/><path d="M25.74 73.949l-.758-5.915 3.575-.456.163 1.268-2.22.283.12.938c.16-.055.383-.1.671-.137.577-.074 1.061.033 1.453.321.399.287.634.707.704 1.259.08.625-.06 1.136-.419 1.534-.36.399-.903.644-1.631.737-.3.038-.631.071-.995.1a11.419 11.419 0 0 1-.548.058 2.773 2.773 0 0 0-.115.01zm1.604-2.738a3.578 3.578 0 0 0-.561.123l.15 1.175c.275-.007.446-.014.514-.023.49-.062.711-.297.66-.702a.679.679 0 0 0-.232-.456c-.128-.106-.305-.145-.531-.117zm4.126 2.159l-1.37.122 1.947-6.159 1.217-.107 3.002 5.72-1.454.13-.604-1.205-2.356.209-.383 1.29zm2.114-2.727l-.812-1.62-.523 1.74 1.335-.12zm5.089 2.045c-.96.049-1.693-.272-2.195-.963l.694-.965c.457.46.916.679 1.376.656.24-.012.435-.075.59-.188a.527.527 0 0 0 .214-.484.509.509 0 0 0-.26-.43c-.165-.1-.399-.143-.7-.128l-.546.028-.064-1.276.511-.026a.898.898 0 0 0 .522-.171.464.464 0 0 0 .184-.41c-.01-.182-.074-.317-.196-.404-.12-.088-.284-.126-.489-.116-.409.02-.751.245-1.026.674l-.831-.88c.19-.304.46-.555.813-.752a2.611 2.611 0 0 1 1.159-.328c.557-.027 1.011.099 1.362.38.35.28.539.682.565 1.204.026.516-.203.951-.686 1.305l.001.026c.664.171 1.015.628 1.053 1.371.027.528-.168.967-.583 1.318a2.428 2.428 0 0 1-1.468.56zm2.903-3.058c-.007-.88.28-1.615.862-2.204.587-.595 1.35-.897 2.29-.904.933-.008 1.696.267 2.286.825.603.557.908 1.302.915 2.233.008.897-.288 1.638-.887 2.222-.593.584-1.348.88-2.264.887-.928.007-1.694-.267-2.296-.825-.596-.557-.899-1.302-.906-2.233zm1.452-.01c.004.505.175.932.514 1.281.333.344.741.514 1.225.51.546-.004.97-.175 1.268-.513.3-.349.447-.784.443-1.306-.005-.54-.173-.973-.506-1.3a1.676 1.676 0 0 0-1.234-.492c-.501.003-.912.174-1.234.512-.322.338-.48.773-.476 1.307zm6.14 2.833l.208-5.925c.666-.011 1.27-.007 1.81.011.66.023 1.155.173 1.484.449.33.275.486.643.47 1.103-.02.585-.263 1.02-.729 1.304v.017c.252.105.452.277.601.515.148.238.216.53.204.877-.02.596-.247 1.045-.679 1.348-.426.298-.978.435-1.655.412-.791-.028-1.362-.065-1.714-.111zm1.979-2.326l-.53-.018-.038 1.115c.124.038.277.06.458.066.53.02.802-.182.816-.602.013-.357-.223-.545-.706-.561zm-.022-2.31a3.61 3.61 0 0 0-.428.018l-.038 1.082.452.015c.422.015.639-.17.652-.557a.47.47 0 0 0-.174-.398.745.745 0 0 0-.464-.16zm9.338 5.467l-1.361-.106.461-5.945 1.363.105-.463 5.946zm-4.01-3.173a4 4 0 0 0-.412.01l-.118 1.512c.18.037.313.058.398.065.568.044.873-.208.916-.757.019-.25-.04-.445-.178-.587-.137-.142-.34-.222-.606-.243zm-1.53-3.237l1.362.105-.144 1.86c.166-.01.343-.007.53.007.704.054 1.229.272 1.573.651.344.38.492.887.443 1.521-.05.646-.307 1.147-.768 1.504-.467.352-1.087.497-1.859.438a43.202 43.202 0 0 1-.901-.078 29.732 29.732 0 0 0-.698-.063l.462-5.945zm11.229 3.418l-3.09 3.347-1.187-.149.747-5.916 1.356.17-.465 3.677 3.091-3.347 1.186.15-.747 5.916-1.356-.17.465-3.678zm-2.406-4.123l1.27.16c-.02.158.007.273.078.345.07.072.203.12.395.144.18.023.311.009.392-.04.081-.05.132-.157.153-.32l1.27.159a1.13 1.13 0 0 1-.606.92c-.359.206-.801.276-1.327.21-.559-.07-.983-.247-1.27-.533a1.185 1.185 0 0 1-.355-1.044z" fill="#fff"/><path fill-rule="evenodd" clip-rule="evenodd" d="M21.982 18.2c3.646-.92 5.592-2.298 5.652-8.73 0 5.973 2.553 8.73 6.564 8.73-4.072 0-6.564 2.986-6.564 8.041 0-5.055-2.005-8.041-5.652-8.041z" fill="#FFF8E4"/><path fill-rule="evenodd" clip-rule="evenodd" d="M27.596 8.765c1.222.129.536 2.452 1.01 4.25.637 2.415 2.827 4.465 5.521 4.48 0 0 .557.109.622.535.19 1.234-2.96.334-4.848 2.506-1.333 1.535-1.7 3.674-1.708 5.632 0 0-1.222 1.739-1.27-.453a14.37 14.37 0 0 0-.195-2.06 10.47 10.47 0 0 0-.13-.638c-.51-2.144-2.192-4.244-4.693-4.26 0 0-.521-.092-.612-.49-.28-1.216 2.91-1.05 4.241-2.767 1.341-1.728 1.37-4.07 1.394-6.113 0 0 .122-.625.668-.622zm-.007 5.421c-.53 1.645-1.695 3.056-3.254 3.788.535.238.73.373 1.063.626 1.082.822 1.79 2.048 2.217 3.356 0 0 1.146-2.75 3.424-3.823 0 0-2.525-1.481-3.424-4.032l-.026.085z" fill="#FFBF00"/><path fill-rule="evenodd" clip-rule="evenodd" d="M10.332 38.738c2.506-.56 3.843-1.4 3.885-5.32 0 3.64 1.755 5.32 4.512 5.32-2.799 0-4.512 1.82-4.512 4.9 0-3.08-1.379-4.9-3.885-4.9z" fill="#FFF8E4"/><path fill-rule="evenodd" clip-rule="evenodd" d="M14.23 33.066c.606.088.409 1.066.525 1.82.222 1.432 1.079 2.895 2.577 3.322.56.16 1.41.178 1.41.178.542.078.7.904-.344.953-1.224.07-2.43.613-3.089 1.71-.487.813-.646 1.775-.65 2.711 0 0-.028.254-.19.376-.473.356-.547-.281-.917-1.995-.248-1.15-.956-2.295-2.15-2.657-.457-.14-1.149-.156-1.149-.156-.158-.022-.2-.056-.271-.119-.318-.286-.278-.684.655-.919.83-.217 1.682-.528 2.218-1.2.79-.993.839-2.354.855-3.559 0 0 .01-.49.52-.465zm-.015 3.494a3.992 3.992 0 0 1-2.01 2.189s.558.313.932.658c.497.458.852 1.043 1.09 1.67a4.462 4.462 0 0 1 2.125-2.204s-1.508-.882-2.114-2.306c0 0 0-.069-.023-.007z" fill="#FFBF00"/><path fill-rule="evenodd" clip-rule="evenodd" d="M68.408 21.53c1.768-.455 2.711-1.136 2.741-4.313 0 2.95 1.237 4.313 3.183 4.313-1.975 0-3.183 1.475-3.183 3.972 0-2.497-.973-3.973-2.74-3.973z" fill="#FFF8E4"/><path fill-rule="evenodd" clip-rule="evenodd" d="M71.151 16.513c.683.087.404 1.242.594 2.077.263 1.154 1.218 2.227 2.55 2.234 0 0 .358.06.447.32.11.32-.044.6-.648.632-.553.037-1.1.228-1.509.599-.797.72-.992 1.877-1 2.898 0 0-.05.328-.285.43-.357.155-.644.062-.67-.76a6.743 6.743 0 0 0-.122-1.066c-.21-1.02-.93-2.098-2.141-2.106 0 0-.158-.012-.259-.079-.344-.226-.386-.695.449-.937.48-.144.966-.338 1.307-.699.766-.809.758-2.036.772-3.078 0 0 .025-.487.515-.465zm-.019 3.3a3.094 3.094 0 0 1-1.228 1.405s.883.677 1.243 1.514c0 0 .515-.931 1.248-1.397 0 0 .19.054-.066-.114-.515-.35-.91-.855-1.175-1.42 0 0 .007-.055-.022.012z" fill="#FFBF00"/><path fill-rule="evenodd" clip-rule="evenodd" d="M65.938 51.113c2.01-.567 2.953-1.135 2.985-4.313 0 2.95 1.348 4.313 3.467 4.313-2.151 0-3.467 1.475-3.467 3.972 0-2.497-.875-3.746-2.986-3.972z" fill="#FFF8E4"/><path fill-rule="evenodd" clip-rule="evenodd" d="M68.868 46.097c.589.076.409.97.523 1.662.177 1.066.776 2.176 1.89 2.511.42.127 1.054.14 1.054.14.513.065.691.903-.263.95-.774.047-1.537.352-2.03.965-.569.705-.738 1.647-.741 2.53 0 0-.352.751-.794.347-.176-.16-.075-.43-.229-1.457-.137-.916-.639-1.86-1.577-2.196-.377-.136-.953-.204-.953-.204-.516-.126-.497-.77.402-1.05.555-.177 1.125-.398 1.5-.821.7-.79.688-1.945.703-2.913 0 0 .003-.488.515-.464zm-.02 3.238A3.169 3.169 0 0 1 67.44 50.8s1.025.66 1.434 1.567c0 0 .537-.977 1.433-1.481 0 0-.953-.58-1.434-1.584 0 0-.017.019-.023.033z" fill="#FF9D00"/><defs><linearGradient id="paint0_linear" x1="28.79" y1="40.369" x2="63.09" y2="40.369" gradientUnits="userSpaceOnUse"><stop stop-color="#FF6599"/><stop offset=".52" stop-color="#FF6E7B"/><stop offset="1" stop-color="#FF8C1A"/></linearGradient><linearGradient id="paint1_linear" x1="32.205" y1="52.442" x2="66.207" y2="32.23" gradientUnits="userSpaceOnUse"><stop stop-color="#FF98BA"/><stop offset=".52" stop-color="#FF9594"/><stop offset="1" stop-color="#FF8C1A"/></linearGradient></defs></svg>