<svg width="76" height="71" fill="none" xmlns="http://www.w3.org/2000/svg"><path d="M37.933 57.558c14.302 0 25.896-11.154 25.896-24.914 0-13.759-11.594-24.913-25.896-24.913-14.302 0-25.896 11.154-25.896 24.913 0 13.76 11.594 24.914 25.896 24.914z" fill="#FFD24B"/><path fill-rule="evenodd" clip-rule="evenodd" d="M45.969 56.52L29.066 43.353l23.417-21.5s6.453 4.994 11.198 8.62l.126 2.38c0 11.048-7.491 20.426-17.838 23.665z" fill="#FFBF00"/><path fill-rule="evenodd" clip-rule="evenodd" d="M29.437 43.3H45.37l6.523-21.047-8.769 5.544-5.56-7.92-5.774 7.92-8.448-5.544L29.437 43.3z" fill="#FFF3CE"/><path fill-rule="evenodd" clip-rule="evenodd" d="M35.347 33.867l-6.162 5.55-4.523-15.616 6.823 4.478a.78.78 0 00.993-.174l5.175-7.099 4.638 6.607-2.601 2.343a2.982 2.982 0 00-1.972-.727c-1.656 0-3.001 1.294-3.001 2.887 0 .66.23 1.269.63 1.751z" fill="#FFF8E4"/><path fill-rule="evenodd" clip-rule="evenodd" d="M28.04 38.518h18.847l-1.465 4.408H29.315l-1.276-4.408z" fill="#FFECB4"/><path fill-rule="evenodd" clip-rule="evenodd" d="M52.204 21.698c.37.123.587.483.495.863l-6.271 20.143c-.202.654-1.074 1.398-2.332 1.398H30.928c-.914 0-2.028-.422-2.424-1.745-1.059-3.539-5.736-19.808-5.736-19.808-.126-.568.527-1.084 1.097-.756l7.862 5.16 5.42-7.428a.766.766 0 011.13.075l5.163 7.356 8.252-5.212c.123-.05.164-.118.512-.046zm-6.18 17.562H29.099l.684 2.363c.188.648.801 1.096 1.5 1.096h12.508c.69 0 1.296-.435 1.493-1.07l.74-2.389.404-1.3 4.331-13.978-7.122 4.504a.779.779 0 01-.99-.191l-4.976-7.089-5.175 7.099a.78.78 0 01-.993.174l-6.823-4.478 4.042 13.96h17.706" fill="url(#paint0_linear)"/><path fill-rule="evenodd" clip-rule="evenodd" d="M29.002 39.254h.498l1.436-1.3h-2.311l.377 1.3z" fill="url(#paint1_linear)"/><path fill-rule="evenodd" clip-rule="evenodd" d="M29.565 39.083h-.499l.104.357.395-.357z" fill="#FFF8E4"/><path d="M37.646 34.972c1.658 0 3.002-1.292 3.002-2.887s-1.344-2.888-3.002-2.888c-1.658 0-3.002 1.293-3.002 2.888s1.344 2.887 3.002 2.887z" fill="#FFD24B"/><path fill-rule="evenodd" clip-rule="evenodd" d="M37.755 28.915c2.599.014 4.109 2.605 3.029 4.887-.572 1.208-2.094 2.014-3.65 1.785-1.643-.242-3.18-1.509-2.897-3.842.192-1.578 1.793-2.84 3.518-2.83zm-.077.999c-2.771.292-3.536 3.564-.905 4.6 1.817.714 4.272-1.424 3.09-3.4-.441-.74-1.237-1.206-2.185-1.2z" fill="url(#paint2_linear)"/><path d="M44.21 34.043c.66 0 1.196-.516 1.196-1.152 0-.636-.536-1.152-1.197-1.152s-1.197.516-1.197 1.152c0 .636.536 1.152 1.197 1.152zm-13.065 0c.66 0 1.197-.516 1.197-1.152 0-.636-.536-1.152-1.197-1.152-.662 0-1.198.516-1.198 1.152 0 .636.536 1.152 1.198 1.152z" fill="#FF8C1A"/><path fill-rule="evenodd" clip-rule="evenodd" d="M35.266 33.833c-.396-.419-.621-1.091-.621-1.749 0-1.593 1.344-2.887 3-2.887.758 0 1.51.216 1.981.709" fill="#FFDF80"/><path fill-rule="evenodd" clip-rule="evenodd" d="M37.508 28.916c.972-.026 1.869.267 2.45.867l-.758.681c-1.302-1.34-4.499.136-4.03 2.351.07.326.156.689.39.94l-.75.639c-1.72-2.001-.348-5.396 2.698-5.478z" fill="url(#paint3_linear)"/><path fill-rule="evenodd" clip-rule="evenodd" d="M31.145 31.74c.661 0 1.198.516 1.198 1.152 0 .636-.537 1.151-1.198 1.151-.66 0-1.198-.515-1.198-1.151s.537-1.153 1.198-1.153z" fill="#FFC099"/><path fill-rule="evenodd" clip-rule="evenodd" d="M42.308 27.813l-4.637-6.607-5.175 7.099a.78.78 0 01-.993.174l-6.823-4.478 4.523 15.617-.592.533-.591.533-5.252-18.135c-.126-.568.527-1.084 1.097-.756l7.862 5.16 5.42-7.428a.766.766 0 011.13.075l5.094 7.256-.531.478-.532.479z" fill="url(#paint4_linear)"/><path fill-rule="evenodd" clip-rule="evenodd" d="M38.095.67C50.15.78 61.824 7.643 67.38 17.919c4.713 8.718 4.91 19.54.538 28.402-6.19 12.548-21.379 20.383-36.121 17.754C21.512 62.24 12.335 55.428 7.84 46.32c-4.377-8.874-4.17-19.693.539-28.402C13.924 7.663 25.512.781 37.665.671h.43zm-.423 1C25.969 1.776 14.676 8.438 9.3 18.38c-4.565 8.443-4.756 18.928-.522 27.512 5.998 12.157 20.711 19.747 34.994 17.2 9.961-1.777 18.854-8.377 23.207-17.2 4.241-8.597 4.043-19.072-.52-27.513C61.086 8.443 49.865 1.777 38.087 1.67h-.416z" fill="#FFECB4"/><path fill-rule="evenodd" clip-rule="evenodd" d="M19.314 65.785L6.233 70.217c.788-4.319 2.164-7.849 2.164-7.849l-7.663-3.17L11.607 54.9l7.707 10.885z" fill="#F20D59"/><path fill-rule="evenodd" clip-rule="evenodd" d="M18.541 63.656l.882 2.075-4.009-1.181 3.127-.894z" fill="#DA0C51"/><path fill-rule="evenodd" clip-rule="evenodd" d="M56.516 65.785l13.081 4.432c-1.09-5.018-2.163-7.849-2.163-7.849l7.662-3.17L64.223 54.9l-7.707 10.885z" fill="#F20D59"/><path fill-rule="evenodd" clip-rule="evenodd" d="M57.428 63.656l-.912 2.075 4.01-1.181-3.098-.894z" fill="#DA0C51"/><path fill-rule="evenodd" clip-rule="evenodd" d="M38.012 61.418c-4.86 0-10.734.366-22.62 3.122 0 0-2.663-6.806-4.529-11.885 8.61-2.233 18.1-3.404 27.15-3.404 9.049 0 15.04.622 27.148 3.404-.898 2.263-4.528 11.885-4.528 11.885-11.726-2.83-17.76-3.122-22.62-3.122z" fill="#F37"/><path d="M23.662 58.595l-1.115.116-.527-4.692 1.122-.117 1.727 1.82 1.2-2.125 1.052-.109.527 4.693-1.115.116-.336-2.99-1.153 1.971-.16.017-1.556-1.67.334 2.97zm8.245-.683l-2.974.18-.308-4.71 2.903-.177.066 1.01-1.784.108.054.828 1.574-.096.067 1.01-1.575.095.056.855 1.854-.112.067 1.01zm1.486.902l-1.051.025-.047-1.82.525-.012c.136-.183.27-.517.402-1.002.137-.493.216-1.086.235-1.78l.018-.944 3.202-.076.096 3.708.665-.016.047 1.82-1.05.025-.022-.809-3.041.072.02.81zm1.194-4.547l-.056.797a5.914 5.914 0 01-.195 1.165c-.102.384-.196.634-.282.748l1.597-.037-.069-2.697-.995.024zm6.943.789l-2.236 2.888-.981-.02.103-4.719 1.12.023-.063 2.932 2.237-2.888.98.02-.102 4.719-1.122-.023.064-2.932zm5.707-1.626l1.126.07-1.884 3.492c-.198.37-.419.64-.662.807a1.308 1.308 0 01-.847.221 1.493 1.493 0 01-.416-.09 1.004 1.004 0 01-.312-.164l.454-.891a.647.647 0 00.335.136c.181.011.307-.044.376-.166l.072-.138-1.88-3.502 1.267.079 1.223 2.386 1.148-2.24zm2.613 5.151l-1.114-.119.541-4.692 1.122.12 1.277 2.138 1.65-1.825 1.051.112-.541 4.692-1.115-.12.345-2.989-1.57 1.685-.16-.017-1.143-1.954-.342 2.969z" fill="#fff"/><path fill-rule="evenodd" clip-rule="evenodd" d="M44.773 12.747c2.661-.647 4.081-1.617 4.126-6.146 0 4.205 1.863 6.146 4.79 6.146-2.972 0-4.79 2.103-4.79 5.66 0-3.557-1.464-5.66-4.126-5.66z" fill="#FFF8E4"/><path fill-rule="evenodd" clip-rule="evenodd" d="M48.916 6.036c.932.09.466 1.842.792 3.033.46 1.682 2.04 3.102 3.975 3.112 0 0 1.375.94-.254 1.005-1.07.055-2.117.462-2.823 1.268-.936 1.068-1.192 2.538-1.197 3.89 0 0-.421.82-.895.343-.538-.542-.08-1.607-.483-2.908-.423-1.368-1.658-2.589-3.27-2.598 0 0-1.038-.75.114-1.044.84-.222 1.714-.52 2.314-1.139 1.153-1.188 1.163-2.969 1.182-4.469 0 0 .102-.494.545-.493zm.004 4.023a4.459 4.459 0 01-2.25 2.515c1.093.508 1.856 1.515 2.268 2.652.456-1.083 1.275-2.01 2.344-2.534 0 0-1.697-1.065-2.33-2.623 0 0 0-.101-.032-.01z" fill="#FFBF00"/><path fill-rule="evenodd" clip-rule="evenodd" d="M12.33 42.491c1.803-.388 2.765-.971 2.795-3.69 0 2.525 1.262 3.69 3.245 3.69-2.013 0-3.245 1.263-3.245 3.4 0-2.137-.992-3.4-2.795-3.4z" fill="#FFF8E4"/><path fill-rule="evenodd" clip-rule="evenodd" d="M15.142 38.236c.464.061.341.794.422 1.301.157.98.762 1.977 1.82 2.268.398.11 1.002.122 1.002.122.33.042.332.178.352.325.1.756-1.861.112-2.781 1.591-.347.557-.459 1.217-.461 1.857 0 0-.043.276-.257.35-.264.094-.513.01-.525-.538-.043-1.153-.38-2.37-1.623-2.734-.325-.094-.815-.105-.815-.105-.437-.057-.675-.583.266-.812.519-.13 1.05-.308 1.421-.657.709-.668.74-1.72.754-2.6 0 0-.002-.388.425-.368zm-.018 2.607a2.816 2.816 0 01-1.35 1.39s.99.624 1.364 1.48c0 0 .532-.961 1.427-1.406 0 0-1.001-.596-1.425-1.491 0 0-.012.016-.017.027z" fill="#FFBF00"/><path fill-rule="evenodd" clip-rule="evenodd" d="M23.342 13.755c1.72-.426 2.639-1.064 2.668-4.047 0 2.77 1.204 4.047 3.097 4.047-1.921 0-3.097 1.386-3.097 3.73 0-2.344-.947-3.73-2.668-3.73z" fill="#FFF8E4"/><path fill-rule="evenodd" clip-rule="evenodd" d="M26.006 9.426c.619.057.352 1.15.528 1.897.204.867.74 1.748 1.678 2.031.361.11.91.121.91.121.433.059.549.713-.236.753-.566.036-1.124.23-1.538.601-.772.694-.968 1.788-.972 2.749 0 0-.3.597-.658.27-.382-.35-.05-1.067-.362-2.023-.276-.845-1.045-1.596-2.04-1.602 0 0-.203-.021-.304-.144-.195-.24-.196-.477.51-.673.475-.138.96-.324 1.304-.675.76-.775.757-1.944.771-2.936 0 0 .01-.371.41-.37zm.004 2.837c-.25.634-.72 1.18-1.337 1.506 0 0 .355.212.599.447.34.328.58.736.75 1.167a3.253 3.253 0 011.407-1.527s-.423-.25-.7-.528a3.432 3.432 0 01-.712-1.085l-.007.02z" fill="#FFBF00"/><path fill-rule="evenodd" clip-rule="evenodd" d="M9.69 26.233c2.891-.799 4.247-1.598 4.293-6.074 0 4.156 1.94 6.074 4.986 6.074-3.093 0-4.986 2.078-4.986 5.594 0-3.516-1.259-5.276-4.294-5.594z" fill="#FFF8E4"/><path fill-rule="evenodd" clip-rule="evenodd" d="M14.09 19.877c.723.078.33 1.317.559 2.403.313 1.492 1.254 2.99 2.867 3.464.499.147 1.02.203 1.54.206 0 0 .22.02.321.165.183.262.126.563-.592.59-1.223.06-2.43.537-3.197 1.469-.865 1.05-1.125 2.451-1.13 3.747 0 0-.045.27-.246.346-.61.233-.505-1.2-.676-2.146-.232-1.294-1-2.593-2.325-3.094a6.01 6.01 0 00-1.48-.33s-.147-.028-.229-.104c-.193-.182-.11-.536.164-.628 1.054-.294 2.166-.612 2.896-1.393 1.083-1.16 1.098-2.86 1.116-4.326 0 0 .063-.371.413-.37zm.017 3.394c-.265.914-.784 1.773-1.57 2.324a5.863 5.863 0 01-1.263.647s1.695.64 2.427 1.965c.216.392.42 1.013.42 1.013.021-.058.044-.115.067-.173.498-1.198 1.433-2.208 2.693-2.713 0 0-.682-.3-1.133-.651-.784-.61-1.314-1.476-1.632-2.403 0 0-.002-.031-.009-.009z" fill="#FF9D00"/><path fill-rule="evenodd" clip-rule="evenodd" d="M61.066 30.42c1.927-.531 2.831-1.064 2.862-4.047 0 2.77 1.292 4.048 3.323 4.048-2.061 0-3.323 1.385-3.323 3.729 0-2.344-.839-3.516-2.862-3.73z" fill="#FFF8E4"/><path fill-rule="evenodd" clip-rule="evenodd" d="M63.899 26.09c.509.047.352.886.457 1.504.174 1.029.77 2.107 1.894 2.423.394.11.989.123.989.123.23.03.264.12.306.196.14.252.003.53-.559.557-.75.044-1.488.334-1.97.903-.575.678-.744 1.593-.748 2.447 0 0-.07.334-.337.37-.504.065-.412-.901-.542-1.59-.152-.807-.636-1.613-1.462-1.926-.386-.146-.988-.217-.988-.217-.425-.103-.506-.583.312-.825.561-.172 1.147-.386 1.528-.794.706-.756.696-1.868.71-2.802 0 0 .007-.37.41-.369zm.012 2.777c-.278.694-.835 1.248-1.538 1.578 0 0 1.11.606 1.526 1.572 0 0-.062.229.1-.082a3.364 3.364 0 011.45-1.419s-1.106-.691-1.532-1.654c0 0 .003-.019-.006.005z" fill="#FF9D00"/><path fill-rule="evenodd" clip-rule="evenodd" d="M58.863 44.22c1.236-.342 1.815-.683 1.835-2.595 0 1.775.828 2.595 2.13 2.595-1.322 0-2.13.888-2.13 2.39 0-1.502-.538-2.254-1.835-2.39z" fill="#FFF8E4"/><path fill-rule="evenodd" clip-rule="evenodd" d="M60.804 41.06c.508.038.365.833.463 1.258.165.71.752 1.296 1.684 1.338 0 0 .211.038.3.18.157.25-.052.558-.438.57-.398.022-.793.147-1.076.413-.438.412-.555 1.038-.56 1.603 0 0-.029.241-.212.33-.334.165-.482-.146-.611-.987a1.643 1.643 0 00-1.447-1.364s-.203-.036-.292-.187c-.15-.255.118-.506.496-.622.845-.266 1.27-1.06 1.288-2.163 0 0 .015-.37.405-.369zm-.008 2.258a1.94 1.94 0 01-.69.674c.308.175.549.437.721.739.338-.55.459-.544.658-.68 0 0 .187.12-.169-.169-.243-.203-.482-.631-.52-.564z" fill="#FF9D00"/><defs><linearGradient id="paint0_linear" x1="22.752" y1="31.707" x2="52.721" y2="31.707" gradientUnits="userSpaceOnUse"><stop stop-color="#FF6599"/><stop offset=".52" stop-color="#FF6E7B"/><stop offset="1" stop-color="#FF8C1A"/></linearGradient><linearGradient id="paint1_linear" x1="28.73" y1="38.579" x2="46.487" y2="38.272" gradientUnits="userSpaceOnUse"><stop stop-color="#FF98BA"/><stop offset=".52" stop-color="#FF9594"/><stop offset="1" stop-color="#FF8C1A"/></linearGradient><linearGradient id="paint2_linear" x1="34.709" y1="32.301" x2="40.712" y2="32.301" gradientUnits="userSpaceOnUse"><stop stop-color="#FF6599"/><stop offset=".52" stop-color="#FF6E7B"/><stop offset="1" stop-color="#FF8C1A"/></linearGradient><linearGradient id="paint3_linear" x1="40.6" y1="32.302" x2="34.597" y2="32.302" gradientUnits="userSpaceOnUse"><stop stop-color="#FF8C1A"/><stop offset=".48" stop-color="#FF9594"/><stop offset="1" stop-color="#FF98BA"/></linearGradient><linearGradient id="paint4_linear" x1="22.752" y1="29.998" x2="51.347" y2="33.197" gradientUnits="userSpaceOnUse"><stop stop-color="#FF98BA"/><stop offset=".52" stop-color="#FF9594"/><stop offset="1" stop-color="#FF8C1A"/></linearGradient></defs></svg>