<svg width="256" height="132" fill="none" xmlns="http://www.w3.org/2000/svg"><mask id="a" fill="#fff"><path fill-rule="evenodd" clip-rule="evenodd" d="M242.966 40.97c5.568 0 10.082-4.513 10.082-10.082 0-5.568-4.514-10.082-10.082-10.082-5.568 0-10.083 4.514-10.083 10.082 0 5.569 4.515 10.083 10.083 10.083zm0 2c6.673 0 12.082-5.409 12.082-12.082 0-6.673-5.409-12.082-12.082-12.082-6.673 0-12.083 5.41-12.083 12.082 0 6.673 5.41 12.083 12.083 12.083z"/></mask><path fill-rule="evenodd" clip-rule="evenodd" d="M242.966 40.97c5.568 0 10.082-4.513 10.082-10.082 0-5.568-4.514-10.082-10.082-10.082-5.568 0-10.083 4.514-10.083 10.082 0 5.569 4.515 10.083 10.083 10.083zm0 2c6.673 0 12.082-5.409 12.082-12.082 0-6.673-5.409-12.082-12.082-12.082-6.673 0-12.083 5.41-12.083 12.082 0 6.673 5.41 12.083 12.083 12.083z" fill="#4EF25E"/><path d="M251.048 30.888a8.082 8.082 0 0 1-8.082 8.083v4c6.673 0 12.082-5.41 12.082-12.083h-4zm-8.082-8.082a8.082 8.082 0 0 1 8.082 8.082h4c0-6.673-5.409-12.082-12.082-12.082v4zm-8.083 8.082a8.083 8.083 0 0 1 8.083-8.082v-4c-6.673 0-12.083 5.41-12.083 12.082h4zm8.083 8.083a8.083 8.083 0 0 1-8.083-8.083h-4c0 6.673 5.41 12.083 12.083 12.083v-4zm10.082-8.083c0 5.569-4.514 10.083-10.082 10.083v4c7.778 0 14.082-6.305 14.082-14.083h-4zm-10.082-10.082c5.568 0 10.082 4.514 10.082 10.082h4c0-7.777-6.304-14.082-14.082-14.082v4zm-10.083 10.082c0-5.568 4.515-10.082 10.083-10.082v-4c-7.778 0-14.083 6.305-14.083 14.082h4zm10.083 10.083c-5.568 0-10.083-4.514-10.083-10.083h-4c0 7.778 6.305 14.083 14.083 14.083v-4z" fill="#4EF25E" mask="url(#a)"/><mask id="b" fill="#fff"><path fill-rule="evenodd" clip-rule="evenodd" d="M35.655 93.117a4.995 4.995 0 1 0 0-9.99 4.995 4.995 0 0 0 0 9.99zm0 2a6.995 6.995 0 1 0 0-13.99 6.995 6.995 0 0 0 0 13.99z"/></mask><path fill-rule="evenodd" clip-rule="evenodd" d="M35.655 93.117a4.995 4.995 0 1 0 0-9.99 4.995 4.995 0 0 0 0 9.99zm0 2a6.995 6.995 0 1 0 0-13.99 6.995 6.995 0 0 0 0 13.99z" fill="#4EF25E"/><path d="M38.65 88.121a2.995 2.995 0 0 1-2.995 2.996v4a6.995 6.995 0 0 0 6.995-6.996h-4zm-2.995-2.995a2.995 2.995 0 0 1 2.995 2.995h4a6.995 6.995 0 0 0-6.995-6.995v4zm-2.995 2.995a2.995 2.995 0 0 1 2.995-2.995v-4a6.995 6.995 0 0 0-6.995 6.995h4zm2.995 2.996a2.995 2.995 0 0 1-2.995-2.996h-4a6.995 6.995 0 0 0 6.995 6.996v-4zm4.995-2.996a4.995 4.995 0 0 1-4.995 4.996v4a8.995 8.995 0 0 0 8.995-8.996h-4zm-4.995-4.995a4.995 4.995 0 0 1 4.995 4.995h4a8.995 8.995 0 0 0-8.995-8.995v4zm-4.995 4.995a4.995 4.995 0 0 1 4.995-4.995v-4a8.995 8.995 0 0 0-8.995 8.995h4zm4.995 4.996a4.995 4.995 0 0 1-4.995-4.996h-4a8.995 8.995 0 0 0 8.995 8.996v-4z" fill="#4EF25E" mask="url(#b)"/><mask id="c" fill="#fff"><path fill-rule="evenodd" clip-rule="evenodd" d="M208.626 51.146a3.723 3.723 0 1 0 0-7.447 3.723 3.723 0 0 0 0 7.447zm0 2a5.723 5.723 0 1 0 0-11.446 5.723 5.723 0 0 0 0 11.446z"/></mask><path fill-rule="evenodd" clip-rule="evenodd" d="M208.626 51.146a3.723 3.723 0 1 0 0-7.447 3.723 3.723 0 0 0 0 7.447zm0 2a5.723 5.723 0 1 0 0-11.446 5.723 5.723 0 0 0 0 11.446z" fill="#4EF25E"/><path d="M210.349 47.422c0 .952-.771 1.724-1.723 1.724v4a5.723 5.723 0 0 0 5.723-5.724h-4zm-1.723-1.723c.952 0 1.723.772 1.723 1.723h4a5.723 5.723 0 0 0-5.723-5.723v4zm-1.723 1.723c0-.951.771-1.723 1.723-1.723v-4a5.723 5.723 0 0 0-5.723 5.723h4zm1.723 1.724a1.723 1.723 0 0 1-1.723-1.724h-4a5.723 5.723 0 0 0 5.723 5.724v-4zm3.723-1.724a3.723 3.723 0 0 1-3.723 3.724v4a7.723 7.723 0 0 0 7.723-7.724h-4zm-3.723-3.723a3.723 3.723 0 0 1 3.723 3.723h4a7.723 7.723 0 0 0-7.723-7.723v4zm-3.723 3.723a3.723 3.723 0 0 1 3.723-3.723v-4a7.723 7.723 0 0 0-7.723 7.723h4zm3.723 3.724a3.723 3.723 0 0 1-3.723-3.724h-4a7.723 7.723 0 0 0 7.723 7.724v-4z" fill="#4EF25E" mask="url(#c)"/><path d="M242.602 101.476c0 10.686-8.663 19.349-19.35 19.349-10.686 0-19.349-8.663-19.349-19.349 0-10.687 8.663-19.35 19.349-19.35 10.687 0 19.35 8.663 19.35 19.35z" fill="#fff" stroke="#4EF25E" stroke-width="2"/><mask id="d" fill="#fff"><path fill-rule="evenodd" clip-rule="evenodd" d="M223.252 119.825c10.135 0 18.35-8.215 18.35-18.349s-8.215-18.35-18.35-18.35c-10.134 0-18.349 8.216-18.349 18.35 0 10.134 8.215 18.349 18.349 18.349zm0 2c11.239 0 20.35-9.111 20.35-20.349 0-11.239-9.111-20.35-20.35-20.35-11.238 0-20.349 9.111-20.349 20.35 0 11.238 9.111 20.349 20.349 20.349z"/></mask><path fill-rule="evenodd" clip-rule="evenodd" d="M223.252 119.825c10.135 0 18.35-8.215 18.35-18.349s-8.215-18.35-18.35-18.35c-10.134 0-18.349 8.216-18.349 18.35 0 10.134 8.215 18.349 18.349 18.349zm0 2c11.239 0 20.35-9.111 20.35-20.349 0-11.239-9.111-20.35-20.35-20.35-11.238 0-20.349 9.111-20.349 20.35 0 11.238 9.111 20.349 20.349 20.349z" fill="#fff"/><path d="M239.602 101.476c0 9.029-7.32 16.349-16.35 16.349v4c11.239 0 20.35-9.111 20.35-20.349h-4zm-16.35-16.35c9.03 0 16.35 7.32 16.35 16.35h4c0-11.239-9.111-20.35-20.35-20.35v4zm-16.349 16.35c0-9.03 7.32-16.35 16.349-16.35v-4c-11.238 0-20.349 9.111-20.349 20.35h4zm16.349 16.349c-9.029 0-16.349-7.32-16.349-16.349h-4c0 11.238 9.111 20.349 20.349 20.349v-4zm18.35-16.349c0 10.134-8.215 18.349-18.35 18.349v4c12.344 0 22.35-10.006 22.35-22.349h-4zm-18.35-18.35c10.135 0 18.35 8.216 18.35 18.35h4c0-12.344-10.006-22.35-22.35-22.35v4zm-18.349 18.35c0-10.134 8.215-18.35 18.349-18.35v-4c-12.343 0-22.349 10.006-22.349 22.35h4zm18.349 18.349c-10.134 0-18.349-8.215-18.349-18.349h-4c0 12.343 10.006 22.349 22.349 22.349v-4z" fill="#4EF25E" mask="url(#d)"/><path fill-rule="evenodd" clip-rule="evenodd" d="M231.625 96.353a1 1 0 0 1-.07 1.413l-9.833 8.902a1 1 0 0 1-1.365-.02l-5.429-5.229a1 1 0 1 1 1.387-1.44l4.757 4.58 9.14-8.276a1 1 0 0 1 1.413.07z" fill="#4EF25E"/><path d="M63.272 18.806c0 8.579-6.955 15.534-15.534 15.534-8.58 0-15.534-6.955-15.534-15.534 0-8.58 6.955-15.534 15.534-15.534s15.534 6.955 15.534 15.534z" fill="#fff" stroke="#4EF25E" stroke-width="2"/><mask id="e" fill="#fff"><path fill-rule="evenodd" clip-rule="evenodd" d="M47.738 33.34c8.027 0 14.534-6.507 14.534-14.534 0-8.027-6.507-14.534-14.534-14.534-8.027 0-14.534 6.507-14.534 14.534 0 8.027 6.507 14.534 14.534 14.534zm0 2c9.131 0 16.534-7.403 16.534-16.534 0-9.132-7.403-16.534-16.534-16.534-9.132 0-16.534 7.402-16.534 16.534 0 9.131 7.402 16.534 16.534 16.534z"/></mask><path fill-rule="evenodd" clip-rule="evenodd" d="M47.738 33.34c8.027 0 14.534-6.507 14.534-14.534 0-8.027-6.507-14.534-14.534-14.534-8.027 0-14.534 6.507-14.534 14.534 0 8.027 6.507 14.534 14.534 14.534zm0 2c9.131 0 16.534-7.403 16.534-16.534 0-9.132-7.403-16.534-16.534-16.534-9.132 0-16.534 7.402-16.534 16.534 0 9.131 7.402 16.534 16.534 16.534z" fill="#fff"/><path d="M60.272 18.806c0 6.922-5.612 12.534-12.534 12.534v4c9.131 0 16.534-7.403 16.534-16.534h-4zM47.738 6.272c6.922 0 12.534 5.611 12.534 12.534h4c0-9.132-7.403-16.534-16.534-16.534v4zM35.204 18.806c0-6.923 5.611-12.534 12.534-12.534v-4c-9.132 0-16.534 7.402-16.534 16.534h4zM47.738 31.34c-6.922 0-12.534-5.612-12.534-12.534h-4c0 9.131 7.402 16.534 16.534 16.534v-4zm14.534-12.534c0 8.027-6.507 14.534-14.534 14.534v4c10.236 0 18.534-8.298 18.534-18.534h-4zM47.738 4.272c8.027 0 14.534 6.507 14.534 14.534h4C66.272 8.57 57.974.272 47.738.272v4zM33.204 18.806c0-8.027 6.507-14.534 14.534-14.534v-4c-10.236 0-18.534 8.298-18.534 18.534h4zM47.738 33.34c-8.027 0-14.534-6.507-14.534-14.534h-4c0 10.236 8.298 18.534 18.534 18.534v-4z" fill="#4EF25E" mask="url(#e)"/><path fill-rule="evenodd" clip-rule="evenodd" d="M53.543 15.566a1 1 0 0 1-.021 1.414l-6.555 6.36a1 1 0 0 1-1.415-.023l-3.62-3.734a1 1 0 0 1 1.437-1.392l2.923 3.016 5.837-5.663a1 1 0 0 1 1.414.022zM182.553 0a1 1 0 0 1 1 1v6.832h6.631a1 1 0 1 1 0 2h-6.631v7.702a1 1 0 1 1-2 0V9.832h-6.631a1 1 0 0 1 0-2h6.631V1a1 1 0 0 1 1-1zM7.039 52.146a1 1 0 0 1 1 1v4.422h4.087a1 1 0 1 1 0 2H8.04v5.024a1 1 0 1 1-2 0v-5.024H1.95a1 1 0 1 1 0-2h4.09v-4.422a1 1 0 0 1 1-1z" fill="#4EF25E"/><circle cx="131.68" cy="76.039" r="55.961" fill="#C9F6CD"/><mask id="f" fill="#fff"><path fill-rule="evenodd" clip-rule="evenodd" d="M126.592 124.913c29.802 0 53.961-24.16 53.961-53.962 0-29.801-24.159-53.96-53.961-53.96S72.631 41.15 72.631 70.95c0 29.802 24.16 53.962 53.961 53.962zm0 2c30.907 0 55.961-25.055 55.961-55.962 0-30.906-25.054-55.96-55.961-55.96-30.906 0-55.961 25.054-55.961 55.96 0 30.907 25.055 55.962 55.961 55.962z"/></mask><path fill-rule="evenodd" clip-rule="evenodd" d="M126.592 124.913c29.802 0 53.961-24.16 53.961-53.962 0-29.801-24.159-53.96-53.961-53.96S72.631 41.15 72.631 70.95c0 29.802 24.16 53.962 53.961 53.962zm0 2c30.907 0 55.961-25.055 55.961-55.962 0-30.906-25.054-55.96-55.961-55.96-30.906 0-55.961 25.054-55.961 55.96 0 30.907 25.055 55.962 55.961 55.962z" fill="#4EF25E"/><path d="M178.553 70.951c0 28.698-23.263 51.962-51.961 51.962v4c30.907 0 55.961-25.055 55.961-55.962h-4zm-51.961-51.96c28.698 0 51.961 23.263 51.961 51.96h4c0-30.906-25.054-55.96-55.961-55.96v4zM74.631 70.95c0-28.697 23.264-51.96 51.961-51.96v-4c-30.906 0-55.961 25.054-55.961 55.96h4zm51.961 51.962c-28.697 0-51.961-23.264-51.961-51.962h-4c0 30.907 25.055 55.962 55.961 55.962v-4zm53.961-51.962c0 29.802-24.159 53.962-53.961 53.962v4c32.011 0 57.961-25.95 57.961-57.962h-4zm-53.961-53.96c29.802 0 53.961 24.159 53.961 53.96h4c0-32.01-25.95-57.96-57.961-57.96v4zM72.631 70.95c0-29.801 24.16-53.96 53.961-53.96v-4c-32.01 0-57.961 25.95-57.961 57.96h4zm53.961 53.962c-29.802 0-53.961-24.16-53.961-53.962h-4c0 32.012 25.95 57.962 57.961 57.962v-4z" fill="#4EF25E" mask="url(#f)"/><path fill-rule="evenodd" clip-rule="evenodd" d="M91.67 66.348a5.482 5.482 0 0 1 7.495.25l18.215 18.087a1.08 1.08 0 0 0 1.524.005l35.162-34.444a5.47 5.47 0 0 1 7.424-.248c2.553 2.193 2.66 6.175.229 8.509l-39.827 38.238a5.406 5.406 0 0 1-7.513.008L91.477 74.859c-2.433-2.327-2.343-6.303.194-8.511z" fill="#fff"/><path fill-rule="evenodd" clip-rule="evenodd" d="M120.457 95.18l39.828-38.238c1.514-1.454 1.447-3.935-.143-5.301a3.408 3.408 0 0 0-4.626.154L120.354 86.24a3.143 3.143 0 0 1-4.435-.016L97.705 68.138a3.42 3.42 0 0 0-4.676-.156c-1.582 1.377-1.638 3.858-.12 5.31l22.902 21.893a3.342 3.342 0 0 0 4.646-.005zM91.671 66.348a5.482 5.482 0 0 1 7.494.25l18.215 18.087a1.08 1.08 0 0 0 1.524.005l35.162-34.444a5.47 5.47 0 0 1 7.424-.248c2.553 2.193 2.66 6.175.229 8.509l-39.827 38.238a5.406 5.406 0 0 1-7.513.008L91.477 74.859c-2.433-2.327-2.343-6.303.194-8.511z" fill="#4EF25E"/></svg>