<svg width="21" height="20" stroke-width="0" xmlns="http://www.w3.org/2000/svg"><path d="M2.5 0a2.501 2.501 0 000 5 2.501 2.501 0 000-5zM10 0a2.501 2.501 0 000 5 2.501 2.501 0 000-5zm7.502 5a2.501 2.501 0 000-5 2.501 2.501 0 000 5zM2.5 7.5a2.501 2.501 0 000 5 2.501 2.501 0 000-5zm7.5 0a2.501 2.501 0 000 5 2.501 2.501 0 000-5zm7.502 0a2.501 2.501 0 000 5 2.501 2.501 0 000-5zM2.5 15a2.501 2.501 0 000 5 2.501 2.501 0 000-5zm7.5 0a2.501 2.501 0 000 5 2.501 2.501 0 000-5zm7.502 0a2.501 2.501 0 000 5 2.501 2.501 0 000-5z"/></svg>