<svg width="32" height="32" stroke-width="0" xmlns="http://www.w3.org/2000/svg"><path d="M22.092 7.264c-1.354 0-1.637-1.266-1.637-2.324a1.632 1.632 0 00-1.636-1.586H13.18a1.628 1.628 0 00-1.636 1.586c0 1.058-.29 2.324-1.637 2.324-3.607 0-5.764 2.517-5.764 6.74 0 5.846 5.482 12.155 10.599 14.374a3.283 3.283 0 002.559.015c5.816-2.398 10.554-8.848 10.554-14.389 0-4.223-2.18-6.74-5.764-6.74zM8.71 8.567A.565.565 0 018.8 9.69a.565.565 0 01-.31-1.081.572.572 0 01.22-.04zm0 2.234a.743.743 0 01.73.89.745.745 0 01-1.015.543.744.744 0 01.285-1.433zm.595 2.48a.811.811 0 11-.826.812.827.827 0 01.833-.804l-.007-.008zm1.205 2.235a.951.951 0 01.909 1.153.954.954 0 01-1.3.679.952.952 0 01-.583-.879.969.969 0 01.974-.953zm2.231 1.988A1.204 1.204 0 0113.9 18.96a1.207 1.207 0 01-1.645.863 1.205 1.205 0 01-.739-1.112 1.222 1.222 0 011.197-1.207h.03zm3.265 1.214a1.486 1.486 0 011.46 1.78 1.49 1.49 0 01-2.029 1.086 1.487 1.487 0 01-.918-1.376 1.49 1.49 0 011.487-1.49zm1.986 0a1.238 1.238 0 011.457-1.245 1.234 1.234 0 01.921 1.682 1.236 1.236 0 01-1.61.68 1.213 1.213 0 01-.753-1.124l-.015.007zm2.462-2.234a.977.977 0 011.15-.982.974.974 0 01.727 1.328.976.976 0 01-.902.607.967.967 0 01-.96-.968l-.015.015zm2.18-1.557a.81.81 0 01-.797-.964.812.812 0 011.097-.601.81.81 0 01.51.739.827.827 0 01-.796.812l-.015.014zm-.157-3.38a.746.746 0 01.89-.731.743.743 0 01.267 1.35.743.743 0 01-1.157-.62zm.744-1.84a.565.565 0 11.58-.566.574.574 0 01-.558.58l-.022-.014zM12.288 4.94a.887.887 0 01.893-.842h5.638a.884.884 0 01.907.842c0 1.922.893 3.069 2.38 3.069h.491a1.288 1.288 0 00-.64 1.146 1.32 1.32 0 00.61 1.103 1.487 1.487 0 00-.7 1.777c.072.22.195.42.358.584a1.547 1.547 0 00-1.115 1.49c.003.238.061.473.17.684a1.703 1.703 0 00-1.487 1.684c0 .123.015.245.045.365a1.961 1.961 0 00-2.47 1.542 2.29 2.29 0 00-1.36-.41 2.23 2.23 0 00-1.362.469 1.96 1.96 0 00-1.934-1.683 2.059 2.059 0 00-.528.074c.03-.12.045-.242.045-.365a1.707 1.707 0 00-1.487-1.683c.11-.212.168-.447.17-.685a1.551 1.551 0 00-1.115-1.49 1.49 1.49 0 00-.342-2.36 1.317 1.317 0 00.602-1.096 1.29 1.29 0 00-.662-1.124h.536c1.465-.022 2.358-1.17 2.358-3.09zm4.731 22.768a2.563 2.563 0 01-1.978 0C10.139 25.57 4.887 19.56 4.887 14.004c0-2.74.952-4.633 2.67-5.489a1.35 1.35 0 00-.171.64 1.312 1.312 0 00.602 1.103 1.489 1.489 0 00.246 2.71 1.542 1.542 0 00-.498 1.133 1.565 1.565 0 001.294 1.527 1.61 1.61 0 00-.238.841 1.714 1.714 0 001.718 1.698c.11 0 .22-.013.327-.037a1.863 1.863 0 00-.096.58 1.975 1.975 0 002.047 1.943c.35-.014.691-.121.987-.311a2.236 2.236 0 002.213 2.253 2.23 2.23 0 002.25-2.216 1.962 1.962 0 002.975-1.668 1.863 1.863 0 00-.097-.581c.108.024.217.036.328.037a1.71 1.71 0 001.718-1.698 1.61 1.61 0 00-.238-.841 1.562 1.562 0 001.264-1.527 1.543 1.543 0 00-.498-1.132 1.487 1.487 0 00.836-2.106 1.488 1.488 0 00-.59-.605 1.311 1.311 0 00.416-1.773c1.755.842 2.73 2.748 2.73 5.519.03 5.266-4.5 11.41-10.064 13.704z"/></svg>