<svg width="42" height="12" fill="none" xmlns="http://www.w3.org/2000/svg"><rect width="42" height="12" rx="2" fill="#101010"/><path d="M7.65 3.92H5.792V9H5.02V3.92H3.16v-.652h4.49v.652zm3.731 2.952l-.9-2.332a4.877 4.877 0 0 1-.168-.536 4.353 4.353 0 0 1-.172.54l-.9 2.328h2.14zM12.997 9h-.6a.258.258 0 0 1-.168-.052.321.321 0 0 1-.096-.132l-.536-1.384H9.025L8.49 8.816a.28.28 0 0 1-.092.128A.256.256 0 0 1 8.23 9h-.6l2.292-5.732h.784L12.997 9zm4.407-.652V9h-3.252V3.268h.772v5.08h2.48zM19.437 9h-.776V3.268h.776V9zm4.798-4.836a.307.307 0 0 1-.08.092.17.17 0 0 1-.1.028c-.045 0-.099-.023-.16-.068a2.409 2.409 0 0 0-.564-.3 1.41 1.41 0 0 0-.468-.068c-.173 0-.327.024-.46.072a.98.98 0 0 0-.332.188.786.786 0 0 0-.2.284.88.88 0 0 0-.068.348c0 .16.039.293.116.4.08.104.184.193.312.268.13.075.277.14.44.196.165.053.333.11.504.168.173.059.341.125.504.2.165.072.312.164.44.276.13.112.235.25.312.412.08.163.12.363.12.6 0 .25-.043.487-.128.708a1.62 1.62 0 0 1-.376.572c-.163.163-.364.29-.604.384-.237.093-.508.14-.812.14a2.51 2.51 0 0 1-1.016-.2 2.41 2.41 0 0 1-.78-.548l.224-.368a.277.277 0 0 1 .076-.072.184.184 0 0 1 .104-.032c.035 0 .073.015.116.044.045.027.096.061.152.104.056.043.12.09.192.14a1.626 1.626 0 0 0 .56.248c.117.027.25.04.396.04.184 0 .348-.025.492-.076a1.04 1.04 0 0 0 .364-.212.936.936 0 0 0 .232-.332c.053-.128.08-.27.08-.428a.7.7 0 0 0-.12-.424.948.948 0 0 0-.308-.28 2.082 2.082 0 0 0-.44-.188 59.596 59.596 0 0 0-.504-.16 5.75 5.75 0 0 1-.504-.192 1.627 1.627 0 0 1-.44-.28 1.315 1.315 0 0 1-.312-.428 1.568 1.568 0 0 1-.116-.64c0-.203.039-.399.116-.588.08-.19.195-.357.344-.504a1.7 1.7 0 0 1 .556-.352c.221-.088.475-.132.76-.132.32 0 .61.05.872.152.264.101.496.248.696.44l-.188.368zm7.775-.896V9h-.68V4.788c0-.056.002-.116.005-.18l.016-.196-1.968 3.584c-.061.12-.155.18-.28.18h-.112c-.125 0-.219-.06-.28-.18l-2.008-3.6c.016.141.024.272.024.392V9h-.68V3.268h.572c.07 0 .122.007.16.02.037.013.073.05.108.112l1.98 3.528c.032.064.063.13.092.2.032.07.061.14.088.212.026-.072.055-.143.084-.212.03-.072.061-.14.096-.204L31.17 3.4c.032-.061.067-.099.104-.112a.537.537 0 0 1 .164-.02h.572zm4.91 3.604l-.9-2.332a4.677 4.677 0 0 1-.168-.536 4.353 4.353 0 0 1-.171.54l-.9 2.328h2.14zM38.536 9h-.6a.258.258 0 0 1-.167-.052.32.32 0 0 1-.096-.132l-.537-1.384h-2.572l-.535 1.384a.281.281 0 0 1-.093.128.255.255 0 0 1-.167.056h-.6l2.292-5.732h.784L38.535 9z" fill="#fff"/></svg>