<svg width="32" height="32" stroke-width="0" xmlns="http://www.w3.org/2000/svg"><path d="M22.092 7.264c-1.354 0-1.637-1.266-1.637-2.324a1.632 1.632 0 0 0-1.636-1.586H13.18a1.628 1.628 0 0 0-1.636 1.586c0 1.058-.29 2.324-1.637 2.324-3.607 0-5.764 2.517-5.764 6.74 0 5.846 5.482 12.155 10.599 14.374a3.283 3.283 0 0 0 2.559.015c5.816-2.398 10.554-8.848 10.554-14.389 0-4.223-2.18-6.74-5.764-6.74zM8.71 8.567A.565.565 0 0 1 8.8 9.69a.565.565 0 0 1-.31-1.081.572.572 0 0 1 .22-.04zm0 2.234a.743.743 0 0 1 .73.89.745.745 0 0 1-1.015.543.744.744 0 0 1 .285-1.433zm.595 2.48a.811.811 0 1 1-.826.812.827.827 0 0 1 .833-.804l-.007-.008zm1.205 2.235a.951.951 0 0 1 .909 1.153.954.954 0 0 1-1.3.679.952.952 0 0 1-.583-.879.969.969 0 0 1 .974-.953zm2.231 1.988A1.204 1.204 0 0 1 13.9 18.96a1.207 1.207 0 0 1-1.645.863 1.205 1.205 0 0 1-.739-1.112 1.222 1.222 0 0 1 1.197-1.207h.03zm3.265 1.214a1.486 1.486 0 0 1 1.46 1.78 1.49 1.49 0 0 1-2.029 1.086 1.487 1.487 0 0 1-.918-1.376 1.49 1.49 0 0 1 1.487-1.49zm1.986 0a1.238 1.238 0 0 1 1.457-1.245 1.234 1.234 0 0 1 .921 1.682 1.236 1.236 0 0 1-1.61.68 1.213 1.213 0 0 1-.753-1.124l-.015.007zm2.462-2.234a.977.977 0 0 1 1.15-.982.974.974 0 0 1 .727 1.328.976.976 0 0 1-.902.607.967.967 0 0 1-.96-.968l-.015.015zm2.18-1.557a.81.81 0 0 1-.797-.964.812.812 0 0 1 1.097-.601.81.81 0 0 1 .51.739.827.827 0 0 1-.796.812l-.015.014zm-.157-3.38a.746.746 0 0 1 .89-.731.743.743 0 0 1 .267 1.35.743.743 0 0 1-1.157-.62zm.744-1.84a.565.565 0 1 1 .58-.566.574.574 0 0 1-.558.58l-.022-.014zM12.288 4.94a.887.887 0 0 1 .893-.842h5.638a.884.884 0 0 1 .907.842c0 1.922.893 3.069 2.38 3.069h.491a1.288 1.288 0 0 0-.64 1.146 1.32 1.32 0 0 0 .61 1.103 1.487 1.487 0 0 0-.7 1.777c.072.22.195.42.358.584a1.547 1.547 0 0 0-1.115 1.49c.003.238.061.473.17.684a1.703 1.703 0 0 0-1.487 1.684c0 .123.015.245.045.365a1.961 1.961 0 0 0-2.47 1.542 2.29 2.29 0 0 0-1.36-.41 2.23 2.23 0 0 0-1.362.469 1.96 1.96 0 0 0-1.934-1.683 2.059 2.059 0 0 0-.528.074c.03-.12.045-.242.045-.365a1.707 1.707 0 0 0-1.487-1.683c.11-.212.168-.447.17-.685a1.551 1.551 0 0 0-1.115-1.49 1.49 1.49 0 0 0-.342-2.36 1.317 1.317 0 0 0 .602-1.096 1.29 1.29 0 0 0-.662-1.124h.536c1.465-.022 2.358-1.17 2.358-3.09zm4.731 22.768a2.563 2.563 0 0 1-1.978 0C10.139 25.57 4.887 19.56 4.887 14.004c0-2.74.952-4.633 2.67-5.489a1.35 1.35 0 0 0-.171.64 1.312 1.312 0 0 0 .602 1.103 1.489 1.489 0 0 0 .246 2.71 1.542 1.542 0 0 0-.498 1.133 1.565 1.565 0 0 0 1.294 1.527 1.61 1.61 0 0 0-.238.841 1.714 1.714 0 0 0 1.718 1.698c.11 0 .22-.013.327-.037a1.863 1.863 0 0 0-.096.58 1.975 1.975 0 0 0 2.047 1.943c.35-.014.691-.121.987-.311a2.236 2.236 0 0 0 2.213 2.253 2.23 2.23 0 0 0 2.25-2.216 1.962 1.962 0 0 0 2.975-1.668 1.863 1.863 0 0 0-.097-.581c.108.024.217.036.328.037a1.71 1.71 0 0 0 1.718-1.698 1.61 1.61 0 0 0-.238-.841 1.562 1.562 0 0 0 1.264-1.527 1.543 1.543 0 0 0-.498-1.132 1.487 1.487 0 0 0 .836-2.106 1.488 1.488 0 0 0-.59-.605 1.311 1.311 0 0 0 .416-1.773c1.755.842 2.73 2.748 2.73 5.519.03 5.266-4.5 11.41-10.064 13.704z"/></svg>