<svg width="32" height="32" fill="none" xmlns="http://www.w3.org/2000/svg"><path fill-rule="evenodd" clip-rule="evenodd" d="M11.777 10.137c-.47-.344-1.05-.302-1.386.06-.366.394-.728.895-.917 1.461-.389 1.167-.215 2.54.4 3.952.614 1.408 1.65 2.811 2.908 3.998 1.257 1.187 2.714 2.139 4.151 2.665 1.441.527 2.816.612 3.956.143.551-.227 1.027-.623 1.395-1.015.338-.36.34-.942-.036-1.387-.55-.65-1.065-1.113-1.796-1.363-.333-.114-.733-.015-1.071.277l-1.208 1.043a.5.5 0 01-.415.113c-1.284-.228-2.562-.988-3.585-1.969-1.025-.98-1.842-2.23-2.158-3.494a.5.5 0 01.085-.421l.957-1.277.377.283-.377-.283c.268-.357.34-.763.203-1.088-.3-.712-.796-1.195-1.483-1.698zM9.66 9.516c.74-.797 1.904-.776 2.71-.185.745.547 1.41 1.16 1.813 2.117.309.734.097 1.513-.325 2.075l-.81 1.08c.299.97.96 1.968 1.817 2.79.858.822 1.872 1.428 2.842 1.66l1.021-.882.327.378-.327-.378c.532-.46 1.295-.724 2.049-.466.981.336 1.64.957 2.236 1.664.644.764.745 1.923.001 2.716-.423.45-1.012.954-1.744 1.256-1.446.595-3.095.45-4.68-.129-1.587-.581-3.157-1.615-4.494-2.877-1.336-1.262-2.46-2.772-3.138-4.325-.675-1.55-.924-3.189-.431-4.668.25-.75.712-1.373 1.133-1.826z" fill="#101010"/><path fill-rule="evenodd" clip-rule="evenodd" d="M16 4.5C9.649 4.5 4.5 9.649 4.5 16S9.649 27.5 16 27.5 27.5 22.351 27.5 16 22.351 4.5 16 4.5zM3.5 16C3.5 9.096 9.096 3.5 16 3.5S28.5 9.096 28.5 16 22.904 28.5 16 28.5 3.5 22.904 3.5 16z" fill="#101010"/></svg>