<svg width="24" height="24" fill="none" xmlns="http://www.w3.org/2000/svg"><g clip-path="url(#clip0)"><path d="M7.333 5.4h9.971a3.007 3.007 0 012.971 2.501l.883 5.254c.307 1.825-1.11 3.487-2.971 3.487h-3.606l1.21 3.461a2.897 2.897 0 01-1.47 3.56 1.347 1.347 0 01-1.628-.347c-2.075-2.495-5.26-6.313-5.36-6.393V5.4zm0 0H3.804c-.554 0-1.004.447-1.004.998v9.289c0 .551.45.998 1.004.998h3.529" stroke="#E6E6E6" stroke-linecap="round" stroke-linejoin="round"/></g><defs><clipPath id="clip0"><path fill="#fff" transform="rotate(-180 12 12)" d="M0 0h24v24H0z"/></clipPath></defs></svg>