<svg width="16" height="19" fill="none" xmlns="http://www.w3.org/2000/svg"><path d="M11.647 4.25c0-2.015-1.69-3.706-3.706-3.706-2.117 0-3.705 1.698-3.705 3.706 0 2.015 1.69 3.706 3.705 3.706 2.016 0 3.706-1.69 3.706-3.706zm-7.556 0c0-2.14 1.71-3.85 3.85-3.85s3.85 1.71 3.85 3.85-1.71 3.85-3.85 3.85-3.85-1.71-3.85-3.85z" stroke="#fff" stroke-width=".8"/><path d="M13.567 18c.854 0 1.519-.871 1.424-1.742-.57-3.29-2.944-5.806-6.932-5.806-4.083 0-6.457 2.419-7.027 5.806A1.446 1.446 0 0 0 2.457 18h11.11z" stroke="#fff" stroke-width=".8" stroke-linecap="round" stroke-linejoin="round"/></svg>