<svg width="50" height="16" fill="none" xmlns="http://www.w3.org/2000/svg"><path fill-rule="evenodd" clip-rule="evenodd" d="M17.642 15.948L20.123.284h3.967l-2.48 15.664h-3.967zM36.09.665A9.662 9.662 0 0 0 32.526 0c-3.924 0-6.687 2.129-6.703 5.172-.033 2.245 1.978 3.493 3.482 4.241 1.537.765 2.06 1.264 2.06 1.946-.016 1.048-1.242 1.53-2.387 1.53-1.585 0-2.436-.249-3.727-.832l-.524-.249-.555 3.51c.932.432 2.648.814 4.43.83 4.169 0 6.883-2.095 6.915-5.338.017-1.78-1.046-3.143-3.335-4.257-1.39-.715-2.24-1.198-2.24-1.93.017-.665.72-1.347 2.29-1.347a6.654 6.654 0 0 1 2.959.6l.36.165.539-3.376zM46.235.323h-3.071c-.948 0-1.666.283-2.075 1.3l-5.897 14.365h4.166l.833-2.35h5.096c.115.55.474 2.35.474 2.35h3.675L46.236.323zm-4.9 10.115l1.584-4.383c-.016.034.327-.916.523-1.5l.277 1.35s.752 3.75.915 4.533h-3.3zM14.448.284l-3.887 10.66-.425-2.162c-.719-2.495-2.973-5.205-5.489-6.553L8.208 15.9h4.199L18.647.284h-4.199z" fill="#005CA3"/><path fill-rule="evenodd" clip-rule="evenodd" d="M6.949.284H.565L.5.6c4.98 1.297 8.277 4.423 9.632 8.182L8.745 1.597C8.516.6 7.814.317 6.949.284z" fill="#FFAD30"/></svg>