<svg width="50" height="17" fill="none" xmlns="http://www.w3.org/2000/svg"><g clip-path="url(#clip0)" fill-rule="evenodd" clip-rule="evenodd"><path d="M17.553 16.51L20.035.844h3.967L21.52 16.509h-3.967zM36.001 1.226a9.663 9.663 0 0 0-3.563-.665c-3.924 0-6.687 2.129-6.703 5.172-.033 2.246 1.978 3.493 3.482 4.242 1.537.764 2.06 1.263 2.06 1.945-.017 1.048-1.242 1.53-2.387 1.53-1.586 0-2.436-.249-3.728-.831l-.523-.25-.555 3.51c.931.432 2.648.815 4.43.831 4.169 0 6.883-2.095 6.915-5.338.017-1.78-1.046-3.144-3.335-4.258-1.39-.715-2.24-1.198-2.24-1.93.017-.664.72-1.346 2.29-1.346a6.653 6.653 0 0 1 2.958.599l.36.166.54-3.377zM46.146.885h-3.071c-.948 0-1.667.283-2.075 1.299l-5.897 14.365h4.166l.833-2.35h5.096c.115.55.474 2.35.474 2.35h3.675L46.146.885zm-4.9 10.114l1.584-4.382c-.017.033.327-.917.523-1.5l.277 1.35s.752 3.75.915 4.532h-3.3zM14.36.845l-3.888 10.66-.425-2.162c-.719-2.494-2.973-5.205-5.489-6.552L8.12 16.46h4.199L18.558.846h-4.199z" fill="#005CA3"/><path d="M6.86.845H.477l-.066.316c4.98 1.297 8.277 4.424 9.633 8.182L8.655 2.158C8.427 1.161 7.726.878 6.86.845z" fill="#FFAD30"/></g><defs><clipPath id="clip0"><path fill="#fff" transform="translate(.411 .561)" d="M0 0h48.936v16.183H0z"/></clipPath></defs></svg>