<svg width="32" height="32" fill="none" xmlns="http://www.w3.org/2000/svg"><path fill-rule="evenodd" clip-rule="evenodd" d="M17.282 19.34c-.235.115-.562.173-.983.173h-1.796v-2.617h1.827c.418.005.742.06.972.167.413.19.62.542.62 1.052 0 .604-.215 1.012-.64 1.225zm-2.778-6.452h1.33c.466 0 .85.05 1.15.153.346.148.52.45.52.906 0 .413-.13.7-.394.863-.264.16-.606.242-1.028.242h-1.578v-2.164zm6.31 3.67c-.46-.45-.784-.744-1.57-.888v-.058c.558-.227.992-.543 1.296-.95.305-.405.467-.9.46-1.408a2.26 2.26 0 00-.336-1.223c-.223-.354-.56-.64-1.016-.85a4.627 4.627 0 00-1.332-.392c-.446-.061-1.45-.089-2.416-.089h-3.4a1 1 0 00-1 1v9a1 1 0 001 1h3.98c.868 0 1.587-.068 2.153-.207a4.732 4.732 0 001.557-.694c.406-.278.728-.623.96-1.045.234-.42.35-.893.35-1.425 0-.733-.23-1.323-.687-1.772l.001.001z" fill="#101010"/><path d="M16 28c6.627 0 12-5.373 12-12S22.627 4 16 4 4 9.373 4 16s5.373 12 12 12z" stroke="#101010"/></svg>