<?xml version="1.0" encoding="UTF-8" standalone="no"?>
<svg
   xmlns:dc="http://purl.org/dc/elements/1.1/"
   xmlns:cc="http://creativecommons.org/ns#"
   xmlns:rdf="http://www.w3.org/1999/02/22-rdf-syntax-ns#"
   xmlns:svg="http://www.w3.org/2000/svg"
   xmlns="http://www.w3.org/2000/svg"
   xmlns:sodipodi="http://sodipodi.sourceforge.net/DTD/sodipodi-0.dtd"
   xmlns:inkscape="http://www.inkscape.org/namespaces/inkscape"
   width="291"
   height="299"
   viewBox="0 0 291 299"
   fill="none"
   version="1.1"
   id="svg285"
   sodipodi:docname="bonus-desktop.svg"
   inkscape:version="0.92.4 (5da689c313, 2019-01-14)">
  <metadata
     id="metadata289">
    <rdf:RDF>
      <cc:Work
         rdf:about="">
        <dc:format>image/svg+xml</dc:format>
        <dc:type
           rdf:resource="http://purl.org/dc/dcmitype/StillImage" />
        <dc:title></dc:title>
      </cc:Work>
    </rdf:RDF>
  </metadata>
  <sodipodi:namedview
     pagecolor="#ffffff"
     bordercolor="#666666"
     borderopacity="1"
     objecttolerance="10"
     gridtolerance="10"
     guidetolerance="10"
     inkscape:pageopacity="0"
     inkscape:pageshadow="2"
     inkscape:window-width="1920"
     inkscape:window-height="1017"
     id="namedview287"
     showgrid="false"
     inkscape:zoom="2.2324709"
     inkscape:cx="107.10723"
     inkscape:cy="144.62778"
     inkscape:window-x="-8"
     inkscape:window-y="-8"
     inkscape:window-maximized="1"
     inkscape:current-layer="svg285" />
  <path
     fill-rule="evenodd"
     clip-rule="evenodd"
     d="M23.6726 229.758C16.1059 231.352 12.4771 238.442 7.35701 244.114C6.06364 245.546 4.72738 246.931 3.26846 248.133C2.70947 248.594 1.96489 249.211 1.05312 249.803C0.99523 249.911 2.57799 251.009 2.73026 251.108C4.7157 252.395 6.94866 253.079 9.13861 253.36C16.7744 254.338 26.91 254.748 39.8482 235.344"
     fill="#A6E468"
     id="path2" />
  <path
     fill-rule="evenodd"
     clip-rule="evenodd"
     d="M54.4651 224.589C51.8898 226.629 49.2545 229.03 47.4112 231.759C40.9635 241.303 43.2435 252.886 41.3296 263.489C40.449 268.365 36.7806 275.191 34.5488 279.406C35.0993 279.591 36.3333 279.807 36.4907 279.829C38.5218 280.111 40.575 279.842 42.5653 279.403C49.4136 277.895 56.897 271.514 62.1835 266.889C75.4111 255.319 76.4307 237.059 77.1958 220.733"
     fill="#D6EDF5"
     id="path4" />
  <path
     fill-rule="evenodd"
     clip-rule="evenodd"
     d="M74.1067 228.762C66.5726 234.492 64.4106 247.595 64.8643 253.535C65.3672 260.127 67.2838 266.535 66.7027 273.206C65.945 281.912 62.8249 290.336 55.9883 294.931C60.5271 295.659 64.8413 294.966 67.4083 294.582C74.8207 293.474 86.7256 289.412 96.7841 281.284C104.574 274.988 113.072 264.616 116.148 245.449C117.114 239.433 119.35 232.105 123.011 227.274"
     fill="#A6E468"
     id="path6" />
  <path
     fill-rule="evenodd"
     clip-rule="evenodd"
     d="M98.5455 227.737L100.267 227.684C96.6266 232.621 93.6634 238.089 91.2205 243.88C91.274 243.93 91.3378 243.989 91.4133 244.059C98.1792 250.371 101.683 260.499 103.293 269.713C103.548 271.17 103.732 272.641 103.793 274.115L102.87 275.189C102.312 274.423 102.317 271.651 101.906 269.449C100.503 261.947 97.7063 254.603 93.43 248.51C92.6035 247.333 91.6985 246.202 90.6656 245.223C88.2398 251.218 86.3517 257.538 84.8704 263.989C84.2673 266.584 83.5218 269.21 82.6171 271.777C82.7702 272.282 82.8063 272.969 82.9099 273.598C83.7601 278.766 84.1732 284.133 83.3549 289.239L83.3508 289.251L82.1108 289.819C82.0194 289.621 81.9972 289.359 82.057 288.995C82.8197 284.15 82.547 279.128 81.6974 274.226C78.1045 283.206 72.4179 291.089 63.8645 293.833C62.3677 294.313 60.8397 294.662 59.285 294.955C58.197 294.923 57.0938 294.829 55.9766 294.65L56.8607 294.004L57.7678 293.824C63.111 292.841 68.4634 291.029 72.3664 286.657C77.5103 280.895 81.0093 273.627 82.9864 266.119C83.5904 263.827 84.1677 261.525 84.7779 259.224C79.9406 262.942 74.1004 265.016 69.548 269.85C68.6983 270.751 67.8899 271.694 67.0953 272.651C67.0953 272.651 66.9163 272.673 66.7028 272.658L66.7782 270.927C71.1471 265.821 77.0427 262.73 82.9341 258.818C83.9008 258.176 85.216 257.092 85.216 257.092C85.2731 257.057 85.302 257.022 85.3795 257C86.1636 254.166 87.0252 251.339 88.0723 248.539C89.6936 244.206 91.511 239.949 93.6357 235.881C83.2856 239.902 73.3403 245.508 65.365 253.749C65.365 253.749 65.147 253.783 64.9029 253.761L64.8526 253.254L64.837 252.336L64.8401 252.332C73.0845 243.971 83.5101 238.206 94.2404 234.155C94.2404 234.155 94.3958 234.057 94.6325 234.028C95.8329 231.863 97.1275 229.757 98.5455 227.737Z"
     fill="#8BDC3A"
     id="path8" />
  <path
     fill-rule="evenodd"
     clip-rule="evenodd"
     d="M102.432 227.574L103.946 227.528C106.209 231.214 109.096 234.502 111.169 238.401C112.981 241.808 114.325 245.475 115.287 249.25L114.767 251.513C114.365 250.912 114.08 249.722 113.781 248.65C111.943 242.07 108.385 236.29 104.466 230.74C103.742 229.71 103.042 228.661 102.432 227.574Z"
     fill="#8BDC3A"
     id="path10" />
  <path
     fill-rule="evenodd"
     clip-rule="evenodd"
     d="M41.6756 237.773C37.8005 239.579 33.7883 240.682 32.431 238.329C31.217 236.224 33.8825 233.748 36.666 232.474C36.8729 232.38 37.0823 232.29 37.2934 232.202C43.9025 233.48 44.5393 232.396 50.2785 234.81C52.3309 239.334 54.1836 244.053 52.7701 248.365C51.7825 251.379 47.3561 252.946 44.5856 246.084C43.6588 243.788 43.125 241.35 42.8741 238.866C42.291 240.278 41.6827 241.677 41.0536 243.065C41.1446 243.272 41.2235 243.496 41.2962 243.711C43.4481 250.018 46.7486 256.253 46.3907 262.891C46.2407 265.682 45.379 269.134 42.1492 269.074C36.9438 268.977 35.8821 260.149 36.1621 254.746C36.1967 254.085 36.2354 253.424 36.2765 252.763C35.5117 254.214 34.7326 255.656 33.9427 257.091C33.9624 257.958 33.7797 259.011 33.3933 260.18C31.3413 266.353 29.2875 272.972 23.8007 276.761C22.3695 277.749 20.4138 278.402 18.9888 277.217C16.1424 274.851 17.8267 270.29 19.0717 268.077C21.2434 264.216 27.0021 257.826 32.8637 255.894C33.6229 254.513 34.3697 253.128 35.1013 251.736C34.7466 251.933 34.3896 252.129 34.0408 252.323C30.824 254.113 26.0641 256.398 24.4664 252.624C23.4968 250.334 25.934 247.69 28.0204 246.293C28.9888 245.645 30.0085 245.076 31.0686 244.593C33.7987 243.368 36.8091 242.921 39.7248 242.31C40.4031 240.808 41.0547 239.296 41.6756 237.773Z"
     fill="#00988B"
     id="path12" />
  <path
     fill-rule="evenodd"
     clip-rule="evenodd"
     d="M291 83.1853C291 78.784 287.419 75.2106 283.01 75.2106H8.98994C4.58024 75.2106 1 78.784 1 83.1853V226.727C1 231.128 4.58024 234.702 8.98994 234.702H283.01C287.419 234.702 291 231.128 291 226.727V83.1853Z"
     fill="#FFF8E4"
     id="path14" />
  <path
     d="M272.41 94.9316H19.5234V214.824H272.41V94.9316Z"
     id="path16"
     fill="white" />
  <path
     fill-rule="evenodd"
     clip-rule="evenodd"
     d="M273.427 94.3224C273.893 94.6335 273.817 94.9054 273.817 94.9054V214.797L273.427 215.38L273.184 215.428H19.6264L19.1794 215.243C19.0435 215.04 19.0422 215.037 18.9941 214.797V94.9054C19.18 93.9709 19.6264 94.2744 19.6264 94.2744H273.184C273.265 94.2902 273.346 94.306 273.427 94.3224V94.3224ZM20.2586 95.5364V214.166H272.552V95.5364H20.2586V95.5364Z"
     fill="#FFE69A"
     id="path18" />
  <path
     fill-rule="evenodd"
     clip-rule="evenodd"
     d="M157.633 47.2103C160.218 49.3259 168.696 60.0632 174.913 67.5671C184.345 78.9522 192.157 82.9903 200.799 84.996C215.982 88.5199 228.107 86.0601 227.925 85.9818C222.506 83.6374 219.259 79.153 217.476 70.4872C216 63.3157 215.022 53.8851 210.427 47.7392"
     fill="#A2F5D9"
     id="path20" />
  <path
     fill-rule="evenodd"
     clip-rule="evenodd"
     d="M182.339 47.2103L183.026 47.2173C183.251 47.2782 183.275 47.3733 183.432 47.4817C187.435 50.2801 190.618 54.1048 194.049 57.6972C195.911 59.6533 197.646 61.7199 199.357 63.8291C199.396 63.8256 199.438 63.8242 199.482 63.8263C205.498 64.4462 211.411 66.0266 217.04 68.338L217.345 69.9548C211.976 67.6993 206.338 66.0923 200.591 65.3613C204.339 70.0359 208.09 74.8365 212.936 79.0348C216.707 82.3005 221.55 85.1676 226.234 85.1466L227.897 85.9931C227.952 86.0169 226.888 86.2569 224.966 86.4696C219.461 86.0218 214.061 82.2242 210.261 78.4436C206.476 74.6763 203.155 70.5145 199.762 66.3931C198.761 72.5048 199.64 78.9634 201.686 84.9512L200.722 84.7477L200.085 84.577C198.054 78.2855 197.284 71.5484 198.577 65.073L198.594 64.9828C196.803 62.8294 194.975 60.702 193.033 58.6612C189.59 55.0576 186.415 51.1623 182.28 48.3919C182.28 48.3919 181.837 47.4699 182.339 47.2103Z"
     fill="#75F0C7"
     id="path22" />
  <path
     fill-rule="evenodd"
     clip-rule="evenodd"
     d="M179.924 72.9307C177.295 65.6976 177.46 57.5138 179.687 50.0673C179.687 50.0673 179.809 49.0732 180.61 49.169C181.956 49.4971 180.462 52.257 180.018 54.5916C178.697 61.5455 179.283 68.9479 182.478 75.3527L181.751 74.7384L179.924 72.9307Z"
     fill="#75F0C7"
     id="path24" />
  <path
     fill-rule="evenodd"
     clip-rule="evenodd"
     d="M227.855 26.2371C238.894 16.6941 252.224 23.172 257.89 23.875C259.779 24.1092 269.389 25.4416 271.514 24.8824C263.516 36.2127 256.227 40.3437 252.017 42.3755C244.968 45.7766 238.461 47.881 230.535 46.7619"
     fill="#A6E468"
     id="path26" />
  <path
     fill-rule="evenodd"
     clip-rule="evenodd"
     d="M230.394 59.0382C230.397 62.3386 230.328 65.4787 230.963 68.763C231.445 71.2567 232.086 73.7468 233.228 76.0302C234.393 78.3601 236.852 81.9079 239.424 79.212C239.738 78.8817 240.255 78.4381 240.367 77.9713C241.041 75.1621 239.731 71.7208 238.478 69.2789C237.108 66.6084 235.444 63.9293 233.595 61.4827C236.73 63.7659 240.001 65.8291 243.383 67.6201C243.383 67.6201 243.447 67.6414 243.542 67.6556L243.548 67.6744C249.712 72.5798 254.522 75.2155 260.525 77.0695C262.577 77.7035 267.695 78.3611 270.05 76.8923C271.153 76.2041 272.183 74.0262 270.846 72.4098C269.566 70.8627 267.93 69.8905 266.034 69.2731C262.199 68.0239 254.602 67.053 243.638 66.4175C243.604 66.3974 243.569 66.3776 243.535 66.3585C241.191 65.0709 238.905 63.6704 236.686 62.1665C241.351 63.2646 246.415 63.5243 250.937 61.7824C252.716 61.0968 256.32 57.9681 254.238 55.725C252.819 54.1952 249.55 54.1985 247.663 54.4137C242.088 55.0487 236.585 56.9682 231.067 58.0115L231.163 58.1095C228.281 55.8192 225.535 53.3541 222.945 50.7433C226.855 51.4768 230.849 51.6713 234.707 50.6041C237.103 49.9416 240.311 48.6345 240.732 45.8324C241.107 43.3314 237.949 42.2734 236.053 41.9945C231.118 41.2696 225.553 42.9576 221.098 44.9491L218.97 46.4151C218.948 46.3782 218.926 46.3419 218.903 46.3055L216.173 48.3416L215.474 48.8237L215.511 48.835L214.929 49.2699C211.88 58.6974 210.491 64.9443 211.89 67.999C213.622 71.7797 216.488 71.0047 218.005 69.2402C221.346 65.353 221.945 62.1987 221.9 57.0787C221.883 55.0969 221.624 52.7543 220.779 50.2836L220.869 50.305C223.845 53.4154 227.031 56.3502 230.394 59.0382V59.0382Z"
     fill="#00988B"
     id="path28" />
  <path
     fill-rule="evenodd"
     clip-rule="evenodd"
     d="M120.094 45.1472C126.343 53.8432 135.344 63.1566 144.278 67.3018C154.931 72.2451 172.221 71.0061 174.284 62.0228C175.512 56.6766 171.98 48.0289 168.071 40.0191"
     fill="#D6EDF5"
     id="path30" />
  <path
     fill-rule="evenodd"
     clip-rule="evenodd"
     d="M235.811 29.7077C235.811 20.3707 228.211 12.7895 218.85 12.7895H45.0208C35.6603 12.7895 28.0605 20.3707 28.0605 29.7077V38.1671C28.0605 47.5041 35.6603 55.0848 45.0208 55.0848H218.85C228.211 55.0848 235.811 47.5041 235.811 38.1671V29.7077Z"
     fill="#FFECB4"
     id="path32" />
  <path
     fill-rule="evenodd"
     clip-rule="evenodd"
     d="M235.748 28.1797C235.748 19.6855 228.835 12.7895 220.32 12.7895H47.8718C39.3567 12.7895 32.4434 19.6855 32.4434 28.1797V35.8745C32.4434 44.3687 39.3567 51.2647 47.8718 51.2647H220.32C228.835 51.2647 235.748 44.3687 235.748 35.8745V28.1797V28.1797Z"
     fill="#FFFDF6"
     id="path34" />
  <path
     fill-rule="evenodd"
     clip-rule="evenodd"
     d="M221.74 14.0223H53.2878C46.1037 14.0223 40.2799 19.8352 40.2799 27.0057V37.2824C40.2799 44.453 46.1037 50.2659 53.2878 50.2659H221.739C228.924 50.2659 234.747 44.453 234.747 37.2825V27.0057C234.747 19.8352 228.924 14.0223 221.74 14.0223ZM53.2878 13.0235C45.5511 13.0235 39.2793 19.2836 39.2793 27.0057V37.2824C39.2793 45.0046 45.5511 51.2647 53.2878 51.2647H221.739C229.476 51.2647 235.748 45.0046 235.748 37.2825V27.0057C235.748 19.2836 229.476 13.0235 221.74 13.0235H53.2878Z"
     fill="#FFD24B"
     id="path36" />
  <ellipse
     cx="32.4417"
     cy="31.5583"
     rx="31.6175"
     ry="31.5583"
     fill="#FFF8E4"
     id="ellipse38" />
  <mask
     id="mask0"
     mask-type="alpha"
     maskUnits="userSpaceOnUse"
     x="0"
     y="0"
     width="65"
     height="64">
    <ellipse
       cx="32.4417"
       cy="31.5583"
       rx="31.6175"
       ry="31.5583"
       fill="white"
       id="ellipse40" />
  </mask>
  <g
     mask="url(#mask0)"
     id="g121">
    <path
       fill-rule="evenodd"
       clip-rule="evenodd"
       d="M23.8417 53.5409C19.2123 57.9947 17.0521 61.4669 12.4785 74.7295C9.29489 83.9616 5.52442 92.8246 0.568359 98.5812C4.78786 99.6725 16.1967 98.9709 21.745 95.2295C23.2296 90.7865 24.0111 85.4863 24.4017 82.9918C24.8898 85.6432 25.7925 88.7077 26.2986 90.334C26.5359 91.0887 26.5326 91.8984 26.2894 92.6511C24.6541 97.7185 18.2838 117.76 18.2838 117.76H67.0739C67.0739 117.76 57.195 99.2894 53.2259 90.3334C52.9768 89.7587 52.8711 89.1324 52.918 88.508C53.1258 85.6468 53.3145 82.1346 53.3145 82.1346C53.3145 82.1346 55.8932 78.2371 56.2838 74.7295C59.8002 78.7049 66.3643 84.9405 69.8807 89.4615C71.6 87.7468 76.0539 72.0015 76.6011 65.8438C74.1787 65.5318 70.4279 65.1421 70.4279 65.1421C70.4279 65.1421 64.0981 63.8783 57.925 59.3656C51.7518 54.8532 49.0947 52.6706 42.4528 51.7352C35.8106 50.8001 30.2335 51.4055 23.8417 53.5409Z"
       fill="#FFBF00"
       id="path43" />
    <path
       fill-rule="evenodd"
       clip-rule="evenodd"
       d="M56.2849 74.8007C58.3242 77.1665 64.9607 83.9794 66.3609 85.4364C66.3609 85.4364 57.3274 70.6929 48.6582 62.8212C53.5813 68.6047 56.432 71.737 56.2849 74.8007Z"
       fill="#FF8C1A"
       id="path45" />
    <path
       fill-rule="evenodd"
       clip-rule="evenodd"
       d="M48.1357 24.3421C49.686 26.4539 52.864 27.4331 54.6854 30.6624C56.3584 33.6288 56.1221 36.5336 59.0027 38.449C61.8833 40.3647 63.8393 38.4689 67.6626 42.3403C63.5216 42.3403 58.2336 44.6024 54.9861 47.5913C50.0815 52.1054 47.0644 53.103 43.1032 52.7438C39.1423 52.3847 23.0078 43.3454 23.0078 43.3454L46.2841 23.3513L48.1544 24.3522"
       fill="#F20D59"
       id="path47" />
    <path
       fill-rule="evenodd"
       clip-rule="evenodd"
       d="M58.4676 45.0634C56.36 43.4345 53.5901 42.7276 51.3345 41.0365C49.0622 39.333 47.0075 37.0083 46.8414 34.3429C46.8263 34.1038 46.9185 33.8665 47.1883 33.8711C47.5714 33.9241 47.4989 34.5062 47.5694 34.8857C48.1839 38.1808 51.3719 40.6544 54.477 42.1726C56.0584 42.946 57.7005 43.6303 59.0729 44.7206L58.4676 45.0634V45.0634Z"
       fill="#DA0C51"
       id="path49" />
    <path
       fill-rule="evenodd"
       clip-rule="evenodd"
       d="M63.0948 43.0737C60.3196 41.2392 56.6904 40.7674 54.443 38.1209C52.8032 36.1901 53.0904 33.2627 51.5362 30.941C50.1639 28.8911 48.0721 27.4334 45.955 26.2394C45.955 26.2394 45.6245 25.6205 46.1451 25.6284C46.4634 25.6788 47.8482 26.5589 48.9997 27.4279C51.0537 28.9788 52.7369 31.0995 53.4422 33.5829C53.9848 35.494 54.2789 37.4461 56.1472 38.7953C58.495 40.4907 61.4881 41.1023 63.9042 42.8487L63.0948 43.0737V43.0737Z"
       fill="#DA0C51"
       id="path51" />
    <path
       fill-rule="evenodd"
       clip-rule="evenodd"
       d="M52.063 50.0429C50.3221 49.4437 48.7424 48.3917 47.6274 47.0758C45.6301 44.7188 44.8092 41.6352 43.9414 38.8004C43.9414 38.8004 43.7815 38.1748 44.2355 38.198C44.4252 38.2301 44.4498 38.2573 44.5135 38.4275C45.7515 42.4541 46.855 46.8201 50.9241 48.8209C51.5034 49.1058 52.1064 49.3563 52.7313 49.5341L52.063 50.0429Z"
       fill="#DA0C51"
       id="path53" />
    <path
       fill-rule="evenodd"
       clip-rule="evenodd"
       d="M49.2844 51.7259C47.2388 51.1039 45.5035 49.5025 44.4515 47.4496C43.4905 45.5732 43.0132 43.498 42.5143 41.4389C42.5143 41.4389 42.2393 40.6296 42.7723 40.6522C43.1891 40.717 43.2239 41.585 43.3877 42.2519C44.3035 45.9523 45.6161 49.8993 49.4412 51.1101L50.1683 51.2787L50.0567 51.3491L49.2844 51.7259V51.7259Z"
       fill="#DA0C51"
       id="path55" />
    <path
       fill-rule="evenodd"
       clip-rule="evenodd"
       d="M35.0965 44.493C35.3204 46.3128 38.599 51.2777 41.6729 52.4318C39.5604 53.8047 32.856 57.2108 23.8301 53.5496C24.6625 52.4109 26.688 49.6383 27.6999 48.2537C28.7115 46.8691 28.8681 40.528 28.8681 40.528C28.8681 40.528 34.8723 42.6733 35.0965 44.493Z"
       fill="#FFE6E6"
       id="path57" />
    <path
       fill-rule="evenodd"
       clip-rule="evenodd"
       d="M29.928 41.0762C31.6548 41.7805 34.9538 43.2967 35.1189 44.6368C35.2016 45.3087 35.7005 46.4088 36.4535 47.5858C34.1533 47.1553 31.5074 46.4536 28.5957 44.8182C28.7349 43.6471 28.8117 42.4536 28.8517 41.6443C29.2295 41.3964 29.5994 41.2114 29.928 41.0762Z"
       fill="#FECDCD"
       id="path59" />
    <path
       fill-rule="evenodd"
       clip-rule="evenodd"
       d="M9.32145 41.7807C9.06312 44.3862 9.09693 47.8742 8.09088 49.969C6.60955 53.0526 5.32154 54.1445 5.32154 54.1445C5.32154 54.1445 -0.961919 51.0445 -9.14062 50.5305C-5.98396 47.6437 -5.08328 43.8303 -4.3106 41.0037C-3.5376 38.1775 -1.4917 34.8991 2.694 32.0725C6.88001 29.246 5.84475 24.3826 10.0226 19.1538C13.0174 15.4062 19.2477 11.4589 25.543 10.1421C27.0883 8.15072 47.7604 15.9877 48.1467 24.4026C43.8321 25.3661 38.2294 21.0911 35.1383 17.3831C34.7136 21.2306 33.7236 27.2098 23.0001 31.3627C21.7305 32.377 19.6084 33.1095 17.3863 33.9945C18.9109 34.8091 21.1758 36.0647 24.1542 37.8376C31.1791 37.0348 29.3082 51.0255 29.083 52.5094C25.0116 51.389 22.4579 51.9479 19.3682 53.1406C16.2781 54.3334 13.7307 55.4604 9.79181 55.2498C11.9017 51.2505 9.7672 45.3937 9.32145 41.7807V41.7807Z"
       fill="#F20D59"
       id="path61" />
    <path
       fill-rule="evenodd"
       clip-rule="evenodd"
       d="M16.0318 54.3922C17.5256 50.1506 14.9995 44.9578 14.5407 40.3062C14.3201 38.0736 14.6838 35.8161 15.4 33.6856C15.4226 33.6175 15.4709 33.3202 15.806 33.351C16.4057 33.5022 15.9215 34.161 15.738 34.8152C15.0488 37.2718 15.0166 39.8325 15.5716 42.4135C16.3338 45.9587 17.5282 49.5272 16.9922 53.2129L16.8061 54.1221L16.0318 54.3922V54.3922Z"
       fill="#DA0C51"
       id="path63" />
    <path
       fill-rule="evenodd"
       clip-rule="evenodd"
       d="M24.3584 51.9149C24.3817 51.3534 24.4375 50.6547 24.3774 49.974C24.0439 46.1953 21.5993 42.804 20.9688 39.3786C20.9688 39.3786 20.9681 38.9215 21.3285 38.9487C21.6895 39.022 21.6147 39.2696 21.6498 39.4437C22.2328 42.2683 23.9665 44.759 24.6521 47.6212C24.9866 49.017 25.1402 50.4593 25.0499 51.8891L24.9823 51.8858L24.3584 51.9149V51.9149Z"
       fill="#DA0C51"
       id="path65" />
    <path
       fill-rule="evenodd"
       clip-rule="evenodd"
       d="M-2.91211 51.3564C-1.6888 48.0538 -1.39832 44.4369 0.62357 41.6028C2.96089 38.326 5.95532 35.5627 7.86725 31.9297C10.2912 27.3246 11.0317 22.0873 14.0048 18.0136C15.0666 16.5583 16.285 15.2326 17.571 13.9455C17.7036 13.8126 17.7368 13.6223 18.0738 13.676C18.6131 13.8836 18.1644 14.2778 17.8549 14.5895C14.7197 17.7622 12.469 21.5726 11.0665 25.8968C10.1507 28.6978 9.04526 31.4359 7.46451 33.9711C5.3947 37.2901 2.1587 39.7673 0.326852 43.3175C-0.985735 45.8618 -1.28738 48.7836 -2.27075 51.5097L-2.91211 51.3564V51.3564Z"
       fill="#DA0C51"
       id="path67" />
    <path
       fill-rule="evenodd"
       clip-rule="evenodd"
       d="M4.7832 53.8653C4.81176 53.7635 4.89053 53.6417 5.02576 53.4918C7.10476 51.1632 8.26834 48.1677 8.46002 45.0134C8.71473 40.5972 9.2376 36.0144 12.1736 32.5242C15.3479 28.7498 19.3851 25.5748 21.2731 20.8814C22.5548 17.6956 23.1338 14.2643 23.5172 10.8432C23.5172 10.8432 23.6242 10.4961 23.9514 10.5704C24.2416 10.7096 24.151 11.0845 24.1139 11.406C23.5165 16.4161 22.4294 21.4475 19.4156 25.5133C16.755 29.1024 12.7943 31.817 10.9565 35.5439C9.94099 37.6033 9.61834 39.8897 9.41188 42.1724L9.34361 41.7504C9.18278 43.3711 9.13519 45.3336 8.87851 47.0961C8.70652 48.1196 8.46232 49.0979 8.07599 50.011C7.46516 51.2738 6.88879 52.1968 6.41056 52.835C6.09645 53.2619 5.7482 53.6738 5.38747 54.069L5.31756 54.1024L4.7832 53.8653V53.8653Z"
       fill="#DA0C51"
       id="path69" />
    <path
       fill-rule="evenodd"
       clip-rule="evenodd"
       d="M48.4706 35.0368C49.8337 35.0368 50.9388 33.9344 50.9388 32.5746C50.9388 31.2145 49.8337 30.1124 48.4706 30.1124H48.4702C47.1071 30.1124 46.002 31.2145 46.002 32.5746C46.002 33.9344 47.1071 35.0368 48.4702 35.0368H48.4706Z"
       fill="white"
       id="path71" />
    <path
       fill-rule="evenodd"
       clip-rule="evenodd"
       d="M22.982 31.3913C21.7321 29.9366 20.8183 29.3047 18.438 29.5925C16.058 29.8803 14.6877 32.5425 15.1203 34.485C15.5532 36.4276 17.5728 38.7296 19.6643 38.9454C21.7558 39.1615 23.3427 38.7296 24.1361 37.8662C25.2179 39.0894 30.4108 44.1257 35.7482 45.0608C41.0852 45.9962 44.6914 42.3989 45.9899 38.9454C47.288 35.4921 47.7978 29.104 46.8603 24.5713C42.5326 19.7511 34.8104 16.4075 34.8104 16.4075C34.8104 16.4075 27.3094 24.1247 22.982 31.3913V31.3913Z"
       fill="#FFE6E6"
       id="path73" />
    <path
       fill-rule="evenodd"
       clip-rule="evenodd"
       d="M20.9474 34.4901C21.0443 33.7105 20.8089 32.8625 20.4613 32.4795C20.2952 32.2745 20.4108 31.9242 20.7361 31.9402C21.4418 32.0145 21.9233 33.5475 21.6344 34.6473C22.0591 34.7779 22.4632 34.9708 22.8249 35.235C22.8249 35.235 22.9654 35.3627 22.9588 35.5133C22.9355 36.047 21.8931 35.3332 21.0019 35.1623C20.3996 35.0467 19.7737 35.0539 19.1737 35.178C19.1737 35.178 18.9843 35.1963 18.8766 35.0906C18.5382 34.7583 19.3329 34.4191 20.1994 34.4263C20.4492 34.4309 20.7 34.4515 20.9474 34.4901Z"
       fill="#FECDCD"
       id="path75" />
    <path
       fill-rule="evenodd"
       clip-rule="evenodd"
       d="M35.1239 17.4838C34.6992 21.3313 33.7092 27.3105 22.986 31.4634C20.4087 27.8904 25.7034 14.3515 25.5288 10.2428C27.6249 7.42569 34.5682 6.98008 39.0091 8.48258C44.6031 10.3754 47.7456 16.0884 48.1319 24.5033C43.8174 25.4668 38.2148 21.1918 35.1239 17.4838Z"
       fill="#F20D59"
       id="path77" />
    <path
       fill-rule="evenodd"
       clip-rule="evenodd"
       d="M33.1023 7.63634C35.6363 8.17461 38.0599 9.24263 40.2745 10.6053C42.7047 12.1006 44.8752 14.051 46.5781 16.321L46.9667 17.4332L47.2444 18.4213C44.1482 13.3766 38.8742 9.64502 33.0771 8.31114C32.1475 8.09734 31.2012 7.95 30.2461 7.90416C31.155 7.73784 32.1249 7.64845 33.1023 7.63634Z"
       fill="#DA0C51"
       id="path79" />
    <path
       fill-rule="evenodd"
       clip-rule="evenodd"
       d="M30.9742 9.93899C33.2612 12.0454 35.1509 14.9103 34.9616 18.1373L34.9303 18.4638C34.6853 20.1939 34.1976 22.234 32.7897 24.2974C32.5714 24.3184 32.3861 24.1174 32.6552 23.5756C34.0918 20.6522 35.0256 17.3019 33.5669 14.2435C32.4929 11.9917 30.5396 10.4122 28.7037 8.86311C28.6638 8.82945 28.5863 8.75824 28.2754 8.42486C28.2754 8.42486 28.5642 8.32873 28.7037 8.2873C28.8389 8.24684 29.1122 8.17531 29.1122 8.17531C34.6658 10.3381 39.9049 13.3715 43.8764 17.6453C45.4341 19.3212 46.8113 21.1364 48.0501 23.0522L48.1395 24.3511L48.1078 24.3559C45.4779 20.1304 42.1652 16.3037 38.0706 13.4796C35.6738 11.8266 33.0587 10.5044 30.3573 9.3894L30.9742 9.93899V9.93899Z"
       fill="#DA0C51"
       id="path81" />
    <path
       fill-rule="evenodd"
       clip-rule="evenodd"
       d="M27.8714 8.56552C27.9571 8.76197 28.0027 8.97623 28.0526 9.16318C29.4554 14.4237 27.8615 20.2668 26.1672 25.3348C25.4924 27.3533 24.9062 29.5764 23.6211 31.1628L23.0418 31.4067L22.8262 31.0488C24.0665 29.639 24.6682 27.6463 25.3424 25.7188C26.9628 21.0853 28.1438 16.1571 27.7617 11.4328C27.6905 10.5521 27.5504 9.6856 27.2652 8.84808L27.8714 8.56552Z"
       fill="#DA0C51"
       id="path83" />
    <path
       fill-rule="evenodd"
       clip-rule="evenodd"
       d="M27.0952 8.96698C29.0475 6.73205 30.0906 2.47436 27.472 0.357307C24.4556 -2.0816 19.8545 -2.64377 15.7575 -1.4307C12.4972 -0.465156 8.268 3.7097 7.91614 9.74393C7.56395 15.7782 12.557 15.8738 14.8293 15.4907C17.1019 15.1076 25.3077 11.013 27.0952 8.96698V8.96698Z"
       fill="#F20D59"
       id="path85" />
    <path
       fill-rule="evenodd"
       clip-rule="evenodd"
       d="M11.8868 1.05806C16.0986 1.48533 20.0794 4.52864 20.5113 8.90093C20.6551 10.3579 20.6699 11.8598 20.4388 13.2863L19.7173 13.6442C20.3974 10.0115 19.8178 5.94242 16.7577 3.59159C15.2016 2.3962 13.2617 1.75185 11.2871 1.67851L11.2983 1.66541L11.8868 1.05806V1.05806Z"
       fill="#DA0C51"
       id="path87" />
    <path
       fill-rule="evenodd"
       clip-rule="evenodd"
       d="M10.8246 2.15443L10.9165 2.18718C14.2389 3.5944 15.6552 7.76369 15.7425 11.0732C15.7802 12.5056 15.6519 13.9351 15.3066 15.3322L14.849 15.4589L14.619 15.4854L14.6459 15.3001C15.7845 10.6685 15.2843 4.97969 10.9303 2.91043C10.7262 2.81319 10.5716 2.72675 10.459 2.64425L10.7659 2.22417L10.8246 2.15443V2.15443Z"
       fill="#DA0C51"
       id="path89" />
    <path
       fill-rule="evenodd"
       clip-rule="evenodd"
       d="M10.0047 3.31241C12.0328 6.38948 12.5999 10.585 11.5838 14.0775C11.459 14.5056 11.3003 14.9587 11.0391 15.3167C10.8156 15.2421 10.5955 15.1537 10.3822 15.0451C11.0917 14.2244 11.1958 12.9555 11.2447 11.738C11.3525 9.03191 10.914 6.12282 9.61914 3.93713L9.71003 3.76981L10.0047 3.31241Z"
       fill="#DA0C51"
       id="path91" />
    <path
       fill-rule="evenodd"
       clip-rule="evenodd"
       d="M13.3782 -0.184414L14.5753 -0.221085C15.3607 -0.216828 16.1458 -0.180813 16.9257 -0.092739C17.1794 -0.064254 17.4331 -0.0301995 17.6856 0.0100724C20.7548 0.499883 23.87 2.31605 24.7871 5.64028C25.2335 7.25868 25.1741 9.01362 24.9772 10.6887L24.7113 10.8737L24.3063 11.1176L24.2948 10.9257C24.6499 7.87913 24.5587 4.40429 21.8849 2.33962C19.2197 0.281823 15.5993 0.301471 12.4903 0.500538L12.4766 0.501847C12.7753 0.247774 13.0782 0.0159628 13.3782 -0.184414Z"
       fill="#DA0C51"
       id="path93" />
    <path
       fill-rule="evenodd"
       clip-rule="evenodd"
       d="M19.1829 -2.0484C22.6743 -1.72492 26.1329 -0.242711 27.6076 3.08348C28.2663 4.56929 28.3251 6.27151 27.8889 7.85881C27.6621 8.25596 27.4034 8.6135 27.1267 8.93044L26.7381 9.31809C26.7112 9.22052 26.7279 9.08956 26.81 8.91734C28.0359 6.28329 27.6316 3.05205 25.1961 0.947761C22.5036 -1.37851 18.6217 -1.73114 15.3164 -1.30091L15.7891 -1.46724C16.8985 -1.79563 18.045 -1.99405 19.1829 -2.0484Z"
       fill="#DA0C51"
       id="path95" />
    <path
       fill-rule="evenodd"
       clip-rule="evenodd"
       d="M20.7167 41.2496C22.0798 41.2496 23.1849 40.1475 23.1849 38.7874C23.1849 37.4277 22.0798 36.3252 20.7167 36.3252H20.7163C19.3532 36.3252 18.248 37.4277 18.248 38.7874C18.248 40.1475 19.3532 41.2496 20.7163 41.2496H20.7167Z"
       fill="white"
       id="path97" />
    <path
       fill-rule="evenodd"
       clip-rule="evenodd"
       d="M28.6727 23.998C31.0852 22.7348 34.3225 24.1394 35.8973 27.1323C37.4722 30.1252 36.7924 33.5808 34.3802 34.8439C31.9678 36.1071 28.7304 34.7028 27.1556 31.7099C25.5804 28.7167 26.2602 25.2612 28.6727 23.998V23.998Z"
       fill="#F5FBFC"
       id="path99" />
    <path
       fill-rule="evenodd"
       clip-rule="evenodd"
       d="M30.1956 27.6681C30.813 27.3158 31.7599 27.8066 32.309 28.7637C32.8578 29.7207 32.8023 30.7838 32.1849 31.1364C31.5675 31.4887 30.6203 30.9979 30.0715 30.0409C29.5224 29.0839 29.5778 28.0204 30.1956 27.6681Z"
       fill="#26ACD8"
       id="path101" />
    <path
       fill-rule="evenodd"
       clip-rule="evenodd"
       d="M40.9074 21.2679C43.1265 20.2653 46.052 21.9266 47.4358 24.9755C48.8193 28.024 48.1409 31.3132 45.9217 32.3155C43.7022 33.3177 40.7767 31.6564 39.3933 28.6078C38.0094 25.5589 38.6879 22.2701 40.9074 21.2679Z"
       fill="#F5FBFC"
       id="path103" />
    <path
       fill-rule="evenodd"
       clip-rule="evenodd"
       d="M41.5659 25.0664C42.0887 24.7979 42.8958 25.3208 43.3669 26.2336C43.8382 27.1461 43.7962 28.1051 43.2733 28.3739C42.7504 28.6424 41.9433 28.1195 41.4723 27.2067C41.001 26.2939 41.043 25.3349 41.5659 25.0664Z"
       fill="#26ACD8"
       id="path105" />
    <path
       fill-rule="evenodd"
       clip-rule="evenodd"
       d="M42.3328 20.9757C45.8025 21.0419 48.6265 25.203 48.0994 29.0327C47.8569 30.7972 46.5361 32.5986 44.5618 32.6075C41.0523 32.6228 38.1807 28.2961 38.7475 24.4863C39.0035 22.7641 40.2127 21.0327 42.2198 20.9764C42.2763 20.9757 42.2763 20.9757 42.3328 20.9757ZM42.233 21.6312C40.4684 21.68 39.32 23.6946 39.337 25.4751C39.3741 29.408 43.6398 33.9485 46.4291 31.1842C49.2288 28.409 46.434 21.5798 42.233 21.6312Z"
       fill="#66C5E4"
       id="path107" />
    <path
       fill-rule="evenodd"
       clip-rule="evenodd"
       d="M38.3066 25.9094C38.9844 27.8818 41.5262 29.9844 43.2439 30.7994C44.6759 31.4791 43.6548 33.6764 41.1153 34.1986"
       fill="#FFE6E6"
       id="path109" />
    <path
       fill-rule="evenodd"
       clip-rule="evenodd"
       d="M38.3584 25.544C38.7848 25.5889 38.9092 26.4297 39.2939 26.9827C40.3376 28.4829 41.8232 29.6852 43.4584 30.4854C43.4584 30.4854 44.1169 30.835 44.2344 31.4758C44.4878 32.8562 42.8817 34.118 41.278 34.4677C40.8799 34.5545 40.5319 33.9638 41.1927 33.8155C42.7888 33.438 44.3936 31.7102 43.162 31.0695C40.9363 29.9805 38.8622 28.2187 38.0656 26.0777C37.9747 25.8335 38.0758 25.5424 38.3584 25.544V25.544Z"
       fill="#FDB3B3"
       id="path111" />
    <path
       fill-rule="evenodd"
       clip-rule="evenodd"
       d="M26.3464 29.534C26.0201 27.7237 26.4307 25.863 27.8723 24.5687C28.6305 23.888 29.6566 23.5256 30.6823 23.5341C33.4676 23.5957 35.6421 25.9344 36.4384 28.4178C37.4333 27.8772 38.6005 27.6405 39.7309 27.6343C39.8129 27.7319 40.0765 28.0269 40.2213 28.1745C38.8952 28.1739 37.5157 28.5501 36.615 29.0717C36.6882 29.4046 36.7358 29.7366 36.7558 30.0631C36.9094 32.5812 35.244 35.5986 32.0375 35.2856C29.3346 35.0214 27.205 32.7282 26.4954 30.1826C26.4655 30.1842 26.4347 30.1852 26.4022 30.1855C25.0095 30.2022 23.6716 30.3466 22.3085 30.6442C22.299 30.6416 22.0193 30.3679 21.7266 30.1639C22.6253 29.8417 24.8136 29.569 26.3464 29.534V29.534ZM30.5658 24.1886C29.4642 24.2105 28.4011 24.755 27.7591 25.6859C26.0539 28.1572 27.2398 32.1235 29.9887 33.8728C31.6318 34.9186 34.0647 34.9998 35.3375 33.1551C37.5665 29.9246 34.8245 24.2813 30.6721 24.1886C30.6189 24.1883 30.6189 24.1883 30.5658 24.1886V24.1886Z"
       fill="#66C5E4"
       id="path113" />
    <path
       fill-rule="evenodd"
       clip-rule="evenodd"
       d="M32.8125 37.0562C36.1847 37.4776 38.609 37.511 41.5372 37.2389C41.0658 39.3284 39.5402 41.0795 36.9475 41.0009C34.4605 40.9259 32.9461 38.9297 32.8125 37.0562V37.0562Z"
       fill="#FECDCD"
       id="path115" />
    <path
       fill-rule="evenodd"
       clip-rule="evenodd"
       d="M33.4023 38.8854C33.0557 38.3213 32.8571 37.6819 32.8125 37.0562C34.6903 37.2906 36.2743 37.4052 37.8088 37.4023L38.3153 37.6272C36.0485 37.8986 34.5885 38.3658 33.4023 38.8854V38.8854Z"
       fill="#FDB3B3"
       id="path117" />
    <path
       fill-rule="evenodd"
       clip-rule="evenodd"
       d="M32.8965 36.6919C33.0518 36.7109 33.207 36.7299 33.3623 36.7482C36.0675 37.0615 38.8194 37.1234 41.5509 36.8736C41.5509 36.8736 41.9829 36.946 41.8644 37.4256C41.184 40.0875 38.3146 42.0533 35.4849 41.002C33.8996 40.4126 32.7199 38.8748 32.5414 37.183C32.5135 36.9214 32.6211 36.6713 32.8965 36.6919V36.6919ZM33.2353 37.3978C33.8008 40.3714 38.5348 42.0674 40.6033 38.7585C40.885 38.3087 41.1433 37.5667 41.1433 37.5667C40.9824 37.5802 40.8213 37.5923 40.6598 37.6044C38.2079 37.7769 35.7364 37.6823 33.2858 37.3984C33.2858 37.3984 33.2323 37.3811 33.2353 37.3978Z"
       fill="#FDB3B3"
       id="path119" />
  </g>
  <path
     fill-rule="evenodd"
     clip-rule="evenodd"
     d="M100.244 278.041V249.05C100.244 249.05 141.679 232.111 147.719 229.641C148.162 229.46 148.45 229.04 148.45 228.573C148.45 227.099 148.45 223.732 148.45 220.481C148.45 216.152 149.683 201.286 159.258 192.569C162.984 189.179 170.769 187.733 170.769 187.733H283.037V266.881L276.969 272.928L266.563 278.041H100.244Z"
     fill="#D2F7F4"
     id="path123" />
  <path
     d="M147.555 229.941C147.569 229.935 147.583 229.929 147.597 229.923C148.038 229.74 148.339 229.453 148.429 229.04V228.912C148.432 228.909 148.434 228.908 148.434 228.908H247.015C247.063 228.914 247.111 228.92 247.16 228.926L247.164 228.926C248.099 229.275 247.593 230.069 247.015 230.138L147.555 229.941Z"
     fill="#7EE8DF"
     id="path127" />
  <path
     fill-rule="evenodd"
     clip-rule="evenodd"
     d="M199.363 278.534V249.057C199.363 249.057 241.977 231.801 246.798 229.621C246.798 220.684 248.065 208.659 256.904 199.555C265.744 190.451 272.297 188.404 283.039 187.733V271.269C283.039 275.125 279.92 278.256 276.063 278.269L199.363 278.534Z"
     fill="#7EE8DF"
     id="path129" />
  <path
     fill-rule="evenodd"
     clip-rule="evenodd"
     d="M207.71 239.888H132.982L119.684 244.691L194.501 244.777L207.797 239.888H207.71Z"
     fill="#FFF8E4"
     id="path131" />
  <path
     d="M194.499 244.774L119.682 244.692V246.154L194.499 246.234V244.774Z"
     fill="#FFD24B"
     id="path133" />
  <path
     fill-rule="evenodd"
     clip-rule="evenodd"
     d="M194.5 244.777L207.8 239.888V241.35L194.5 246.239V244.777Z"
     fill="#FFBF00"
     id="path135" />
  <path
     fill-rule="evenodd"
     clip-rule="evenodd"
     d="M225.043 232.34H152.415L139.109 237.15L211.743 237.228L225.043 232.34Z"
     fill="#FFF8E4"
     id="path137" />
  <path
     fill-rule="evenodd"
     clip-rule="evenodd"
     d="M225.047 233.538V232.34L211.746 237.144V238.582C216.94 236.673 219.852 235.447 225.047 233.538Z"
     fill="#FFBF00"
     id="path139" />
  <path
     d="M199.367 249.496H100.244V278.534H199.367V249.496Z"
     fill="#A9F0E9"
     id="path141" />
  <path
     d="M190.535 258.76H100.244V278.534H190.535V258.76Z"
     fill="#26D8C8"
     id="path143" />
  <path
     d="M190.535 268.586H100.244V278.534H190.535V268.586Z"
     fill="#7EE8DF"
     id="path145" />
  <path
     d="M211.745 237.143H139.117V238.582H211.745V237.143Z"
     fill="#FFD24B"
     id="path147" />
  <path
     d="M163.452 258.76H155.283V278.534H163.452V258.76Z"
     fill="#CCCCCC"
     id="path149" />
  <path
     fill-rule="evenodd"
     clip-rule="evenodd"
     d="M170.136 257.454H83.2329C82.3512 257.454 81.5061 257.804 80.8823 258.428C80.2586 259.051 79.9082 259.897 79.9082 260.779C79.9082 264.944 79.9082 272.037 79.9082 276.201C79.9082 277.083 80.2586 277.929 80.8823 278.552C81.5061 279.176 82.3512 279.527 83.2329 279.527C99.5233 279.527 170.136 279.527 170.136 279.527"
     fill="#FFECB4"
     id="path151" />
  <path
     fill-rule="evenodd"
     clip-rule="evenodd"
     d="M169.746 256.729C170.421 256.797 170.934 257.364 170.934 258.039C141.916 258.039 112.136 257.151 83.1317 258.042C81.7843 258.1 80.5954 259.278 80.5694 260.66C80.5381 265.831 80.411 271.004 80.5707 276.173C80.632 278.154 82.6536 279.449 84.0202 279.474C84.0202 279.474 170.182 279.474 170.934 279.474C170.934 280.185 170.4 280.761 169.688 280.761C159.995 280.767 96.8189 280.809 84.9712 280.809C83.5451 280.784 83.0385 280.794 81.6901 280.136C80.3417 279.478 79.2806 277.508 79.2394 276.173C79.1416 270.981 79.1416 265.786 79.2394 260.594C79.3026 258.551 81.1217 256.726 83.2282 256.714C83.2282 256.714 159.28 256.723 169.746 256.729Z"
     fill="#FFD24B"
     id="path153" />
  <path
     d="M170.934 258.023H161.553V279.527H170.934V258.023Z"
     fill="#FFD24B"
     id="path155" />
  <path
     fill-rule="evenodd"
     clip-rule="evenodd"
     d="M242.554 197.341H169.33C163.819 200.388 159.956 209.757 159.408 219.86H233.393C234.83 208.402 237.664 202.249 242.554 197.341Z"
     fill="white"
     id="path157" />
  <path
     fill-rule="evenodd"
     clip-rule="evenodd"
     d="M189.95 213.497H191.776C192.686 213.497 192.622 214.756 191.776 214.756L189.643 214.774L189.855 213.811L189.95 213.497Z"
     fill="#7EE8DF"
     id="path159" />
  <path
     fill-rule="evenodd"
     clip-rule="evenodd"
     d="M224.071 214.697H206.563C205.348 214.633 205.912 213.501 206.563 213.467H224.071C224.093 213.468 224.115 213.469 224.136 213.471C224.742 213.566 224.954 214.597 224.071 214.697Z"
     fill="#7EE8DF"
     id="path161" />
  <path
     fill-rule="evenodd"
     clip-rule="evenodd"
     d="M203.009 213.51C203.619 213.566 203.792 214.667 203.009 214.738C201.112 214.795 199.214 214.739 197.316 214.739C196.708 214.721 196.4 213.59 197.279 213.51C199.188 213.453 201.1 213.453 203.009 213.51V213.51Z"
     fill="#7EE8DF"
     id="path163" />
  <path
     fill-rule="evenodd"
     clip-rule="evenodd"
     d="M191.687 207.978H209.908C209.941 207.981 209.973 207.983 210.005 207.986C210.606 208.129 210.622 209.101 209.908 209.207H191.23L191.687 207.978Z"
     fill="#7EE8DF"
     id="path165" />
  <path
     fill-rule="evenodd"
     clip-rule="evenodd"
     d="M194.331 202.488H220.597C220.631 202.49 220.665 202.493 220.699 202.496C221.303 202.649 221.316 203.608 220.597 203.717H193.637L194.331 202.488V202.488Z"
     fill="#7EE8DF"
     id="path167" />
  <path
     fill-rule="evenodd"
     clip-rule="evenodd"
     d="M189.955 213.492L189.646 214.775C188.009 214.795 186.377 214.751 184.745 214.751C183.82 214.751 183.812 213.523 184.704 213.523C186.519 213.523 188.14 213.492 189.955 213.492Z"
     fill="#D2F7F4"
     id="path169" />
  <path
     fill-rule="evenodd"
     clip-rule="evenodd"
     d="M191.692 207.978L191.236 209.207H171.505C170.837 209.155 170.66 208.044 171.505 207.978H191.692Z"
     fill="#D2F7F4"
     id="path171" />
  <path
     fill-rule="evenodd"
     clip-rule="evenodd"
     d="M194.415 202.488L193.72 203.717H174.96C174.293 203.662 174.07 202.561 174.96 202.488H194.415V202.488Z"
     fill="#D2F7F4"
     id="path173" />
  <path
     fill-rule="evenodd"
     clip-rule="evenodd"
     d="M242.613 196.669C244.167 197.183 241.945 198.618 240.726 200.181C236.469 205.636 234.831 212.783 233.933 219.866C233.933 219.866 233.756 220.358 233.321 220.403H159.337C158.632 220.332 158.708 219.948 158.75 219.276C159.188 212.743 160.705 206.161 164.537 200.857C165.708 199.236 167.146 197.761 168.891 196.77C168.891 196.77 169.003 196.676 169.259 196.655H242.483C242.526 196.659 242.57 196.664 242.613 196.669ZM169.421 197.884C165.35 200.24 163.1 205.039 161.662 209.825C160.753 212.847 160.223 215.978 159.996 219.122L232.779 219.174C233.8 211.479 235.732 203.813 241.023 197.913L241.05 197.884H169.421V197.884Z"
     fill="#7EE8DF"
     id="path175" />
  <path
     fill-rule="evenodd"
     clip-rule="evenodd"
     d="M280.573 171.038C281.933 171.038 283.038 169.936 283.038 168.578V124.313C283.038 122.956 281.933 121.853 280.573 121.853H165.315C163.954 121.853 162.85 122.956 162.85 124.313V168.578C162.85 169.936 163.954 171.038 165.315 171.038H280.573Z"
     fill="#D2F7F4"
     id="path177" />
  <path
     d="M229.686 170.92H214.277V187.52H229.686V170.92Z"
     fill="#A9F0E9"
     id="path179" />
  <path
     fill-rule="evenodd"
     clip-rule="evenodd"
     d="M214.277 170.92H229.686V187.52L214.277 172.15V170.92Z"
     fill="#7EE8DF"
     id="path181" />
  <path
     d="M229.686 170.92H214.277V172.15H229.686V170.92Z"
     fill="#26D8C8"
     id="path183" />
  <path
     fill-rule="evenodd"
     clip-rule="evenodd"
     d="M275.026 163.216H170.246V129.402H275.026V163.216ZM170.862 130.017V162.601H274.409V130.017H170.862Z"
     fill="#FFBF00"
     id="path185" />
  <path
     fill-rule="evenodd"
     clip-rule="evenodd"
     d="M275.026 163.216V129.402H170.246V163.216H275.026Z"
     fill="white"
     id="path187" />
  <path
     fill-rule="evenodd"
     clip-rule="evenodd"
     d="M275.09 128.731C275.371 128.83 275.535 129.027 275.569 129.331V163.145C275.509 163.678 275.263 163.725 274.953 163.76H170.173C169.638 163.7 169.592 163.455 169.557 163.145V129.331C169.594 129.002 169.667 128.773 170.173 128.716H274.953C274.998 128.721 275.044 128.726 275.09 128.731ZM170.789 129.945V162.53H274.336V129.945H170.789Z"
     fill="#7EE8DF"
     id="path189" />
  <path
     d="M255.531 115.678H189.854V134.298H255.531V115.678Z"
     fill="#FFF8E4"
     id="path191" />
  <path
     fill-rule="evenodd"
     clip-rule="evenodd"
     d="M255.584 115.346C256.031 115.481 256.053 115.672 256.08 115.949V134.57C256.029 135.087 255.92 135.14 255.464 135.185H189.786C189.268 135.134 189.215 135.024 189.17 134.57V115.949C189.221 115.432 189.331 115.379 189.786 115.334H255.464C255.504 115.338 255.544 115.342 255.584 115.346ZM190.403 116.564V133.955H254.848V116.564H190.403Z"
     fill="#FFDF80"
     id="path193" />
  <path
     d="M195.016 128.023V122.246C195.665 122.213 196.253 122.196 196.78 122.196C197.423 122.196 197.91 122.325 198.24 122.583C198.57 122.84 198.735 123.192 198.735 123.641C198.735 124.211 198.513 124.642 198.07 124.935V124.952C198.319 125.046 198.52 125.207 198.672 125.433C198.825 125.66 198.902 125.942 198.902 126.28C198.902 126.861 198.696 127.306 198.286 127.616C197.881 127.92 197.348 128.073 196.688 128.073C195.917 128.073 195.36 128.056 195.016 128.023V128.023ZM196.863 125.69H196.347V126.778C196.469 126.811 196.619 126.828 196.796 126.828C197.312 126.828 197.57 126.623 197.57 126.214C197.57 125.865 197.334 125.69 196.863 125.69ZM196.763 123.441C196.663 123.441 196.524 123.452 196.347 123.475V124.528H196.788C197.199 124.528 197.404 124.34 197.404 123.964C197.404 123.804 197.343 123.676 197.221 123.582C197.099 123.488 196.946 123.441 196.763 123.441Z"
     fill="#D17017"
     id="path195" />
  <path
     d="M200.654 128.007H199.314L201.735 122.197H202.926L205.347 128.007H203.924L203.441 126.786H201.136L200.654 128.007ZM202.942 125.541L202.293 123.898L201.636 125.541H202.942Z"
     fill="#D17017"
     id="path197" />
  <path
     d="M213.014 128.007H206.191V122.197H207.523V126.762H208.937V122.197H210.268V126.762H211.683V122.197H213.014V128.007V128.007Z"
     fill="#D17017"
     id="path199" />
  <path
     d="M216.17 128.007V122.197H219.681V123.442H217.501V124.363C217.662 124.329 217.884 124.313 218.167 124.313C218.733 124.313 219.188 124.476 219.531 124.803C219.881 125.129 220.056 125.563 220.056 126.106C220.056 126.72 219.857 127.198 219.461 127.538C219.064 127.878 218.508 128.048 217.793 128.048C217.499 128.048 217.174 128.04 216.819 128.023C216.719 128.023 216.618 128.022 216.515 128.019C216.413 128.016 216.335 128.013 216.282 128.011C216.23 128.008 216.192 128.007 216.17 128.007V128.007ZM218.059 125.558C217.887 125.558 217.701 125.574 217.501 125.608V126.762C217.767 126.789 217.934 126.803 218 126.803C218.483 126.803 218.725 126.604 218.725 126.205C218.725 126.012 218.669 125.855 218.558 125.737C218.447 125.617 218.281 125.558 218.059 125.558V125.558Z"
     fill="#D17017"
     id="path201" />
  <path
     d="M221.808 128.007H220.469L222.89 122.197H224.08L226.501 128.007H225.078L224.596 126.786H222.291L221.808 128.007ZM224.097 125.541L223.447 123.898L222.79 125.541H224.097Z"
     fill="#D17017"
     id="path203" />
  <path
     d="M231.842 128.007H230.511V123.442H229.23L229.104 124.537C228.988 125.544 228.823 126.315 228.61 126.849C228.396 127.383 228.138 127.73 227.835 127.89C227.533 128.051 227.141 128.09 226.658 128.007L226.683 126.679C226.806 126.701 226.907 126.7 226.987 126.674C227.067 126.65 227.155 126.582 227.249 126.471C227.344 126.355 227.429 126.181 227.507 125.948C227.679 125.45 227.81 124.587 227.898 123.359L227.981 122.197H231.842V128.007V128.007Z"
     fill="#D17017"
     id="path205" />
  <path
     d="M234.019 128.007H232.68L235.101 122.197H236.291L238.712 128.007H237.289L236.807 126.786H234.502L234.019 128.007ZM236.307 125.541L235.658 123.898L235.001 125.541H236.307Z"
     fill="#D17017"
     id="path207" />
  <path
     d="M244.171 128.007H242.84V125.666H240.718V128.007H239.387V122.197H240.718V124.421H242.84V122.197H244.171V128.007Z"
     fill="#D17017"
     id="path209" />
  <path
     d="M249.681 126.537L250.189 127.533C250.011 127.732 249.748 127.896 249.399 128.023C249.055 128.145 248.685 128.206 248.292 128.206C247.387 128.206 246.653 127.931 246.087 127.384C245.521 126.825 245.238 126.097 245.238 125.201C245.238 124.327 245.505 123.607 246.037 123.043C246.57 122.479 247.318 122.196 248.284 122.196C248.65 122.196 248.991 122.252 249.307 122.362C249.623 122.473 249.876 122.619 250.064 122.802L249.473 123.798C249.085 123.56 248.689 123.441 248.284 123.441C247.812 123.441 247.421 123.596 247.11 123.906C246.805 124.211 246.653 124.642 246.653 125.201C246.653 125.71 246.816 126.133 247.143 126.471C247.471 126.797 247.895 126.961 248.417 126.961C248.883 126.961 249.304 126.819 249.681 126.537V126.537Z"
     fill="#D17017"
     id="path211" />
  <path
     fill-rule="evenodd"
     clip-rule="evenodd"
     d="M118.126 273.353C120.887 273.353 123.126 271.119 123.126 268.365V268.364C123.126 265.61 120.887 263.376 118.126 263.376H118.125C115.364 263.376 113.125 265.61 113.125 268.364V268.365C113.125 271.119 115.364 273.353 118.125 273.353H118.126Z"
     fill="#FFBF00"
     id="path213" />
  <defs
     id="defs283">
    <linearGradient
       id="paint0_linear"
       x1="58.79"
       y1="159.369"
       x2="93.0905"
       y2="159.369"
       gradientUnits="userSpaceOnUse">
      <stop
         stop-color="#FF6599"
         id="stop269" />
      <stop
         offset="0.52"
         stop-color="#FF6E7B"
         id="stop271" />
      <stop
         offset="1"
         stop-color="#FF8C1A"
         id="stop273" />
    </linearGradient>
    <linearGradient
       id="paint1_linear"
       x1="62.2052"
       y1="171.442"
       x2="96.2069"
       y2="151.23"
       gradientUnits="userSpaceOnUse">
      <stop
         stop-color="#FF98BA"
         id="stop276" />
      <stop
         offset="0.52"
         stop-color="#FF9594"
         id="stop278" />
      <stop
         offset="1"
         stop-color="#FF8C1A"
         id="stop280" />
    </linearGradient>
  </defs>
</svg>
