<?xml version="1.0" encoding="UTF-8" standalone="no"?>
<svg
   xmlns:dc="http://purl.org/dc/elements/1.1/"
   xmlns:cc="http://creativecommons.org/ns#"
   xmlns:rdf="http://www.w3.org/1999/02/22-rdf-syntax-ns#"
   xmlns:svg="http://www.w3.org/2000/svg"
   xmlns="http://www.w3.org/2000/svg"
   xmlns:sodipodi="http://sodipodi.sourceforge.net/DTD/sodipodi-0.dtd"
   xmlns:inkscape="http://www.inkscape.org/namespaces/inkscape"
   width="290"
   height="329"
   viewBox="0 0 290 329"
   fill="none"
   version="1.1"
   id="svg247"
   sodipodi:docname="2-mobile.svg"
   inkscape:version="0.92.4 (5da689c313, 2019-01-14)">
  <metadata
     id="metadata251">
    <rdf:RDF>
      <cc:Work
         rdf:about="">
        <dc:format>image/svg+xml</dc:format>
        <dc:type
           rdf:resource="http://purl.org/dc/dcmitype/StillImage" />
        <dc:title></dc:title>
      </cc:Work>
    </rdf:RDF>
  </metadata>
  <sodipodi:namedview
     pagecolor="#ffffff"
     bordercolor="#666666"
     borderopacity="1"
     objecttolerance="10"
     gridtolerance="10"
     guidetolerance="10"
     inkscape:pageopacity="0"
     inkscape:pageshadow="2"
     inkscape:window-width="1766"
     inkscape:window-height="949"
     id="namedview249"
     showgrid="false"
     inkscape:zoom="2.0289021"
     inkscape:cx="100.08505"
     inkscape:cy="144.15905"
     inkscape:window-x="0"
     inkscape:window-y="0"
     inkscape:window-maximized="0"
     inkscape:current-layer="svg247" />
  <path
     fill-rule="evenodd"
     clip-rule="evenodd"
     d="M150.398 92.5272V328.529H289.365V71.2435H178.061L150.398 92.5272V92.5272Z"
     fill="white"
     id="path2" />
  <path
     fill-rule="evenodd"
     clip-rule="evenodd"
     d="M289.68 70.7162L290.001 71.1777V328.464C289.848 329.202 289.481 328.963 289.481 328.963H150.515C149.746 328.816 149.996 328.464 149.996 328.464V92.4615C150.011 92.3656 150.003 92.2662 150.19 92.0714L177.854 70.7876C178.005 70.7067 178.007 70.7062 178.178 70.6782H289.481C289.548 70.6907 289.614 70.7032 289.68 70.7162V70.7162ZM178.36 71.6773L151.034 92.7018V327.964H288.962V71.6773H178.36V71.6773Z"
     fill="#FFDF80"
     id="path4" />
  <path
     fill-rule="evenodd"
     clip-rule="evenodd"
     d="M221.514 268.375C222.387 268.375 223.096 269.057 223.096 269.896V274.87H228.267C229.14 274.87 229.849 275.552 229.849 276.392V279.435C229.849 280.274 229.14 280.956 228.267 280.956H223.096V285.93C223.096 286.77 222.387 287.452 221.514 287.452H218.349C217.476 287.452 216.767 286.77 216.767 285.93V280.956H211.596C210.723 280.956 210.014 280.274 210.014 279.435V276.392C210.014 275.552 210.723 274.87 211.596 274.87H216.767V269.896C216.767 269.057 217.476 268.375 218.349 268.375H221.514Z"
     fill="#F20D59"
     id="path6" />
  <path
     fill-rule="evenodd"
     clip-rule="evenodd"
     d="M150.752 92.8763C158.496 88.2028 171.747 88.6973 178.415 92.8763V71.2435C178.415 71.2435 155.679 88.0591 150.752 92.8763Z"
     fill="#FFDF80"
     id="path86" />
  <path
     d="M0.439453 92.5272V328.529H139.362V71.2435H28.0941L0.439453 92.5272V92.5272Z"
     id="path88"
     clip-rule="evenodd"
     fill-rule="evenodd"
     fill="white" />
  <path
     fill-rule="evenodd"
     clip-rule="evenodd"
     d="M139.68 70.7162L140 71.1777V328.464C139.847 329.202 139.481 328.963 139.481 328.963H0.55781C-0.21065 328.816 0.0385801 328.464 0.0385801 328.464V92.4615C0.0795992 92.1988 0.164753 92.1428 0.233291 92.0714L27.888 70.7876C28.0401 70.7067 28.0411 70.7062 28.2125 70.6782H139.481C139.547 70.6907 139.614 70.7032 139.68 70.7162V70.7162ZM28.3947 71.6773L1.07704 92.7018V327.964H138.962V71.6773H28.3947V71.6773Z"
     fill="#FFDF80"
     id="path90" />
  <path
     fill-rule="evenodd"
     clip-rule="evenodd"
     d="M0.714844 92.8975C8.45656 88.2193 21.7037 88.7143 28.3695 92.8975V71.2435C28.3695 71.2435 5.64129 88.0755 0.714844 92.8975Z"
     fill="#FFDF80"
     id="path172" />
  <path
     fill-rule="evenodd"
     clip-rule="evenodd"
     d="M125.754 128.714L125.754 123.513L158.142 123.513L154.019 119.389L157.696 115.711L168.098 126.114L157.696 136.517L154.019 132.839L158.142 128.714L125.754 128.714Z"
     fill="#F20D59"
     id="path174" />
  <path
     fill-rule="evenodd"
     clip-rule="evenodd"
     d="M222.703 35.8375C231.496 28.4083 238.024 22.608 246.344 14.6759C248.383 12.7316 255.198 6.71589 258.194 7.12206C263.96 7.90343 258.604 19.3959 257.245 21.7658C248.885 36.3434 244.903 44.456 229.865 53.7754"
     fill="#D5F6E3"
     id="path176" />
  <path
     fill-rule="evenodd"
     clip-rule="evenodd"
     d="M243.559 30.6035C248.724 27.0231 263.79 27.6966 268.918 30.2965C266.462 37.5152 250.795 50.2751 242.964 50.1343"
     fill="#A6E468"
     id="path178" />
  <path
     fill-rule="evenodd"
     clip-rule="evenodd"
     d="M268.986 30.3011L268.787 30.8149L260.716 33.9741C261.156 34.2894 261.324 34.5117 261.62 34.7428C262.602 35.507 263.633 36.2277 264.738 36.7446L264.221 37.303L263.218 36.7475C262.541 36.3318 261.894 35.8673 261.265 35.3811C260.723 34.9624 259.949 34.3213 259.949 34.3213C259.938 34.3101 259.928 34.2991 259.919 34.2886C257.492 35.2464 255.071 36.2139 252.662 37.1998C254.17 39.3815 256.033 41.2836 258.183 42.8496L258.024 42.9798L257.573 43.3178L257.402 43.1955C255.283 41.6125 253.463 39.6515 251.979 37.4795C249.06 38.6798 246.159 39.9093 243.304 41.1911L243.329 40.3852C246.101 39.1487 248.904 37.9623 251.721 36.8045C251.724 36.711 251.735 36.6143 251.753 36.5195C252.328 33.5634 253.223 30.609 254.892 28.1519L255.744 28.143L255.284 28.8511C253.836 31.1423 253.024 33.7993 252.495 36.487C254.944 35.4857 257.401 34.5051 259.863 33.5339C260.437 31.7038 261.525 30.064 262.856 28.6423L263.587 28.7487L263.701 28.7708L263.525 28.9591C262.348 30.1876 261.352 31.6095 260.75 33.1845C263.192 32.2235 265.638 31.2707 268.081 30.3158L268.575 30.123L268.986 30.3011V30.3011Z"
     fill="#8BDC3A"
     id="path180" />
  <path
     fill-rule="evenodd"
     clip-rule="evenodd"
     d="M243.804 11.7539C244.056 9.63034 244.372 8.039 245.105 5.92299C246.129 2.97153 248.098 1.19296 249.407 1.92366C250.794 2.6972 249.657 6.53391 248.634 7.93182C248.159 8.58174 247.003 9.88598 244.557 11.8305C244.033 13.0228 243.455 14.1917 242.834 15.3404C244.243 15.1451 245.639 14.8638 247.054 14.7041C248.51 14.5401 250.199 14.3549 251.545 15.0647C252.841 15.7492 252.812 17.1595 251.443 17.8648C250.609 18.2943 248.676 18.6495 247.75 18.7151C245.528 18.873 243.707 18.7178 241.244 18.1022C240.185 19.839 239.046 21.5338 237.871 23.1981C240.296 22.6885 246.305 22.2127 247.143 23.579C248.464 25.7305 245.199 26.527 244.063 26.7789C243.147 26.9823 240.194 27.4358 235.544 27.1841L235.337 27.6444C235.269 27.4805 235.203 27.3191 235.14 27.1609C235.028 27.1541 234.917 27.1469 234.804 27.1392L235.02 26.8598C233.658 23.4071 233.267 21.2507 232.61 18.663C232.491 18.1956 231.912 14.8564 232.225 13.4101C232.598 11.6805 234.141 11.4953 235.035 12.9629C236.011 14.564 237.104 18.3033 237.652 22.2425C238.707 20.7298 239.728 19.1951 240.681 17.6323C239.961 15.2318 239.489 13.0972 239.107 10.8895C238.941 9.92659 238.43 5.62759 239.767 5.07752C240.803 4.65181 241.766 8.62748 241.928 9.26127C242.245 10.5057 242.417 12.9737 242.471 14.4912C242.947 13.5891 243.394 12.6771 243.804 11.7539V11.7539Z"
     fill="#00988B"
     id="path182" />
  <path
     d="M178.611 38.3869C178.611 29.0454 186.188 21.4727 195.534 21.4727H231.264C240.61 21.4727 248.186 29.0454 248.186 38.3869V38.3869C248.186 47.7283 240.61 55.3011 231.264 55.3011H195.534C186.188 55.3011 178.611 47.7283 178.611 38.3869V38.3869Z"
     fill="#FFF8E4"
     id="path184" />
  <path
     fill-rule="evenodd"
     clip-rule="evenodd"
     d="M178.111 38.3869C178.111 28.7694 185.912 20.9729 195.534 20.9729H231.264C240.886 20.9729 248.686 28.7694 248.686 38.3869C248.686 48.0043 240.886 55.8008 231.264 55.8008H195.534C185.912 55.8008 178.111 48.0043 178.111 38.3869ZM195.534 21.9724C186.464 21.9724 179.111 29.3214 179.111 38.3869C179.111 47.4523 186.464 54.8013 195.534 54.8013H231.264C240.334 54.8013 247.686 47.4523 247.686 38.3869C247.686 29.3214 240.334 21.9724 231.264 21.9724H195.534Z"
     fill="#FFDF80"
     id="path186" />
  <path
     fill-rule="evenodd"
     clip-rule="evenodd"
     d="M129.837 170.743C129.837 169.463 128.939 168.423 127.832 168.423H12.794C11.6876 168.423 10.7891 169.463 10.7891 170.743V212.517C10.7891 213.798 11.6876 214.837 12.794 214.837H127.832C128.939 214.837 129.837 213.798 129.837 212.517V170.743Z"
     fill="#FFF8E4"
     id="path188" />
  <path
     fill-rule="evenodd"
     clip-rule="evenodd"
     d="M129.837 224.614C129.837 223.635 128.939 222.841 127.832 222.841H12.794C11.6876 222.841 10.7891 223.635 10.7891 224.614V256.54C10.7891 257.519 11.6876 258.314 12.794 258.314H127.832C128.939 258.314 129.837 257.519 129.837 256.54V224.614Z"
     fill="#FFF8E4"
     id="path190" />
  <path
     fill-rule="evenodd"
     clip-rule="evenodd"
     d="M278.951 170.743C278.951 169.463 278.052 168.423 276.945 168.423H161.907C160.801 168.423 159.902 169.463 159.902 170.743V212.517C159.902 213.798 160.801 214.837 161.907 214.837H276.945C278.052 214.837 278.951 213.798 278.951 212.517V170.743Z"
     fill="#FFF8E4"
     id="path192" />
  <path
     fill-rule="evenodd"
     clip-rule="evenodd"
     d="M278.951 224.614C278.951 223.635 278.052 222.841 276.945 222.841H161.907C160.801 222.841 159.902 223.635 159.902 224.614V256.54C159.902 257.519 160.801 258.314 161.907 258.314H276.945C278.052 258.314 278.951 257.519 278.951 256.54V224.614Z"
     fill="#FFF8E4"
     id="path194" />
  <defs
     id="defs245">
    <linearGradient
       id="paint0_linear"
       x1="215.342"
       y1="121.145"
       x2="219.931"
       y2="121.145"
       gradientUnits="userSpaceOnUse">
      <stop
         stop-color="#FF6599"
         id="stop196" />
      <stop
         offset="0.52"
         stop-color="#FF6E7B"
         id="stop198" />
      <stop
         offset="1"
         stop-color="#FF8C1A"
         id="stop200" />
    </linearGradient>
    <linearGradient
       id="paint1_linear"
       x1="206.977"
       y1="109.339"
       x2="231.599"
       y2="109.298"
       gradientUnits="userSpaceOnUse">
      <stop
         stop-color="#FF98BA"
         id="stop203" />
      <stop
         offset="0.52"
         stop-color="#FF9594"
         id="stop205" />
      <stop
         offset="1"
         stop-color="#FF8C1A"
         id="stop207" />
    </linearGradient>
    <linearGradient
       id="paint2_linear"
       x1="54.7522"
       y1="117.707"
       x2="84.7205"
       y2="117.707"
       gradientUnits="userSpaceOnUse">
      <stop
         stop-color="#FF6599"
         id="stop210" />
      <stop
         offset="0.52"
         stop-color="#FF6E7B"
         id="stop212" />
      <stop
         offset="1"
         stop-color="#FF8C1A"
         id="stop214" />
    </linearGradient>
    <linearGradient
       id="paint3_linear"
       x1="60.7304"
       y1="124.579"
       x2="78.487"
       y2="124.272"
       gradientUnits="userSpaceOnUse">
      <stop
         stop-color="#FF98BA"
         id="stop217" />
      <stop
         offset="0.52"
         stop-color="#FF9594"
         id="stop219" />
      <stop
         offset="1"
         stop-color="#FF8C1A"
         id="stop221" />
    </linearGradient>
    <linearGradient
       id="paint4_linear"
       x1="66.7092"
       y1="118.302"
       x2="72.712"
       y2="118.302"
       gradientUnits="userSpaceOnUse">
      <stop
         stop-color="#FF6599"
         id="stop224" />
      <stop
         offset="0.52"
         stop-color="#FF6E7B"
         id="stop226" />
      <stop
         offset="1"
         stop-color="#FF8C1A"
         id="stop228" />
    </linearGradient>
    <linearGradient
       id="paint5_linear"
       x1="72.6002"
       y1="118.302"
       x2="66.5974"
       y2="118.302"
       gradientUnits="userSpaceOnUse">
      <stop
         stop-color="#FF8C1A"
         id="stop231" />
      <stop
         offset="0.48"
         stop-color="#FF9594"
         id="stop233" />
      <stop
         offset="1"
         stop-color="#FF98BA"
         id="stop235" />
    </linearGradient>
    <linearGradient
       id="paint6_linear"
       x1="54.7522"
       y1="115.998"
       x2="83.347"
       y2="119.197"
       gradientUnits="userSpaceOnUse">
      <stop
         stop-color="#FF98BA"
         id="stop238" />
      <stop
         offset="0.52"
         stop-color="#FF9594"
         id="stop240" />
      <stop
         offset="1"
         stop-color="#FF8C1A"
         id="stop242" />
    </linearGradient>
  </defs>
</svg>
