<?xml version="1.0" encoding="UTF-8" standalone="no"?>
<svg
   xmlns:dc="http://purl.org/dc/elements/1.1/"
   xmlns:cc="http://creativecommons.org/ns#"
   xmlns:rdf="http://www.w3.org/1999/02/22-rdf-syntax-ns#"
   xmlns:svg="http://www.w3.org/2000/svg"
   xmlns="http://www.w3.org/2000/svg"
   xmlns:sodipodi="http://sodipodi.sourceforge.net/DTD/sodipodi-0.dtd"
   xmlns:inkscape="http://www.inkscape.org/namespaces/inkscape"
   width="303.8949"
   height="195.56186"
   viewBox="0 0 303.8949 195.56186"
   version="1.1"
   id="svg157"
   sodipodi:docname="3-mobile.svg"
   style="fill:none"
   inkscape:version="0.92.4 (5da689c313, 2019-01-14)">
  <metadata
     id="metadata163">
    <rdf:RDF>
      <cc:Work
         rdf:about="">
        <dc:format>image/svg+xml</dc:format>
        <dc:type
           rdf:resource="http://purl.org/dc/dcmitype/StillImage" />
        <dc:title></dc:title>
      </cc:Work>
    </rdf:RDF>
  </metadata>
  <defs
     id="defs161" />
  <sodipodi:namedview
     pagecolor="#ffffff"
     bordercolor="#666666"
     borderopacity="1"
     objecttolerance="10"
     gridtolerance="10"
     guidetolerance="10"
     inkscape:pageopacity="0"
     inkscape:pageshadow="2"
     inkscape:window-width="1920"
     inkscape:window-height="1017"
     id="namedview159"
     showgrid="false"
     inkscape:zoom="2.5189011"
     inkscape:cx="149.3086"
     inkscape:cy="82.271925"
     inkscape:window-x="-8"
     inkscape:window-y="-8"
     inkscape:window-maximized="1"
     inkscape:current-layer="svg157" />
  <path
     d="m 91.5039,183.97 c -3.5241,-0.091 -7.1352,-0.319 -10.5886,0.315 -7.4698,1.37 -17.6652,7.044 -25.3728,2.716 -9.113,-5.117 -2.9375,-10.09 3.4618,-11.93 3.9952,-1.149 8.3818,-0.844 12.2796,-2.285 4.536,-1.676 8.047,-5.299 12.4485,-7.268 6.2411,-2.792 13.9827,-2.635 20.7798,-2.089"
     id="path2"
     inkscape:connector-curvature="0"
     style="clip-rule:evenodd;fill:#d5f6e3;fill-rule:evenodd" />
  <path
     d="m 54.4141,177.005 0.4646,-0.255 c 2.3113,0.86 4.2525,2.574 5.6901,4.582 3.2868,-0.821 6.4131,-2.176 9.5484,-3.526 -0.0744,-0.083 -0.152,-0.188 -0.2316,-0.318 -0.8271,-1.34 -1.7947,-2.595 -2.9484,-3.678 l 0.9209,-0.149 c 1.1102,1.119 2.048,2.408 2.8622,3.776 0,0 0.0248,0.034 0.0494,0.088 3.533,-1.516 7.0927,-2.98 10.9225,-3.622 0.944,-0.158 1.8946,-0.256 2.8493,-0.31 -0.2992,-0.296 -0.6407,-0.914 -0.9959,-1.445 -1.0946,-1.635 -2.4117,-3.157 -4.0549,-4.211 l 0.667,-0.446 c 2.0406,1.395 3.6158,3.476 4.8668,5.636 0,0 0.1445,0.241 0.0806,0.439 1.7927,-0.071 3.598,-0.003 5.3965,0.084 0,0 0.7463,0.696 -0.0356,0.74 -0.2269,-0.011 -0.454,-0.022 -0.6806,-0.032 -4.3388,-0.192 -8.5633,0.103 -12.9559,1.642 -0.7643,0.268 -1.5239,0.554 -2.2801,0.85 -0.0061,0.089 -0.0205,0.191 -0.0446,0.307 -0.7267,3.431 -1.8574,6.783 -3.4755,9.889 l -1.0223,0.275 c 0.318,-0.598 0.7361,-1.297 1.0487,-1.959 1.227,-2.602 2.0789,-5.373 2.6869,-8.191 -2.9741,1.196 -5.9067,2.529 -8.8937,3.604 -0.0091,0.601 -0.2092,1.521 -0.4121,2.283 -0.5232,1.968 -1.345,3.863 -2.4947,5.545 l -0.3022,0.006 -0.5508,-0.042 0.0477,-0.058 c 1.5923,-2.191 2.4771,-4.825 2.9997,-7.482 -2.2403,0.771 -4.5154,1.382 -6.8648,1.668 -0.0365,0.097 -0.0874,0.194 -0.1459,0.275 -0.8728,1.185 -1.8938,2.275 -3.057,3.168 l -0.1277,-0.08 -0.4982,-0.395 c 1.1004,-0.796 2.062,-1.791 2.8887,-2.872 -1.7482,0.146 -3.498,0.133 -5.2459,0.025 -0.0949,-0.262 -0.1568,-0.521 -0.1816,-0.772 2.9574,0.188 5.9173,0.115 8.8814,-0.529 -1.4315,-1.913 -3.3625,-3.535 -5.666,-4.255 l -0.029,-0.04 z"
     id="path4"
     inkscape:connector-curvature="0"
     style="clip-rule:evenodd;fill:#a6e468;fill-rule:evenodd" />
  <path
     d="m 82.1979,131.227 c -5.4406,-2.792 -12.6415,-6.582 -15.2934,-12.52 -3.3923,-7.596 1.3327,-13.764 9.9189,-12.815 13.3024,1.469 19.8961,10.225 30.1702,17.285"
     id="path6"
     inkscape:connector-curvature="0"
     style="clip-rule:evenodd;fill:#a2f5d9;fill-rule:evenodd" />
  <path
     d="m 71.9983,160.842 c -12.1634,-9.665 -27.7465,-15.609 -37.2248,-28.306 -2.173,-2.91 -7.2591,-10.14 -9.6134,-12.96 5.8044,2.321 15.3596,3.693 18.077,3.844 8.7018,0.482 17.4286,-1.411 26.0738,-0.108 12.4514,1.875 23.1562,8.785 33.4472,15.65"
     id="path8"
     inkscape:connector-curvature="0"
     style="clip-rule:evenodd;fill:#a6e468;fill-rule:evenodd" />
  <path
     d="m 25.7388,120.318 -0.5787,-0.742 c 1.1479,0.459 2.4423,0.881 3.8044,1.247 8.1012,3.043 16.8798,4.623 24.3761,8.163 0.9374,0.442 1.8686,0.898 2.7942,1.365 0.0562,0.028 0.1125,0.056 0.1687,0.085 -1.3882,-2.538 -2.8784,-5.078 -4.9145,-7.104 l 0.9609,-0.053 c 2.0655,2.208 3.5967,4.938 5.0626,7.645 0,0 0.0136,0.037 0.0232,0.092 4.3054,2.234 8.4904,4.704 12.6153,7.284 -0.0752,-0.436 -0.107,-1 -0.1908,-1.52 -0.797,-4.941 -2.3036,-9.783 -5.2589,-13.87 l 0.9426,0.033 c 3.1009,4.543 4.5529,10.04 5.3412,15.685 0,0 -0.0063,0.08 -0.0405,0.17 2.9242,1.842 5.8204,3.735 8.7095,5.635 -0.0121,-0.284 -0.0065,-0.596 -0.0069,-0.89 -0.0089,-5.789 2.396,-11.64 0.5114,-17.322 l 0.4546,0.169 0.4164,0.173 c 1.6111,5.936 -0.991,12.455 -0.5951,18.297 0,0 0.0042,0.035 0.0034,0.088 2.0816,1.369 4.1606,2.74 6.2451,4.093 0,0 0.3243,0.986 -0.4038,0.622 -1.0732,-0.697 -2.1434,-1.398 -3.2123,-2.1 -0.0749,0.067 -0.1795,0.131 -0.32,0.186 -5.5782,2.224 -10.0044,6.823 -15.1855,9.741 l -0.1661,-0.118 -0.5179,-0.349 c 2.9159,-1.587 5.5734,-3.718 8.1747,-5.603 2.2984,-1.659 4.6827,-3.251 7.3158,-4.317 -2.4175,-1.59 -4.8283,-3.185 -7.2504,-4.76 -6.3614,1.937 -12.4259,4.961 -18.0876,8.362 l -0.6863,-0.434 c 5.1153,-3.044 10.5283,-5.655 16.1252,-7.794 0.1039,-0.04 0.208,-0.079 0.3121,-0.118 0.4903,-0.182 0.9826,-0.358 1.4794,-0.522 l 0.0511,-0.017 c -3.9863,-2.58 -8.0088,-5.1 -12.1473,-7.449 -0.5079,0.245 -1.4582,0.435 -2.2443,0.685 -4.3621,1.384 -8.5426,3.316 -12.4154,5.726 -0.8758,0.545 -1.735,1.119 -2.5642,1.745 l -0.6095,-0.488 c 3.8391,-2.956 8.3014,-5.08 12.875,-6.82 0.1034,-0.039 0.2068,-0.077 0.3103,-0.116 1.2435,-0.46 2.5001,-0.889 3.7828,-1.219 -2.7567,-1.543 -5.567,-3.006 -8.4543,-4.36 -0.9325,-0.437 -1.8775,-0.84 -2.8312,-1.215 -0.039,0.016 -0.081,0.031 -0.1271,0.044 -4.623,1.381 -8.3174,5.211 -13.0785,6.583 L 36.62,134.84 36.1934,134.308 c 4.4796,-1.178 8.1001,-4.737 12.4965,-6.371 0.0411,-0.015 0.084,-0.031 0.1278,-0.046 -5.5483,-2.055 -11.3479,-3.294 -16.6917,-5.136 -2.1578,-0.747 -4.2997,-1.524 -6.3872,-2.437 z"
     id="path10"
     inkscape:connector-curvature="0"
     style="clip-rule:evenodd;fill:#8bdc3a;fill-rule:evenodd" />
  <path
     d="m 86.0945,168.204 c -17.4694,2.246 -32.3305,0.427 -49.1236,-4.877 -2.2509,-0.71 -14.6221,-4.518 -15.66625,-6.345 -0.42539,-0.745 1.70548,-0.101 2.55962,-0.123 1.62883,-0.044 3.25513,-0.106 4.88223,-0.187 5.0973,-0.256 10.135,-0.658 15.1958,-1.312 19.8615,-2.567 26.1013,-4.602 46.3257,1.456"
     id="path12"
     inkscape:connector-curvature="0"
     style="clip-rule:evenodd;fill:#a9f0e9;fill-rule:evenodd" />
  <path
     d="m 62.0694,148.516 -0.0122,0.003 c -4.7855,-1.359 -7.8919,-2.848 -11.0133,-5.224 -1.0671,-0.812 -3.2424,-3.17 -3.3104,-4.892 -0.0317,-0.807 0.7467,-2.113 2.0758,-2.016 1.2717,0.091 2.3681,0.571 3.3713,1.31 2.0279,1.494 5.2537,4.995 9.5064,10.324 0.0227,0.01 0.0455,0.021 0.0678,0.031 1.5153,0.725 3.0699,1.38 4.6544,1.964 -2.2452,-1.97 -4.1916,-4.443 -4.8898,-7.362 -0.2752,-1.149 0.0847,-4.102 2.0097,-3.854 1.3125,0.169 2.4788,1.827 3.04,2.861 1.6579,3.055 2.6135,6.535 4.0358,9.707 l -0.0858,-0.013 c 2.2356,0.637 4.5149,1.141 6.8148,1.514 -1.7829,-1.717 -3.3128,-3.672 -4.1293,-6.012 -0.5071,-1.452 -0.9656,-3.549 0.3594,-4.77 1.1829,-1.091 2.8685,0.129 3.6927,0.99 2.1449,2.24 3.2449,5.669 3.7883,8.644 l -0.0112,1.606 c 0.0272,-0.002 0.0543,-0.004 0.0814,-0.006 l -0.0965,2.117 -0.0039,0.528 -0.0198,-0.015 -0.0204,0.451 c -3.8751,4.938 -6.6676,7.891 -8.7758,8.281 -2.6096,0.483 -3.2258,-1.249 -2.8387,-2.653 0.8529,-3.092 2.2996,-4.531 5.0116,-6.351 1.0495,-0.704 2.3757,-1.416 3.9786,-1.877 l -0.043,-0.038 c -2.702,-0.389 -5.3857,-0.948 -8.0023,-1.685 -1.7392,1.186 -3.3677,2.351 -5.3239,3.212 -1.4854,0.652 -3.0254,1.223 -4.636,1.466 -1.6431,0.248 -4.3895,0.279 -3.889,-1.995 0.0614,-0.278 0.1101,-0.7 0.3161,-0.925 1.2381,-1.352 3.5182,-1.927 5.252,-2.17 1.8956,-0.267 3.9006,-0.388 5.8497,-0.331 -2.3225,-0.767 -4.5775,-1.683 -6.7293,-2.753 0,0 -0.034,-0.025 -0.0752,-0.067 z"
     id="path14"
     inkscape:connector-curvature="0"
     style="clip-rule:evenodd;fill:#00988b;fill-rule:evenodd" />
  <ellipse
     cx="59.127098"
     cy="47.82"
     rx="44.957199"
     ry="44.904598"
     id="ellipse16"
     style="fill:#fff8e4" />
  <mask
     id="mask0"
     mask-type="alpha"
     maskUnits="userSpaceOnUse"
     x="0"
     y="14"
     width="90"
     height="91">
    <ellipse
       cx="44.957199"
       cy="59.713001"
       rx="44.957199"
       ry="44.904598"
       id="ellipse18"
       style="fill:#ffffff" />
  </mask>
  <g
     mask="url(#mask0)"
     id="g99"
     transform="translate(14.1699,-11.893)">
    <path
       d="m 32.7274,90.9919 c -6.5827,6.3374 -9.6542,11.2781 -16.1575,30.1491 -4.5268,13.137 -9.88806,25.748 -16.935134,33.939 5.999744,1.553 22.222134,0.555 30.111234,-4.769 2.111,-6.322 3.2222,-13.864 3.7776,-17.413 0.6941,3.773 1.9776,8.133 2.6972,10.447 0.3375,1.074 0.3328,2.226 -0.013,3.297 -2.3252,7.211 -11.3833,35.727 -11.3833,35.727 h 69.3752 c 0,0 -14.047,-26.281 -19.6906,-39.025 -0.3543,-0.817 -0.5046,-1.709 -0.4378,-2.597 0.2954,-4.071 0.5638,-9.069 0.5638,-9.069 0,0 3.6666,-5.546 4.222,-10.537 5,5.657 14.3336,14.53 19.3336,20.963 2.4443,-2.44 8.7773,-24.844 9.5553,-33.606 -3.444,-0.444 -8.7773,-0.999 -8.7773,-0.999 0,0 -9.0003,-1.798 -17.778,-8.2191 -8.7777,-6.4208 -12.5558,-9.5263 -22,-10.8573 -9.4446,-1.3306 -17.3748,-0.4692 -26.4633,2.5693 z"
       id="path21"
       inkscape:connector-curvature="0"
       style="clip-rule:evenodd;fill:#ffbf00;fill-rule:evenodd" />
    <path
       d="m 78.8565,121.243 c 2.8998,3.367 12.3365,13.061 14.3276,15.134 0,0 -12.8452,-20.979 -25.1724,-32.18 7.0004,8.23 11.0539,12.687 10.8448,17.046 z"
       id="path23"
       inkscape:connector-curvature="0"
       style="clip-rule:evenodd;fill:#ff8c1a;fill-rule:evenodd" />
    <path
       d="m 67.2725,49.4447 c 2.2044,3.0049 6.7233,4.3982 9.3131,8.9932 2.3789,4.2209 2.0429,8.3542 6.1389,11.0796 4.0959,2.7258 6.8772,0.0284 12.3136,5.537 -5.8882,0 -13.4072,3.2187 -18.0249,7.4717 -6.9738,6.4231 -11.264,7.8427 -16.8964,7.3316 C 54.4848,89.3467 31.543,76.4847 31.543,76.4847 l 33.0968,-28.4499 2.6594,1.4242"
       id="path25"
       inkscape:connector-curvature="0"
       style="clip-rule:evenodd;fill:#f20d59;fill-rule:evenodd" />
    <path
       d="m 81.9618,78.9295 c -2.9968,-2.3178 -6.9355,-3.3236 -10.1428,-5.73 -3.2312,-2.424 -6.1529,-5.7319 -6.389,-9.5247 -0.0215,-0.3401 0.1096,-0.6779 0.4933,-0.6714 0.5447,0.0755 0.4415,0.9039 0.5419,1.4439 0.8737,4.6887 5.407,8.2085 9.8222,10.3689 2.2487,1.1004 4.5837,2.0741 6.5351,3.6256 z"
       id="path27"
       inkscape:connector-curvature="0"
       style="clip-rule:evenodd;fill:#da0c51;fill-rule:evenodd" />
    <path
       d="M 88.5405,76.0987 C 84.5943,73.4883 79.4337,72.817 76.2381,69.0512 73.9063,66.3038 74.3147,62.1383 72.1048,58.8346 c -1.9514,-2.917 -4.9258,-4.9911 -7.9362,-6.6902 0,0 -0.47,-0.8806 0.2702,-0.8694 0.4527,0.0718 2.4218,1.3241 4.0591,2.5606 2.9208,2.2069 5.3141,5.2245 6.3171,8.7583 0.7715,2.7194 1.1897,5.4971 3.8463,7.417 3.3385,2.4124 7.5946,3.2827 11.0301,5.7678 z"
       id="path29"
       inkscape:connector-curvature="0"
       style="clip-rule:evenodd;fill:#da0c51;fill-rule:evenodd" />
    <path
       d="m 72.855,86.015 c -2.4755,-0.8526 -4.7218,-2.3495 -6.3073,-4.2219 -2.84,-3.354 -4.0073,-7.7418 -5.2413,-11.7755 0,0 -0.2273,-0.8903 0.4182,-0.8572 0.2697,0.0456 0.3047,0.0843 0.3953,0.3266 1.7605,5.7295 3.3296,11.9422 9.1156,14.7893 0.8238,0.4053 1.6811,0.7617 2.5698,1.0147 z"
       id="path31"
       inkscape:connector-curvature="0"
       style="clip-rule:evenodd;fill:#da0c51;fill-rule:evenodd" />
    <path
       d="m 68.9033,88.4098 c -2.9086,-0.8852 -5.3762,-3.1638 -6.872,-6.085 -1.3666,-2.67 -2.0452,-5.6229 -2.7546,-8.5529 0,0 -0.3912,-1.1517 0.3668,-1.1195 0.5928,0.0922 0.6422,1.3273 0.8751,2.2764 1.3022,5.2655 3.1686,10.8818 8.6078,12.6047 l 1.0338,0.2399 -0.1587,0.1002 z"
       id="path33"
       inkscape:connector-curvature="0"
       style="clip-rule:evenodd;fill:#da0c51;fill-rule:evenodd" />
    <path
       d="m 48.7332,78.1178 c 0.3183,2.5894 4.9804,9.6542 9.3513,11.2965 -3.0038,1.9535 -12.5372,6.8002 -25.3716,1.5906 1.1836,-1.6204 4.0638,-5.5656 5.5027,-7.5358 1.4384,-1.9703 1.661,-10.9933 1.661,-10.9933 0,0 8.5378,3.0526 8.8566,5.642 z"
       id="path35"
       inkscape:connector-curvature="0"
       style="clip-rule:evenodd;fill:#ffe6e6;fill-rule:evenodd" />
    <path
       d="m 41.3827,73.2558 c 2.4555,1.0021 7.1465,3.1597 7.3813,5.0666 0.1176,0.956 0.827,2.5214 1.8977,4.1963 -3.2708,-0.6127 -7.0331,-1.6111 -11.1734,-3.9382 0.1979,-1.6665 0.3071,-3.3647 0.364,-4.5164 0.5372,-0.3527 1.0632,-0.6159 1.5304,-0.8083 z"
       id="path37"
       inkscape:connector-curvature="0"
       style="clip-rule:evenodd;fill:#fecdcd;fill-rule:evenodd" />
    <path
       d="m 12.0815,74.259 c -0.3673,3.7075 -0.3193,8.6705 -1.7498,11.6512 -2.1063,4.3877 -3.93773,5.9414 -3.93773,5.9414 0,0 -8.93451,-4.4109 -20.56387,-5.1424 4.48847,-4.1076 5.76916,-9.5337 6.86783,-13.5557 C -6.20293,69.132 -3.29383,64.4672 2.65784,60.4452 8.60998,56.4233 7.13793,49.5031 13.0784,42.063 17.3368,36.7305 26.1957,31.1139 35.147,29.2401 c 2.1974,-2.8335 31.5912,8.3178 32.1406,20.2914 -6.1351,1.3711 -14.1017,-4.7119 -18.4968,-9.988 -0.604,5.4746 -2.0116,13.9825 -17.2595,19.8917 -1.8053,1.4433 -4.8227,2.4855 -7.9824,3.7447 2.1679,1.1592 5.3883,2.9458 9.6234,5.4685 9.9888,-1.1423 7.3285,18.7652 7.0083,20.8766 C 34.3914,87.9308 30.7603,88.726 26.367,90.4232 21.9732,92.1204 18.351,93.724 12.7503,93.4244 15.7504,87.7337 12.7153,79.4 12.0815,74.259 Z"
       id="path39"
       inkscape:connector-curvature="0"
       style="clip-rule:evenodd;fill:#f20d59;fill-rule:evenodd" />
    <path
       d="m 21.6255,92.2041 c 2.1241,-6.0356 -1.4678,-13.4247 -2.1203,-20.0437 -0.3136,-3.1769 0.2035,-6.3892 1.2219,-9.4208 0.0322,-0.0969 0.1008,-0.5199 0.5773,-0.4761 0.8527,0.2152 0.1643,1.1526 -0.0966,2.0835 -0.9801,3.4955 -1.0258,7.1393 -0.2366,10.8119 1.0837,5.0447 2.7821,10.1225 2.02,15.3671 l -0.2646,1.2937 z"
       id="path41"
       inkscape:connector-curvature="0"
       style="clip-rule:evenodd;fill:#da0c51;fill-rule:evenodd" />
    <path
       d="m 33.4624,88.6789 c 0.0332,-0.799 0.1125,-1.7933 0.0271,-2.7619 -0.4742,-5.3768 -3.9503,-10.2026 -4.8469,-15.0767 0,0 -0.001,-0.6504 0.5115,-0.6118 0.5134,0.1044 0.407,0.4566 0.4569,0.7045 0.8289,4.0192 3.2942,7.5633 4.2692,11.6361 0.4756,1.9861 0.694,4.0384 0.5656,6.0729 l -0.0961,-0.0046 z"
       id="path43"
       inkscape:connector-curvature="0"
       style="clip-rule:evenodd;fill:#da0c51;fill-rule:evenodd" />
    <path
       d="M -5.3125,87.8846 C -3.57302,83.1853 -3.15997,78.0387 -0.284942,74.006 3.03861,69.3435 7.29654,65.4115 10.0152,60.2421 c 3.4468,-6.5527 4.4997,-14.0049 8.7273,-19.8014 1.5098,-2.0708 3.2423,-3.9572 5.071,-5.7885 0.1885,-0.1892 0.2357,-0.4599 0.715,-0.3835 0.7668,0.2954 0.1288,0.8563 -0.3113,1.2999 -4.4582,4.5143 -7.6585,9.9363 -9.6528,16.0891 -1.3022,3.9856 -2.8741,7.8818 -5.12187,11.4891 -2.94316,4.7226 -7.5446,8.2475 -10.14939,13.299 -1.86643,3.6204 -2.29535,7.7779 -3.69366,11.6568 z"
       id="path45"
       inkscape:connector-curvature="0"
       style="clip-rule:evenodd;fill:#da0c51;fill-rule:evenodd" />
    <path
       d="m 5.625,91.4544 c 0.04061,-0.1449 0.15262,-0.3182 0.34491,-0.5316 2.95623,-3.3133 4.61079,-7.5757 4.88339,-12.064 0.3621,-6.2838 1.1056,-12.8047 5.2805,-17.771 4.5137,-5.3706 10.2544,-9.8883 12.939,-16.5667 1.8225,-4.533 2.6458,-9.4154 3.191,-14.2834 0,0 0.1521,-0.4938 0.6175,-0.3881 0.4125,0.198 0.2837,0.7315 0.231,1.189 -0.8494,7.1289 -2.3952,14.288 -6.6807,20.0733 -3.7833,5.107 -9.4152,8.9696 -12.0284,14.2727 -1.4441,2.9304 -1.9029,6.1837 -2.1964,9.4318 l -0.0971,-0.6005 c -0.2287,2.3061 -0.2964,5.0986 -0.6614,7.6064 -0.2445,1.4563 -0.5918,2.8484 -1.1411,4.1477 -0.86859,1.7969 -1.68816,3.1102 -2.36818,4.0182 -0.44665,0.6076 -0.94185,1.1936 -1.45478,1.756 l -0.09941,0.0475 z"
       id="path47"
       inkscape:connector-curvature="0"
       style="clip-rule:evenodd;fill:#da0c51;fill-rule:evenodd" />
    <path
       d="m 67.7446,64.6624 c 1.9383,0 3.5098,-1.5687 3.5098,-3.5035 0,-1.9354 -1.5715,-3.5036 -3.5098,-3.5036 h -5e-4 c -1.9383,0 -3.5097,1.5682 -3.5097,3.5036 0,1.9348 1.5714,3.5035 3.5097,3.5035 z"
       id="path49"
       inkscape:connector-curvature="0"
       style="clip-rule:evenodd;fill:#ffffff;fill-rule:evenodd" />
    <path
       d="m 31.5027,59.475 c -1.7773,-2.0699 -3.0767,-2.969 -6.4614,-2.5595 -3.3842,0.4095 -5.3328,4.1976 -4.7176,6.9616 0.6156,2.7641 3.4873,6.0397 6.4613,6.3467 2.974,0.3075 5.2306,-0.307 6.3587,-1.5355 1.5383,1.7405 8.9223,8.9067 16.5117,10.2372 7.589,1.331 12.7169,-3.7876 14.5633,-8.7017 1.8459,-4.9136 2.5707,-14.0034 1.2377,-20.4531 C 59.3027,42.912 48.322,38.1545 48.322,38.1545 c 0,0 -10.666,10.9808 -16.8193,21.3205 z"
       id="path51"
       inkscape:connector-curvature="0"
       style="clip-rule:evenodd;fill:#ffe6e6;fill-rule:evenodd" />
    <path
       d="m 28.6127,63.8845 c 0.1377,-1.1093 -0.197,-2.316 -0.6912,-2.861 -0.2362,-0.2917 -0.0719,-0.7902 0.3906,-0.7674 1.0035,0.1058 1.6882,2.2871 1.2774,3.852 0.604,0.1859 1.1785,0.4603 1.6928,0.8363 0,0 0.1998,0.1817 0.1905,0.396 -0.0332,0.7594 -1.5155,-0.2562 -2.7826,-0.4994 -0.8565,-0.1645 -1.7465,-0.1542 -2.5997,0.0223 0,0 -0.2693,0.0261 -0.4224,-0.1243 -0.4812,-0.4729 0.6488,-0.9556 1.8809,-0.9453 0.3552,0.0065 0.7118,0.0358 1.0637,0.0908 z"
       id="path53"
       inkscape:connector-curvature="0"
       style="clip-rule:evenodd;fill:#fecdcd;fill-rule:evenodd" />
    <path
       d="m 48.7691,39.6871 c -0.6039,5.4747 -2.0116,13.9828 -17.2595,19.8922 -3.6647,-5.0843 3.864,-24.3494 3.6157,-30.1959 2.9805,-4.0086 12.8536,-4.6427 19.1684,-2.5047 7.9544,2.6934 12.4228,10.8227 12.9722,22.7966 -6.1351,1.3712 -14.1017,-4.712 -18.4968,-9.9882 z"
       id="path55"
       inkscape:connector-curvature="0"
       style="clip-rule:evenodd;fill:#f20d59;fill-rule:evenodd" />
    <path
       d="m 45.8974,25.6746 c 3.6031,0.7659 7.0494,2.2856 10.1984,4.2247 3.4556,2.1277 6.5421,4.903 8.9634,8.1331 l 0.5526,1.5826 0.3949,1.4061 C 61.6041,33.8426 54.1047,28.5328 45.8614,26.6348 c -1.3217,-0.3043 -2.6673,-0.5139 -4.0255,-0.5791 1.2924,-0.2367 2.6716,-0.3639 4.0615,-0.3811 z"
       id="path57"
       inkscape:connector-curvature="0"
       style="clip-rule:evenodd;fill:#da0c51;fill-rule:evenodd" />
    <path
       d="m 42.8688,28.9511 c 3.252,2.9974 5.939,7.0739 5.6699,11.6657 l -0.0445,0.4647 c -0.3484,2.4618 -1.0418,5.3647 -3.0438,8.3008 -0.3104,0.03 -0.5739,-0.256 -0.1913,-1.027 2.0428,-4.1599 3.3706,-8.9272 1.2963,-13.2791 -1.527,-3.2042 -4.3045,-5.4518 -6.9151,-7.656 -0.0567,-0.0479 -0.1669,-0.1492 -0.6091,-0.6236 0,0 0.4108,-0.1368 0.6091,-0.1958 0.1922,-0.0575 0.5809,-0.1593 0.5809,-0.1593 7.8969,3.0775 15.3466,7.3939 20.994,13.4753 2.2148,2.3848 4.1732,4.9676 5.9347,7.6937 l 0.1271,1.8483 -0.045,0.0069 C 63.4924,43.453 58.7818,38.0077 52.9595,33.9893 49.5514,31.6371 45.8329,29.7557 41.9916,28.1691 Z"
       id="path59"
       inkscape:connector-curvature="0"
       style="clip-rule:evenodd;fill:#da0c51;fill-rule:evenodd" />
    <path
       d="m 38.4592,26.9968 c 0.1219,0.2795 0.1867,0.5844 0.2576,0.8504 1.9948,7.4855 -0.2716,15.7998 -2.6809,23.0114 -0.9595,2.8722 -1.7931,6.0356 -3.6203,8.2929 l -0.8238,0.3471 -0.3066,-0.5092 c 1.7637,-2.0062 2.6192,-4.8416 3.5779,-7.5843 2.3042,-6.5933 3.9835,-13.606 3.4402,-20.3283 -0.1013,-1.2533 -0.3005,-2.4862 -0.7061,-3.678 z"
       id="path61"
       inkscape:connector-curvature="0"
       style="clip-rule:evenodd;fill:#da0c51;fill-rule:evenodd" />
    <path
       d="m 37.3515,27.5673 c 2.7761,-3.1801 4.2594,-9.2386 0.5358,-12.2511 -4.2892,-3.4704 -10.8317,-4.2704 -16.6574,-2.5442 -4.636,1.3739 -10.6497,7.3145 -11.15,15.9009 -0.50083,8.5864 6.599,8.7225 9.8301,8.1774 3.2316,-0.5451 14.8997,-6.3716 17.4415,-9.283 z"
       id="path63"
       inkscape:connector-curvature="0"
       style="clip-rule:evenodd;fill:#f20d59;fill-rule:evenodd" />
    <path
       d="m 15.7277,16.3143 c 5.989,0.608 11.6495,4.9385 12.2637,11.16 0.2044,2.0733 0.2254,4.2103 -0.1032,6.2402 l -1.0258,0.5092 c 0.967,-5.1691 0.1428,-10.9592 -4.2085,-14.3043 -2.2127,-1.701 -4.9711,-2.6178 -7.7789,-2.7222 l 0.0159,-0.0186 z"
       id="path65"
       inkscape:connector-curvature="0"
       style="clip-rule:evenodd;fill:#da0c51;fill-rule:evenodd" />
    <path
       d="m 14.2191,17.8748 0.1307,0.0465 c 4.7242,2.0025 6.7381,7.9351 6.8623,12.6444 0.0537,2.0383 -0.1288,4.0724 -0.6198,6.0603 l -0.6506,0.1803 -0.3272,0.0378 0.0383,-0.2637 c 1.619,-6.5905 0.9077,-14.6854 -5.2834,-17.6299 -0.2903,-0.1384 -0.5101,-0.2614 -0.6702,-0.3788 l 0.4364,-0.5977 z"
       id="path67"
       inkscape:connector-curvature="0"
       style="clip-rule:evenodd;fill:#da0c51;fill-rule:evenodd" />
    <path
       d="m 13.0522,19.5219 c 2.8839,4.3785 3.6902,10.3484 2.2454,15.3182 -0.1775,0.609 -0.4032,1.2538 -0.7745,1.7633 -0.3178,-0.1061 -0.6308,-0.232 -0.9341,-0.3865 1.0088,-1.1679 1.1569,-2.9735 1.2263,-4.7058 0.1534,-3.8507 -0.4702,-7.9902 -2.3114,-11.1003 l 0.1292,-0.2381 z"
       id="path69"
       inkscape:connector-curvature="0"
       style="clip-rule:evenodd;fill:#da0c51;fill-rule:evenodd" />
    <path
       d="m 17.8485,14.546 1.7021,-0.0522 c 1.1169,0.006 2.2333,0.0573 3.3423,0.1826 0.3607,0.0405 0.7215,0.089 1.0804,0.1463 4.3644,0.697 8.7941,3.2813 10.0981,8.0115 0.6347,2.3029 0.5503,4.8001 0.2702,7.1836 l -0.378,0.2632 -0.576,0.3471 -0.0163,-0.273 C 33.8763,26.02 33.7465,21.0754 29.9446,18.1375 26.1548,15.2094 21.0068,15.2373 16.586,15.5206 l -0.0196,0.0019 c 0.4247,-0.3616 0.8555,-0.6914 1.2821,-0.9765 z"
       id="path71"
       inkscape:connector-curvature="0"
       style="clip-rule:evenodd;fill:#da0c51;fill-rule:evenodd" />
    <path
       d="m 26.1015,11.893 c 4.9646,0.4603 9.8825,2.5694 11.9795,7.3024 0.9367,2.1142 1.0202,4.5364 0.3999,6.7951 -0.3225,0.5651 -0.6902,1.0739 -1.0837,1.5248 L 36.8446,28.067 C 36.8063,27.9281 36.8301,27.7418 36.9468,27.4967 38.69,23.7486 38.115,19.1507 34.6519,16.1564 30.8234,12.8462 25.3034,12.3445 20.6035,12.9566 L 21.2756,12.72 c 1.5775,-0.4673 3.2078,-0.7497 4.8259,-0.827 z"
       id="path73"
       inkscape:connector-curvature="0"
       style="clip-rule:evenodd;fill:#da0c51;fill-rule:evenodd" />
    <path
       d="m 28.2837,73.5027 c 1.9383,0 3.5097,-1.5682 3.5097,-3.5036 0,-1.9348 -1.5714,-3.5035 -3.5097,-3.5035 h -5e-4 c -1.9383,0 -3.5098,1.5687 -3.5098,3.5035 0,1.9354 1.5715,3.5036 3.5098,3.5036 z"
       id="path75"
       inkscape:connector-curvature="0"
       style="clip-rule:evenodd;fill:#ffffff;fill-rule:evenodd" />
    <path
       d="m 39.5968,48.955 c 3.4304,-1.7974 8.0337,0.2013 10.2731,4.46 2.2393,4.2588 1.2727,9.1758 -2.1572,10.9732 -3.4304,1.7975 -8.0337,-0.2008 -10.2731,-4.4595 -2.2398,-4.2592 -1.2732,-9.1762 2.1572,-10.9737 z"
       id="path77"
       inkscape:connector-curvature="0"
       style="clip-rule:evenodd;fill:#f5fbfc;fill-rule:evenodd" />
    <path
       d="m 41.7629,54.1773 c 0.8779,-0.5013 2.2244,0.1971 3.0053,1.5589 0.7803,1.3618 0.7015,2.8746 -0.1765,3.3763 -0.8779,0.5013 -2.2248,-0.197 -3.0052,-1.5588 -0.7808,-1.3618 -0.702,-2.8751 0.1764,-3.3764 z"
       id="path79"
       inkscape:connector-curvature="0"
       style="clip-rule:evenodd;fill:#26acd8;fill-rule:evenodd" />
    <path
       d="m 56.9896,45.0703 c 3.1555,-1.4265 7.3155,0.9374 9.2832,5.2758 1.9672,4.3379 1.0025,9.0183 -2.153,10.4444 -3.156,1.4261 -7.3159,-0.9378 -9.2832,-5.2758 -1.9677,-4.3384 -1.003,-9.0183 2.153,-10.4444 z"
       id="path81"
       inkscape:connector-curvature="0"
       style="clip-rule:evenodd;fill:#f5fbfc;fill-rule:evenodd" />
    <path
       d="m 57.9292,50.4752 c 0.7435,-0.382 1.8912,0.362 2.5609,1.6609 0.6702,1.2985 0.6105,2.6631 -0.133,3.0456 -0.7435,0.382 -1.8912,-0.3621 -2.5609,-1.661 -0.6702,-1.2989 -0.6105,-2.6635 0.133,-3.0455 z"
       id="path83"
       inkscape:connector-curvature="0"
       style="clip-rule:evenodd;fill:#26acd8;fill-rule:evenodd" />
    <path
       d="m 59.0165,44.6547 c 4.9337,0.0941 8.9494,6.0151 8.1998,11.4647 -0.3449,2.5107 -2.223,5.074 -5.0303,5.0866 -4.9902,0.0219 -9.0736,-6.1349 -8.2676,-11.556 0.3641,-2.4506 2.0835,-4.9143 4.9375,-4.9944 0.0803,-9e-4 0.0803,-9e-4 0.1606,-9e-4 z m -0.1419,0.9327 c -2.5091,0.0694 -4.1422,2.936 -4.1179,5.4696 0.0527,5.5963 6.1182,12.0573 10.0845,8.1238 3.9811,-3.9489 0.007,-13.6666 -5.9666,-13.5934 z"
       id="path85"
       inkscape:connector-curvature="0"
       style="clip-rule:evenodd;fill:#66c5e4;fill-rule:evenodd" />
    <path
       d="m 53.2949,51.6748 c 0.9638,2.8066 4.5781,5.7985 7.0205,6.9581 2.0363,0.9672 0.5843,4.0938 -3.0267,4.8369"
       id="path87"
       inkscape:connector-curvature="0"
       style="clip-rule:evenodd;fill:#ffe6e6;fill-rule:evenodd" />
    <path
       d="m 53.3667,51.1549 c 0.6063,0.0638 0.7832,1.2602 1.3302,2.0471 1.4842,2.1347 3.5966,3.8455 5.9218,4.9841 0,0 0.9362,0.4976 1.1033,1.4093 0.3603,1.9642 -1.9233,3.7598 -4.2038,4.2574 -0.5661,0.1234 -1.0608,-0.717 -0.1213,-0.9281 2.2697,-0.5372 4.5515,-2.9957 2.8003,-3.9074 -3.1648,-1.5496 -6.1141,-4.0566 -7.2468,-7.1031 -0.1293,-0.3475 0.0145,-0.7617 0.4163,-0.7593 z"
       id="path89"
       inkscape:connector-curvature="0"
       style="clip-rule:evenodd;fill:#fdb3b3;fill-rule:evenodd" />
    <path
       d="m 36.2899,56.8324 c -0.464,-2.5759 0.1199,-5.2236 2.1698,-7.0652 1.0781,-0.9686 2.5371,-1.4844 3.9956,-1.4723 3.9606,0.0876 7.0527,3.4155 8.1849,6.9493 1.4147,-0.7692 3.0743,-1.106 4.6817,-1.1149 0.1167,0.1388 0.4915,0.5586 0.6973,0.7687 -1.8855,-9e-4 -3.8472,0.5344 -5.1279,1.2766 0.1041,0.4738 0.1718,0.9462 0.2003,1.4107 0.2184,3.5832 -2.1498,7.8769 -6.7092,7.4315 -3.8435,-0.376 -6.8716,-3.6391 -7.8807,-7.2614 -0.0424,0.0023 -0.0863,0.0037 -0.1325,0.0042 -1.9803,0.0237 -3.8827,0.2292 -5.821,0.6527 -0.0135,-0.0038 -0.4112,-0.3932 -0.8275,-0.6835 1.2779,-0.4584 4.3895,-0.8465 6.5692,-0.8964 z m 5.9997,-7.6061 c -1.5663,0.0312 -3.0781,0.806 -3.991,2.1305 -2.4246,3.5165 -0.7383,9.1604 3.1705,11.6496 2.3364,1.4881 5.7958,1.6036 7.6057,-1.0212 3.1696,-4.597 -0.7295,-12.6271 -6.634,-12.7589 -0.0756,-5e-4 -0.0756,-5e-4 -0.1512,0 z"
       id="path91"
       inkscape:connector-curvature="0"
       style="clip-rule:evenodd;fill:#66c5e4;fill-rule:evenodd" />
    <path
       d="m 45.4805,67.5356 c 4.7951,0.5996 8.2423,0.6471 12.406,0.2599 -0.6702,2.9734 -2.8396,5.465 -6.5262,5.3532 -3.5364,-0.1067 -5.6899,-2.9473 -5.8798,-5.6131 z"
       id="path93"
       inkscape:connector-curvature="0"
       style="clip-rule:evenodd;fill:#fecdcd;fill-rule:evenodd" />
    <path
       d="m 46.3192,70.1391 c -0.4929,-0.8029 -0.7753,-1.713 -0.8387,-2.6035 2.6701,0.3336 4.9225,0.4967 7.1045,0.4925 l 0.7201,0.3202 c -3.2232,0.3863 -5.2992,1.0513 -6.9859,1.7908 z"
       id="path95"
       inkscape:connector-curvature="0"
       style="clip-rule:evenodd;fill:#fdb3b3;fill-rule:evenodd" />
    <path
       d="m 45.6009,67.0173 c 0.2208,0.027 0.4415,0.054 0.6623,0.0801 3.8467,0.4459 7.7598,0.5339 11.6438,0.1784 0,0 0.6143,0.103 0.4458,0.7855 -0.9675,3.7877 -5.0477,6.585 -9.0713,5.089 -2.2543,-0.8386 -3.9317,-3.0269 -4.1856,-5.4342 -0.0397,-0.3722 0.1134,-0.7282 0.505,-0.6988 z m 0.4817,1.0044 c 0.8041,4.2313 7.5357,6.6446 10.477,1.9363 0.4005,-0.6401 0.7678,-1.6959 0.7678,-1.6959 -0.2287,0.0191 -0.4579,0.0364 -0.6875,0.0536 -3.4864,0.2455 -7.0009,0.1109 -10.4854,-0.293 0,0 -0.0761,-0.0247 -0.0719,-0.001 z"
       id="path97"
       inkscape:connector-curvature="0"
       style="clip-rule:evenodd;fill:#fdb3b3;fill-rule:evenodd" />
  </g>
  <path
     d="m 274.6459,109.768 c 19.383,-10.941 24.392,-37.3401 24.538,-49.2398 0.148,-12.0891 3.164,-21.3297 4.595,-24.4436 -2.408,0.8223 -7.588,6.4302 -9.658,7.9871 -5.117,3.8469 -8.442,6.0663 -12.372,11.2123 -3.393,4.4425 -5.625,9.5264 -8.792,14.0942 -5.681,8.1963 -13.879,14.1674 -18.944,22.9078 -2.498,4.311 -3.539,9.456 -4.889,14.204"
     id="path101"
     inkscape:connector-curvature="0"
     style="clip-rule:evenodd;fill:#a6e468;fill-rule:evenodd" />
  <path
     d="m 299.2229,58.885 0.056,-1.3448 c -3.456,3.0068 -7.405,5.45 -11.653,7.1713 0.201,-0.412 0.403,-0.8204 0.606,-1.2247 0.91,-1.8157 1.855,-3.612 2.83,-5.3928 0.099,-0.0446 0.194,-0.1747 0.273,-0.4367 0.012,-0.0418 0.024,-0.0835 0.036,-0.1259 1.464,-2.656 2.991,-5.2794 4.553,-7.8831 0.457,-0.0343 0.973,-0.4118 1.487,-0.665 1.118,-0.5531 2.154,-1.2581 3.139,-2.0228 l 0.289,-1.4393 -0.284,0.1886 c -1.165,0.9088 -2.377,1.748 -3.71,2.4115 l 5.877,-9.4678 c 0.379,-1.1375 0.74,-2.0344 1.033,-2.6733 l -0.832,0.42 -0.849,1.372 c -3.426,5.4968 -6.86,10.954 -10.061,16.5706 0.441,-3.1556 0.47,-6.444 1.183,-9.6666 l 0.006,-0.0383 -1.199,0.8981 -0.003,0.0187 c -0.64,3.8635 -0.516,7.8863 -1.583,11.6399 -1.475,2.6857 -2.888,5.4144 -4.214,8.207 -0.02,0.0315 -0.037,0.0657 -0.049,0.1028 -0.259,0.545 -0.513,1.0929 -0.765,1.6433 -1.087,2.3843 -2.159,4.7866 -3.257,7.1766 0.072,-6.0999 -2.146,-12.2126 -1.125,-18.1503 l -0.504,0.6993 -0.676,1.0345 c -0.371,6.2102 1.97,12.8306 1.112,18.9277 0,0 -0.004,0.0233 -0.005,0.0609 -4.847,10.2559 -10.464,20.0616 -20.164,26.8956 0,0 -0.311,0.102 -0.198,0.538 0.212,0.827 1.694,-0.337 2.922,-1.315 2.085,-1.659 3.985,-3.511 5.734,-5.506 0.01,0 0.021,-0.001 0.031,-0.001 5.658,-0.698 11.314,-1.64 16.342,-4.417 0.032,-0.017 0.281,-0.05 0.381,-0.403 0.085,-0.483 -0.302,-0.786 -1.131,-0.338 -4.48,2.387 -9.586,3.36 -14.654,4.021 1.283,-1.551 2.484,-3.178 3.615,-4.859 0.133,-0.023 0.292,-0.062 0.481,-0.122 6.456,-2.053 12.414,-5.6668 17.563,-10.0151 0,0 0.089,0.0028 0.167,-0.2759 0.086,-0.5132 -0.323,-0.905 -1.247,-0.1362 -4.818,3.9848 -10.253,7.2802 -16.104,9.2422 2.611,-4.0617 4.855,-8.3974 6.929,-12.7075 0.149,-0.052 0.273,-0.1855 0.323,-0.4169 0.017,-0.1193 0.034,-0.2389 0.049,-0.3584 1.754,-3.6771 3.394,-7.3226 5.042,-10.7511 0.689,-0.1489 1.677,-0.5935 2.563,-0.9942 3.473,-1.572 6.72,-3.6213 9.645,-6.0919 z"
     id="path103"
     inkscape:connector-curvature="0"
     style="clip-rule:evenodd;fill:#8bdc3a;fill-rule:evenodd" />
  <path
     d="m 240.3029,62.3001 c -4.411,-12.7389 -26.011,-35.8039 -33.521,-39.0443 -5.596,9.125 -10.816,22.3695 -9.102,34.5539 3.316,0.1363 7.46,0.1964 12.27,0.5674 -3.396,1.6495 -7.386,3.5092 -11.867,4.7525 -0.442,3.8751 2.095,10.6971 6.282,20.6966"
     id="path105"
     inkscape:connector-curvature="0"
     style="clip-rule:evenodd;fill:#d5f6e3;fill-rule:evenodd" />
  <path
     d="m 206.7179,23.4825 c 0.034,0.3848 0.273,0.8671 0.425,1.3338 1.617,4.9672 4.462,9.4674 5.964,14.5279 0.014,0.0492 0.029,0.0983 0.043,0.147 -4.343,-0.538 -8.604,-1.6111 -12.355,-3.7593 l -0.296,0.8159 c 0.624,0.4274 1.585,0.8867 2.428,1.2584 3.257,1.4378 6.783,2.1558 10.338,2.5815 0,0 0.05,-0.0355 0.118,-0.0922 0.969,3.3865 1.765,6.8217 2.587,10.2394 -0.075,0.0141 -0.149,0.0325 -0.218,0.0469 -6.003,1.2246 -12.407,0.8501 -18.137,-1.2668 l -0.073,0.9054 c 5.918,2.1125 12.604,2.4722 18.617,1.1697 0,0 0.005,-0.0033 0.015,-0.0095 0.133,0.548 0.267,1.0961 0.402,1.6429 1.281,5.1861 2.427,10.406 3.187,15.6852 -0.402,-0.3717 -2.129,0.5644 -3.615,1.1376 -5.055,1.9506 -10.391,3.1708 -15.783,3.5977 l 0.144,0.4218 0.164,0.4351 c 6.518,-0.5503 12.96,-2.2393 18.92,-4.9562 0,0 0.157,-0.0911 0.225,-0.2493 0.203,1.45 0.378,2.9043 0.517,4.3642 0,0 0.091,0.3303 0.341,0.3856 0.465,0.1034 0.518,-0.6267 0.456,-1.233 -0.286,-2.7651 -0.7,-5.5023 -1.2,-8.227 0.373,-0.1275 0.834,-0.3886 1.262,-0.6416 5.267,-3.1167 9.811,-7.5294 12.967,-12.7631 l -0.56,-0.7789 c -3.308,5.6095 -8.245,10.3272 -13.827,13.3379 -1.142,-6.0149 -2.681,-11.9744 -4.161,-18.0385 0.023,-0.0176 0.044,-0.0372 0.065,-0.06 2.466,-2.9373 4.447,-6.2116 5.872,-9.7879 l -0.662,-0.6895 c -1.314,3.4251 -3.183,6.6063 -5.529,9.4887 l -0.014,-0.0575 c -0.683,-2.8039 -1.381,-5.6218 -2.396,-8.3282 -0.118,-0.315 -0.24,-0.6278 -0.367,-0.9393 0.494,-0.3831 1.09,-1.6646 1.517,-2.8172 0.373,-1.0094 0.688,-2.0434 0.902,-3.0972 l -0.346,-0.32 -0.355,-0.3063 c -0.371,2.0528 -1.071,4.0362 -2.066,5.7074 -1.523,-3.5409 -3.453,-6.9175 -4.512,-10.6243 l -0.852,-0.4531 z"
     id="path107"
     inkscape:connector-curvature="0"
     style="clip-rule:evenodd;fill:#a6e468;fill-rule:evenodd" />
  <path
     d="m 266.3969,69.2509 0.746,2.1292 c 3.502,-1.2567 8.383,-3.2673 10.71,-5.0826 1.381,-1.0783 2.699,-2.9121 1.926,-4.3227 -0.756,-1.3766 -2.101,-1.208 -4.037,-0.6714 -2.155,0.5975 -4.734,2.1913 -7.051,4.1695 0.814,-1.8007 1.569,-3.6224 2.279,-5.4585 3.737,-1.7684 8.298,-3.561 11.601,-5.8744 1.474,-1.0329 3.497,-3.0403 3.68,-4.9427 0.224,-2.3194 -2.519,-2.9441 -4.341,-2.1842 -2.022,0.8444 -3.993,2.0171 -5.556,3.6133 -1.025,1.0476 -2.208,2.3484 -3.274,3.5287 0.686,-2.0365 1.333,-4.0838 1.955,-6.1334 0,0 0.036,-0.0962 0.05,-0.2244 1.801,-3.4186 3.747,-7.1358 4.469,-10.5873 0.354,-1.6921 0.74,-5.5699 -0.779,-6.8425 -1.775,-1.486 -4.446,1.576 -5.066,3.2475 -1.738,4.6882 -1.186,9.729 0.052,14.4409 -0.583,1.9177 -1.187,3.825 -1.824,5.7161 -0.509,-2.3644 -1.134,-4.5459 -2.177,-6.0255 -0.604,-0.8581 -1.667,-1.5905 -2.809,-0.9899 -1.112,0.5852 -1.343,2.7099 -1.209,3.7694 0.558,4.4414 2.456,6.8547 4.024,9.2548 -0.681,1.7485 -1.401,3.4774 -2.173,5.1833 -1.052,-3.0229 -2.962,-7.169 -4.881,-5.5008 -2.127,1.8492 2.026,8.1708 2.46,10.8076 z"
     id="path109"
     inkscape:connector-curvature="0"
     style="clip-rule:evenodd;fill:#00988b;fill-rule:evenodd" />
  <path
     d="m 234.7339,34.6325 38.687,0.8936 -33.726,-19.6386 -40.33,-0.5104 z"
     id="path111"
     inkscape:connector-curvature="0"
     style="clip-rule:evenodd;fill:#bdf3ef;fill-rule:evenodd" />
  <path
     d="m 234.7469,34.6352 -35.369,-19.255 -11.647,49.9131 34.061,21.1144 z"
     id="path113"
     inkscape:connector-curvature="0"
     style="clip-rule:evenodd;fill:#7ee8df;fill-rule:evenodd" />
  <path
     d="m 260.5009,82.3754 -38.732,4.0177 12.954,-51.7725 38.687,0.8936 z"
     id="path115"
     inkscape:connector-curvature="0"
     style="clip-rule:evenodd;fill:#d2f7f4;fill-rule:evenodd" />
  <path
     d="m 260.3709,35.1763 -34.512,-19.453 -10.091,-0.1321 33.445,19.3224 z"
     id="path117"
     inkscape:connector-curvature="0"
     style="clip-rule:evenodd;fill:#3bddce;fill-rule:evenodd" />
  <path
     d="m 249.2149,34.9143 -12.897,49.9428 11.363,-1.1786 12.692,-48.506"
     id="path119"
     inkscape:connector-curvature="0"
     style="clip-rule:evenodd;fill:#7ee8df;fill-rule:evenodd" />
  <path
     d="m 259.6479,27.4907 -37.567,0.2403 -9.1,-4.9538 38.578,0.0027 z"
     id="path121"
     inkscape:connector-curvature="0"
     style="clip-rule:evenodd;fill:#3bddce;fill-rule:evenodd" />
  <path
     d="m 222.0809,27.6948 -13.119,50.7093 -8.692,-5.3882 12.712,-50.2748 z"
     id="path123"
     inkscape:connector-curvature="0"
     style="clip-rule:evenodd;fill:#26d8c8;fill-rule:evenodd" />
  <path
     d="m 236.3479,26.6634 c 7.053,1.229 31.662,-15.2028 23.499,-23.7009 -7.746,-8.06361 -21.566,14.2284 -23.499,23.7009 z m 19.407,-18.5996 c -1.547,-2.1691 -10.183,0.6167 -17.884,17.3958 6.244,-1.4034 20.149,-14.2182 17.884,-17.3958 z"
     id="path125"
     inkscape:connector-curvature="0"
     style="clip-rule:evenodd;fill:#00b2a3;fill-rule:evenodd" />
  <path
     d="m 236.5399,26.5042 c -9.236,-1.4228 -18.543,-23.6437 -7.576,-23.8478 7.515,-0.1403 9.6,17.2168 7.576,23.8478 z m -7.585,-18.8919 c 1.382,0.1443 7.569,5.6776 7.021,17.5872 -6.263,-3.2674 -11.701,-18.0768 -7.021,-17.5872 z"
     id="path127"
     inkscape:connector-curvature="0"
     style="clip-rule:evenodd;fill:#00b2a3;fill-rule:evenodd" />
  <path
     d="m 175.0379,90.696 -0.811,-46.0745 -32.118,-8.5063 3.939,40.998 z"
     id="path129"
     inkscape:connector-curvature="0"
     style="clip-rule:evenodd;fill:#ff9abb;fill-rule:evenodd" />
  <path
     d="m 204.7859,73.9368 -29.786,16.7622 -0.811,-46.0749 31.04,-12.5632 z"
     id="path131"
     inkscape:connector-curvature="0"
     style="clip-rule:evenodd;fill:#ffcadc;fill-rule:evenodd" />
  <path
     d="m 205.2179,31.9124 -31.157,-8.0122 -32,12.0692 32.117,8.5065 z"
     id="path133"
     inkscape:connector-curvature="0"
     style="clip-rule:evenodd;fill:#ff98ba;fill-rule:evenodd" />
  <path
     d="m 174.1639,44.4655 0.224,12.7385 -31.283,-10.1835 -1.059,-11.0616 z"
     id="path135"
     inkscape:connector-curvature="0"
     style="clip-rule:evenodd;fill:#ff82ab;fill-rule:evenodd" />
  <path
     d="m 174.1809,44.4635 31.034,-12.6632 -0.112,11.3343 -30.69,14.1878 z"
     id="path137"
     inkscape:connector-curvature="0"
     style="clip-rule:evenodd;fill:#ffb2cb;fill-rule:evenodd" />
  <path
     d="m 192.5709,28.7159 -29.308,12.9245 -9.32,-2.4686 29.602,-12.7764 z"
     id="path139"
     inkscape:connector-curvature="0"
     style="clip-rule:evenodd;fill:#ff6699;fill-rule:evenodd" />
  <path
     d="m 163.2979,41.641 0.354,17.7981 -4.818,-5.2172 -3.761,1.9723 -1.095,-17.0218 z"
     id="path141"
     inkscape:connector-curvature="0"
     style="clip-rule:evenodd;fill:#ff3377;fill-rule:evenodd" />
  <path
     d="m 155.2279,31.0121 29.004,9.4043 0.637,17.9976 4.969,-5.8913 4.268,1.379 -0.484,-17.2859 -28.807,-9.2196 z"
     id="path143"
     inkscape:connector-curvature="0"
     style="clip-rule:evenodd;fill:#ff6699;fill-rule:evenodd" />
  <path
     d="m 172.6949,34.022 c -4.438,0.804 -20.307,-12.3038 -15.303,-18.6698 4.75,-6.0408 13.904,11.3555 15.303,18.6698 z m -12.62,-14.6705 c 0.938,-1.6354 6.452,0.6752 11.634,13.7156 -3.975,-1.2014 -13.008,-11.3195 -11.634,-13.7156 z"
     id="path145"
     inkscape:connector-curvature="0"
     style="clip-rule:evenodd;fill:#f53d7b;fill-rule:evenodd" />
  <path
     d="m 172.7159,33.6405 c 9.515,-0.1348 20.937,-25.7749 9.805,-27.9393 -7.628,-1.4827 -11.279,19.4501 -9.805,27.9393 z m 9.377,-21.8566 c -1.418,-0.0639 -8.195,5.6459 -8.69,20.3537 6.657,-2.9162 13.492,-20.1381 8.69,-20.3537 z"
     id="path147"
     inkscape:connector-curvature="0"
     style="clip-rule:evenodd;fill:#f53d7b;fill-rule:evenodd" />
  <path
     d="m 80.0683,150.573 c 0,29.151 10.4923,36.684 20.8536,41.179 10.3613,4.496 30.902,3.766 38.397,3.766 0,0 94.719,-1.429 123.359,-1.429 28.639,0 41.217,-17.043 41.217,-40.676 v -44.864 c 0,-30.5016 -11.537,-44.1583 -60.966,-42.6208"
     id="path149"
     inkscape:connector-curvature="0"
     style="clip-rule:evenodd;fill:#d6edf5;fill-rule:evenodd" />
  <path
     d="m 260.4149,186.69 h -0.009 l 0.009,0.5 c -0.005,-0.262 -0.007,-0.387 -0.008,-0.446 -0.001,-0.054 -0.001,-0.054 -0.002,-0.054 h -0.003 -0.014 l -0.055,0.001 -0.218,0.004 -0.854,0.015 c -0.75,0.012 -1.853,0.031 -3.268,0.054 -2.828,0.047 -6.9,0.114 -11.875,0.193 -9.95,0.157 -23.509,0.363 -37.951,0.557 -28.887,0.387 -61.29,0.727 -75.39,0.534 -14.095,-0.193 -26.742,-1.962 -35.8607,-7.967 -9.071,-5.973 -14.7404,-16.203 -14.7404,-33.561 v -40.998 c 0,-16.335 3.5118,-26.5186 11.8161,-32.4016 8.3528,-5.9173 21.6849,-7.5907 41.63,-6.493 14.326,0.7887 54.233,0.4301 82.486,0.1762 10.577,-0.095 19.52,-0.1754 24.877,-0.1754 19.348,0 33.933,1.5125 43.681,7.1148 4.856,2.7904 8.513,6.5973 10.962,11.758 2.453,5.17 3.707,11.724 3.707,20.021 0,5.159 0.025,10.247 0.049,15.291 0.048,9.956 0.096,19.739 -0.049,29.565 -0.201,13.734 -4.342,22.776 -11.162,28.399 -6.837,5.638 -16.455,7.913 -27.758,7.913 z"
     id="path151"
     inkscape:connector-curvature="0"
     style="fill:#ffffff;stroke:#d6edf5" />
</svg>
