<svg width="172" height="167" viewBox="0 0 172 167" fill="none" xmlns="http://www.w3.org/2000/svg">
<path d="M162 77.7623C162 119.793 127.972 153.863 86 153.863C44.0276 153.863 10 119.793 10 77.7623C10 35.7318 44.0276 1.66162 86 1.66162C127.972 1.66162 162 35.7318 162 77.7623Z" stroke="#F6F6F6" stroke-width="2"/>
<path d="M85.5385 137.96C118.421 137.96 145.077 111.269 145.077 78.3436C145.077 45.4184 118.421 18.7273 85.5385 18.7273C52.6563 18.7273 26 45.4184 26 78.3436C26 111.269 52.6563 137.96 85.5385 137.96Z" fill="#FA848B"/>
<path fill-rule="evenodd" clip-rule="evenodd" d="M43.5181 155.855C43.5181 155.855 32.5398 159.727 12.8792 166.661C14.7241 156.13 17.947 147.522 17.947 147.522L0 139.791L25.4665 129.311L43.5181 155.855Z" fill="#DF0001"/>
<path fill-rule="evenodd" clip-rule="evenodd" d="M40.9858 151.249L43.0265 156.228L33.7471 153.395L40.9858 151.249Z" fill="#CC0001"/>
<path fill-rule="evenodd" clip-rule="evenodd" d="M128.482 155.855C128.482 155.855 139.46 159.727 159.121 166.661C156.566 154.424 154.053 147.522 154.053 147.522L172 139.791L146.534 129.311L128.482 155.855Z" fill="#DF0001"/>
<path fill-rule="evenodd" clip-rule="evenodd" d="M131.107 151.249L128.995 156.228L138.275 153.395L131.107 151.249Z" fill="#CC0001"/>
<path fill-rule="evenodd" clip-rule="evenodd" d="M85.9993 146.238C74.6939 146.238 61.0323 147.102 33.3855 153.616C33.3855 153.616 27.1923 137.533 22.853 125.529C42.8756 120.251 64.9501 117.485 85.9993 117.485C107.048 117.485 120.985 118.954 149.147 125.529C147.059 130.876 138.614 153.616 138.614 153.616C111.341 146.927 97.3059 146.238 85.9993 146.238Z" fill="#F61D2A"/>
<path d="M39.8723 140.874L38.3549 132.248C39.3122 132.028 40.1844 131.849 40.9692 131.711C41.9268 131.543 42.6865 131.607 43.2451 131.904C43.8048 132.202 44.1434 132.686 44.2609 133.355C44.4101 134.206 44.193 134.908 43.6096 135.463L43.6141 135.488C44.0106 135.562 44.3519 135.75 44.6391 136.048C44.9253 136.347 45.1135 136.748 45.2017 137.253C45.3542 138.12 45.1656 138.839 44.6359 139.409C44.1127 139.969 43.3598 140.337 42.376 140.51C41.2282 140.711 40.3929 140.832 39.8723 140.874ZM42.0113 136.906L41.2429 137.042L41.5287 138.665C41.7192 138.683 41.9456 138.668 42.2101 138.622C42.9786 138.486 43.3091 138.114 43.2018 137.503C43.1103 136.981 42.7131 136.783 42.0113 136.906ZM41.2718 133.574C41.1231 133.6 40.9188 133.654 40.6599 133.733L40.9378 135.307L41.5937 135.192C42.2058 135.083 42.4622 134.749 42.3628 134.187C42.321 133.948 42.1963 133.774 41.99 133.665C41.7837 133.557 41.544 133.527 41.2718 133.574Z" fill="white"/>
<path d="M52.7985 136.595L53.7756 137.978C53.5543 138.317 53.1949 138.619 52.6996 138.886C52.2119 139.144 51.6734 139.315 51.0841 139.402C49.7306 139.598 48.5716 139.349 47.6048 138.651C46.6358 137.935 46.0534 136.905 45.8567 135.561C45.6656 134.25 45.9066 133.113 46.5796 132.149C47.2538 131.186 48.3119 130.599 49.7561 130.389C50.305 130.309 50.8269 130.317 51.3242 130.415C51.8215 130.512 52.2317 130.676 52.5536 130.909L51.8875 132.532C51.2546 132.26 50.6348 132.168 50.0291 132.256C49.3239 132.359 48.772 132.678 48.3756 133.209C47.9857 133.732 47.8516 134.414 47.9733 135.252C48.0848 136.015 48.4229 136.615 48.9867 137.05C49.547 137.468 50.2186 137.621 50.9981 137.507C51.6957 137.405 52.2958 137.102 52.7985 136.595Z" fill="white"/>
<path d="M59.906 138.522L54.5939 139.141L53.5737 130.393L58.7611 129.788L58.9794 131.662L55.7919 132.034L55.9712 133.571L58.7836 133.244L59.0019 135.118L56.1906 135.446L56.3755 137.033L59.6877 136.647L59.906 138.522ZM53.4995 128.665C53.4651 128.373 53.5523 128.126 53.7613 127.92C53.9691 127.713 54.2529 127.59 54.6105 127.547C54.9276 127.511 55.207 127.571 55.4486 127.729C55.6912 127.886 55.8292 128.106 55.8614 128.391C55.8982 128.707 55.8176 128.974 55.6197 129.191C55.4207 129.409 55.1632 129.536 54.8471 129.573C54.4885 129.614 54.1839 129.554 53.9325 129.394C53.6821 129.233 53.5374 128.99 53.4995 128.665ZM56.3863 128.329C56.353 128.038 56.4424 127.788 56.6546 127.582C56.8668 127.375 57.1485 127.252 57.4984 127.211C57.8144 127.174 58.0937 127.235 58.3364 127.392C58.578 127.549 58.716 127.771 58.7493 128.054C58.7861 128.37 58.7066 128.637 58.513 128.854C58.3184 129.071 58.0587 129.198 57.7339 129.236C57.3752 129.277 57.0708 129.219 56.8204 129.057C56.5689 128.897 56.4242 128.653 56.3863 128.329Z" fill="white"/>
<path d="M62.8683 138.056L62.1579 129.327C63.1321 129.197 64.0167 129.1 64.8108 129.036C65.7809 128.957 66.53 129.092 67.0594 129.44C67.5876 129.788 67.8804 130.301 67.9356 130.978C68.0049 131.839 67.7242 132.519 67.0912 133.016L67.0936 133.041C67.4804 133.153 67.8033 133.371 68.0612 133.694C68.319 134.019 68.469 134.436 68.5102 134.946C68.5818 135.824 68.3274 136.522 67.7471 137.041C67.1733 137.55 66.3893 137.845 65.3952 137.926C64.2326 138.021 63.3903 138.064 62.8683 138.056ZM65.3652 134.306L64.5876 134.369L64.7214 136.012C64.9098 136.047 65.1375 136.053 65.4043 136.032C66.1819 135.969 66.5455 135.627 66.4961 135.008C66.4527 134.482 66.0761 134.248 65.3652 134.306ZM64.9383 130.919C64.7884 130.931 64.5807 130.965 64.3151 131.02L64.4455 132.612L65.1093 132.558C65.7284 132.508 66.0144 132.199 65.9686 131.63C65.9486 131.387 65.8415 131.203 65.646 131.076C65.4505 130.949 65.2139 130.897 64.9383 130.919Z" fill="white"/>
<path d="M72.0246 137.39L70.014 137.489L69.5789 128.692L71.5895 128.593L71.7793 132.426L74.4675 128.45L76.8806 128.332L73.7758 132.554L77.5793 137.115L75.0284 137.241L71.8175 133.205L72.0246 137.39Z" fill="white"/>
<path d="M85.1979 137.092L83.1848 137.133L83.0447 130.214L81.1071 130.253L80.9522 131.918C80.8064 133.448 80.581 134.621 80.2747 135.437C79.9674 136.253 79.5885 136.787 79.1358 137.04C78.6842 137.292 78.0916 137.363 77.3601 137.252L77.3565 135.238C77.5416 135.267 77.6948 135.262 77.816 135.222C77.9372 135.182 78.0669 135.076 78.206 134.906C78.345 134.726 78.4694 134.46 78.5801 134.106C78.8243 133.345 78.9953 132.033 79.0922 130.168L79.182 128.405L85.0188 128.286L85.1979 137.092Z" fill="white"/>
<path d="M88.6517 137.132L86.6392 137.081L86.8639 128.276L88.8764 128.327L88.79 131.699L89.8975 131.727C90.1422 130.676 90.6541 129.842 91.4341 129.223C92.214 128.589 93.1741 128.286 94.3144 128.315C95.6725 128.35 96.7604 128.792 97.5781 129.645C98.3957 130.479 98.787 131.592 98.7521 132.984C98.7178 134.309 98.2665 135.393 97.398 136.235C96.5294 137.06 95.4243 137.456 94.0826 137.422C92.9752 137.394 92.0234 137.038 91.2274 136.355C90.4304 135.672 89.9592 134.757 89.8117 133.612L88.7425 133.586L88.6517 137.132ZM91.9092 132.81C91.8893 133.565 92.104 134.204 92.5522 134.728C93.0005 135.25 93.548 135.521 94.1936 135.537C94.9728 135.557 95.5668 135.332 95.9723 134.865C96.379 134.397 96.592 133.752 96.6137 132.93C96.6344 132.125 96.436 131.474 96.0208 130.976C95.6055 130.479 95.0417 130.221 94.3293 130.203C93.6497 130.186 93.082 130.419 92.6251 130.903C92.1671 131.386 91.9289 132.022 91.9092 132.81Z" fill="white"/>
<path d="M104.709 128.5L106.717 128.631L106.147 137.42L104.138 137.289L104.356 133.924C103.891 134.239 103.251 134.369 102.439 134.317C101.702 134.268 101.084 134.004 100.581 133.522C100.078 133.039 99.8587 132.312 99.9212 131.342L100.126 128.202L102.134 128.332L101.97 130.87C101.934 131.421 102.014 131.82 102.208 132.063C102.402 132.307 102.7 132.442 103.102 132.468C103.579 132.5 104.037 132.374 104.475 132.091L104.709 128.5Z" fill="white"/>
<path d="M113 138.048L107.677 137.543L108.507 128.774L113.706 129.266L113.528 131.146L110.333 130.843L110.188 132.384L113.005 132.651L112.828 134.53L110.01 134.263L109.859 135.854L113.178 136.168L113 138.048Z" fill="white"/>
<path d="M121.361 139.607L119.363 139.359L119.799 135.838L116.615 135.443L116.179 138.964L114.18 138.716L115.265 129.975L117.264 130.223L116.848 133.569L120.032 133.965L120.448 130.618L122.446 130.866L121.361 139.607Z" fill="white"/>
<path d="M123.21 134.978C123.415 133.693 124.013 132.693 125.003 131.977C126.002 131.254 127.186 131.001 128.553 131.22C129.911 131.438 130.951 132.025 131.672 132.982C132.411 133.942 132.671 135.1 132.453 136.459C132.244 137.768 131.632 138.774 130.618 139.479C129.613 140.183 128.444 140.429 127.11 140.216C125.76 139.999 124.716 139.412 123.977 138.452C123.248 137.494 122.992 136.336 123.21 134.978ZM125.321 135.316C125.204 136.053 125.348 136.718 125.754 137.31C126.153 137.892 126.705 138.24 127.409 138.352C128.204 138.48 128.86 138.334 129.378 137.915C129.898 137.481 130.219 136.882 130.341 136.121C130.467 135.334 130.329 134.661 129.925 134.104C129.515 133.537 128.958 133.197 128.253 133.084C127.525 132.968 126.885 133.116 126.334 133.528C125.784 133.941 125.446 134.537 125.321 135.316Z" fill="white"/>
<path d="M86.1338 103.12L55.5386 63.0013L66.4169 49.1204H85.5387H104.66L115.539 63.0013L86.1338 103.12Z" fill="white"/>
<path d="M86.1338 103.12L55.5386 63.0013M86.1338 103.12L115.539 63.0013M86.1338 103.12L75.7149 63.0013M86.1338 103.12L95.8912 63.0013M55.5386 63.0013L66.4169 49.1204M55.5386 63.0013H75.7149M66.4169 49.1204H85.5387M66.4169 49.1204L75.7149 63.0013M104.66 49.1204L115.539 63.0013M104.66 49.1204L95.8912 63.0013M104.66 49.1204H85.5387M115.539 63.0013H95.8912M95.8912 63.0013L85.5387 49.1204M95.8912 63.0013H75.7149M85.5387 49.1204L75.7149 63.0013" stroke="#F61D2A" stroke-width="2" stroke-linecap="round" stroke-linejoin="round"/>
</svg>
