<svg width="172" height="166" viewBox="0 0 172 166" fill="none" xmlns="http://www.w3.org/2000/svg">
<path d="M162 77.1007C162 119.131 127.972 153.201 86 153.201C44.0276 153.201 10 119.131 10 77.1007C10 35.0702 44.0276 1 86 1C127.972 1 162 35.0702 162 77.1007Z" stroke="#F6F6F6" stroke-width="2"/>
<path d="M85.5385 137.298C118.421 137.298 145.077 110.607 145.077 77.682C145.077 44.7568 118.421 18.0657 85.5385 18.0657C52.6563 18.0657 26 44.7568 26 77.682C26 110.607 52.6563 137.298 85.5385 137.298Z" fill="#FA848B"/>
<path fill-rule="evenodd" clip-rule="evenodd" d="M86.152 42.5376C87.9204 42.5376 88.7058 43.4808 89.2179 44.5636L96.3918 61.4694C96.3918 61.4694 111.002 62.57 115.055 62.9351C116.338 63.0511 117.636 63.5948 118.145 65.4556C118.483 66.6913 117.893 68.1 116.931 68.8434C113.873 71.2099 102.773 80.7327 102.773 80.7327L107.092 98.4824C107.092 98.4824 107.378 100.156 106.506 101.307C105.513 102.616 103.933 103.126 102.148 102.154L86.152 92.5774C86.152 92.5774 72.3262 100.932 70.1556 102.154C69.0548 102.774 67.7006 103.105 66.2165 101.906C65.2312 101.109 64.9535 99.6411 65.2134 98.4824C65.6022 96.7444 69.5325 80.7327 69.5325 80.7327C69.5325 80.7327 58.5427 71.4845 55.3724 68.8434C54.3793 68.0163 53.6172 66.41 54.206 64.9655C54.7947 63.52 56.0444 63.0567 57.2497 62.9351C60.5656 62.6002 75.9132 61.4694 75.9132 61.4694L83.0871 44.5636C83.0871 44.5636 83.8125 42.5376 86.152 42.5376Z" fill="white" stroke="#F61D2A" stroke-width="2" stroke-linecap="round" stroke-linejoin="round"/>
<path fill-rule="evenodd" clip-rule="evenodd" d="M43.5181 155.193C43.5181 155.193 32.5398 159.065 12.8792 166C14.7241 155.468 17.947 146.861 17.947 146.861L0 139.13L25.4665 128.65L43.5181 155.193Z" fill="#DF0001"/>
<path fill-rule="evenodd" clip-rule="evenodd" d="M40.9858 150.587L43.0265 155.566L33.7471 152.733L40.9858 150.587Z" fill="#CC0001"/>
<path fill-rule="evenodd" clip-rule="evenodd" d="M128.482 155.193C128.482 155.193 139.46 159.065 159.121 166C156.566 153.762 154.053 146.861 154.053 146.861L172 139.13L146.534 128.65L128.482 155.193Z" fill="#DF0001"/>
<path fill-rule="evenodd" clip-rule="evenodd" d="M131.107 150.587L128.995 155.566L138.275 152.733L131.107 150.587Z" fill="#CC0001"/>
<path fill-rule="evenodd" clip-rule="evenodd" d="M85.9993 145.576C74.6939 145.576 61.0323 146.44 33.3855 152.955C33.3855 152.955 27.1923 136.871 22.853 124.868C42.8756 119.589 64.9501 116.823 85.9993 116.823C107.048 116.823 120.985 118.292 149.147 124.868C147.059 130.214 138.614 152.955 138.614 152.955C111.341 146.266 97.3059 145.576 85.9993 145.576Z" fill="#F61D2A"/>
<path d="M47.2606 139.938L45.8208 128.698L52.6124 127.831L52.9213 130.24L48.7041 130.778L48.9324 132.561C49.2353 132.457 49.6607 132.37 50.2076 132.301C51.3024 132.16 52.223 132.364 52.9682 132.911C53.7253 133.457 54.1712 134.254 54.3058 135.303C54.4572 136.492 54.1917 137.463 53.509 138.22C52.8264 138.977 51.7927 139.442 50.4094 139.619C49.8398 139.691 49.2112 139.755 48.5202 139.811C48.3267 139.835 48.1308 139.858 47.9313 139.877C47.7318 139.898 47.5815 139.912 47.4782 139.919C47.376 139.926 47.3039 139.934 47.2606 139.938ZM50.3073 134.735C49.9744 134.778 49.6186 134.856 49.2413 134.969L49.5273 137.202C50.0489 137.19 50.3746 137.175 50.5032 137.159C51.4358 137.04 51.8541 136.595 51.7556 135.824C51.7075 135.45 51.5608 135.161 51.3168 134.958C51.0728 134.755 50.7364 134.681 50.3073 134.735Z" fill="white"/>
<path d="M58.1483 138.84L55.5464 139.07L59.2468 127.366L61.558 127.162L67.2631 138.034L64.5001 138.279L63.3523 135.991L58.8755 136.387L58.1483 138.84ZM62.1673 133.657L60.623 130.576L59.6302 133.883L62.1673 133.657Z" fill="white"/>
<path d="M71.8302 137.543C70.0046 137.636 68.6141 137.025 67.6598 135.712L68.9795 133.879C69.8472 134.753 70.7185 135.169 71.5935 135.125C72.0478 135.102 72.4203 134.983 72.7124 134.768C73.0056 134.554 73.1415 134.247 73.121 133.847C73.103 133.492 72.9371 133.219 72.6246 133.03C72.3121 132.84 71.8687 132.76 71.2966 132.789L70.2594 132.841L70.1368 130.415L71.1091 130.367C71.5189 130.346 71.8494 130.238 72.0994 130.041C72.3494 129.845 72.466 129.586 72.4504 129.262C72.4324 128.916 72.3086 128.661 72.0778 128.494C71.8483 128.328 71.5382 128.254 71.1488 128.274C70.3712 128.313 69.721 128.74 69.1994 129.556L67.6201 127.884C67.9807 127.305 68.4951 126.827 69.1645 126.453C69.8328 126.079 70.5671 125.872 71.3663 125.831C72.4251 125.778 73.2881 126.018 73.9539 126.552C74.6197 127.085 74.9779 127.848 75.0283 128.84C75.0776 129.821 74.6426 130.648 73.7244 131.321L73.7267 131.37C74.9887 131.695 75.6557 132.563 75.7266 133.976C75.7783 134.978 75.4081 135.813 74.6185 136.48C73.8289 137.134 72.8998 137.489 71.8302 137.543Z" fill="white"/>
<path d="M77.3465 131.732C77.332 130.06 77.8789 128.663 78.9834 127.542C80.0999 126.412 81.5493 125.838 83.334 125.824C85.108 125.81 86.5562 126.332 87.6787 127.391C88.8228 128.451 89.4022 129.867 89.4166 131.635C89.431 133.341 88.8686 134.748 87.7304 135.859C86.6043 136.968 85.1705 137.531 83.429 137.545C81.6659 137.558 80.2117 137.036 79.0675 135.976C77.9342 134.917 77.3597 133.502 77.3465 131.732ZM80.1047 131.711C80.1119 132.671 80.4376 133.483 81.0806 134.148C81.714 134.8 82.4892 135.124 83.4086 135.117C84.447 135.108 85.251 134.783 85.8183 134.142C86.3867 133.478 86.6667 132.651 86.6583 131.658C86.6499 130.633 86.3303 129.81 85.6981 129.189C85.0551 128.557 84.2727 128.245 83.3533 128.252C82.4014 128.26 81.6202 128.585 81.0085 129.226C80.3979 129.868 80.0963 130.696 80.1047 131.711Z" fill="white"/>
<path d="M91.7676 137.095L92.1618 125.835C93.4285 125.815 94.5763 125.822 95.6027 125.858C96.8574 125.901 97.796 126.185 98.4221 126.709C99.0483 127.233 99.3452 127.932 99.3152 128.805C99.2755 129.917 98.814 130.743 97.9294 131.284L97.9282 131.316C98.4078 131.517 98.7888 131.843 99.0712 132.296C99.3524 132.748 99.4822 133.304 99.4594 133.962C99.4197 135.094 98.9894 135.949 98.1686 136.525C97.3585 137.091 96.3105 137.351 95.0233 137.306C93.521 137.254 92.4358 137.184 91.7676 137.095ZM95.5269 132.675L94.521 132.64L94.4477 134.759C94.6833 134.833 94.9741 134.875 95.319 134.887C96.325 134.922 96.8417 134.54 96.8694 133.742C96.8934 133.063 96.4451 132.706 95.5269 132.675ZM95.4861 128.284C95.2914 128.277 95.0197 128.289 94.6724 128.32L94.6003 130.375L95.4597 130.405C96.2601 130.433 96.6723 130.08 96.6988 129.346C96.7096 129.033 96.599 128.781 96.3682 128.59C96.1363 128.398 95.8418 128.296 95.4861 128.284Z" fill="white"/>
<path d="M113.232 138.674L110.645 138.474L111.522 127.175L114.111 127.375L113.232 138.674ZM105.613 132.645C105.495 132.635 105.234 132.642 104.83 132.665L104.607 135.538C104.949 135.608 105.2 135.648 105.363 135.662C106.441 135.744 107.02 135.265 107.102 134.221C107.138 133.748 107.026 133.376 106.765 133.107C106.504 132.838 106.12 132.684 105.613 132.645ZM102.707 126.493L105.294 126.693L105.02 130.228C105.336 130.209 105.672 130.214 106.027 130.241C107.365 130.344 108.361 130.757 109.015 131.479C109.67 132.201 109.95 133.164 109.856 134.369C109.761 135.596 109.275 136.549 108.397 137.228C107.51 137.896 106.334 138.172 104.866 138.059C104.198 138.007 103.627 137.957 103.154 137.91C102.691 137.863 102.249 137.824 101.828 137.791L102.707 126.493Z" fill="white"/>
<path d="M124.04 132.99L118.168 139.351L115.915 139.068L117.334 127.824L119.909 128.147L119.027 135.134L124.899 128.774L127.153 129.058L125.734 140.302L123.158 139.978L124.04 132.99ZM119.47 125.155L121.884 125.458C121.846 125.758 121.895 125.976 122.029 126.113C122.165 126.249 122.415 126.341 122.781 126.387C123.123 126.43 123.372 126.404 123.526 126.309C123.68 126.215 123.776 126.012 123.815 125.701L126.23 126.005C126.154 126.778 125.77 127.361 125.077 127.752C124.396 128.145 123.556 128.278 122.557 128.154C121.495 128.021 120.689 127.682 120.143 127.14C119.595 126.598 119.37 125.936 119.47 125.155Z" fill="white"/>
</svg>
