<svg width="172" height="167" viewBox="0 0 172 167" fill="none" xmlns="http://www.w3.org/2000/svg">
<path d="M162 77.6007C162 119.631 127.972 153.701 86 153.701C44.0276 153.701 10 119.631 10 77.6007C10 35.5702 44.0276 1.5 86 1.5C127.972 1.5 162 35.5702 162 77.6007Z" stroke="#F6F6F6" stroke-width="2"/>
<path d="M85.5385 137.798C118.421 137.798 145.077 111.107 145.077 78.182C145.077 45.2568 118.421 18.5657 85.5385 18.5657C52.6563 18.5657 26 45.2568 26 78.182C26 111.107 52.6563 137.798 85.5385 137.798Z" fill="#FA848B"/>
<path fill-rule="evenodd" clip-rule="evenodd" d="M43.5181 155.693C43.5181 155.693 32.5398 159.565 12.8792 166.5C14.7241 155.968 17.947 147.361 17.947 147.361L0 139.63L25.4665 129.15L43.5181 155.693Z" fill="#DF0001"/>
<path fill-rule="evenodd" clip-rule="evenodd" d="M40.9858 151.087L43.0265 156.066L33.7471 153.233L40.9858 151.087Z" fill="#CC0001"/>
<path fill-rule="evenodd" clip-rule="evenodd" d="M128.482 155.693C128.482 155.693 139.46 159.565 159.121 166.5C156.566 154.262 154.053 147.361 154.053 147.361L172 139.63L146.534 129.15L128.482 155.693Z" fill="#DF0001"/>
<path fill-rule="evenodd" clip-rule="evenodd" d="M131.107 151.087L128.995 156.066L138.275 153.233L131.107 151.087Z" fill="#CC0001"/>
<path fill-rule="evenodd" clip-rule="evenodd" d="M85.9993 146.076C74.6939 146.076 61.0323 146.94 33.3855 153.455C33.3855 153.455 27.1923 137.371 22.853 125.368C42.8756 120.089 64.9501 117.323 85.9993 117.323C107.048 117.323 120.985 118.792 149.147 125.368C147.059 130.714 138.614 153.455 138.614 153.455C111.341 146.766 97.3059 146.076 85.9993 146.076Z" fill="#F61D2A"/>
<path d="M57.2401 138.554L55.0408 138.792L54 129.167L56.2137 128.928L59.6218 132.663L61.9891 128.304L64.0645 128.08L65.1042 137.704L62.9049 137.941L62.2421 131.809L59.967 135.853L59.6505 135.887L56.5825 132.463L57.2401 138.554Z" fill="white"/>
<path d="M73.5068 137.152L67.6412 137.522L67.0327 127.86L72.76 127.5L72.8901 129.57L69.3714 129.792L69.4779 131.49L72.5828 131.294L72.7139 133.364L69.608 133.56L69.7186 135.313L73.3757 135.082L73.5068 137.152Z" fill="white"/>
<path d="M76.4385 139.002L74.3651 139.054L74.2729 135.321L75.3096 135.295C75.577 134.92 75.8413 134.236 76.1025 133.242C76.3729 132.23 76.5276 131.014 76.5655 129.593L76.6014 127.655L82.9187 127.5L83.1072 135.103L84.4204 135.071L84.5126 138.803L82.4393 138.855L82.3983 137.195L76.3975 137.344L76.4385 139.002ZM78.7956 129.677L78.6839 131.311C78.6378 132.087 78.5098 132.884 78.2998 133.7C78.098 134.489 77.9126 135.001 77.7425 135.236L80.8945 135.158L80.7583 129.627L78.7956 129.677Z" fill="white"/>
<path d="M92.495 131.294L88.083 137.218L86.147 137.178L86.3508 127.5L88.5624 127.546L88.4365 133.56L92.8495 127.636L94.7845 127.677L94.5817 137.355L92.369 137.308L92.495 131.294Z" fill="white"/>
<path d="M103.748 127.962L105.97 128.105L102.252 135.266C101.862 136.026 101.427 136.578 100.947 136.921C100.468 137.264 99.9107 137.416 99.2756 137.375C99.0093 137.357 98.7358 137.296 98.4561 137.19C98.1764 137.084 97.9716 136.972 97.8404 136.852L98.7347 135.025C98.9632 135.197 99.1834 135.29 99.3954 135.303C99.754 135.327 100.002 135.213 100.138 134.963L100.281 134.682L96.5723 127.5L99.0697 127.661L101.484 132.555L103.748 127.962Z" fill="white"/>
<path d="M108.907 138.524L106.708 138.28L107.776 128.658L109.989 128.904L112.507 133.289L115.762 129.546L117.837 129.776L116.769 139.397L114.571 139.153L115.251 133.022L112.154 136.478L111.838 136.443L109.583 132.435L108.907 138.524Z" fill="white"/>
<path d="M54 51.3065L72.2018 64.0806L85.7064 45.5L98.6239 64.0806L118 51.3065L105.974 90.7903L104.4 95.9568C103.759 98.0616 101.818 99.5 99.6172 99.5H71.2961C69.0543 99.5 67.0864 98.0078 66.4816 95.8491L65.064 90.7903L54 51.3065Z" fill="white"/>
<path d="M65.064 90.7903L66.4816 95.8491C67.0865 98.0078 69.0543 99.5 71.2961 99.5H99.6172C101.818 99.5 103.759 98.0616 104.4 95.9568L105.974 90.7903M65.064 90.7903L54 51.3065L72.2018 64.0806L85.7064 45.5L98.6239 64.0806L118 51.3065L105.974 90.7903M65.064 90.7903H105.974" stroke="#F61D2A" stroke-width="2" stroke-linecap="round" stroke-linejoin="round"/>
<path d="M91.7519 75.6936C91.7519 78.979 89.0556 81.6613 85.706 81.6613C82.3564 81.6613 79.6602 78.979 79.6602 75.6936C79.6602 72.4082 82.3564 69.7258 85.706 69.7258C89.0556 69.7258 91.7519 72.4082 91.7519 75.6936Z" stroke="#F61D2A" stroke-width="2"/>
<ellipse cx="100.385" cy="77.4352" rx="2.93578" ry="2.90323" fill="#F61D2A"/>
<ellipse cx="71.0276" cy="77.4352" rx="2.93578" ry="2.90323" fill="#F61D2A"/>
</svg>
