<svg width="22" height="29" viewBox="0 0 22 29" fill="none" xmlns="http://www.w3.org/2000/svg">
<path d="M22 10.6844C22 18.3159 11 29 11 29C11 29 0 18.3159 0 10.6844C0 3.05301 5.5 0 11 0C16.5 0 22 3.05301 22 10.6844Z" fill="#F61D2A"/>
<circle cx="11" cy="11" r="7" fill="white"/>
<circle cx="11" cy="11" r="5.5" fill="#4C2987"/>
<path d="M11.6049 7.0813C9.50111 7.37005 8.35986 9.05846 8.35986 11.0826C8.35986 13.1066 9.59736 14.795 11.5911 15.0013L11.8799 12.8037C11.0441 12.7043 10.3949 11.9655 10.3949 11.0688C10.3949 10.1721 11.0441 9.43333 11.8799 9.33392L11.6049 7.0813Z" fill="#FF0198"/>
<circle cx="11" cy="11" r="5.5" fill="white"/>
<path d="M6.66735 7.74305C7.02713 8.57607 7.66136 9.27333 7.99517 10.1064C7.51053 11.4688 7.29294 12.9028 6.94429 14.3035C7.32385 13.8161 7.65518 13.2903 8.0879 12.8448C8.03968 13.6457 7.78376 14.4134 7.65395 15.2021C8.19422 14.569 8.62818 13.8507 9.21296 13.2547C10.5915 11.754 12.4373 10.7766 14.3413 10.104C14.957 9.87459 15.6159 9.74242 16.1846 9.3981C15.1758 9.26482 14.162 9.43142 13.1519 9.36231C13.8838 8.91434 14.7616 8.81437 15.5232 8.4281C12.5906 8.07379 9.52823 8.72046 6.66735 7.74305ZM9.92756 5.60312C12.1047 5.16502 14.4773 6.14983 15.6468 8.04417C16.6693 9.62764 16.783 11.7477 15.9324 13.4298C15.1535 15.0329 13.5513 16.2077 11.7771 16.4398C9.81382 16.747 7.74049 15.8573 6.57092 14.264C5.37044 12.6696 5.15779 10.4025 6.04177 8.61433C6.77244 7.07787 8.2511 5.91905 9.92756 5.60312Z" fill="#57A52C"/>
</svg>
