<svg width="22" height="29" viewBox="0 0 22 29" fill="none" xmlns="http://www.w3.org/2000/svg">
<path d="M22 10.6844C22 18.3159 11 29 11 29C11 29 0 18.3159 0 10.6844C0 3.05301 5.5 0 11 0C16.5 0 22 3.05301 22 10.6844Z" fill="#F61D2A"/>
<circle cx="11" cy="11" r="7" fill="white"/>
<circle cx="11" cy="11" r="5.5" fill="#4C2987"/>
<path d="M11.6049 7.0813C9.50111 7.37005 8.35986 9.05846 8.35986 11.0826C8.35986 13.1066 9.59736 14.795 11.5911 15.0013L11.8799 12.8037C11.0441 12.7043 10.3949 11.9655 10.3949 11.0688C10.3949 10.1721 11.0441 9.43333 11.8799 9.33392L11.6049 7.0813Z" fill="#FF0198"/>
</svg>
