<svg width="295" height="48" viewBox="0 0 295 48" fill="none" xmlns="http://www.w3.org/2000/svg">
<g clip-path="url(#clip0)">
<path fill-rule="evenodd" clip-rule="evenodd" d="M62.2751 20.0994C62.2751 31.1994 53.311 40.1982 42.2528 40.1987C31.195 40.1982 22.2304 31.1994 22.2306 20.0988C22.2308 8.99862 31.1952 0.000525411 42.2532 0C53.311 0 62.2747 8.99862 62.2751 20.0994Z" fill="#E0E0E0"/>
<path d="M65.196 18.1743H62.0386V10.9699H65.3867C66.8233 10.9699 70.4116 11.0659 70.4116 14.4761C70.4116 18.2218 66.344 18.1743 65.196 18.1743ZM82.0854 27.3473C81.0796 22.8333 77.7312 21.536 75.483 21.1995V21.104C79.8351 20.3834 83.3294 17.3581 83.3294 12.4581C83.3294 3.95809 74.5734 3.47708 69.8375 3.47708H55.9112L54.3201 3.67253L53.589 3.79246C51.0029 4.19781 45.4567 5.95243 43.0731 8.6574C42.2741 9.55402 41.8266 10.4973 41.825 11.5365C41.8145 12.7393 42.6645 13.8281 43.9652 14.8278C45.2525 15.8201 46.8918 16.6545 48.1596 17.4093C50.3922 18.7393 52.4473 19.8882 54.0023 21.3802C55.5585 22.8632 57.4324 24.7702 57.4197 27.3405C57.3973 30.7591 56.3457 34.2158 52.7744 37.0972H62.614V25.3781H65.4828C66.8706 25.3781 69.215 25.7628 69.6467 28.6919L70.8891 37.0972H84.2857L82.0854 27.3473ZM34.0304 22.5445C31.5075 21.171 29.3377 19.8512 27.7544 18.2791C26.1709 16.7175 25.1814 14.8379 25.1895 12.5433C25.2042 9.12617 27.7912 6.003 30.9858 3.47708H21.3873V15.1H12.8222V3.47708H0V37.0972H12.8222V24.7063H21.3873V37.0972H26.9254L27.1991 37.0414C30.0346 36.4619 33.2711 35.4355 35.7388 34.0022C38.2298 32.5589 39.8289 30.7729 39.8127 28.7615C39.8016 27.4247 39.4275 26.5338 38.5254 25.5788C37.6211 24.6324 36.1368 23.6865 34.0304 22.5445Z" fill="#C0C0C0"/>
</g>
<path d="M109.207 17.8135H106.643V13.2952H102.557V17.8135H99.9938V6.59788H102.557V10.8919H106.643V6.59788H109.207V17.8135ZM111.208 12.2057C111.208 10.5501 111.758 9.17214 112.858 8.07194C113.969 6.96105 115.405 6.40561 117.168 6.40561C118.92 6.40561 120.346 6.93435 121.446 7.99182C122.567 9.0493 123.128 10.4539 123.128 12.2057C123.128 13.8934 122.562 15.282 121.43 16.3715C120.308 17.461 118.888 18.0058 117.168 18.0058C115.427 18.0058 113.995 17.4771 112.874 16.4196C111.763 15.3621 111.208 13.9575 111.208 12.2057ZM113.931 12.2057C113.931 13.1564 114.247 13.9628 114.877 14.6251C115.496 15.2767 116.26 15.6025 117.168 15.6025C118.193 15.6025 118.989 15.2873 119.555 14.6571C120.121 14.0056 120.404 13.1884 120.404 12.2057C120.404 11.191 120.095 10.3738 119.475 9.75429C118.845 9.12407 118.076 8.80897 117.168 8.80897C116.228 8.80897 115.454 9.12407 114.845 9.75429C114.236 10.3845 113.931 11.2016 113.931 12.2057ZM127.698 17.8135H125.135V6.59788H127.714L131.175 11.3245L134.444 6.59788H136.863V17.8135H134.299V10.6676L131.175 15.0417H130.806L127.698 10.7156V17.8135ZM146.478 17.8135H139.669V6.59788H146.318V9.00123H142.232V10.972H145.837V13.3753H142.232V15.4102H146.478V17.8135ZM156.05 14.7372C156.05 14.2673 155.5 13.7706 154.399 13.2472C154.079 13.1083 153.796 12.9801 153.55 12.8626C153.315 12.7344 153.048 12.5635 152.749 12.3499C152.461 12.1256 152.22 11.8959 152.028 11.6609C151.847 11.426 151.686 11.1322 151.547 10.7797C151.419 10.4272 151.36 10.048 151.371 9.64213C151.371 8.74488 151.702 7.98114 152.365 7.35093C153.027 6.72072 153.903 6.40561 154.992 6.40561C156.424 6.40561 157.524 6.81685 158.293 7.63933L156.915 9.56202C156.605 9.27361 156.333 9.076 156.098 8.96919C155.873 8.86237 155.58 8.80897 155.217 8.80897C154.864 8.80897 154.586 8.88374 154.383 9.03328C154.191 9.18282 154.095 9.38577 154.095 9.64213C154.095 9.93053 154.207 10.1869 154.431 10.4112C154.666 10.6355 154.955 10.8224 155.297 10.972C155.649 11.1108 156.028 11.2871 156.434 11.5007C156.84 11.7144 157.214 11.944 157.556 12.1897C157.908 12.4247 158.197 12.7612 158.421 13.1991C158.656 13.6264 158.774 14.1284 158.774 14.7052C158.774 15.6665 158.405 16.457 157.668 17.0765C156.952 17.696 156.039 18.0058 154.928 18.0058C154.116 18.0058 153.347 17.8402 152.621 17.5091C151.884 17.178 151.387 16.7294 151.131 16.1632L152.589 14.4168C152.877 14.7907 153.24 15.0844 153.678 15.298C154.116 15.501 154.554 15.6025 154.992 15.6025C155.323 15.6025 155.58 15.5277 155.761 15.3781C155.954 15.2179 156.05 15.0043 156.05 14.7372ZM169.983 17.8135H167.42V13.2952H163.334V17.8135H160.771V6.59788H163.334V10.8919H167.42V6.59788H169.983V17.8135ZM171.984 12.2057C171.984 10.5501 172.534 9.17214 173.635 8.07194C174.746 6.96105 176.182 6.40561 177.945 6.40561C179.696 6.40561 181.122 6.93435 182.223 7.99182C183.344 9.0493 183.905 10.4539 183.905 12.2057C183.905 13.8934 183.339 15.282 182.207 16.3715C181.085 17.461 179.664 18.0058 177.945 18.0058C176.204 18.0058 174.772 17.4771 173.651 16.4196C172.54 15.3621 171.984 13.9575 171.984 12.2057ZM174.708 12.2057C174.708 13.1564 175.023 13.9628 175.653 14.6251C176.273 15.2767 177.037 15.6025 177.945 15.6025C178.97 15.6025 179.766 15.2873 180.332 14.6571C180.898 14.0056 181.181 13.1884 181.181 12.2057C181.181 11.191 180.871 10.3738 180.252 9.75429C179.622 9.12407 178.853 8.80897 177.945 8.80897C177.005 8.80897 176.23 9.12407 175.621 9.75429C175.013 10.3845 174.708 11.2016 174.708 12.2057ZM188.475 14.0002V17.8135H185.911V6.59788C186.403 6.59788 186.942 6.59254 187.53 6.58186C188.128 6.57117 188.731 6.56583 189.34 6.56583C190.921 6.56583 192.075 6.91833 192.801 7.62331C193.517 8.30693 193.874 9.1935 193.874 10.283C193.874 11.3298 193.495 12.2217 192.737 12.9588C191.978 13.6851 190.974 14.0483 189.725 14.0483C189.169 14.0483 188.753 14.0323 188.475 14.0002ZM189.596 8.96919C189.586 8.96919 189.538 8.97453 189.452 8.98521C189.367 8.98521 189.233 8.99055 189.052 9.00123C188.87 9.00123 188.678 9.00123 188.475 9.00123V11.5648C188.923 11.6182 189.313 11.6449 189.644 11.6449C190.082 11.6449 190.44 11.5328 190.718 11.3085C191.006 11.0735 191.151 10.7263 191.151 10.267C191.151 9.40179 190.633 8.96919 189.596 8.96919ZM198.44 14.0002V17.8135H195.876V6.59788C196.368 6.59788 196.907 6.59254 197.495 6.58186C198.093 6.57117 198.696 6.56583 199.305 6.56583C200.886 6.56583 202.04 6.91833 202.766 7.62331C203.482 8.30693 203.84 9.1935 203.84 10.283C203.84 11.3298 203.46 12.2217 202.702 12.9588C201.944 13.6851 200.94 14.0483 199.69 14.0483C199.134 14.0483 198.718 14.0323 198.44 14.0002ZM199.562 8.96919C199.551 8.96919 199.503 8.97453 199.417 8.98521C199.332 8.98521 199.198 8.99055 199.017 9.00123C198.835 9.00123 198.643 9.00123 198.44 9.00123V11.5648C198.889 11.6182 199.279 11.6449 199.61 11.6449C200.048 11.6449 200.405 11.5328 200.683 11.3085C200.972 11.0735 201.116 10.7263 201.116 10.267C201.116 9.40179 200.598 8.96919 199.562 8.96919ZM208.565 17.8135H206.002V6.59788H208.565V17.8135ZM221.309 6.59788V17.8135H219.258L213.939 11.0841V17.8135H211.535V6.59788H213.586L218.905 13.3593V6.59788H221.309ZM231.115 13.824H228.728V11.4206H233.518V16.4196C233.038 16.9003 232.397 17.2848 231.596 17.5732C230.816 17.8616 230.058 18.0058 229.321 18.0058C227.441 18.0058 225.967 17.4824 224.898 16.4356C223.841 15.3888 223.312 13.9789 223.312 12.2057C223.312 10.5501 223.83 9.17214 224.866 8.07194C225.913 6.96105 227.291 6.40561 229 6.40561C230.474 6.40561 231.697 6.79549 232.669 7.57524L231.596 9.64213C231.371 9.40713 231.04 9.20952 230.602 9.0493C230.175 8.88908 229.743 8.80897 229.305 8.80897C228.311 8.80897 227.515 9.10271 226.917 9.6902C226.33 10.2777 226.036 11.1162 226.036 12.2057C226.036 13.2418 226.335 14.0696 226.933 14.6892C227.542 15.298 228.349 15.6025 229.353 15.6025C229.652 15.6025 229.988 15.5437 230.362 15.4262C230.715 15.3087 230.966 15.1805 231.115 15.0417V13.824ZM241.366 13.8881V17.8135H238.802V6.59788C239.411 6.59788 240.084 6.59254 240.821 6.58186C241.558 6.57117 242.156 6.56583 242.615 6.56583C245.382 6.56583 246.765 7.76217 246.765 10.1548C246.765 11.693 246.135 12.7718 244.874 13.3914L248.143 17.8135H245.035L242.311 13.8881H241.366ZM242.487 8.96919C242.476 8.96919 242.428 8.97453 242.343 8.98521C242.257 8.98521 242.124 8.99055 241.942 9.00123C241.761 9.00123 241.569 9.00123 241.366 9.00123V11.4847H242.295C243.459 11.4847 244.041 11.0521 244.041 10.1869C244.041 9.37509 243.523 8.96919 242.487 8.96919ZM256.248 6.59788H258.812V13.1831C258.812 14.796 258.374 16.003 257.498 16.8041C256.633 17.6052 255.543 18.0058 254.229 18.0058C252.734 18.0058 251.548 17.5839 250.672 16.74C249.786 15.8855 249.342 14.6625 249.342 13.0709V6.59788H251.906V12.5262C251.906 14.577 252.68 15.6025 254.229 15.6025C254.945 15.6025 255.458 15.3621 255.767 14.8814C256.088 14.4008 256.248 13.6637 256.248 12.6704V6.59788ZM265.573 14.7372C265.573 14.2673 265.023 13.7706 263.922 13.2472C263.602 13.1083 263.319 12.9801 263.073 12.8626C262.838 12.7344 262.571 12.5635 262.272 12.3499C261.984 12.1256 261.743 11.8959 261.551 11.6609C261.369 11.426 261.209 11.1322 261.07 10.7797C260.942 10.4272 260.883 10.048 260.894 9.64213C260.894 8.74488 261.225 7.98114 261.887 7.35093C262.55 6.72072 263.426 6.40561 264.515 6.40561C265.946 6.40561 267.047 6.81685 267.816 7.63933L266.438 9.56202C266.128 9.27361 265.856 9.076 265.621 8.96919C265.396 8.86237 265.103 8.80897 264.739 8.80897C264.387 8.80897 264.109 8.88374 263.906 9.03328C263.714 9.18282 263.618 9.38577 263.618 9.64213C263.618 9.93053 263.73 10.1869 263.954 10.4112C264.189 10.6355 264.478 10.8224 264.82 10.972C265.172 11.1108 265.551 11.2871 265.957 11.5007C266.363 11.7144 266.737 11.944 267.079 12.1897C267.431 12.4247 267.72 12.7612 267.944 13.1991C268.179 13.6264 268.296 14.1284 268.296 14.7052C268.296 15.6665 267.928 16.457 267.191 17.0765C266.475 17.696 265.562 18.0058 264.451 18.0058C263.639 18.0058 262.87 17.8402 262.144 17.5091C261.407 17.178 260.91 16.7294 260.654 16.1632L262.112 14.4168C262.4 14.7907 262.763 15.0844 263.201 15.298C263.639 15.501 264.077 15.6025 264.515 15.6025C264.846 15.6025 265.103 15.5277 265.284 15.3781C265.476 15.2179 265.573 15.0043 265.573 14.7372ZM274.411 14.7372C274.411 14.2673 273.861 13.7706 272.761 13.2472C272.44 13.1083 272.157 12.9801 271.912 12.8626C271.677 12.7344 271.41 12.5635 271.111 12.3499C270.822 12.1256 270.582 11.8959 270.39 11.6609C270.208 11.426 270.048 11.1322 269.909 10.7797C269.781 10.4272 269.722 10.048 269.733 9.64213C269.733 8.74488 270.064 7.98114 270.726 7.35093C271.388 6.72072 272.264 6.40561 273.354 6.40561C274.785 6.40561 275.885 6.81685 276.654 7.63933L275.276 9.56202C274.967 9.27361 274.694 9.076 274.459 8.96919C274.235 8.86237 273.941 8.80897 273.578 8.80897C273.226 8.80897 272.948 8.88374 272.745 9.03328C272.553 9.18282 272.456 9.38577 272.456 9.64213C272.456 9.93053 272.569 10.1869 272.793 10.4112C273.028 10.6355 273.316 10.8224 273.658 10.972C274.011 11.1108 274.39 11.2871 274.796 11.5007C275.202 11.7144 275.576 11.944 275.917 12.1897C276.27 12.4247 276.558 12.7612 276.783 13.1991C277.018 13.6264 277.135 14.1284 277.135 14.7052C277.135 15.6665 276.766 16.457 276.029 17.0765C275.314 17.696 274.401 18.0058 273.29 18.0058C272.478 18.0058 271.709 17.8402 270.982 17.5091C270.245 17.178 269.749 16.7294 269.492 16.1632L270.95 14.4168C271.239 14.7907 271.602 15.0844 272.04 15.298C272.478 15.501 272.916 15.6025 273.354 15.6025C273.685 15.6025 273.941 15.5277 274.123 15.3781C274.315 15.2179 274.411 15.0043 274.411 14.7372ZM281.856 17.8135H279.292V6.59788H281.856V17.8135ZM285.963 17.8135H283.384L288.046 6.59788H290.337L295 17.8135H292.26L291.331 15.4582H286.893L285.963 17.8135ZM290.369 13.0549L289.12 9.88246L287.854 13.0549H290.369Z" fill="#C0C0C0"/>
<path d="M109.207 36.6416H106.643V32.1233H102.557V36.6416H99.9938V25.426H102.557V29.72H106.643V25.426H109.207V36.6416ZM116.207 33.5653C116.207 33.0953 115.656 32.5987 114.556 32.0753C114.236 31.9364 113.953 31.8082 113.707 31.6907C113.472 31.5625 113.205 31.3916 112.906 31.178C112.618 30.9537 112.377 30.724 112.185 30.489C112.003 30.254 111.843 29.9603 111.704 29.6078C111.576 29.2553 111.517 28.8761 111.528 28.4702C111.528 27.573 111.859 26.8092 112.521 26.179C113.184 25.5488 114.06 25.2337 115.149 25.2337C116.58 25.2337 117.681 25.6449 118.45 26.4674L117.072 28.3901C116.762 28.1017 116.49 27.9041 116.255 27.7973C116.03 27.6905 115.737 27.6371 115.373 27.6371C115.021 27.6371 114.743 27.7118 114.54 27.8614C114.348 28.0109 114.252 28.2139 114.252 28.4702C114.252 28.7586 114.364 29.015 114.588 29.2393C114.823 29.4636 115.112 29.6505 115.454 29.8001C115.806 29.9389 116.185 30.1152 116.591 30.3288C116.997 30.5424 117.371 30.7721 117.713 31.0178C118.065 31.2528 118.354 31.5892 118.578 32.0272C118.813 32.4545 118.93 32.9565 118.93 33.5333C118.93 34.4946 118.562 35.2851 117.825 35.9046C117.109 36.5241 116.196 36.8339 115.085 36.8339C114.273 36.8339 113.504 36.6683 112.778 36.3372C112.041 36.0061 111.544 35.5575 111.288 34.9913L112.746 33.2449C113.034 33.6187 113.397 33.9125 113.835 34.1261C114.273 34.3291 114.711 34.4305 115.149 34.4305C115.48 34.4305 115.737 34.3558 115.918 34.2062C116.11 34.046 116.207 33.8324 116.207 33.5653ZM123.571 32.7162V36.6416H121.008V25.426C121.616 25.426 122.289 25.4206 123.026 25.41C123.763 25.3993 124.362 25.3939 124.821 25.3939C127.587 25.3939 128.971 26.5903 128.971 28.9829C128.971 30.5211 128.34 31.5999 127.08 32.2195L130.349 36.6416H127.24L124.516 32.7162H123.571ZM124.693 27.7973C124.682 27.7973 124.634 27.8026 124.548 27.8133C124.463 27.8133 124.33 27.8186 124.148 27.8293C123.966 27.8293 123.774 27.8293 123.571 27.8293V30.3128H124.5C125.665 30.3128 126.247 29.8802 126.247 29.015C126.247 28.2032 125.729 27.7973 124.693 27.7973ZM139.03 36.6416H131.788V34.7189C131.799 34.7083 132.061 34.4572 132.573 33.9659L133.455 33.0847C133.647 32.871 133.903 32.604 134.224 32.2835C134.587 31.899 134.843 31.5946 134.993 31.3703L135.521 30.5531C135.895 29.987 136.082 29.4049 136.082 28.8067C136.082 28.0697 135.74 27.7011 135.057 27.7011C134.747 27.7011 134.501 27.8026 134.32 28.0056C134.138 28.1978 133.973 28.4969 133.823 28.9028L131.82 27.9896C132.013 27.1457 132.408 26.4888 133.006 26.0188C133.615 25.5381 134.395 25.2978 135.345 25.2978C136.381 25.2978 137.188 25.5915 137.765 26.179C138.352 26.7665 138.646 27.4822 138.646 28.326C138.646 30.4517 137.396 32.4758 134.897 34.3985H139.03V36.6416ZM147.337 36.6416H144.934V34.2383H139.839V32.4438L143.844 25.426H146.6L142.931 31.8349H144.934V29.4316H147.337V31.8349H148.651V34.2383H147.337V36.6416ZM149.614 35.1035C149.614 34.7083 149.769 34.3611 150.078 34.062C150.388 33.7523 150.778 33.5974 151.248 33.5974C151.665 33.5974 152.017 33.7523 152.305 34.062C152.605 34.3611 152.754 34.7083 152.754 35.1035C152.754 35.5521 152.61 35.9366 152.322 36.2571C152.044 36.5775 151.686 36.7378 151.248 36.7378C150.767 36.7378 150.372 36.5829 150.062 36.2731C149.763 35.9527 149.614 35.5628 149.614 35.1035ZM157.406 32.7162V36.6416H154.843V25.426C155.452 25.426 156.125 25.4206 156.862 25.41C157.599 25.3993 158.197 25.3939 158.656 25.3939C161.423 25.3939 162.806 26.5903 162.806 28.9829C162.806 30.5211 162.176 31.5999 160.915 32.2195L164.184 36.6416H161.076L158.352 32.7162H157.406ZM158.528 27.7973C158.517 27.7973 158.469 27.8026 158.384 27.8133C158.298 27.8133 158.165 27.8186 157.983 27.8293C157.802 27.8293 157.609 27.8293 157.406 27.8293V30.3128H158.336C159.5 30.3128 160.082 29.8802 160.082 29.015C160.082 28.2032 159.564 27.7973 158.528 27.7973ZM172.369 25.426H174.933V32.0112C174.933 33.6241 174.495 34.8311 173.619 35.6322C172.754 36.4333 171.664 36.8339 170.35 36.8339C168.855 36.8339 167.669 36.412 166.793 35.5681C165.907 34.7136 165.463 33.4906 165.463 31.899V25.426H168.027V31.3542C168.027 33.4051 168.801 34.4305 170.35 34.4305C171.066 34.4305 171.579 34.1902 171.888 33.7095C172.209 33.2289 172.369 32.4918 172.369 31.4985V25.426Z" fill="#E0E0E0"/>
<defs>
<clipPath id="clip0">
</clipPath>
</defs>
</svg>
