<svg width="56" height="16" viewBox="0 0 56 16" fill="none" xmlns="http://www.w3.org/2000/svg">
<g clip-path="url(#clip0)">
<path d="M39.3452 7.77612V15.6201H44.2515V11.2079H49.1891C51.7681 11.2079 53.9696 9.78308 54.8188 7.77612H39.3452Z" fill="#006848"/>
<path d="M39.1443 0.7771C39.1601 1.17598 39.2233 1.57486 39.3182 1.94305C39.334 2.01976 39.3656 2.11181 39.3814 2.18851C39.3972 2.2192 39.3972 2.24988 39.413 2.2959C40.2982 5.01134 42.9062 6.97505 45.9885 6.97505H55.0931C55.1563 6.66822 55.1879 6.36139 55.1879 6.03922C55.1879 4.50507 54.5082 3.12434 53.4176 2.15783C52.4534 1.29871 51.173 0.7771 49.7505 0.7771H39.1443V0.7771Z" fill="url(#paint0_linear)"/>
<path d="M30.5352 2.34941L27.072 9.56981H26.7224V0.7771H21.7976V15.6606H25.9758C27.072 15.6606 28.0728 15.05 28.5335 14.0883L31.9968 6.86788H32.3463V15.6606H37.2711V0.7771H33.093C31.9968 0.7771 30.9959 1.3877 30.5352 2.34941Z" fill="#006848"/>
<path d="M7.69468 2.7416L9.74215 9.61734H10.0886L12.1204 2.7416C12.4669 1.57518 13.5536 0.7771 14.7978 0.7771H19.6803V15.741H14.7978V6.90081H14.4513L11.6479 15.741H8.16717L5.3637 6.90081H5.01721V15.741H0.134766V0.7771H5.01721C6.26144 0.7771 7.34818 1.57518 7.69468 2.7416Z" fill="#006848"/>
</g>
<defs>
<linearGradient id="paint0_linear" x1="39.1416" y1="3.87796" x2="55.1831" y2="3.87796" gradientUnits="userSpaceOnUse">
<stop stop-color="#02AFFF"/>
<stop offset="1" stop-color="#1F5BDE"/>
</linearGradient>
<clipPath id="clip0">
<rect width="55.0532" height="15.1335" fill="white" transform="translate(0.134766 0.7771)"/>
</clipPath>
</defs>
</svg>
