<svg width="32" height="32" viewBox="0 0 32 32" fill="none" xmlns="http://www.w3.org/2000/svg">
<path fill-rule="evenodd" clip-rule="evenodd" d="M20.2312 16.8439C19.9091 16.3482 19.2321 16.199 18.7207 16.5104C17.9566 16.9675 17.0864 17.2085 16.2001 17.2085C15.3139 17.2085 14.4437 16.9675 13.6796 16.5104C13.1673 16.199 12.4903 16.3482 12.1691 16.8439C11.846 17.3387 11.9998 17.9928 12.5121 18.3032C13.1891 18.7145 13.9225 19.0055 14.6851 19.1741L12.594 21.1939C12.1663 21.6071 12.1663 22.2779 12.594 22.6902C12.8087 22.8968 13.089 22.9997 13.3693 22.9997C13.6514 22.9997 13.9307 22.8959 14.1455 22.6893L16.2001 20.7047L18.2566 22.6893C18.4672 22.889 18.7442 23 19.0319 23C19.3196 23 19.5966 22.889 19.8072 22.6893C19.9086 22.5939 19.9896 22.4781 20.045 22.3493C20.1003 22.2204 20.1289 22.0813 20.1289 21.9407C20.1289 21.8 20.1003 21.6609 20.045 21.5321C19.9896 21.4032 19.9086 21.2875 19.8072 21.192L17.7143 19.1722C18.4802 19.0039 19.2141 18.7097 19.8872 18.3013C20.3996 17.9909 20.5542 17.3377 20.2312 16.843V16.8439ZM16.2001 11.118C17.0555 11.118 17.7498 11.7879 17.7498 12.6134C17.7498 13.438 17.0537 14.1088 16.1992 14.1088C15.3457 14.1088 14.6496 13.4371 14.6496 12.6134C14.6496 11.7888 15.3457 11.1171 16.1992 11.1171L16.2001 11.118ZM16.2001 16.225C18.2657 16.225 19.9428 14.6054 19.9428 12.6134C19.9428 10.6214 18.2639 9 16.1992 9C14.1355 9 12.4566 10.6214 12.4566 12.6134C12.4566 14.6054 14.1355 16.225 16.1992 16.225H16.2001Z" fill="#101010"/>
<path fill-rule="evenodd" clip-rule="evenodd" d="M16 4.5C9.64873 4.5 4.5 9.64873 4.5 16C4.5 22.3513 9.64873 27.5 16 27.5C22.3513 27.5 27.5 22.3513 27.5 16C27.5 9.64873 22.3513 4.5 16 4.5ZM3.5 16C3.5 9.09644 9.09644 3.5 16 3.5C22.9036 3.5 28.5 9.09644 28.5 16C28.5 22.9036 22.9036 28.5 16 28.5C9.09644 28.5 3.5 22.9036 3.5 16Z" fill="#101010"/>
</svg>
