<svg width="32" height="32" viewBox="0 0 32 32" fill="none" xmlns="http://www.w3.org/2000/svg">
<path fill-rule="evenodd" clip-rule="evenodd" d="M19.9265 15.1258C20.6123 15.5068 20.6123 16.4932 19.9265 16.8742L13.9856 20.1746C13.3191 20.5449 12.5 20.063 12.5 19.3005V12.6995C12.5 11.937 13.3191 11.4551 13.9856 11.8254L19.9265 15.1258Z" fill="#101010"/>
<path fill-rule="evenodd" clip-rule="evenodd" d="M16 4.5C9.64873 4.5 4.5 9.64873 4.5 16C4.5 22.3513 9.64873 27.5 16 27.5C22.3513 27.5 27.5 22.3513 27.5 16C27.5 9.64873 22.3513 4.5 16 4.5ZM3.5 16C3.5 9.09644 9.09644 3.5 16 3.5C22.9036 3.5 28.5 9.09644 28.5 16C28.5 22.9036 22.9036 28.5 16 28.5C9.09644 28.5 3.5 22.9036 3.5 16Z" fill="#101010"/>
</svg>
