<svg width="22" height="29" fill="none" xmlns="http://www.w3.org/2000/svg"><path d="M22 10.684C22 18.316 11 29 11 29S0 18.316 0 10.684C0 3.053 5.5 0 11 0s11 3.053 11 10.684z" fill="#F61D2A"/><circle cx="11" cy="11" r="7" fill="#fff"/><circle cx="11" cy="11" r="5.5" fill="#4C2987"/><path d="M11.605 7.081C9.5 7.37 8.36 9.058 8.36 11.083c0 2.024 1.237 3.712 3.231 3.918l.289-2.197c-.836-.1-1.485-.838-1.485-1.735 0-.897.65-1.636 1.485-1.735l-.275-2.253z" fill="#FF0198"/><circle cx="11" cy="11" r="5.5" fill="#fff"/><path d="M6.667 7.743c.36.833.994 1.53 1.328 2.363-.484 1.363-.702 2.797-1.05 4.197.379-.487.71-1.013 1.143-1.458-.048.8-.304 1.568-.434 2.357.54-.633.974-1.351 1.559-1.947 1.379-1.501 3.224-2.478 5.128-3.151.616-.23 1.275-.362 1.844-.706-1.01-.133-2.023.033-3.033-.036.732-.448 1.61-.548 2.371-.934-2.932-.354-5.995.292-8.856-.685zm3.26-2.14c2.178-.438 4.55.547 5.72 2.441 1.022 1.584 1.136 3.704.285 5.386-.779 1.603-2.38 2.778-4.155 3.01-1.963.307-4.037-.583-5.206-2.176-1.2-1.594-1.413-3.861-.53-5.65.731-1.536 2.21-2.695 3.887-3.01z" fill="#57A52C"/></svg>