<svg width="32" height="32" stroke-width="0" xmlns="http://www.w3.org/2000/svg"><path class="bg" d="M15.853 28.21c.383.387.893.387 1.149 0 2.041-2.063 8.677-8.25 11.357-11.602 2.935-3.481 2.935-8.122-.51-11.345-3.446-3.223-8.55-1.805-11.485 2.45-2.553-4.384-8.167-5.415-11.358-2.45-3.317 3.094-3.19 8.25-.51 11.345 2.552 2.965 9.315 9.54 11.357 11.602z"/><path fill-rule="evenodd" clip-rule="evenodd" d="M21.8 3.197c2.226-.519 4.537-.032 6.39 1.7 3.656 3.42 3.641 8.364.555 12.028-2.038 2.548-6.335 6.715-9.186 9.48a189.63 189.63 0 00-2.172 2.126c-.22.304-.554.469-.912.469-.364 0-.71-.168-.977-.438-.462-.467-1.173-1.171-2.025-2.016-2.879-2.854-7.374-7.31-9.355-9.612-2.837-3.276-2.987-8.74.547-12.037h.001c3.303-3.07 8.886-2.146 11.727 1.932 1.48-1.885 3.401-3.164 5.408-3.632zm.228.974c-1.935.45-3.845 1.784-5.253 3.825a.5.5 0 01-.844-.032c-2.42-4.158-7.67-5.043-10.584-2.335-3.1 2.892-2.995 7.74-.473 10.651l.001.001c1.951 2.267 6.385 6.663 9.267 9.52.865.857 1.59 1.576 2.066 2.057.116.117.217.142.267.142.04 0 .074-.012.11-.066a.5.5 0 01.061-.076c.52-.526 1.325-1.306 2.28-2.232 2.853-2.768 7.05-6.84 9.042-9.33l.008-.011c2.78-3.296 2.764-7.633-.47-10.657-1.592-1.49-3.556-1.906-5.478-1.457z"/></svg>