<svg width="32" height="32" fill="none" xmlns="http://www.w3.org/2000/svg"><path fill-rule="evenodd" clip-rule="evenodd" d="M16 4.5C9.649 4.5 4.5 9.649 4.5 16S9.649 27.5 16 27.5 27.5 22.351 27.5 16 22.351 4.5 16 4.5zM3.5 16C3.5 9.096 9.096 3.5 16 3.5S28.5 9.096 28.5 16 22.904 28.5 16 28.5 3.5 22.904 3.5 16z" fill="#101010"/><path d="M16 18.027A2.03 2.03 0 0113.973 16 2.03 2.03 0 0116 13.973 2.03 2.03 0 0118.027 16 2.03 2.03 0 0116 18.027z" fill="#000"/><path fill-rule="evenodd" clip-rule="evenodd" d="M18.688 10h-5.376A3.315 3.315 0 0010 13.312v5.376A3.315 3.315 0 0013.312 22h5.376A3.315 3.315 0 0022 18.688v-5.376A3.315 3.315 0 0018.688 10zM16 12.908A3.096 3.096 0 0012.908 16 3.095 3.095 0 0016 19.092 3.095 3.095 0 0019.092 16 3.096 3.096 0 0016 12.908zm2.67-.674a.784.784 0 011.104 0 .784.784 0 010 1.104.788.788 0 01-.552.229.787.787 0 01-.552-.229.787.787 0 01-.229-.552c0-.206.084-.407.23-.552z" fill="#000"/></svg>