<svg width="295" height="48" fill="none" xmlns="http://www.w3.org/2000/svg"><g clip-path="url(#clip0)"><path fill-rule="evenodd" clip-rule="evenodd" d="M62.275 20.1c0 11.1-8.964 20.098-20.022 20.099-11.058 0-20.023-9-20.022-20.1C22.23 8.999 31.195 0 42.253 0c11.058 0 20.022 8.999 20.022 20.1z" fill="#E0E0E0"/><path d="M65.196 18.174h-3.157V10.97h3.348c1.436 0 5.025.096 5.025 3.506 0 3.746-4.068 3.698-5.216 3.698zm16.89 9.173c-1.006-4.514-4.355-5.811-6.603-6.148v-.095c4.352-.72 7.846-3.746 7.846-8.646 0-8.5-8.756-8.98-13.491-8.98H55.91l-1.59.195-.732.12c-2.586.405-8.132 2.16-10.516 4.864-.799.897-1.246 1.84-1.248 2.88-.01 1.202.84 2.291 2.14 3.29 1.287.993 2.927 1.827 4.195 2.582 2.232 1.33 4.287 2.48 5.842 3.971 1.556 1.483 3.43 3.39 3.418 5.96-.023 3.42-1.074 6.876-4.646 9.757h9.84V25.378h2.869c1.388 0 3.732.385 4.164 3.314l1.242 8.405h13.397l-2.2-9.75zM34.03 22.544c-2.523-1.373-4.692-2.693-6.276-4.265-1.583-1.561-2.573-3.441-2.565-5.736.015-3.417 2.602-6.54 5.797-9.066h-9.599V15.1h-8.565V3.477H0v33.62h12.822v-12.39h8.565v12.39h5.538l.274-.056c2.836-.58 6.072-1.605 8.54-3.039 2.49-1.443 4.09-3.23 4.074-5.24-.011-1.337-.386-2.228-1.288-3.183-.904-.947-2.388-1.893-4.495-3.035z" fill="silver"/></g><path d="M109.207 17.814h-2.564v-4.519h-4.086v4.519h-2.563V6.598h2.563v4.294h4.086V6.598h2.564v11.216zm2.001-5.608c0-1.656.55-3.034 1.65-4.134 1.111-1.11 2.547-1.666 4.31-1.666 1.752 0 3.178.528 4.278 1.586 1.121 1.057 1.682 2.462 1.682 4.214 0 1.687-.566 3.076-1.698 4.166-1.122 1.089-2.542 1.634-4.262 1.634-1.741 0-3.173-.529-4.294-1.586-1.111-1.058-1.666-2.463-1.666-4.214zm2.723 0c0 .95.316 1.757.946 2.42.619.65 1.383.976 2.291.976 1.025 0 1.821-.315 2.387-.945.566-.651.849-1.469.849-2.451 0-1.015-.309-1.832-.929-2.452-.63-.63-1.399-.945-2.307-.945-.94 0-1.714.315-2.323.945-.609.63-.914 1.448-.914 2.452zm13.767 5.608h-2.563V6.598h2.579l3.461 4.727 3.269-4.727h2.419v11.216h-2.564v-7.146l-3.124 4.374h-.369l-3.108-4.326v7.098zm18.78 0h-6.809V6.598h6.649V9h-4.086v1.971h3.605v2.403h-3.605v2.035h4.246v2.404zm9.572-3.077c0-.47-.55-.966-1.651-1.49a27.59 27.59 0 0 1-.849-.384 8.013 8.013 0 0 1-.801-.513 4.48 4.48 0 0 1-.721-.69 3.608 3.608 0 0 1-.481-.88 3.061 3.061 0 0 1-.176-1.138c0-.897.331-1.66.994-2.291.662-.63 1.538-.945 2.627-.945 1.432 0 2.532.41 3.301 1.233l-1.378 1.923c-.31-.288-.582-.486-.817-.593-.225-.107-.518-.16-.881-.16-.353 0-.631.075-.834.224a.73.73 0 0 0-.288.61c0 .288.112.544.336.768.235.225.524.411.866.561.352.139.731.315 1.137.529.406.213.78.443 1.122.689.352.235.641.571.865 1.01.235.426.353.928.353 1.505 0 .961-.369 1.752-1.106 2.371-.716.62-1.629.93-2.74.93a5.495 5.495 0 0 1-2.307-.497c-.737-.331-1.234-.78-1.49-1.346l1.458-1.746a3.03 3.03 0 0 0 1.089.881 3.1 3.1 0 0 0 1.314.304c.331 0 .588-.074.769-.224a.79.79 0 0 0 .289-.64zm13.933 3.077h-2.563v-4.519h-4.086v4.519h-2.563V6.598h2.563v4.294h4.086V6.598h2.563v11.216zm2.001-5.608c0-1.656.55-3.034 1.651-4.134 1.111-1.11 2.547-1.666 4.31-1.666 1.751 0 3.177.528 4.278 1.586 1.121 1.057 1.682 2.462 1.682 4.214 0 1.687-.566 3.076-1.698 4.166-1.122 1.089-2.543 1.634-4.262 1.634-1.741 0-3.173-.529-4.294-1.586-1.111-1.058-1.667-2.463-1.667-4.214zm2.724 0c0 .95.315 1.757.945 2.42.62.65 1.384.976 2.292.976 1.025 0 1.821-.315 2.387-.945.566-.651.849-1.469.849-2.451 0-1.015-.31-1.832-.929-2.452-.63-.63-1.399-.945-2.307-.945-.94 0-1.715.315-2.324.945-.608.63-.913 1.448-.913 2.452zM188.475 14v3.814h-2.564V6.598c.492 0 1.031-.005 1.619-.016.598-.01 1.201-.016 1.81-.016 1.581 0 2.735.352 3.461 1.057.716.684 1.073 1.57 1.073 2.66 0 1.047-.379 1.939-1.137 2.676-.759.726-1.763 1.09-3.012 1.09-.556 0-.972-.017-1.25-.049zm1.121-5.03c-.01 0-.058.005-.144.015-.085 0-.219.006-.4.016h-.577v2.564c.448.053.838.08 1.169.08.438 0 .796-.112 1.074-.336.288-.236.433-.583.433-1.042 0-.865-.518-1.298-1.555-1.298zM198.44 14v3.814h-2.564V6.598c.492 0 1.031-.005 1.619-.016.598-.01 1.201-.016 1.81-.016 1.581 0 2.735.352 3.461 1.057.716.684 1.074 1.57 1.074 2.66 0 1.047-.38 1.939-1.138 2.676-.758.726-1.762 1.09-3.012 1.09-.556 0-.972-.017-1.25-.049zm1.122-5.03a2.53 2.53 0 0 0-.145.015c-.085 0-.219.006-.4.016h-.577v2.564c.449.053.839.08 1.17.08.438 0 .795-.112 1.073-.336.289-.236.433-.583.433-1.042 0-.865-.518-1.298-1.554-1.298zm9.003 8.844h-2.563V6.598h2.563v11.216zm12.744-11.216v11.216h-2.051l-5.319-6.73v6.73h-2.404V6.598h2.051l5.319 6.761V6.598h2.404zm9.806 7.226h-2.387v-2.403h4.79v4.999c-.48.48-1.121.865-1.922 1.153-.78.289-1.538.433-2.275.433-1.88 0-3.354-.524-4.423-1.57-1.057-1.047-1.586-2.457-1.586-4.23 0-1.656.518-3.034 1.554-4.134 1.047-1.11 2.425-1.666 4.134-1.666 1.474 0 2.697.39 3.669 1.17l-1.073 2.066c-.225-.235-.556-.432-.994-.593a3.665 3.665 0 0 0-1.297-.24c-.994 0-1.79.294-2.388.881-.587.588-.881 1.426-.881 2.516 0 1.036.299 1.864.897 2.483.609.609 1.416.913 2.42.913.299 0 .635-.058 1.009-.176.353-.117.604-.245.753-.384v-1.218zm10.251.064v3.926h-2.564V6.598c.609 0 1.282-.005 2.019-.016.737-.01 1.335-.016 1.794-.016 2.767 0 4.15 1.196 4.15 3.589 0 1.538-.63 2.617-1.891 3.236l3.269 4.423h-3.108l-2.724-3.926h-.945zm1.121-4.919c-.011 0-.059.006-.144.016-.086 0-.219.006-.401.016h-.576v2.484h.929c1.164 0 1.746-.433 1.746-1.298 0-.812-.518-1.218-1.554-1.218zm13.761-2.371h2.564v6.585c0 1.613-.438 2.82-1.314 3.621-.865.801-1.955 1.202-3.269 1.202-1.495 0-2.681-.422-3.557-1.266-.886-.854-1.33-2.077-1.33-3.67V6.599h2.564v5.928c0 2.051.774 3.076 2.323 3.076.716 0 1.229-.24 1.538-.72.321-.481.481-1.218.481-2.212V6.598zm9.325 8.14c0-.47-.55-.967-1.651-1.49-.32-.14-.603-.268-.849-.385a8.013 8.013 0 0 1-.801-.513 4.48 4.48 0 0 1-.721-.69 3.575 3.575 0 0 1-.481-.88 3.061 3.061 0 0 1-.176-1.138c0-.897.331-1.66.993-2.291.663-.63 1.539-.945 2.628-.945 1.431 0 2.532.41 3.301 1.233l-1.378 1.923c-.31-.288-.582-.486-.817-.593-.225-.107-.518-.16-.882-.16-.352 0-.63.075-.833.224a.73.73 0 0 0-.288.61c0 .288.112.544.336.768.235.225.524.411.866.561.352.139.731.315 1.137.529.406.213.78.443 1.122.689.352.235.641.571.865 1.01.235.426.352.928.352 1.505 0 .961-.368 1.752-1.105 2.371-.716.62-1.629.93-2.74.93a5.495 5.495 0 0 1-2.307-.497c-.737-.331-1.234-.78-1.49-1.346l1.458-1.746a3.03 3.03 0 0 0 1.089.881 3.1 3.1 0 0 0 1.314.304c.331 0 .588-.074.769-.224a.793.793 0 0 0 .289-.64zm8.838 0c0-.47-.55-.967-1.65-1.49a24.307 24.307 0 0 1-.849-.385 8.013 8.013 0 0 1-.801-.513 4.44 4.44 0 0 1-.721-.69 3.575 3.575 0 0 1-.481-.88 3.061 3.061 0 0 1-.176-1.138c0-.897.331-1.66.993-2.291.662-.63 1.538-.945 2.628-.945 1.431 0 2.531.41 3.3 1.233l-1.378 1.923c-.309-.288-.582-.486-.817-.593-.224-.107-.518-.16-.881-.16-.352 0-.63.075-.833.224a.732.732 0 0 0-.289.61c0 .288.113.544.337.768.235.225.523.411.865.561.353.139.732.315 1.138.529.406.213.78.443 1.121.689.353.235.641.571.866 1.01.235.426.352.928.352 1.505 0 .961-.369 1.752-1.106 2.371-.715.62-1.628.93-2.739.93a5.503 5.503 0 0 1-2.308-.497c-.737-.331-1.233-.78-1.49-1.346l1.458-1.746a3.04 3.04 0 0 0 1.09.881 3.1 3.1 0 0 0 1.314.304c.331 0 .587-.074.769-.224a.792.792 0 0 0 .288-.64zm7.445 3.076h-2.564V6.598h2.564v11.216zm4.107 0h-2.579l4.662-11.216h2.291L295 17.814h-2.74l-.929-2.356h-4.438l-.93 2.356zm4.406-4.76l-1.249-3.172-1.266 3.173h2.515z" fill="silver"/><path d="M109.207 36.642h-2.564v-4.519h-4.086v4.519h-2.563V25.426h2.563v4.294h4.086v-4.294h2.564v11.216zm7-3.077c0-.47-.551-.966-1.651-1.49a27.59 27.59 0 0 1-.849-.384 8.013 8.013 0 0 1-.801-.513 4.48 4.48 0 0 1-.721-.689 3.577 3.577 0 0 1-.481-.881 3.061 3.061 0 0 1-.176-1.138c0-.897.331-1.66.993-2.291.663-.63 1.539-.945 2.628-.945 1.431 0 2.532.41 3.301 1.233l-1.378 1.923c-.31-.288-.582-.486-.817-.593-.225-.107-.518-.16-.882-.16-.352 0-.63.075-.833.224a.73.73 0 0 0-.288.61c0 .288.112.544.336.768.235.225.524.412.866.561.352.139.731.315 1.137.529.406.213.78.443 1.122.689.352.235.641.571.865 1.01.235.427.352.928.352 1.505 0 .962-.368 1.752-1.105 2.372-.716.62-1.629.929-2.74.929a5.495 5.495 0 0 1-2.307-.497c-.737-.33-1.234-.78-1.49-1.346l1.458-1.746a3.03 3.03 0 0 0 1.089.881c.438.203.876.305 1.314.305.331 0 .588-.075.769-.225a.793.793 0 0 0 .289-.64zm7.364-.849v3.926h-2.563V25.426c.608 0 1.281-.005 2.018-.016.737-.01 1.336-.016 1.795-.016 2.766 0 4.15 1.196 4.15 3.589 0 1.538-.631 2.617-1.891 3.236l3.269 4.423h-3.109l-2.724-3.926h-.945zm1.122-4.919c-.011 0-.059.006-.145.016a7.58 7.58 0 0 0-.4.016h-.577v2.484h.929c1.165 0 1.747-.433 1.747-1.298 0-.812-.518-1.218-1.554-1.218zm14.337 8.845h-7.242v-1.923l.785-.753.882-.881c.192-.214.448-.481.769-.802.363-.384.619-.688.769-.913l.528-.817c.374-.566.561-1.148.561-1.746 0-.737-.342-1.106-1.025-1.106-.31 0-.556.102-.737.305-.182.192-.347.49-.497.897l-2.003-.913c.193-.844.588-1.501 1.186-1.971.609-.48 1.389-.721 2.339-.721 1.036 0 1.843.294 2.42.881.587.588.881 1.303.881 2.147 0 2.126-1.25 4.15-3.749 6.072h4.133v2.244zm8.307 0h-2.403v-2.404h-5.095v-1.794l4.005-7.018h2.756l-3.669 6.409h2.003v-2.403h2.403v2.403h1.314v2.403h-1.314v2.404zm2.277-1.539c0-.395.155-.742.464-1.041.31-.31.7-.465 1.17-.465.417 0 .769.155 1.057.465.3.3.449.646.449 1.041 0 .45-.144.834-.432 1.154-.278.32-.636.48-1.074.48-.481 0-.876-.154-1.186-.464a1.651 1.651 0 0 1-.448-1.17zm7.792-2.387v3.926h-2.563V25.426c.609 0 1.282-.005 2.019-.016a129 129 0 0 1 1.794-.016c2.767 0 4.15 1.196 4.15 3.589 0 1.538-.63 2.617-1.891 3.236l3.269 4.423h-3.108l-2.724-3.926h-.946zm1.122-4.919c-.011 0-.059.006-.144.016-.086 0-.219.006-.401.016h-.577v2.484h.93c1.164 0 1.746-.433 1.746-1.298 0-.812-.518-1.218-1.554-1.218zm13.841-2.371h2.564v6.585c0 1.613-.438 2.82-1.314 3.621-.865.801-1.955 1.202-3.269 1.202-1.495 0-2.681-.422-3.557-1.266-.886-.854-1.33-2.077-1.33-3.669v-6.473h2.564v5.928c0 2.051.774 3.077 2.323 3.077.716 0 1.229-.24 1.538-.721.321-.481.481-1.218.481-2.212v-6.072z" fill="#E0E0E0"/><defs><clipPath id="clip0"/></defs></svg>