<svg width="32" height="32" fill="none" xmlns="http://www.w3.org/2000/svg"><path fill-rule="evenodd" clip-rule="evenodd" d="M20.231 16.844a1.117 1.117 0 00-1.51-.334 4.908 4.908 0 01-5.041 0 1.117 1.117 0 00-1.51.334 1.036 1.036 0 00.342 1.46c.677.41 1.41.702 2.173.87l-2.091 2.02a1.033 1.033 0 000 1.496c.215.207.495.31.775.31.282 0 .562-.104.777-.31l2.054-1.985 2.057 1.984a1.127 1.127 0 001.55 0 1.02 1.02 0 00.322-.748 1.036 1.036 0 00-.322-.749l-2.093-2.02a7.145 7.145 0 002.173-.87c.513-.311.667-.964.344-1.459zm-4.03-5.726c.854 0 1.549.67 1.549 1.495 0 .825-.696 1.496-1.55 1.496-.854 0-1.55-.672-1.55-1.496s.696-1.496 1.55-1.496v.001zm0 5.107c2.065 0 3.742-1.62 3.742-3.612S18.263 9 16.199 9s-3.742 1.621-3.742 3.613 1.678 3.612 3.742 3.612h.001z" fill="#101010"/><path fill-rule="evenodd" clip-rule="evenodd" d="M16 4.5C9.649 4.5 4.5 9.649 4.5 16S9.649 27.5 16 27.5 27.5 22.351 27.5 16 22.351 4.5 16 4.5zM3.5 16C3.5 9.096 9.096 3.5 16 3.5S28.5 9.096 28.5 16 22.904 28.5 16 28.5 3.5 22.904 3.5 16z" fill="#101010"/></svg>