<?xml version="1.0" encoding="utf-8"?><svg xmlns="http://www.w3.org/2000/svg" xmlns:xlink="http://www.w3.org/1999/xlink"><symbol fill="none" viewBox="0 0 32 32" id="24h" xmlns="http://www.w3.org/2000/svg"><path d="M29.5 15.45a.5.5 0 0 0-.5.5 13 13 0 1 1-2.7-7.91h-2.22a.5.5 0 1 0 0 1h3.33a.49.49 0 0 0 .5-.45l.29-3.29a.5.5 0 0 0-.46-.54.48.48 0 0 0-.54.45L27 7.34a14 14 0 1 0 3 8.61.5.5 0 0 0-.5-.5z" fill="#101010"/><path d="M13.13 15.57a4.424 4.424 0 0 1-.46.67c-.18.23-.39.47-.62.72l-2.81 2.99a.74.74 0 0 0-.22.33 1 1 0 0 0-.06.34v.55h6.34v-1a.49.49 0 0 0 0-.21.549.549 0 0 0-.12-.19.42.42 0 0 0-.18-.11.54.54 0 0 0-.22 0h-2.41c-.19.006-.381.023-.57.05-.2 0-.39.09-.59.15l2.08-2.22c.24-.27.49-.53.71-.79.22-.25.417-.517.59-.8.163-.272.297-.56.4-.86.108-.322.159-.66.15-1a2.779 2.779 0 0 0-.21-1.24 2.579 2.579 0 0 0-.59-.87 2.64 2.64 0 0 0-.91-.55 3.537 3.537 0 0 0-1.16-.2c-.39 0-.778.06-1.15.18a2.85 2.85 0 0 0-1.63 1.4 3.75 3.75 0 0 0-.37 1.22l.82.15a.75.75 0 0 0 .51 0 .84.84 0 0 0 .28-.41c.05-.162.131-.311.24-.44a1.339 1.339 0 0 1 .73-.59 1.597 1.597 0 0 1 1.08.01 1 1 0 0 1 .42.26c.12.13.212.283.27.45.07.195.1.402.09.61a2.321 2.321 0 0 1-.43 1.4zm8.75 5.55v-2.38h.97a.41.41 0 0 0 .15-.09.43.43 0 0 0 .08-.24v-1h-1.2v-6h-1.49L16 17.53l.17.85a.46.46 0 0 0 .15.26.42.42 0 0 0 .28.1h3.91v2.38h1.37zm-4.19-3.67l2.87-4.23v4.23h-2.87z" fill="#101010"/></symbol><symbol fill="none" viewBox="0 0 32 32" id="adv-product" xmlns="http://www.w3.org/2000/svg"><path d="M5.777 10.696c1.122-1.252 3.742-.503 3.742-.503v9.483s-2.663.48-3.677-.409c-1.013-.888-1.187-7.318-.065-8.57z" fill="#C0FBF8"/><path fill="#3085F8" d="M9.519 10.255h4.502v9.754H9.519z"/><path d="M14.02 10.255s1.876-.75 3.752.375c1.227.736 1.27 4.93.75 7.127l-1.125 1.126s-.75 1.125-3.376 1.125v-9.753z" fill="#F61D2A"/><path d="M7.002 24.324a.4.4 0 1 0 .528.6l-.528-.6zm3.002-1.573a.4.4 0 1 0-.528-.601l.528.6zM8.608 2.91a.4.4 0 0 0-.584.547l.584-.547zm3.082 3.872l-.292.273a.4.4 0 0 0 .586-.003l-.294-.27zM17.757.755a.4.4 0 1 0-.59-.54l.59.54zm7.127 21.62h.4a.4.4 0 0 0-.4-.4v.4zm-5.848 0v-.4a.4.4 0 0 0-.4.4h.4zm1.25 1.275a.4.4 0 0 0 .8 0h-.8zm2.473 0a.4.4 0 0 0 .8 0h-.8zm5.923.225c0 3.493-2.93 6.346-6.572 6.346v.8c4.059 0 7.372-3.187 7.372-7.146h-.8zM22.11 30.22c-3.642 0-6.572-2.853-6.572-6.346h-.8c0 3.959 3.313 7.147 7.372 7.147v-.8zm-6.572-6.346c0-3.494 2.93-6.348 6.572-6.348v-.8c-4.059 0-7.372 3.188-7.372 7.148h.8zm6.572-6.348c3.642 0 6.572 2.854 6.572 6.348h.8c0-3.96-3.313-7.148-7.372-7.148v.8zM15.213 21.9H5.767v.8h9.446v-.8zm-9.446 0c-1.315 0-2.449-1.205-2.449-2.748h-.8c0 1.905 1.416 3.548 3.25 3.548v-.8zm-2.449-2.748v-8.847h-.8v8.846h.8zm0-8.847c0-1.543 1.134-2.748 2.45-2.748v-.8c-1.834 0-3.25 1.643-3.25 3.548h.8zm2.45-2.748h12.519v-.8H5.767v.8zm12.519 0c1.315 0 2.448 1.205 2.448 2.748h.8c0-1.905-1.415-3.548-3.248-3.548v.8zm2.448 2.748v6.747h.8v-6.747h-.8zm-4.173 9.271h-8.47v.8h8.47v-.8zm-8.47 0c-1.361 0-2.45-1.102-2.45-2.374h-.8c0 1.727 1.46 3.174 3.25 3.174v-.8zm-2.45-2.374V12.63h-.8v4.573h.8zm0-4.573c0-1.271 1.089-2.373 2.45-2.373v-.8c-1.79 0-3.25 1.446-3.25 3.173h.8zm2.45-2.373h7.946v-.8H8.09v.8zm7.946 0c1.36 0 2.448 1.102 2.448 2.373h.8c0-1.727-1.46-3.173-3.248-3.173v.8zm2.448 2.373v5.173h.8V12.63h-.8zM7.53 24.925l2.474-2.174-.528-.601-2.474 2.174.528.6zm.494-21.468l3.374 3.598.583-.547L8.608 2.91l-.584.547zm3.96 3.595L17.757.755l-.59-.54-5.772 6.297.59.54zm7.877 20.82h4.198v-.8h-4.198v.8zm4.198 0c.67 0 1.225-.553 1.225-1.224h-.8a.432.432 0 0 1-.425.425v.8zm1.225-1.224v-4.273h-.8v4.273h.8zm-.4-4.673h-5.848v.8h5.848v-.8zm-6.248.4v4.273h.8v-4.273h-.8zm0 4.273c0 .364.133.679.37.901.234.219.542.324.855.324v-.8a.442.442 0 0 1-.307-.107c-.063-.059-.118-.156-.118-.318h-.8zm2.05-2.998h.4V21.177h-.8v2.472h.4zm.4-2.474c0-.304.11-.503.252-.63a.882.882 0 0 1 .585-.207c.224 0 .435.075.584.208.143.126.252.325.252.629h.8c0-.521-.199-.941-.52-1.227a1.68 1.68 0 0 0-1.116-.41 1.68 1.68 0 0 0-1.117.41c-.321.286-.52.706-.52 1.227h.8zm1.674 0v2.473h.8V21.177h-.8z" fill="#101010"/></symbol><symbol fill="none" viewBox="0 0 32 32" id="all" xmlns="http://www.w3.org/2000/svg"><path d="M7 13.995a.5.5 0 1 0 0 1v-1zm18 1a.5.5 0 0 0 0-1v1zm-18-6a.5.5 0 0 0 0 1v-1zm18 1a.5.5 0 0 0 0-1v1zm-18 9a.5.5 0 1 0 0 1v-1zm18 1a.5.5 0 0 0 0-1v1zm-18 4a.5.5 0 1 0 0 1v-1zm18 1a.5.5 0 0 0 0-1v1zm-18-10h18v-1H7v1zm0-5h18v-1H7v1zm0 10h18v-1H7v1zm0 5h18v-1H7v1z" fill="#101010"/></symbol><symbol fill="none" viewBox="0 0 16 32" id="arrow-slider" xmlns="http://www.w3.org/2000/svg"><path d="M.617 32a.56.56 0 0 1-.43-.193A.615.615 0 0 1 0 31.36a.636.636 0 0 1 .186-.448l14.316-14.913L.186 1.085A.615.615 0 0 1 0 .637.636.636 0 0 1 .186.19.614.614 0 0 1 .623 0a.594.594 0 0 1 .437.19l14.758 15.36a.642.642 0 0 1 .182.455.663.663 0 0 1-.182.454L1.06 31.82a.577.577 0 0 1-.443.18z" fill="#101010"/></symbol><symbol fill="none" viewBox="0 0 24 24" id="ask" xmlns="http://www.w3.org/2000/svg"><path d="M9.473 3.5C8.187 3.5 7.1 4.534 7 5.776v.103c0 .31.198.518.594.518.395 0 .593-.207.593-.518 0-.31.1-.724.396-.93.198-.208.593-.415.89-.415.693 0 1.286.621 1.286 1.345 0 .518-.297.931-.692 1.138-.693.31-1.088 1.035-1.088 1.759v.207c0 .31.197.517.593.517.396 0 .594-.207.594-.517v-.207c0-.31.197-.62.494-.828 1.187-.62 1.682-1.965 1.088-3.207-.494-.724-1.384-1.241-2.275-1.241zm.127 8.198a.6.6 0 1 0 0-1.2.6.6 0 0 0 0 1.2z" fill="#fff"/><path d="M10.557 14.15h3.284c1.89 0 3.383-1.565 3.383-3.34V4.34C17.224 2.46 15.73 1 13.84 1H5.383C3.493 1 2 2.566 2 4.34v6.47c0 1.88 1.493 3.34 3.383 3.34v5.115l5.174-5.115z" stroke="#fff" stroke-width=".8" stroke-miterlimit="10" stroke-linecap="round" stroke-linejoin="round"/><path d="M17.323 7.888h2.19c1.392 0 2.487 1.253 2.487 2.714v5.114c0 1.461-1.393 2.714-2.786 2.714v4.07l-3.383-4.07h-2.388c-1.393 0-2.488-1.253-2.488-2.714v-1.148" stroke="#fff" stroke-width=".8" stroke-miterlimit="10" stroke-linecap="round" stroke-linejoin="round"/></symbol><symbol fill="none" viewBox="0 0 32 32" id="beauty" xmlns="http://www.w3.org/2000/svg"><path d="M18.752 12.096a2.318 2.318 0 0 0 1.978-1.103 2.363 2.363 0 0 0 .106-2.289L19.109 5.23a.39.39 0 0 0-.357-.219.397.397 0 0 0-.365.22L16.66 8.704a2.356 2.356 0 0 0 .953 3.098c.348.196.74.3 1.14.303v-.009zM17.39 9.061l1.362-2.743 1.322 2.743a1.535 1.535 0 0 1-1.354 2.224 1.54 1.54 0 0 1-1.298-.723 1.527 1.527 0 0 1-.032-1.5z" fill="#101010"/><path d="M28.578 17.193a.413.413 0 0 0-.494-.3c-.073 0-7.443 1.801-9.73 1.801-1.248 0-4.588-1.826-6.793-3.035l-1.322-.714a.438.438 0 0 1-.227-.357.423.423 0 0 1 .178-.398.438.438 0 0 1 .373-.073l5.457 1.477c-.005.07-.005.141 0 .211a1.212 1.212 0 0 0 .34.869c.217.212.508.331.811.332h.049l3.518-.186a.398.398 0 0 0 .381-.422.383.383 0 0 0-.43-.382l-3.55.195a.292.292 0 0 1-.252-.097.357.357 0 0 1-.105-.26.341.341 0 0 1 .235-.317c.576-.178 1.516-.519 2.554-.884 1.038-.365 1.962-.698 2.838-.99 2.205-.739 5.675-.065 5.675-.057a.413.413 0 0 0 .162-.812c-.146 0-3.697-.73-6.113.082-.876.292-1.905.657-2.854.998a83.1 83.1 0 0 1-2.521.876c-.098.035-.19.08-.276.138l-1.622-.446v-.495a3.54 3.54 0 0 0-3.518-3.547V8.704a1.386 1.386 0 0 0 .75-2.374 1.386 1.386 0 0 0-.929-.385h-.178v-1.72a.812.812 0 0 0-.81-.812h-2.32a.81.81 0 0 0-.81.811v1.753h-.179A1.386 1.386 0 0 0 5.485 7.26a1.389 1.389 0 0 0 1.17 1.477v1.679a3.525 3.525 0 0 0-3.242 3.514v11.11a3.542 3.542 0 0 0 2.174 3.275 3.53 3.53 0 0 0 1.352.272h4.386a3.533 3.533 0 0 0 3.52-3.546v-6.728a10.113 10.113 0 0 0 3.494 1.193c2.359 0 9.59-1.753 9.899-1.826a.403.403 0 0 0 .34-.487zm-21.08-8.44h3.05v1.623H7.473L7.5 8.753zm.374-4.513h2.319v1.753H7.912l-.04-1.753zM6.29 7.365a.577.577 0 0 1 .575-.576h4.29a.575.575 0 1 1 0 1.152H6.882a.575.575 0 0 1-.592-.576zm7.783 17.676a2.728 2.728 0 0 1-2.708 2.735H6.98a2.723 2.723 0 0 1-2.716-2.735V13.947a2.729 2.729 0 0 1 2.716-2.735h4.386a2.722 2.722 0 0 1 2.708 2.735v.276l-3.243-.885a1.207 1.207 0 0 0-1.07.203 1.25 1.25 0 0 0-.503 1.104 1.226 1.226 0 0 0 .665 1.014l1.305.714a95.305 95.305 0 0 0 2.878 1.534l-.032 7.134z" fill="#101010"/><path d="M10.612 18.556l-.186-.292a1.436 1.436 0 0 0-2.433 0l-.186.292h-.349a1.443 1.443 0 0 0-1.167.698 1.462 1.462 0 0 0 0 1.404l.17.309-.17.3a1.446 1.446 0 0 0 1.224 2.126h.349l.186.293a1.435 1.435 0 0 0 2.432 0l.187-.293h.348a1.441 1.441 0 0 0 1.396-1.421 1.445 1.445 0 0 0-.171-.705l-.163-.3.163-.309a1.462 1.462 0 0 0 0-1.404 1.444 1.444 0 0 0-1.2-.714l-.43.016zm.851 1.753l-.202.39a.642.642 0 0 0 0 .592l.202.39a.634.634 0 0 1-.535.933h-.438a.64.64 0 0 0-.518.292l-.227.374a.633.633 0 0 1-1.079 0l-.227-.374a.64.64 0 0 0-.519-.292h-.437a.632.632 0 0 1-.536-.925l.203-.39a.641.641 0 0 0 0-.592l-.203-.39a.625.625 0 0 1 .536-.925h.437a.648.648 0 0 0 .52-.3l.226-.373a.632.632 0 0 1 1.079 0l.227.373a.65.65 0 0 0 .519.3h.437a.623.623 0 0 1 .535.917z" fill="#101010"/><path d="M9.21 20.244a.753.753 0 0 0-.534 1.289.754.754 0 1 0 .533-1.289z" fill="#101010"/></symbol><symbol fill="none" viewBox="0 0 32 32" id="cart" xmlns="http://www.w3.org/2000/svg"><path d="M7.869 28h15.962c1.107 0 2.03-1.013 1.845-2.118L23.277 10.5H8.515L6.024 25.882C5.839 26.987 6.762 28 7.869 28z" stroke="#101010" stroke-width=".8" stroke-miterlimit="10" stroke-linecap="round" stroke-linejoin="round"/><path d="M12.2 14V7.636c0-2 1.665-3.636 3.7-3.636s3.7 1.636 3.7 3.636V14" stroke="#101010" stroke-width=".8" stroke-miterlimit="10" stroke-linecap="round" stroke-linejoin="round"/></symbol><symbol fill="none" viewBox="0 0 24 24" id="consultant" xmlns="http://www.w3.org/2000/svg"><path d="M14.093 13.579c2.547-.842 3.325-3.088 3.396-3.298.778.14 1.627-.07 2.051-.702.566-.772.708-2.246-.141-3.368-.425-.632-1.415-.702-2.123-.702A5.818 5.818 0 0 0 11.9 2C9.495 2 7.372 3.474 6.453 5.579c-.708 0-1.627.14-1.981.772-.708 1.193-.566 2.596.07 3.368a2.07 2.07 0 0 0 2.76.421C7.16 9.86 6.24 8.175 7.019 6c0-.07.07-.21.141-.28.849-1.755 2.618-3.018 4.74-3.018 2.9 0 5.235 2.316 5.235 5.193 0 1.123-.283 1.894-.425 2.105 0 0-.778 2.035-3.042 2.737-.141-.07-.212-.14-.353-.14h-2.83a.782.782 0 0 0-.778.771v.281c0 .14.07.28.141.421-2.759.702-4.669 2.737-5.164 5.755-.141.49 0 1.052.354 1.473.353.421.849.702 1.415.702h11.106c.496 0 .92-.21 1.274-.561.354-.422.566-.983.495-1.544-.566-3.088-2.547-5.193-5.377-5.825.071-.14.142-.21.142-.35v-.141zm4.527 6.386c.071.35-.07.702-.353.982-.212.21-.495.351-.778.351H6.453c-.354 0-.637-.14-.85-.42-.212-.211-.282-.562-.212-.913.566-3.509 3.042-5.474 6.65-5.474 3.537.07 6.014 2.105 6.58 5.474z" fill="#fff"/><circle cx="11.9" cy="8" r="3.6" stroke="#fff" stroke-width=".8"/></symbol><symbol fill="none" viewBox="0 0 32 32" id="dacha" xmlns="http://www.w3.org/2000/svg"><path fill-rule="evenodd" clip-rule="evenodd" d="M12.27 4.124a.703.703 0 0 1 .686-.47h7.476c.307 0 .583.165.705.441.124.283.052.602-.17.832L19.61 6.332l4.561 20.27c.114.425-.008.856-.233 1.17-.226.316-.597.574-1.04.574H10.49a1.39 1.39 0 0 1-1.355-1.74L13.702 6.4l-1.295-1.489a.856.856 0 0 1-.137-.787zm.85.353l1.34 1.54c.086.1.12.233.09.361L9.938 26.797c-.096.398.182.726.554.726h12.406c.113 0 .258-.07.371-.229a.587.587 0 0 0 .102-.503L18.758 6.296a.412.412 0 0 1 .105-.377l1.394-1.442H13.12z" fill="#101010"/><path fill-rule="evenodd" clip-rule="evenodd" d="M7.705 10.238c.114 0 .223.046.301.129l4.136 4.362a.412.412 0 0 1-.598.566l-3.832-4.042-1.11 1.206 4.265 9.63a.412.412 0 0 1-.752.333L5.74 12.545a.411.411 0 0 1 .073-.445l1.59-1.729a.412.412 0 0 1 .3-.133z" fill="#101010"/><path fill-rule="evenodd" clip-rule="evenodd" d="M7.066 9.034L4.529 11.81l1.45.075a.411.411 0 1 1-.042.822l-1.583-.082c-.36-.007-.562-.299-.637-.484-.074-.185-.13-.53.111-.784L6.59 8.335c.215-.297.572-.322.823-.213.255.11.463.37.468.706l.079 1.72a.412.412 0 0 1-.823.038l-.07-1.552zm16.718 1.211c-1.086.139-2.214.761-2.904 2.152a.412.412 0 0 1-.737-.366c.82-1.655 2.198-2.432 3.537-2.602 1.312-.167 2.631.245 3.34 1.027 1.294 1.43 1.9 3.593.612 5.907-.309.57-.713 1.006-1.138 1.392-.212.193-.433.376-.65.555l-.019.017c-.212.175-.42.348-.626.531-.829.741-1.604 1.657-1.979 3.402a.412.412 0 0 1-.805-.173c.42-1.96 1.315-3.02 2.236-3.842.217-.195.436-.376.645-.549l.024-.02c.218-.18.425-.352.62-.53.39-.354.721-.72.97-1.177l.002-.005c1.095-1.965.588-3.751-.503-4.955-.485-.536-1.51-.905-2.625-.764z" fill="#101010"/><path d="M20.67 14.025h-8.11c-.16 0-.318-.165-.318-.412 0-.247.159-.411.318-.411h8.111c.16 0 .318.164.318.411 0 .247-.159.412-.318.412zm-1.431-7.243h-5.09c-.08 0-.159-.165-.159-.412 0-.247.08-.412.16-.412h5.089c.08 0 .159.165.159.412 0 .247-.08.412-.16.412zm3.579 17.86H10.252c-.159 0-.238-.247-.238-.411 0-.165.159-.412.318-.412h12.565c.16 0 .318.165.318.412 0 .247-.238.411-.397.411zm-6.204-7.819c.16 0 .319.082.478.247l.159.33c.08.164.238.246.397.246h.398c.398 0 .636.494.477.823l-.159.33a.541.541 0 0 0 0 .493l.16.33c.158.329-.08.823-.478.823h-.398a.435.435 0 0 0-.397.247l-.16.329c-.079.164-.238.247-.477.247-.238 0-.318-.083-.477-.247l-.159-.33a.435.435 0 0 0-.397-.246h-.398c-.398 0-.636-.494-.477-.823l.159-.33a.541.541 0 0 0 0-.494l-.16-.329c-.158-.329.08-.823.478-.823h.398a.433.433 0 0 0 .397-.247l.16-.329c.158-.165.317-.247.476-.247zm0-.823c-.477 0-.874.247-1.113.659l-.159.164h-.239c-.477 0-.874.247-1.113.659a1.301 1.301 0 0 0 0 1.317l.08.246-.08.33a1.301 1.301 0 0 0 0 1.317c.239.411.636.658 1.114.658h.238l.16.247c.238.412.635.658 1.112.658.478 0 .875-.246 1.114-.658l.159-.247h.238c.478 0 .875-.247 1.114-.658a1.301 1.301 0 0 0 0-1.317l-.08-.247.08-.247a1.3 1.3 0 0 0 0-1.317c-.239-.412-.636-.659-1.114-.659h-.238l-.16-.247c-.238-.411-.635-.658-1.113-.658z" fill="#101010"/><path d="M16.615 19.786a.648.648 0 0 0 .636-.658.648.648 0 0 0-.636-.659.648.648 0 0 0-.637.659c0 .363.285.658.637.658z" fill="#101010"/></symbol><symbol fill="none" viewBox="0 0 76 76" id="delivery-free" xmlns="http://www.w3.org/2000/svg"><path d="M54.797 29.23V16.5a4 4 0 0 0-4-4H19.875a4 4 0 0 0-4 4v33.916M54.797 29.23v21.187m0-21.187h3.809m9.729 9.177l-2.98-7.884a2 2 0 0 0-1.87-1.293h-4.88m9.73 9.177l3.015 1.605a4.528 4.528 0 0 1 2.4 3.997v0m-5.415-5.602h-7.73a2 2 0 0 1-2-2V29.23m-3.808 21.187H30.985m23.812 0h4.065m-42.987 0v3.192a1 1 0 0 0 1 1h2.96m-3.96-4.192h5.246m52.629 0v3.192a1 1 0 0 1-1 1h-2.308m3.308-4.192v-3.872m0 3.872h-5.023m5.023-3.872h-1.676a1 1 0 0 1-1-1v-.536a1 1 0 0 1 1-1h1.676m0 2.536v-2.536m-41.05 10.6h24.447" stroke="#101010"/><path d="M32.557 54.609c0 3.532-2.85 6.391-6.362 6.391s-6.362-2.86-6.362-6.391c0-3.532 2.85-6.392 6.362-6.392 3.511 0 6.362 2.86 6.362 6.392z" stroke="#101010"/><path d="M28.134 54.473c0 1.153-.93 2.084-2.074 2.084a2.079 2.079 0 0 1-2.073-2.084c0-1.153.93-2.084 2.073-2.084a2.08 2.08 0 0 1 2.074 2.084zm37.757 0c0 1.153-.93 2.084-2.073 2.084a2.079 2.079 0 0 1-2.073-2.084c0-1.153.93-2.084 2.073-2.084 1.143 0 2.073.931 2.073 2.084z" stroke="#101010"/><path d="M70.18 54.609c0 3.532-2.85 6.391-6.362 6.391s-6.362-2.86-6.362-6.391c0-3.532 2.85-6.392 6.362-6.392s6.362 2.86 6.362 6.392z" stroke="#101010"/><path stroke="#101010" stroke-linecap="round" stroke-linejoin="round" d="M23.694 25.922h23.16v4.307h-23.16z"/><path d="M45.138 30.229V41.15a2 2 0 0 1-2 2H27.41a2 2 0 0 1-2-2V30.23m8.96-4.309v-3.015m0 0c0-1.292-2.573-2.153-3.86-.861-1.286 1.292-.857 3.015 0 3.877m3.86-3.016c.43-2.584 3.324-2.897 4.718-1.723 1.287 1.083 1.287 3.015-.429 4.738m-6.387 4.308V43.15m5.146-12.921V43.15" stroke="#101010"/><path d="M15.74 21.504H8.747m6.995 3.877H2.25m13.49 3.876H6.748" stroke="#101010" stroke-linecap="round" stroke-linejoin="round"/></symbol><symbol fill="none" viewBox="0 0 80 76" id="delivery-loyality" xmlns="http://www.w3.org/2000/svg"><rect x="8.577" y="20.18" width="48.44" height="7.52" rx="1" stroke="#101010"/><path d="M12.355 27.92v24.975a3 3 0 0 0 3 3h8.753M53.239 27.92v16.356M28.988 20.17v24.106M36.58 20.17v24.106" stroke="#000"/><path d="M29.787 15.153l2.974 4.725 2.963-4.6c.936-1.454 1.61-3.277.677-4.732-.604-.94-1.689-1.785-3.64-1.785-2.04 0-3.11.923-3.674 1.913-.804 1.412-.165 3.104.7 4.48zm6.393-.33l-2.752 4.958 5.666.208c1.692.062 3.541-.256 4.376-1.694.575-.989.833-2.365-.177-4.073-1.054-1.78-2.465-2.196-3.65-2.146-1.59.068-2.705 1.38-3.464 2.747zm-6.765 0l2.751 4.958-5.665.208c-1.693.062-3.541-.256-4.377-1.694-.574-.989-.832-2.365.178-4.073 1.053-1.78 2.465-2.196 3.649-2.146 1.59.068 2.706 1.38 3.464 2.747zm1.433 48.41l13.338-13.008" stroke="#101010" stroke-linecap="round" stroke-linejoin="round"/><path d="M45.04 60.623c0 1.493-1.244 2.724-2.805 2.724-1.562 0-2.806-1.231-2.806-2.724 0-1.492 1.244-2.723 2.806-2.723 1.561 0 2.805 1.23 2.805 2.723zm-9.079-8.501c0 1.493-1.244 2.724-2.805 2.724-1.562 0-2.806-1.231-2.806-2.724 0-1.492 1.244-2.723 2.806-2.723 1.561 0 2.805 1.23 2.805 2.723z" stroke="#101010"/><path d="M55.374 49.928h10.405m-13.25 4.673h13.25m0 5.267h-5.528" stroke="#101010" stroke-linecap="round" stroke-linejoin="round"/><rect x="24.45" y="44.535" width="46.807" height="23.103" rx="5" stroke="#101010" stroke-linecap="round" stroke-linejoin="round"/></symbol><symbol fill="none" viewBox="0 0 76 76" id="delivery-point" xmlns="http://www.w3.org/2000/svg"><path d="M49.364 65.27S37.94 68 34.339 68c-2.484 0-9.065-3.846-12.666-5.707-.87-.496-.993-1.612-.248-2.233.372-.248.745-.372 1.117-.248l8.94 2.481" stroke="#000" stroke-miterlimit="10" stroke-linecap="round" stroke-linejoin="round"/><path d="M49.364 59.068s-5.464-1.117-9.065.124c-2.732.992-6.581 2.357-8.195 2.853-.497.124-.87.497-.87.993 0 .62.497 1.24 1.242 1.24l5.464-.372" stroke="#000" stroke-miterlimit="10" stroke-linecap="round" stroke-linejoin="round"/><rect x="49.985" y="56.981" width="3.957" height="10.669" rx="1" stroke="#101010" stroke-linecap="round" stroke-linejoin="round"/><path d="M61 44.999L37.753 53.1V23.52L61 16.244V45zM15 16.244l22.753 7.275M15 16.244V45l22.753 8.1M15 16.245l12.366-4.48M61 16.244L37.753 8l-10.387 3.764m0 0l21.763 8.002" stroke="#101010" stroke-linecap="round" stroke-linejoin="round"/><path d="M42.187 41.202l8.903-2.909v6.073l-8.903 2.909v-6.073zm4.469 1.23v-8.244m0 0l-1.484 1.94m1.484-1.94l1.484.97" stroke="#101010" stroke-linecap="round" stroke-linejoin="round"/></symbol><symbol fill="none" viewBox="0 0 76 76" id="delivery-rf" xmlns="http://www.w3.org/2000/svg"><path d="M32.066 64.5V31.234m0 33.266L5 54.915V21.649M32.066 64.5l25.487-8.752M32.066 31.234l28.17-9.585m-28.17 9.585L5 21.649m55.237 0L32.066 11.5 5 21.649m55.237 0v9.07" stroke="#101010" stroke-linecap="round" stroke-linejoin="round"/><path d="M41.845 15.12L14.41 24.863v13.625l4.148-1.308 4.567 4.318V27.965l27.26-9.774m-4.441 32.731l-9.48 3.467m9.432.18l-3.253 1.19m-6.227 2.277l2.686-.982" stroke="#101010" stroke-linecap="round" stroke-linejoin="round"/><path d="M60.584 60.775l-.432.251a.5.5 0 0 0 .871-.012l-.439-.239zm.432-.25l-8.97-15.452-.864.502 8.97 15.451.864-.502zM50.995 37.722c.614-1.444 1.582-2.996 3.1-4.185 1.51-1.184 3.594-2.033 6.489-2.033v-1c-3.107 0-5.41.917-7.106 2.246-1.688 1.323-2.744 3.032-3.403 4.58l.92.392zm9.589-6.218c3.093 0 5.19.968 6.627 2.274 1.448 1.315 2.263 3.007 2.72 4.503l.957-.292c-.49-1.602-1.38-3.476-3.004-4.951-1.635-1.486-3.978-2.534-7.3-2.534v1zm8.274 13.023l-8.713 16.008.878.478 8.713-16.008-.878-.478zm1.073-6.246c.627 2.05.017 4.242-1.073 6.246l.878.478c1.145-2.104 1.892-4.593 1.152-7.016l-.957.292zm-17.885 6.791c-1.362-2.346-2.05-5.005-1.051-7.35l-.92-.392c-1.179 2.77-.322 5.784 1.107 8.244l.864-.502z" fill="#000"/><path d="M64.818 40.995c0 2.474-1.962 4.462-4.36 4.462-2.4 0-4.361-1.988-4.361-4.462 0-2.473 1.962-4.461 4.36-4.461 2.4 0 4.361 1.988 4.361 4.461z" stroke="#101010"/><mask id="ama" maskUnits="userSpaceOnUse" x="16.078" y="45.133" width="13" height="14" fill="#000"><path fill="#fff" d="M16.078 45.133h13v14h-13z"/><path d="M17.078 48.134a1 1 0 0 1 1.321-.947l8.397 2.845a1 1 0 0 1 .68.948v5.791a1 1 0 0 1-1.322.947l-8.397-2.845a1 1 0 0 1-.679-.947v-5.792z"/></mask><path d="M17.757 54.873l-.32.947.32-.947zm8.397 2.846l.321-.948-.32.947zm.642-7.687l-.32.948.32-.948zM18.4 47.187l.321-.947-.32.947zm-.32.947l8.396 2.846.642-1.895-8.397-2.845-.642 1.894zm8.396 2.846v5.791h2V50.98h-2zm0 5.791l-8.397-2.845-.642 1.894 8.397 2.846.642-1.895zm-8.397-2.845v-5.792h-2v5.792h2zm0 0h-2a2 2 0 0 0 1.358 1.894l.642-1.894zm8.397 2.845l-.642 1.895a2 2 0 0 0 2.642-1.895h-2zm0-5.791h2a2 2 0 0 0-1.358-1.895l-.642 1.895zm-7.755-4.74a2 2 0 0 0-2.642 1.894h2l.642-1.894z" fill="#101010" mask="url(#ama)"/><mask id="amb" maskUnits="userSpaceOnUse" x="17" y="47" width="11" height="11"><path d="M17.078 48.134a1 1 0 0 1 1.321-.947l8.397 2.845a1 1 0 0 1 .68.947v5.792a1 1 0 0 1-1.322.947l-8.397-2.845a1 1 0 0 1-.679-.947v-5.792z" fill="#F6F6F6"/></mask><g mask="url(#amb)"><path d="M16.792 46.466l10.804 3.158v3.32l-10.804-3.32v-3.158z" fill="#fff"/><path d="M16.551 49.202l10.925 3.517v2.77L16.55 51.865v-2.663z" fill="#3085F8"/><path d="M16.667 51.865l11.028 3.674v2.836l-10.903-3.732-.125-2.778z" fill="#F61D2A"/></g></symbol><symbol fill="none" viewBox="0 0 32 32" id="electronics" xmlns="http://www.w3.org/2000/svg"><path d="M15.235 5.198h2.26" stroke="#101010" stroke-width=".8" stroke-linecap="round"/><rect x="9.4" y="3.4" width="13.929" height="25.782" rx="2.6" stroke="#101010" stroke-width=".8"/><path d="M9.456 6.989h13.486m0 17.572H9.456" stroke="#000" stroke-width=".8"/><path d="M12.837 15.344s.851-1.564 3.603-1.564c2.751 0 3.69 1.564 3.69 1.564m-5.53 1.657s.482-.828 1.84-.812c1.357.016 1.84.812 1.84.812" stroke="#101010" stroke-width=".8" stroke-linecap="round"/><ellipse cx="16.296" cy="18.727" rx=".659" ry=".665" fill="#101010"/><ellipse cx="16.361" cy="27.007" rx=".848" ry=".854" fill="#101010"/></symbol><symbol fill="none" viewBox="0 0 32 32" id="favs" xmlns="http://www.w3.org/2000/svg"><path d="M16.394 25.78l-.28-.287a.403.403 0 0 0-.05.061l.33.226zm8.924-8.818l-.302-.263-.007.008.309.255zm-9.425-6.76l-.343.206a.4.4 0 0 0 .668.026l-.325-.233zM6.969 8.34l-.267-.298.267.298zm-.4 8.622l.298-.266v-.001l-.299.267zm8.643 9.104c.213.207.485.334.769.334a.89.89 0 0 0 .744-.395l-.661-.45c-.024.034-.05.045-.083.045-.042 0-.121-.02-.21-.107l-.559.573zm1.462 0c1.575-1.54 6.829-6.28 8.952-8.85l-.617-.51c-2.088 2.527-7.261 7.192-8.894 8.788l.559.572zm8.945-8.841c1.211-1.39 1.832-3.029 1.778-4.66-.054-1.636-.784-3.23-2.212-4.522l-.537.594c1.28 1.157 1.903 2.551 1.95 3.954.046 1.405-.487 2.852-1.582 4.108l.603.526zm-.434-9.182c-1.458-1.319-3.273-1.687-5.019-1.294-1.737.392-3.396 1.534-4.599 3.22l.651.465c1.104-1.547 2.603-2.561 4.124-2.904 1.513-.341 3.057-.024 4.306 1.106l.537-.593zm-8.95 1.952c-2.113-3.512-6.81-4.4-9.533-1.953l.535.595c2.29-2.059 6.417-1.38 8.313 1.77l.686-.412zM6.703 8.043c-2.787 2.513-2.67 6.687-.432 9.186l.596-.534c-1.973-2.204-2.056-5.869.371-8.058l-.535-.594zm-.432 9.185c2.017 2.267 7.354 7.286 8.942 8.838l.56-.572c-1.62-1.584-6.912-6.559-8.905-8.798l-.597.532z" fill="#101010"/></symbol><symbol fill="none" viewBox="0 0 65 16" id="halva" xmlns="http://www.w3.org/2000/svg"><g clip-path="url(#apclip0)"><path d="M10.976 8.41c.156-.052.286-.104.39-.156a8.038 8.038 0 0 0 2.752-1.56c.908-.806 1.583-1.742 1.79-2.99.26-1.56-.622-2.99-2.102-3.354-.883-.208-1.713-.104-2.492.338-.312.182-.545.468-.779.728-.156.156-.156.338 0 .546.493.754.701 1.612.571 2.522-.104.728-.467 1.3-1.116 1.664a5.098 5.098 0 0 0-.156-.364L7.965 1.026C7.887.818 7.783.714 7.55.714H2.877a1.62 1.62 0 0 1-.415.104c1.116 2.236 2.206 4.394 3.296 6.604-1.038.312-1.973.754-2.803 1.352C2.02 9.45 1.24 10.282.8 11.4c-.753 1.924.338 3.874 2.285 4.186 1.116.182 2.414-.416 2.985-1.404.13-.234.182-.442 0-.702-.338-.468-.467-1.04-.493-1.612 0-.884.363-1.56 1.09-2.08.052.13.104.234.156.338l1.947 4.758c.078.208.207.286.441.286h4.958c.104 0 .208-.026.364-.026a572.876 572.876 0 0 1-3.557-6.734zm25.857-1.456v.208c-.312 2.548-.623 5.122-.961 7.67-.026.26.026.364.286.338h3.115c.7 0 .597.156.675-.624.26-1.976.493-3.926.727-5.902.13-1.092.26-2.21.415-3.302.026-.182 0-.286-.182-.312a6.614 6.614 0 0 1-.7-.13 20.37 20.37 0 0 0-7.633.104c-.233.052-.311.156-.337.39-.156.962-.286 1.924-.494 2.886-.389 1.924-1.116 3.666-2.725 4.888-.104.078-.156.286-.156.442.078.884.83 1.768 1.713 1.924 1.116.234 2.103-.052 2.83-.962.39-.494.727-1.092.908-1.69.338-1.196.546-2.392.753-3.614.13-.754.156-1.534.234-2.34.493.026.986.026 1.532.026zm12.928.312a3.796 3.796 0 0 0-1.324-.182c-.65.026-1.324.13-2 .182-.025-.208.105-.26.338-.312.779-.156 1.584-.286 2.337-.52 1.116-.338 2.102-.884 2.803-1.846.493-.676.727-1.43.52-2.262C52.148 1.078 50.98.194 49.578.142 47.917.09 46.516.74 45.32 1.884c-1.194 1.17-1.972 2.574-2.544 4.134-.597 1.742-.96 3.51-.727 5.356.26 1.95 1.247 3.38 3.194 3.978.83.26 1.687.234 2.57.078 2.258-.416 4.205-2.132 4.309-4.784.104-1.69-.727-2.938-2.362-3.38zm-2-3.822c.13-.26.416-.494.702-.598.389-.156.675.104.597.52-.026.208-.13.442-.234.624-.441.65-1.09 1.066-1.791 1.43-.026-.026-.078-.052-.104-.078.26-.65.52-1.3.83-1.898zm.104 9.256c-.13.182-.311.312-.493.416-.441.26-.96.13-1.168-.338a3.532 3.532 0 0 1-.311-1.248c-.026-.676.077-1.378.103-2.054.026-.234.104-.364.364-.364.156 0 .337-.052.415-.052.96-.026 1.532.416 1.662 1.274.155.884-.078 1.664-.572 2.366zM28.214 5.16c.026-.234-.026-.286-.234-.286h-3.634c-.234 0-.312.078-.338.312-.026.338-.078.702-.155 1.118a.709.709 0 0 0-.104-.13c-.78-1.378-1.895-1.924-3.427-1.612-1.402.286-2.362 1.17-3.037 2.392-.831 1.508-1.117 3.146-.857 4.862.13.91.415 1.742.96 2.47.753.988 1.87 1.378 3.064 1.066 1.038-.286 1.765-.962 2.414-1.794.078-.104.156-.208.26-.338.181 1.482 1.142 2.314 2.596 2.236a3.077 3.077 0 0 0 2.362-1.248c.156-.182.182-.364-.078-.494a1.07 1.07 0 0 1-.597-.91c-.026-.728-.052-1.456.026-2.158.208-1.846.52-3.666.779-5.486zm-5.192 6.526a2.19 2.19 0 0 1-.65.728c-.596.416-1.297.208-1.583-.468a2.77 2.77 0 0 1-.233-.91 5.344 5.344 0 0 1 .415-2.626 3.15 3.15 0 0 1 .623-.91c.597-.572 1.428-.39 1.74.364.181.442.233.91.337 1.378-.104.884-.234 1.716-.65 2.444zm41.977-6.474c.052-.26-.026-.338-.285-.338h-3.557c-.26 0-.363.104-.39.364-.025.338-.077.676-.13 1.014-.025 0-.051 0-.051-.026-.026-.052-.078-.104-.104-.156-.623-1.144-1.61-1.664-2.907-1.56-1.428.104-2.493.858-3.245 2.028-1.039 1.56-1.35 3.302-1.143 5.148.104.936.39 1.846.987 2.626.804.988 1.817 1.326 3.037 1.014 1.038-.26 1.765-.962 2.414-1.768.078-.078.13-.182.234-.312.286 1.586 1.246 2.34 2.752 2.184.882-.078 1.635-.494 2.206-1.222.13-.182.234-.364-.026-.52-.415-.234-.623-.624-.649-1.066-.026-.624-.051-1.248.026-1.872.26-1.82.545-3.666.831-5.538zm-5.192 6.422a2.198 2.198 0 0 1-.675.78c-.597.442-1.324.234-1.583-.468-.156-.416-.208-.884-.312-1.352.078-.78.182-1.508.52-2.184.181-.364.415-.702.7-.962.545-.468 1.298-.312 1.61.364.155.338.26.754.285 1.144.078.936-.078 1.846-.545 2.678z" fill="#842325"/></g><defs><clipPath id="apclip0"><path fill="#fff" transform="translate(.567 .142)" d="M0 0h64.433v15.496H0z"/></clipPath></defs></symbol><symbol fill="none" viewBox="0 0 32 32" id="hobby" xmlns="http://www.w3.org/2000/svg"><path d="M28.526 3.455C21.166 6.5 12.052 15.104 9.196 19.926m-3.023.754a2 2 0 0 1 2.732-.733l.181.105a2 2 0 0 1 .732 2.732l-2.721 4.713a2 2 0 0 1-2.732.732l-.182-.104a2 2 0 0 1-.732-2.732l2.722-4.714z" stroke="#101010" stroke-width=".8" stroke-linecap="round" stroke-linejoin="round"/><path d="M24.029 26.94a.4.4 0 0 0-.8 0h.8zm3.504-7.794l-.4.02.4-.02zM26.188 4.45c-.152.912.206 1.783.552 2.586.36.838.73 1.646.798 2.567l.798-.06c-.08-1.08-.516-2.021-.861-2.823-.36-.835-.605-1.493-.498-2.139l-.789-.131zm1.35 5.153c.061.826-.345 1.353-.89 2.05-.534.685-1.17 1.503-1.17 2.812h.8c0-1.011.469-1.638 1-2.319.522-.668 1.145-1.427 1.058-2.602l-.798.059zm-1.355 14.316v3.021h.8V23.92h-.8zm0 3.021c0 .343-.116.623-.298.815-.18.19-.447.315-.798.315v.8c.555 0 1.036-.205 1.377-.563.34-.356.519-.841.519-1.367h-.8zm-1.096 1.13c-.363 0-.616-.115-.778-.287-.165-.173-.28-.448-.28-.843h-.8c0 .55.162 1.04.5 1.395.34.357.817.535 1.358.535v-.8zm.392-13.605c0 1.271.437 2.036.853 2.699.41.652.76 1.156.801 2.001l.8-.038c-.053-1.087-.53-1.764-.924-2.39-.387-.615-.73-1.224-.73-2.272h-.8zm1.654 4.7c.049 1.018-.17 1.741-.413 2.436-.243.691-.537 1.41-.537 2.318h.8c0-.742.233-1.316.491-2.053.258-.731.514-1.57.458-2.74l-.799.04z" fill="#101010"/><circle cx="14.153" cy="18.947" r="2.935" stroke="#101010" stroke-width=".8"/><circle cx="14.164" cy="18.959" r=".5" fill="#101010" stroke="#101010" stroke-width=".373"/><path d="M25.28 23.529h2.712" stroke="#101010" stroke-linecap="round" stroke-linejoin="round"/><path d="M7.995 6.032c-.66-.716-1.504-2.51.396-3.957 1.13 1.583.207 3.298-.396 3.957zm0 0c1.493 1.945 3.863.81 4.862 0-.942-.678-3.234-1.628-4.862 0zm0 0c-3.134-.104-5.002.992-5.922 2.695m5.922-2.695c.557 2.563-.545 4.809-2.633 5.871m-3.29-3.176c-.573 1.063-.778 2.36-.692 3.75 1.533.214 2.892-.019 3.982-.574m-3.29-3.176c1.049.02 3.174.682 3.29 3.176" stroke="#101010" stroke-width=".75" stroke-linecap="round" stroke-linejoin="round"/></symbol><symbol fill="none" viewBox="0 0 32 32" id="home" xmlns="http://www.w3.org/2000/svg"><path d="M26.028 10.5a3.454 3.454 0 0 0-.985.155V7.391a4.512 4.512 0 0 0-1.263-3.113A4.174 4.174 0 0 0 20.772 3h-9.497a4.174 4.174 0 0 0-3.008 1.278 4.512 4.512 0 0 0-1.263 3.113v3.28a3.194 3.194 0 0 0-.986-.163 2.92 2.92 0 0 0-1.158.24 3.008 3.008 0 0 0-.981.685 3.15 3.15 0 0 0-.654 1.023 3.323 3.323 0 0 0 .114 2.663c.222.451.543.842.938 1.14v8.792c0 .109.041.213.115.29.074.077.174.12.279.12h1.371v1.712a1.684 1.684 0 0 0 .37 1.223c.138.167.306.304.496.402.19.099.396.156.608.17.859 0 1.434-.722 1.434-1.795v-1.712h14.1v1.745a1.678 1.678 0 0 0 .37 1.222c.137.168.306.305.495.403.19.098.397.156.608.169.86 0 1.434-.72 1.434-1.794v-1.712h1.372a.387.387 0 0 0 .278-.12.418.418 0 0 0 .116-.29v-8.793c.396-.296.718-.686.94-1.138.222-.451.337-.951.337-1.458a3.247 3.247 0 0 0-.21-1.207 3.153 3.153 0 0 0-.638-1.032 3.019 3.019 0 0 0-.97-.698 2.92 2.92 0 0 0-1.154-.258zM7.752 7.39c.004-.475.099-.945.279-1.383.18-.437.44-.833.768-1.165a3.457 3.457 0 0 1 1.14-.77 3.371 3.371 0 0 1 1.336-.254h9.536a3.4 3.4 0 0 1 2.451 1.039 3.676 3.676 0 0 1 1.032 2.533v3.633a3.007 3.007 0 0 0-.928 1.158c-.211.461-.306.97-.277 1.48v2.63H8.959v-2.63a3.168 3.168 0 0 0-.286-1.469 3.04 3.04 0 0 0-.92-1.153V7.391zm1.206 9.72H23.05v2.4H8.96v-2.4zm-3.893-1.073a.435.435 0 0 0-.05-.203.403.403 0 0 0-.14-.15 2.33 2.33 0 0 1-.798-.864 2.442 2.442 0 0 1-.289-1.16 2.368 2.368 0 0 1 .631-1.64 2.19 2.19 0 0 1 2.71-.407.476.476 0 0 0 .111.057c.309.218.557.517.72.866.164.35.236.737.21 1.125v10.98H5.08l-.015-8.604zm3.105 9.456v1.712c0 .23-.047.975-.646.975-.6 0-.686-.524-.686-.975v-1.712h1.348s-.016-.008-.016 0zm.788-.82V20.33H23.05v4.312l-14.09.033zm16.211.82v1.712c0 .23-.047.975-.646.975s-.686-.524-.686-.975v-1.712h1.348s-.016-.008-.016 0zm1.963-9.809a.402.402 0 0 0-.14.15.424.424 0 0 0-.05.203v8.604h-3.105v-10.98a2.2 2.2 0 0 1 .1-.92 2.15 2.15 0 0 1 .466-.787c.21-.224.463-.397.744-.507a1.98 1.98 0 0 1 .881-.13 2.19 2.19 0 0 1 1.56.703c.41.439.638 1.029.631 1.64.001.407-.099.806-.289 1.16a2.32 2.32 0 0 1-.798.864z" fill="#101010"/></symbol><symbol fill="none" viewBox="0 0 104 58" id="logo" xmlns="http://www.w3.org/2000/svg"><path d="M32.269 44.21c26.68-10.141 10.094-14.273 1.912-20.304-3.736-2.762-5.336-8.661-3.802-11.82C34.314 3.998 41.406.288 51.812 0l18.433 3.844s-13.23 4.088-15.564 6.739c-5.781 6.85 9.76 9.368 13.585 13.257 3.824 3.888 6.225 11.334 2.757 15.465-2.18 2.486-4.579 4.381-7.615 5.71-3.036 1.329-6.634 2.06-9.95 1.979l-21.19-2.784z" fill="#C0FBF8"/><path d="M80.11 21.385h-3.867v-8.846h4.112c1.778 0 6.18 0 6.18 4.268 0 4.622-5.002 4.578-6.425 4.578zm20.761 11.057a9.225 9.225 0 0 0-2.811-5.082 9.312 9.312 0 0 0-5.302-2.415c3.717-.684 9.879-2.454 9.698-10.416-.181-7.961-7.718-11.057-16.633-11.013H68.707a54.26 54.26 0 0 0-2.934.398c-3.112.53-9.914 2.61-12.848 5.905a5.185 5.185 0 0 0-1.534 3.472c.096.823.383 1.614.838 2.309a5.368 5.368 0 0 0 1.785 1.694 50.018 50.018 0 0 0 5.09 3.14 40.016 40.016 0 0 1 7.18 4.843 10.523 10.523 0 0 1 2.854 3.182 10.468 10.468 0 0 1 1.347 4.05 14.444 14.444 0 0 1-1.429 6.607 14.522 14.522 0 0 1-4.283 5.246l12.114-.017V30.098h3.557a4.64 4.64 0 0 1 3.404.955 4.594 4.594 0 0 1 1.73 3.07l1.534 10.222H104l-3.129-11.814v-.089zm-59.06-5.75a33.858 33.858 0 0 1-7.69-5.197 9.556 9.556 0 0 1-2.31-3.155 9.512 9.512 0 0 1-.847-3.81c0-4.158 3.2-7.962 7.113-11.058H26.296v14.242H15.76V3.516H0v40.83h15.76V29.323h10.536v15.021l7.135.039a36.535 36.535 0 0 0 10.492-3.693c3.067-1.77 5.023-3.937 5.001-6.37a5.02 5.02 0 0 0-1.578-3.87 22.234 22.234 0 0 0-5.535-3.692v-.067zM4.886 57.9H3.543v-2.363H1.402V57.9H.059v-5.864h1.343v2.245h2.14v-2.245h1.344V57.9zm1.1-2.932c0-.866.288-1.587.864-2.162.582-.58 1.335-.87 2.258-.87.918 0 1.665.276 2.242.828.587.553.881 1.288.881 2.203 0 .883-.297 1.609-.89 2.178-.587.57-1.332.855-2.233.855-.912 0-1.662-.276-2.25-.83-.581-.552-.872-1.287-.872-2.203zm1.427 0c0 .497.165.918.495 1.264a1.59 1.59 0 0 0 1.2.511c.537 0 .954-.164 1.251-.494.297-.34.445-.768.445-1.282 0-.53-.162-.957-.487-1.281a1.646 1.646 0 0 0-1.209-.494c-.492 0-.898.164-1.217.494-.319.33-.478.757-.478 1.282zm7.264 2.932h-1.343v-5.864h1.351l1.813 2.47 1.713-2.47h1.267V57.9h-1.343v-3.737l-1.637 2.287h-.193l-1.628-2.262V57.9zm9.89 0H21v-5.864h3.483v1.256h-2.14v1.03h1.889v1.257h-1.889v1.064h2.224V57.9zm5.302-1.609c0-.246-.288-.505-.865-.779a13.34 13.34 0 0 1-.445-.201 4.2 4.2 0 0 1-.42-.268 2.341 2.341 0 0 1-.377-.36 1.873 1.873 0 0 1-.252-.461 1.598 1.598 0 0 1-.092-.595c0-.469.173-.868.52-1.198.347-.33.806-.494 1.377-.494.75 0 1.326.215 1.729.645l-.722 1.005a1.709 1.709 0 0 0-.428-.31 1.082 1.082 0 0 0-.462-.083c-.184 0-.33.039-.436.117a.382.382 0 0 0-.151.318.55.55 0 0 0 .176.402c.123.118.274.215.453.293a5.994 5.994 0 0 1 1.184.637c.184.123.335.299.453.528.123.223.185.486.185.787 0 .503-.193.916-.58 1.24-.374.324-.853.486-1.435.486-.425 0-.828-.087-1.209-.26-.386-.173-.646-.407-.78-.703l.763-.913c.152.195.342.349.571.46.23.106.46.16.689.16.173 0 .307-.04.403-.118a.414.414 0 0 0 .15-.335zM37.22 57.9h-1.343v-2.363h-2.14V57.9h-1.343v-5.864h1.343v2.245h2.14v-2.245h1.343V57.9zm1.1-2.932c0-.866.288-1.587.865-2.162.582-.58 1.335-.87 2.258-.87.918 0 1.665.276 2.241.828.588.553.882 1.288.882 2.203 0 .883-.297 1.609-.89 2.178-.588.57-1.332.855-2.233.855-.912 0-1.662-.276-2.25-.83-.582-.552-.873-1.287-.873-2.203zm1.427 0c0 .497.165.918.496 1.264.324.341.724.511 1.2.511.537 0 .954-.164 1.25-.494.297-.34.446-.768.446-1.282 0-.53-.163-.957-.487-1.281a1.646 1.646 0 0 0-1.209-.494c-.492 0-.898.164-1.217.494-.32.33-.479.757-.479 1.282zm7.264.938V57.9h-1.343v-5.864c.258 0 .54-.003.848-.009.314-.005.63-.008.949-.008.828 0 1.432.184 1.813.553.375.357.562.82.562 1.39 0 .548-.198 1.014-.596 1.4-.397.379-.923.569-1.578.569a6.17 6.17 0 0 1-.654-.025zm.588-2.63a.923.923 0 0 0-.075.008c-.045 0-.115.002-.21.008h-.303v1.34c.235.028.44.042.613.042.23 0 .417-.058.563-.176.15-.122.226-.304.226-.544 0-.452-.271-.679-.814-.679zm4.685 2.63V57.9h-1.343v-5.864c.257 0 .54-.003.848-.009.313-.005.63-.008.948-.008.828 0 1.433.184 1.813.553.375.357.563.82.563 1.39a1.88 1.88 0 0 1-.596 1.4c-.398.379-.924.569-1.578.569-.291 0-.51-.008-.655-.025zm.588-2.63a.879.879 0 0 0-.076.008c-.045 0-.115.002-.21.008h-.302v1.34c.235.028.44.042.613.042.23 0 .417-.058.562-.176.151-.122.227-.304.227-.544 0-.452-.272-.679-.814-.679zM57.64 57.9h-1.343v-5.864h1.343V57.9zm6.728-5.864V57.9h-1.074l-2.787-3.519V57.9h-1.26v-5.864h1.075l2.787 3.535v-3.535h1.26zm5.19 3.778h-1.251v-1.257h2.51v2.614c-.252.251-.588.452-1.007.603-.409.15-.806.226-1.192.226-.985 0-1.758-.274-2.317-.821-.554-.547-.831-1.284-.831-2.212 0-.865.271-1.585.814-2.16.548-.582 1.27-.872 2.166-.872.772 0 1.413.204 1.922.612l-.563 1.08c-.117-.123-.29-.226-.52-.31a1.926 1.926 0 0 0-.68-.125c-.52 0-.937.153-1.25.46-.308.307-.462.746-.462 1.316 0 .541.156.974.47 1.298.319.318.741.477 1.267.477.157 0 .333-.03.53-.092.184-.061.315-.128.394-.2v-.637zm5.637.033V57.9h-1.343v-5.864c.32 0 .672-.003 1.058-.009.386-.005.7-.008.94-.008 1.45 0 2.174.625 2.174 1.876 0 .804-.33 1.368-.99 1.692l1.712 2.313h-1.628l-1.427-2.053h-.496zm.588-2.572l-.076.009a3.54 3.54 0 0 0-.21.008h-.302v1.299h.487c.61 0 .915-.227.915-.679 0-.424-.271-.637-.814-.637zm7.261-1.239h1.343v3.442c0 .844-.23 1.475-.688 1.894-.454.419-1.024.628-1.713.628-.783 0-1.404-.22-1.863-.662-.465-.447-.697-1.086-.697-1.918v-3.384h1.343v3.1c0 1.071.406 1.607 1.217 1.607.375 0 .644-.125.806-.377.168-.25.252-.636.252-1.155v-3.175zm4.936 4.255c0-.246-.287-.505-.864-.779a13.34 13.34 0 0 1-.445-.201 4.2 4.2 0 0 1-.42-.268 2.345 2.345 0 0 1-.377-.36 1.873 1.873 0 0 1-.252-.461 1.598 1.598 0 0 1-.092-.595c0-.469.173-.868.52-1.198.347-.33.806-.494 1.377-.494.75 0 1.326.215 1.73.645l-.723 1.005a1.709 1.709 0 0 0-.428-.31 1.082 1.082 0 0 0-.462-.083c-.184 0-.33.039-.436.117a.382.382 0 0 0-.151.318c0 .151.059.285.176.402.123.118.274.215.453.293a5.994 5.994 0 0 1 1.184.637c.185.123.336.299.453.528.123.223.185.486.185.787 0 .503-.193.916-.58 1.24-.374.324-.853.486-1.435.486-.425 0-.828-.087-1.209-.26-.386-.173-.646-.407-.78-.703l.764-.913c.15.195.341.349.57.46.23.106.46.16.689.16.173 0 .308-.04.403-.118a.414.414 0 0 0 .15-.335zm4.683 0c0-.246-.288-.505-.864-.779a13.53 13.53 0 0 1-.445-.201 4.2 4.2 0 0 1-.42-.268 2.34 2.34 0 0 1-.378-.36 1.873 1.873 0 0 1-.252-.461 1.598 1.598 0 0 1-.092-.595c0-.469.173-.868.52-1.198.347-.33.806-.494 1.377-.494.75 0 1.326.215 1.73.645l-.722 1.005a1.709 1.709 0 0 0-.429-.31 1.082 1.082 0 0 0-.461-.083c-.185 0-.33.039-.437.117a.381.381 0 0 0-.15.318c0 .151.058.285.175.402.124.118.275.215.454.293.184.073.383.165.596.277.212.112.408.232.587.36.185.123.336.299.454.528.123.223.184.486.184.787 0 .503-.193.916-.579 1.24-.375.324-.853.486-1.435.486-.426 0-.829-.087-1.21-.26-.385-.173-.646-.407-.78-.703l.764-.913c.151.195.341.349.57.46.23.106.46.16.69.16.173 0 .307-.04.402-.118a.414.414 0 0 0 .151-.335zm3.952 1.609h-1.343v-5.864h1.343V57.9zm2.204 0h-1.352l2.443-5.864h1.2l2.443 5.864h-1.435l-.487-1.232h-2.326L98.82 57.9zm2.308-2.489l-.655-1.658-.663 1.658h1.318z" fill="#101010"/></symbol><symbol fill="none" viewBox="0 0 32 32" id="loyalty" xmlns="http://www.w3.org/2000/svg"><path d="M16 28c6.627 0 12-5.373 12-12S22.627 4 16 4 4 9.373 4 16s5.373 12 12 12z" stroke="#101010" stroke-width=".8"/><path d="M12.566 22.808v-13h4.638c1.392 0 4.176.944 4.176 3.865 0 2.921-2.57 3.96-3.733 3.96H11.38m6.267 1.73H11.38" stroke="#101010" stroke-width=".8" stroke-linecap="round" stroke-linejoin="round"/></symbol><symbol fill="none" viewBox="0 0 34 20" id="mastercard" xmlns="http://www.w3.org/2000/svg"><g clip-path="url(#auclip0)"><path d="M20.722 2.076h-8.821v15.261h8.821V2.076z" fill="#FF5F00"/><path d="M12.46 9.709a9.39 9.39 0 0 1 1.012-4.244 9.77 9.77 0 0 1 2.84-3.388 10.299 10.299 0 0 0-5.155-2.02 10.43 10.43 0 0 0-5.482.921 9.96 9.96 0 0 0-4.14 3.58A9.44 9.44 0 0 0 0 9.709a9.44 9.44 0 0 0 1.536 5.148 9.96 9.96 0 0 0 4.14 3.58 10.424 10.424 0 0 0 5.481.921 10.298 10.298 0 0 0 5.154-2.019 9.77 9.77 0 0 1-2.838-3.387 9.392 9.392 0 0 1-1.012-4.242z" fill="#EB001B"/><path d="M32.624 9.708a9.44 9.44 0 0 1-1.536 5.149 9.961 9.961 0 0 1-4.14 3.58 10.425 10.425 0 0 1-5.482.92 10.298 10.298 0 0 1-5.155-2.02 9.785 9.785 0 0 0 2.838-3.389 9.407 9.407 0 0 0 1.014-4.242c0-1.47-.346-2.92-1.014-4.242a9.785 9.785 0 0 0-2.838-3.388 10.299 10.299 0 0 1 5.155-2.02c1.88-.195 3.78.124 5.482.92a9.961 9.961 0 0 1 4.14 3.58 9.44 9.44 0 0 1 1.536 5.149v.003z" fill="#F79E1B"/></g><defs><clipPath id="auclip0"><path fill="#fff" d="M0 0h33.44v19.454H0z"/></clipPath></defs></symbol><symbol fill="none" viewBox="0 0 56 16" id="mir" xmlns="http://www.w3.org/2000/svg"><g clip-path="url(#avclip0)"><path d="M39.345 7.378v7.844h4.906v-4.413h4.938c2.579 0 4.78-1.424 5.63-3.431H39.345z" fill="#006848"/><path d="M39.144.379c.016.399.08.797.174 1.166.016.076.048.168.064.245.015.03.015.061.031.107.885 2.716 3.493 4.68 6.576 4.68h9.104a4.59 4.59 0 0 0 .095-.936c0-1.534-.68-2.915-1.77-3.882A5.479 5.479 0 0 0 49.75.38H39.144z" fill="url(#avpaint0_linear)"/><path d="M30.535 1.951l-3.463 7.22h-.35V.38h-4.924v14.883h4.178c1.096 0 2.097-.61 2.558-1.572l3.463-7.22h.35v8.792h4.924V.38h-4.178c-1.096 0-2.097.61-2.558 1.572zm-22.84.392L9.742 9.22h.347l2.031-6.876C12.467 1.177 13.554.38 14.798.38h4.882v14.964h-4.882v-8.84h-.347l-2.803 8.84h-3.48l-2.804-8.84h-.347v8.84H.135V.379h4.882c1.244 0 2.331.798 2.678 1.964z" fill="#006848"/></g><defs><linearGradient id="avpaint0_linear" x1="39.142" y1="3.48" x2="55.183" y2="3.48" gradientUnits="userSpaceOnUse"><stop stop-color="#02AFFF"/><stop offset="1" stop-color="#1F5BDE"/></linearGradient><clipPath id="avclip0"><path fill="#fff" transform="translate(.135 .379)" d="M0 0h55.053v14.996H0z"/></clipPath></defs></symbol><symbol fill="none" viewBox="0 0 32 32" id="ok" xmlns="http://www.w3.org/2000/svg"><path fill-rule="evenodd" clip-rule="evenodd" d="M20.231 16.844a1.117 1.117 0 0 0-1.51-.334 4.908 4.908 0 0 1-5.041 0 1.117 1.117 0 0 0-1.51.334 1.036 1.036 0 0 0 .342 1.46c.677.41 1.41.702 2.173.87l-2.091 2.02a1.033 1.033 0 0 0 0 1.496c.215.207.495.31.775.31.282 0 .562-.104.777-.31l2.054-1.985 2.057 1.984a1.127 1.127 0 0 0 1.55 0 1.02 1.02 0 0 0 .322-.748 1.036 1.036 0 0 0-.322-.749l-2.093-2.02a7.145 7.145 0 0 0 2.173-.87c.513-.311.667-.964.344-1.459zm-4.03-5.726c.854 0 1.549.67 1.549 1.495 0 .825-.696 1.496-1.55 1.496-.854 0-1.55-.672-1.55-1.496s.696-1.496 1.55-1.496v.001zm0 5.107c2.065 0 3.742-1.62 3.742-3.612S18.263 9 16.199 9s-3.742 1.621-3.742 3.613 1.678 3.612 3.742 3.612h.001z" fill="#101010"/><path d="M16 28c6.627 0 12-5.373 12-12S22.627 4 16 4 4 9.373 4 16s5.373 12 12 12z" stroke="#101010"/></symbol><symbol fill="none" viewBox="0 0 32 32" id="prevoslav" xmlns="http://www.w3.org/2000/svg"><path d="M11.103 4h13.888a2 2 0 0 1 2 2v16.258a2 2 0 0 1-2 2H11.103V4zm14.331 20.428v3.701H9.267a1.936 1.936 0 0 1-1.936-1.935v0c0-1.07.867-1.936 1.936-1.936h1.742" stroke="#101010" stroke-width=".75" stroke-linecap="round" stroke-linejoin="round"/><path d="M11.284 4.002H9.351a2 2 0 0 0-2 2v19.863m10.806-14.012h-1.964a.982.982 0 0 0 0 1.964h1.964v3.926a.982.982 0 0 0 1.963 0v-3.926h1.963a.982.982 0 1 0 0-1.964H20.12V9.89a.982.982 0 1 0-1.963 0v1.963z" stroke="#101010" stroke-width=".75" stroke-linecap="round" stroke-linejoin="round"/></symbol><symbol fill="none" viewBox="0 0 24 24" id="search" xmlns="http://www.w3.org/2000/svg"><path d="M21.849 20.151l-4.425-4.434a7.663 7.663 0 1 0-.707.707l4.434 4.425a.477.477 0 0 0 .698 0 .477.477 0 0 0 0-.698zm-10.155-2.82a6.637 6.637 0 1 1 6.637-6.637 6.647 6.647 0 0 1-6.637 6.637z" fill="#101010"/></symbol><symbol fill="none" viewBox="0 0 32 32" id="show-more" xmlns="http://www.w3.org/2000/svg"><path d="M29.5 15.5a.5.5 0 0 0-.5.5 13.044 13.044 0 0 1-2.646 7.8 12.999 12.999 0 0 1-6.786 4.649 12.975 12.975 0 0 1-8.213-.36A13.006 13.006 0 0 1 5 22.864l2.18.24a.5.5 0 0 0 .405-.833.5.5 0 0 0-.345-.168L4 21.742h-.1a.48.48 0 0 0-.52.39l-.65 3.247a.502.502 0 0 0 .39.592h.1a.51.51 0 0 0 .49-.401l.43-2.145a14.006 14.006 0 0 0 6.853 5.647 13.973 13.973 0 0 0 8.863.385 14 14 0 0 0 7.315-5.03A14.048 14.048 0 0 0 30 16a.502.502 0 0 0-.5-.5zM3 16a13.045 13.045 0 0 1 2.452-7.585 13.002 13.002 0 0 1 6.404-4.733 12.974 12.974 0 0 1 7.956-.107 13 13 0 0 1 6.528 4.559h-2.17a.5.5 0 0 0-.354.855.5.5 0 0 0 .354.147h3.34a.5.5 0 0 0 .49-.45l.33-3.298a.506.506 0 0 0-.455-.546.501.501 0 0 0-.545.456l-.22 2.195a14 14 0 0 0-7.036-4.886 13.972 13.972 0 0 0-8.558.132 14.002 14.002 0 0 0-6.883 5.1A14.049 14.049 0 0 0 2 16a.502.502 0 0 0 .854.355A.502.502 0 0 0 3 16z" fill="#101010"/></symbol><symbol fill="none" viewBox="0 0 32 32" id="talisma" xmlns="http://www.w3.org/2000/svg"><path d="M22.092 7.264c-1.354 0-1.637-1.266-1.637-2.324a1.632 1.632 0 0 0-1.636-1.586H13.18a1.628 1.628 0 0 0-1.636 1.586c0 1.058-.29 2.324-1.637 2.324-3.607 0-5.764 2.517-5.764 6.74 0 5.846 5.482 12.155 10.599 14.374a3.283 3.283 0 0 0 2.559.015c5.816-2.398 10.554-8.848 10.554-14.389 0-4.223-2.18-6.74-5.764-6.74zM8.71 8.567A.565.565 0 0 1 8.8 9.69a.565.565 0 0 1-.31-1.081.572.572 0 0 1 .22-.04zm0 2.234a.743.743 0 0 1 .73.89.745.745 0 0 1-1.015.543.744.744 0 0 1 .285-1.433zm.595 2.48a.811.811 0 1 1-.826.812.827.827 0 0 1 .833-.804l-.007-.008zm1.205 2.235a.951.951 0 0 1 .909 1.153.954.954 0 0 1-1.3.679.952.952 0 0 1-.583-.879.969.969 0 0 1 .974-.953zm2.231 1.988A1.204 1.204 0 0 1 13.9 18.96a1.207 1.207 0 0 1-1.645.863 1.205 1.205 0 0 1-.739-1.112 1.222 1.222 0 0 1 1.197-1.207h.03zm3.265 1.214a1.486 1.486 0 0 1 1.46 1.78 1.49 1.49 0 0 1-2.029 1.086 1.487 1.487 0 0 1-.918-1.376 1.49 1.49 0 0 1 1.487-1.49zm1.986 0a1.238 1.238 0 0 1 1.457-1.245 1.234 1.234 0 0 1 .921 1.682 1.236 1.236 0 0 1-1.61.68 1.213 1.213 0 0 1-.753-1.124l-.015.007zm2.462-2.234a.977.977 0 0 1 1.15-.982.974.974 0 0 1 .727 1.328.976.976 0 0 1-.902.607.967.967 0 0 1-.96-.968l-.015.015zm2.18-1.557a.81.81 0 0 1-.797-.964.812.812 0 0 1 1.097-.601.81.81 0 0 1 .51.739.827.827 0 0 1-.796.812l-.015.014zm-.157-3.38a.746.746 0 0 1 .89-.731.743.743 0 0 1 .267 1.35.743.743 0 0 1-1.157-.62zm.744-1.84a.565.565 0 1 1 .58-.566.574.574 0 0 1-.558.58l-.022-.014zM12.288 4.94a.887.887 0 0 1 .893-.842h5.638a.884.884 0 0 1 .907.842c0 1.922.893 3.069 2.38 3.069h.491a1.288 1.288 0 0 0-.64 1.146 1.32 1.32 0 0 0 .61 1.103 1.487 1.487 0 0 0-.7 1.777c.072.22.195.42.358.584a1.547 1.547 0 0 0-1.115 1.49c.003.238.061.473.17.684a1.703 1.703 0 0 0-1.487 1.684c0 .123.015.245.045.365a1.961 1.961 0 0 0-2.47 1.542 2.29 2.29 0 0 0-1.36-.41 2.23 2.23 0 0 0-1.362.469 1.96 1.96 0 0 0-1.934-1.683 2.059 2.059 0 0 0-.528.074c.03-.12.045-.242.045-.365a1.707 1.707 0 0 0-1.487-1.683c.11-.212.168-.447.17-.685a1.551 1.551 0 0 0-1.115-1.49 1.49 1.49 0 0 0-.342-2.36 1.317 1.317 0 0 0 .602-1.096 1.29 1.29 0 0 0-.662-1.124h.536c1.465-.022 2.358-1.17 2.358-3.09zm4.731 22.768a2.563 2.563 0 0 1-1.978 0C10.139 25.57 4.887 19.56 4.887 14.004c0-2.74.952-4.633 2.67-5.489a1.35 1.35 0 0 0-.171.64 1.312 1.312 0 0 0 .602 1.103 1.489 1.489 0 0 0 .246 2.71 1.542 1.542 0 0 0-.498 1.133 1.565 1.565 0 0 0 1.294 1.527 1.61 1.61 0 0 0-.238.841 1.714 1.714 0 0 0 1.718 1.698c.11 0 .22-.013.327-.037a1.863 1.863 0 0 0-.096.58 1.975 1.975 0 0 0 2.047 1.943c.35-.014.691-.121.987-.311a2.236 2.236 0 0 0 2.213 2.253 2.23 2.23 0 0 0 2.25-2.216 1.962 1.962 0 0 0 2.975-1.668 1.863 1.863 0 0 0-.097-.581c.108.024.217.036.328.037a1.71 1.71 0 0 0 1.718-1.698 1.61 1.61 0 0 0-.238-.841 1.562 1.562 0 0 0 1.264-1.527 1.543 1.543 0 0 0-.498-1.132 1.487 1.487 0 0 0 .836-2.106 1.488 1.488 0 0 0-.59-.605 1.311 1.311 0 0 0 .416-1.773c1.755.842 2.73 2.748 2.73 5.519.03 5.266-4.5 11.41-10.064 13.704z" fill="#101010"/></symbol><symbol fill="none" viewBox="0 0 16 19" id="user" xmlns="http://www.w3.org/2000/svg"><path d="M11.647 4.25c0-2.015-1.69-3.706-3.706-3.706-2.117 0-3.705 1.698-3.705 3.706 0 2.015 1.69 3.706 3.705 3.706 2.016 0 3.706-1.69 3.706-3.706zm-7.556 0c0-2.14 1.71-3.85 3.85-3.85s3.85 1.71 3.85 3.85-1.71 3.85-3.85 3.85-3.85-1.71-3.85-3.85z" stroke="#fff" stroke-width=".8"/><path d="M13.567 18c.854 0 1.519-.871 1.424-1.742-.57-3.29-2.944-5.806-6.932-5.806-4.083 0-6.457 2.419-7.027 5.806A1.446 1.446 0 0 0 2.457 18h11.11z" stroke="#fff" stroke-width=".8" stroke-linecap="round" stroke-linejoin="round"/></symbol><symbol fill="none" viewBox="0 0 50 17" id="visa" xmlns="http://www.w3.org/2000/svg"><g clip-path="url(#bcclip0)" fill-rule="evenodd" clip-rule="evenodd"><path d="M17.553 16.51L20.035.844h3.967L21.52 16.509h-3.967zM36.001 1.226a9.663 9.663 0 0 0-3.563-.665c-3.924 0-6.687 2.129-6.703 5.172-.033 2.246 1.978 3.493 3.482 4.242 1.537.764 2.06 1.263 2.06 1.945-.017 1.048-1.242 1.53-2.387 1.53-1.586 0-2.436-.249-3.728-.831l-.523-.25-.555 3.51c.931.432 2.648.815 4.43.831 4.169 0 6.883-2.095 6.915-5.338.017-1.78-1.046-3.144-3.335-4.258-1.39-.715-2.24-1.198-2.24-1.93.017-.664.72-1.346 2.29-1.346a6.653 6.653 0 0 1 2.958.599l.36.166.54-3.377zM46.146.885h-3.071c-.948 0-1.667.283-2.075 1.299l-5.897 14.365h4.166l.833-2.35h5.096c.115.55.474 2.35.474 2.35h3.675L46.146.885zm-4.9 10.114l1.584-4.382c-.017.033.327-.917.523-1.5l.277 1.35s.752 3.75.915 4.532h-3.3zM14.36.845l-3.888 10.66-.425-2.162c-.719-2.494-2.973-5.205-5.489-6.552L8.12 16.46h4.199L18.558.846h-4.199z" fill="#005CA3"/><path d="M6.86.845H.477l-.066.316c4.98 1.297 8.277 4.424 9.633 8.182L8.655 2.158C8.427 1.161 7.726.878 6.86.845z" fill="#FFAD30"/></g><defs><clipPath id="bcclip0"><path fill="#fff" transform="translate(.411 .561)" d="M0 0h48.936v16.183H0z"/></clipPath></defs></symbol><symbol fill="none" viewBox="0 0 32 32" id="vk" xmlns="http://www.w3.org/2000/svg"><path fill-rule="evenodd" clip-rule="evenodd" d="M17.282 19.34c-.235.115-.562.173-.983.173h-1.796v-2.617h1.827c.418.005.742.06.972.167.413.19.62.542.62 1.052 0 .604-.215 1.012-.64 1.225zm-2.778-6.452h1.33c.466 0 .85.05 1.15.153.346.148.52.45.52.906 0 .413-.13.7-.394.863-.264.16-.606.242-1.028.242h-1.578v-2.164zm6.31 3.67c-.46-.45-.784-.744-1.57-.888v-.058c.558-.227.992-.543 1.296-.95.305-.405.467-.9.46-1.408a2.26 2.26 0 0 0-.336-1.223c-.223-.354-.56-.64-1.016-.85a4.627 4.627 0 0 0-1.332-.392c-.446-.061-1.45-.089-2.416-.089h-3.4a1 1 0 0 0-1 1v9a1 1 0 0 0 1 1h3.98c.868 0 1.587-.068 2.153-.207a4.732 4.732 0 0 0 1.557-.694c.406-.278.728-.623.96-1.045.234-.42.35-.893.35-1.425 0-.733-.23-1.323-.687-1.772l.001.001z" fill="#101010"/><path d="M16 28c6.627 0 12-5.373 12-12S22.627 4 16 4 4 9.373 4 16s5.373 12 12 12z" stroke="#101010"/></symbol><symbol fill="none" viewBox="0 0 32 32" id="youtube" xmlns="http://www.w3.org/2000/svg"><path fill-rule="evenodd" clip-rule="evenodd" d="M19.927 15.126a1 1 0 0 1 0 1.748l-5.941 3.3a1 1 0 0 1-1.486-.873V12.7a1 1 0 0 1 1.486-.875l5.94 3.3z" fill="#101010"/><path d="M16 28c6.627 0 12-5.373 12-12S22.627 4 16 4 4 9.373 4 16s5.373 12 12 12z" stroke="#101010"/></symbol></svg>