<svg width="32" height="32" fill="none" xmlns="http://www.w3.org/2000/svg"><path fill-rule="evenodd" clip-rule="evenodd" d="M17.282 19.34c-.235.115-.562.173-.983.173h-1.796v-2.617h1.827c.418.005.742.06.972.167.413.19.62.542.62 1.052 0 .604-.215 1.012-.64 1.225zm-2.778-6.452h1.33c.466 0 .85.05 1.15.153.346.148.52.45.52.906 0 .413-.13.7-.394.863-.264.16-.606.242-1.028.242h-1.578v-2.164zm6.31 3.67c-.46-.45-.784-.744-1.57-.888v-.058c.558-.227.992-.543 1.296-.95.305-.405.467-.9.46-1.408a2.26 2.26 0 0 0-.336-1.223c-.223-.354-.56-.64-1.016-.85a4.627 4.627 0 0 0-1.332-.392c-.446-.061-1.45-.089-2.416-.089h-3.4a1 1 0 0 0-1 1v9a1 1 0 0 0 1 1h3.98c.868 0 1.587-.068 2.153-.207a4.732 4.732 0 0 0 1.557-.694c.406-.278.728-.623.96-1.045.234-.42.35-.893.35-1.425 0-.733-.23-1.323-.687-1.772l.001.001z" fill="#101010"/><path fill-rule="evenodd" clip-rule="evenodd" d="M16 4.5C9.649 4.5 4.5 9.649 4.5 16S9.649 27.5 16 27.5 27.5 22.351 27.5 16 22.351 4.5 16 4.5zM3.5 16C3.5 9.096 9.096 3.5 16 3.5S28.5 9.096 28.5 16 22.904 28.5 16 28.5 3.5 22.904 3.5 16z" fill="#101010"/></svg>